<svg width="60" height="70" viewBox="0 0 60 70" fill="none" xmlns="http://www.w3.org/2000/svg">
<g clip-path="url(#clip0_389_12338)">
<rect width="60" height="70" rx="10" fill="#F3F0F0" style="fill:#F3F0F0;fill:color(display-p3 0.9529 0.9412 0.9412);fill-opacity:1;"/>
<path d="M35.1336 35.9289C35.2267 35.7219 35.3294 35.5102 35.4286 35.2997C35.5277 35.0869 35.2896 34.8752 35.4914 34.7047C35.7332 34.4989 35.8856 34.2237 36.0947 33.9932C36.2797 33.7897 36.2108 33.6545 36.0367 33.4922C35.8686 33.3369 35.5724 33.3663 35.4745 33.2146C35.3065 32.9547 35.2158 33.1429 35.107 33.217C35.0163 33.2781 34.9196 33.3605 34.8773 33.4557C34.6814 33.8967 34.3296 34.0978 33.8582 34.1837C33.5813 34.2343 33.2198 34.7693 33.3419 34.9011C33.5172 35.0892 33.3081 35.2421 33.2682 35.255C32.9998 35.3468 33.0095 35.5914 32.92 35.7784C32.8946 35.8325 32.8584 35.9289 32.9599 35.8971C33.4387 35.7454 33.2476 36.023 33.1993 36.2264C33.1755 36.3274 33.2721 36.3969 33.3758 36.3969H34.3253C34.6606 36.3969 34.9953 36.2344 35.1336 35.9289Z" fill="#8F8F92" style="fill:#8F8F92;fill:color(display-p3 0.5608 0.5608 0.5725);fill-opacity:1;"/>
<path d="M35.1336 35.9289C35.2267 35.7219 35.3294 35.5102 35.4286 35.2997C35.5277 35.0869 35.2896 34.8752 35.4914 34.7047C35.7332 34.4989 35.8856 34.2237 36.0947 33.9932C36.2797 33.7897 36.2108 33.6545 36.0367 33.4922C35.8686 33.3369 35.5724 33.3663 35.4745 33.2146C35.3065 32.9547 35.2158 33.1429 35.107 33.217C35.0163 33.2781 34.9196 33.3605 34.8773 33.4557C34.6814 33.8967 34.3296 34.0978 33.8582 34.1837C33.5813 34.2343 33.2198 34.7693 33.3419 34.9011C33.5172 35.0892 33.3081 35.2421 33.2682 35.255C32.9998 35.3468 33.0095 35.5914 32.92 35.7784C32.8946 35.8325 32.8584 35.9289 32.9599 35.8971C33.4387 35.7454 33.2476 36.023 33.1993 36.2264C33.1755 36.3274 33.2721 36.3969 33.3758 36.3969H34.3253C34.6606 36.3969 34.9953 36.2344 35.1336 35.9289Z" fill="url(#paint0_linear_389_12338)" style=""/>
<path d="M32.4939 35.9224C32.4927 35.9212 32.4916 35.92 32.4906 35.9186C32.2418 35.5659 32.235 35.0758 31.8525 34.8164C31.4451 34.5412 31.1404 34.2331 31.1707 33.7109C31.1755 33.6298 31.1537 33.5286 31.0413 33.511C30.9289 33.4934 30.8443 33.5392 30.7971 33.6451C30.7463 33.7591 30.6714 33.8826 30.75 33.9967C30.9579 34.3001 30.8007 34.62 30.8165 34.9305C30.8261 35.1057 30.7185 35.1468 30.5783 35.1433C30.4368 35.141 30.299 35.0633 30.328 34.9246C30.3897 34.6317 30.218 34.6376 30.0125 34.6294C29.6982 34.6176 29.3706 34.667 29.1433 34.3448C29.0768 34.2495 28.8749 34.1966 28.725 34.3107C28.6682 34.3542 28.6138 34.4377 28.5509 34.3236C28.5182 34.2637 28.4179 34.2154 28.4759 34.1343C28.5533 34.0237 28.5823 33.892 28.7008 33.7968C28.7878 33.7262 28.9438 33.8415 28.9377 33.7274C28.9305 33.6027 28.76 33.6239 28.6597 33.5816C28.5267 33.5275 28.3877 33.5392 28.2511 33.5228C27.7557 33.4646 27.2638 33.3787 26.772 33.3028C26.7619 33.3013 26.7515 33.3003 26.7423 33.2958C26.4522 33.1311 26.1499 33.0535 25.9263 33.3569C25.7473 33.598 25.5527 33.5345 25.3605 33.4357C25.1405 33.3217 25.0655 32.7948 25.2638 32.6149C25.4221 32.4702 25.6301 32.4314 25.815 32.6549C25.9275 32.7913 26.0484 32.7184 26.1415 32.5772C26.3663 32.235 26.3349 31.9093 26.0157 31.6341C25.9468 31.5753 25.8755 31.5353 25.8622 31.4389C25.8525 31.3718 25.8731 31.266 25.7715 31.2707C25.6833 31.2754 25.6663 31.3777 25.6736 31.4494C25.7147 31.8352 25.4294 31.9963 25.1525 32.1433C24.941 32.2562 24.6895 32.2985 24.8128 32.6349C24.8431 32.7172 24.7294 32.7948 24.6254 32.8383C24.4634 32.9065 24.3087 32.9936 24.154 33.077C24.1116 33.0994 24.0633 33.1735 24.0464 33.1664C23.9617 33.1276 24.0306 33.0512 24.0451 33.0124C24.1394 32.7689 23.9641 32.5808 23.8856 32.395C23.8179 32.2374 23.5894 32.3938 23.431 32.3761C23.3706 32.3703 23.298 32.3997 23.2521 32.3479C23.0538 32.1233 22.7963 32.2821 22.5702 32.2409C22.2015 32.175 22.216 32.4879 22.1302 32.6843C22.0649 32.8348 21.9597 32.823 21.8304 32.8183C21.6732 32.8124 21.6454 32.7254 21.6381 32.5996C21.6224 32.3232 21.6019 32.0469 21.5777 31.7717C21.568 31.6552 21.597 31.4683 21.4121 31.5071C21.2742 31.5365 21.0155 31.4283 21.0059 31.7129C20.9986 31.9198 20.6698 32.1092 20.9768 32.3385C21.0312 32.3785 20.9345 32.4314 20.891 32.4726C20.7919 32.5655 20.6794 32.5796 20.5815 32.5032C20.4292 32.3844 20.4389 32.2021 20.4546 32.0386C20.4751 31.8246 20.7399 31.6164 20.4413 31.3989C20.3881 31.3601 20.4304 31.2366 20.5041 31.2095C20.7218 31.126 20.7774 30.8991 20.9406 30.7662C21.03 30.6944 21.0917 30.6298 21.2211 30.6203C21.533 30.598 21.6285 30.4204 21.6599 30.1158C21.6986 29.7466 21.8231 29.3361 21.7747 29.1092C21.7264 28.881 21.921 28.7764 22.0504 28.8646C22.1036 28.901 22.0564 29.0304 22.0226 29.0715C21.9307 29.1809 21.8521 29.2985 21.9102 29.4443C22.0214 29.723 21.9754 30.0323 22.0794 30.3052C22.2946 30.872 22.3587 31.5188 23.0091 31.8552C23.379 32.0469 24.021 31.9034 24.2567 31.5447C24.3945 31.3342 24.4912 31.1354 24.5505 30.8802C24.5988 30.6733 24.4695 30.5674 24.4671 30.4087C24.4586 29.9677 24.4997 29.5337 24.5735 29.0998C24.6266 28.7834 24.4235 28.5176 24.3353 28.2413C24.2422 27.9508 24.1503 27.9214 24.3776 27.7709C24.4405 27.7285 24.4489 27.6721 24.426 27.6086C24.4197 27.5919 24.4156 27.5733 24.4125 27.5537C24.3719 27.2951 24.1787 27.2205 24.2244 26.9627C24.2461 26.8398 24.2433 26.742 24.1382 26.7771C24.0304 26.8133 23.9592 26.825 23.913 26.8271C23.8875 26.8282 23.8623 26.8227 23.8372 26.8183L23.8336 26.8171C23.6486 26.7771 23.4516 26.7924 23.2726 26.7795C23.0925 26.7677 22.8495 26.656 22.7528 26.7277C22.5255 26.8959 22.181 26.9547 22.1108 27.3122C22.0613 27.5615 21.915 27.792 21.6067 27.7873C21.1642 27.7803 20.9079 28.0261 20.7036 28.3577C20.5876 28.547 20.4135 28.6094 20.2116 28.7034C19.8924 28.8516 19.4451 28.8657 19.3097 29.3279C19.2601 29.4949 19.0038 29.7372 18.866 29.723C18.4356 29.6784 18.426 29.9324 18.3704 30.2064C18.2628 30.7309 18.1479 30.7968 17.5942 30.7391C16.8555 30.6627 16.1229 30.5592 15.3939 30.4228C15.3347 30.4122 15.2658 30.3675 15.2247 30.4275C15.2078 30.451 15.2513 30.5169 15.2718 30.5615C15.3407 30.7109 15.5378 30.8391 15.2936 31.0249C15.2295 31.0731 15.2331 31.2707 15.3202 31.3742C15.4 31.4694 15.3577 31.5612 15.3504 31.6552C15.3468 31.6988 15.3661 31.7681 15.2984 31.7717C15.2344 31.7752 15.2392 31.7082 15.2259 31.6635C15.0736 31.1072 14.2841 30.8073 13.8308 31.1707C13.4632 31.4659 13.0885 31.6729 12.6061 31.6599C12.5009 31.6564 12.4127 31.734 12.4139 31.8364C12.4163 32.0398 12.3679 32.1833 12.1056 32.1104C12.0258 32.088 11.9521 32.128 11.9194 32.2056C11.7683 32.5596 11.234 32.776 11.5301 33.3028C11.5821 33.3946 11.3754 33.5745 11.5338 33.7627C11.8155 34.0967 11.7296 34.3718 11.3355 34.5471C10.777 34.7952 10.3804 35.4173 10.4336 35.9759C10.4481 36.1335 10.3962 36.2523 10.2511 36.3076C10.1181 36.3581 9.96819 36.2982 9.92587 36.1829C9.75662 35.716 9.58374 35.8231 9.35283 36.1418C9.26336 36.2648 9.2988 36.3993 9.45094 36.3993H32.2565C32.5165 36.3993 32.6689 36.1647 32.5168 35.9538C32.5102 35.9446 32.5036 35.9354 32.4971 35.9263C32.4962 35.9249 32.4951 35.9236 32.4939 35.9224Z" fill="#8F8F92" style="fill:#8F8F92;fill:color(display-p3 0.5608 0.5608 0.5725);fill-opacity:1;"/>
<path d="M32.4939 35.9224C32.4927 35.9212 32.4916 35.92 32.4906 35.9186C32.2418 35.5659 32.235 35.0758 31.8525 34.8164C31.4451 34.5412 31.1404 34.2331 31.1707 33.7109C31.1755 33.6298 31.1537 33.5286 31.0413 33.511C30.9289 33.4934 30.8443 33.5392 30.7971 33.6451C30.7463 33.7591 30.6714 33.8826 30.75 33.9967C30.9579 34.3001 30.8007 34.62 30.8165 34.9305C30.8261 35.1057 30.7185 35.1468 30.5783 35.1433C30.4368 35.141 30.299 35.0633 30.328 34.9246C30.3897 34.6317 30.218 34.6376 30.0125 34.6294C29.6982 34.6176 29.3706 34.667 29.1433 34.3448C29.0768 34.2495 28.8749 34.1966 28.725 34.3107C28.6682 34.3542 28.6138 34.4377 28.5509 34.3236C28.5182 34.2637 28.4179 34.2154 28.4759 34.1343C28.5533 34.0237 28.5823 33.892 28.7008 33.7968C28.7878 33.7262 28.9438 33.8415 28.9377 33.7274C28.9305 33.6027 28.76 33.6239 28.6597 33.5816C28.5267 33.5275 28.3877 33.5392 28.2511 33.5228C27.7557 33.4646 27.2638 33.3787 26.772 33.3028C26.7619 33.3013 26.7515 33.3003 26.7423 33.2958C26.4522 33.1311 26.1499 33.0535 25.9263 33.3569C25.7473 33.598 25.5527 33.5345 25.3605 33.4357C25.1405 33.3217 25.0655 32.7948 25.2638 32.6149C25.4221 32.4702 25.6301 32.4314 25.815 32.6549C25.9275 32.7913 26.0484 32.7184 26.1415 32.5772C26.3663 32.235 26.3349 31.9093 26.0157 31.6341C25.9468 31.5753 25.8755 31.5353 25.8622 31.4389C25.8525 31.3718 25.8731 31.266 25.7715 31.2707C25.6833 31.2754 25.6663 31.3777 25.6736 31.4494C25.7147 31.8352 25.4294 31.9963 25.1525 32.1433C24.941 32.2562 24.6895 32.2985 24.8128 32.6349C24.8431 32.7172 24.7294 32.7948 24.6254 32.8383C24.4634 32.9065 24.3087 32.9936 24.154 33.077C24.1116 33.0994 24.0633 33.1735 24.0464 33.1664C23.9617 33.1276 24.0306 33.0512 24.0451 33.0124C24.1394 32.7689 23.9641 32.5808 23.8856 32.395C23.8179 32.2374 23.5894 32.3938 23.431 32.3761C23.3706 32.3703 23.298 32.3997 23.2521 32.3479C23.0538 32.1233 22.7963 32.2821 22.5702 32.2409C22.2015 32.175 22.216 32.4879 22.1302 32.6843C22.0649 32.8348 21.9597 32.823 21.8304 32.8183C21.6732 32.8124 21.6454 32.7254 21.6381 32.5996C21.6224 32.3232 21.6019 32.0469 21.5777 31.7717C21.568 31.6552 21.597 31.4683 21.4121 31.5071C21.2742 31.5365 21.0155 31.4283 21.0059 31.7129C20.9986 31.9198 20.6698 32.1092 20.9768 32.3385C21.0312 32.3785 20.9345 32.4314 20.891 32.4726C20.7919 32.5655 20.6794 32.5796 20.5815 32.5032C20.4292 32.3844 20.4389 32.2021 20.4546 32.0386C20.4751 31.8246 20.7399 31.6164 20.4413 31.3989C20.3881 31.3601 20.4304 31.2366 20.5041 31.2095C20.7218 31.126 20.7774 30.8991 20.9406 30.7662C21.03 30.6944 21.0917 30.6298 21.2211 30.6203C21.533 30.598 21.6285 30.4204 21.6599 30.1158C21.6986 29.7466 21.8231 29.3361 21.7747 29.1092C21.7264 28.881 21.921 28.7764 22.0504 28.8646C22.1036 28.901 22.0564 29.0304 22.0226 29.0715C21.9307 29.1809 21.8521 29.2985 21.9102 29.4443C22.0214 29.723 21.9754 30.0323 22.0794 30.3052C22.2946 30.872 22.3587 31.5188 23.0091 31.8552C23.379 32.0469 24.021 31.9034 24.2567 31.5447C24.3945 31.3342 24.4912 31.1354 24.5505 30.8802C24.5988 30.6733 24.4695 30.5674 24.4671 30.4087C24.4586 29.9677 24.4997 29.5337 24.5735 29.0998C24.6266 28.7834 24.4235 28.5176 24.3353 28.2413C24.2422 27.9508 24.1503 27.9214 24.3776 27.7709C24.4405 27.7285 24.4489 27.6721 24.426 27.6086C24.4197 27.5919 24.4156 27.5733 24.4125 27.5537C24.3719 27.2951 24.1787 27.2205 24.2244 26.9627C24.2461 26.8398 24.2433 26.742 24.1382 26.7771C24.0304 26.8133 23.9592 26.825 23.913 26.8271C23.8875 26.8282 23.8623 26.8227 23.8372 26.8183L23.8336 26.8171C23.6486 26.7771 23.4516 26.7924 23.2726 26.7795C23.0925 26.7677 22.8495 26.656 22.7528 26.7277C22.5255 26.8959 22.181 26.9547 22.1108 27.3122C22.0613 27.5615 21.915 27.792 21.6067 27.7873C21.1642 27.7803 20.9079 28.0261 20.7036 28.3577C20.5876 28.547 20.4135 28.6094 20.2116 28.7034C19.8924 28.8516 19.4451 28.8657 19.3097 29.3279C19.2601 29.4949 19.0038 29.7372 18.866 29.723C18.4356 29.6784 18.426 29.9324 18.3704 30.2064C18.2628 30.7309 18.1479 30.7968 17.5942 30.7391C16.8555 30.6627 16.1229 30.5592 15.3939 30.4228C15.3347 30.4122 15.2658 30.3675 15.2247 30.4275C15.2078 30.451 15.2513 30.5169 15.2718 30.5615C15.3407 30.7109 15.5378 30.8391 15.2936 31.0249C15.2295 31.0731 15.2331 31.2707 15.3202 31.3742C15.4 31.4694 15.3577 31.5612 15.3504 31.6552C15.3468 31.6988 15.3661 31.7681 15.2984 31.7717C15.2344 31.7752 15.2392 31.7082 15.2259 31.6635C15.0736 31.1072 14.2841 30.8073 13.8308 31.1707C13.4632 31.4659 13.0885 31.6729 12.6061 31.6599C12.5009 31.6564 12.4127 31.734 12.4139 31.8364C12.4163 32.0398 12.3679 32.1833 12.1056 32.1104C12.0258 32.088 11.9521 32.128 11.9194 32.2056C11.7683 32.5596 11.234 32.776 11.5301 33.3028C11.5821 33.3946 11.3754 33.5745 11.5338 33.7627C11.8155 34.0967 11.7296 34.3718 11.3355 34.5471C10.777 34.7952 10.3804 35.4173 10.4336 35.9759C10.4481 36.1335 10.3962 36.2523 10.2511 36.3076C10.1181 36.3581 9.96819 36.2982 9.92587 36.1829C9.75662 35.716 9.58374 35.8231 9.35283 36.1418C9.26336 36.2648 9.2988 36.3993 9.45094 36.3993H32.2565C32.5165 36.3993 32.6689 36.1647 32.5168 35.9538C32.5102 35.9446 32.5036 35.9354 32.4971 35.9263C32.4962 35.9249 32.4951 35.9236 32.4939 35.9224Z" fill="url(#paint1_linear_389_12338)" style=""/>
<path d="M73.349 36.03C73.3494 36.0285 73.3493 36.0269 73.3489 36.0253C73.3191 35.9165 73.3027 35.7912 73.167 35.7725C73.0304 35.7537 72.918 35.8548 72.8442 35.9418C72.6097 36.2205 72.5976 36.2358 72.4066 35.8971C72.1442 35.4314 72.0657 34.8787 71.6304 34.4859C71.4733 34.3436 71.6317 34.0955 71.8481 34.052C72.0354 34.0143 72.0258 33.9285 71.9726 33.8262C71.9206 33.7262 71.8299 33.6321 71.8638 33.5228C71.8964 33.4193 71.79 33.2793 71.9182 33.2182C72.0645 33.1488 72.0463 33.3322 72.1225 33.3793C72.2071 33.4322 72.2978 33.5145 72.3969 33.4475C72.5178 33.3652 72.4271 33.2605 72.3752 33.1876C72.1902 32.93 72.2385 32.656 72.2833 32.375C72.351 31.9492 72.6617 31.7293 73.1235 31.7999C73.2033 31.8117 73.2879 31.7846 73.3375 31.7235C73.4112 31.6341 73.3351 31.5529 73.2613 31.4941C73.0993 31.3659 73.0691 31.1966 73.0461 31.0026C73.0159 30.7509 72.9555 30.5004 72.8962 30.2499C72.8116 29.8995 72.6194 29.5655 72.6713 29.1891C72.7258 28.7999 72.6339 28.4141 72.5855 28.0378C72.542 27.6979 72.6157 27.4663 72.8491 27.2487C72.9494 27.1558 73.1731 27.0946 73.0921 26.9418C73.0062 26.7807 72.982 26.5454 72.6302 26.5596C72.386 26.569 72.1019 26.6572 71.8807 26.5713C71.437 26.3973 71.0961 26.5078 70.7576 26.783C70.5735 26.9329 70.5275 26.8263 70.6755 26.6407C70.6783 26.6372 70.6811 26.6337 70.6838 26.6301C70.9692 26.2656 70.9534 25.8833 70.7153 25.4976C70.5533 25.2354 70.3744 25.0413 70.0105 25.166C69.8231 25.2295 69.8086 25.0672 69.8074 24.9425C69.8049 24.7132 69.9391 24.8861 70.0008 24.8943C70.4191 24.9437 70.65 24.7532 70.6935 24.3228C70.6959 24.2981 70.6899 24.2699 70.7008 24.2499C70.8108 24.0488 70.9244 23.8441 71.2182 23.9735C71.4479 24.0758 71.5821 23.9735 71.6861 23.7865C71.7791 23.6207 71.9013 23.5113 72.1104 23.4596C72.3341 23.4043 72.4247 23.2561 72.438 22.9821C72.4537 22.6434 72.1902 22.7493 72.0681 22.6811C71.8348 22.5529 71.6111 22.3247 71.2907 22.4447C71.267 22.4537 71.2402 22.4281 71.2523 22.4057C71.2556 22.3995 71.2595 22.3936 71.2641 22.3882C71.4165 22.2095 71.518 22.0072 71.4237 21.7826C71.35 21.605 71.0223 21.5779 71.1009 21.2898C71.1082 21.2628 71.0018 21.2287 70.9728 21.2675C70.6282 21.725 69.8291 21.625 69.6514 22.3083C69.6151 22.4482 69.5124 22.5881 69.5039 22.7469C69.4991 22.841 69.5088 22.9315 69.3734 22.9092C68.7785 22.8104 68.457 23.309 68.0012 23.5101C67.5841 23.6948 67.2093 23.9711 66.7959 24.1664C66.2917 24.4039 65.8287 24.7356 65.5386 25.1601C65.2666 25.5588 65.0647 26.001 64.6875 26.3291C64.511 26.483 64.619 26.7452 64.7708 26.9235C64.8272 26.9897 64.9052 27.0226 65.0477 26.9465C65.1662 26.883 65.489 26.8524 65.5591 27.1593C65.628 27.4627 65.4564 27.4569 65.2303 27.4286C65.159 27.4192 65.0683 27.4921 64.9994 27.5439C64.916 27.6062 64.8458 27.6133 64.7588 27.5568C64.6476 27.4839 64.6923 27.4239 64.7576 27.3487C64.841 27.2522 64.7975 27.1864 64.7104 27.1005C64.5847 26.9782 64.5049 26.9876 64.3647 27.0876C64.187 27.2146 64.0866 27.3169 64.2087 27.5415C64.3429 27.7909 64.0721 28.4976 63.8013 28.5294C63.5511 28.5588 63.5402 28.7258 63.4362 28.861C63.3262 29.0069 63.2512 29.1738 63.1799 29.3408C63.0626 29.6172 62.6419 29.7454 62.4908 29.5631C62.1052 29.0974 61.6687 29.0492 61.1997 29.4443C60.8733 29.7195 60.6025 30.03 60.4658 30.4545C60.3933 30.6815 60.2446 30.9873 59.8589 30.7591C59.7417 30.6897 59.593 30.7497 59.4552 30.7638C59.2968 30.7791 59.0683 30.952 58.9631 30.7474C58.7733 30.3757 58.4904 30.5216 58.2958 30.6462C58.0032 30.832 57.6974 30.9343 57.3673 31.012C56.9091 31.119 56.5694 31.5012 56.0762 31.5423C55.9661 31.5518 55.8803 31.6717 56.0375 31.7399C56.3046 31.8552 56.1741 31.9445 56.0375 32.0398C55.7389 32.2503 55.8537 32.4244 56.081 32.5949C56.1886 32.676 56.3506 32.6784 56.4171 32.8195C56.434 32.8571 56.5198 32.863 56.4715 32.93C56.44 32.9747 56.3941 33.003 56.3421 32.9736C56.1342 32.8583 56.0665 33.0077 55.9299 33.1217C55.792 33.237 55.6953 33.4828 55.4161 33.404C55.3061 33.3722 55.2637 33.5075 55.2118 33.5933C55.032 33.8912 54.7794 33.9548 54.4538 33.7838C54.4042 33.758 54.3848 33.6568 54.305 33.7062C54.2313 33.7533 54.2458 33.8285 54.2627 33.9061C54.3196 34.1566 54.3728 34.4095 54.4211 34.6611C54.432 34.7152 54.4562 34.7776 54.3631 34.8081C54.1431 34.8811 53.4709 34.6294 53.4673 34.4201C53.4576 33.9779 53.0332 33.7297 52.9909 33.3017C52.9692 33.0806 52.3502 32.8548 52.141 32.9359C51.8473 33.0488 51.5535 33.1794 51.2791 32.8924C51.2537 32.8665 51.1896 32.8595 51.1896 32.9018C51.1896 33.1359 50.8281 33.3287 51.1183 33.6051C51.1799 33.6639 51.2851 33.8356 51.1412 33.9238C50.7955 34.1355 50.3893 34.0802 50.006 34.1237C49.9021 34.1355 49.809 34.0931 49.8622 33.945C49.9045 33.8262 49.7812 33.7697 49.7111 33.7827C49.358 33.8532 48.9724 33.7133 48.6448 33.9414C48.4646 34.0661 48.2821 34.1825 48.1539 33.8756C48.1443 33.852 48.0185 33.6651 47.9847 33.8756C47.9714 33.9555 47.9931 34.0214 47.8928 34.0284C47.7888 34.0355 47.6812 34.0096 47.6099 33.9379C47.5664 33.8932 47.7006 33.6851 47.4975 33.7897C47.3524 33.8638 47.0997 33.7733 47.0623 34.0426C47.049 34.1425 47.0357 34.2143 47.1541 34.2366C47.1928 34.2437 47.2521 34.1778 47.269 34.2484C47.2762 34.2766 47.2061 34.3566 47.1807 34.3519C47.0441 34.3319 47.0018 34.4624 46.9317 34.4906C46.7395 34.5671 46.6428 34.8129 46.3937 34.7717C46.3441 34.7635 46.2619 34.7987 46.2426 34.7552C46.2353 34.7388 46.3176 34.6894 46.3333 34.6482C46.4433 34.3566 46.7745 34.2648 46.9269 33.9826C47.1094 33.6462 47.3306 33.3087 47.6256 33.0347C47.9097 32.7713 47.9919 32.4373 47.9303 32.0669C47.8698 31.7046 47.6438 31.3648 47.3536 31.246C47.0187 31.1096 46.5666 31.0296 46.2317 31.3812C46.2027 31.4118 46.1386 31.4412 46.1036 31.4306C46.0177 31.4059 46.0431 31.3354 46.0758 31.2824C46.2692 30.9708 46.1169 30.9238 45.8267 30.9579C45.8127 30.9594 45.7983 30.9579 45.7837 30.9542C45.6982 30.9331 45.6599 30.7738 45.7445 30.7497C46.0758 30.6568 45.8872 30.5886 45.73 30.5533C45.5475 30.5122 45.3975 30.2746 45.2138 30.384C44.897 30.5733 44.5767 30.865 44.5803 31.2142C44.5851 31.6282 44.4243 31.6388 44.1185 31.5859C44.0363 31.5717 43.9359 31.5941 43.9976 31.6952C44.2031 32.0316 43.8114 31.894 43.728 31.9881C43.653 32.0716 43.5491 31.9351 43.6071 31.794C43.6143 31.7764 43.5793 31.7293 43.5539 31.7152C43.4644 31.6658 42.4622 31.941 42.4779 32.0104C42.5493 32.315 42.2881 32.1774 42.1757 32.2385C42.1044 32.2785 42.021 32.2891 41.94 32.2903C41.5168 32.295 41.2231 32.6654 40.789 32.6455C40.7105 32.6419 40.6307 32.709 40.5485 32.7372C40.0709 32.9006 40.0201 33.1347 40.3949 33.4663C40.5884 33.638 40.6101 33.7192 40.4759 33.7415C40.1797 33.7921 39.9065 33.9379 39.5741 33.8391C39.3613 33.7756 39.1316 33.7309 38.9079 33.6874C38.6734 33.6415 38.4667 33.638 38.4522 33.9744C38.4437 34.1707 38.4812 34.3871 38.3228 34.5682C38.266 34.6329 38.3276 34.7705 38.4014 34.7952C38.7435 34.9116 38.5839 35.3315 38.8584 35.482C38.8922 35.5008 38.8886 35.569 38.8511 35.5537C38.6831 35.4855 38.3881 35.7184 38.3494 35.4608C38.2817 35.0022 37.948 34.7505 37.6881 34.4306C37.5817 34.3001 37.4729 34.2966 37.3605 34.3648C37.271 34.4189 37.0969 34.4718 37.248 34.64C37.3073 34.7058 37.2674 34.7987 37.2118 34.8293C37.1344 34.8728 37.138 34.7529 37.0885 34.7305C36.8829 34.6364 36.7354 34.6964 36.6956 34.914C36.6617 35.1022 36.6943 35.2809 36.8636 35.4185C36.918 35.4632 37.0135 35.6008 36.8624 35.6043C36.7354 35.6078 36.5892 35.5032 36.4779 35.415C36.3776 35.3362 36.4659 35.2327 36.4828 35.1292C36.565 34.6364 37.1126 34.2401 36.8128 33.6662C36.7947 33.6321 36.8443 33.5463 36.7705 33.5169C36.7306 33.5016 36.6653 33.5016 36.6303 33.5239C36.5432 33.5792 36.6037 33.6498 36.6254 33.7192C36.7753 34.1954 36.6532 34.4118 36.1926 34.5624C35.9001 34.6576 35.6643 34.7882 35.7489 35.1845C35.7985 35.4185 35.8203 35.7748 35.6825 35.9065C35.4745 36.1059 35.6279 36.3981 35.916 36.3981H68.0135C68.2106 36.3981 68.3482 36.201 68.2442 36.0336C68.22 35.9948 68.2212 35.9383 68.2164 35.8901C68.1837 35.5749 68.5706 35.0045 68.8922 34.8752C68.9853 34.8375 69.0723 34.7717 69.0046 34.6459C68.9804 34.6023 68.9599 34.54 69.0264 34.5236C69.0578 34.5165 69.1231 34.56 69.1412 34.5965C69.186 34.6823 69.2162 34.7752 69.244 34.8681C69.3117 35.0951 69.487 35.1786 69.6744 35.0857C69.782 35.0328 69.7239 35.1539 69.7554 35.1856C69.8086 35.2386 69.8545 35.3185 69.9343 35.3056C70.0491 35.288 69.9621 35.1845 69.9887 35.1221C70.0141 35.0622 70.0467 35.0104 70.0358 34.9234C69.9863 34.5153 69.6478 34.0967 70.0661 33.6898C70.1108 33.6462 70.1084 33.4757 69.9004 33.4369C69.5317 33.3664 69.3371 32.9206 69.4749 32.6019C69.522 32.4926 69.6176 32.4749 69.6877 32.489C69.8061 32.5126 69.6913 32.5949 69.6901 32.6478C69.6877 32.796 69.7058 32.9206 69.8606 32.9865C70.135 33.1017 70.1567 33.4687 70.4892 33.5663C70.5569 33.5863 70.7141 33.9497 70.6476 34.2542C70.5146 34.8728 70.8736 35.4538 70.9643 36.0641C70.9945 36.2652 71.1793 36.4005 71.3826 36.4005H73.8126C73.568 36.3677 73.417 36.2776 73.349 36.0348C73.3486 36.0332 73.3486 36.0316 73.349 36.03Z" fill="#8F8F92" style="fill:#8F8F92;fill:color(display-p3 0.5608 0.5608 0.5725);fill-opacity:1;"/>
<path d="M73.349 36.03C73.3494 36.0285 73.3493 36.0269 73.3489 36.0253C73.3191 35.9165 73.3027 35.7912 73.167 35.7725C73.0304 35.7537 72.918 35.8548 72.8442 35.9418C72.6097 36.2205 72.5976 36.2358 72.4066 35.8971C72.1442 35.4314 72.0657 34.8787 71.6304 34.4859C71.4733 34.3436 71.6317 34.0955 71.8481 34.052C72.0354 34.0143 72.0258 33.9285 71.9726 33.8262C71.9206 33.7262 71.8299 33.6321 71.8638 33.5228C71.8964 33.4193 71.79 33.2793 71.9182 33.2182C72.0645 33.1488 72.0463 33.3322 72.1225 33.3793C72.2071 33.4322 72.2978 33.5145 72.3969 33.4475C72.5178 33.3652 72.4271 33.2605 72.3752 33.1876C72.1902 32.93 72.2385 32.656 72.2833 32.375C72.351 31.9492 72.6617 31.7293 73.1235 31.7999C73.2033 31.8117 73.2879 31.7846 73.3375 31.7235C73.4112 31.6341 73.3351 31.5529 73.2613 31.4941C73.0993 31.3659 73.0691 31.1966 73.0461 31.0026C73.0159 30.7509 72.9555 30.5004 72.8962 30.2499C72.8116 29.8995 72.6194 29.5655 72.6713 29.1891C72.7258 28.7999 72.6339 28.4141 72.5855 28.0378C72.542 27.6979 72.6157 27.4663 72.8491 27.2487C72.9494 27.1558 73.1731 27.0946 73.0921 26.9418C73.0062 26.7807 72.982 26.5454 72.6302 26.5596C72.386 26.569 72.1019 26.6572 71.8807 26.5713C71.437 26.3973 71.0961 26.5078 70.7576 26.783C70.5735 26.9329 70.5275 26.8263 70.6755 26.6407C70.6783 26.6372 70.6811 26.6337 70.6838 26.6301C70.9692 26.2656 70.9534 25.8833 70.7153 25.4976C70.5533 25.2354 70.3744 25.0413 70.0105 25.166C69.8231 25.2295 69.8086 25.0672 69.8074 24.9425C69.8049 24.7132 69.9391 24.8861 70.0008 24.8943C70.4191 24.9437 70.65 24.7532 70.6935 24.3228C70.6959 24.2981 70.6899 24.2699 70.7008 24.2499C70.8108 24.0488 70.9244 23.8441 71.2182 23.9735C71.4479 24.0758 71.5821 23.9735 71.6861 23.7865C71.7791 23.6207 71.9013 23.5113 72.1104 23.4596C72.3341 23.4043 72.4247 23.2561 72.438 22.9821C72.4537 22.6434 72.1902 22.7493 72.0681 22.6811C71.8348 22.5529 71.6111 22.3247 71.2907 22.4447C71.267 22.4537 71.2402 22.4281 71.2523 22.4057C71.2556 22.3995 71.2595 22.3936 71.2641 22.3882C71.4165 22.2095 71.518 22.0072 71.4237 21.7826C71.35 21.605 71.0223 21.5779 71.1009 21.2898C71.1082 21.2628 71.0018 21.2287 70.9728 21.2675C70.6282 21.725 69.8291 21.625 69.6514 22.3083C69.6151 22.4482 69.5124 22.5881 69.5039 22.7469C69.4991 22.841 69.5088 22.9315 69.3734 22.9092C68.7785 22.8104 68.457 23.309 68.0012 23.5101C67.5841 23.6948 67.2093 23.9711 66.7959 24.1664C66.2917 24.4039 65.8287 24.7356 65.5386 25.1601C65.2666 25.5588 65.0647 26.001 64.6875 26.3291C64.511 26.483 64.619 26.7452 64.7708 26.9235C64.8272 26.9897 64.9052 27.0226 65.0477 26.9465C65.1662 26.883 65.489 26.8524 65.5591 27.1593C65.628 27.4627 65.4564 27.4569 65.2303 27.4286C65.159 27.4192 65.0683 27.4921 64.9994 27.5439C64.916 27.6062 64.8458 27.6133 64.7588 27.5568C64.6476 27.4839 64.6923 27.4239 64.7576 27.3487C64.841 27.2522 64.7975 27.1864 64.7104 27.1005C64.5847 26.9782 64.5049 26.9876 64.3647 27.0876C64.187 27.2146 64.0866 27.3169 64.2087 27.5415C64.3429 27.7909 64.0721 28.4976 63.8013 28.5294C63.5511 28.5588 63.5402 28.7258 63.4362 28.861C63.3262 29.0069 63.2512 29.1738 63.1799 29.3408C63.0626 29.6172 62.6419 29.7454 62.4908 29.5631C62.1052 29.0974 61.6687 29.0492 61.1997 29.4443C60.8733 29.7195 60.6025 30.03 60.4658 30.4545C60.3933 30.6815 60.2446 30.9873 59.8589 30.7591C59.7417 30.6897 59.593 30.7497 59.4552 30.7638C59.2968 30.7791 59.0683 30.952 58.9631 30.7474C58.7733 30.3757 58.4904 30.5216 58.2958 30.6462C58.0032 30.832 57.6974 30.9343 57.3673 31.012C56.9091 31.119 56.5694 31.5012 56.0762 31.5423C55.9661 31.5518 55.8803 31.6717 56.0375 31.7399C56.3046 31.8552 56.1741 31.9445 56.0375 32.0398C55.7389 32.2503 55.8537 32.4244 56.081 32.5949C56.1886 32.676 56.3506 32.6784 56.4171 32.8195C56.434 32.8571 56.5198 32.863 56.4715 32.93C56.44 32.9747 56.3941 33.003 56.3421 32.9736C56.1342 32.8583 56.0665 33.0077 55.9299 33.1217C55.792 33.237 55.6953 33.4828 55.4161 33.404C55.3061 33.3722 55.2637 33.5075 55.2118 33.5933C55.032 33.8912 54.7794 33.9548 54.4538 33.7838C54.4042 33.758 54.3848 33.6568 54.305 33.7062C54.2313 33.7533 54.2458 33.8285 54.2627 33.9061C54.3196 34.1566 54.3728 34.4095 54.4211 34.6611C54.432 34.7152 54.4562 34.7776 54.3631 34.8081C54.1431 34.8811 53.4709 34.6294 53.4673 34.4201C53.4576 33.9779 53.0332 33.7297 52.9909 33.3017C52.9692 33.0806 52.3502 32.8548 52.141 32.9359C51.8473 33.0488 51.5535 33.1794 51.2791 32.8924C51.2537 32.8665 51.1896 32.8595 51.1896 32.9018C51.1896 33.1359 50.8281 33.3287 51.1183 33.6051C51.1799 33.6639 51.2851 33.8356 51.1412 33.9238C50.7955 34.1355 50.3893 34.0802 50.006 34.1237C49.9021 34.1355 49.809 34.0931 49.8622 33.945C49.9045 33.8262 49.7812 33.7697 49.7111 33.7827C49.358 33.8532 48.9724 33.7133 48.6448 33.9414C48.4646 34.0661 48.2821 34.1825 48.1539 33.8756C48.1443 33.852 48.0185 33.6651 47.9847 33.8756C47.9714 33.9555 47.9931 34.0214 47.8928 34.0284C47.7888 34.0355 47.6812 34.0096 47.6099 33.9379C47.5664 33.8932 47.7006 33.6851 47.4975 33.7897C47.3524 33.8638 47.0997 33.7733 47.0623 34.0426C47.049 34.1425 47.0357 34.2143 47.1541 34.2366C47.1928 34.2437 47.2521 34.1778 47.269 34.2484C47.2762 34.2766 47.2061 34.3566 47.1807 34.3519C47.0441 34.3319 47.0018 34.4624 46.9317 34.4906C46.7395 34.5671 46.6428 34.8129 46.3937 34.7717C46.3441 34.7635 46.2619 34.7987 46.2426 34.7552C46.2353 34.7388 46.3176 34.6894 46.3333 34.6482C46.4433 34.3566 46.7745 34.2648 46.9269 33.9826C47.1094 33.6462 47.3306 33.3087 47.6256 33.0347C47.9097 32.7713 47.9919 32.4373 47.9303 32.0669C47.8698 31.7046 47.6438 31.3648 47.3536 31.246C47.0187 31.1096 46.5666 31.0296 46.2317 31.3812C46.2027 31.4118 46.1386 31.4412 46.1036 31.4306C46.0177 31.4059 46.0431 31.3354 46.0758 31.2824C46.2692 30.9708 46.1169 30.9238 45.8267 30.9579C45.8127 30.9594 45.7983 30.9579 45.7837 30.9542C45.6982 30.9331 45.6599 30.7738 45.7445 30.7497C46.0758 30.6568 45.8872 30.5886 45.73 30.5533C45.5475 30.5122 45.3975 30.2746 45.2138 30.384C44.897 30.5733 44.5767 30.865 44.5803 31.2142C44.5851 31.6282 44.4243 31.6388 44.1185 31.5859C44.0363 31.5717 43.9359 31.5941 43.9976 31.6952C44.2031 32.0316 43.8114 31.894 43.728 31.9881C43.653 32.0716 43.5491 31.9351 43.6071 31.794C43.6143 31.7764 43.5793 31.7293 43.5539 31.7152C43.4644 31.6658 42.4622 31.941 42.4779 32.0104C42.5493 32.315 42.2881 32.1774 42.1757 32.2385C42.1044 32.2785 42.021 32.2891 41.94 32.2903C41.5168 32.295 41.2231 32.6654 40.789 32.6455C40.7105 32.6419 40.6307 32.709 40.5485 32.7372C40.0709 32.9006 40.0201 33.1347 40.3949 33.4663C40.5884 33.638 40.6101 33.7192 40.4759 33.7415C40.1797 33.7921 39.9065 33.9379 39.5741 33.8391C39.3613 33.7756 39.1316 33.7309 38.9079 33.6874C38.6734 33.6415 38.4667 33.638 38.4522 33.9744C38.4437 34.1707 38.4812 34.3871 38.3228 34.5682C38.266 34.6329 38.3276 34.7705 38.4014 34.7952C38.7435 34.9116 38.5839 35.3315 38.8584 35.482C38.8922 35.5008 38.8886 35.569 38.8511 35.5537C38.6831 35.4855 38.3881 35.7184 38.3494 35.4608C38.2817 35.0022 37.948 34.7505 37.6881 34.4306C37.5817 34.3001 37.4729 34.2966 37.3605 34.3648C37.271 34.4189 37.0969 34.4718 37.248 34.64C37.3073 34.7058 37.2674 34.7987 37.2118 34.8293C37.1344 34.8728 37.138 34.7529 37.0885 34.7305C36.8829 34.6364 36.7354 34.6964 36.6956 34.914C36.6617 35.1022 36.6943 35.2809 36.8636 35.4185C36.918 35.4632 37.0135 35.6008 36.8624 35.6043C36.7354 35.6078 36.5892 35.5032 36.4779 35.415C36.3776 35.3362 36.4659 35.2327 36.4828 35.1292C36.565 34.6364 37.1126 34.2401 36.8128 33.6662C36.7947 33.6321 36.8443 33.5463 36.7705 33.5169C36.7306 33.5016 36.6653 33.5016 36.6303 33.5239C36.5432 33.5792 36.6037 33.6498 36.6254 33.7192C36.7753 34.1954 36.6532 34.4118 36.1926 34.5624C35.9001 34.6576 35.6643 34.7882 35.7489 35.1845C35.7985 35.4185 35.8203 35.7748 35.6825 35.9065C35.4745 36.1059 35.6279 36.3981 35.916 36.3981H68.0135C68.2106 36.3981 68.3482 36.201 68.2442 36.0336C68.22 35.9948 68.2212 35.9383 68.2164 35.8901C68.1837 35.5749 68.5706 35.0045 68.8922 34.8752C68.9853 34.8375 69.0723 34.7717 69.0046 34.6459C68.9804 34.6023 68.9599 34.54 69.0264 34.5236C69.0578 34.5165 69.1231 34.56 69.1412 34.5965C69.186 34.6823 69.2162 34.7752 69.244 34.8681C69.3117 35.0951 69.487 35.1786 69.6744 35.0857C69.782 35.0328 69.7239 35.1539 69.7554 35.1856C69.8086 35.2386 69.8545 35.3185 69.9343 35.3056C70.0491 35.288 69.9621 35.1845 69.9887 35.1221C70.0141 35.0622 70.0467 35.0104 70.0358 34.9234C69.9863 34.5153 69.6478 34.0967 70.0661 33.6898C70.1108 33.6462 70.1084 33.4757 69.9004 33.4369C69.5317 33.3664 69.3371 32.9206 69.4749 32.6019C69.522 32.4926 69.6176 32.4749 69.6877 32.489C69.8061 32.5126 69.6913 32.5949 69.6901 32.6478C69.6877 32.796 69.7058 32.9206 69.8606 32.9865C70.135 33.1017 70.1567 33.4687 70.4892 33.5663C70.5569 33.5863 70.7141 33.9497 70.6476 34.2542C70.5146 34.8728 70.8736 35.4538 70.9643 36.0641C70.9945 36.2652 71.1793 36.4005 71.3826 36.4005H73.8126C73.568 36.3677 73.417 36.2776 73.349 36.0348C73.3486 36.0332 73.3486 36.0316 73.349 36.03Z" fill="url(#paint2_linear_389_12338)" style=""/>
<path d="M70.9806 38.3039C70.981 38.3042 70.981 38.3047 70.9807 38.3051C70.9284 38.3696 70.9864 38.435 71.0852 38.4526C71.3633 38.5008 71.4201 38.6749 71.4334 38.936C71.4431 39.1371 71.3802 39.3664 71.5216 39.5499C72.0415 40.2214 72.6024 40.8493 73.3665 41.2774C74.0121 41.6396 74.6746 41.983 75.2754 42.4076C75.5499 42.6016 75.8424 42.7533 76.1241 42.9262C76.274 43.0179 76.2523 42.8768 76.2438 42.8039C76.2172 42.571 76.1507 42.337 76.1555 42.1053C76.164 41.6526 76.0552 41.2845 75.6538 40.9964C75.3733 40.7941 75.3286 40.3825 75.5486 40.2014C75.9681 39.858 75.4616 39.8756 75.4144 39.7274C75.4072 39.7051 75.3455 39.7039 75.3141 39.6851C74.9357 39.4593 74.8801 38.8748 75.1932 38.5667C75.2948 38.4667 75.3987 38.3562 75.3214 38.1739C75.2488 38.0034 75.1581 37.9258 74.9587 37.9117C74.6274 37.8893 74.2539 37.52 74.2152 37.2213C74.1946 37.0673 74.2756 36.992 74.4219 36.9638C74.515 36.9461 74.5996 36.9132 74.5549 36.7909C74.463 36.5392 74.2128 36.4169 74.0048 36.4099C73.9347 36.4075 73.8718 36.4017 73.8126 36.3946H72.2173C71.6227 36.3946 71.3011 36.9492 71.28 37.5435C71.271 37.7945 71.1912 38.0468 70.9806 38.3026C70.9803 38.303 70.9803 38.3035 70.9806 38.3039Z" fill="#8F8F92" style="fill:#8F8F92;fill:color(display-p3 0.5608 0.5608 0.5725);fill-opacity:1;"/>
<path d="M70.9806 38.3039C70.981 38.3042 70.981 38.3047 70.9807 38.3051C70.9284 38.3696 70.9864 38.435 71.0852 38.4526C71.3633 38.5008 71.4201 38.6749 71.4334 38.936C71.4431 39.1371 71.3802 39.3664 71.5216 39.5499C72.0415 40.2214 72.6024 40.8493 73.3665 41.2774C74.0121 41.6396 74.6746 41.983 75.2754 42.4076C75.5499 42.6016 75.8424 42.7533 76.1241 42.9262C76.274 43.0179 76.2523 42.8768 76.2438 42.8039C76.2172 42.571 76.1507 42.337 76.1555 42.1053C76.164 41.6526 76.0552 41.2845 75.6538 40.9964C75.3733 40.7941 75.3286 40.3825 75.5486 40.2014C75.9681 39.858 75.4616 39.8756 75.4144 39.7274C75.4072 39.7051 75.3455 39.7039 75.3141 39.6851C74.9357 39.4593 74.8801 38.8748 75.1932 38.5667C75.2948 38.4667 75.3987 38.3562 75.3214 38.1739C75.2488 38.0034 75.1581 37.9258 74.9587 37.9117C74.6274 37.8893 74.2539 37.52 74.2152 37.2213C74.1946 37.0673 74.2756 36.992 74.4219 36.9638C74.515 36.9461 74.5996 36.9132 74.5549 36.7909C74.463 36.5392 74.2128 36.4169 74.0048 36.4099C73.9347 36.4075 73.8718 36.4017 73.8126 36.3946H72.2173C71.6227 36.3946 71.3011 36.9492 71.28 37.5435C71.271 37.7945 71.1912 38.0468 70.9806 38.3026C70.9803 38.303 70.9803 38.3035 70.9806 38.3039Z" fill="url(#paint3_linear_389_12338)" style=""/>
<path d="M35.1457 36.9015C35.1457 36.9873 34.939 37.0967 35.0586 37.1284C35.2388 37.1766 35.4213 37.4083 35.5289 37.326C35.7369 37.1672 35.7949 37.326 35.8964 37.4071C35.9388 37.4401 35.9823 37.5436 35.9666 37.56C35.9085 37.6177 35.871 37.5247 35.8154 37.5142C35.2424 37.406 35.0103 37.5741 34.9269 38.1269C34.8979 38.3174 34.8483 38.5161 34.615 38.602C34.5255 38.6349 34.4155 38.7043 34.3853 38.7831C34.2716 39.0794 34.0093 39.1241 33.7506 39.1806C33.6272 39.2076 33.5003 39.2065 33.452 39.3617C33.406 39.5087 33.2851 39.5122 33.2259 39.4475C33.0989 39.3099 33.0349 39.13 33.2609 39.0277C33.3081 39.0065 33.3407 38.9818 33.3782 38.9501C33.834 38.5726 34.2994 38.2068 34.6851 37.7564C34.7673 37.66 34.7685 37.573 34.7238 37.4859C34.6843 37.4101 34.6572 37.337 34.6402 37.2661C34.5458 36.8712 34.3451 36.3946 33.939 36.3946H33.331C33.2685 36.3946 33.2272 36.4581 33.2742 36.4993C33.3504 36.5639 33.3975 36.6404 33.302 36.7156C33.2307 36.7721 33.1546 36.8238 33.0772 36.8744C32.9962 36.9273 32.885 36.9109 32.8269 36.8356C32.7907 36.7886 32.7641 36.745 32.7737 36.7098C32.8214 36.528 32.6414 36.3958 32.4535 36.3958H9.06727C9.0596 36.3958 9.05131 36.3977 9.04697 36.404C8.91399 36.5616 8.96355 36.7862 9.15819 36.8474C9.73849 37.0308 9.86422 37.5988 9.4157 38.0081C9.37943 38.0422 9.34437 38.0787 9.30448 38.1081C9.12918 38.2409 9.08082 38.3903 9.21381 38.5832C9.2936 38.7008 9.35283 38.8572 9.23315 38.9618C8.93212 39.2229 8.7677 39.4699 9.0506 39.8591C9.29118 40.1908 9.46164 40.5365 9.50516 40.9869C9.53901 41.3409 9.73244 41.7196 9.8074 42.0995C9.83158 42.2241 9.75904 42.3582 9.64419 42.3558C9.31657 42.3476 9.13402 42.5628 8.92849 42.7416C8.77858 42.8721 8.5779 42.8674 8.41107 42.9603C8.31193 43.0156 8.31435 42.7521 8.21159 42.6969C7.98914 42.5769 7.74977 42.4617 7.49348 42.4664C7.37983 42.4687 7.21058 42.5652 7.16948 42.6604C7.09452 42.8345 7.30972 42.8121 7.4016 42.878C7.46083 42.9203 7.49952 42.9897 7.54546 43.0485C7.60349 43.1238 7.71592 43.2614 7.70867 43.2684C7.58052 43.3813 7.56359 43.1837 7.47655 43.1779C7.25048 43.1626 7.10782 42.9685 6.89867 42.9297C6.79833 42.9109 6.79833 42.7204 6.66777 42.8015C6.56742 42.8639 6.56259 42.9674 6.5638 43.092C6.56621 43.2966 6.40422 43.4413 6.20111 43.3696C6.0101 43.3025 5.82755 43.2908 5.64621 43.326C5.47091 43.3613 5.39716 43.3237 5.42013 43.1532C5.43102 43.0673 5.39596 42.9627 5.3343 42.9885C5.22912 43.0344 5.10218 42.9709 5.03327 43.0391C4.96436 43.1073 5.01151 43.2108 5.09251 43.2614C5.23879 43.3519 5.16988 43.4484 5.1179 43.5471C5.05987 43.6565 4.97887 43.7612 5.01635 43.8929C5.18439 44.4844 5.2122 45.0807 5.06954 45.6804C5.04053 45.8039 4.98854 45.925 5.17593 45.9744C5.41167 46.0368 5.44069 46.2414 5.52169 46.4249C5.67039 46.7612 5.58576 47.2339 6.08505 47.3774C6.11407 47.3857 6.14792 47.428 6.15396 47.4586C6.22408 47.8267 6.53599 48.1595 6.31234 48.5711C6.25431 48.6781 6.35223 48.6863 6.44774 48.7204C6.53517 48.752 6.6077 48.8033 6.67434 48.8626C6.92569 49.0865 7.23189 49.2097 7.56845 49.2097H9.07304C9.23291 49.2097 9.33005 49.0675 9.40482 48.9262C9.50879 48.731 9.7397 48.9921 9.93071 48.8533C10.3756 48.5311 10.8568 48.6017 11.3162 48.8486C11.5048 48.9498 11.6148 48.8239 11.7598 48.7604C11.9593 48.6746 11.784 48.5852 11.7816 48.4982C11.7804 48.417 11.7332 48.2653 11.8348 48.2759C12.2144 48.3135 12.2047 48.0642 12.212 47.8325C12.2192 47.602 12.3293 47.3269 12.1455 47.154C11.9424 46.9635 11.9351 46.8094 12.0766 46.6107C12.1346 46.5283 12.1382 46.4448 12.0947 46.3649C11.8977 46.0027 12.1395 45.9109 12.4272 45.8451C12.5553 45.8157 12.6956 45.8498 12.7596 45.6628C12.8914 45.2771 13.369 45.0125 13.751 45.0936C13.9033 45.1265 13.9855 45.2371 13.9795 45.3947C13.9746 45.5181 13.9517 45.6428 13.9553 45.7663C13.9601 45.9368 14.0713 45.9733 14.1705 45.8498C14.3542 45.6193 14.4884 45.3617 14.8656 45.5969C14.9648 45.6593 15.1352 45.4241 15.2863 45.5287C15.5209 45.6898 15.7663 45.6546 16.0141 45.6063C16.4965 45.5111 16.4723 46.2226 16.9402 46.1544C16.9644 46.1508 17.0103 46.2461 17.0333 46.3014C17.0466 46.3331 17.0175 46.3813 17.0321 46.4107C17.2001 46.7588 17.5688 47.0164 17.5338 47.4586C17.5338 47.4621 17.6027 47.475 17.6402 47.4762C17.7296 47.4762 17.7695 47.4915 17.7562 47.6032C17.7357 47.789 17.8856 47.9443 17.8723 48.1477C17.8638 48.2771 18.0089 48.4006 18.1709 48.2783C18.3559 48.1395 18.4828 48.243 18.6665 48.29C18.9011 48.3488 18.9023 48.5664 19.0788 48.6405C19.2271 48.703 19.385 48.7572 19.5143 48.8429C19.7391 48.9918 19.9662 49.2097 20.2359 49.2097C20.6072 49.2097 21.0311 48.8087 21.4024 48.8063C21.5185 48.8063 21.6333 48.8204 21.6212 48.6946C21.5922 48.3853 21.8424 48.3982 22.0177 48.3653C22.2281 48.3265 22.3466 48.2594 22.3018 48.0348C22.2632 47.8431 22.3188 47.6844 22.505 47.6056C22.6815 47.5315 22.8543 47.5738 22.9994 47.7008C23.1566 47.8372 23.3524 47.8878 23.5446 47.956C24.4767 48.29 25.485 48.31 26.4231 48.6205C26.4908 48.6428 26.5851 48.6499 26.648 48.6228C27.0155 48.4641 27.3456 48.6264 27.6817 48.724C27.8255 48.7663 27.7977 48.9921 27.9597 49.0062C28.2066 49.0272 28.4561 49.2293 28.7025 49.2561C39.5893 50.4416 52.3408 49.2683 67.3567 49.2118C67.8992 49.2097 68.3399 48.6647 68.2623 48.1277C68.2587 48.0995 68.2551 48.0231 68.2357 47.9913C68.2224 47.969 68.1934 47.9831 68.1862 47.9842C68.1272 47.9986 68.0802 47.9961 68.0415 47.9819C67.7339 47.8695 67.5645 47.2342 67.2371 47.2234C67.0038 47.2151 66.785 47.174 66.5879 47.0387C66.461 46.9517 66.2579 46.8835 66.1648 46.9494C66.0252 47.0484 65.9192 47.191 65.7547 47.2538C65.7035 47.2733 65.6453 47.3371 65.6824 47.3774C65.952 47.6679 65.5942 47.8819 65.5821 48.1383C65.5821 48.1413 65.581 48.1442 65.5789 48.1471C65.5393 48.2028 65.4164 48.1479 65.4286 48.0807C65.4721 47.8525 65.0997 47.842 65.1614 47.5962C65.1686 47.5691 65.0538 47.5868 65.0127 47.6409C64.9293 47.7467 64.8894 47.8561 64.9764 47.9795C65.0175 48.0372 65.1711 48.0901 65.0151 48.1665C64.8857 48.2289 64.9075 48.0983 64.8652 48.0301C64.7624 47.8666 64.656 47.6691 64.4965 47.5879C64.3586 47.5185 64.2728 47.7408 64.1628 47.8361C64.0262 47.9537 63.834 47.9055 63.7034 47.8361C63.591 47.7761 63.6707 47.6244 63.7312 47.5374C63.95 47.2198 63.9065 46.827 64.0661 46.4931C64.2982 46.0074 64.1797 45.4723 64.2801 44.9689C64.3852 44.4444 64.5484 43.9293 64.4143 43.3837C64.3937 43.3013 64.4626 43.1967 64.494 43.1038C64.5291 42.9979 64.5702 42.8968 64.5581 42.7792C64.482 42.0795 65.1698 41.3068 65.9206 41.2515C66.0222 41.2445 66.0838 41.1598 66.0681 41.1151C65.9375 40.7376 66.2639 40.7776 66.4562 40.6929C66.5118 40.6682 66.5964 40.6341 66.6049 40.5918C66.646 40.3848 66.7463 40.3131 66.9748 40.3248C67.132 40.3331 67.161 40.1943 67.0498 40.0638C66.8732 39.8568 66.9724 39.6322 67.2444 39.5404C67.4306 39.4769 67.7086 39.5475 67.7618 39.2217C67.7775 39.1265 68.0085 39.1841 68.0967 39.2394C68.2333 39.3241 68.0193 39.3111 68.0242 39.3805C68.0302 39.4722 67.8912 39.5793 67.9855 39.6392C68.0737 39.6957 68.2273 39.7439 68.3312 39.6486C68.4255 39.5616 68.5779 39.4922 68.5283 39.3205C68.5114 39.2629 68.4678 39.1865 68.5766 39.1947C68.8886 39.217 68.7701 38.9677 68.8196 38.8325C68.845 38.7631 68.7556 38.6161 68.8668 38.6126C69.1376 38.602 69.1461 38.3397 69.3093 38.2304C69.3733 38.1868 69.4894 38.128 69.4253 38.0281C69.36 37.9258 69.2174 37.8799 69.1207 37.9422C68.6722 38.2268 68.6975 37.7752 68.567 37.6C68.5102 37.5236 68.5283 37.3825 68.5343 37.2731C68.566 36.7401 68.0653 36.3958 67.5314 36.3958H35.8029C35.4775 36.3958 35.1437 36.576 35.1457 36.9015Z" fill="#8F8F92" style="fill:#8F8F92;fill:color(display-p3 0.5608 0.5608 0.5725);fill-opacity:1;"/>
<path d="M35.1457 36.9015C35.1457 36.9873 34.939 37.0967 35.0586 37.1284C35.2388 37.1766 35.4213 37.4083 35.5289 37.326C35.7369 37.1672 35.7949 37.326 35.8964 37.4071C35.9388 37.4401 35.9823 37.5436 35.9666 37.56C35.9085 37.6177 35.871 37.5247 35.8154 37.5142C35.2424 37.406 35.0103 37.5741 34.9269 38.1269C34.8979 38.3174 34.8483 38.5161 34.615 38.602C34.5255 38.6349 34.4155 38.7043 34.3853 38.7831C34.2716 39.0794 34.0093 39.1241 33.7506 39.1806C33.6272 39.2076 33.5003 39.2065 33.452 39.3617C33.406 39.5087 33.2851 39.5122 33.2259 39.4475C33.0989 39.3099 33.0349 39.13 33.2609 39.0277C33.3081 39.0065 33.3407 38.9818 33.3782 38.9501C33.834 38.5726 34.2994 38.2068 34.6851 37.7564C34.7673 37.66 34.7685 37.573 34.7238 37.4859C34.6843 37.4101 34.6572 37.337 34.6402 37.2661C34.5458 36.8712 34.3451 36.3946 33.939 36.3946H33.331C33.2685 36.3946 33.2272 36.4581 33.2742 36.4993C33.3504 36.5639 33.3975 36.6404 33.302 36.7156C33.2307 36.7721 33.1546 36.8238 33.0772 36.8744C32.9962 36.9273 32.885 36.9109 32.8269 36.8356C32.7907 36.7886 32.7641 36.745 32.7737 36.7098C32.8214 36.528 32.6414 36.3958 32.4535 36.3958H9.06727C9.0596 36.3958 9.05131 36.3977 9.04697 36.404C8.91399 36.5616 8.96355 36.7862 9.15819 36.8474C9.73849 37.0308 9.86422 37.5988 9.4157 38.0081C9.37943 38.0422 9.34437 38.0787 9.30448 38.1081C9.12918 38.2409 9.08082 38.3903 9.21381 38.5832C9.2936 38.7008 9.35283 38.8572 9.23315 38.9618C8.93212 39.2229 8.7677 39.4699 9.0506 39.8591C9.29118 40.1908 9.46164 40.5365 9.50516 40.9869C9.53901 41.3409 9.73244 41.7196 9.8074 42.0995C9.83158 42.2241 9.75904 42.3582 9.64419 42.3558C9.31657 42.3476 9.13402 42.5628 8.92849 42.7416C8.77858 42.8721 8.5779 42.8674 8.41107 42.9603C8.31193 43.0156 8.31435 42.7521 8.21159 42.6969C7.98914 42.5769 7.74977 42.4617 7.49348 42.4664C7.37983 42.4687 7.21058 42.5652 7.16948 42.6604C7.09452 42.8345 7.30972 42.8121 7.4016 42.878C7.46083 42.9203 7.49952 42.9897 7.54546 43.0485C7.60349 43.1238 7.71592 43.2614 7.70867 43.2684C7.58052 43.3813 7.56359 43.1837 7.47655 43.1779C7.25048 43.1626 7.10782 42.9685 6.89867 42.9297C6.79833 42.9109 6.79833 42.7204 6.66777 42.8015C6.56742 42.8639 6.56259 42.9674 6.5638 43.092C6.56621 43.2966 6.40422 43.4413 6.20111 43.3696C6.0101 43.3025 5.82755 43.2908 5.64621 43.326C5.47091 43.3613 5.39716 43.3237 5.42013 43.1532C5.43102 43.0673 5.39596 42.9627 5.3343 42.9885C5.22912 43.0344 5.10218 42.9709 5.03327 43.0391C4.96436 43.1073 5.01151 43.2108 5.09251 43.2614C5.23879 43.3519 5.16988 43.4484 5.1179 43.5471C5.05987 43.6565 4.97887 43.7612 5.01635 43.8929C5.18439 44.4844 5.2122 45.0807 5.06954 45.6804C5.04053 45.8039 4.98854 45.925 5.17593 45.9744C5.41167 46.0368 5.44069 46.2414 5.52169 46.4249C5.67039 46.7612 5.58576 47.2339 6.08505 47.3774C6.11407 47.3857 6.14792 47.428 6.15396 47.4586C6.22408 47.8267 6.53599 48.1595 6.31234 48.5711C6.25431 48.6781 6.35223 48.6863 6.44774 48.7204C6.53517 48.752 6.6077 48.8033 6.67434 48.8626C6.92569 49.0865 7.23189 49.2097 7.56845 49.2097H9.07304C9.23291 49.2097 9.33005 49.0675 9.40482 48.9262C9.50879 48.731 9.7397 48.9921 9.93071 48.8533C10.3756 48.5311 10.8568 48.6017 11.3162 48.8486C11.5048 48.9498 11.6148 48.8239 11.7598 48.7604C11.9593 48.6746 11.784 48.5852 11.7816 48.4982C11.7804 48.417 11.7332 48.2653 11.8348 48.2759C12.2144 48.3135 12.2047 48.0642 12.212 47.8325C12.2192 47.602 12.3293 47.3269 12.1455 47.154C11.9424 46.9635 11.9351 46.8094 12.0766 46.6107C12.1346 46.5283 12.1382 46.4448 12.0947 46.3649C11.8977 46.0027 12.1395 45.9109 12.4272 45.8451C12.5553 45.8157 12.6956 45.8498 12.7596 45.6628C12.8914 45.2771 13.369 45.0125 13.751 45.0936C13.9033 45.1265 13.9855 45.2371 13.9795 45.3947C13.9746 45.5181 13.9517 45.6428 13.9553 45.7663C13.9601 45.9368 14.0713 45.9733 14.1705 45.8498C14.3542 45.6193 14.4884 45.3617 14.8656 45.5969C14.9648 45.6593 15.1352 45.4241 15.2863 45.5287C15.5209 45.6898 15.7663 45.6546 16.0141 45.6063C16.4965 45.5111 16.4723 46.2226 16.9402 46.1544C16.9644 46.1508 17.0103 46.2461 17.0333 46.3014C17.0466 46.3331 17.0175 46.3813 17.0321 46.4107C17.2001 46.7588 17.5688 47.0164 17.5338 47.4586C17.5338 47.4621 17.6027 47.475 17.6402 47.4762C17.7296 47.4762 17.7695 47.4915 17.7562 47.6032C17.7357 47.789 17.8856 47.9443 17.8723 48.1477C17.8638 48.2771 18.0089 48.4006 18.1709 48.2783C18.3559 48.1395 18.4828 48.243 18.6665 48.29C18.9011 48.3488 18.9023 48.5664 19.0788 48.6405C19.2271 48.703 19.385 48.7572 19.5143 48.8429C19.7391 48.9918 19.9662 49.2097 20.2359 49.2097C20.6072 49.2097 21.0311 48.8087 21.4024 48.8063C21.5185 48.8063 21.6333 48.8204 21.6212 48.6946C21.5922 48.3853 21.8424 48.3982 22.0177 48.3653C22.2281 48.3265 22.3466 48.2594 22.3018 48.0348C22.2632 47.8431 22.3188 47.6844 22.505 47.6056C22.6815 47.5315 22.8543 47.5738 22.9994 47.7008C23.1566 47.8372 23.3524 47.8878 23.5446 47.956C24.4767 48.29 25.485 48.31 26.4231 48.6205C26.4908 48.6428 26.5851 48.6499 26.648 48.6228C27.0155 48.4641 27.3456 48.6264 27.6817 48.724C27.8255 48.7663 27.7977 48.9921 27.9597 49.0062C28.2066 49.0272 28.4561 49.2293 28.7025 49.2561C39.5893 50.4416 52.3408 49.2683 67.3567 49.2118C67.8992 49.2097 68.3399 48.6647 68.2623 48.1277C68.2587 48.0995 68.2551 48.0231 68.2357 47.9913C68.2224 47.969 68.1934 47.9831 68.1862 47.9842C68.1272 47.9986 68.0802 47.9961 68.0415 47.9819C67.7339 47.8695 67.5645 47.2342 67.2371 47.2234C67.0038 47.2151 66.785 47.174 66.5879 47.0387C66.461 46.9517 66.2579 46.8835 66.1648 46.9494C66.0252 47.0484 65.9192 47.191 65.7547 47.2538C65.7035 47.2733 65.6453 47.3371 65.6824 47.3774C65.952 47.6679 65.5942 47.8819 65.5821 48.1383C65.5821 48.1413 65.581 48.1442 65.5789 48.1471C65.5393 48.2028 65.4164 48.1479 65.4286 48.0807C65.4721 47.8525 65.0997 47.842 65.1614 47.5962C65.1686 47.5691 65.0538 47.5868 65.0127 47.6409C64.9293 47.7467 64.8894 47.8561 64.9764 47.9795C65.0175 48.0372 65.1711 48.0901 65.0151 48.1665C64.8857 48.2289 64.9075 48.0983 64.8652 48.0301C64.7624 47.8666 64.656 47.6691 64.4965 47.5879C64.3586 47.5185 64.2728 47.7408 64.1628 47.8361C64.0262 47.9537 63.834 47.9055 63.7034 47.8361C63.591 47.7761 63.6707 47.6244 63.7312 47.5374C63.95 47.2198 63.9065 46.827 64.0661 46.4931C64.2982 46.0074 64.1797 45.4723 64.2801 44.9689C64.3852 44.4444 64.5484 43.9293 64.4143 43.3837C64.3937 43.3013 64.4626 43.1967 64.494 43.1038C64.5291 42.9979 64.5702 42.8968 64.5581 42.7792C64.482 42.0795 65.1698 41.3068 65.9206 41.2515C66.0222 41.2445 66.0838 41.1598 66.0681 41.1151C65.9375 40.7376 66.2639 40.7776 66.4562 40.6929C66.5118 40.6682 66.5964 40.6341 66.6049 40.5918C66.646 40.3848 66.7463 40.3131 66.9748 40.3248C67.132 40.3331 67.161 40.1943 67.0498 40.0638C66.8732 39.8568 66.9724 39.6322 67.2444 39.5404C67.4306 39.4769 67.7086 39.5475 67.7618 39.2217C67.7775 39.1265 68.0085 39.1841 68.0967 39.2394C68.2333 39.3241 68.0193 39.3111 68.0242 39.3805C68.0302 39.4722 67.8912 39.5793 67.9855 39.6392C68.0737 39.6957 68.2273 39.7439 68.3312 39.6486C68.4255 39.5616 68.5779 39.4922 68.5283 39.3205C68.5114 39.2629 68.4678 39.1865 68.5766 39.1947C68.8886 39.217 68.7701 38.9677 68.8196 38.8325C68.845 38.7631 68.7556 38.6161 68.8668 38.6126C69.1376 38.602 69.1461 38.3397 69.3093 38.2304C69.3733 38.1868 69.4894 38.128 69.4253 38.0281C69.36 37.9258 69.2174 37.8799 69.1207 37.9422C68.6722 38.2268 68.6975 37.7752 68.567 37.6C68.5102 37.5236 68.5283 37.3825 68.5343 37.2731C68.566 36.7401 68.0653 36.3958 67.5314 36.3958H35.8029C35.4775 36.3958 35.1437 36.576 35.1457 36.9015Z" fill="url(#paint4_linear_389_12338)" style=""/>
<path d="M19.7872 49.3143C19.803 49.5225 20.0278 49.8365 20.1209 49.7894C20.5054 49.5919 20.5235 49.8306 20.6335 50.0646C20.694 50.1928 20.9249 50.3128 21.0361 50.2175C21.1618 50.1093 21.4217 49.9517 21.1836 49.6989C21.1098 49.6201 21.0748 49.5072 21.03 49.4061C20.9818 49.2959 20.878 49.2132 20.7577 49.2132H19.8763C19.8225 49.2132 19.7838 49.263 19.7872 49.3167V49.3143Z" fill="#8F8F92" style="fill:#8F8F92;fill:color(display-p3 0.5608 0.5608 0.5725);fill-opacity:1;"/>
<path d="M19.7872 49.3143C19.803 49.5225 20.0278 49.8365 20.1209 49.7894C20.5054 49.5919 20.5235 49.8306 20.6335 50.0646C20.694 50.1928 20.9249 50.3128 21.0361 50.2175C21.1618 50.1093 21.4217 49.9517 21.1836 49.6989C21.1098 49.6201 21.0748 49.5072 21.03 49.4061C20.9818 49.2959 20.878 49.2132 20.7577 49.2132H19.8763C19.8225 49.2132 19.7838 49.263 19.7872 49.3167V49.3143Z" fill="url(#paint5_linear_389_12338)" style=""/>
<path d="M28.2293 49.5278C28.2293 49.5274 28.2289 49.5274 28.2287 49.5277C28.1807 49.672 28.3037 49.85 28.1447 49.9929C28.1024 50.0317 28.1616 50.1352 28.2245 50.1293C28.5267 50.0999 28.6053 50.3316 28.7612 50.5021C28.8592 50.6091 28.9027 50.8149 29.1058 50.8126C29.3464 50.8102 29.3693 50.8949 29.2569 51.0842C29.1372 51.2853 29.1832 51.3488 29.4479 51.3547C29.668 51.3594 29.7925 51.2018 29.9944 51.1701C30.2168 51.1348 30.4925 51.2183 30.6968 50.9902C30.7886 50.8878 31.0123 50.9854 31.1187 51.0689C31.2396 51.163 31.0679 51.263 31.0135 51.3312C30.9228 51.4441 30.8842 51.5452 30.9506 51.6687C31.4717 52.6342 31.641 53.6821 31.7316 54.7499C31.7377 54.824 31.7316 54.9133 31.8163 54.9416C31.913 54.9745 31.9347 54.871 31.9843 54.8228C32.2104 54.5935 32.3857 54.6229 32.5162 54.9122C32.7483 55.4284 33.024 55.5555 33.5511 55.4167C33.6829 55.3826 33.8461 55.3861 33.9404 55.5084C34.2329 55.8859 34.3925 56.3457 34.7093 56.7103C34.7213 56.7244 34.708 56.7585 34.7093 56.7832C34.7322 57.0455 35.1481 57.2395 35.3669 57.0854C35.4455 57.0302 35.4951 56.9079 35.616 56.9702C35.7296 57.029 35.6655 57.1372 35.6716 57.2313C35.6849 57.4535 35.8505 57.6135 36.0294 57.7099C36.1963 57.7993 36.3982 57.8063 36.5106 57.577C36.5577 57.4818 36.6581 57.49 36.7427 57.5441C36.9011 57.6441 37.0606 57.5617 37.2178 57.5465C37.4632 57.5241 37.5938 57.3159 37.7836 57.2089C38.087 57.0372 38.4727 56.9726 38.7568 56.8056C39.4072 56.421 39.9162 56.8726 40.4844 56.9467C40.5884 56.9596 40.6053 57.0631 40.6391 57.1431C40.7963 57.5065 41.1372 57.6852 41.5168 57.5759C41.6184 57.5465 41.6704 57.5935 41.7465 57.6064C42.1564 57.6758 42.5795 57.7899 42.9772 57.5923C43.1803 57.4912 43.323 57.3136 43.1791 57.0549C42.8817 56.5163 42.9458 56.2869 43.3774 55.8718C43.5466 55.7095 43.6567 55.6895 43.8525 55.7801C44.2672 55.9694 44.729 56.0141 45.1606 56.1635C45.4229 56.254 45.5716 56.3081 45.591 56.6092C45.6212 57.1031 46.4264 57.6335 46.864 57.403C47.3536 57.1443 47.807 57.0631 48.3619 57.1278C48.7717 57.1748 48.9627 57.6476 49.4052 57.53C49.4137 57.5276 49.4403 57.5911 49.4572 57.6241C49.5841 57.8863 49.8041 57.9522 50.0846 57.9404C50.3615 57.9287 50.6407 57.9592 50.9188 57.9569C51.0953 57.9545 51.3069 58.0133 51.4411 57.9004C51.7747 57.6217 52.1773 57.5194 52.5799 57.4077C52.7286 57.3665 52.8108 57.2713 52.8507 57.1278C53.0091 56.5645 53.5241 56.3375 54.056 56.5868C54.1926 56.6503 54.3316 56.6868 54.4816 56.588C54.6943 56.448 54.9071 56.4104 55.1392 56.5904C55.3556 56.7585 55.6965 56.7468 55.8549 56.6386C56.1499 56.4375 56.353 56.1082 56.5924 55.8306C56.6093 55.8106 56.6069 55.7801 56.5887 55.7601C56.3167 55.4849 56.5307 55.1815 56.5549 54.8992C56.5779 54.6287 56.5815 54.3418 56.7157 54.0913C56.9599 53.6385 56.8777 53.3869 56.3941 53.1717C56.3566 53.1552 56.3288 53.1481 56.3518 53.0976C56.4425 52.8988 56.4594 52.6389 56.654 52.5225C57.0602 52.2802 57.4918 52.0768 57.9186 51.8698C58.0238 51.8192 58.1362 51.8181 58.2728 51.8486C58.4953 51.898 58.7806 52.0674 58.9522 51.9098C59.1408 51.7357 59.2218 51.8381 59.3657 51.9098C59.7514 52.0991 60.0427 52.3696 60.2881 52.7224C60.6738 53.2763 61.3423 53.595 61.6494 54.2289C61.7352 54.4065 61.9432 54.4865 62.1439 54.4018C62.5984 54.2101 63.03 54.2901 63.4664 54.4688C63.5305 54.4947 63.5994 54.5041 63.6695 54.51C63.9005 54.5311 64.1664 54.7605 64.2015 54.9816C64.2305 55.1674 64.6597 55.4284 64.7963 55.3191C64.9825 55.1697 65.217 55.1462 65.408 55.0286C65.5301 54.9522 65.6849 54.9086 65.7115 54.7228C65.7767 54.2618 66.2265 54.0631 66.4622 53.7162C66.4949 53.6679 66.6242 53.5339 66.6448 53.6962C66.6786 53.9678 67.1308 54.1701 66.791 54.5041C66.7693 54.5253 66.7947 54.5993 66.8092 54.6464C67.0062 55.2908 67.1235 55.94 67.1029 56.6197C67.0969 56.822 67.0703 56.8467 66.9071 56.8303C66.3026 56.7691 66.0596 57.1901 65.8686 57.6158C65.7417 57.8981 65.9641 58.1603 66.0995 58.4038C66.1878 58.5637 66.3292 58.7037 66.4707 58.826C66.652 58.9824 66.8031 59.1082 66.5227 59.3152C66.4356 59.3799 66.3969 59.5445 66.5468 59.5845C66.7137 59.6292 66.8285 59.8091 67.0244 59.7527C67.0667 59.7409 67.08 59.6915 67.0498 59.6598C66.7971 59.4034 67.2662 59.3587 67.2069 59.1564C67.1985 59.1282 67.2782 59.067 67.3012 59.1447C67.3701 59.381 67.4221 59.2705 67.4753 59.1423C67.4959 59.0929 67.4971 58.9824 67.5793 59.06C67.8573 59.3199 68.1088 59.047 68.3204 58.9835C68.8064 58.8377 69.4217 57.6558 69.3854 57.1066C69.3492 56.5609 69.4592 56.0282 69.5535 55.4966C69.6417 54.9992 69.7445 54.5135 69.701 53.9972C69.6381 53.2552 69.5474 52.5084 69.701 51.7604C69.753 51.5088 69.6151 51.2606 69.5124 51.0419C69.3044 50.5962 69.0578 50.1693 68.7483 49.7718C68.5177 49.4754 68.2048 49.2155 67.8293 49.2155H28.3366C28.3094 49.2155 28.2887 49.2399 28.2882 49.267C28.287 49.3417 28.2628 49.4298 28.2299 49.5278C28.2298 49.5282 28.2293 49.5281 28.2293 49.5278Z" fill="#8F8F92" style="fill:#8F8F92;fill:color(display-p3 0.5608 0.5608 0.5725);fill-opacity:1;"/>
<path d="M28.2293 49.5278C28.2293 49.5274 28.2289 49.5274 28.2287 49.5277C28.1807 49.672 28.3037 49.85 28.1447 49.9929C28.1024 50.0317 28.1616 50.1352 28.2245 50.1293C28.5267 50.0999 28.6053 50.3316 28.7612 50.5021C28.8592 50.6091 28.9027 50.8149 29.1058 50.8126C29.3464 50.8102 29.3693 50.8949 29.2569 51.0842C29.1372 51.2853 29.1832 51.3488 29.4479 51.3547C29.668 51.3594 29.7925 51.2018 29.9944 51.1701C30.2168 51.1348 30.4925 51.2183 30.6968 50.9902C30.7886 50.8878 31.0123 50.9854 31.1187 51.0689C31.2396 51.163 31.0679 51.263 31.0135 51.3312C30.9228 51.4441 30.8842 51.5452 30.9506 51.6687C31.4717 52.6342 31.641 53.6821 31.7316 54.7499C31.7377 54.824 31.7316 54.9133 31.8163 54.9416C31.913 54.9745 31.9347 54.871 31.9843 54.8228C32.2104 54.5935 32.3857 54.6229 32.5162 54.9122C32.7483 55.4284 33.024 55.5555 33.5511 55.4167C33.6829 55.3826 33.8461 55.3861 33.9404 55.5084C34.2329 55.8859 34.3925 56.3457 34.7093 56.7103C34.7213 56.7244 34.708 56.7585 34.7093 56.7832C34.7322 57.0455 35.1481 57.2395 35.3669 57.0854C35.4455 57.0302 35.4951 56.9079 35.616 56.9702C35.7296 57.029 35.6655 57.1372 35.6716 57.2313C35.6849 57.4535 35.8505 57.6135 36.0294 57.7099C36.1963 57.7993 36.3982 57.8063 36.5106 57.577C36.5577 57.4818 36.6581 57.49 36.7427 57.5441C36.9011 57.6441 37.0606 57.5617 37.2178 57.5465C37.4632 57.5241 37.5938 57.3159 37.7836 57.2089C38.087 57.0372 38.4727 56.9726 38.7568 56.8056C39.4072 56.421 39.9162 56.8726 40.4844 56.9467C40.5884 56.9596 40.6053 57.0631 40.6391 57.1431C40.7963 57.5065 41.1372 57.6852 41.5168 57.5759C41.6184 57.5465 41.6704 57.5935 41.7465 57.6064C42.1564 57.6758 42.5795 57.7899 42.9772 57.5923C43.1803 57.4912 43.323 57.3136 43.1791 57.0549C42.8817 56.5163 42.9458 56.2869 43.3774 55.8718C43.5466 55.7095 43.6567 55.6895 43.8525 55.7801C44.2672 55.9694 44.729 56.0141 45.1606 56.1635C45.4229 56.254 45.5716 56.3081 45.591 56.6092C45.6212 57.1031 46.4264 57.6335 46.864 57.403C47.3536 57.1443 47.807 57.0631 48.3619 57.1278C48.7717 57.1748 48.9627 57.6476 49.4052 57.53C49.4137 57.5276 49.4403 57.5911 49.4572 57.6241C49.5841 57.8863 49.8041 57.9522 50.0846 57.9404C50.3615 57.9287 50.6407 57.9592 50.9188 57.9569C51.0953 57.9545 51.3069 58.0133 51.4411 57.9004C51.7747 57.6217 52.1773 57.5194 52.5799 57.4077C52.7286 57.3665 52.8108 57.2713 52.8507 57.1278C53.0091 56.5645 53.5241 56.3375 54.056 56.5868C54.1926 56.6503 54.3316 56.6868 54.4816 56.588C54.6943 56.448 54.9071 56.4104 55.1392 56.5904C55.3556 56.7585 55.6965 56.7468 55.8549 56.6386C56.1499 56.4375 56.353 56.1082 56.5924 55.8306C56.6093 55.8106 56.6069 55.7801 56.5887 55.7601C56.3167 55.4849 56.5307 55.1815 56.5549 54.8992C56.5779 54.6287 56.5815 54.3418 56.7157 54.0913C56.9599 53.6385 56.8777 53.3869 56.3941 53.1717C56.3566 53.1552 56.3288 53.1481 56.3518 53.0976C56.4425 52.8988 56.4594 52.6389 56.654 52.5225C57.0602 52.2802 57.4918 52.0768 57.9186 51.8698C58.0238 51.8192 58.1362 51.8181 58.2728 51.8486C58.4953 51.898 58.7806 52.0674 58.9522 51.9098C59.1408 51.7357 59.2218 51.8381 59.3657 51.9098C59.7514 52.0991 60.0427 52.3696 60.2881 52.7224C60.6738 53.2763 61.3423 53.595 61.6494 54.2289C61.7352 54.4065 61.9432 54.4865 62.1439 54.4018C62.5984 54.2101 63.03 54.2901 63.4664 54.4688C63.5305 54.4947 63.5994 54.5041 63.6695 54.51C63.9005 54.5311 64.1664 54.7605 64.2015 54.9816C64.2305 55.1674 64.6597 55.4284 64.7963 55.3191C64.9825 55.1697 65.217 55.1462 65.408 55.0286C65.5301 54.9522 65.6849 54.9086 65.7115 54.7228C65.7767 54.2618 66.2265 54.0631 66.4622 53.7162C66.4949 53.6679 66.6242 53.5339 66.6448 53.6962C66.6786 53.9678 67.1308 54.1701 66.791 54.5041C66.7693 54.5253 66.7947 54.5993 66.8092 54.6464C67.0062 55.2908 67.1235 55.94 67.1029 56.6197C67.0969 56.822 67.0703 56.8467 66.9071 56.8303C66.3026 56.7691 66.0596 57.1901 65.8686 57.6158C65.7417 57.8981 65.9641 58.1603 66.0995 58.4038C66.1878 58.5637 66.3292 58.7037 66.4707 58.826C66.652 58.9824 66.8031 59.1082 66.5227 59.3152C66.4356 59.3799 66.3969 59.5445 66.5468 59.5845C66.7137 59.6292 66.8285 59.8091 67.0244 59.7527C67.0667 59.7409 67.08 59.6915 67.0498 59.6598C66.7971 59.4034 67.2662 59.3587 67.2069 59.1564C67.1985 59.1282 67.2782 59.067 67.3012 59.1447C67.3701 59.381 67.4221 59.2705 67.4753 59.1423C67.4959 59.0929 67.4971 58.9824 67.5793 59.06C67.8573 59.3199 68.1088 59.047 68.3204 58.9835C68.8064 58.8377 69.4217 57.6558 69.3854 57.1066C69.3492 56.5609 69.4592 56.0282 69.5535 55.4966C69.6417 54.9992 69.7445 54.5135 69.701 53.9972C69.6381 53.2552 69.5474 52.5084 69.701 51.7604C69.753 51.5088 69.6151 51.2606 69.5124 51.0419C69.3044 50.5962 69.0578 50.1693 68.7483 49.7718C68.5177 49.4754 68.2048 49.2155 67.8293 49.2155H28.3366C28.3094 49.2155 28.2887 49.2399 28.2882 49.267C28.287 49.3417 28.2628 49.4298 28.2299 49.5278C28.2298 49.5282 28.2293 49.5281 28.2293 49.5278Z" fill="url(#paint6_linear_389_12338)" style=""/>
<path d="M7.05726 49.2166C7.05712 49.2167 7.05699 49.2168 7.05688 49.2169C6.88932 49.4086 7.37365 49.7166 6.93736 49.8694C6.92164 49.8753 6.93011 50.0211 6.96638 50.0776C7.22872 50.4856 7.20091 50.9431 7.23113 51.3935C7.25169 51.7028 7.50315 51.8381 7.76307 51.8087C8.0109 51.7804 8.41832 51.9921 8.43524 51.4265C8.44975 50.9325 8.47272 50.3986 8.93212 50.0176C9.10258 49.8765 9.23798 49.6683 9.32624 49.4649C9.38274 49.3346 9.24515 49.2108 9.10314 49.2108H7.05739C7.05576 49.2108 7.0551 49.2129 7.05648 49.2138C7.05677 49.214 7.05705 49.2141 7.05734 49.2143C7.05818 49.2149 7.05816 49.2162 7.05726 49.2166Z" fill="#8F8F92" style="fill:#8F8F92;fill:color(display-p3 0.5608 0.5608 0.5725);fill-opacity:1;"/>
<path d="M7.05726 49.2166C7.05712 49.2167 7.05699 49.2168 7.05688 49.2169C6.88932 49.4086 7.37365 49.7166 6.93736 49.8694C6.92164 49.8753 6.93011 50.0211 6.96638 50.0776C7.22872 50.4856 7.20091 50.9431 7.23113 51.3935C7.25169 51.7028 7.50315 51.8381 7.76307 51.8087C8.0109 51.7804 8.41832 51.9921 8.43524 51.4265C8.44975 50.9325 8.47272 50.3986 8.93212 50.0176C9.10258 49.8765 9.23798 49.6683 9.32624 49.4649C9.38274 49.3346 9.24515 49.2108 9.10314 49.2108H7.05739C7.05576 49.2108 7.0551 49.2129 7.05648 49.2138C7.05677 49.214 7.05705 49.2141 7.05734 49.2143C7.05818 49.2149 7.05816 49.2162 7.05726 49.2166Z" fill="url(#paint7_linear_389_12338)" style=""/>
<path d="M71.9049 46.1038C71.8795 46.0215 71.8686 45.9356 71.7949 45.8733C71.5023 45.6299 71.1263 45.5417 70.7854 45.4064C70.6161 45.3394 70.4735 45.2935 70.3719 45.1477C70.1338 44.8055 70.0733 44.3939 69.9246 44.0164C69.8207 43.7518 70.1447 43.4942 70.43 43.573C70.5895 43.6177 70.7467 43.6671 70.9051 43.7118C70.9607 43.7271 71.0356 43.767 71.0526 43.6777C71.0586 43.6471 71.0054 43.5965 70.9679 43.5695C70.8434 43.4801 70.6705 43.5201 70.5448 43.4154C70.0141 42.9732 69.3854 42.6534 68.8934 42.1665C68.5525 41.8301 68.0072 41.6537 67.9661 41.0716C67.9589 40.9693 67.8198 40.9693 67.7787 40.9081C67.5672 40.5895 67.0836 40.5471 66.9627 40.1414C66.9337 40.045 66.8225 40.0391 66.7669 39.9803C66.5698 39.7745 66.5202 39.9944 66.4525 40.0861C66.3183 40.2696 66.5347 40.2637 66.6061 40.2813C66.9796 40.3731 66.9506 40.573 66.7632 40.8058C66.6496 40.947 66.6206 41.0928 66.7632 41.1975C67.0316 41.3927 67.1344 41.6737 67.248 41.9525C67.2529 41.9654 67.2782 42.0348 67.2903 42.0595C67.3991 42.29 67.5865 42.4323 67.8525 42.4922C68.0338 42.5334 68.2248 42.6287 68.2696 42.7886C68.4171 43.3108 68.8777 43.6306 69.1134 44.0928C69.2996 44.4574 69.406 44.8925 69.892 45.023C69.9113 45.0277 69.9283 45.0583 69.9379 45.0807C70.0963 45.4911 70.3453 45.858 70.5303 46.2532C70.6222 46.4484 70.6899 46.6318 70.8712 46.7612C70.9776 46.8376 71.0635 47.0246 71.2122 46.92C71.356 46.8176 71.2122 46.6706 71.1638 46.553C71.0405 46.2543 71.032 46.2484 71.1408 46.1814C71.3355 46.0615 71.5349 45.9286 71.7235 46.1991C71.761 46.252 71.8057 46.3531 71.8928 46.3061C71.9728 46.2619 71.9254 46.1776 71.9033 46.1075C71.9028 46.106 71.9035 46.1045 71.9049 46.1038Z" fill="#8F8F92" style="fill:#8F8F92;fill:color(display-p3 0.5608 0.5608 0.5725);fill-opacity:1;"/>
<path d="M71.9049 46.1038C71.8795 46.0215 71.8686 45.9356 71.7949 45.8733C71.5023 45.6299 71.1263 45.5417 70.7854 45.4064C70.6161 45.3394 70.4735 45.2935 70.3719 45.1477C70.1338 44.8055 70.0733 44.3939 69.9246 44.0164C69.8207 43.7518 70.1447 43.4942 70.43 43.573C70.5895 43.6177 70.7467 43.6671 70.9051 43.7118C70.9607 43.7271 71.0356 43.767 71.0526 43.6777C71.0586 43.6471 71.0054 43.5965 70.9679 43.5695C70.8434 43.4801 70.6705 43.5201 70.5448 43.4154C70.0141 42.9732 69.3854 42.6534 68.8934 42.1665C68.5525 41.8301 68.0072 41.6537 67.9661 41.0716C67.9589 40.9693 67.8198 40.9693 67.7787 40.9081C67.5672 40.5895 67.0836 40.5471 66.9627 40.1414C66.9337 40.045 66.8225 40.0391 66.7669 39.9803C66.5698 39.7745 66.5202 39.9944 66.4525 40.0861C66.3183 40.2696 66.5347 40.2637 66.6061 40.2813C66.9796 40.3731 66.9506 40.573 66.7632 40.8058C66.6496 40.947 66.6206 41.0928 66.7632 41.1975C67.0316 41.3927 67.1344 41.6737 67.248 41.9525C67.2529 41.9654 67.2782 42.0348 67.2903 42.0595C67.3991 42.29 67.5865 42.4323 67.8525 42.4922C68.0338 42.5334 68.2248 42.6287 68.2696 42.7886C68.4171 43.3108 68.8777 43.6306 69.1134 44.0928C69.2996 44.4574 69.406 44.8925 69.892 45.023C69.9113 45.0277 69.9283 45.0583 69.9379 45.0807C70.0963 45.4911 70.3453 45.858 70.5303 46.2532C70.6222 46.4484 70.6899 46.6318 70.8712 46.7612C70.9776 46.8376 71.0635 47.0246 71.2122 46.92C71.356 46.8176 71.2122 46.6706 71.1638 46.553C71.0405 46.2543 71.032 46.2484 71.1408 46.1814C71.3355 46.0615 71.5349 45.9286 71.7235 46.1991C71.761 46.252 71.8057 46.3531 71.8928 46.3061C71.9728 46.2619 71.9254 46.1776 71.9033 46.1075C71.9028 46.106 71.9035 46.1045 71.9049 46.1038Z" fill="url(#paint8_linear_389_12338)" style=""/>
<path d="M71.2146 46.92C71.3584 46.8176 71.2146 46.6706 71.1662 46.553C71.0429 46.2543 71.0344 46.2484 71.1432 46.1814C71.3379 46.0615 71.5374 45.9286 71.726 46.1991C71.7634 46.252 71.8082 46.3531 71.8952 46.3061C71.9762 46.2614 71.9266 46.1744 71.9049 46.1038C71.8795 46.0215 71.8686 45.9356 71.7949 45.8733C71.5023 45.6299 71.1263 45.5417 70.7854 45.4064C70.6161 45.3394 70.4735 45.2935 70.3719 45.1477C70.253 44.9766 70.1782 44.7887 70.1149 44.5966C70.0672 44.4516 69.9341 44.3515 69.7815 44.3515C69.5277 44.3515 69.3453 44.6301 69.5238 44.8104C69.6177 44.9053 69.7362 44.9805 69.8956 45.023C69.915 45.0277 69.9319 45.0583 69.9416 45.0807C70.0999 45.4911 70.349 45.858 70.5339 46.2532C70.6258 46.4484 70.6935 46.6318 70.8749 46.7612C70.9812 46.8376 71.0659 47.0246 71.2146 46.92Z" fill="#8F8F92" style="fill:#8F8F92;fill:color(display-p3 0.5608 0.5608 0.5725);fill-opacity:1;"/>
<path d="M71.2146 46.92C71.3584 46.8176 71.2146 46.6706 71.1662 46.553C71.0429 46.2543 71.0344 46.2484 71.1432 46.1814C71.3379 46.0615 71.5374 45.9286 71.726 46.1991C71.7634 46.252 71.8082 46.3531 71.8952 46.3061C71.9762 46.2614 71.9266 46.1744 71.9049 46.1038C71.8795 46.0215 71.8686 45.9356 71.7949 45.8733C71.5023 45.6299 71.1263 45.5417 70.7854 45.4064C70.6161 45.3394 70.4735 45.2935 70.3719 45.1477C70.253 44.9766 70.1782 44.7887 70.1149 44.5966C70.0672 44.4516 69.9341 44.3515 69.7815 44.3515C69.5277 44.3515 69.3453 44.6301 69.5238 44.8104C69.6177 44.9053 69.7362 44.9805 69.8956 45.023C69.915 45.0277 69.9319 45.0583 69.9416 45.0807C70.0999 45.4911 70.349 45.858 70.5339 46.2532C70.6258 46.4484 70.6935 46.6318 70.8749 46.7612C70.9812 46.8376 71.0659 47.0246 71.2146 46.92Z" fill="url(#paint9_linear_389_12338)" style=""/>
<path d="M14.27 49.4452L14.2699 49.4451C11.387 46.718 10.3143 44.193 10.9344 41.5437L10.9346 41.5429C11.6552 38.4484 14.3943 37.0139 16.8719 37.0139C19.3492 37.0139 22.088 38.4481 22.809 41.542C23.415 44.1793 22.3491 46.7373 19.4718 49.4436L19.4658 49.4492L19.4599 49.4549C19.0137 49.8931 18.2299 50.6773 17.5603 51.3494C17.3081 51.6025 17.0716 51.8402 16.8747 52.0383C16.678 51.8387 16.4415 51.5992 16.1889 51.3446C15.5214 50.6715 14.7311 49.8816 14.27 49.4452Z" fill="#8F8F92" style="fill:#8F8F92;fill:color(display-p3 0.5608 0.5608 0.5725);fill-opacity:1;"/>
<path d="M14.27 49.4452L14.2699 49.4451C11.387 46.718 10.3143 44.193 10.9344 41.5437L10.9346 41.5429C11.6552 38.4484 14.3943 37.0139 16.8719 37.0139C19.3492 37.0139 22.088 38.4481 22.809 41.542C23.415 44.1793 22.3491 46.7373 19.4718 49.4436L19.4658 49.4492L19.4599 49.4549C19.0137 49.8931 18.2299 50.6773 17.5603 51.3494C17.3081 51.6025 17.0716 51.8402 16.8747 52.0383C16.678 51.8387 16.4415 51.5992 16.1889 51.3446C15.5214 50.6715 14.7311 49.8816 14.27 49.4452Z" fill="#65666D" style="fill:#65666D;fill:color(display-p3 0.3961 0.4000 0.4275);fill-opacity:1;"/>
<path d="M14.27 49.4452L14.2699 49.4451C11.387 46.718 10.3143 44.193 10.9344 41.5437L10.9346 41.5429C11.6552 38.4484 14.3943 37.0139 16.8719 37.0139C19.3492 37.0139 22.088 38.4481 22.809 41.542C23.415 44.1793 22.3491 46.7373 19.4718 49.4436L19.4658 49.4492L19.4599 49.4549C19.0137 49.8931 18.2299 50.6773 17.5603 51.3494C17.3081 51.6025 17.0716 51.8402 16.8747 52.0383C16.678 51.8387 16.4415 51.5992 16.1889 51.3446C15.5214 50.6715 14.7311 49.8816 14.27 49.4452Z" stroke="#F3F0F0" style="stroke:#F3F0F0;stroke:color(display-p3 0.9529 0.9412 0.9412);stroke-opacity:1;" stroke-width="1.52778"/>
<path d="M16.8618 44.4453C15.8356 44.4453 14.9961 43.6016 14.9961 42.5703C14.9961 41.5391 15.817 40.6953 16.8618 40.6953H16.8804C17.9065 40.6953 18.7461 41.5391 18.7461 42.5703C18.7461 43.6016 17.8879 44.4453 16.8618 44.4453Z" fill="#F3F0F0" style="fill:#F3F0F0;fill:color(display-p3 0.9529 0.9412 0.9412);fill-opacity:1;"/>
<path d="M35.52 35.6952L35.5199 35.6951C32.637 32.968 31.5643 30.443 32.1844 27.7937L32.1846 27.7929C32.9052 24.6984 35.6443 23.2639 38.1219 23.2639C40.5992 23.2639 43.338 24.6981 44.059 27.792C44.665 30.4293 43.5991 32.9873 40.7218 35.6936L40.7158 35.6992L40.7099 35.7049C40.2637 36.1431 39.4799 36.9273 38.8103 37.5994C38.5581 37.8525 38.3216 38.0902 38.1247 38.2883C37.928 38.0887 37.6915 37.8492 37.4389 37.5946C36.7714 36.9215 35.9811 36.1316 35.52 35.6952Z" fill="#8F8F92" style="fill:#8F8F92;fill:color(display-p3 0.5608 0.5608 0.5725);fill-opacity:1;"/>
<path d="M35.52 35.6952L35.5199 35.6951C32.637 32.968 31.5643 30.443 32.1844 27.7937L32.1846 27.7929C32.9052 24.6984 35.6443 23.2639 38.1219 23.2639C40.5992 23.2639 43.338 24.6981 44.059 27.792C44.665 30.4293 43.5991 32.9873 40.7218 35.6936L40.7158 35.6992L40.7099 35.7049C40.2637 36.1431 39.4799 36.9273 38.8103 37.5994C38.5581 37.8525 38.3216 38.0902 38.1247 38.2883C37.928 38.0887 37.6915 37.8492 37.4389 37.5946C36.7714 36.9215 35.9811 36.1316 35.52 35.6952Z" fill="#65666D" style="fill:#65666D;fill:color(display-p3 0.3961 0.4000 0.4275);fill-opacity:1;"/>
<path d="M35.52 35.6952L35.5199 35.6951C32.637 32.968 31.5643 30.443 32.1844 27.7937L32.1846 27.7929C32.9052 24.6984 35.6443 23.2639 38.1219 23.2639C40.5992 23.2639 43.338 24.6981 44.059 27.792C44.665 30.4293 43.5991 32.9873 40.7218 35.6936L40.7158 35.6992L40.7099 35.7049C40.2637 36.1431 39.4799 36.9273 38.8103 37.5994C38.5581 37.8525 38.3216 38.0902 38.1247 38.2883C37.928 38.0887 37.6915 37.8492 37.4389 37.5946C36.7714 36.9215 35.9811 36.1316 35.52 35.6952Z" stroke="#F3F0F0" style="stroke:#F3F0F0;stroke:color(display-p3 0.9529 0.9412 0.9412);stroke-opacity:1;" stroke-width="1.52778"/>
<path d="M38.1157 30.6953C37.0896 30.6953 36.25 29.8516 36.25 28.8203C36.25 27.7891 37.0709 26.9453 38.1157 26.9453H38.1343C39.1604 26.9453 40 27.7891 40 28.8203C40 29.8516 39.1418 30.6953 38.1157 30.6953Z" fill="#F3F0F0" style="fill:#F3F0F0;fill:color(display-p3 0.9529 0.9412 0.9412);fill-opacity:1;"/>
<path d="M41.77 59.4452L41.7699 59.4451C38.887 56.718 37.8143 54.193 38.4344 51.5437L38.4346 51.5429C39.1552 48.4484 41.8943 47.0139 44.3719 47.0139C46.8492 47.0139 49.588 48.4481 50.309 51.542C50.915 54.1793 49.8491 56.7373 46.9718 59.4436L46.9658 59.4492L46.9599 59.4549C46.5137 59.8931 45.7299 60.6773 45.0603 61.3494C44.8081 61.6025 44.5716 61.8402 44.3747 62.0383C44.178 61.8387 43.9415 61.5992 43.6889 61.3446C43.0214 60.6715 42.2311 59.8816 41.77 59.4452Z" fill="#8F8F92" style="fill:#8F8F92;fill:color(display-p3 0.5608 0.5608 0.5725);fill-opacity:1;"/>
<path d="M41.77 59.4452L41.7699 59.4451C38.887 56.718 37.8143 54.193 38.4344 51.5437L38.4346 51.5429C39.1552 48.4484 41.8943 47.0139 44.3719 47.0139C46.8492 47.0139 49.588 48.4481 50.309 51.542C50.915 54.1793 49.8491 56.7373 46.9718 59.4436L46.9658 59.4492L46.9599 59.4549C46.5137 59.8931 45.7299 60.6773 45.0603 61.3494C44.8081 61.6025 44.5716 61.8402 44.3747 62.0383C44.178 61.8387 43.9415 61.5992 43.6889 61.3446C43.0214 60.6715 42.2311 59.8816 41.77 59.4452Z" fill="#65666D" style="fill:#65666D;fill:color(display-p3 0.3961 0.4000 0.4275);fill-opacity:1;"/>
<path d="M41.77 59.4452L41.7699 59.4451C38.887 56.718 37.8143 54.193 38.4344 51.5437L38.4346 51.5429C39.1552 48.4484 41.8943 47.0139 44.3719 47.0139C46.8492 47.0139 49.588 48.4481 50.309 51.542C50.915 54.1793 49.8491 56.7373 46.9718 59.4436L46.9658 59.4492L46.9599 59.4549C46.5137 59.8931 45.7299 60.6773 45.0603 61.3494C44.8081 61.6025 44.5716 61.8402 44.3747 62.0383C44.178 61.8387 43.9415 61.5992 43.6889 61.3446C43.0214 60.6715 42.2311 59.8816 41.77 59.4452Z" stroke="#F3F0F0" style="stroke:#F3F0F0;stroke:color(display-p3 0.9529 0.9412 0.9412);stroke-opacity:1;" stroke-width="1.52778"/>
<path d="M44.3618 54.4453C43.3356 54.4453 42.4961 53.6016 42.4961 52.5703C42.4961 51.5391 43.317 50.6953 44.3618 50.6953H44.3804C45.4065 50.6953 46.2461 51.5391 46.2461 52.5703C46.2461 53.6016 45.3879 54.4453 44.3618 54.4453Z" fill="#F3F0F0" style="fill:#F3F0F0;fill:color(display-p3 0.9529 0.9412 0.9412);fill-opacity:1;"/>
<rect x="20" y="8.75" width="3.75" height="1.25" rx="0.625" fill="#8F8F92" style="fill:#8F8F92;fill:color(display-p3 0.5608 0.5608 0.5725);fill-opacity:1;"/>
<rect x="12.5" y="8.75" width="6.25" height="1.25" rx="0.625" fill="#8F8F92" style="fill:#8F8F92;fill:color(display-p3 0.5608 0.5608 0.5725);fill-opacity:1;"/>
<rect x="21.25" y="12.5" width="7.5" height="1.25" rx="0.625" fill="#8F8F92" style="fill:#8F8F92;fill:color(display-p3 0.5608 0.5608 0.5725);fill-opacity:1;"/>
<rect x="12.5" y="12.5" width="7.5" height="1.25" rx="0.625" fill="#8F8F92" style="fill:#8F8F92;fill:color(display-p3 0.5608 0.5608 0.5725);fill-opacity:1;"/>
<rect x="12.5" y="16.25" width="5" height="1.25" rx="0.625" fill="#8F8F92" style="fill:#8F8F92;fill:color(display-p3 0.5608 0.5608 0.5725);fill-opacity:1;"/>
<rect x="8.75" y="16.25" width="2.5" height="1.25" rx="0.625" fill="#FFA469" style="fill:#FFA469;fill:color(display-p3 1.0000 0.6431 0.4118);fill-opacity:1;"/>
<rect x="8.75" y="12.5" width="2.5" height="1.25" rx="0.625" fill="#FFA469" style="fill:#FFA469;fill:color(display-p3 1.0000 0.6431 0.4118);fill-opacity:1;"/>
<rect x="8.75" y="8.75" width="2.5" height="1.25" rx="0.625" fill="#FFA469" style="fill:#FFA469;fill:color(display-p3 1.0000 0.6431 0.4118);fill-opacity:1;"/>
</g>
<rect x="1.25" y="1.25" width="57.5" height="67.5" rx="8.75" stroke="#F3F0F0" style="stroke:#F3F0F0;stroke:color(display-p3 0.9529 0.9412 0.9412);stroke-opacity:1;" stroke-width="2.5"/>
<defs>
<linearGradient id="paint0_linear_389_12338" x1="41.0151" y1="22.7873" x2="41.0156" y2="60.2565" gradientUnits="userSpaceOnUse">
<stop stop-color="#FFD66B" style="stop-color:#FFD66B;stop-color:color(display-p3 1.0000 0.8378 0.4208);stop-opacity:1;"/>
<stop offset="1" stop-color="#FFA469" style="stop-color:#FFA469;stop-color:color(display-p3 1.0000 0.6431 0.4118);stop-opacity:1;"/>
</linearGradient>
<linearGradient id="paint1_linear_389_12338" x1="41.0151" y1="22.7873" x2="41.0156" y2="60.2565" gradientUnits="userSpaceOnUse">
<stop stop-color="#FFD66B" style="stop-color:#FFD66B;stop-color:color(display-p3 1.0000 0.8378 0.4208);stop-opacity:1;"/>
<stop offset="1" stop-color="#FFA469" style="stop-color:#FFA469;stop-color:color(display-p3 1.0000 0.6431 0.4118);stop-opacity:1;"/>
</linearGradient>
<linearGradient id="paint2_linear_389_12338" x1="41.0151" y1="22.7873" x2="41.0156" y2="60.2565" gradientUnits="userSpaceOnUse">
<stop stop-color="#FFD66B" style="stop-color:#FFD66B;stop-color:color(display-p3 1.0000 0.8378 0.4208);stop-opacity:1;"/>
<stop offset="1" stop-color="#FFA469" style="stop-color:#FFA469;stop-color:color(display-p3 1.0000 0.6431 0.4118);stop-opacity:1;"/>
</linearGradient>
<linearGradient id="paint3_linear_389_12338" x1="41.0151" y1="22.7873" x2="41.0156" y2="60.2565" gradientUnits="userSpaceOnUse">
<stop stop-color="#FFD66B" style="stop-color:#FFD66B;stop-color:color(display-p3 1.0000 0.8378 0.4208);stop-opacity:1;"/>
<stop offset="1" stop-color="#FFA469" style="stop-color:#FFA469;stop-color:color(display-p3 1.0000 0.6431 0.4118);stop-opacity:1;"/>
</linearGradient>
<linearGradient id="paint4_linear_389_12338" x1="41.0151" y1="22.7873" x2="41.0156" y2="60.2565" gradientUnits="userSpaceOnUse">
<stop stop-color="#FFD66B" style="stop-color:#FFD66B;stop-color:color(display-p3 1.0000 0.8378 0.4208);stop-opacity:1;"/>
<stop offset="1" stop-color="#FFA469" style="stop-color:#FFA469;stop-color:color(display-p3 1.0000 0.6431 0.4118);stop-opacity:1;"/>
</linearGradient>
<linearGradient id="paint5_linear_389_12338" x1="41.0151" y1="22.7873" x2="41.0156" y2="60.2565" gradientUnits="userSpaceOnUse">
<stop stop-color="#FFD66B" style="stop-color:#FFD66B;stop-color:color(display-p3 1.0000 0.8378 0.4208);stop-opacity:1;"/>
<stop offset="1" stop-color="#FFA469" style="stop-color:#FFA469;stop-color:color(display-p3 1.0000 0.6431 0.4118);stop-opacity:1;"/>
</linearGradient>
<linearGradient id="paint6_linear_389_12338" x1="41.0151" y1="22.7873" x2="41.0156" y2="60.2565" gradientUnits="userSpaceOnUse">
<stop stop-color="#FFD66B" style="stop-color:#FFD66B;stop-color:color(display-p3 1.0000 0.8378 0.4208);stop-opacity:1;"/>
<stop offset="1" stop-color="#FFA469" style="stop-color:#FFA469;stop-color:color(display-p3 1.0000 0.6431 0.4118);stop-opacity:1;"/>
</linearGradient>
<linearGradient id="paint7_linear_389_12338" x1="41.0151" y1="22.7873" x2="41.0156" y2="60.2565" gradientUnits="userSpaceOnUse">
<stop stop-color="#FFD66B" style="stop-color:#FFD66B;stop-color:color(display-p3 1.0000 0.8378 0.4208);stop-opacity:1;"/>
<stop offset="1" stop-color="#FFA469" style="stop-color:#FFA469;stop-color:color(display-p3 1.0000 0.6431 0.4118);stop-opacity:1;"/>
</linearGradient>
<linearGradient id="paint8_linear_389_12338" x1="41.0151" y1="22.7873" x2="41.0156" y2="60.2565" gradientUnits="userSpaceOnUse">
<stop stop-color="#FFD66B" style="stop-color:#FFD66B;stop-color:color(display-p3 1.0000 0.8378 0.4208);stop-opacity:1;"/>
<stop offset="1" stop-color="#FFA469" style="stop-color:#FFA469;stop-color:color(display-p3 1.0000 0.6431 0.4118);stop-opacity:1;"/>
</linearGradient>
<linearGradient id="paint9_linear_389_12338" x1="41.0151" y1="22.7873" x2="41.0156" y2="60.2565" gradientUnits="userSpaceOnUse">
<stop stop-color="#FFD66B" style="stop-color:#FFD66B;stop-color:color(display-p3 1.0000 0.8378 0.4208);stop-opacity:1;"/>
<stop offset="1" stop-color="#FFA469" style="stop-color:#FFA469;stop-color:color(display-p3 1.0000 0.6431 0.4118);stop-opacity:1;"/>
</linearGradient>
<clipPath id="clip0_389_12338">
<rect width="60" height="70" rx="10" fill="white" style="fill:white;fill-opacity:1;"/>
</clipPath>
</defs>
</svg>
