<svg width="60" height="70" viewBox="0 0 60 70" fill="none" xmlns="http://www.w3.org/2000/svg">
<rect x="1.25" y="1.25" width="57.5" height="67.5" rx="8.75" fill="#F3F0F0" style="fill:#F3F0F0;fill:color(display-p3 0.9529 0.9412 0.9412);fill-opacity:1;"/>
<rect x="1.25" y="1.25" width="57.5" height="67.5" rx="8.75" stroke="#F3F0F0" style="stroke:#F3F0F0;stroke:color(display-p3 0.9529 0.9412 0.9412);stroke-opacity:1;" stroke-width="2.5"/>
<circle cx="30" cy="23.75" r="16.25" fill="#D9D9D9" style="fill:#D9D9D9;fill:color(display-p3 0.8510 0.8510 0.8510);fill-opacity:1;"/>
<circle cx="30" cy="23.75" r="16.25" fill="white" style="fill:white;fill-opacity:1;"/>
<circle cx="30" cy="23.75" r="16.25" fill="url(#paint0_linear_389_12545)" style=""/>
<path d="M46.25 23.75C46.25 32.7246 38.9746 40 30 40C21.0254 40 13.75 32.7246 13.75 23.75C13.75 14.7754 21.0254 7.5 30 7.5C38.9746 7.5 46.25 14.7754 46.25 23.75ZM17.0443 23.75C17.0443 30.9052 22.8448 36.7057 30 36.7057C37.1552 36.7057 42.9557 30.9052 42.9557 23.75C42.9557 16.5948 37.1552 10.7943 30 10.7943C22.8448 10.7943 17.0443 16.5948 17.0443 23.75Z" fill="#D9D9D9" style="fill:#D9D9D9;fill:color(display-p3 0.8510 0.8510 0.8510);fill-opacity:1;"/>
<path d="M46.25 23.75C46.25 32.7246 38.9746 40 30 40C21.0254 40 13.75 32.7246 13.75 23.75C13.75 14.7754 21.0254 7.5 30 7.5C38.9746 7.5 46.25 14.7754 46.25 23.75ZM17.0443 23.75C17.0443 30.9052 22.8448 36.7057 30 36.7057C37.1552 36.7057 42.9557 30.9052 42.9557 23.75C42.9557 16.5948 37.1552 10.7943 30 10.7943C22.8448 10.7943 17.0443 16.5948 17.0443 23.75Z" fill="url(#paint1_linear_389_12545)" style=""/>
<path d="M27.939 32.1531C27.2486 32.1536 26.6884 31.5943 26.688 30.9039L26.6782 16.5976C26.6777 15.9073 27.2369 15.3473 27.9272 15.3468L31.5832 15.3438C33.5627 15.3421 35.0047 15.7803 35.909 16.6583C36.8276 17.5364 37.2875 18.7443 37.2885 20.2821C37.2892 21.1923 37.1033 22.0476 36.7308 22.8482C36.3584 23.6488 35.7349 24.2927 34.8602 24.7799C33.9999 25.2671 32.8238 25.5113 31.3319 25.5125L31.1832 25.5126C30.4929 25.5132 29.9337 26.0732 29.9342 26.7635L29.937 30.9016C29.9375 31.5919 29.3783 32.1519 28.688 32.1525L27.939 32.1531ZM26.1075 29.636C25.477 29.6365 24.9654 29.1257 24.965 28.4952C24.9645 27.8647 25.4752 27.3533 26.1056 27.3528L32.1064 27.3478C32.737 27.3473 33.2485 27.8581 33.249 28.4887C33.2494 29.1191 32.7387 29.6305 32.1083 29.6311L26.1075 29.636ZM26.2131 25.5167C25.5227 25.5173 24.9625 24.958 24.9621 24.2675L24.9618 23.8488C24.9613 23.1585 25.5205 22.5985 26.2108 22.5979L30.0152 22.5948C30.7056 22.5943 31.2658 23.1535 31.2662 23.844L31.2665 24.2627C31.267 24.953 30.7078 25.513 30.0175 25.5136L26.2131 25.5167ZM31.0072 22.594C31.624 22.5935 32.1547 22.5225 32.5993 22.3809C33.0439 22.2236 33.388 21.9801 33.6316 21.6503C33.8752 21.3206 33.9969 20.9047 33.9965 20.4025C33.996 19.6807 33.7877 19.1473 33.3714 18.8024C32.9552 18.4418 32.3024 18.2619 31.413 18.2626L31.1782 18.2628C30.4879 18.2634 29.9288 18.8234 29.9292 19.5137L29.9306 21.5191C29.931 22.1132 30.413 22.5945 31.0072 22.594Z" fill="#46474E" style="fill:#46474E;fill:color(display-p3 0.2745 0.2784 0.3059);fill-opacity:1;"/>
<path d="M27.939 32.1531C27.2486 32.1536 26.6884 31.5943 26.688 30.9039L26.6782 16.5976C26.6777 15.9073 27.2369 15.3473 27.9272 15.3468L31.5832 15.3438C33.5627 15.3421 35.0047 15.7803 35.909 16.6583C36.8276 17.5364 37.2875 18.7443 37.2885 20.2821C37.2892 21.1923 37.1033 22.0476 36.7308 22.8482C36.3584 23.6488 35.7349 24.2927 34.8602 24.7799C33.9999 25.2671 32.8238 25.5113 31.3319 25.5125L31.1832 25.5126C30.4929 25.5132 29.9337 26.0732 29.9342 26.7635L29.937 30.9016C29.9375 31.5919 29.3783 32.1519 28.688 32.1525L27.939 32.1531ZM26.1075 29.636C25.477 29.6365 24.9654 29.1257 24.965 28.4952C24.9645 27.8647 25.4752 27.3533 26.1056 27.3528L32.1064 27.3478C32.737 27.3473 33.2485 27.8581 33.249 28.4887C33.2494 29.1191 32.7387 29.6305 32.1083 29.6311L26.1075 29.636ZM26.2131 25.5167C25.5227 25.5173 24.9625 24.958 24.9621 24.2675L24.9618 23.8488C24.9613 23.1585 25.5205 22.5985 26.2108 22.5979L30.0152 22.5948C30.7056 22.5943 31.2658 23.1535 31.2662 23.844L31.2665 24.2627C31.267 24.953 30.7078 25.513 30.0175 25.5136L26.2131 25.5167ZM31.0072 22.594C31.624 22.5935 32.1547 22.5225 32.5993 22.3809C33.0439 22.2236 33.388 21.9801 33.6316 21.6503C33.8752 21.3206 33.9969 20.9047 33.9965 20.4025C33.996 19.6807 33.7877 19.1473 33.3714 18.8024C32.9552 18.4418 32.3024 18.2619 31.413 18.2626L31.1782 18.2628C30.4879 18.2634 29.9288 18.8234 29.9292 19.5137L29.9306 21.5191C29.931 22.1132 30.413 22.5945 31.0072 22.594Z" fill="url(#paint2_linear_389_12545)" style=""/>
<rect x="8.75" y="52.5" width="8.75" height="8.75" rx="3.75" fill="#B9BABD" style="fill:#B9BABD;fill:color(display-p3 0.7255 0.7294 0.7412);fill-opacity:1;"/>
<rect x="20" y="50" width="8.75" height="11.25" rx="3.75" fill="#8F8F92" style="fill:#8F8F92;fill:color(display-p3 0.5608 0.5608 0.5725);fill-opacity:1;"/>
<rect x="31.25" y="46.25" width="8.75" height="15" rx="3.75" fill="#FFA469" style="fill:#FFA469;fill:color(display-p3 1.0000 0.6431 0.4118);fill-opacity:1;"/>
<rect x="42.5" y="41.25" width="8.75" height="20" rx="3.75" fill="#FFD66B" style="fill:#FFD66B;fill:color(display-p3 1.0000 0.8378 0.4208);fill-opacity:1;"/>
<rect x="42.5" y="41.25" width="8.75" height="20" rx="3.75" fill="url(#paint3_linear_389_12545)" style=""/>
<defs>
<linearGradient id="paint0_linear_389_12545" x1="29.4397" y1="9.30131" x2="39.5795" y2="36.1739" gradientUnits="userSpaceOnUse">
<stop stop-color="#4F5058" style="stop-color:#4F5058;stop-color:color(display-p3 0.3098 0.3137 0.3451);stop-opacity:1;"/>
<stop offset="1" stop-color="#C27B4C" style="stop-color:#C27B4C;stop-color:color(display-p3 0.7592 0.4808 0.2983);stop-opacity:1;"/>
</linearGradient>
<linearGradient id="paint1_linear_389_12545" x1="30.1789" y1="7.48738" x2="30.1437" y2="39.9874" gradientUnits="userSpaceOnUse">
<stop stop-color="#FFD66B" style="stop-color:#FFD66B;stop-color:color(display-p3 1.0000 0.8392 0.4196);stop-opacity:1;"/>
<stop offset="1" stop-color="#FFA469" style="stop-color:#FFA469;stop-color:color(display-p3 1.0000 0.6431 0.4118);stop-opacity:1;"/>
</linearGradient>
<linearGradient id="paint2_linear_389_12545" x1="31.1922" y1="16.0148" x2="31.1928" y2="32.3693" gradientUnits="userSpaceOnUse">
<stop stop-color="#FFD66B" style="stop-color:#FFD66B;stop-color:color(display-p3 1.0000 0.8392 0.4196);stop-opacity:1;"/>
<stop offset="1" stop-color="#FFA469" style="stop-color:#FFA469;stop-color:color(display-p3 1.0000 0.6431 0.4118);stop-opacity:1;"/>
</linearGradient>
<linearGradient id="paint3_linear_389_12545" x1="46.9232" y1="41.2422" x2="46.8737" y2="61.2421" gradientUnits="userSpaceOnUse">
<stop stop-color="#FFD66B" style="stop-color:#FFD66B;stop-color:color(display-p3 1.0000 0.8392 0.4196);stop-opacity:1;"/>
<stop offset="1" stop-color="#FFA469" style="stop-color:#FFA469;stop-color:color(display-p3 1.0000 0.6431 0.4118);stop-opacity:1;"/>
</linearGradient>
</defs>
</svg>
