<svg width="60" height="70" viewBox="0 0 60 70" fill="none" xmlns="http://www.w3.org/2000/svg">
<rect width="60" height="70" rx="10" fill="#F3F0F0" style="fill:#F3F0F0;fill:color(display-p3 0.9529 0.9412 0.9412);fill-opacity:1;"/>
<rect x="10" y="52.5" width="17.5" height="7.5" rx="2.5" fill="#B9BABD" style="fill:#B9BABD;fill:color(display-p3 0.7255 0.7294 0.7412);fill-opacity:1;"/>
<rect x="50" y="60" width="17.5" height="7.5" rx="2.5" transform="rotate(-180 50 60)" fill="#B9BABD" style="fill:#B9BABD;fill:color(display-p3 0.7255 0.7294 0.7412);fill-opacity:1;"/>
<rect x="9.375" y="51.875" width="8.75" height="8.75" rx="3.125" fill="#E7E5E6" style="fill:#E7E5E6;fill:color(display-p3 0.9059 0.8980 0.9020);fill-opacity:1;"/>
<rect x="9.375" y="51.875" width="8.75" height="8.75" rx="3.125" fill="url(#paint0_linear_389_12424)" style=""/>
<rect x="9.375" y="51.875" width="8.75" height="8.75" rx="3.125" stroke="#585960" style="stroke:#585960;stroke:color(display-p3 0.3451 0.3490 0.3765);stroke-opacity:1;" stroke-width="1.25"/>
<rect x="50.625" y="60.625" width="8.75" height="8.75" rx="3.125" transform="rotate(-180 50.625 60.625)" fill="#E7E5E6" style="fill:#E7E5E6;fill:color(display-p3 0.9059 0.8980 0.9020);fill-opacity:1;"/>
<rect x="50.625" y="60.625" width="8.75" height="8.75" rx="3.125" transform="rotate(-180 50.625 60.625)" fill="#8F8F92" style="fill:#8F8F92;fill:color(display-p3 0.5608 0.5608 0.5725);fill-opacity:1;"/>
<rect x="50.625" y="60.625" width="8.75" height="8.75" rx="3.125" transform="rotate(-180 50.625 60.625)" stroke="#585960" style="stroke:#585960;stroke:color(display-p3 0.3451 0.3490 0.3765);stroke-opacity:1;" stroke-width="1.25"/>
<path d="M30.0043 45.1101C39.0416 45.1101 46.3679 37.7838 46.3679 28.7465C46.3679 19.7091 39.0416 12.3828 30.0043 12.3828C20.9669 12.3828 13.6406 19.7091 13.6406 28.7465C13.6406 37.7838 20.9669 45.1101 30.0043 45.1101Z" fill="url(#paint1_linear_389_12424)" stroke="#585960" style="stroke:#585960;stroke:color(display-p3 0.3451 0.3490 0.3765);stroke-opacity:1;" stroke-width="1.25" stroke-linecap="round" stroke-linejoin="round"/>
<rect x="28.1289" y="14.375" width="3.75" height="11.25" rx="1.875" fill="#585960" style="fill:#585960;fill:color(display-p3 0.3451 0.3490 0.3765);fill-opacity:1;"/>
<rect x="28.1289" y="14.375" width="3.75" height="11.25" rx="1.875" fill="url(#paint2_linear_389_12424)" style=""/>
<rect x="28.1289" y="14.375" width="3.75" height="11.25" rx="1.875" stroke="#585960" style="stroke:#585960;stroke:color(display-p3 0.3451 0.3490 0.3765);stroke-opacity:1;" stroke-width="1.25"/>
<path d="M30 48.75C41.0457 48.75 50 39.7957 50 28.75C50 17.7043 41.0457 8.75 30 8.75C18.9543 8.75 10 17.7043 10 28.75C10 39.7957 18.9543 48.75 30 48.75Z" stroke="#8F8F92" style="stroke:#8F8F92;stroke:color(display-p3 0.5608 0.5608 0.5725);stroke-opacity:1;" stroke-width="3.75" stroke-miterlimit="10" stroke-linejoin="round" stroke-dasharray="1.25 7.5"/>
<defs>
<linearGradient id="paint0_linear_389_12424" x1="13.7911" y1="52.7994" x2="13.7913" y2="60.096" gradientUnits="userSpaceOnUse">
<stop stop-color="#FFD66B" style="stop-color:#FFD66B;stop-color:color(display-p3 1.0000 0.8378 0.4208);stop-opacity:1;"/>
<stop offset="1" stop-color="#FFA469" style="stop-color:#FFA469;stop-color:color(display-p3 1.0000 0.6431 0.4118);stop-opacity:1;"/>
</linearGradient>
<linearGradient id="paint1_linear_389_12424" x1="30.0043" y1="12.3828" x2="30.0043" y2="45.1101" gradientUnits="userSpaceOnUse">
<stop stop-color="#B9BABD" style="stop-color:#B9BABD;stop-color:color(display-p3 0.7255 0.7294 0.7412);stop-opacity:1;"/>
<stop offset="1" stop-color="#46474E" style="stop-color:#46474E;stop-color:color(display-p3 0.2745 0.2784 0.3059);stop-opacity:1;"/>
</linearGradient>
<linearGradient id="paint2_linear_389_12424" x1="30.0176" y1="15.3992" x2="30.0187" y2="25.128" gradientUnits="userSpaceOnUse">
<stop stop-color="#FFD66B" style="stop-color:#FFD66B;stop-color:color(display-p3 1.0000 0.8378 0.4208);stop-opacity:1;"/>
<stop offset="1" stop-color="#FFA469" style="stop-color:#FFA469;stop-color:color(display-p3 1.0000 0.6431 0.4118);stop-opacity:1;"/>
</linearGradient>
</defs>
</svg>
