<svg width="60" height="70" viewBox="0 0 60 70" fill="none" xmlns="http://www.w3.org/2000/svg">
<rect x="1.25" y="1.25" width="57.5" height="67.5" rx="8.75" fill="#F3F0F0" style="fill:#F3F0F0;fill:color(display-p3 0.9529 0.9412 0.9412);fill-opacity:1;"/>
<rect x="1.25" y="1.25" width="57.5" height="67.5" rx="8.75" stroke="#F3F0F0" style="stroke:#F3F0F0;stroke:color(display-p3 0.9529 0.9412 0.9412);stroke-opacity:1;" stroke-width="2.5"/>
<rect x="28.75" y="5" width="3.75" height="1.25" rx="0.625" fill="#8F8F92" style="fill:#8F8F92;fill:color(display-p3 0.5608 0.5608 0.5725);fill-opacity:1;"/>
<rect x="17.5" y="5" width="6.25" height="1.25" rx="0.625" fill="#8F8F92" style="fill:#8F8F92;fill:color(display-p3 0.5608 0.5608 0.5725);fill-opacity:1;"/>
<rect x="37.5" y="5" width="6.25" height="1.25" rx="0.625" fill="#8F8F92" style="fill:#8F8F92;fill:color(display-p3 0.5608 0.5608 0.5725);fill-opacity:1;"/>
<rect x="33.75" y="5" width="2.5" height="1.25" rx="0.625" fill="#FFA469" style="fill:#FFA469;fill:color(display-p3 1.0000 0.6431 0.4118);fill-opacity:1;"/>
<rect x="25" y="5" width="2.5" height="1.25" rx="0.625" fill="#FFA469" style="fill:#FFA469;fill:color(display-p3 1.0000 0.6431 0.4118);fill-opacity:1;"/>
<g clip-path="url(#clip0_389_12361)">
<path d="M19.4944 55.732L15.6567 62.7835C15.4882 63.093 15.5725 63.4787 15.8549 63.6887C16.1577 63.9158 16.5869 63.866 16.8288 63.5752L22.2053 57.1457L19.4944 55.7305V55.732Z" fill="#585960" stroke="#585960" style="fill:#585960;fill:color(display-p3 0.3451 0.3490 0.3765);fill-opacity:1;stroke:#585960;stroke:color(display-p3 0.3451 0.3490 0.3765);stroke-opacity:1;" stroke-width="0.265352" stroke-linecap="round" stroke-linejoin="round"/>
<path d="M40.6093 55.732L44.447 62.7835C44.6155 63.093 44.5312 63.4787 44.2488 63.6887C43.946 63.9158 43.5168 63.866 43.2749 63.5752L37.8984 57.1457L40.6093 55.7305V55.732Z" fill="#585960" stroke="#585960" style="fill:#585960;fill:color(display-p3 0.3451 0.3490 0.3765);fill-opacity:1;stroke:#585960;stroke:color(display-p3 0.3451 0.3490 0.3765);stroke-opacity:1;" stroke-width="0.265352" stroke-linecap="round" stroke-linejoin="round"/>
<path d="M30.0033 59.4976C43.4735 59.4976 54.3933 48.6157 54.3933 35.1922C54.3933 21.7686 43.4735 10.8867 30.0033 10.8867C16.5331 10.8867 5.61328 21.7686 5.61328 35.1922C5.61328 48.6157 16.5331 59.4976 30.0033 59.4976Z" fill="url(#paint0_linear_389_12361)" style=""/>
<path d="M43.8653 49.0073C51.5221 41.377 51.5221 29.0058 43.8653 21.3755C36.2084 13.7452 23.7942 13.7452 16.1374 21.3755C8.48054 29.0058 8.48054 41.377 16.1374 49.0073C23.7942 56.6376 36.2084 56.6376 43.8653 49.0073Z" fill="white" stroke="#585960" style="fill:white;fill-opacity:1;stroke:#585960;stroke:color(display-p3 0.3451 0.3490 0.3765);stroke-opacity:1;" stroke-width="0.265352" stroke-miterlimit="10"/>
<path d="M46.3605 25.3378C48.0998 28.2248 49.0388 31.523 49.0806 34.8933C49.1225 38.2635 48.2658 41.5841 46.5987 44.5134C44.9315 47.4427 42.5141 49.875 39.5951 51.5601C36.6761 53.2453 33.3609 54.1224 29.9905 54.1013L30.1094 35.1289L46.3605 25.3378Z" fill="#FCCD82" style="fill:#FCCD82;fill:color(display-p3 0.9882 0.8039 0.5098);fill-opacity:1;"/>
<path d="M46.3605 25.3378C48.0998 28.2248 49.0388 31.523 49.0806 34.8933C49.1225 38.2635 48.2658 41.5841 46.5987 44.5134C44.9315 47.4427 42.5141 49.875 39.5951 51.5601C36.6761 53.2453 33.3609 54.1224 29.9905 54.1013L30.1094 35.1289L46.3605 25.3378Z" fill="url(#paint1_linear_389_12361)" style=""/>
<path d="M30.8496 35.1836C30.8496 34.7154 30.4688 34.3359 29.999 34.3359C29.5292 34.3359 29.1484 34.7154 29.1484 35.1836C29.1484 35.6517 29.5292 36.0312 29.999 36.0312C30.4688 36.0312 30.8496 35.6517 30.8496 35.1836Z" fill="#585960" stroke="#585960" style="fill:#585960;fill:color(display-p3 0.3451 0.3490 0.3765);fill-opacity:1;stroke:#585960;stroke:color(display-p3 0.3451 0.3490 0.3765);stroke-opacity:1;" stroke-width="0.265352" stroke-miterlimit="10"/>
<path d="M31.368 35.8509L30.6985 36.5181L22.6501 28.8165C22.558 28.7216 22.5596 28.5723 22.6532 28.4805C22.7469 28.3872 22.8967 28.3872 22.9904 28.4774L31.368 35.8493V35.8509Z" fill="#585960" stroke="#585960" style="fill:#585960;fill:color(display-p3 0.3451 0.3490 0.3765);fill-opacity:1;stroke:#585960;stroke:color(display-p3 0.3451 0.3490 0.3765);stroke-opacity:1;" stroke-width="0.265352" stroke-miterlimit="10"/>
<path d="M30.6617 33.8281L31.3312 34.4953L18.7741 46.6807C18.6805 46.7725 18.5291 46.7709 18.437 46.6792C18.345 46.5874 18.3434 46.4365 18.4355 46.3432L30.6632 33.8297L30.6617 33.8281Z" fill="#585960" stroke="#585960" style="fill:#585960;fill:color(display-p3 0.3451 0.3490 0.3765);fill-opacity:1;stroke:#585960;stroke:color(display-p3 0.3451 0.3490 0.3765);stroke-opacity:1;" stroke-width="0.265352" stroke-miterlimit="10"/>
<path d="M29.5391 33.4209L29.7794 33.3711L33.2597 50.5348C33.2597 50.5348 33.2566 50.5504 33.2488 50.5519C33.2488 50.5519 33.2331 50.5488 33.2316 50.5411L29.5391 33.4224V33.4209Z" fill="#585960" style="fill:#585960;fill:color(display-p3 0.3451 0.3490 0.3765);fill-opacity:1;"/>
<path d="M30.4022 16.6484H29.6094V17.8631H30.4022V16.6484Z" fill="#585960" style="fill:#585960;fill:color(display-p3 0.3451 0.3490 0.3765);fill-opacity:1;"/>
<path d="M48.6017 34.8047H47.3828V35.5948H48.6017V34.8047Z" fill="#585960" style="fill:#585960;fill:color(display-p3 0.3451 0.3490 0.3765);fill-opacity:1;"/>
<path d="M30.4022 52.5391H29.6094V53.7537H30.4022V52.5391Z" fill="#585960" style="fill:#585960;fill:color(display-p3 0.3451 0.3490 0.3765);fill-opacity:1;"/>
<path d="M12.6173 34.8047H11.3984V35.5948H12.6173V34.8047Z" fill="#585960" style="fill:#585960;fill:color(display-p3 0.3451 0.3490 0.3765);fill-opacity:1;"/>
<path d="M13.7969 26.0586L14.8581 26.6574" stroke="#585960" style="stroke:#585960;stroke:color(display-p3 0.3451 0.3490 0.3765);stroke-opacity:1;" stroke-width="1.06141" stroke-miterlimit="10"/>
<path d="M39.1477 19.0469L38.5469 20.1044" stroke="#585960" style="stroke:#585960;stroke:color(display-p3 0.3451 0.3490 0.3765);stroke-opacity:1;" stroke-width="1.06141" stroke-miterlimit="10"/>
<path d="M46.1862 44.3019L45.125 43.7031" stroke="#585960" style="stroke:#585960;stroke:color(display-p3 0.3451 0.3490 0.3765);stroke-opacity:1;" stroke-width="1.06141" stroke-miterlimit="10"/>
<path d="M20.8281 51.3154L21.429 50.2578" stroke="#585960" style="stroke:#585960;stroke:color(display-p3 0.3451 0.3490 0.3765);stroke-opacity:1;" stroke-width="1.06141" stroke-miterlimit="10"/>
<path d="M20.4805 19.2656L21.1047 20.3092" stroke="#585960" style="stroke:#585960;stroke:color(display-p3 0.3451 0.3490 0.3765);stroke-opacity:1;" stroke-width="1.06141" stroke-miterlimit="10"/>
<path d="M45.9769 25.7031L44.9297 26.3252" stroke="#585960" style="stroke:#585960;stroke:color(display-p3 0.3451 0.3490 0.3765);stroke-opacity:1;" stroke-width="1.06141" stroke-miterlimit="10"/>
<path d="M39.5266 51.0983L38.9023 50.0547" stroke="#585960" style="stroke:#585960;stroke:color(display-p3 0.3451 0.3490 0.3765);stroke-opacity:1;" stroke-width="1.06141" stroke-miterlimit="10"/>
<path d="M14.0195 44.6924L15.0667 44.0703" stroke="#585960" style="stroke:#585960;stroke:color(display-p3 0.3451 0.3490 0.3765);stroke-opacity:1;" stroke-width="1.06141" stroke-miterlimit="10"/>
<path d="M28.9822 22.347V19.4262C28.965 19.4511 28.9323 19.476 28.8839 19.4993C28.8339 19.5242 28.7809 19.546 28.7216 19.5647C28.6623 19.5833 28.6092 19.6004 28.5608 19.616C28.5124 19.6315 28.4812 19.6393 28.4688 19.6424V19.3998C28.5078 19.3889 28.553 19.3734 28.6045 19.3532C28.656 19.3329 28.7091 19.3065 28.7606 19.2738C28.8121 19.2412 28.8636 19.2038 28.9135 19.1634C28.9635 19.123 29.0072 19.0763 29.0446 19.0234H29.2881V22.3455H28.9838L28.9822 22.347Z" fill="#585960" style="fill:#585960;fill:color(display-p3 0.3451 0.3490 0.3765);fill-opacity:1;"/>
<path d="M30 22.3554V22.1377L30.8974 20.7629C30.9629 20.6618 31.0254 20.5638 31.0831 20.4689C31.1408 20.374 31.1877 20.2761 31.2251 20.1719C31.2626 20.0677 31.2813 19.951 31.2813 19.8188C31.2813 19.6415 31.2454 19.5016 31.1721 19.4005C31.0987 19.2994 30.9879 19.248 30.8365 19.248C30.6992 19.248 30.5946 19.2776 30.5213 19.3382C30.4479 19.3989 30.398 19.4813 30.3683 19.5871C30.3387 19.6928 30.3246 19.811 30.3246 19.9417V20.0148H30.0234V19.9324C30.0234 19.7271 30.0515 19.556 30.1061 19.4176C30.1607 19.2792 30.2466 19.1749 30.3636 19.1034C30.4807 19.0319 30.6336 18.9961 30.8225 18.9961C31.0753 18.9961 31.2641 19.0707 31.3905 19.2201C31.517 19.3694 31.5794 19.5762 31.5794 19.8422C31.5794 19.9759 31.5607 20.0988 31.5216 20.2107C31.4826 20.3227 31.4342 20.43 31.3734 20.5327C31.3125 20.6353 31.2501 20.738 31.1845 20.8422L30.3496 22.0973H31.5107V22.3523H30V22.3554Z" fill="#585960" style="fill:#585960;fill:color(display-p3 0.3451 0.3490 0.3765);fill-opacity:1;"/>
<path d="M38.201 24.4759V21.5552C38.1838 21.58 38.151 21.6049 38.1026 21.6282C38.0527 21.6531 37.9996 21.6749 37.9403 21.6936C37.881 21.7122 37.828 21.7293 37.7796 21.7449C37.7312 21.7604 37.7 21.7682 37.6875 21.7713V21.5287C37.7265 21.5178 37.7718 21.5023 37.8233 21.4821C37.8748 21.4618 37.9278 21.4354 37.9793 21.4027C38.0308 21.3701 38.0823 21.3328 38.1323 21.2923C38.1822 21.2519 38.2259 21.2052 38.2634 21.1523H38.5068V24.4744H38.2025L38.201 24.4759Z" fill="#585960" style="fill:#585960;fill:color(display-p3 0.3451 0.3490 0.3765);fill-opacity:1;"/>
<path d="M42.6641 29.5898V29.3721L43.5614 27.9972C43.627 27.8961 43.6894 27.7982 43.7472 27.7033C43.8049 27.6084 43.8517 27.5104 43.8892 27.4062C43.9266 27.302 43.9454 27.1854 43.9454 27.0532C43.9454 26.8759 43.9095 26.7359 43.8361 26.6348C43.7628 26.5337 43.652 26.4824 43.5006 26.4824C43.3632 26.4824 43.2587 26.512 43.1853 26.5726C43.112 26.6333 43.062 26.7157 43.0324 26.8215C43.0027 26.9272 42.9887 27.0454 42.9887 27.1761V27.2492H42.6875V27.1667C42.6875 26.9614 42.7156 26.7904 42.7702 26.6519C42.8248 26.5135 42.9106 26.4093 43.0277 26.3378C43.1447 26.2662 43.2977 26.2305 43.4865 26.2305C43.7394 26.2305 43.9282 26.3051 44.0546 26.4544C44.181 26.6037 44.2435 26.8106 44.2435 27.0765C44.2435 27.2103 44.2247 27.3331 44.1857 27.4451C44.1467 27.5571 44.0983 27.6644 44.0374 27.7671C43.9766 27.8697 43.9142 27.9723 43.8486 28.0765L43.0137 29.3316H44.1748V29.5867H42.6641V29.5898Z" fill="#585960" style="fill:#585960;fill:color(display-p3 0.3451 0.3490 0.3765);fill-opacity:1;"/>
<path d="M46.0304 36.5428C45.8571 36.5428 45.7167 36.5101 45.6059 36.4448C45.4966 36.3795 45.4155 36.2861 45.3655 36.1633C45.3156 36.042 45.2891 35.8989 45.2891 35.734V35.6516H45.5778V35.7216C45.5809 35.8398 45.5965 35.9409 45.6246 36.0264C45.6543 36.1119 45.7011 36.1788 45.7666 36.2255C45.8322 36.2721 45.9196 36.2955 46.0304 36.2955C46.1349 36.2955 46.2239 36.2721 46.2957 36.2286C46.3675 36.185 46.4237 36.1088 46.4596 36.0046C46.497 35.9004 46.5157 35.7651 46.5157 35.5987C46.5157 35.3934 46.4783 35.2255 46.4049 35.0964C46.33 34.9657 46.2021 34.8989 46.0179 34.8926H45.9352V34.6049H46.0179C46.1958 34.6049 46.3238 34.5551 46.4003 34.4556C46.4767 34.3561 46.5157 34.1943 46.5157 33.9735C46.5157 33.8008 46.483 33.6609 46.419 33.5505C46.355 33.4416 46.2364 33.3856 46.0631 33.3856C45.8899 33.3856 45.7744 33.4323 45.6995 33.5271C45.6246 33.622 45.584 33.7666 45.5778 33.9641V34.0217H45.2891V33.9439C45.2891 33.7791 45.314 33.6391 45.3655 33.5193C45.417 33.4011 45.4998 33.3078 45.6152 33.2425C45.7307 33.1772 45.879 33.1445 46.06 33.1445C46.2411 33.1445 46.38 33.1803 46.4923 33.2518C46.6047 33.3234 46.6874 33.4214 46.742 33.5458C46.7951 33.6702 46.8216 33.8133 46.8216 33.975C46.8216 34.2068 46.7779 34.3872 46.6905 34.5147C46.6031 34.6422 46.4892 34.7216 46.3488 34.7542C46.4315 34.776 46.5079 34.8195 46.5797 34.8849C46.6515 34.9502 46.7093 35.0419 46.7545 35.157C46.7998 35.2737 46.8232 35.4183 46.8232 35.5941C46.8232 35.7807 46.7967 35.9455 46.7452 36.0886C46.6937 36.2317 46.6078 36.3437 46.4923 36.423C46.3753 36.5023 46.2223 36.5428 46.0335 36.5428H46.0304Z" fill="#585960" style="fill:#585960;fill:color(display-p3 0.3451 0.3490 0.3765);fill-opacity:1;"/>
<path d="M44.009 43.7908V42.8187H43.0039V42.5155L43.9512 40.4688H44.3055V42.5481H44.6879V42.8187H44.3055V43.7908H44.009ZM43.3098 42.5481H44.009V40.8669L43.3098 42.5481Z" fill="#585960" style="fill:#585960;fill:color(display-p3 0.3451 0.3490 0.3765);fill-opacity:1;"/>
<path d="M38.3273 49.5328C38.1493 49.5328 38.0058 49.4986 37.8965 49.4301C37.7888 49.3617 37.7092 49.2606 37.6593 49.1268C37.6093 48.9931 37.5859 48.8298 37.5859 48.6385H37.8871C37.8871 48.7723 37.8996 48.8889 37.9262 48.9869C37.9527 49.0849 37.9995 49.1611 38.0666 49.2139C38.1337 49.2668 38.2258 49.2933 38.3397 49.2933C38.4662 49.2933 38.5614 49.2606 38.6285 49.1953C38.694 49.13 38.7393 49.0335 38.7642 48.9076C38.7892 48.7816 38.8017 48.6276 38.8017 48.4441C38.8017 48.2419 38.7876 48.0802 38.758 47.9604C38.7299 47.8407 38.6815 47.7536 38.6144 47.6991C38.5473 47.6463 38.4568 47.6198 38.3444 47.6198C38.2586 47.6198 38.179 47.6431 38.1056 47.6898C38.0323 47.7365 37.9667 47.8049 37.9121 47.8951H37.6609V46.1719H38.9578L38.9531 46.4549H37.9277L37.9106 47.6074C37.9605 47.5467 38.026 47.4954 38.1103 47.4518C38.1946 47.4083 38.2976 47.3865 38.4209 47.3865C38.5863 47.3865 38.7174 47.427 38.8189 47.5094C38.9187 47.5918 38.9905 47.7085 39.0342 47.8593C39.0779 48.0117 39.0998 48.1937 39.0998 48.4068C39.0998 48.5872 39.0857 48.7474 39.0592 48.8873C39.0311 49.0273 38.9874 49.144 38.925 49.2404C38.8626 49.3368 38.783 49.4084 38.6862 49.4581C38.5894 49.5079 38.4693 49.5328 38.3257 49.5328H38.3273Z" fill="#585960" style="fill:#585960;fill:color(display-p3 0.3451 0.3490 0.3765);fill-opacity:1;"/>
<path d="M30.0311 51.3459C29.847 51.3459 29.6987 51.3039 29.5863 51.2215C29.474 51.1375 29.3913 51.0177 29.3398 50.8622C29.2882 50.7067 29.2617 50.52 29.2617 50.3039V48.9788C29.2617 48.7735 29.2867 48.5946 29.3351 48.4391C29.385 48.2852 29.4646 48.1638 29.5785 48.0783C29.6909 47.9928 29.8407 47.9492 30.028 47.9492C30.195 47.9492 30.3339 47.9772 30.4431 48.0348C30.5524 48.0923 30.6367 48.1778 30.6928 48.2914C30.749 48.4049 30.7771 48.5464 30.7771 48.716C30.7771 48.7206 30.7771 48.7331 30.7787 48.7502C30.7787 48.7673 30.7802 48.7797 30.7802 48.7844H30.479C30.479 48.5713 30.4447 48.4189 30.3776 48.3287C30.3105 48.2385 30.1966 48.1934 30.0342 48.1934C29.9437 48.1934 29.8626 48.2167 29.7892 48.2618C29.7159 48.3069 29.6597 48.3816 29.6207 48.4858C29.5817 48.59 29.5614 48.73 29.5614 48.9088V49.5402C29.6113 49.4905 29.6831 49.4454 29.7767 49.4049C29.8719 49.3645 29.9781 49.3427 30.0951 49.3427C30.2793 49.3427 30.4229 49.3769 30.5274 49.4454C30.632 49.5138 30.7053 49.6211 30.749 49.7657C30.7927 49.9104 30.8146 50.1001 30.8146 50.3319C30.8146 50.534 30.788 50.7113 30.7365 50.8653C30.685 51.0193 30.6008 51.1375 30.4853 51.2199C30.3698 51.3039 30.2184 51.3443 30.028 51.3443L30.0311 51.3459ZM30.0311 51.0955C30.1404 51.0955 30.2309 51.0722 30.3011 51.0239C30.3713 50.9757 30.4244 50.8995 30.4603 50.7969C30.4962 50.6927 30.5134 50.5574 30.5134 50.391C30.5134 50.2106 30.5024 50.0597 30.4822 49.9399C30.4619 49.8202 30.4182 49.73 30.3511 49.6693C30.284 49.6087 30.1778 49.5791 30.0327 49.5791C29.9671 49.5791 29.9031 49.59 29.8438 49.6102C29.783 49.6304 29.7284 49.6553 29.6784 49.6849C29.6285 49.7129 29.591 49.7424 29.5629 49.7689V50.3427C29.5629 50.52 29.5801 50.6662 29.6129 50.7782C29.6456 50.8902 29.6971 50.9711 29.7674 51.0224C29.8376 51.0737 29.9266 51.0986 30.0327 51.0986L30.0311 51.0955Z" fill="#585960" style="fill:#585960;fill:color(display-p3 0.3451 0.3490 0.3765);fill-opacity:1;"/>
<path d="M22.1386 49.4954L22.7894 46.4145H21.7812V46.1719H23.0984V46.3196L22.432 49.4939H22.1402L22.1386 49.4954Z" fill="#585960" style="fill:#585960;fill:color(display-p3 0.3451 0.3490 0.3765);fill-opacity:1;"/>
<path d="M16.353 43.7951C16.161 43.7951 16.0081 43.7562 15.8941 43.68C15.7802 43.6038 15.6975 43.4949 15.6444 43.3534C15.5929 43.2119 15.5664 43.0486 15.5664 42.8635C15.5664 42.7189 15.5805 42.5976 15.6101 42.5011C15.6382 42.4047 15.6772 42.3238 15.724 42.2616C15.7709 42.1994 15.8224 42.1481 15.8801 42.1092C15.9378 42.0703 15.994 42.0377 16.0487 42.0112C15.9144 41.9568 15.8052 41.865 15.724 41.7391C15.6413 41.6115 15.6007 41.4436 15.6007 41.2321C15.6007 41.0703 15.6257 40.9272 15.6741 40.8012C15.724 40.6753 15.8036 40.5773 15.9144 40.5058C16.0252 40.4342 16.1719 40.3984 16.353 40.3984C16.534 40.3984 16.6792 40.4342 16.7868 40.5073C16.8945 40.5804 16.9741 40.6784 17.0241 40.8044C17.074 40.9303 17.099 41.075 17.099 41.2398C17.099 41.4498 17.0584 41.6178 16.9772 41.7406C16.8961 41.8635 16.7884 41.9537 16.6542 42.0112C16.7088 42.0392 16.765 42.0719 16.8212 42.1092C16.8774 42.1481 16.9289 42.1979 16.9757 42.2616C17.0225 42.3254 17.06 42.4047 17.0912 42.5011C17.1208 42.5976 17.1364 42.7189 17.1364 42.8635C17.1364 43.0501 17.1099 43.2134 17.0584 43.3534C17.0069 43.4934 16.9226 43.6023 16.8087 43.68C16.6948 43.7562 16.5434 43.7951 16.3545 43.7951H16.353ZM16.353 43.5572C16.4622 43.5572 16.5527 43.5323 16.6245 43.4809C16.6963 43.4296 16.7494 43.3534 16.7853 43.2508C16.8212 43.1481 16.8383 43.019 16.8383 42.8635C16.8383 42.7266 16.8227 42.6069 16.7915 42.5042C16.7603 42.4016 16.7088 42.3192 16.6386 42.2554C16.5684 42.1932 16.4732 42.1574 16.353 42.1481C16.2328 42.1559 16.136 42.1916 16.0627 42.2554C15.9893 42.3176 15.9378 42.4016 15.9066 42.5042C15.8754 42.6069 15.8598 42.7266 15.8598 42.8635C15.8598 43.019 15.8785 43.1481 15.916 43.2508C15.9534 43.3534 16.0081 43.4296 16.0799 43.4809C16.1532 43.5307 16.2437 43.5572 16.353 43.5572ZM16.353 41.8759C16.4685 41.8713 16.5574 41.8386 16.623 41.7811C16.687 41.7235 16.7338 41.6473 16.7603 41.5509C16.7884 41.456 16.8009 41.3471 16.8009 41.2274C16.8009 41.0361 16.765 40.8899 16.6932 40.7904C16.6214 40.6908 16.5075 40.6411 16.3514 40.6411C16.1954 40.6411 16.0767 40.6908 16.0034 40.7904C15.93 40.8899 15.8941 41.0361 15.8941 41.2274C15.8941 41.3471 15.9082 41.456 15.9347 41.5509C15.9628 41.6473 16.0096 41.7235 16.0767 41.7811C16.1439 41.8386 16.2359 41.8697 16.3499 41.8759H16.353Z" fill="#585960" style="fill:#585960;fill:color(display-p3 0.3451 0.3490 0.3765);fill-opacity:1;"/>
<path d="M14.1225 36.5428C13.9555 36.5428 13.815 36.5148 13.7027 36.4572C13.5903 36.3997 13.506 36.3126 13.4498 36.1959C13.3937 36.0793 13.364 35.9362 13.3609 35.7667V35.7045H13.6574C13.6574 35.9144 13.6917 36.0653 13.7589 36.1555C13.826 36.2457 13.9493 36.2908 14.1272 36.2908C14.2208 36.2908 14.3004 36.269 14.3675 36.2255C14.4346 36.1819 14.4861 36.1073 14.522 36.0015C14.5579 35.8958 14.5751 35.7542 14.5751 35.5769V34.9486C14.5345 34.9984 14.469 35.0435 14.38 35.0839C14.291 35.1244 14.1771 35.1461 14.0398 35.1461C13.8556 35.1461 13.712 35.1119 13.6075 35.0419C13.5029 34.9719 13.4296 34.8646 13.3859 34.7184C13.3422 34.5723 13.3203 34.3841 13.3203 34.1539C13.3203 33.9486 13.3468 33.7713 13.3999 33.6204C13.453 33.4696 13.5388 33.3529 13.6559 33.269C13.7729 33.185 13.9258 33.1445 14.1147 33.1445C14.3035 33.1445 14.4424 33.1865 14.5548 33.269C14.6672 33.3529 14.7499 33.4711 14.8014 33.6251C14.8529 33.7791 14.8794 33.9641 14.8794 34.1803V35.5054C14.8794 35.7076 14.8544 35.8864 14.8061 36.0435C14.7561 36.199 14.6781 36.3204 14.5688 36.409C14.4612 36.4961 14.3113 36.5396 14.1225 36.5396V36.5428ZM14.11 34.9144C14.2286 34.9144 14.3254 34.8926 14.4019 34.8506C14.4783 34.8086 14.5361 34.7651 14.5751 34.7216V34.1508C14.5751 33.9704 14.5595 33.8242 14.5283 33.7138C14.4971 33.6033 14.4471 33.5225 14.3784 33.4711C14.3098 33.4198 14.2224 33.3949 14.1147 33.3949C14.007 33.3949 13.918 33.4198 13.8447 33.4711C13.7713 33.5225 13.7183 33.5987 13.6824 33.7029C13.6465 33.8071 13.6293 33.9377 13.6293 34.0963C13.6293 34.2799 13.6402 34.4307 13.6605 34.552C13.6808 34.6718 13.7261 34.762 13.7948 34.8226C13.8634 34.8833 13.9695 34.9128 14.1116 34.9128L14.11 34.9144Z" fill="#585960" style="fill:#585960;fill:color(display-p3 0.3451 0.3490 0.3765);fill-opacity:1;"/>
<path d="M15.8963 29.5501V26.6294C15.8791 26.6543 15.8463 26.6791 15.7979 26.7025C15.748 26.7274 15.6949 26.7491 15.6356 26.7678C15.5763 26.7865 15.5233 26.8036 15.4749 26.8191C15.4265 26.8347 15.3953 26.8424 15.3828 26.8456V26.6029C15.4218 26.592 15.4671 26.5765 15.5186 26.5563C15.5701 26.5361 15.6232 26.5096 15.6747 26.477C15.7262 26.4443 15.7777 26.407 15.8276 26.3665C15.8775 26.3261 15.9212 26.2794 15.9587 26.2266H16.2022V29.5486H15.8978L15.8963 29.5501Z" fill="#585960" style="fill:#585960;fill:color(display-p3 0.3451 0.3490 0.3765);fill-opacity:1;"/>
<path d="M17.7741 29.5904C17.5759 29.5904 17.4198 29.5484 17.3043 29.4629C17.1888 29.3774 17.1061 29.2623 17.0577 29.1145C17.0078 28.9668 16.9844 28.7988 16.9844 28.6106V27.1673C16.9844 26.976 17.0093 26.8065 17.0608 26.6603C17.1108 26.5141 17.1951 26.399 17.3121 26.3182C17.4292 26.2357 17.5837 26.1953 17.7756 26.1953C17.9676 26.1953 18.1299 26.2357 18.2454 26.3182C18.3609 26.4006 18.4436 26.5141 18.4951 26.6603C18.545 26.8065 18.5716 26.976 18.5716 27.1673V28.6106C18.5716 28.8019 18.5466 28.9714 18.4967 29.1192C18.4467 29.2669 18.3656 29.382 18.2501 29.466C18.1346 29.55 17.977 29.5904 17.7772 29.5904H17.7741ZM17.7741 29.3525C17.9036 29.3525 18.0019 29.3198 18.0722 29.256C18.1424 29.1923 18.1923 29.1052 18.2204 28.9979C18.2485 28.8906 18.2641 28.7692 18.2641 28.6355V27.1471C18.2641 27.0134 18.2501 26.8921 18.2204 26.7848C18.1923 26.6774 18.1424 26.5919 18.0737 26.5281C18.005 26.4659 17.9052 26.4333 17.7725 26.4333C17.6399 26.4333 17.5478 26.4644 17.4775 26.5281C17.4073 26.5919 17.3574 26.6759 17.3293 26.7848C17.3012 26.8921 17.2856 27.0134 17.2856 27.1471V28.6355C17.2856 28.7692 17.2996 28.8906 17.3293 28.9979C17.3589 29.1052 17.4089 29.1923 17.4791 29.256C17.5509 29.3198 17.6477 29.3525 17.7709 29.3525H17.7741Z" fill="#585960" style="fill:#585960;fill:color(display-p3 0.3451 0.3490 0.3765);fill-opacity:1;"/>
<path d="M21.9705 24.4564V21.5356C21.9533 21.5605 21.9205 21.5854 21.8722 21.6087C21.8222 21.6336 21.7692 21.6554 21.7099 21.674C21.6506 21.6927 21.5975 21.7098 21.5491 21.7254C21.5007 21.7409 21.4695 21.7487 21.457 21.7518V21.5092C21.496 21.4983 21.5413 21.4827 21.5928 21.4625C21.6443 21.4423 21.6974 21.4159 21.7489 21.3832C21.8004 21.3505 21.8519 21.3132 21.9018 21.2728C21.9518 21.2323 21.9955 21.1857 22.0329 21.1328H22.2764V24.4548H21.972L21.9705 24.4564Z" fill="#585960" style="fill:#585960;fill:color(display-p3 0.3451 0.3490 0.3765);fill-opacity:1;"/>
<path d="M23.4783 24.4564V21.5356C23.4611 21.5605 23.4284 21.5854 23.38 21.6087C23.33 21.6336 23.277 21.6554 23.2177 21.674C23.1584 21.6927 23.1053 21.7098 23.0569 21.7254C23.0085 21.7409 22.9773 21.7487 22.9648 21.7518V21.5092C23.0039 21.4983 23.0491 21.4827 23.1006 21.4625C23.1521 21.4423 23.2052 21.4159 23.2567 21.3832C23.3082 21.3505 23.3597 21.3132 23.4096 21.2728C23.4596 21.2323 23.5033 21.1857 23.5407 21.1328H23.7842V24.4548H23.4799L23.4783 24.4564Z" fill="#585960" style="fill:#585960;fill:color(display-p3 0.3451 0.3490 0.3765);fill-opacity:1;"/>
</g>
<defs>
<linearGradient id="paint0_linear_389_12361" x1="30.2703" y1="12.8271" x2="30.2716" y2="60.1199" gradientUnits="userSpaceOnUse">
<stop stop-color="#FFD66B" style="stop-color:#FFD66B;stop-color:color(display-p3 1.0000 0.8378 0.4208);stop-opacity:1;"/>
<stop offset="1" stop-color="#FFA469" style="stop-color:#FFA469;stop-color:color(display-p3 1.0000 0.6431 0.4118);stop-opacity:1;"/>
</linearGradient>
<linearGradient id="paint1_linear_389_12361" x1="29.9767" y1="35.2616" x2="46.6942" y2="44.2831" gradientUnits="userSpaceOnUse">
<stop stop-color="#FFD66B" style="stop-color:#FFD66B;stop-color:color(display-p3 1.0000 0.8378 0.4208);stop-opacity:1;"/>
<stop offset="1" stop-color="#FFA469" style="stop-color:#FFA469;stop-color:color(display-p3 1.0000 0.6431 0.4118);stop-opacity:1;"/>
</linearGradient>
<clipPath id="clip0_389_12361">
<rect width="50" height="55" fill="white" style="fill:white;fill-opacity:1;" transform="translate(5 10)"/>
</clipPath>
</defs>
</svg>
