<svg width="60" height="70" viewBox="0 0 60 70" fill="none" xmlns="http://www.w3.org/2000/svg">
<g clip-path="url(#clip0_389_12437)">
<rect width="60" height="70" rx="10" fill="#F3F0F0" style="fill:#F3F0F0;fill:color(display-p3 0.9529 0.9412 0.9412);fill-opacity:1;"/>
<path d="M49.8828 23.0938H19.7891V34.9528H49.8828V23.0938Z" fill="white" style="fill:white;fill-opacity:1;"/>
<path d="M51.1411 21.043H-43.3672V23.5204H51.1411V21.043Z" fill="#65666D" style="fill:#65666D;fill:color(display-p3 0.3961 0.4000 0.4275);fill-opacity:1;"/>
<path d="M50.7066 34.4023H-43.3672V36.8798H50.7066V34.4023Z" fill="#65666D" style="fill:#65666D;fill:color(display-p3 0.3961 0.4000 0.4275);fill-opacity:1;"/>
<path d="M19.791 21.6289L19.6501 36.4116H-43.3672V21.6289H19.791Z" fill="#65666D" style="fill:#65666D;fill:color(display-p3 0.3961 0.4000 0.4275);fill-opacity:1;"/>
<path d="M4.48047 29.0033C4.48047 31.0346 6.00688 32.6784 7.88554 32.6784C9.7642 32.6784 11.2906 31.0346 11.2906 29.0033C11.2906 26.972 9.7642 25.3281 7.88554 25.3281C6.00688 25.3281 4.48047 26.972 4.48047 29.0033Z" fill="#585960" style="fill:#585960;fill:color(display-p3 0.3451 0.3490 0.3765);fill-opacity:1;"/>
<path d="M3.94922 29.0043C3.94922 26.6794 5.71046 24.8008 7.88266 24.8008C10.0549 24.8008 11.8161 26.6912 11.8161 29.0043C11.8161 31.3174 10.0549 33.2078 7.88266 33.2078C5.71046 33.2078 3.94922 31.3174 3.94922 29.0043ZM5.00596 29.0043C5.00596 30.742 6.29754 32.151 7.88266 32.151C9.46778 32.151 10.7594 30.742 10.7594 29.0043C10.7594 27.2665 9.46778 25.8575 7.88266 25.8575C6.29754 25.8575 5.00596 27.2665 5.00596 29.0043Z" fill="white" style="fill:white;fill-opacity:1;"/>
<path d="M22.0586 32.0279C22.0586 32.1805 28.2464 32.2979 35.8667 32.2979C43.487 32.2979 49.6749 32.1688 49.6749 32.0279C49.6749 31.887 43.4988 31.7578 35.8667 31.7578C28.2464 31.7578 22.0586 31.887 22.0586 32.0279Z" fill="#65666D" style="fill:#65666D;fill:color(display-p3 0.3961 0.4000 0.4275);fill-opacity:1;"/>
<path d="M22.0586 29.9576C22.0586 30.1102 28.2464 30.2276 35.8667 30.2276C43.487 30.2276 49.6749 30.0985 49.6749 29.9576C49.6749 29.8167 43.4988 29.6875 35.8667 29.6875C28.2347 29.6875 22.0586 29.8049 22.0586 29.9576Z" fill="#65666D" style="fill:#65666D;fill:color(display-p3 0.3961 0.4000 0.4275);fill-opacity:1;"/>
<path d="M22.0586 27.8951C22.0586 28.0477 28.2464 28.1651 35.8667 28.1651C43.487 28.1651 49.6749 28.036 49.6749 27.8951C49.6749 27.7542 43.4988 27.625 35.8667 27.625C28.2347 27.625 22.0586 27.7542 22.0586 27.8951Z" fill="#65666D" style="fill:#65666D;fill:color(display-p3 0.3961 0.4000 0.4275);fill-opacity:1;"/>
<path d="M22.0586 25.8326C22.0586 25.9852 28.2464 26.1026 35.8667 26.1026C43.487 26.1026 49.6749 25.9735 49.6749 25.8326C49.6749 25.6917 43.4988 25.5625 35.8667 25.5625C28.2347 25.5625 22.0586 25.6917 22.0586 25.8326Z" fill="#65666D" style="fill:#65666D;fill:color(display-p3 0.3961 0.4000 0.4275);fill-opacity:1;"/>
<path d="M53.7344 54.3438H23.6406V66.2028H53.7344V54.3438Z" fill="white" style="fill:white;fill-opacity:1;"/>
<path d="M54.9966 52.293H-39.5117V54.7704H54.9966V52.293Z" fill="#FFD66B" style="fill:#FFD66B;fill:color(display-p3 1.0000 0.8378 0.4208);fill-opacity:1;"/>
<path d="M54.5621 65.6523H-39.5117V68.1298H54.5621V65.6523Z" fill="#FFD66B" style="fill:#FFD66B;fill:color(display-p3 1.0000 0.8378 0.4208);fill-opacity:1;"/>
<path d="M23.6464 52.8789L23.5055 67.6616H-39.5117V52.8789H23.6464Z" fill="#FFD66B" style="fill:#FFD66B;fill:color(display-p3 1.0000 0.8378 0.4208);fill-opacity:1;"/>
<path d="M8.33203 60.2533C8.33203 62.2846 9.85844 63.9284 11.7371 63.9284C13.6158 63.9284 15.1422 62.2846 15.1422 60.2533C15.1422 58.222 13.6158 56.5781 11.7371 56.5781C9.85844 56.5781 8.33203 58.222 8.33203 60.2533Z" fill="#585960" style="fill:#585960;fill:color(display-p3 0.3451 0.3490 0.3765);fill-opacity:1;"/>
<path d="M7.80078 60.2543C7.80078 57.9294 9.56202 56.0508 11.7342 56.0508C13.9064 56.0508 15.6677 57.9412 15.6677 60.2543C15.6677 62.5674 13.9064 64.4578 11.7342 64.4578C9.56202 64.4578 7.80078 62.5674 7.80078 60.2543ZM8.85752 60.2543C8.85752 61.992 10.1491 63.401 11.7342 63.401C13.3193 63.401 14.6109 61.992 14.6109 60.2543C14.6109 58.5165 13.3193 57.1075 11.7342 57.1075C10.1491 57.1075 8.85752 58.5165 8.85752 60.2543Z" fill="white" style="fill:white;fill-opacity:1;"/>
<path d="M25.9141 63.2779C25.9141 63.4305 32.1019 63.5479 39.7222 63.5479C47.3425 63.5479 53.5303 63.4188 53.5303 63.2779C53.5303 63.137 47.3543 63.0078 39.7222 63.0078C32.1019 63.0078 25.9141 63.137 25.9141 63.2779Z" fill="#FFD66B" style="fill:#FFD66B;fill:color(display-p3 1.0000 0.8378 0.4208);fill-opacity:1;"/>
<path d="M25.9141 61.2076C25.9141 61.3602 32.1019 61.4776 39.7222 61.4776C47.3425 61.4776 53.5303 61.3485 53.5303 61.2076C53.5303 61.0667 47.3543 60.9375 39.7222 60.9375C32.0902 60.9375 25.9141 61.0549 25.9141 61.2076Z" fill="#FFD66B" style="fill:#FFD66B;fill:color(display-p3 1.0000 0.8378 0.4208);fill-opacity:1;"/>
<path d="M25.9141 59.1451C25.9141 59.2977 32.1019 59.4151 39.7222 59.4151C47.3425 59.4151 53.5303 59.286 53.5303 59.1451C53.5303 59.0042 47.3543 58.875 39.7222 58.875C32.0902 58.875 25.9141 59.0042 25.9141 59.1451Z" fill="#FFD66B" style="fill:#FFD66B;fill:color(display-p3 1.0000 0.8378 0.4208);fill-opacity:1;"/>
<path d="M25.9141 57.0826C25.9141 57.2352 32.1019 57.3526 39.7222 57.3526C47.3425 57.3526 53.5303 57.2235 53.5303 57.0826C53.5303 56.9417 47.3543 56.8125 39.7222 56.8125C32.0902 56.8125 25.9141 56.9417 25.9141 57.0826Z" fill="#FFD66B" style="fill:#FFD66B;fill:color(display-p3 1.0000 0.8378 0.4208);fill-opacity:1;"/>
<path d="M44.5 38.4883H14.4062V50.3473H44.5V38.4883Z" fill="white" style="fill:white;fill-opacity:1;"/>
<path d="M45.7583 36.4375H-48.75V38.915H45.7583V36.4375Z" fill="#FFA469" style="fill:#FFA469;fill:color(display-p3 1.0000 0.6431 0.4118);fill-opacity:1;"/>
<path d="M45.3238 49.7969H-48.75V52.2743H45.3238V49.7969Z" fill="#FFA469" style="fill:#FFA469;fill:color(display-p3 1.0000 0.6431 0.4118);fill-opacity:1;"/>
<path d="M14.4082 37.043L14.2673 51.8139H-48.75V37.043H14.4082Z" fill="#FFA469" style="fill:#FFA469;fill:color(display-p3 1.0000 0.6431 0.4118);fill-opacity:1;"/>
<path d="M-0.914062 44.4134C-0.914062 46.4447 0.612349 48.0885 2.49101 48.0885C4.36967 48.0885 5.89608 46.4447 5.89608 44.4134C5.89608 42.3821 4.36967 40.7383 2.49101 40.7383C0.612349 40.7383 -0.914062 42.3821 -0.914062 44.4134Z" fill="#585960" style="fill:#585960;fill:color(display-p3 0.3451 0.3490 0.3765);fill-opacity:1;"/>
<path d="M-1.44531 44.4145C-1.44531 42.0896 0.315928 40.2109 2.48813 40.2109C4.66033 40.2109 6.42157 42.1014 6.42157 44.4145C6.42157 46.7276 4.66033 48.6179 2.48813 48.6179C0.315928 48.6179 -1.44531 46.7276 -1.44531 44.4145ZM-0.38857 44.4145C-0.38857 46.1522 0.903009 47.5612 2.48813 47.5612C4.07325 47.5612 5.36482 46.1522 5.36482 44.4145C5.36482 42.6767 4.07325 41.2677 2.48813 41.2677C0.903009 41.2677 -0.38857 42.6767 -0.38857 44.4145Z" fill="white" style="fill:white;fill-opacity:1;"/>
<path d="M16.6758 47.4185C16.6758 47.5711 22.8636 47.6885 30.4839 47.6885C38.1042 47.6885 44.2921 47.5594 44.2921 47.4185C44.2921 47.2776 38.116 47.1484 30.4839 47.1484C22.8519 47.1484 16.6758 47.2776 16.6758 47.4185Z" fill="#8F8F92" style="fill:#8F8F92;fill:color(display-p3 0.5608 0.5608 0.5725);fill-opacity:1;"/>
<path d="M16.6758 45.3716C16.6758 45.5243 22.8636 45.6417 30.4839 45.6417C38.1042 45.6417 44.2921 45.5125 44.2921 45.3716C44.2921 45.2307 38.116 45.1016 30.4839 45.1016C22.8519 45.1016 16.6758 45.2307 16.6758 45.3716Z" fill="#8F8F92" style="fill:#8F8F92;fill:color(display-p3 0.5608 0.5608 0.5725);fill-opacity:1;"/>
<path d="M16.6758 43.2896C16.6758 43.4422 22.8636 43.5597 30.4839 43.5597C38.1042 43.5597 44.2921 43.4305 44.2921 43.2896C44.2921 43.1487 38.116 43.0195 30.4839 43.0195C22.8519 43.0195 16.6758 43.1487 16.6758 43.2896Z" fill="#8F8F92" style="fill:#8F8F92;fill:color(display-p3 0.5608 0.5608 0.5725);fill-opacity:1;"/>
<path d="M16.6758 41.231C16.6758 41.3836 22.8636 41.501 30.4839 41.501C38.1042 41.501 44.2921 41.3719 44.2921 41.231C44.2921 41.0901 38.116 40.9609 30.4839 40.9609C22.8519 40.9609 16.6758 41.0901 16.6758 41.231Z" fill="#8F8F92" style="fill:#8F8F92;fill:color(display-p3 0.5608 0.5608 0.5725);fill-opacity:1;"/>
<path d="M33.0234 28.6927H26.9818C26.0547 28.6927 24.8672 28.2031 24.2214 27.5469L19.9505 23.276C19.2943 22.6198 18.8047 21.4323 18.8047 20.5156V14.474C18.8047 13.5469 19.2943 12.3594 19.9505 11.7136L24.2214 7.44271C24.8776 6.78646 26.0651 6.29688 26.9818 6.29688H33.0234C33.9505 6.29688 35.138 6.78646 35.7839 7.44271L40.0547 11.7136C40.7109 12.3698 41.2005 13.5573 41.2005 14.474V20.5156C41.2005 21.4427 40.7109 22.6302 40.0547 23.276L35.7839 27.5469C35.1276 28.2031 33.9505 28.6927 33.0234 28.6927Z" fill="#FF6D3F" style="fill:#FF6D3F;fill:color(display-p3 1.0000 0.4291 0.2489);fill-opacity:1;"/>
<path d="M33.0234 28.6927H26.9818C26.0547 28.6927 24.8672 28.2031 24.2214 27.5469L19.9505 23.276C19.2943 22.6198 18.8047 21.4323 18.8047 20.5156V14.474C18.8047 13.5469 19.2943 12.3594 19.9505 11.7136L24.2214 7.44271C24.8776 6.78646 26.0651 6.29688 26.9818 6.29688H33.0234C33.9505 6.29688 35.138 6.78646 35.7839 7.44271L40.0547 11.7136C40.7109 12.3698 41.2005 13.5573 41.2005 14.474V20.5156C41.2005 21.4427 40.7109 22.6302 40.0547 23.276L35.7839 27.5469C35.1276 28.2031 33.9505 28.6927 33.0234 28.6927Z" fill="url(#paint0_linear_389_12437)" style=""/>
<path d="M33.0234 28.6927H26.9818C26.0547 28.6927 24.8672 28.2031 24.2214 27.5469L19.9505 23.276C19.2943 22.6198 18.8047 21.4323 18.8047 20.5156V14.474C18.8047 13.5469 19.2943 12.3594 19.9505 11.7136L24.2214 7.44271C24.8776 6.78646 26.0651 6.29688 26.9818 6.29688H33.0234C33.9505 6.29688 35.138 6.78646 35.7839 7.44271L40.0547 11.7136C40.7109 12.3698 41.2005 13.5573 41.2005 14.474V20.5156C41.2005 21.4427 40.7109 22.6302 40.0547 23.276L35.7839 27.5469C35.1276 28.2031 33.9505 28.6927 33.0234 28.6927Z" fill="url(#paint1_linear_389_12437)" style=""/>
<path d="M33.0234 28.6927H26.9818C26.0547 28.6927 24.8672 28.2031 24.2214 27.5469L19.9505 23.276C19.2943 22.6198 18.8047 21.4323 18.8047 20.5156V14.474C18.8047 13.5469 19.2943 12.3594 19.9505 11.7136L24.2214 7.44271C24.8776 6.78646 26.0651 6.29688 26.9818 6.29688H33.0234C33.9505 6.29688 35.138 6.78646 35.7839 7.44271L40.0547 11.7136C40.7109 12.3698 41.2005 13.5573 41.2005 14.474V20.5156C41.2005 21.4427 40.7109 22.6302 40.0547 23.276L35.7839 27.5469C35.1276 28.2031 33.9505 28.6927 33.0234 28.6927Z" fill="url(#paint2_linear_389_12437)" style=""/>
<path d="M26.349 21.9297C26.151 21.9297 25.9531 21.8568 25.7969 21.7005C25.4948 21.3984 25.4948 20.8984 25.7969 20.5964L33.0885 13.3047C33.3906 13.0026 33.8906 13.0026 34.1927 13.3047C34.4948 13.6068 34.4948 14.1068 34.1927 14.4089L26.901 21.7005C26.7448 21.8568 26.5469 21.9297 26.349 21.9297Z" fill="white" style="fill:white;fill-opacity:1;"/>
<path d="M26.349 21.9297C26.151 21.9297 25.9531 21.8568 25.7969 21.7005C25.4948 21.3984 25.4948 20.8984 25.7969 20.5964L33.0885 13.3047C33.3906 13.0026 33.8906 13.0026 34.1927 13.3047C34.4948 13.6068 34.4948 14.1068 34.1927 14.4089L26.901 21.7005C26.7448 21.8568 26.5469 21.9297 26.349 21.9297Z" fill="url(#paint3_linear_389_12437)" style=""/>
<path d="M33.6406 21.9297C33.4427 21.9297 33.2448 21.8568 33.0885 21.7005L25.7969 14.4089C25.4948 14.1068 25.4948 13.6068 25.7969 13.3047C26.099 13.0026 26.599 13.0026 26.901 13.3047L34.1927 20.5964C34.4948 20.8984 34.4948 21.3984 34.1927 21.7005C34.0365 21.8568 33.8385 21.9297 33.6406 21.9297Z" fill="white" style="fill:white;fill-opacity:1;"/>
<path d="M33.6406 21.9297C33.4427 21.9297 33.2448 21.8568 33.0885 21.7005L25.7969 14.4089C25.4948 14.1068 25.4948 13.6068 25.7969 13.3047C26.099 13.0026 26.599 13.0026 26.901 13.3047L34.1927 20.5964C34.4948 20.8984 34.4948 21.3984 34.1927 21.7005C34.0365 21.8568 33.8385 21.9297 33.6406 21.9297Z" fill="url(#paint4_linear_389_12437)" style=""/>
</g>
<rect x="1.25" y="1.25" width="57.5" height="67.5" rx="8.75" stroke="#F3F0F0" style="stroke:#F3F0F0;stroke:color(display-p3 0.9529 0.9412 0.9412);stroke-opacity:1;" stroke-width="2.5"/>
<defs>
<linearGradient id="paint0_linear_389_12437" x1="30.0026" y1="6.29687" x2="30.0026" y2="28.6927" gradientUnits="userSpaceOnUse">
<stop stop-color="#FFA469" style="stop-color:#FFA469;stop-color:color(display-p3 1.0000 0.6431 0.4118);stop-opacity:1;"/>
<stop offset="1" stop-color="#FF6D3F" style="stop-color:#FF6D3F;stop-color:color(display-p3 1.0000 0.4275 0.2471);stop-opacity:1;"/>
</linearGradient>
<linearGradient id="paint1_linear_389_12437" x1="30.0026" y1="6.29687" x2="30.0026" y2="28.6927" gradientUnits="userSpaceOnUse">
<stop stop-color="#FFA469" style="stop-color:#FFA469;stop-color:color(display-p3 1.0000 0.6431 0.4118);stop-opacity:1;"/>
<stop offset="0.615" stop-color="#FF6D3F" style="stop-color:#FF6D3F;stop-color:color(display-p3 1.0000 0.4275 0.2471);stop-opacity:1;"/>
</linearGradient>
<linearGradient id="paint2_linear_389_12437" x1="29.9243" y1="6.03646" x2="29.9249" y2="28.9531" gradientUnits="userSpaceOnUse">
<stop stop-color="#FFD66B" style="stop-color:#FFD66B;stop-color:color(display-p3 1.0000 0.8378 0.4208);stop-opacity:1;"/>
<stop offset="1" stop-color="#FFA469" style="stop-color:#FFA469;stop-color:color(display-p3 1.0000 0.6431 0.4118);stop-opacity:1;"/>
</linearGradient>
<linearGradient id="paint3_linear_389_12437" x1="30.9704" y1="13.3933" x2="32.9446" y2="21.1056" gradientUnits="userSpaceOnUse">
<stop stop-color="#4F5058" style="stop-color:#4F5058;stop-color:color(display-p3 0.3098 0.3137 0.3451);stop-opacity:1;"/>
<stop offset="1" stop-color="#C27B4C" style="stop-color:#C27B4C;stop-color:color(display-p3 0.7592 0.4808 0.2983);stop-opacity:1;"/>
</linearGradient>
<linearGradient id="paint4_linear_389_12437" x1="30.9704" y1="13.3933" x2="32.9446" y2="21.1056" gradientUnits="userSpaceOnUse">
<stop stop-color="#4F5058" style="stop-color:#4F5058;stop-color:color(display-p3 0.3098 0.3137 0.3451);stop-opacity:1;"/>
<stop offset="1" stop-color="#C27B4C" style="stop-color:#C27B4C;stop-color:color(display-p3 0.7592 0.4808 0.2983);stop-opacity:1;"/>
</linearGradient>
<clipPath id="clip0_389_12437">
<rect width="60" height="70" rx="10" fill="white" style="fill:white;fill-opacity:1;"/>
</clipPath>
</defs>
</svg>
