<svg width="60" height="70" viewBox="0 0 60 70" fill="none" xmlns="http://www.w3.org/2000/svg">
<g clip-path="url(#clip0_389_12513)">
<rect width="60" height="70" rx="10" fill="#F3F0F0" style="fill:#F3F0F0;fill:color(display-p3 0.9529 0.9412 0.9412);fill-opacity:1;"/>
<path d="M29.5257 25.8638C27.9074 25.8638 26.5938 24.5502 26.5938 22.9319C26.5938 21.3136 27.9074 20 29.5257 20C31.144 20 32.4576 21.3136 32.4576 22.9319C32.4576 24.5502 31.144 25.8638 29.5257 25.8638ZM29.5257 21.4279C28.6975 21.4279 28.0216 22.1037 28.0216 22.9319C28.0216 23.7601 28.6975 24.4359 29.5257 24.4359C30.3539 24.4359 31.0298 23.7601 31.0298 22.9319C31.0298 22.1037 30.3539 21.4279 29.5257 21.4279Z" fill="#585960" style="fill:#585960;fill:color(display-p3 0.3451 0.3490 0.3765);fill-opacity:1;"/>
<path d="M33.3293 31.2499C32.9391 31.2499 32.6154 30.9262 32.6154 30.5359C32.6154 29.2223 31.2256 28.1466 29.5216 28.1466C27.8177 28.1466 26.4279 29.2223 26.4279 30.5359C26.4279 30.9262 26.1042 31.2499 25.7139 31.2499C25.3237 31.2499 25 30.9262 25 30.5359C25 28.4322 27.0276 26.7188 29.5216 26.7188C32.0157 26.7188 34.0433 28.4322 34.0433 30.5359C34.0433 30.9262 33.7196 31.2499 33.3293 31.2499Z" fill="#585960" style="fill:#585960;fill:color(display-p3 0.3451 0.3490 0.3765);fill-opacity:1;"/>
<rect x="47.3203" y="20.9766" width="4.08473" height="1.36158" rx="0.680788" fill="#8F8F92" style="fill:#8F8F92;fill:color(display-p3 0.5608 0.5608 0.5725);fill-opacity:1;"/>
<rect x="37.7891" y="20.9766" width="6.80788" height="1.36158" rx="0.680788" fill="#8F8F92" style="fill:#8F8F92;fill:color(display-p3 0.5608 0.5608 0.5725);fill-opacity:1;"/>
<rect x="47.3203" y="25.0703" width="8.16945" height="1.36158" rx="0.680788" fill="#8F8F92" style="fill:#8F8F92;fill:color(display-p3 0.5608 0.5608 0.5725);fill-opacity:1;"/>
<rect x="47.3203" y="29.1406" width="6.80788" height="1.36158" rx="0.680788" fill="#8F8F92" style="fill:#8F8F92;fill:color(display-p3 0.5608 0.5608 0.5725);fill-opacity:1;"/>
<rect x="37.7891" y="25.0703" width="8.16945" height="1.36158" rx="0.680788" fill="#8F8F92" style="fill:#8F8F92;fill:color(display-p3 0.5608 0.5608 0.5725);fill-opacity:1;"/>
<rect x="37.7891" y="29.1406" width="5.4463" height="1.36158" rx="0.680788" fill="#8F8F92" style="fill:#8F8F92;fill:color(display-p3 0.5608 0.5608 0.5725);fill-opacity:1;"/>
<path d="M77.0978 38.3196L76.9925 63.0625C76.9899 63.402 76.693 63.6708 76.3252 63.6663L-22.3268 62.7363C-22.6945 62.7318 -22.9875 62.456 -22.9843 62.1199L-22.9795 60.7272C-18.8827 60.7665 -17.1921 57.7136 -14.4431 57.7398C-11.6941 57.7661 -10.0222 59.3158 -7.44926 59.3406C-4.87261 59.3648 -1.8757 53.412 0.942359 53.4398C1.42835 53.4428 1.85907 53.5062 2.24878 53.5997C3.37393 53.8682 4.2104 54.4328 5.27869 54.8467C6.00412 55.1256 6.83403 55.3412 7.93288 55.3518C11.2294 55.3836 15.9405 43.7496 19.7654 43.7859C20.4318 43.7935 21.0227 44.0442 21.5702 44.4525C24.1373 46.386 25.6032 51.8741 28.7884 51.9029C32.6512 51.9378 33.7573 45.994 37.5019 46.0304C41.2464 46.0667 43.2723 51.7566 47.6142 51.799C51.9599 51.8409 54.8249 40.5173 59.3317 40.5627C63.8341 40.6052 65.983 45.9432 69.8993 45.9781C74.1915 46.02 77.094 38.3201 77.094 38.3201L77.0978 38.3196Z" fill="#FCCD82" style="fill:#FCCD82;fill:color(display-p3 0.9882 0.8039 0.5098);fill-opacity:1;"/>
<path d="M67.8447 48.0967C67.7115 48.3786 67.5492 48.6911 67.3582 49.0051C67.0492 49.5131 66.6499 50.05 66.1563 50.4639C65.6606 50.8795 65.0338 51.1997 64.2882 51.1914C63.2314 51.1798 62.5229 50.875 61.8877 50.5116C61.716 50.4134 61.5581 50.317 61.4047 50.2235C60.9864 49.9683 60.6018 49.7337 60.0622 49.5365L60.0608 49.536C59.4935 49.3271 58.758 49.1684 57.6979 49.1561L57.6973 49.1561C57.0037 49.1474 56.3932 49.4149 55.7937 49.8992C55.1832 50.3924 54.6209 51.0802 54.0296 51.8579L54.0294 51.8582C53.917 52.0059 53.8034 52.1572 53.6882 52.3105C53.0794 53.121 52.4285 53.9874 51.6988 54.6723C50.8154 55.5014 49.7441 56.1374 48.3721 56.1221L48.3712 56.1221C46.5575 56.0994 45.0853 55.258 43.7547 54.3284C43.3952 54.0774 43.0518 53.825 42.7139 53.5767C42.0241 53.0696 41.3574 52.5796 40.6241 52.1537C39.5651 51.5387 38.4496 51.1144 37.1401 51.0999L37.1389 51.0999C35.9383 51.0844 34.6859 51.6897 33.3888 52.6639C32.2269 53.5396 31.1184 54.6387 30.0513 55.6968C29.7131 56.0321 29.3791 56.3633 29.0488 56.682C28.376 57.3312 27.7143 57.9315 27.0846 58.3695C26.4704 58.7968 25.7957 59.1359 25.1062 59.1283L25.1054 59.1283C24.2398 59.1178 23.4336 58.761 22.7107 58.3029C21.9878 57.8447 21.2872 57.2447 20.6366 56.6812C20.6012 56.6505 20.5659 56.6199 20.5308 56.5894C19.9046 56.0467 19.3265 55.5456 18.7626 55.1667C18.1633 54.7642 17.6649 54.5599 17.2333 54.5549C16.291 54.544 15.6681 55.0977 14.9277 55.8624C14.8902 55.9011 14.8522 55.9407 14.8136 55.9807C14.495 56.3116 14.1403 56.6798 13.7513 56.9647C13.2987 57.296 12.7529 57.552 12.0755 57.5446C10.9984 57.5327 10.3219 57.0466 9.74358 56.631C9.65412 56.5667 9.56701 56.5041 9.48112 56.4452C8.85359 56.0149 8.07333 55.578 6.4584 55.56C5.0773 55.5447 4.28256 56.1956 3.21723 57.068C3.12537 57.1432 3.03151 57.2201 2.93508 57.2983C1.72115 58.2831 0.237284 59.3268 -2.46173 59.2962C-5.12067 59.2661 -6.60385 58.4089 -7.97581 57.6051L-8.00326 57.5891C-9.31529 56.8203 -10.5147 56.1176 -12.7336 56.0918L-12.7336 56.0918C-14.9958 56.0653 -16.2355 56.6513 -17.3513 57.2588C-17.4527 57.314 -17.5541 57.3701 -17.6559 57.4265C-18.6987 58.0035 -19.7914 58.6082 -21.5102 58.5881L67.8447 48.0967ZM67.8447 48.0967L75.3144 59.3446L75.5071 59.6347L75.7836 59.6347C75.7812 59.6463 75.7784 59.6587 75.7752 59.672C75.6786 60.0739 75.3313 60.7347 74.7262 61.6145C73.5401 63.3388 71.5523 65.6407 69.3956 67.8938C67.2419 70.1437 64.9449 72.3187 63.1537 73.7903C62.2525 74.5308 61.5052 75.0715 60.9801 75.3591C60.8914 75.4077 60.8156 75.4453 60.752 75.4741L60.7221 75.3762L60.2321 75.3882L-0.599044 76.8783C-2.70253 76.5313 -5.67438 75.274 -9.00638 73.5196C-12.3484 71.7598 -15.9862 69.5363 -19.356 67.3401C-22.7244 65.1449 -25.8165 62.9825 -28.0652 61.3487C-29.1898 60.5315 -30.1008 59.8484 -30.7285 59.3609C-31.0432 59.1164 -31.2819 58.9248 -31.4392 58.7917C-31.4484 58.784 -31.4572 58.7765 -31.4656 58.7694L-31.4647 58.5663C-31.268 58.35 -30.8701 57.9423 -30.3372 57.5457C-29.5855 56.9864 -28.6442 56.5082 -27.6675 56.5206L-27.6664 56.5207C-26.7383 56.5308 -26.2098 56.8653 -25.4761 57.3297C-25.4139 57.3691 -25.3503 57.4094 -25.2847 57.4506C-24.4177 57.9947 -23.3694 58.5666 -21.5103 58.5881L67.8447 48.0967ZM37.1298 50.4775C39.573 50.5045 41.371 51.8254 43.1146 53.1062C43.4458 53.3495 43.775 53.5914 44.1063 53.8227L37.1298 50.4775ZM53.5248 51.4746C54.7078 49.9185 55.9263 48.5117 57.6879 48.5337C58.8112 48.5468 59.6202 48.7158 60.2648 48.9531C60.8697 49.1742 61.3279 49.4539 61.7609 49.7182C62.4826 50.1587 63.1342 50.5565 64.2779 50.5691L53.5248 51.4746ZM-31.4667 59.0336L-31.4667 59.0321L-31.4667 59.0336ZM75.932 59.6407C75.932 59.6407 75.9308 59.6405 75.9287 59.6398C75.9311 59.6403 75.9321 59.6407 75.932 59.6407Z" fill="url(#paint0_linear_389_12513)" style=""/>
<path d="M67.8447 48.0967C67.7115 48.3786 67.5492 48.6911 67.3582 49.0051C67.0492 49.5131 66.6499 50.05 66.1563 50.4639C65.6606 50.8795 65.0338 51.1997 64.2882 51.1914C63.2314 51.1798 62.5229 50.875 61.8877 50.5116C61.716 50.4134 61.5581 50.317 61.4047 50.2235C60.9864 49.9683 60.6018 49.7337 60.0622 49.5365L60.0608 49.536C59.4935 49.3271 58.758 49.1684 57.6979 49.1561L57.6973 49.1561C57.0037 49.1474 56.3932 49.4149 55.7937 49.8992C55.1832 50.3924 54.6209 51.0802 54.0296 51.8579L54.0294 51.8582C53.917 52.0059 53.8034 52.1572 53.6882 52.3105C53.0794 53.121 52.4285 53.9874 51.6988 54.6723C50.8154 55.5014 49.7441 56.1374 48.3721 56.1221L48.3712 56.1221C46.5575 56.0994 45.0853 55.258 43.7547 54.3284C43.3952 54.0774 43.0518 53.825 42.7139 53.5767C42.0241 53.0696 41.3574 52.5796 40.6241 52.1537C39.5651 51.5387 38.4496 51.1144 37.1401 51.0999L37.1389 51.0999C35.9383 51.0844 34.6859 51.6897 33.3888 52.6639C32.2269 53.5396 31.1184 54.6387 30.0513 55.6968C29.7131 56.0321 29.3791 56.3633 29.0488 56.682C28.376 57.3312 27.7143 57.9315 27.0846 58.3695C26.4704 58.7968 25.7957 59.1359 25.1062 59.1283L25.1054 59.1283C24.2398 59.1178 23.4336 58.761 22.7107 58.3029C21.9878 57.8447 21.2872 57.2447 20.6366 56.6812C20.6012 56.6505 20.5659 56.6199 20.5308 56.5894C19.9046 56.0467 19.3265 55.5456 18.7626 55.1667C18.1633 54.7642 17.6649 54.5599 17.2333 54.5549C16.291 54.544 15.6681 55.0977 14.9277 55.8624C14.8902 55.9011 14.8522 55.9407 14.8136 55.9807C14.495 56.3116 14.1403 56.6798 13.7513 56.9647C13.2987 57.296 12.7529 57.552 12.0755 57.5446C10.9984 57.5327 10.3219 57.0466 9.74358 56.631C9.65412 56.5667 9.56701 56.5041 9.48112 56.4452C8.85359 56.0149 8.07333 55.578 6.4584 55.56C5.0773 55.5447 4.28256 56.1956 3.21723 57.068C3.12537 57.1432 3.03151 57.2201 2.93508 57.2983C1.72115 58.2831 0.237284 59.3268 -2.46173 59.2962C-5.12067 59.2661 -6.60385 58.4089 -7.97581 57.6051L-8.00326 57.5891C-9.31529 56.8203 -10.5147 56.1176 -12.7336 56.0918L-12.7336 56.0918C-14.9958 56.0653 -16.2355 56.6513 -17.3513 57.2588C-17.4527 57.314 -17.5541 57.3701 -17.6559 57.4265C-18.6987 58.0035 -19.7914 58.6082 -21.5102 58.5881L67.8447 48.0967ZM67.8447 48.0967L75.3144 59.3446L75.5071 59.6347L75.7836 59.6347C75.7812 59.6463 75.7784 59.6587 75.7752 59.672C75.6786 60.0739 75.3313 60.7347 74.7262 61.6145C73.5401 63.3388 71.5523 65.6407 69.3956 67.8938C67.2419 70.1437 64.9449 72.3187 63.1537 73.7903C62.2525 74.5308 61.5052 75.0715 60.9801 75.3591C60.8914 75.4077 60.8156 75.4453 60.752 75.4741L60.7221 75.3762L60.2321 75.3882L-0.599044 76.8783C-2.70253 76.5313 -5.67438 75.274 -9.00638 73.5196C-12.3484 71.7598 -15.9862 69.5363 -19.356 67.3401C-22.7244 65.1449 -25.8165 62.9825 -28.0652 61.3487C-29.1898 60.5315 -30.1008 59.8484 -30.7285 59.3609C-31.0432 59.1164 -31.2819 58.9248 -31.4392 58.7917C-31.4484 58.784 -31.4572 58.7765 -31.4656 58.7694L-31.4647 58.5663C-31.268 58.35 -30.8701 57.9423 -30.3372 57.5457C-29.5855 56.9864 -28.6442 56.5082 -27.6675 56.5206L-27.6664 56.5207C-26.7383 56.5308 -26.2098 56.8653 -25.4761 57.3297C-25.4139 57.3691 -25.3503 57.4094 -25.2847 57.4506C-24.4177 57.9947 -23.3694 58.5666 -21.5103 58.5881L67.8447 48.0967ZM37.1298 50.4775C39.573 50.5045 41.371 51.8254 43.1146 53.1062C43.4458 53.3495 43.775 53.5914 44.1063 53.8227L37.1298 50.4775ZM53.5248 51.4746C54.7078 49.9185 55.9263 48.5117 57.6879 48.5337C58.8112 48.5468 59.6202 48.7158 60.2648 48.9531C60.8697 49.1742 61.3279 49.4539 61.7609 49.7182C62.4826 50.1587 63.1342 50.5565 64.2779 50.5691L53.5248 51.4746ZM-31.4667 59.0336L-31.4667 59.0321L-31.4667 59.0336ZM75.932 59.6407C75.932 59.6407 75.9308 59.6405 75.9287 59.6398C75.9311 59.6403 75.9321 59.6407 75.932 59.6407Z" fill="#D7D7D7" style="fill:#D7D7D7;fill:color(display-p3 0.8431 0.8431 0.8431);fill-opacity:1;"/>
<path d="M67.8447 48.0967C67.7115 48.3786 67.5492 48.6911 67.3582 49.0051C67.0492 49.5131 66.6499 50.05 66.1563 50.4639C65.6606 50.8795 65.0338 51.1997 64.2882 51.1914C63.2314 51.1798 62.5229 50.875 61.8877 50.5116C61.716 50.4134 61.5581 50.317 61.4047 50.2235C60.9864 49.9683 60.6018 49.7337 60.0622 49.5365L60.0608 49.536C59.4935 49.3271 58.758 49.1684 57.6979 49.1561L57.6973 49.1561C57.0037 49.1474 56.3932 49.4149 55.7937 49.8992C55.1832 50.3924 54.6209 51.0802 54.0296 51.8579L54.0294 51.8582C53.917 52.0059 53.8034 52.1572 53.6882 52.3105C53.0794 53.121 52.4285 53.9874 51.6988 54.6723C50.8154 55.5014 49.7441 56.1374 48.3721 56.1221L48.3712 56.1221C46.5575 56.0994 45.0853 55.258 43.7547 54.3284C43.3952 54.0774 43.0518 53.825 42.7139 53.5767C42.0241 53.0696 41.3574 52.5796 40.6241 52.1537C39.5651 51.5387 38.4496 51.1144 37.1401 51.0999L37.1389 51.0999C35.9383 51.0844 34.6859 51.6897 33.3888 52.6639C32.2269 53.5396 31.1184 54.6387 30.0513 55.6968C29.7131 56.0321 29.3791 56.3633 29.0488 56.682C28.376 57.3312 27.7143 57.9315 27.0846 58.3695C26.4704 58.7968 25.7957 59.1359 25.1062 59.1283L25.1054 59.1283C24.2398 59.1178 23.4336 58.761 22.7107 58.3029C21.9878 57.8447 21.2872 57.2447 20.6366 56.6812C20.6012 56.6505 20.5659 56.6199 20.5308 56.5894C19.9046 56.0467 19.3265 55.5456 18.7626 55.1667C18.1633 54.7642 17.6649 54.5599 17.2333 54.5549C16.291 54.544 15.6681 55.0977 14.9277 55.8624C14.8902 55.9011 14.8522 55.9407 14.8136 55.9807C14.495 56.3116 14.1403 56.6798 13.7513 56.9647C13.2987 57.296 12.7529 57.552 12.0755 57.5446C10.9984 57.5327 10.3219 57.0466 9.74358 56.631C9.65412 56.5667 9.56701 56.5041 9.48112 56.4452C8.85359 56.0149 8.07333 55.578 6.4584 55.56C5.0773 55.5447 4.28256 56.1956 3.21723 57.068C3.12537 57.1432 3.03151 57.2201 2.93508 57.2983C1.72115 58.2831 0.237284 59.3268 -2.46173 59.2962C-5.12067 59.2661 -6.60385 58.4089 -7.97581 57.6051L-8.00326 57.5891C-9.31529 56.8203 -10.5147 56.1176 -12.7336 56.0918L-12.7336 56.0918C-14.9958 56.0653 -16.2355 56.6513 -17.3513 57.2588C-17.4527 57.314 -17.5541 57.3701 -17.6559 57.4265C-18.6987 58.0035 -19.7914 58.6082 -21.5102 58.5881L67.8447 48.0967ZM67.8447 48.0967L75.3144 59.3446L75.5071 59.6347L75.7836 59.6347C75.7812 59.6463 75.7784 59.6587 75.7752 59.672C75.6786 60.0739 75.3313 60.7347 74.7262 61.6145C73.5401 63.3388 71.5523 65.6407 69.3956 67.8938C67.2419 70.1437 64.9449 72.3187 63.1537 73.7903C62.2525 74.5308 61.5052 75.0715 60.9801 75.3591C60.8914 75.4077 60.8156 75.4453 60.752 75.4741L60.7221 75.3762L60.2321 75.3882L-0.599044 76.8783C-2.70253 76.5313 -5.67438 75.274 -9.00638 73.5196C-12.3484 71.7598 -15.9862 69.5363 -19.356 67.3401C-22.7244 65.1449 -25.8165 62.9825 -28.0652 61.3487C-29.1898 60.5315 -30.1008 59.8484 -30.7285 59.3609C-31.0432 59.1164 -31.2819 58.9248 -31.4392 58.7917C-31.4484 58.784 -31.4572 58.7765 -31.4656 58.7694L-31.4647 58.5663C-31.268 58.35 -30.8701 57.9423 -30.3372 57.5457C-29.5855 56.9864 -28.6442 56.5082 -27.6675 56.5206L-27.6664 56.5207C-26.7383 56.5308 -26.2098 56.8653 -25.4761 57.3297C-25.4139 57.3691 -25.3503 57.4094 -25.2847 57.4506C-24.4177 57.9947 -23.3694 58.5666 -21.5103 58.5881L67.8447 48.0967ZM37.1298 50.4775C39.573 50.5045 41.371 51.8254 43.1146 53.1062C43.4458 53.3495 43.775 53.5914 44.1063 53.8227L37.1298 50.4775ZM53.5248 51.4746C54.7078 49.9185 55.9263 48.5117 57.6879 48.5337C58.8112 48.5468 59.6202 48.7158 60.2648 48.9531C60.8697 49.1742 61.3279 49.4539 61.7609 49.7182C62.4826 50.1587 63.1342 50.5565 64.2779 50.5691L53.5248 51.4746ZM-31.4667 59.0336L-31.4667 59.0321L-31.4667 59.0336ZM75.932 59.6407C75.932 59.6407 75.9308 59.6405 75.9287 59.6398C75.9311 59.6403 75.9321 59.6407 75.932 59.6407Z" fill="#F3F0F0" style="fill:#F3F0F0;fill:color(display-p3 0.9529 0.9412 0.9412);fill-opacity:1;"/>
<path d="M67.8447 48.0967C67.7115 48.3786 67.5492 48.6911 67.3582 49.0051C67.0492 49.5131 66.6499 50.05 66.1563 50.4639C65.6606 50.8795 65.0338 51.1997 64.2882 51.1914C63.2314 51.1798 62.5229 50.875 61.8877 50.5116C61.716 50.4134 61.5581 50.317 61.4047 50.2235C60.9864 49.9683 60.6018 49.7337 60.0622 49.5365L60.0608 49.536C59.4935 49.3271 58.758 49.1684 57.6979 49.1561L57.6973 49.1561C57.0037 49.1474 56.3932 49.4149 55.7937 49.8992C55.1832 50.3924 54.6209 51.0802 54.0296 51.8579L54.0294 51.8582C53.917 52.0059 53.8034 52.1572 53.6882 52.3105C53.0794 53.121 52.4285 53.9874 51.6988 54.6723C50.8154 55.5014 49.7441 56.1374 48.3721 56.1221L48.3712 56.1221C46.5575 56.0994 45.0853 55.258 43.7547 54.3284C43.3952 54.0774 43.0518 53.825 42.7139 53.5767C42.0241 53.0696 41.3574 52.5796 40.6241 52.1537C39.5651 51.5387 38.4496 51.1144 37.1401 51.0999L37.1389 51.0999C35.9383 51.0844 34.6859 51.6897 33.3888 52.6639C32.2269 53.5396 31.1184 54.6387 30.0513 55.6968C29.7131 56.0321 29.3791 56.3633 29.0488 56.682C28.376 57.3312 27.7143 57.9315 27.0846 58.3695C26.4704 58.7968 25.7957 59.1359 25.1062 59.1283L25.1054 59.1283C24.2398 59.1178 23.4336 58.761 22.7107 58.3029C21.9878 57.8447 21.2872 57.2447 20.6366 56.6812C20.6012 56.6505 20.5659 56.6199 20.5308 56.5894C19.9046 56.0467 19.3265 55.5456 18.7626 55.1667C18.1633 54.7642 17.6649 54.5599 17.2333 54.5549C16.291 54.544 15.6681 55.0977 14.9277 55.8624C14.8902 55.9011 14.8522 55.9407 14.8136 55.9807C14.495 56.3116 14.1403 56.6798 13.7513 56.9647C13.2987 57.296 12.7529 57.552 12.0755 57.5446C10.9984 57.5327 10.3219 57.0466 9.74358 56.631C9.65412 56.5667 9.56701 56.5041 9.48112 56.4452C8.85359 56.0149 8.07333 55.578 6.4584 55.56C5.0773 55.5447 4.28256 56.1956 3.21723 57.068C3.12537 57.1432 3.03151 57.2201 2.93508 57.2983C1.72115 58.2831 0.237284 59.3268 -2.46173 59.2962C-5.12067 59.2661 -6.60385 58.4089 -7.97581 57.6051L-8.00326 57.5891C-9.31529 56.8203 -10.5147 56.1176 -12.7336 56.0918L-12.7336 56.0918C-14.9958 56.0653 -16.2355 56.6513 -17.3513 57.2588C-17.4527 57.314 -17.5541 57.3701 -17.6559 57.4265C-18.6987 58.0035 -19.7914 58.6082 -21.5102 58.5881L67.8447 48.0967ZM67.8447 48.0967L75.3144 59.3446L75.5071 59.6347L75.7836 59.6347C75.7812 59.6463 75.7784 59.6587 75.7752 59.672C75.6786 60.0739 75.3313 60.7347 74.7262 61.6145C73.5401 63.3388 71.5523 65.6407 69.3956 67.8938C67.2419 70.1437 64.9449 72.3187 63.1537 73.7903C62.2525 74.5308 61.5052 75.0715 60.9801 75.3591C60.8914 75.4077 60.8156 75.4453 60.752 75.4741L60.7221 75.3762L60.2321 75.3882L-0.599044 76.8783C-2.70253 76.5313 -5.67438 75.274 -9.00638 73.5196C-12.3484 71.7598 -15.9862 69.5363 -19.356 67.3401C-22.7244 65.1449 -25.8165 62.9825 -28.0652 61.3487C-29.1898 60.5315 -30.1008 59.8484 -30.7285 59.3609C-31.0432 59.1164 -31.2819 58.9248 -31.4392 58.7917C-31.4484 58.784 -31.4572 58.7765 -31.4656 58.7694L-31.4647 58.5663C-31.268 58.35 -30.8701 57.9423 -30.3372 57.5457C-29.5855 56.9864 -28.6442 56.5082 -27.6675 56.5206L-27.6664 56.5207C-26.7383 56.5308 -26.2098 56.8653 -25.4761 57.3297C-25.4139 57.3691 -25.3503 57.4094 -25.2847 57.4506C-24.4177 57.9947 -23.3694 58.5666 -21.5103 58.5881L67.8447 48.0967ZM37.1298 50.4775C39.573 50.5045 41.371 51.8254 43.1146 53.1062C43.4458 53.3495 43.775 53.5914 44.1063 53.8227L37.1298 50.4775ZM53.5248 51.4746C54.7078 49.9185 55.9263 48.5117 57.6879 48.5337C58.8112 48.5468 59.6202 48.7158 60.2648 48.9531C60.8697 49.1742 61.3279 49.4539 61.7609 49.7182C62.4826 50.1587 63.1342 50.5565 64.2779 50.5691L53.5248 51.4746ZM-31.4667 59.0336L-31.4667 59.0321L-31.4667 59.0336ZM75.932 59.6407C75.932 59.6407 75.9308 59.6405 75.9287 59.6398C75.9311 59.6403 75.9321 59.6407 75.932 59.6407Z" stroke="white" style="stroke:white;stroke-opacity:1;" stroke-width="1.25"/>
<path d="M67.8447 48.0967C67.7115 48.3786 67.5492 48.6911 67.3582 49.0051C67.0492 49.5131 66.6499 50.05 66.1563 50.4639C65.6606 50.8795 65.0338 51.1997 64.2882 51.1914C63.2314 51.1798 62.5229 50.875 61.8877 50.5116C61.716 50.4134 61.5581 50.317 61.4047 50.2235C60.9864 49.9683 60.6018 49.7337 60.0622 49.5365L60.0608 49.536C59.4935 49.3271 58.758 49.1684 57.6979 49.1561L57.6973 49.1561C57.0037 49.1474 56.3932 49.4149 55.7937 49.8992C55.1832 50.3924 54.6209 51.0802 54.0296 51.8579L54.0294 51.8582C53.917 52.0059 53.8034 52.1572 53.6882 52.3105C53.0794 53.121 52.4285 53.9874 51.6988 54.6723C50.8154 55.5014 49.7441 56.1374 48.3721 56.1221L48.3712 56.1221C46.5575 56.0994 45.0853 55.258 43.7547 54.3284C43.3952 54.0774 43.0518 53.825 42.7139 53.5767C42.0241 53.0696 41.3574 52.5796 40.6241 52.1537C39.5651 51.5387 38.4496 51.1144 37.1401 51.0999L37.1389 51.0999C35.9383 51.0844 34.6859 51.6897 33.3888 52.6639C32.2269 53.5396 31.1184 54.6387 30.0513 55.6968C29.7131 56.0321 29.3791 56.3633 29.0488 56.682C28.376 57.3312 27.7143 57.9315 27.0846 58.3695C26.4704 58.7968 25.7957 59.1359 25.1062 59.1283L25.1054 59.1283C24.2398 59.1178 23.4336 58.761 22.7107 58.3029C21.9878 57.8447 21.2872 57.2447 20.6366 56.6812C20.6012 56.6505 20.5659 56.6199 20.5308 56.5894C19.9046 56.0467 19.3265 55.5456 18.7626 55.1667C18.1633 54.7642 17.6649 54.5599 17.2333 54.5549C16.291 54.544 15.6681 55.0977 14.9277 55.8624C14.8902 55.9011 14.8522 55.9407 14.8136 55.9807C14.495 56.3116 14.1403 56.6798 13.7513 56.9647C13.2987 57.296 12.7529 57.552 12.0755 57.5446C10.9984 57.5327 10.3219 57.0466 9.74358 56.631C9.65412 56.5667 9.56701 56.5041 9.48112 56.4452C8.85359 56.0149 8.07333 55.578 6.4584 55.56C5.0773 55.5447 4.28256 56.1956 3.21723 57.068C3.12537 57.1432 3.03151 57.2201 2.93508 57.2983C1.72115 58.2831 0.237284 59.3268 -2.46173 59.2962C-5.12067 59.2661 -6.60385 58.4089 -7.97581 57.6051L-8.00326 57.5891C-9.31529 56.8203 -10.5147 56.1176 -12.7336 56.0918L-12.7336 56.0918C-14.9958 56.0653 -16.2355 56.6513 -17.3513 57.2588C-17.4527 57.314 -17.5541 57.3701 -17.6559 57.4265C-18.6987 58.0035 -19.7914 58.6082 -21.5102 58.5881L67.8447 48.0967ZM67.8447 48.0967L75.3144 59.3446L75.5071 59.6347L75.7836 59.6347C75.7812 59.6463 75.7784 59.6587 75.7752 59.672C75.6786 60.0739 75.3313 60.7347 74.7262 61.6145C73.5401 63.3388 71.5523 65.6407 69.3956 67.8938C67.2419 70.1437 64.9449 72.3187 63.1537 73.7903C62.2525 74.5308 61.5052 75.0715 60.9801 75.3591C60.8914 75.4077 60.8156 75.4453 60.752 75.4741L60.7221 75.3762L60.2321 75.3882L-0.599044 76.8783C-2.70253 76.5313 -5.67438 75.274 -9.00638 73.5196C-12.3484 71.7598 -15.9862 69.5363 -19.356 67.3401C-22.7244 65.1449 -25.8165 62.9825 -28.0652 61.3487C-29.1898 60.5315 -30.1008 59.8484 -30.7285 59.3609C-31.0432 59.1164 -31.2819 58.9248 -31.4392 58.7917C-31.4484 58.784 -31.4572 58.7765 -31.4656 58.7694L-31.4647 58.5663C-31.268 58.35 -30.8701 57.9423 -30.3372 57.5457C-29.5855 56.9864 -28.6442 56.5082 -27.6675 56.5206L-27.6664 56.5207C-26.7383 56.5308 -26.2098 56.8653 -25.4761 57.3297C-25.4139 57.3691 -25.3503 57.4094 -25.2847 57.4506C-24.4177 57.9947 -23.3694 58.5666 -21.5103 58.5881L67.8447 48.0967ZM37.1298 50.4775C39.573 50.5045 41.371 51.8254 43.1146 53.1062C43.4458 53.3495 43.775 53.5914 44.1063 53.8227L37.1298 50.4775ZM53.5248 51.4746C54.7078 49.9185 55.9263 48.5117 57.6879 48.5337C58.8112 48.5468 59.6202 48.7158 60.2648 48.9531C60.8697 49.1742 61.3279 49.4539 61.7609 49.7182C62.4826 50.1587 63.1342 50.5565 64.2779 50.5691L53.5248 51.4746ZM-31.4667 59.0336L-31.4667 59.0321L-31.4667 59.0336ZM75.932 59.6407C75.932 59.6407 75.9308 59.6405 75.9287 59.6398C75.9311 59.6403 75.9321 59.6407 75.932 59.6407Z" stroke="#FFA469" style="stroke:#FFA469;stroke:color(display-p3 1.0000 0.6431 0.4118);stroke-opacity:1;" stroke-width="1.25"/>
<rect x="6.25" y="46.25" width="2.76465" height="2.5" rx="1.25" fill="#FFA469" style="fill:#FFA469;fill:color(display-p3 1.0000 0.6431 0.4118);fill-opacity:1;"/>
<rect x="46.25" y="45" width="2.76465" height="2.5" rx="1.25" fill="#FFA469" style="fill:#FFA469;fill:color(display-p3 1.0000 0.6431 0.4118);fill-opacity:1;"/>
<rect x="6.25" y="62.5" width="2.5" height="1.25" rx="0.625" transform="rotate(90 6.25 62.5)" fill="#8F8F92" style="fill:#8F8F92;fill:color(display-p3 0.5608 0.5608 0.5725);fill-opacity:1;"/>
<rect x="16.25" y="62.5" width="2.5" height="1.25" rx="0.625" transform="rotate(90 16.25 62.5)" fill="#8F8F92" style="fill:#8F8F92;fill:color(display-p3 0.5608 0.5608 0.5725);fill-opacity:1;"/>
<rect x="26.25" y="62.5" width="2.5" height="1.25" rx="0.625" transform="rotate(90 26.25 62.5)" fill="#8F8F92" style="fill:#8F8F92;fill:color(display-p3 0.5608 0.5608 0.5725);fill-opacity:1;"/>
<rect x="36.25" y="62.5" width="2.5" height="1.25" rx="0.625" transform="rotate(90 36.25 62.5)" fill="#8F8F92" style="fill:#8F8F92;fill:color(display-p3 0.5608 0.5608 0.5725);fill-opacity:1;"/>
<rect x="46.25" y="62.5" width="2.5" height="1.25" rx="0.625" transform="rotate(90 46.25 62.5)" fill="#8F8F92" style="fill:#8F8F92;fill:color(display-p3 0.5608 0.5608 0.5725);fill-opacity:1;"/>
<rect x="56.25" y="62.5" width="2.5" height="1.25" rx="0.625" transform="rotate(90 56.25 62.5)" fill="#8F8F92" style="fill:#8F8F92;fill:color(display-p3 0.5608 0.5608 0.5725);fill-opacity:1;"/>
<rect x="27.5" y="40" width="5" height="22.5" rx="2.5" fill="#585960" style="fill:#585960;fill:color(display-p3 0.3451 0.3490 0.3765);fill-opacity:1;"/>
<path d="M48.75 26.25C48.75 36.6053 40.3553 45 30 45C19.6447 45 11.25 36.6053 11.25 26.25C11.25 15.8947 19.6447 7.5 30 7.5C40.3553 7.5 48.75 15.8947 48.75 26.25ZM16.875 26.25C16.875 33.4987 22.7513 39.375 30 39.375C37.2487 39.375 43.125 33.4987 43.125 26.25C43.125 19.0013 37.2487 13.125 30 13.125C22.7513 13.125 16.875 19.0013 16.875 26.25Z" fill="#B9BABD" style="fill:#B9BABD;fill:color(display-p3 0.7255 0.7294 0.7412);fill-opacity:1;"/>
<path d="M48.75 26.25C48.75 36.6053 40.3553 45 30 45C19.6447 45 11.25 36.6053 11.25 26.25C11.25 15.8947 19.6447 7.5 30 7.5C40.3553 7.5 48.75 15.8947 48.75 26.25ZM16.875 26.25C16.875 33.4987 22.7513 39.375 30 39.375C37.2487 39.375 43.125 33.4987 43.125 26.25C43.125 19.0013 37.2487 13.125 30 13.125C22.7513 13.125 16.875 19.0013 16.875 26.25Z" fill="url(#paint1_linear_389_12513)" style=""/>
<circle opacity="0.6" cx="30" cy="26.25" r="15.625" fill="white" style="fill:white;fill-opacity:1;"/>
</g>
<rect x="1.25" y="1.25" width="57.5" height="67.5" rx="8.75" stroke="#F3F0F0" style="stroke:#F3F0F0;stroke:color(display-p3 0.9529 0.9412 0.9412);stroke-opacity:1;" stroke-width="2.5"/>
<defs>
<linearGradient id="paint0_linear_389_12513" x1="35.625" y1="50.627" x2="36.4157" y2="78.1042" gradientUnits="userSpaceOnUse">
<stop stop-color="#F3F0F0" style="stop-color:#F3F0F0;stop-color:color(display-p3 0.9529 0.9412 0.9412);stop-opacity:1;"/>
<stop offset="1" stop-color="#B9BABD" style="stop-color:#B9BABD;stop-color:color(display-p3 0.7255 0.7294 0.7412);stop-opacity:1;"/>
</linearGradient>
<linearGradient id="paint1_linear_389_12513" x1="30.2053" y1="8.99685" x2="30.2063" y2="45.48" gradientUnits="userSpaceOnUse">
<stop stop-color="#FFD66B" style="stop-color:#FFD66B;stop-color:color(display-p3 1.0000 0.8378 0.4208);stop-opacity:1;"/>
<stop offset="1" stop-color="#FFA469" style="stop-color:#FFA469;stop-color:color(display-p3 1.0000 0.6431 0.4118);stop-opacity:1;"/>
</linearGradient>
<clipPath id="clip0_389_12513">
<rect width="60" height="70" rx="10" fill="white" style="fill:white;fill-opacity:1;"/>
</clipPath>
</defs>
</svg>
