<svg width="237" height="80" viewBox="0 0 237 80" fill="none" xmlns="http://www.w3.org/2000/svg">
<g clip-path="url(#clip0_484_2932)">
<path d="M52.741 6.99902C55.4936 7.04349 58.547 7.01681 61.6358 7.71942C66.5567 8.84005 69.8846 11.6238 70.7519 16.5154C71.752 22.1363 71.9113 27.9084 70.5837 33.5382C69.3889 38.6166 65.5566 41.685 60.4145 42.2631C54.9891 42.8767 49.546 43.0635 44.1737 42.1919C39.1731 41.3737 35.3497 38.9457 34.1195 33.3959C32.6414 26.7166 32.5175 20.1441 34.9337 13.6961C36.2967 10.0585 39.4741 8.70664 42.97 7.74611C46.0943 6.8923 49.2451 7.01681 52.741 6.99902ZM44.8021 24.8045C44.7578 26.7967 44.5808 29.0646 45.8022 31.0124C47.3953 33.556 50.8382 34.481 54.3695 33.9118C57.1575 33.4671 58.9895 32.0352 59.5294 29.3848C60.0427 26.8501 60.1312 24.2442 59.7595 21.6116C59.1577 17.387 57.3256 16.0263 54.2456 15.715C51.1391 15.4037 47.9617 15.2436 45.8907 18.3742C44.6251 20.2864 44.7932 22.4476 44.8109 24.7956L44.8021 24.8045Z" fill="white" style="fill:white;fill-opacity:1;"/>
<path d="M111.066 42.2549C106.615 42.2549 102.596 42.2283 98.5871 42.2638C96.8436 42.2816 96.4011 40.6629 95.7373 39.7024C93.5866 36.6251 91.1527 33.7435 89.179 30.524C87.1434 27.2066 89.6569 23.9159 92.7369 23.8536C94.215 23.8269 95.7019 24.076 97.1533 23.489C98.6933 22.8664 99.5607 21.3278 99.3129 19.4067C99.0297 17.2188 98.1269 16.1071 96.2594 16.027C93.799 15.9292 91.3208 15.9648 88.8515 16.0004C87.2584 16.027 86.8336 17.0409 86.8425 18.4906C86.8602 25.8103 86.7805 33.1299 86.8602 40.4406C86.8779 41.9348 86.4796 42.3439 85.0192 42.2816C82.426 42.166 79.824 42.166 77.2308 42.2816C75.797 42.3439 75.5226 41.8014 75.5315 40.494C75.5934 31.3511 75.6819 22.1994 75.558 13.0565C75.4961 8.72521 78.0804 7.55122 81.0188 7.47117C87.9665 7.27551 94.923 7.19547 101.862 7.48896C106.287 7.67573 108.88 9.25883 110.049 14.6129C110.942 18.7574 110.332 22.644 109.385 26.5484C108.633 29.6257 106.429 31.3244 103.251 31.6624C102.8 31.7069 102.349 31.7513 101.906 31.8047C101.871 31.8047 101.835 31.8936 101.641 32.1782C104.65 35.3978 107.703 38.6618 111.075 42.2638L111.066 42.2549Z" fill="white" style="fill:white;fill-opacity:1;"/>
<path d="M148.892 26.8948C148.892 22.5812 148.892 18.2677 148.892 13.9542C148.892 10.0054 150.751 7.56846 154.574 7.0793C156.778 6.7947 159.079 6.66129 161.221 7.87085C162.487 8.59125 163.54 9.37391 164.39 10.619C168.249 16.2666 172.214 21.8431 176.143 27.4462C176.329 27.713 176.542 27.9709 176.798 28.1666C177.126 28.4156 177.338 29.0382 177.887 28.7358C178.285 28.5134 178.117 28.0332 178.117 27.6596C178.135 23.2839 178.135 18.8992 178.135 14.5234C178.135 12.5668 178.17 10.6013 178.117 8.64462C178.09 7.71966 178.391 7.3728 179.329 7.39059C181.471 7.43506 183.613 7.43506 185.764 7.39059C186.658 7.3728 187.038 7.63961 187.038 8.60015C187.021 17.9476 187.118 27.2861 186.985 36.6335C186.932 40.1821 183.994 42.4234 180.427 42.7169C175.957 43.0904 172.948 41.2227 170.541 37.6029C167.027 32.3289 163.31 27.1883 159.655 22.0209C159.274 21.4784 158.885 20.589 158.062 20.8292C157.177 21.0871 157.477 22.0298 157.469 22.7058C157.442 28.6557 157.407 34.5968 157.469 40.5468C157.486 41.9164 157.123 42.3789 155.743 42.29C153.928 42.1655 152.105 42.1921 150.291 42.2811C149.149 42.3344 148.866 41.9075 148.884 40.8225C148.928 36.1799 148.901 31.5462 148.901 26.9036L148.892 26.8948Z" fill="white" style="fill:white;fill-opacity:1;"/>
<path d="M114.589 24.9741C114.589 21.0519 114.704 17.1297 114.554 13.2164C114.394 8.98295 117.076 7.47989 120.076 7.44431C128.06 7.33759 136.052 7.42653 144.035 7.39095C145.079 7.39095 145.389 7.72892 145.362 8.73392C145.309 10.6906 145.283 12.6561 145.362 14.6127C145.416 15.7956 144.902 16.018 143.867 16.0091C138.733 15.9735 133.609 15.9913 128.476 15.9913C126.201 15.9913 124.847 18.3126 125.944 20.2959C126.351 21.0341 127.104 20.7228 127.706 20.7228C132.839 20.7495 137.963 20.7851 143.097 20.7228C144.433 20.705 145 21.0519 144.858 22.4571C144.681 24.2625 145.601 26.5927 144.513 27.7578C143.406 28.9496 141.07 28.1047 139.282 28.1314C135.326 28.2025 131.361 28.1847 127.396 28.1314C126.201 28.1136 125.856 28.5227 125.838 29.7145C125.776 33.6633 125.732 33.6633 129.564 33.6722C134.175 33.6722 138.786 33.7612 143.398 33.6278C145.088 33.5833 145.513 34.1347 145.38 35.7089C145.247 37.2653 145.265 38.8484 145.38 40.4049C145.477 41.7923 145.168 42.317 143.61 42.2992C135.627 42.2103 127.635 42.2637 119.652 42.2548C116.669 42.2548 114.589 40.138 114.589 37.123C114.589 33.0763 114.589 29.0207 114.589 24.9741Z" fill="white" style="fill:white;fill-opacity:1;"/>
<path d="M229.432 42.2546C225.706 42.2546 222.14 42.2368 218.564 42.2634C217.882 42.2634 217.679 41.9966 217.36 41.3741C216.59 39.8621 216.024 38.279 215.564 36.6781C215.227 35.5308 214.67 35.1573 213.51 35.1751C210.262 35.2462 207.014 35.2284 203.766 35.1751C202.677 35.1573 202.155 35.5486 201.819 36.5981C201.288 38.2612 200.509 39.8354 199.969 41.4897C199.748 42.1656 199.402 42.2546 198.854 42.2546C195.243 42.2546 191.623 42.2546 187.861 42.2546C189.693 37.7721 191.446 33.4763 193.216 29.1806C194.172 26.8593 195.172 24.5469 196.145 22.2256C197.8 18.3035 199.314 14.319 201.084 10.4413C201.898 8.65366 203.297 7.82653 204.89 7.43521C208.412 6.56361 212.059 6.30569 215.05 8.80486C216.856 10.3079 217.334 12.816 218.228 14.9683C221.945 23.9688 225.635 32.9783 229.441 42.2457L229.432 42.2546ZM205.049 27.0194C207.191 27.4552 209.138 27.1706 211.067 27.2329C211.643 27.2507 212.174 27.0817 211.917 26.3257C210.961 23.5597 209.97 20.8115 208.881 17.7432C206.793 20.7404 206.624 24.0578 205.058 27.0105L205.049 27.0194Z" fill="white" style="fill:white;fill-opacity:1;"/>
<path d="M18.2855 42.2637C14.3293 42.2637 10.3731 42.2637 6.4169 42.2637C2.86782 42.2637 1.16852 40.5917 1.15967 37.0341C1.14197 27.7668 1.17737 18.4994 1.11542 9.23201C1.10657 7.809 1.41634 7.28426 2.92978 7.36431C5.51414 7.49772 8.12505 7.47993 10.7094 7.36431C12.0989 7.30205 12.453 7.76453 12.4353 9.12529C12.3733 16.1069 12.4087 23.0886 12.4087 30.0703C12.4087 33.2809 12.7981 33.6634 15.9666 33.6634C20.9583 33.6634 25.9589 33.7345 30.9506 33.6278C32.4818 33.5922 32.8269 34.0992 32.7296 35.5044C32.6145 37.132 32.5703 38.7773 32.7296 40.396C32.8889 42.0591 32.172 42.3171 30.7382 42.2815C26.5873 42.2014 22.4364 42.2548 18.2855 42.2548V42.2637Z" fill="white" style="fill:white;fill-opacity:1;"/>
<path d="M222.069 63.3505C219.998 65.9831 217.882 68.5801 215.864 71.2572C214.519 73.0448 213.085 74.3789 210.59 74.0676C208.74 73.8364 207.368 72.9381 207.288 70.9992C207.111 66.828 207.138 62.6479 207.094 58.4678C207.058 54.4834 207.067 54.4834 211.041 54.4834C214.643 54.4834 214.696 54.4834 214.218 58.0943C213.97 59.9887 213.962 61.8742 213.979 63.7686C213.979 64.1332 213.847 64.6402 214.316 64.7913C214.838 64.9692 215.139 64.5156 215.413 64.1688C217.396 61.6251 219.387 59.0815 221.316 56.5023C222.724 54.6168 224.883 53.8341 227.131 54.5279C228.636 54.9903 229.556 56.6802 229.556 58.9926C229.556 63.5017 229.521 68.0109 229.583 72.5201C229.6 73.7208 229.273 74.1565 228.052 74.0676C226.627 73.9609 225.193 73.9965 223.768 74.0498C222.759 74.0854 222.449 73.7652 222.485 72.698C222.573 69.6563 222.52 66.6057 222.52 63.564C222.37 63.5017 222.228 63.4306 222.078 63.3683L222.069 63.3505Z" fill="white" style="fill:white;fill-opacity:1;"/>
<path d="M176.144 64.2672C176.144 67.0776 176.109 69.8792 176.162 72.6897C176.18 73.6947 175.905 74.0148 174.861 74.0504C169.206 74.2639 169.135 74.2994 169.197 68.6785C169.214 66.9087 168.666 66.4907 166.993 66.5262C162.895 66.6152 162.895 66.5262 162.895 70.6796C162.895 72.915 161.771 74.0297 159.523 74.0237C157.104 74.0237 155.894 72.7904 155.894 70.3239C155.894 65.6902 155.974 61.0565 155.85 56.4228C155.806 54.7241 156.355 54.2705 157.93 54.4395C159.081 54.564 160.267 54.5373 161.426 54.4395C162.674 54.3328 163.054 54.8575 162.904 56.0137C162.86 56.3339 162.904 56.663 162.904 56.992C162.904 61.9103 162.904 61.8836 167.851 61.5457C168.86 61.4745 169.223 61.1366 169.17 60.1316C169.099 58.6997 169.197 57.2589 169.135 55.827C169.091 54.8397 169.374 54.4929 170.418 54.4484C176.153 54.1905 176.153 54.1638 176.153 59.9715C176.153 61.4034 176.153 62.8442 176.153 64.2761L176.144 64.2672Z" fill="white" style="fill:white;fill-opacity:1;"/>
<path d="M49.8995 54.4655C51.2536 54.4655 52.2891 54.4477 53.3246 54.4655C58.573 54.5723 57.1038 53.6206 59.166 58.4855C60.1927 60.9136 61.1751 63.3594 62.1663 65.7874C62.8478 65.8852 62.9098 65.3338 63.0691 64.9514C64.3082 61.9719 65.565 59.0014 66.7421 55.9953C67.1846 54.8658 67.813 54.3677 69.0609 54.4477C70.8045 54.5545 72.5569 54.4744 74.4509 54.4744C73.2738 58.1654 71.4594 61.4828 69.9991 64.9514C68.0962 69.4783 65.8836 73.8808 63.9453 78.3899C63.4585 79.5106 62.9806 80.062 61.7327 79.9997C59.9891 79.9108 58.2367 79.973 56.3692 79.973C56.5816 78.132 57.6526 76.8068 58.3606 75.3394C58.9005 74.2276 58.8474 73.3293 58.3075 72.2265C55.5727 66.6412 52.9264 61.0203 50.2535 55.4083C50.1473 55.1859 50.0765 54.9458 49.8906 54.4655H49.8995Z" fill="white" style="fill:white;fill-opacity:1;"/>
<path d="M125.571 54.7594C123.464 57.5076 121.491 60.1402 119.446 62.7283C118.747 63.6088 118.818 64.2135 119.535 65.094C121.809 67.8778 123.969 70.7683 126.465 74.0057C123.641 74.0057 121.163 74.0057 118.685 74.0057C118.18 74.0057 118.083 73.5965 117.844 73.303C117.136 72.4581 116.49 71.5954 115.95 70.6082C114.746 68.4203 114.525 68.4559 113.136 70.5548C112.525 71.4709 111.835 72.3425 111.268 73.2853C110.967 73.7833 110.666 74.0323 110.065 74.0234C107.684 73.9968 105.294 74.0145 102.604 74.0145C104.984 70.8395 107.117 67.8778 109.374 65.0229C110.1 64.1068 110.02 63.5287 109.356 62.6571C107.365 60.0601 105.471 57.4009 103.303 54.4481C105.976 54.4481 108.277 54.4659 110.587 54.4481C111.994 54.4303 112.056 55.7644 112.622 56.5204C114.8 59.4376 114.808 59.4909 116.49 56.2091C117.136 54.9551 117.933 54.3503 119.375 54.4392C121.252 54.5548 123.137 54.4748 125.022 54.4926C125.128 54.4926 125.234 54.5815 125.588 54.7505L125.571 54.7594Z" fill="white" style="fill:white;fill-opacity:1;"/>
<path d="M21.7286 54.4663C19.808 57.0188 18.2503 59.2512 16.5333 61.3412C14.2322 64.1517 15.135 64.4185 16.7723 66.7042C18.5247 69.1411 20.5957 71.3468 22.8172 73.9971C19.9939 73.9971 17.5069 73.9971 15.0199 73.9971C14.6305 73.9971 14.5243 73.7036 14.3296 73.4368C12.5771 71.0266 10.7451 68.6697 9.04577 66.215C7.64739 64.1961 7.83325 63.031 9.63876 60.5852C10.7097 59.1355 11.9399 57.7659 12.7807 56.1917C13.5596 54.742 14.542 54.3329 16.0643 54.4307C17.7901 54.5463 19.5337 54.4574 21.7286 54.4574V54.4663Z" fill="white" style="fill:white;fill-opacity:1;"/>
<path d="M0.0177204 64.2314C0.0177204 61.4209 0.0531226 58.6194 1.92616e-05 55.8089C-0.0176818 54.7861 0.318639 54.4926 1.3276 54.4393C7.43448 54.1369 7.41678 54.1102 7.37253 60.2292C7.34598 64.2758 7.31942 68.3225 7.37253 72.3692C7.39023 73.6233 7.08046 74.148 5.76173 74.0502C4.34564 73.9434 2.903 73.9345 1.47806 74.0502C0.203582 74.148 -0.0442335 73.5966 -0.0176818 72.4582C0.044272 69.7189 1.92616e-05 66.9796 1.92616e-05 64.2314H0.0177204Z" fill="white" style="fill:white;fill-opacity:1;"/>
<path d="M236.939 7.79062C237.603 11.7484 232.894 15.715 229.319 15.6172C225.601 15.5105 221.495 11.9974 221.636 7.72837C221.778 3.37928 225.203 0.177504 229.31 0.00852103C232.947 -0.142674 237.523 3.44154 236.939 7.79062ZM229.327 14.4788C233.903 14.5766 236.204 11.2147 236.107 7.69279C235.983 3.45933 233.036 0.942373 229.301 1.05799C225.504 1.17361 222.406 4.073 222.566 7.79062C222.743 11.7395 225.309 14.5055 229.327 14.4788Z" fill="white" style="fill:white;fill-opacity:1;"/>
<path d="M233.565 11.8911C232.078 12.3625 231.238 11.9089 230.654 10.7616C230.361 10.1924 229.999 9.64095 229.583 9.16068C229.193 8.71599 228.644 8.39581 228.025 8.63594C227.37 8.88497 227.653 9.52533 227.6 10.0056C227.556 10.388 227.582 10.7882 227.582 11.1796C227.591 11.6954 227.467 12.0512 226.839 12.0601C226.264 12.069 225.989 11.8199 225.98 11.2685C225.98 8.92055 225.98 6.58147 225.98 4.2335C225.98 3.7888 226.184 3.48641 226.671 3.49531C228.158 3.52199 229.645 3.5131 231.123 3.61093C232.282 3.69097 232.804 4.58036 232.928 5.57646C233.105 6.93722 232.424 7.90665 230.857 8.47585C232.459 9.24962 232.548 10.8149 233.548 11.8911H233.565ZM229.521 4.96279C228.406 4.9539 227.591 4.78491 227.591 6.03005C227.591 7.19514 228.379 7.01727 229.052 6.99058C229.83 6.9639 230.981 7.29297 231.034 6.08341C231.078 4.9539 230.016 4.98058 229.521 4.96279Z" fill="white" style="fill:white;fill-opacity:1;"/>
</g>
<defs>
<clipPath id="clip0_484_2932">
<rect width="237" height="80" fill="white" style="fill:white;fill-opacity:1;"/>
</clipPath>
</defs>
</svg>
