<svg width="114" height="142" viewBox="0 0 114 142" fill="none" xmlns="http://www.w3.org/2000/svg">
<g clip-path="url(#clip0_389_8636)">
<rect x="19.9648" y="28.0703" width="96" height="96" rx="12" transform="rotate(12 19.9648 28.0703)" fill="#46474E" style="fill:#46474E;fill:color(display-p3 0.2745 0.2784 0.3059);fill-opacity:1;"/>
<path d="M29.9289 44.5517L29.3292 45.0118L29.0755 46.2056L28.1084 46L29.0144 41.7379L29.9814 41.9434L29.6277 43.6075L31.3692 42.2384L32.5125 42.4814L30.7325 43.9126L31.6797 46.7568L30.5474 46.5161L29.9272 44.549L29.9289 44.5517Z" fill="#989898" style="fill:#989898;fill:color(display-p3 0.5961 0.5961 0.5961);fill-opacity:1;"/>
<path d="M34.0368 42.8054L33.1309 47.0676L32.1638 46.862L33.0698 42.5999L34.0368 42.8054Z" fill="#989898" style="fill:#989898;fill:color(display-p3 0.5961 0.5961 0.5961);fill-opacity:1;"/>
<path d="M37.4409 46.6775C37.4039 46.8733 37.3167 47.0561 37.1875 47.2088C37.0634 47.3487 36.911 47.4591 36.7415 47.5307C36.5547 47.6081 36.3565 47.6525 36.1548 47.6588C35.9319 47.6676 35.7081 47.6482 35.4901 47.6018C35.3403 47.57 35.1924 47.5292 35.0481 47.4821C34.9105 47.4365 34.7762 47.3752 34.6508 47.304C34.5216 47.2297 34.4001 47.1407 34.2902 47.0401C34.1668 46.9273 34.0573 46.8033 33.959 46.6701L34.6547 46.0618C34.7869 46.2304 34.9469 46.3768 35.1246 46.4941C35.2843 46.5983 35.4622 46.6712 35.6468 46.7128C35.7587 46.7389 35.8734 46.7516 35.9897 46.7459C36.0706 46.7444 36.1505 46.7262 36.2261 46.6955C36.2812 46.6744 36.3304 46.6381 36.3673 46.5944C36.3979 46.5588 36.4184 46.5163 36.4279 46.4715C36.4403 46.4133 36.4368 46.354 36.4164 46.2982C36.3887 46.2338 36.3453 46.1777 36.2903 46.1333C36.2083 46.0643 36.1204 46.0012 36.0279 45.9488C35.9175 45.8832 35.7777 45.8043 35.6098 45.7171C35.4436 45.6326 35.2824 45.5351 35.1307 45.4256C35.0048 45.3357 34.8946 45.2256 34.802 45.0983C34.7206 44.9827 34.6643 44.8466 34.6413 44.706C34.6164 44.5415 34.6242 44.3746 34.6634 44.212C34.6998 44.0302 34.7753 43.8589 34.8867 43.7141C34.9944 43.5755 35.1309 43.464 35.2881 43.3851C35.4578 43.3017 35.6411 43.2518 35.8283 43.2377C36.0443 43.2181 36.2575 43.233 36.4668 43.2774C36.7091 43.329 36.9445 43.4024 37.1728 43.4977C37.427 43.6126 37.6543 43.778 37.8413 43.9816L37.2415 44.6804C37.1005 44.5311 36.9326 44.4111 36.7488 44.3229C36.5929 44.2547 36.431 44.2039 36.2636 44.1683C36.1346 44.1362 36.0016 44.1337 35.8725 44.1671C35.7673 44.1962 35.6908 44.2853 35.6746 44.3942C35.6636 44.4457 35.6681 44.5005 35.6899 44.5496C35.7203 44.6123 35.7641 44.6661 35.8169 44.7101C35.899 44.779 35.9851 44.8394 36.0776 44.8919C36.1858 44.957 36.3221 45.0305 36.4813 45.1158C36.694 45.2195 36.8918 45.3505 37.0734 45.5038C37.2004 45.6104 37.304 45.7401 37.3836 45.8858C37.4454 46.0066 37.4792 46.1402 37.4829 46.2744C37.4844 46.4082 37.4717 46.5436 37.4414 46.6752L37.4409 46.6775Z" fill="#989898" style="fill:#989898;fill:color(display-p3 0.5961 0.5961 0.5961);fill-opacity:1;"/>
<path d="M38.6606 43.7882L41.586 44.41L41.4008 45.2813L39.4424 44.865L39.2715 45.6691L40.9435 46.0245L40.7583 46.8957L39.0863 46.5403L38.9078 47.3802L40.8661 47.7965L40.681 48.6677L37.7556 48.0459L38.6606 43.7882Z" fill="#989898" style="fill:#989898;fill:color(display-p3 0.5961 0.5961 0.5961);fill-opacity:1;"/>
<path d="M41.3188 48.808L42.2248 44.5458L43.1786 44.7486L42.4583 48.1372L44.4475 48.56L44.2623 49.4313L41.3193 48.8057L41.3188 48.808Z" fill="#989898" style="fill:#989898;fill:color(display-p3 0.5961 0.5961 0.5961);fill-opacity:1;"/>
<path d="M45.5621 45.2552L48.4874 45.877L48.3022 46.7482L46.3439 46.332L46.173 47.136L47.845 47.4914L47.6598 48.3627L45.9878 48.0073L45.8093 48.8472L47.7676 49.2634L47.5824 50.1347L44.6571 49.5129L45.5621 45.2552Z" fill="#989898" style="fill:#989898;fill:color(display-p3 0.5961 0.5961 0.5961);fill-opacity:1;"/>
<path d="M50.0894 49.1717L50.8421 47.7212L51.4811 46.5133L52.4899 46.7277L50.2518 50.7044L49.2605 50.4937L48.8222 45.9482L49.8554 46.1678L49.9536 47.558L50.0525 49.1615L50.0877 49.169L50.0894 49.1717Z" fill="#989898" style="fill:#989898;fill:color(display-p3 0.5961 0.5961 0.5961);fill-opacity:1;"/>
<path d="M29.7441 51.9868C29.6121 52.0409 29.4741 52.0796 29.3323 52.1034C29.1999 52.1269 29.0641 52.1333 28.9307 52.1284C28.6067 52.1158 28.2908 52.0323 28.0057 51.8801C27.826 51.788 27.664 51.6667 27.5261 51.52C27.3898 51.3761 27.29 51.2023 27.2283 51.0132C27.1637 50.8047 27.1576 50.5828 27.2073 50.3704L27.5462 48.7762C27.5871 48.5619 27.6808 48.3612 27.8206 48.1938C27.95 48.043 28.1128 47.9203 28.2928 47.8366C28.4777 47.7515 28.6764 47.6998 28.8785 47.6865C29.0838 47.6691 29.2918 47.6828 29.4957 47.7261C29.7485 47.7799 29.9931 47.8718 30.2222 47.9932C30.4399 48.1028 30.6306 48.2631 30.7789 48.4589L30.1445 49.1219C30.0419 48.9828 29.9066 48.8672 29.7516 48.7897C29.6156 48.7209 29.4736 48.6696 29.3273 48.6385C29.2453 48.621 29.1604 48.6171 29.0753 48.6248C28.988 48.6321 28.9045 48.6542 28.8248 48.6912C28.7424 48.73 28.67 48.7874 28.6129 48.8598C28.5453 48.9487 28.5007 49.0495 28.4818 49.1604L28.225 50.3685C28.1977 50.4753 28.1969 50.5878 28.2203 50.696C28.2413 50.7826 28.2792 50.8658 28.3365 50.9343C28.3898 50.9996 28.4548 51.0533 28.5294 51.095C28.6017 51.1362 28.6809 51.1671 28.7629 51.1845C28.8405 51.201 28.9205 51.2063 29.0002 51.2021C29.087 51.1971 29.1732 51.1731 29.2489 51.1329L29.3716 50.5558L28.7907 50.4324L28.9673 49.6016L30.5215 49.9319L30.1325 51.7619C30.0168 51.8594 29.8844 51.9368 29.7453 51.9917L29.7441 51.9868Z" fill="#989898" style="fill:#989898;fill:color(display-p3 0.5961 0.5961 0.5961);fill-opacity:1;"/>
<path d="M33.5128 48.6246C33.7182 48.6612 33.9136 48.745 34.0821 48.8676C34.2221 48.9725 34.3371 49.1072 34.4176 49.2628C34.4945 49.4129 34.5406 49.5776 34.5506 49.7487C34.5633 49.918 34.5524 50.0894 34.517 50.2555C34.4927 50.37 34.4506 50.4808 34.3967 50.582C34.3396 50.6872 34.2718 50.7878 34.1905 50.8761C34.1087 50.9666 34.015 51.0476 33.9126 51.1151C33.8098 51.1847 33.696 51.2403 33.5762 51.2806L33.9596 53.1832L32.9198 52.9622L32.6181 51.253L32.0173 51.1252L31.6827 52.6993L30.7095 52.4924L31.6172 48.2217L33.515 48.6251L33.5128 48.6246ZM32.1984 50.2625L32.9211 50.4162C33.0623 50.4603 33.2152 50.4388 33.3387 50.3594C33.4385 50.2821 33.5064 50.1698 33.5305 50.0458C33.5977 49.7949 33.4529 49.5388 33.2052 49.4721C33.1786 49.4665 33.152 49.4608 33.1227 49.4569L32.3999 49.3033L32.1957 50.2643L32.1984 50.2625Z" fill="#989898" style="fill:#989898;fill:color(display-p3 0.5961 0.5961 0.5961);fill-opacity:1;"/>
<path d="M37.9666 52.6245C37.9257 52.8388 37.837 53.0382 37.7011 53.2087C37.5784 53.361 37.4227 53.4828 37.2476 53.5653C37.0649 53.6508 36.8689 53.7007 36.6668 53.7141C36.4504 53.7291 36.2314 53.713 36.0186 53.6678C35.8057 53.6226 35.6013 53.5486 35.412 53.4473C35.235 53.3534 35.074 53.2277 34.9419 53.0752C34.8133 52.9282 34.7206 52.7536 34.6704 52.5646C34.6179 52.3539 34.6162 52.1329 34.6655 51.9228L35.0067 50.3174C35.0449 50.1049 35.1408 49.9047 35.2824 49.74C35.413 49.5941 35.5744 49.4782 35.7535 49.3989C35.9369 49.3206 36.1347 49.2734 36.3336 49.2641C36.5379 49.2512 36.7432 49.2666 36.9427 49.309C37.1445 49.3519 37.3378 49.4235 37.5205 49.5234C37.6997 49.6178 37.8607 49.7435 37.9977 49.8947C38.1313 50.0404 38.2283 50.216 38.2852 50.4064C38.3449 50.6162 38.3488 50.8376 38.299 51.05L37.9644 52.624L37.9666 52.6245ZM37.2888 51.0277C37.3139 50.9204 37.3169 50.8084 37.2935 50.7002C37.2748 50.6141 37.2364 50.5331 37.1818 50.4629C37.1285 50.3976 37.0639 50.3416 36.9889 50.3022C36.9165 50.261 36.8391 50.2328 36.7575 50.2131C36.6755 50.1957 36.5906 50.1917 36.5078 50.1999C36.4227 50.2076 36.3414 50.2303 36.2661 50.2682C36.186 50.3075 36.1175 50.3681 36.0631 50.4386C35.9977 50.528 35.9549 50.6316 35.9342 50.7398L35.6774 51.9478C35.6501 52.0547 35.6493 52.1671 35.6727 52.2754C35.6937 52.362 35.7316 52.4451 35.7889 52.5136C35.8422 52.5789 35.9072 52.6327 35.9818 52.6743C36.0541 52.7155 36.1333 52.7464 36.2153 52.7639C36.2974 52.7813 36.3801 52.7848 36.4629 52.7766C36.5475 52.7711 36.6292 52.7462 36.7045 52.7082C36.783 52.6663 36.851 52.608 36.9031 52.5369C36.9685 52.4475 37.0113 52.344 37.032 52.2358L37.2888 51.0277Z" fill="#989898" style="fill:#989898;fill:color(display-p3 0.5961 0.5961 0.5961);fill-opacity:1;"/>
<path d="M41.7065 54.0531C41.5793 54.2044 41.4188 54.3275 41.241 54.4118C41.0561 54.4968 40.8596 54.549 40.6575 54.5623C40.4478 54.5788 40.2376 54.5646 40.0314 54.5208C39.8252 54.4769 39.627 54.4066 39.4416 54.3086C39.2619 54.2164 39.1027 54.0934 38.9679 53.9427C38.8388 53.7979 38.7412 53.6246 38.6861 53.4369C38.6286 53.2275 38.6243 53.0084 38.6762 52.7965L39.3015 49.855L40.2747 50.0619L39.6896 52.8147C39.6645 52.922 39.6615 53.034 39.6853 53.14C39.7063 53.2266 39.7443 53.3098 39.8015 53.3783C39.8549 53.4436 39.9199 53.4973 39.9945 53.539C40.0668 53.5802 40.146 53.6111 40.228 53.6285C40.31 53.6459 40.3927 53.6494 40.4756 53.6412C40.5602 53.6357 40.6419 53.6109 40.7172 53.5729C40.7956 53.5309 40.8636 53.4726 40.9158 53.4016C40.9811 53.3122 41.0235 53.2109 41.0442 53.1026L41.6294 50.3498L42.6026 50.5567L41.9831 53.4712C41.9422 53.6854 41.8508 53.8866 41.7132 54.0545L41.7065 54.0531Z" fill="#989898" style="fill:#989898;fill:color(display-p3 0.5961 0.5961 0.5961);fill-opacity:1;"/>
<path d="M45.1833 51.1052C45.3931 51.1428 45.5907 51.227 45.7664 51.3489C45.909 51.4519 46.0285 51.5876 46.1111 51.7436C46.1904 51.8943 46.2369 52.0567 46.2518 52.2265C46.2662 52.3985 46.2543 52.5744 46.2181 52.745C46.1818 52.9157 46.1167 53.0802 46.0225 53.2291C45.8299 53.5355 45.5248 53.7499 45.1755 53.8235C44.977 53.8635 44.7711 53.862 44.5747 53.8155L43.7345 53.6369L43.4037 55.193L42.4304 54.9861L43.3387 50.7131L45.1833 51.1052ZM43.9184 52.7608L44.6345 52.913C44.7753 52.9593 44.9303 52.9383 45.057 52.8549C45.1551 52.7749 45.223 52.6626 45.2448 52.5381C45.2733 52.4151 45.2591 52.2854 45.2043 52.1728C45.1225 52.0451 44.9894 51.9628 44.8397 51.9475L44.1236 51.7952L43.9179 52.763L43.9184 52.7608Z" fill="#989898" style="fill:#989898;fill:color(display-p3 0.5961 0.5961 0.5961);fill-opacity:1;"/>
<path opacity="0.6" d="M94.7957 60.7304L94.5449 60.6771L94.6275 60.2888L93.4239 60.033L93.3413 60.4213L93.0906 60.368L93.2209 59.7547L93.3943 59.7916C93.5453 59.631 93.6735 59.4361 93.7792 59.2069C93.8859 58.977 93.9656 58.7384 94.0182 58.491L95.024 58.7048L94.7326 60.076L94.926 60.1171L94.7957 60.7304ZM94.4632 60.0188L94.7066 58.8739L94.2237 58.7713C94.1603 59.0084 94.077 59.2193 93.9739 59.4041C93.8707 59.5888 93.7659 59.7368 93.6594 59.8479L94.4632 60.0188ZM96.6582 60.7249L96.3888 60.6677L96.6809 59.2936L96.0834 59.1666C96.0637 59.2453 96.0446 59.3211 96.0261 59.394C96.0076 59.4669 95.9906 59.5327 95.9751 59.5913C95.9345 59.7494 95.8964 59.8746 95.8609 59.9669C95.8255 60.0582 95.7887 60.1328 95.7504 60.1905C95.7149 60.2449 95.6789 60.2876 95.6423 60.3188C95.6069 60.3492 95.5698 60.3758 95.531 60.3985C95.4924 60.4202 95.4516 60.434 95.4084 60.4398C95.3662 60.4458 95.3217 60.4438 95.2749 60.4339C95.2587 60.4304 95.2349 60.4249 95.2036 60.4172C95.1732 60.4098 95.1532 60.405 95.1437 60.403L95.1936 60.168L95.208 60.1711C95.2156 60.1727 95.2265 60.1755 95.2406 60.1795C95.2547 60.1835 95.2666 60.1865 95.2761 60.1886C95.299 60.1934 95.3232 60.1951 95.3485 60.1934C95.3747 60.192 95.3984 60.1841 95.4194 60.1696C95.4783 60.1322 95.5346 60.0598 95.5884 59.9524C95.6422 59.845 95.6967 59.6849 95.7519 59.472C95.7724 59.3945 95.7954 59.3025 95.821 59.1962C95.8478 59.089 95.873 58.9871 95.8965 58.8902L96.9984 59.1244L96.6582 60.7249ZM98.5365 61.1242L98.2671 61.0669L98.4021 60.4322L98.0854 60.3649L97.4547 60.8942L97.1381 60.8269L97.8172 60.2809C97.6868 60.2133 97.598 60.1335 97.5506 60.0415C97.5035 59.9486 97.4935 59.8382 97.5207 59.7102C97.5388 59.6252 97.5732 59.5571 97.624 59.506C97.6748 59.4549 97.7333 59.4169 97.7995 59.3921C97.8645 59.368 97.9356 59.3576 98.0127 59.361C98.0901 59.3635 98.1727 59.3741 98.2606 59.3927L98.8767 59.5237L98.5365 61.1242ZM98.4471 60.2201L98.5616 59.6814L98.2221 59.6092C98.1485 59.5936 98.095 59.5847 98.0615 59.5825C98.028 59.5804 97.9899 59.5858 97.9472 59.5987C97.9055 59.6118 97.8717 59.6346 97.8459 59.667C97.8212 59.6987 97.8043 59.7355 97.7954 59.7776C97.7842 59.8301 97.7805 59.8737 97.7841 59.9085C97.7886 59.9434 97.8051 59.9788 97.8333 60.0148C97.8628 60.05 97.9017 60.0782 97.9501 60.0995C97.9987 60.1198 98.0541 60.1366 98.1161 60.1498L98.4471 60.2201ZM78.9383 59.1898C78.8829 59.4506 78.7723 59.6422 78.6065 59.7647C78.4407 59.8872 78.2455 59.9246 78.0211 59.8769C77.7947 59.8288 77.6306 59.7151 77.529 59.5357C77.4283 59.3566 77.4057 59.1366 77.4611 58.8758C77.5165 58.6151 77.6267 58.4233 77.7915 58.3006C77.9575 58.1772 78.1537 58.1395 78.3801 58.1876C78.6046 58.2353 78.7676 58.3493 78.869 58.5296C78.9707 58.709 78.9938 58.9291 78.9383 59.1898ZM78.6604 59.1308C78.7044 58.9235 78.6965 58.761 78.6367 58.6435C78.577 58.525 78.475 58.4504 78.3308 58.4197C78.1846 58.3887 78.0602 58.4151 77.9575 58.4991C77.8559 58.5824 77.7831 58.7276 77.7391 58.9349C77.6964 59.1355 77.7046 59.2965 77.7637 59.4179C77.823 59.5383 77.9252 59.6139 78.0704 59.6448C78.2137 59.6753 78.3368 59.648 78.4397 59.5631C78.5438 59.4774 78.6173 59.3333 78.6604 59.1308ZM80.6439 60.388L80.3745 60.3307L80.6653 58.9624L79.8644 58.7921L79.5735 60.1605L79.3042 60.1032L79.6444 58.5028L80.9841 58.7875L80.6439 60.388ZM82.7591 59.4119L82.1803 59.2889L81.8903 60.6529L81.6209 60.5957L81.9109 59.2316L81.332 59.1086L81.3823 58.8722L82.8094 59.1755L82.7591 59.4119ZM84.2143 61.1469L83.9478 61.0903L84.2033 59.8881L83.1095 60.9121L82.866 60.8603L83.2062 59.2598L83.4727 59.3165L83.2208 60.5014L84.3023 59.4928L84.5545 59.5464L84.2143 61.1469ZM86.3763 61.6065L86.1098 61.5498L86.3784 60.2861L85.8053 61.0238L85.6047 60.9812L85.384 60.0747L85.1154 61.3385L84.8632 61.2848L85.2034 59.6844L85.5287 59.7535L85.7739 60.7416L86.3855 59.9356L86.7165 60.006L86.3763 61.6065ZM88.3721 62.0307L88.1056 61.974L88.3611 60.7719L87.2674 61.7959L87.0238 61.7441L87.364 60.1436L87.6305 60.2003L87.3786 61.3852L88.4601 60.3766L88.7123 60.4302L88.3721 62.0307ZM90.2297 61.9568C90.2106 62.0466 90.1735 62.1181 90.1182 62.1712C90.064 62.2246 90.0003 62.2635 89.9272 62.2879C89.8543 62.3113 89.7769 62.3233 89.6949 62.3238C89.6129 62.3244 89.5328 62.3163 89.4545 62.2997C89.3437 62.2761 89.2403 62.2432 89.1445 62.2009C89.0487 62.1585 88.9567 62.105 88.8686 62.0404L88.9314 61.7452L88.95 61.7492C89.0067 61.8251 89.0855 61.8913 89.1863 61.9477C89.2872 62.004 89.3882 62.043 89.4895 62.0645C89.5372 62.0747 89.5873 62.0808 89.6398 62.083C89.6925 62.0842 89.7395 62.0787 89.7811 62.0666C89.8261 62.0522 89.8638 62.0318 89.8944 62.0053C89.9252 61.9779 89.9465 61.9365 89.9583 61.8811C89.9704 61.8238 89.9682 61.7754 89.9517 61.736C89.9361 61.6967 89.91 61.6642 89.8736 61.6385C89.838 61.613 89.793 61.5924 89.7384 61.5768C89.6838 61.5612 89.6336 61.5485 89.5877 61.5388L89.3542 61.4892L89.4035 61.257L89.5654 61.2914C89.6036 61.2996 89.6536 61.3087 89.7154 61.3188C89.7781 61.3292 89.8298 61.3322 89.8707 61.3279C89.9238 61.3222 89.9679 61.3076 90.0028 61.2841C90.0387 61.2608 90.0636 61.2166 90.0774 61.1517C90.0869 61.1068 90.0833 61.0676 90.0664 61.034C90.0498 60.9995 90.026 60.9705 89.9951 60.947C89.9632 60.9232 89.9259 60.9038 89.8832 60.8887C89.8414 60.8739 89.8038 60.8629 89.7704 60.8558C89.6729 60.8351 89.5741 60.828 89.4738 60.8347C89.3747 60.8406 89.2879 60.8616 89.2134 60.8976L89.1947 60.8937L89.2578 60.5971C89.3425 60.5881 89.432 60.5852 89.5262 60.5882C89.6204 60.5913 89.7129 60.6025 89.8036 60.6217C89.8781 60.6376 89.9508 60.66 90.0215 60.689C90.0931 60.7182 90.1575 60.7559 90.2146 60.802C90.2707 60.8478 90.3129 60.9032 90.341 60.9681C90.3694 61.032 90.3748 61.1051 90.3573 61.1872C90.3395 61.2713 90.2975 61.3397 90.2313 61.3926C90.1664 61.4446 90.087 61.4752 89.9932 61.4842L89.9911 61.4942C90.0844 61.539 90.1532 61.6006 90.1974 61.6789C90.2419 61.7562 90.2527 61.8489 90.2297 61.9568ZM91.921 62.785L91.6531 62.7281L91.6893 62.5576C91.662 62.5687 91.6246 62.5848 91.5773 62.6056C91.5311 62.6258 91.487 62.6404 91.4452 62.6494C91.3956 62.6619 91.3401 62.669 91.2788 62.671C91.2173 62.6739 91.1474 62.667 91.0691 62.6504C90.9248 62.6197 90.8127 62.546 90.7327 62.4291C90.6527 62.3123 90.6285 62.1798 90.6599 62.0318C90.6857 61.9105 90.7323 61.818 90.7997 61.7545C90.8683 61.6902 90.9554 61.6468 91.061 61.6243C91.1676 61.602 91.2908 61.5978 91.4306 61.6115C91.5705 61.6253 91.7196 61.645 91.8778 61.6706L91.8867 61.6291C91.8997 61.568 91.8994 61.515 91.886 61.4702C91.8735 61.4256 91.8496 61.3876 91.8144 61.3561C91.7809 61.3261 91.7382 61.3015 91.6863 61.2825C91.6344 61.2635 91.5793 61.2478 91.5211 61.2354C91.4504 61.2204 91.3696 61.2132 91.2786 61.2138C91.1878 61.2135 91.0923 61.2211 90.9921 61.2368L90.9778 61.2337L91.036 60.9601C91.0916 60.9569 91.1709 60.9573 91.2739 60.9612C91.3769 60.9651 91.4766 60.9773 91.5731 60.9979C91.6858 61.0218 91.7817 61.0522 91.8607 61.0889C91.9409 61.125 92.0068 61.1719 92.0584 61.2298C92.1092 61.2865 92.143 61.3531 92.1597 61.4295C92.1764 61.506 92.1738 61.5958 92.1519 61.6989L91.921 62.785ZM91.7368 62.334L91.8315 61.8884C91.7484 61.8758 91.6499 61.8623 91.5361 61.8481C91.4233 61.8341 91.3324 61.8293 91.2636 61.8336C91.1816 61.8391 91.1117 61.8602 91.054 61.8969C90.9965 61.9326 90.9591 61.991 90.9419 62.0722C90.9224 62.1639 90.9353 62.2391 90.9808 62.2976C91.0265 62.3553 91.1061 62.3962 91.2198 62.4203C91.3144 62.4404 91.4047 62.4407 91.4907 62.421C91.577 62.4004 91.659 62.3714 91.7368 62.334ZM93.8266 63.1901L92.5571 62.9202L92.8973 61.3198L93.1666 61.377L92.8758 62.7454L93.6638 62.9129L93.9547 61.5445L94.2241 61.6018L93.9332 62.9701L94.1267 63.0112L93.9957 63.6274L93.7449 63.5741L93.8266 63.1901ZM95.9141 63.6338L95.6476 63.5771L95.9031 62.375L94.8094 63.399L94.5658 63.3472L94.906 61.7467L95.1725 61.8034L94.9206 62.9883L96.0021 61.9797L96.2543 62.0333L95.9141 63.6338ZM97.9113 64.0583L97.6448 64.0017L97.9004 62.7995L96.8066 63.8235L96.563 63.7717L96.9032 62.1712L97.1697 62.2279L96.9179 63.4129L97.9994 62.4042L98.2515 62.4578L97.9113 64.0583ZM86.4107 63.2551C86.4634 63.3362 86.4968 63.4282 86.5108 63.531C86.5251 63.6329 86.5187 63.7478 86.4915 63.8758C86.4407 64.1146 86.3269 64.2976 86.1501 64.4247C85.9734 64.5519 85.7804 64.5932 85.5712 64.5488C85.468 64.5268 85.3766 64.4895 85.297 64.4366C85.2176 64.3828 85.155 64.3131 85.1093 64.2275C85.0522 64.1205 85.0192 63.9941 85.0102 63.8485C85.0024 63.702 85.0196 63.5295 85.0618 63.3308C85.077 63.2592 85.0958 63.1873 85.1181 63.1151C85.1407 63.0421 85.1748 62.9565 85.2206 62.8584C85.2586 62.7736 85.3045 62.694 85.3583 62.6196C85.413 62.5453 85.471 62.4883 85.5324 62.4484C85.616 62.3933 85.7181 62.3566 85.8388 62.3384C85.9607 62.3193 86.116 62.3214 86.3048 62.3445C86.3817 62.3539 86.453 62.3636 86.5187 62.3735C86.5847 62.3826 86.6439 62.3907 86.6963 62.3978L86.6436 62.6457C86.5797 62.6361 86.5164 62.6266 86.4535 62.6173C86.3915 62.6081 86.3294 62.5999 86.267 62.5926C86.1425 62.5771 86.0274 62.5736 85.9218 62.5821C85.8171 62.5908 85.7369 62.6137 85.6811 62.6508C85.6197 62.6906 85.5674 62.7489 85.5241 62.8256C85.482 62.9015 85.4493 62.9754 85.4261 63.0473C85.5087 63.011 85.5961 62.9846 85.6885 62.9683C85.7819 62.9512 85.8769 62.953 85.9734 62.9735C86.0632 62.9926 86.1465 63.0257 86.2233 63.073C86.3001 63.1203 86.3626 63.181 86.4107 63.2551ZM86.2144 63.8334C86.252 63.6567 86.2375 63.5158 86.171 63.4108C86.1046 63.3049 86.0017 63.2371 85.8623 63.2074C85.7792 63.1898 85.6966 63.1862 85.6145 63.1967C85.5326 63.2062 85.4526 63.2257 85.3744 63.255C85.3675 63.2785 85.3596 63.3062 85.3507 63.3383C85.3431 63.3696 85.3364 63.3987 85.3307 63.4254C85.2954 63.5916 85.2806 63.7292 85.2864 63.8383C85.2922 63.9474 85.3139 64.0378 85.3515 64.1097C85.3845 64.1706 85.4244 64.2176 85.4713 64.2505C85.5185 64.2825 85.5716 64.3048 85.6308 64.3174C85.7751 64.348 85.8989 64.3199 86.0022 64.2331C86.1055 64.1462 86.1763 64.013 86.2144 63.8334ZM88.2126 65.0638L87.9461 65.0072L88.2016 63.805L87.1079 64.829L86.8643 64.7772L87.2045 63.1767L87.471 63.2334L87.2191 64.4183L88.3006 63.4097L88.5528 63.4633L88.2126 65.0638ZM90.0702 64.9899C90.0511 65.0797 90.014 65.1512 89.9587 65.2043C89.9045 65.2577 89.8408 65.2966 89.7677 65.321C89.6948 65.3444 89.6174 65.3564 89.5354 65.357C89.4535 65.3575 89.3733 65.3495 89.295 65.3328C89.1842 65.3093 89.0808 65.2763 88.985 65.234C88.8892 65.1916 88.7972 65.1381 88.7091 65.0735L88.7719 64.7783L88.7905 64.7823C88.8472 64.8583 88.926 64.9244 89.0268 64.9808C89.1277 65.0372 89.2287 65.0761 89.33 65.0976C89.3777 65.1078 89.4278 65.1139 89.4803 65.1161C89.533 65.1173 89.58 65.1119 89.6216 65.0997C89.6666 65.0853 89.7043 65.0649 89.7349 65.0384C89.7657 65.011 89.787 64.9696 89.7988 64.9142C89.8109 64.8569 89.8088 64.8085 89.7922 64.7691C89.7766 64.7298 89.7505 64.6973 89.7141 64.6716C89.6786 64.6461 89.6335 64.6255 89.5789 64.6099C89.5243 64.5943 89.4741 64.5817 89.4282 64.5719L89.1947 64.5223L89.244 64.2902L89.4059 64.3246C89.4442 64.3327 89.4941 64.3418 89.5559 64.3519C89.6186 64.3623 89.6703 64.3653 89.7112 64.361C89.7643 64.3553 89.8084 64.3407 89.8433 64.3172C89.8792 64.2939 89.9041 64.2497 89.9179 64.1848C89.9274 64.1399 89.9238 64.1007 89.9069 64.0671C89.8903 64.0327 89.8665 64.0036 89.8356 63.9801C89.8037 63.9563 89.7664 63.9369 89.7237 63.9219C89.6819 63.907 89.6443 63.896 89.6109 63.8889C89.5134 63.8682 89.4146 63.8612 89.3143 63.8678C89.2152 63.8737 89.1284 63.8947 89.0539 63.9307L89.0352 63.9268L89.0983 63.6302C89.183 63.6213 89.2725 63.6183 89.3667 63.6214C89.4609 63.6244 89.5534 63.6356 89.6441 63.6549C89.7186 63.6707 89.7913 63.6931 89.862 63.7221C89.9336 63.7513 89.998 63.789 90.0551 63.8351C90.1112 63.8809 90.1534 63.9363 90.1815 64.0012C90.2099 64.0651 90.2153 64.1382 90.1978 64.2203C90.18 64.3044 90.138 64.3728 90.0718 64.4257C90.0069 64.4778 89.9275 64.5083 89.8337 64.5173L89.8316 64.5274C89.9249 64.5722 89.9937 64.6337 90.0379 64.712C90.0824 64.7893 90.0932 64.882 90.0702 64.9899ZM91.8575 65.8386L91.5881 65.7813L91.7413 65.0606L90.9404 64.8903L90.7872 65.611L90.5178 65.5538L90.858 63.9533L91.1274 64.0106L90.9897 64.6582L91.7907 64.8285L91.9283 64.1808L92.1977 64.2381L91.8575 65.8386ZM94.0103 65.489L92.8311 65.2383C92.8102 65.3367 92.8067 65.4258 92.8207 65.5057C92.8349 65.5845 92.8628 65.6529 92.9044 65.7107C92.9444 65.7671 92.9958 65.8139 93.0587 65.8513C93.1226 65.8888 93.1957 65.9163 93.2778 65.9338C93.3867 65.9569 93.5007 65.9587 93.6196 65.939C93.7398 65.9187 93.8277 65.8924 93.8835 65.8603L93.8978 65.8634L93.8354 66.1571C93.7365 66.176 93.637 66.1883 93.537 66.194C93.4369 66.1997 93.3349 66.1915 93.2307 66.1694C92.9652 66.1129 92.7731 65.9972 92.6546 65.8223C92.5362 65.6464 92.5052 65.4261 92.5614 65.1615C92.617 64.8998 92.7324 64.7071 92.9074 64.5836C93.0833 64.4603 93.2879 64.4234 93.5209 64.4729C93.7368 64.5188 93.8896 64.6172 93.9794 64.768C94.0701 64.9191 94.0907 65.1107 94.0414 65.3428L94.0103 65.489ZM93.792 65.2269C93.8211 65.0853 93.8085 64.9683 93.7543 64.8759C93.701 64.7837 93.6027 64.7224 93.4594 64.692C93.3152 64.6613 93.191 64.6793 93.087 64.7461C92.9839 64.813 92.9132 64.9083 92.875 65.032L93.792 65.2269ZM95.5911 66.5273C95.4703 66.5555 95.3682 66.5708 95.2848 66.573C95.2022 66.5765 95.1218 66.5698 95.0435 66.5532C94.9269 66.5284 94.8235 66.489 94.7332 66.4348C94.643 66.3797 94.5704 66.3104 94.5153 66.2268C94.4602 66.1432 94.4242 66.0447 94.4074 65.9313C94.3915 65.8181 94.3985 65.6913 94.4284 65.5509C94.4826 65.2958 94.5965 65.1074 94.7702 64.9855C94.944 64.8628 95.1537 64.8275 95.3992 64.8796C95.4918 64.8993 95.5798 64.9315 95.6632 64.9762C95.7475 65.0211 95.823 65.07 95.8895 65.1231L95.8259 65.4226L95.8101 65.4193C95.7357 65.3325 95.6585 65.2637 95.5785 65.2128C95.4994 65.162 95.4193 65.128 95.3381 65.1108C95.1786 65.0768 95.0435 65.104 94.9329 65.1923C94.8232 65.2809 94.7482 65.4202 94.7078 65.6102C94.6674 65.8003 94.6794 65.9572 94.744 66.0807C94.8086 66.2043 94.9212 66.2831 95.0816 66.3172C95.138 66.3292 95.1954 66.3339 95.2538 66.3313C95.3133 66.329 95.3683 66.3212 95.419 66.308C95.4592 66.2976 95.501 66.284 95.5445 66.2673C95.5891 66.2499 95.6204 66.2365 95.6384 66.2274L95.6541 66.2307L95.5911 66.5273ZM97.3005 66.9955L97.0326 66.9385L97.0688 66.768C97.0415 66.7792 97.0041 66.7952 96.9568 66.8161C96.9105 66.8362 96.8665 66.8508 96.8246 66.8599C96.7751 66.8723 96.7196 66.8795 96.6583 66.8815C96.5968 66.8844 96.5269 66.8775 96.4486 66.8608C96.3043 66.8302 96.1922 66.7564 96.1122 66.6396C96.0322 66.5227 96.008 66.3903 96.0394 66.2422C96.0652 66.1209 96.1118 66.0285 96.1792 65.9649C96.2478 65.9007 96.3349 65.8573 96.4405 65.8348C96.5471 65.8125 96.6703 65.8083 96.8101 65.822C96.95 65.8358 97.099 65.8555 97.2573 65.8811L97.2662 65.8396C97.2792 65.7784 97.2789 65.7255 97.2655 65.6807C97.253 65.6361 97.2291 65.5981 97.1939 65.5666C97.1603 65.5365 97.1176 65.512 97.0658 65.493C97.0139 65.474 96.9588 65.4583 96.9006 65.4459C96.8299 65.4308 96.7491 65.4236 96.6581 65.4243C96.5673 65.4239 96.4718 65.4316 96.3716 65.4473L96.3573 65.4442L96.4155 65.1705C96.4711 65.1674 96.5504 65.1678 96.6533 65.1717C96.7563 65.1756 96.8561 65.1878 96.9526 65.2083C97.0653 65.2323 97.1612 65.2626 97.2402 65.2994C97.3204 65.3354 97.3863 65.3824 97.4379 65.4403C97.4887 65.497 97.5225 65.5636 97.5392 65.64C97.5559 65.7164 97.5533 65.8062 97.5314 65.9094L97.3005 66.9955ZM97.1163 66.5445L97.211 66.0989C97.1279 66.0862 97.0294 66.0728 96.9156 66.0586C96.8028 66.0446 96.7119 66.0397 96.6431 66.0441C96.5611 66.0496 96.4912 66.0707 96.4335 66.1074C96.376 66.1431 96.3386 66.2015 96.3214 66.2827C96.3019 66.3744 96.3148 66.4495 96.3603 66.5081C96.406 66.5657 96.4856 66.6066 96.5993 66.6308C96.6939 66.6509 96.7842 66.6511 96.8702 66.6315C96.9565 66.6109 97.0385 66.5819 97.1163 66.5445Z" fill="#989898" style="fill:#989898;fill:color(display-p3 0.5961 0.5961 0.5961);fill-opacity:1;"/>
<line x1="26.3489" y1="55.7477" x2="96.7755" y2="70.7173" stroke="#D7D7D7" style="stroke:#D7D7D7;stroke:color(display-p3 0.8417 0.8417 0.8417);stroke-opacity:1;" stroke-width="0.5"/>
</g>
<rect x="8.9375" y="37" width="96" height="96" rx="12" fill="#46474E" style="fill:#46474E;fill:color(display-p3 0.2745 0.2784 0.3059);fill-opacity:1;"/>
<path d="M22.1124 51.051L21.6215 51.6258L21.6215 52.8462L20.6328 52.8462L20.6328 48.4888L21.6215 48.4888L21.6215 50.1901L23.0402 48.4888L24.2091 48.4888L22.7655 50.2588L24.2834 52.8439L23.1258 52.8439L22.1102 51.0487L22.1124 51.051Z" fill="#989898" style="fill:#989898;fill:color(display-p3 0.5961 0.5961 0.5961);fill-opacity:1;"/>
<path d="M25.7675 48.4888L25.7675 52.8462L24.7788 52.8462L24.7788 48.4888L25.7675 48.4888Z" fill="#989898" style="fill:#989898;fill:color(display-p3 0.5961 0.5961 0.5961);fill-opacity:1;"/>
<path d="M29.9022 51.5685C29.9067 51.7677 29.8594 51.9646 29.7648 52.141C29.6725 52.3035 29.5464 52.4432 29.3955 52.5485C29.2288 52.663 29.0442 52.7477 28.8483 52.7958C28.6321 52.8508 28.4091 52.8782 28.1862 52.8782C28.033 52.8782 27.8799 52.8691 27.729 52.8531C27.5849 52.837 27.4407 52.805 27.3034 52.7615C27.1615 52.7157 27.0241 52.6539 26.8957 52.5783C26.7516 52.4936 26.6187 52.3951 26.4949 52.2852L27.0489 51.5456C27.2133 51.683 27.4002 51.7929 27.5984 51.8708C27.7763 51.9395 27.9655 51.9738 28.1546 51.9761C28.2695 51.9784 28.3843 51.9669 28.4969 51.9372C28.5758 51.9188 28.6501 51.8845 28.7176 51.8387C28.7672 51.8067 28.8077 51.7609 28.8347 51.7105C28.8573 51.6693 28.8685 51.6235 28.8685 51.5777C28.8685 51.5181 28.8528 51.4609 28.8212 51.4105C28.7807 51.3533 28.7266 51.3075 28.6636 51.2754C28.569 51.2251 28.4699 51.1816 28.3686 51.1495C28.247 51.1083 28.0938 51.0602 27.9114 51.0098C27.7312 50.9617 27.5533 50.8999 27.3822 50.8244C27.2403 50.7625 27.1097 50.6778 26.9926 50.5725C26.889 50.4763 26.8057 50.355 26.7539 50.2222C26.6953 50.0664 26.6683 49.9016 26.6728 49.7344C26.6705 49.549 26.7088 49.3658 26.7876 49.2009C26.8642 49.0429 26.9746 48.9056 27.1119 48.7956C27.2606 48.6789 27.4295 48.5919 27.6096 48.5392C27.8168 48.4751 28.0285 48.4453 28.2425 48.4453C28.4902 48.4453 28.7357 48.4682 28.9789 48.514C29.2514 48.5735 29.5081 48.688 29.7333 48.8483L29.2919 49.6566C29.123 49.5398 28.9338 49.4574 28.7357 49.4093C28.569 49.3749 28.4001 49.3589 28.2289 49.3589C28.0961 49.3543 27.9655 49.3795 27.8461 49.4391C27.7493 49.4894 27.693 49.5925 27.6997 49.7024C27.6997 49.755 27.7155 49.8077 27.747 49.8512C27.7898 49.9062 27.8438 49.9497 27.9046 49.9817C27.9992 50.0321 28.0961 50.0733 28.1974 50.1054C28.3168 50.1466 28.4654 50.1901 28.6388 50.2405C28.8685 50.2977 29.0892 50.3847 29.2987 50.4969C29.445 50.5748 29.5734 50.6801 29.6815 50.806C29.7671 50.9114 29.8279 51.035 29.8594 51.1655C29.8887 51.296 29.9045 51.4311 29.9022 51.5662L29.9022 51.5685Z" fill="#989898" style="fill:#989898;fill:color(display-p3 0.5961 0.5961 0.5961);fill-opacity:1;"/>
<path d="M30.4945 48.4888L33.4852 48.4888L33.4852 49.3795L31.4831 49.3795L31.4831 50.2015L33.1925 50.2015L33.1925 51.0923L31.4831 51.0923L31.4831 51.9509L33.4852 51.9509L33.4852 52.8416L30.4945 52.8416L30.4945 48.4888Z" fill="#989898" style="fill:#989898;fill:color(display-p3 0.5961 0.5961 0.5961);fill-opacity:1;"/>
<path d="M34.1383 52.8462L34.1383 48.4888L35.1135 48.4888L35.1135 51.9532L37.147 51.9532L37.147 52.8439L34.1383 52.8439L34.1383 52.8462Z" fill="#989898" style="fill:#989898;fill:color(display-p3 0.5961 0.5961 0.5961);fill-opacity:1;"/>
<path d="M37.5502 48.4888L40.5409 48.4888L40.5409 49.3795L38.5388 49.3795L38.5388 50.2015L40.2481 50.2015L40.2481 51.0923L38.5388 51.0923L38.5388 51.9509L40.5409 51.9509L40.5409 52.8416L37.5502 52.8416L37.5502 48.4888Z" fill="#989898" style="fill:#989898;fill:color(display-p3 0.5961 0.5961 0.5961);fill-opacity:1;"/>
<path d="M42.7929 51.3785L43.2276 49.8031L43.6014 48.4888L44.6328 48.4888L43.2703 52.8439L42.2569 52.8439L40.8832 48.4888L41.9394 48.4888L42.3245 49.8283L42.7546 51.3762L42.7907 51.3762L42.7929 51.3785Z" fill="#989898" style="fill:#989898;fill:color(display-p3 0.5961 0.5961 0.5961);fill-opacity:1;"/>
<path d="M23.4739 58.3659C23.356 58.4463 23.2291 58.5128 23.0954 58.5656C22.9707 58.6161 22.8392 58.6506 22.7078 58.6735C22.3882 58.7286 22.0618 58.7125 21.7513 58.623C21.5564 58.5702 21.3728 58.4853 21.2073 58.3705C21.0441 58.258 20.9104 58.1088 20.8107 57.9366C20.7041 57.7461 20.652 57.5303 20.6565 57.3123L20.6565 55.6824C20.652 55.4643 20.7019 55.2486 20.8039 55.0557C20.8991 54.8813 21.0328 54.7275 21.1914 54.6081C21.3546 54.4864 21.5382 54.3946 21.7332 54.3395C21.9303 54.2798 22.1366 54.25 22.3451 54.25C22.6035 54.25 22.8619 54.289 23.1112 54.3602C23.3469 54.4222 23.5668 54.5392 23.7527 54.6999L23.2699 55.4804C23.1407 55.3656 22.9843 55.2807 22.8166 55.2371C22.6692 55.1981 22.5196 55.1774 22.3701 55.1774C22.2862 55.1774 22.2023 55.1912 22.1207 55.2164C22.0369 55.2417 21.9598 55.2807 21.8895 55.3335C21.817 55.3886 21.7581 55.4598 21.7173 55.5424C21.6697 55.6434 21.647 55.7513 21.6516 55.8638L21.6516 57.0988C21.647 57.209 21.6697 57.3191 21.715 57.4201C21.7536 57.5005 21.8079 57.5739 21.8782 57.629C21.9439 57.6818 22.0187 57.7209 22.1003 57.7461C22.1797 57.7714 22.2635 57.7851 22.3474 57.7851C22.4267 57.7851 22.506 57.7737 22.5831 57.753C22.667 57.73 22.7463 57.6887 22.812 57.6336L22.812 57.0437L22.2182 57.0437L22.2182 56.1943L23.8071 56.1943L23.8071 58.0652C23.7141 58.1846 23.6008 58.2879 23.4761 58.3705L23.4739 58.3659Z" fill="#989898" style="fill:#989898;fill:color(display-p3 0.5961 0.5961 0.5961);fill-opacity:1;"/>
<path d="M26.4612 54.2936C26.6697 54.2867 26.8783 54.328 27.0686 54.413C27.2273 54.4864 27.3678 54.5943 27.4789 54.7298C27.5854 54.8606 27.6648 55.0121 27.7101 55.1774C27.7577 55.3404 27.7826 55.5103 27.7826 55.6801C27.7826 55.7972 27.7645 55.9143 27.7327 56.0245C27.6988 56.1392 27.6534 56.2517 27.5922 56.355C27.531 56.4606 27.4562 56.5593 27.3701 56.6465C27.284 56.7361 27.1842 56.8141 27.0754 56.8784L27.8461 58.6597L26.7831 58.6597L26.1326 57.0506L25.5183 57.0506L25.5183 58.6597L24.5233 58.6597L24.5233 54.2936L26.4635 54.2936L26.4612 54.2936ZM25.516 56.1691L26.2549 56.1691C26.4023 56.1828 26.5473 56.1301 26.6516 56.0268C26.7332 55.9303 26.7763 55.8064 26.774 55.6801C26.7876 55.4207 26.5927 55.2004 26.3365 55.1866C26.3093 55.1866 26.2821 55.1866 26.2527 55.1889L25.5138 55.1889L25.5138 56.1714L25.516 56.1691Z" fill="#989898" style="fill:#989898;fill:color(display-p3 0.5961 0.5961 0.5961);fill-opacity:1;"/>
<path d="M31.6494 57.2801C31.6539 57.4982 31.6086 57.7117 31.5111 57.9068C31.4227 58.0813 31.2958 58.2328 31.1417 58.3498C30.9807 58.4715 30.7994 58.561 30.6045 58.6161C30.396 58.6758 30.1784 58.7057 29.9608 58.7057C29.7432 58.7057 29.5279 58.6758 29.3216 58.6161C29.129 58.561 28.9454 58.4715 28.7844 58.3498C28.628 58.2328 28.5011 58.0813 28.4127 57.9068C28.3175 57.7117 28.2699 57.4959 28.2745 57.2801L28.2745 55.6388C28.2677 55.423 28.3198 55.2072 28.424 55.0167C28.5215 54.8468 28.6552 54.6999 28.8139 54.5851C28.9771 54.4704 29.1607 54.3831 29.3533 54.3326C29.5505 54.2775 29.7545 54.25 29.9585 54.25C30.1648 54.25 30.3688 54.2798 30.5682 54.3395C30.7631 54.3946 30.9467 54.4841 31.1122 54.6035C31.2731 54.7183 31.4046 54.8698 31.4998 55.0443C31.6018 55.2371 31.6516 55.4529 31.6471 55.6709L31.6471 57.2801L31.6494 57.2801ZM30.6544 55.8592C30.6566 55.749 30.6362 55.6388 30.5909 55.5378C30.5546 55.4575 30.5002 55.3863 30.4322 55.3289C30.3665 55.2761 30.2917 55.2348 30.2101 55.2118C30.1308 55.1866 30.0492 55.1751 29.9653 55.1728C29.8815 55.1728 29.7976 55.1866 29.7183 55.2118C29.6367 55.2371 29.5619 55.2761 29.4961 55.3289C29.4259 55.384 29.3715 55.4575 29.3329 55.5378C29.2876 55.6388 29.2672 55.749 29.2695 55.8592L29.2695 57.0942C29.2649 57.2044 29.2876 57.3146 29.3329 57.4156C29.3715 57.4959 29.4259 57.5694 29.4961 57.6245C29.5619 57.6772 29.6367 57.7163 29.7183 57.7415C29.7976 57.7668 29.8815 57.7805 29.9653 57.7805C30.0492 57.7805 30.1308 57.7668 30.2101 57.7415C30.2917 57.7186 30.3665 57.6772 30.4322 57.6245C30.5002 57.5671 30.5546 57.4959 30.5909 57.4156C30.6362 57.3146 30.6566 57.2044 30.6544 57.0942L30.6544 55.8592Z" fill="#989898" style="fill:#989898;fill:color(display-p3 0.5961 0.5961 0.5961);fill-opacity:1;"/>
<path d="M35.6045 57.8999C35.5116 58.0744 35.3801 58.2282 35.2237 58.3475C35.0606 58.4692 34.8792 58.561 34.6843 58.6161C34.4826 58.6758 34.2741 58.7057 34.0633 58.7057C33.8525 58.7057 33.6439 58.6781 33.4422 58.6207C33.2473 58.5679 33.066 58.4807 32.9028 58.3613C32.7464 58.2465 32.6149 58.0973 32.522 57.9252C32.4223 57.7323 32.3724 57.5189 32.3792 57.3008L32.3792 54.2936L33.3742 54.2936L33.3742 57.108C33.372 57.2181 33.3924 57.3283 33.4377 57.427C33.4762 57.5074 33.5306 57.5808 33.6009 57.6359C33.6666 57.6887 33.7414 57.7278 33.823 57.753C33.9023 57.7783 33.9862 57.792 34.0701 57.792C34.1539 57.792 34.2355 57.7783 34.3149 57.753C34.3965 57.73 34.4712 57.6887 34.537 57.6359C34.605 57.5785 34.6594 57.5074 34.6956 57.427C34.741 57.326 34.7614 57.2181 34.7591 57.108L34.7591 54.2936L35.7541 54.2936L35.7541 57.2732C35.7587 57.4913 35.7111 57.7071 35.6113 57.8999L35.6045 57.8999Z" fill="#989898" style="fill:#989898;fill:color(display-p3 0.5961 0.5961 0.5961);fill-opacity:1;"/>
<path d="M38.3924 54.2936C38.6055 54.2867 38.8162 54.328 39.0134 54.4107C39.1744 54.4818 39.3194 54.5897 39.4328 54.7252C39.5415 54.856 39.6209 55.0052 39.6707 55.1682C39.7206 55.3335 39.7455 55.508 39.7455 55.6824C39.7455 55.8569 39.7161 56.0313 39.6549 56.1966C39.5302 56.5364 39.2764 56.8095 38.95 56.9542C38.7641 57.0345 38.5624 57.0758 38.3607 57.0712L37.5016 57.0712L37.5016 58.662L36.5066 58.662L36.5066 54.2936L38.3924 54.2936ZM37.4994 56.176L38.2315 56.176C38.3788 56.192 38.5261 56.1392 38.6327 56.0313C38.712 55.9326 38.7551 55.8087 38.7505 55.6824C38.7528 55.5562 38.712 55.4322 38.6349 55.3335C38.5284 55.2256 38.3811 55.1728 38.2315 55.1889L37.4994 55.1889L37.4994 56.1783L37.4994 56.176Z" fill="#989898" style="fill:#989898;fill:color(display-p3 0.5961 0.5961 0.5961);fill-opacity:1;"/>
<path opacity="0.6" d="M88.9294 53.3926L88.6731 53.3926L88.6731 52.9956L87.4426 52.9956L87.4426 53.3926L87.1863 53.3926L87.1863 52.7656L87.3635 52.7656C87.4778 52.5771 87.5627 52.3599 87.6184 52.1138C87.675 51.8667 87.7034 51.6167 87.7034 51.3638L88.7317 51.3638L88.7317 52.7656L88.9294 52.7656L88.9294 53.3926ZM88.4563 52.7656L88.4563 51.5952L87.9626 51.5952C87.9499 51.8403 87.9123 52.064 87.8498 52.2661C87.7873 52.4683 87.7156 52.6348 87.6345 52.7656L88.4563 52.7656ZM90.7501 53L90.4747 53L90.4747 51.5952L89.8639 51.5952C89.861 51.6763 89.858 51.7544 89.8551 51.8296C89.8522 51.9048 89.8492 51.9727 89.8463 52.0332C89.8395 52.1963 89.8282 52.3267 89.8126 52.4243C89.797 52.521 89.7765 52.6016 89.7511 52.666C89.7277 52.7266 89.7013 52.7759 89.672 52.814C89.6437 52.8511 89.6129 52.8848 89.5797 52.915C89.5465 52.9443 89.5094 52.9663 89.4684 52.981C89.4283 52.9956 89.3844 53.0029 89.3365 53.0029C89.3199 53.0029 89.2955 53.0024 89.2633 53.0015C89.2321 53.0005 89.2115 53 89.2018 53L89.2018 52.7598L89.2164 52.7598C89.2242 52.7598 89.2355 52.7603 89.2501 52.7612C89.2648 52.7622 89.277 52.7627 89.2867 52.7627C89.3102 52.7627 89.3341 52.7593 89.3585 52.7524C89.3839 52.7456 89.4054 52.7329 89.423 52.7144C89.4728 52.6655 89.5128 52.583 89.5431 52.4668C89.5734 52.3506 89.5934 52.1826 89.6031 51.9629C89.6071 51.8828 89.6105 51.7881 89.6134 51.6787C89.6173 51.5684 89.6207 51.4634 89.6237 51.3638L90.7501 51.3638L90.7501 53ZM92.6704 53L92.395 53L92.395 52.3511L92.0713 52.3511L91.5645 53L91.2407 53L91.7915 52.3247C91.6499 52.2856 91.5464 52.2261 91.481 52.146C91.4155 52.0649 91.3828 51.959 91.3828 51.8281C91.3828 51.7412 91.4023 51.6675 91.4414 51.6069C91.4805 51.5464 91.5298 51.4971 91.5894 51.459C91.6479 51.4219 91.7153 51.397 91.7915 51.3843C91.8677 51.3706 91.9507 51.3638 92.0405 51.3638L92.6704 51.3638L92.6704 53ZM92.395 52.1343L92.395 51.5835L92.0479 51.5835C91.9727 51.5835 91.9185 51.5859 91.8853 51.5908C91.8521 51.5957 91.8159 51.6089 91.7769 51.6304C91.7388 51.6519 91.7104 51.6812 91.6919 51.7183C91.6743 51.7544 91.6655 51.7939 91.6655 51.8369C91.6655 51.8906 91.6709 51.9341 91.6816 51.9673C91.6934 52.0005 91.7168 52.0317 91.752 52.061C91.7881 52.0894 91.832 52.1089 91.8838 52.1196C91.9355 52.1294 91.9932 52.1343 92.0566 52.1343L92.395 52.1343ZM73.0983 55.1826C73.0983 55.4492 73.03 55.6597 72.8933 55.814C72.7565 55.9683 72.5734 56.0454 72.3439 56.0454C72.1125 56.0454 71.9284 55.9683 71.7917 55.814C71.656 55.6597 71.5881 55.4492 71.5881 55.1826C71.5881 54.916 71.656 54.7056 71.7917 54.5513C71.9284 54.396 72.1125 54.3184 72.3439 54.3184C72.5734 54.3184 72.7565 54.396 72.8933 54.5513C73.03 54.7056 73.0983 54.916 73.0983 55.1826ZM72.8142 55.1826C72.8142 54.9707 72.7727 54.8135 72.6896 54.7109C72.6066 54.6074 72.4914 54.5557 72.3439 54.5557C72.1945 54.5557 72.0783 54.6074 71.9953 54.7109C71.9133 54.8135 71.8723 54.9707 71.8723 55.1826C71.8723 55.3877 71.9138 55.5435 71.9968 55.6499C72.0798 55.7554 72.1955 55.8081 72.3439 55.8081C72.4904 55.8081 72.6052 55.7559 72.6882 55.6514C72.7722 55.5459 72.8142 55.3896 72.8142 55.1826ZM75.0157 56L74.7403 56L74.7403 54.6011L73.9215 54.6011L73.9215 56L73.6461 56L73.6461 54.3638L75.0157 54.3638L75.0157 56ZM76.8818 54.6055L76.29 54.6055L76.29 56L76.0146 56L76.0146 54.6055L75.4228 54.6055L75.4228 54.3638L76.8818 54.3638L76.8818 54.6055ZM78.6659 56L78.3934 56L78.3934 54.771L77.5365 56L77.2874 56L77.2874 54.3638L77.5599 54.3638L77.5599 55.5752L78.408 54.3638L78.6659 54.3638L78.6659 56ZM80.8762 56L80.6037 56L80.6037 54.708L80.1965 55.5488L79.9914 55.5488L79.5871 54.708L79.5871 56L79.3293 56L79.3293 54.3638L79.6618 54.3638L80.1071 55.2793L80.5378 54.3638L80.8762 54.3638L80.8762 56ZM82.9166 56L82.6441 56L82.6441 54.771L81.7872 56L81.5382 56L81.5382 54.3638L81.8106 54.3638L81.8106 55.5752L82.6588 54.3638L82.9166 54.3638L82.9166 56ZM84.7182 55.5415C84.7182 55.6333 84.6968 55.7109 84.6538 55.7744C84.6118 55.8379 84.5576 55.8892 84.4912 55.9282C84.4248 55.9663 84.3515 55.9941 84.2715 56.0117C84.1914 56.0293 84.1113 56.0381 84.0312 56.0381C83.9179 56.0381 83.81 56.0273 83.7075 56.0059C83.605 55.9844 83.5039 55.9512 83.4043 55.9062L83.4043 55.6045L83.4233 55.6045C83.4946 55.667 83.5854 55.7153 83.6958 55.7495C83.8061 55.7837 83.9131 55.8008 84.0166 55.8008C84.0654 55.8008 84.1157 55.7964 84.1675 55.7876C84.2192 55.7778 84.2641 55.7627 84.3022 55.7422C84.3432 55.7187 84.376 55.6909 84.4004 55.6587C84.4248 55.6255 84.437 55.5806 84.437 55.5239C84.437 55.4653 84.4248 55.4185 84.4004 55.3833C84.3769 55.3481 84.3447 55.3218 84.3037 55.3042C84.2637 55.2866 84.2153 55.2759 84.1587 55.272C84.102 55.2681 84.0503 55.2661 84.0034 55.2661L83.7646 55.2661L83.7646 55.0288L83.9302 55.0288C83.9692 55.0288 84.02 55.0273 84.0825 55.0244C84.146 55.0215 84.1972 55.0137 84.2363 55.001C84.2871 54.9844 84.3271 54.9609 84.3564 54.9307C84.3867 54.9004 84.4018 54.8521 84.4018 54.7856C84.4018 54.7397 84.3901 54.7021 84.3667 54.6729C84.3432 54.6426 84.3139 54.6191 84.2788 54.6025C84.2427 54.5859 84.2021 54.5747 84.1572 54.5688C84.1133 54.563 84.0742 54.5601 84.04 54.5601C83.9404 54.5601 83.8423 54.5737 83.7456 54.6011C83.6499 54.6274 83.5693 54.666 83.5039 54.7168L83.4848 54.7168L83.4848 54.4136C83.5659 54.3872 83.6528 54.3657 83.7456 54.3491C83.8384 54.3325 83.9311 54.3242 84.0239 54.3242C84.1001 54.3242 84.1758 54.3311 84.251 54.3447C84.3271 54.3584 84.3979 54.3818 84.4634 54.415C84.5278 54.4482 84.5805 54.4937 84.6216 54.5513C84.6626 54.6079 84.6831 54.6782 84.6831 54.7622C84.6831 54.8481 84.6562 54.9238 84.6025 54.9893C84.5498 55.0537 84.4785 55.1001 84.3887 55.1284L84.3887 55.1387C84.4892 55.1631 84.5693 55.209 84.6289 55.2764C84.6885 55.3428 84.7182 55.4312 84.7182 55.5415ZM86.5448 56L86.2709 56L86.2709 55.8257C86.2464 55.8423 86.2132 55.8657 86.1713 55.896C86.1302 55.9253 86.0902 55.9487 86.0511 55.9663C86.0052 55.9888 85.9525 56.0073 85.8929 56.022C85.8334 56.0376 85.7635 56.0454 85.6835 56.0454C85.536 56.0454 85.411 55.9966 85.3085 55.8989C85.2059 55.8013 85.1546 55.6768 85.1546 55.5254C85.1546 55.4014 85.181 55.3013 85.2338 55.2251C85.2875 55.1479 85.3636 55.0874 85.4623 55.0435C85.5619 54.9995 85.6815 54.9697 85.8212 54.9541C85.9608 54.9385 86.1107 54.9268 86.2709 54.9189L86.2709 54.8765C86.2709 54.814 86.2596 54.7622 86.2372 54.7212C86.2157 54.6802 86.1844 54.6479 86.1434 54.6245C86.1044 54.6021 86.0575 54.5869 86.0028 54.5791C85.9481 54.5713 85.891 54.5674 85.8314 54.5674C85.7591 54.5674 85.6786 54.5771 85.5897 54.5967C85.5008 54.6152 85.409 54.6426 85.3143 54.6787L85.2997 54.6787L85.2997 54.3989C85.3534 54.3843 85.431 54.3682 85.5326 54.3506C85.6341 54.333 85.7342 54.3242 85.8329 54.3242C85.9481 54.3242 86.0482 54.334 86.1332 54.3535C86.2191 54.3721 86.2933 54.4043 86.3558 54.4502C86.4173 54.4951 86.4642 54.5532 86.4964 54.6245C86.5287 54.6958 86.5448 54.7842 86.5448 54.8896L86.5448 56ZM86.2709 55.5972L86.2709 55.1416C86.1869 55.1465 86.0878 55.1538 85.9735 55.1636C85.8602 55.1733 85.7704 55.1875 85.704 55.2061C85.6249 55.2285 85.5609 55.2637 85.5121 55.3115C85.4632 55.3584 85.4388 55.4233 85.4388 55.5063C85.4388 55.6001 85.4671 55.6709 85.5238 55.7187C85.5804 55.7656 85.6669 55.7891 85.7831 55.7891C85.8797 55.7891 85.9681 55.7705 86.0482 55.7334C86.1283 55.6953 86.2025 55.6499 86.2709 55.5972ZM88.4929 56L87.1951 56L87.1951 54.3638L87.4705 54.3638L87.4705 55.7627L88.2761 55.7627L88.2761 54.3638L88.5515 54.3638L88.5515 55.7627L88.7493 55.7627L88.7493 56.3926L88.4929 56.3926L88.4929 56ZM90.6271 56L90.3546 56L90.3546 54.771L89.4977 56L89.2487 56L89.2487 54.3638L89.5211 54.3638L89.5211 55.5752L90.3693 54.3638L90.6271 54.3638L90.6271 56ZM92.6689 56L92.3965 56L92.3965 54.771L91.5396 56L91.2905 56L91.2905 54.3638L91.563 54.3638L91.563 55.5752L92.4111 54.3638L92.6689 54.3638L92.6689 56ZM81.2527 57.6055C81.321 57.6738 81.3728 57.7568 81.4079 57.8545C81.4431 57.9512 81.4607 58.0649 81.4607 58.1958C81.4607 58.4399 81.3874 58.6426 81.2409 58.8037C81.0945 58.9648 80.9143 59.0454 80.7004 59.0454C80.5949 59.0454 80.4978 59.0278 80.4089 58.9927C80.32 58.9565 80.2444 58.9014 80.1819 58.8271C80.1037 58.7344 80.0451 58.6177 80.0061 58.477C79.968 58.3354 79.9489 58.1631 79.9489 57.96C79.9489 57.8867 79.9524 57.8125 79.9592 57.7373C79.966 57.6611 79.9817 57.5703 80.0061 57.4648C80.0256 57.374 80.0539 57.2866 80.091 57.2026C80.1291 57.1187 80.174 57.0508 80.2258 56.999C80.2961 56.9277 80.3884 56.8706 80.5027 56.8276C80.6179 56.7837 80.7702 56.7534 80.9597 56.7368C81.0368 56.73 81.1086 56.7246 81.175 56.7207C81.2414 56.7158 81.301 56.7114 81.3537 56.7075L81.3537 56.9609C81.2893 56.9648 81.2253 56.9687 81.1618 56.9727C81.0993 56.9766 81.0368 56.9814 80.9743 56.9873C80.8493 56.998 80.7361 57.0186 80.6345 57.0488C80.5339 57.0791 80.4602 57.1182 80.4133 57.166C80.3615 57.2178 80.3225 57.2856 80.2961 57.3696C80.2707 57.4526 80.2541 57.5317 80.2463 57.6069C80.3196 57.5542 80.3996 57.5103 80.4865 57.4751C80.5744 57.439 80.6677 57.4209 80.7663 57.4209C80.8581 57.4209 80.9465 57.436 81.0315 57.4663C81.1164 57.4966 81.1902 57.543 81.2527 57.6055ZM81.1809 58.2119C81.1809 58.0312 81.1374 57.8965 81.0505 57.8076C80.9636 57.7178 80.8488 57.6729 80.7063 57.6729C80.6213 57.6729 80.5398 57.6865 80.4616 57.7139C80.3835 57.7402 80.3093 57.7759 80.239 57.8208C80.237 57.8452 80.2351 57.874 80.2331 57.9072C80.2321 57.9395 80.2317 57.9692 80.2317 57.9966C80.2317 58.1665 80.2458 58.3042 80.2741 58.4097C80.3025 58.5151 80.3425 58.5991 80.3943 58.6616C80.4392 58.7144 80.488 58.752 80.5407 58.7744C80.5935 58.7959 80.6501 58.8066 80.7107 58.8066C80.8581 58.8066 80.9734 58.7534 81.0564 58.647C81.1394 58.5405 81.1809 58.3955 81.1809 58.2119ZM83.3912 59L83.1188 59L83.1188 57.771L82.2618 59L82.0128 59L82.0128 57.3638L82.2853 57.3638L82.2853 58.5752L83.1334 57.3638L83.3912 57.3638L83.3912 59ZM85.1929 58.5415C85.1929 58.6333 85.1714 58.7109 85.1284 58.7744C85.0864 58.8379 85.0322 58.8892 84.9658 58.9282C84.8994 58.9663 84.8262 58.9941 84.7461 59.0117C84.666 59.0293 84.5859 59.0381 84.5058 59.0381C84.3926 59.0381 84.2846 59.0273 84.1821 59.0059C84.0796 58.9844 83.9785 58.9512 83.8789 58.9062L83.8789 58.6045L83.8979 58.6045C83.9692 58.667 84.06 58.7153 84.1704 58.7495C84.2807 58.7837 84.3877 58.8008 84.4912 58.8008C84.54 58.8008 84.5903 58.7964 84.6421 58.7876C84.6938 58.7778 84.7388 58.7627 84.7768 58.7422C84.8179 58.7187 84.8506 58.6909 84.875 58.6587C84.8994 58.6255 84.9116 58.5806 84.9116 58.5239C84.9116 58.4653 84.8994 58.4185 84.875 58.3833C84.8515 58.3481 84.8193 58.3218 84.7783 58.3042C84.7383 58.2866 84.6899 58.2759 84.6333 58.272C84.5766 58.2681 84.5249 58.2661 84.478 58.2661L84.2392 58.2661L84.2392 58.0288L84.4048 58.0288C84.4438 58.0288 84.4946 58.0273 84.5571 58.0244C84.6206 58.0215 84.6719 58.0137 84.7109 58.001C84.7617 57.9844 84.8017 57.9609 84.831 57.9307C84.8613 57.9004 84.8764 57.852 84.8764 57.7856C84.8764 57.7397 84.8647 57.7021 84.8413 57.6729C84.8179 57.6426 84.7886 57.6191 84.7534 57.6025C84.7173 57.5859 84.6767 57.5747 84.6318 57.5688C84.5879 57.563 84.5488 57.5601 84.5146 57.5601C84.415 57.5601 84.3169 57.5737 84.2202 57.6011C84.1245 57.6274 84.0439 57.666 83.9785 57.7168L83.9595 57.7168L83.9595 57.4136C84.0405 57.3872 84.1274 57.3657 84.2202 57.3491C84.313 57.3325 84.4057 57.3242 84.4985 57.3242C84.5747 57.3242 84.6504 57.3311 84.7256 57.3447C84.8017 57.3584 84.8725 57.3818 84.938 57.415C85.0024 57.4482 85.0552 57.4937 85.0962 57.5513C85.1372 57.6079 85.1577 57.6782 85.1577 57.7622C85.1577 57.8481 85.1308 57.9238 85.0771 57.9893C85.0244 58.0537 84.9531 58.1001 84.8633 58.1284L84.8633 58.1387C84.9638 58.1631 85.0439 58.209 85.1035 58.2764C85.1631 58.3428 85.1929 58.4312 85.1929 58.5415ZM87.1175 59L86.8421 59L86.8421 58.2632L86.0233 58.2632L86.0233 59L85.7479 59L85.7479 57.3638L86.0233 57.3638L86.0233 58.0259L86.8421 58.0259L86.8421 57.3638L87.1175 57.3638L87.1175 59ZM89.1506 58.2104L87.9451 58.2104C87.9451 58.311 87.9602 58.3989 87.9905 58.4741C88.0207 58.5483 88.0622 58.6094 88.115 58.6572C88.1658 58.7041 88.2258 58.7393 88.2952 58.7627C88.3655 58.7861 88.4426 58.7979 88.5266 58.7979C88.6379 58.7979 88.7497 58.7759 88.8621 58.7319C88.9753 58.687 89.0559 58.6431 89.1038 58.6001L89.1184 58.6001L89.1184 58.9004C89.0256 58.9395 88.9309 58.9722 88.8342 58.9985C88.7375 59.0249 88.636 59.0381 88.5295 59.0381C88.258 59.0381 88.0461 58.9648 87.8938 58.8184C87.7414 58.6709 87.6653 58.4619 87.6653 58.1914C87.6653 57.9238 87.738 57.7114 87.8835 57.5542C88.03 57.397 88.2224 57.3184 88.4607 57.3184C88.6814 57.3184 88.8513 57.3828 88.9705 57.5117C89.0906 57.6406 89.1506 57.8237 89.1506 58.061L89.1506 58.2104ZM88.8826 57.9995C88.8816 57.855 88.845 57.7432 88.7727 57.6641C88.7014 57.585 88.5925 57.5454 88.446 57.5454C88.2986 57.5454 88.1809 57.5889 88.093 57.6758C88.0061 57.7627 87.9568 57.8706 87.9451 57.9995L88.8826 57.9995ZM90.9127 58.8975C90.8004 58.9502 90.7037 58.9863 90.6227 59.0059C90.5426 59.0264 90.4625 59.0366 90.3824 59.0366C90.2633 59.0366 90.1539 59.0195 90.0543 58.9854C89.9547 58.9502 89.8693 58.8975 89.798 58.8271C89.7267 58.7568 89.671 58.668 89.631 58.5605C89.5919 58.4531 89.5724 58.3276 89.5724 58.1841C89.5724 57.9233 89.6446 57.7153 89.7892 57.5601C89.9337 57.4038 90.1315 57.3257 90.3824 57.3257C90.4772 57.3257 90.5699 57.3389 90.6608 57.3652C90.7526 57.3916 90.8365 57.4238 90.9127 57.4619L90.9127 57.7681L90.8966 57.7681C90.8058 57.6987 90.7159 57.6475 90.6271 57.6143C90.5392 57.5811 90.4537 57.5645 90.3707 57.5645C90.2076 57.5645 90.0812 57.6191 89.9913 57.7285C89.9025 57.8379 89.858 57.9897 89.858 58.1841C89.858 58.3784 89.9025 58.5293 89.9913 58.6367C90.0802 58.7441 90.2067 58.7979 90.3707 58.7979C90.4283 58.7979 90.4855 58.7905 90.5421 58.7759C90.5997 58.7612 90.652 58.7422 90.6988 58.7187C90.736 58.7002 90.774 58.6782 90.8131 58.6528C90.8531 58.6265 90.881 58.6069 90.8966 58.5942L90.9127 58.5942L90.9127 58.8975ZM92.6821 59L92.4082 59L92.4082 58.8257C92.3838 58.8423 92.3506 58.8657 92.3086 58.896C92.2676 58.9253 92.2275 58.9487 92.1885 58.9663C92.1426 58.9888 92.0898 59.0073 92.0303 59.022C91.9707 59.0376 91.9009 59.0454 91.8208 59.0454C91.6733 59.0454 91.5483 58.9966 91.4458 58.8989C91.3433 58.8013 91.292 58.6768 91.292 58.5254C91.292 58.4014 91.3184 58.3013 91.3711 58.2251C91.4248 58.1479 91.501 58.0874 91.5996 58.0435C91.6992 57.9995 91.8188 57.9697 91.9585 57.9541C92.0981 57.9385 92.248 57.9268 92.4082 57.9189L92.4082 57.8765C92.4082 57.814 92.397 57.7622 92.3745 57.7212C92.353 57.6802 92.3218 57.6479 92.2808 57.6245C92.2417 57.602 92.1948 57.5869 92.1401 57.5791C92.0855 57.5713 92.0283 57.5674 91.9688 57.5674C91.8965 57.5674 91.8159 57.5771 91.7271 57.5967C91.6382 57.6152 91.5464 57.6426 91.4517 57.6787L91.437 57.6787L91.437 57.3989C91.4907 57.3843 91.5684 57.3682 91.6699 57.3506C91.7715 57.333 91.8716 57.3242 91.9702 57.3242C92.0855 57.3242 92.1855 57.334 92.2705 57.3535C92.3564 57.3721 92.4307 57.4043 92.4932 57.4502C92.5547 57.4951 92.6016 57.5532 92.6338 57.6245C92.666 57.6958 92.6821 57.7842 92.6821 57.8896L92.6821 59ZM92.4082 58.5972L92.4082 58.1416C92.3242 58.1465 92.2251 58.1538 92.1108 58.1636C91.9976 58.1733 91.9077 58.1875 91.8413 58.2061C91.7622 58.2285 91.6982 58.2637 91.6494 58.3115C91.6006 58.3584 91.5762 58.4233 91.5762 58.5063C91.5762 58.6001 91.6045 58.6709 91.6611 58.7187C91.7178 58.7656 91.8042 58.7891 91.9204 58.7891C92.0171 58.7891 92.1055 58.7705 92.1855 58.7334C92.2656 58.6953 92.3398 58.6499 92.4082 58.5972Z" fill="#989898" style="fill:#989898;fill:color(display-p3 0.5961 0.5961 0.5961);fill-opacity:1;"/>
<line x1="20.9414" y1="62.75" x2="92.9414" y2="62.75" stroke="#D7D7D7" style="stroke:#D7D7D7;stroke:color(display-p3 0.8417 0.8417 0.8417);stroke-opacity:1;" stroke-width="0.5"/>
<path d="M20.3577 95.8147C20.6313 95.6128 20.944 95.4629 21.2957 95.3652C21.6475 95.261 22.0286 95.2089 22.439 95.2089C22.7842 95.2089 23.1002 95.2512 23.3868 95.3359C23.6734 95.4206 23.921 95.5541 24.1294 95.7365C24.3379 95.9124 24.5007 96.1372 24.618 96.4108C24.7353 96.6778 24.7939 96.997 24.7939 97.3684L24.7939 99.8894C24.7939 100.254 24.7222 100.573 24.5789 100.847C24.4356 101.114 24.2467 101.339 24.0122 101.521C23.7777 101.704 23.5073 101.84 23.2011 101.932C22.895 102.023 22.5758 102.068 22.2435 102.068C21.8527 102.068 21.4684 102.013 21.0905 101.902C20.7127 101.785 20.4 101.619 20.1525 101.404L20.8072 100.378C21.0221 100.567 21.2534 100.694 21.5009 100.759C21.7485 100.818 21.9862 100.847 22.2142 100.847C22.3836 100.847 22.5432 100.824 22.693 100.779C22.8429 100.733 22.9731 100.661 23.0839 100.564C23.1946 100.466 23.2826 100.342 23.3477 100.192C23.4129 100.036 23.4454 99.847 23.4454 99.6256L23.4454 99.0784L21.2176 99.0784L21.2176 97.9449L23.4454 97.9449L23.4454 97.6615C23.4454 97.44 23.4161 97.2511 23.3575 97.0948C23.2989 96.9384 23.2142 96.8114 23.1034 96.7137C22.9992 96.616 22.8722 96.5443 22.7223 96.4987C22.579 96.4531 22.4227 96.4303 22.2533 96.4303C22.0384 96.4303 21.8234 96.4629 21.6084 96.528C21.3934 96.5932 21.1817 96.7039 20.9733 96.8602L20.3577 95.8147ZM28.0161 98.2087L28.0161 102L26.7751 102L26.7751 98.2087L25.3973 98.2087L25.3973 97.1632L29.3938 97.1632L29.3938 98.2087L28.0161 98.2087ZM32.8419 101.599C32.5488 101.769 32.285 101.886 32.0504 101.951C31.8159 102.01 31.5977 102.039 31.3958 102.039C30.9007 102.039 30.5163 101.909 30.2427 101.648C29.9756 101.381 29.8421 101.02 29.8421 100.564C29.8421 100.297 29.8975 100.072 30.0082 99.8894C30.119 99.7005 30.259 99.5474 30.4284 99.4301C30.6043 99.3129 30.7964 99.2282 31.0049 99.1761C31.2134 99.124 31.412 99.0979 31.601 99.0979L32.8517 99.0979L32.8517 98.8927C32.8517 98.6647 32.7866 98.4953 32.6563 98.3846C32.526 98.2673 32.2947 98.2087 31.9625 98.2087C31.8062 98.2087 31.6107 98.2315 31.3762 98.2771C31.1482 98.3227 30.917 98.44 30.6824 98.6289L30.1255 97.7201C30.4642 97.4596 30.803 97.2902 31.1417 97.212C31.487 97.1338 31.8029 97.0948 32.0895 97.0948C32.78 97.0948 33.2882 97.2511 33.6139 97.5638C33.9396 97.8765 34.1024 98.3488 34.1024 98.9806L34.1024 102L32.9592 102L32.8712 101.609L32.8419 101.599ZM32.8615 100.016L31.8257 100.016C31.7475 100.016 31.6694 100.023 31.5912 100.036C31.5195 100.042 31.4511 100.065 31.386 100.104C31.3274 100.137 31.2785 100.186 31.2394 100.251C31.2003 100.31 31.1808 100.388 31.1808 100.485C31.1808 100.616 31.2264 100.723 31.3176 100.808C31.4153 100.886 31.5586 100.925 31.7475 100.925C31.956 100.925 32.1612 100.886 32.3631 100.808C32.5651 100.723 32.7312 100.645 32.8615 100.573L32.8615 100.016ZM38.0539 102L38.0539 98.238L36.3146 98.238L36.3146 102L35.0736 102L35.0736 97.1534L39.3046 97.1534L39.3046 102L38.0539 102ZM44.8081 102L44.8081 97.1632L46.0393 97.1632L46.0393 102L44.8081 102ZM41.4956 100.974L42.5216 100.974C42.7431 100.974 42.906 100.925 43.0102 100.827C43.1144 100.73 43.1666 100.603 43.1666 100.446C43.1666 100.316 43.1144 100.199 43.0102 100.095C42.9125 99.9838 42.7496 99.9285 42.5216 99.9285L41.4956 99.9285L41.4956 100.974ZM40.2742 102L40.2742 97.1632L41.4956 97.1632L41.4956 98.922L42.6291 98.922C43.1828 98.922 43.6095 99.0588 43.9092 99.3324C44.2153 99.606 44.3684 99.9773 44.3684 100.446C44.3684 100.642 44.3359 100.834 44.2707 101.023C44.2056 101.205 44.1046 101.371 43.9678 101.521C43.831 101.665 43.6519 101.782 43.4304 101.873C43.2154 101.958 42.9581 102 42.6584 102L40.2742 102ZM24.6669 110.31C24.6669 110.837 24.5235 111.264 24.2369 111.59C23.9503 111.909 23.5269 112.068 22.9666 112.068C22.7973 112.068 22.5953 112.052 22.3608 112.02C22.1328 111.987 21.9016 111.909 21.667 111.785L21.667 113.935L20.4261 113.935L20.4261 107.173L21.5693 107.173L21.667 107.613C21.9406 107.443 22.1979 107.32 22.439 107.241C22.68 107.163 22.8852 107.124 23.0546 107.124C23.5757 107.124 23.9731 107.267 24.2467 107.554C24.5268 107.841 24.6669 108.287 24.6669 108.893L24.6669 110.31ZM23.4063 109C23.4063 108.72 23.3477 108.531 23.2305 108.433C23.1132 108.329 22.9699 108.277 22.8005 108.277C22.7223 108.277 22.6344 108.29 22.5367 108.316C22.4455 108.336 22.3478 108.365 22.2435 108.404C22.1393 108.443 22.0384 108.489 21.9406 108.541C21.8429 108.587 21.7517 108.639 21.667 108.697L21.667 110.622C21.8885 110.726 22.0807 110.798 22.2435 110.837C22.4064 110.87 22.5627 110.886 22.7126 110.886C22.9015 110.893 23.0643 110.84 23.2011 110.73C23.3379 110.619 23.4063 110.427 23.4063 110.153L23.4063 109ZM28.462 111.599C28.1688 111.769 27.905 111.886 27.6705 111.951C27.436 112.01 27.2177 112.039 27.0158 112.039C26.5207 112.039 26.1364 111.909 25.8628 111.648C25.5957 111.381 25.4622 111.02 25.4622 110.564C25.4622 110.297 25.5175 110.072 25.6283 109.889C25.739 109.7 25.8791 109.547 26.0484 109.43C26.2243 109.313 26.4165 109.228 26.625 109.176C26.8334 109.124 27.0321 109.098 27.221 109.098L28.4717 109.098L28.4717 108.893C28.4717 108.665 28.4066 108.495 28.2763 108.385C28.146 108.267 27.9148 108.209 27.5825 108.209C27.4262 108.209 27.2308 108.231 26.9963 108.277C26.7683 108.323 26.537 108.44 26.3025 108.629L25.7455 107.72C26.0843 107.46 26.423 107.29 26.7618 107.212C27.107 107.134 27.4229 107.095 27.7096 107.095C28.4001 107.095 28.9082 107.251 29.2339 107.564C29.5596 107.876 29.7225 108.349 29.7225 108.981L29.7225 112L28.5792 112L28.4913 111.609L28.462 111.599ZM28.4815 110.016L27.4457 110.016C27.3676 110.016 27.2894 110.023 27.2112 110.036C27.1396 110.042 27.0712 110.065 27.006 110.104C26.9474 110.137 26.8986 110.186 26.8595 110.251C26.8204 110.31 26.8008 110.388 26.8008 110.485C26.8008 110.616 26.8464 110.723 26.9376 110.808C27.0354 110.886 27.1787 110.925 27.3676 110.925C27.576 110.925 27.7812 110.886 27.9832 110.808C28.1851 110.723 28.3512 110.645 28.4815 110.573L28.4815 110.016ZM31.9737 107.681C32.0389 107.629 32.1138 107.583 32.1985 107.544C32.2831 107.505 32.3711 107.473 32.4623 107.447C32.5535 107.414 32.6447 107.391 32.7359 107.378C32.8271 107.365 32.9118 107.359 32.9899 107.359C33.2701 107.359 33.5241 107.398 33.7521 107.476C33.9866 107.547 34.1853 107.658 34.3482 107.808C34.511 107.958 34.6381 108.15 34.7293 108.385C34.8205 108.619 34.8661 108.893 34.8661 109.205L34.8661 110.222C34.8661 110.521 34.8074 110.785 34.6902 111.013C34.5729 111.241 34.4166 111.433 34.2211 111.59C34.0257 111.739 33.7977 111.853 33.5371 111.932C33.2831 112.01 33.0127 112.049 32.7261 112.049C32.4134 112.049 32.1268 112.01 31.8662 111.932C31.6057 111.853 31.3809 111.739 31.192 111.59C31.0096 111.433 30.8663 111.241 30.7621 111.013C30.6644 110.785 30.6155 110.521 30.6155 110.222L30.6155 109.049C30.6155 108.704 30.6285 108.391 30.6546 108.111C30.6806 107.831 30.723 107.577 30.7816 107.349C30.8402 107.121 30.9184 106.916 31.0161 106.733C31.1204 106.544 31.2474 106.368 31.3972 106.206C31.5014 106.088 31.622 105.984 31.7588 105.893C31.8956 105.802 32.0389 105.717 32.1887 105.639C32.3385 105.561 32.4916 105.489 32.6479 105.424C32.8108 105.359 32.9704 105.297 33.1267 105.238C33.3222 105.16 33.4981 105.092 33.6544 105.033C33.8107 104.974 33.9834 104.899 34.1723 104.808L34.5827 105.805C34.4589 105.857 34.3514 105.903 34.2602 105.942C34.169 105.981 34.0811 106.017 33.9964 106.049C33.9182 106.082 33.8401 106.114 33.7619 106.147C33.6902 106.173 33.6121 106.202 33.5274 106.235C33.3319 106.313 33.143 106.394 32.9606 106.479C32.7847 106.557 32.6251 106.652 32.4818 106.763C32.3385 106.867 32.218 106.991 32.1203 107.134C32.0291 107.277 31.9672 107.45 31.9346 107.652L31.9737 107.681ZM33.6349 109.362C33.6349 109.056 33.5469 108.837 33.371 108.707C33.2017 108.57 32.9965 108.502 32.7554 108.502C32.6512 108.502 32.5437 108.521 32.433 108.56C32.3287 108.593 32.2343 108.648 32.1496 108.727C32.0649 108.798 31.9965 108.889 31.9444 109C31.8923 109.111 31.8662 109.244 31.8662 109.401L31.8662 110.065C31.8662 110.222 31.889 110.352 31.9346 110.456C31.9868 110.56 32.0519 110.648 32.1301 110.72C32.2082 110.785 32.2994 110.834 32.4037 110.867C32.5079 110.893 32.6186 110.906 32.7359 110.906C32.8466 110.906 32.9541 110.893 33.0583 110.867C33.1691 110.834 33.2668 110.785 33.3515 110.72C33.4362 110.648 33.5046 110.56 33.5567 110.456C33.6088 110.352 33.6349 110.222 33.6349 110.065L33.6349 109.362ZM39.9328 110.28C39.9328 110.58 39.8709 110.84 39.7472 111.062C39.6299 111.283 39.4703 111.469 39.2684 111.619C39.0729 111.762 38.8482 111.87 38.5941 111.941C38.3401 112.013 38.0795 112.049 37.8124 112.049C37.5388 112.049 37.275 112.013 37.021 111.941C36.7669 111.87 36.5389 111.762 36.337 111.619C36.1415 111.469 35.9852 111.283 35.8679 111.062C35.7507 110.84 35.692 110.58 35.692 110.28L35.692 108.883C35.692 108.583 35.7507 108.323 35.8679 108.101C35.9917 107.88 36.1513 107.697 36.3467 107.554C36.5487 107.404 36.7767 107.293 37.0307 107.222C37.2913 107.144 37.5551 107.105 37.8222 107.105C38.1088 107.105 38.3792 107.144 38.6332 107.222C38.8938 107.293 39.1185 107.404 39.3075 107.554C39.5029 107.704 39.656 107.893 39.7667 108.121C39.8775 108.342 39.9328 108.603 39.9328 108.902L39.9328 110.28ZM38.6919 109.098C38.6919 108.942 38.6658 108.811 38.6137 108.707C38.5616 108.603 38.4932 108.518 38.4085 108.453C38.3238 108.381 38.2293 108.332 38.1251 108.306C38.0274 108.274 37.9264 108.258 37.8222 108.258C37.718 108.258 37.6105 108.274 37.4998 108.306C37.3955 108.332 37.3011 108.381 37.2164 108.453C37.1317 108.518 37.0633 108.603 37.0112 108.707C36.9591 108.811 36.933 108.942 36.933 109.098L36.933 110.055C36.933 110.212 36.9558 110.345 37.0014 110.456C37.0535 110.56 37.1219 110.648 37.2066 110.72C37.2913 110.785 37.3858 110.834 37.49 110.867C37.5942 110.893 37.705 110.906 37.8222 110.906C37.9264 110.906 38.0274 110.893 38.1251 110.867C38.2293 110.834 38.3238 110.785 38.4085 110.72C38.4932 110.648 38.5616 110.56 38.6137 110.456C38.6658 110.345 38.6919 110.212 38.6919 110.055L38.6919 109.098ZM43.0358 108.209L43.0358 112L41.7948 112L41.7948 108.209L40.417 108.209L40.417 107.163L44.4135 107.163L44.4135 108.209L43.0358 108.209ZM49.4935 112L49.4935 107.163L50.7246 107.163L50.7246 112L49.4935 112ZM46.1809 110.974L47.2069 110.974C47.4284 110.974 47.5913 110.925 47.6955 110.827C47.7997 110.73 47.8519 110.603 47.8519 110.446C47.8519 110.316 47.7997 110.199 47.6955 110.095C47.5978 109.984 47.4349 109.928 47.2069 109.928L46.1809 109.928L46.1809 110.974ZM44.9595 112L44.9595 107.163L46.1809 107.163L46.1809 108.922L47.3144 108.922C47.8681 108.922 48.2948 109.059 48.5945 109.332C48.9007 109.606 49.0537 109.977 49.0537 110.446C49.0537 110.642 49.0212 110.834 48.956 111.023C48.8909 111.205 48.7899 111.371 48.6531 111.521C48.5163 111.665 48.3372 111.782 48.1157 111.873C47.9007 111.958 47.6434 112 47.3437 112L44.9595 112ZM23.4063 122L23.4063 118.238L21.667 118.238L21.667 122L20.4261 122L20.4261 117.153L24.6571 117.153L24.6571 122L23.4063 122ZM29.7893 120.28C29.7893 120.58 29.7274 120.84 29.6036 121.062C29.4864 121.283 29.3268 121.469 29.1248 121.619C28.9294 121.762 28.7047 121.87 28.4506 121.941C28.1965 122.013 27.936 122.049 27.6689 122.049C27.3953 122.049 27.1315 122.013 26.8774 121.941C26.6233 121.87 26.3953 121.762 26.1934 121.619C25.998 121.469 25.8416 121.283 25.7244 121.062C25.6071 120.84 25.5485 120.58 25.5485 120.28L25.5485 118.883C25.5485 118.583 25.6071 118.323 25.7244 118.101C25.8482 117.88 26.0078 117.697 26.2032 117.554C26.4051 117.404 26.6331 117.293 26.8872 117.222C27.1477 117.144 27.4116 117.105 27.6787 117.105C27.9653 117.105 28.2356 117.144 28.4897 117.222C28.7503 117.293 28.975 117.404 29.1639 117.554C29.3593 117.704 29.5124 117.893 29.6232 118.121C29.7339 118.342 29.7893 118.603 29.7893 118.902L29.7893 120.28ZM28.5483 119.098C28.5483 118.942 28.5223 118.811 28.4701 118.707C28.418 118.603 28.3496 118.518 28.2649 118.453C28.1803 118.381 28.0858 118.332 27.9816 118.306C27.8839 118.274 27.7829 118.258 27.6787 118.258C27.5744 118.258 27.4669 118.274 27.3562 118.306C27.252 118.332 27.1575 118.381 27.0728 118.453C26.9881 118.518 26.9197 118.603 26.8676 118.707C26.8155 118.811 26.7895 118.942 26.7895 119.098L26.7895 120.055C26.7895 120.212 26.8123 120.345 26.8579 120.456C26.91 120.56 26.9784 120.648 27.0631 120.72C27.1477 120.785 27.2422 120.834 27.3464 120.867C27.4507 120.893 27.5614 120.906 27.6787 120.906C27.7829 120.906 27.8839 120.893 27.9816 120.867C28.0858 120.834 28.1803 120.785 28.2649 120.72C28.3496 120.648 28.418 120.56 28.4701 120.456C28.5223 120.345 28.5483 120.212 28.5483 120.055L28.5483 119.098ZM37.2884 120.544C37.2884 120.746 37.2559 120.935 37.1907 121.111C37.1256 121.287 37.0246 121.443 36.8878 121.58C36.7575 121.71 36.5914 121.814 36.3895 121.893C36.194 121.964 35.9628 122 35.6957 122L33.1454 122L33.1454 117.163L35.6762 117.163C35.9302 117.163 36.1517 117.199 36.3406 117.271C36.536 117.336 36.6956 117.427 36.8194 117.544C36.9497 117.661 37.0442 117.802 37.1028 117.964C37.1679 118.121 37.2005 118.29 37.2005 118.473C37.2005 118.577 37.1842 118.681 37.1516 118.785C37.1191 118.889 37.0735 118.987 37.0148 119.078C36.9562 119.163 36.8878 119.241 36.8096 119.313C36.7315 119.378 36.65 119.427 36.5654 119.459L36.5654 119.469C36.7868 119.56 36.9627 119.7 37.093 119.889C37.2233 120.078 37.2884 120.297 37.2884 120.544ZM36.0182 120.495C36.0182 120.345 35.9661 120.225 35.8618 120.134C35.7576 120.042 35.6175 119.997 35.4417 119.997L34.3863 119.997L34.3863 120.994L35.4123 120.994C35.6208 120.994 35.7739 120.948 35.8716 120.857C35.9693 120.766 36.0182 120.645 36.0182 120.495ZM35.9595 118.609C35.9595 118.473 35.9107 118.368 35.813 118.297C35.7218 118.225 35.598 118.189 35.4417 118.189L34.3863 118.189L34.3863 119.01L35.4612 119.01C35.6241 119.01 35.7478 118.974 35.8325 118.902C35.9172 118.831 35.9595 118.733 35.9595 118.609ZM41.1747 122L41.1747 120.065L39.3963 120.065L39.3963 122L38.1749 122L38.1749 117.163L39.3963 117.163L39.3963 119.02L41.1747 119.02L41.1747 117.163L42.4255 117.163L42.4255 122L41.1747 122ZM44.5962 119.948L44.5962 120.104C44.5962 120.248 44.619 120.371 44.6646 120.476C44.7167 120.58 44.7819 120.665 44.8601 120.73C44.9447 120.795 45.0392 120.844 45.1434 120.876C45.2477 120.909 45.3584 120.925 45.4757 120.925C45.6125 120.925 45.7818 120.906 45.9838 120.867C46.1857 120.821 46.4007 120.707 46.6287 120.525L47.3127 121.375C47.1628 121.518 47.013 121.635 46.8632 121.726C46.7134 121.811 46.5635 121.879 46.4137 121.932C46.2639 121.977 46.1108 122.007 45.9545 122.02C45.8046 122.039 45.6515 122.049 45.4952 122.049C45.2086 122.049 44.935 122.013 44.6744 121.941C44.4203 121.87 44.1956 121.762 44.0002 121.619C43.8047 121.469 43.6484 121.283 43.5311 121.062C43.4139 120.84 43.3553 120.577 43.3553 120.27L43.3553 119.02C43.3553 118.72 43.4074 118.453 43.5116 118.218C43.6223 117.977 43.7722 117.775 43.9611 117.613C44.15 117.45 44.3682 117.326 44.6158 117.241C44.8633 117.157 45.1304 117.114 45.417 117.114C45.7167 117.114 45.9935 117.157 46.2476 117.241C46.5017 117.326 46.7199 117.45 46.9023 117.613C47.0847 117.769 47.228 117.964 47.3322 118.199C47.4364 118.433 47.4886 118.701 47.4886 119L47.4886 119.948L44.5962 119.948ZM46.2476 119.039C46.2476 118.766 46.1662 118.567 46.0033 118.443C45.8405 118.313 45.6483 118.248 45.4268 118.248C45.1988 118.248 45.0034 118.319 44.8405 118.463C44.6777 118.606 44.5962 118.811 44.5962 119.078L44.5962 119.137L46.2476 119.137L46.2476 119.039ZM50.1934 118.189L50.1348 119.137C50.1152 119.469 50.0827 119.795 50.0371 120.114C49.9915 120.433 49.9035 120.707 49.7732 120.935L51.6493 120.935L51.6493 118.189L50.1934 118.189ZM47.9851 120.945C48.0502 120.945 48.1121 120.945 48.1707 120.945C48.2359 120.945 48.2978 120.941 48.3564 120.935C48.5323 120.805 48.6658 120.606 48.757 120.339C48.8547 120.065 48.9264 119.756 48.972 119.411C49.0176 119.059 49.0469 118.691 49.0599 118.306C49.0795 117.916 49.099 117.534 49.1186 117.163L52.8512 117.163L52.8512 120.935L53.3105 120.935L53.3105 123.261L52.2063 123.261L52.2063 122L49.0892 122L49.0892 123.261L47.9851 123.261L47.9851 120.945ZM58.2942 120.31C58.2942 120.837 58.1509 121.264 57.8643 121.59C57.5776 121.909 57.1542 122.068 56.594 122.068C56.4246 122.068 56.2227 122.052 55.9882 122.02C55.7602 121.987 55.5289 121.909 55.2944 121.785L55.2944 123.935L54.0534 123.935L54.0534 117.173L55.1967 117.173L55.2944 117.613C55.568 117.443 55.8253 117.319 56.0663 117.241C56.3073 117.163 56.5125 117.124 56.6819 117.124C57.2031 117.124 57.6004 117.267 57.874 117.554C58.1541 117.841 58.2942 118.287 58.2942 118.893L58.2942 120.31ZM57.0337 119C57.0337 118.72 56.9751 118.531 56.8578 118.433C56.7405 118.329 56.5972 118.277 56.4279 118.277C56.3497 118.277 56.2617 118.29 56.164 118.316C56.0728 118.336 55.9751 118.365 55.8709 118.404C55.7667 118.443 55.6657 118.489 55.568 118.541C55.4703 118.587 55.3791 118.639 55.2944 118.697L55.2944 120.622C55.5159 120.726 55.708 120.798 55.8709 120.837C56.0338 120.87 56.1901 120.886 56.3399 120.886C56.5288 120.893 56.6917 120.84 56.8285 120.73C56.9653 120.619 57.0337 120.427 57.0337 120.153L57.0337 119ZM60.3793 119.948L60.3793 120.104C60.3793 120.248 60.4021 120.371 60.4477 120.476C60.4998 120.58 60.565 120.665 60.6432 120.73C60.7278 120.795 60.8223 120.844 60.9265 120.876C61.0308 120.909 61.1415 120.925 61.2588 120.925C61.3955 120.925 61.5649 120.906 61.7669 120.867C61.9688 120.821 62.1838 120.707 62.4118 120.525L63.0958 121.375C62.9459 121.518 62.7961 121.635 62.6463 121.726C62.4965 121.811 62.3466 121.879 62.1968 121.932C62.047 121.977 61.8939 122.007 61.7375 122.02C61.5877 122.039 61.4346 122.049 61.2783 122.049C60.9917 122.049 60.7181 122.013 60.4575 121.941C60.2034 121.87 59.9787 121.762 59.7833 121.619C59.5878 121.469 59.4315 121.283 59.3142 121.062C59.197 120.84 59.1384 120.577 59.1384 120.27L59.1384 119.02C59.1384 118.72 59.1905 118.453 59.2947 118.218C59.4054 117.977 59.5553 117.775 59.7442 117.613C59.9331 117.45 60.1513 117.326 60.3989 117.241C60.6464 117.157 60.9135 117.114 61.2001 117.114C61.4998 117.114 61.7766 117.157 62.0307 117.241C62.2847 117.326 62.503 117.45 62.6854 117.613C62.8678 117.769 63.0111 117.964 63.1153 118.199C63.2195 118.433 63.2717 118.701 63.2717 119L63.2717 119.948L60.3793 119.948ZM62.0307 119.039C62.0307 118.766 61.9493 118.567 61.7864 118.443C61.6235 118.313 61.4314 118.248 61.2099 118.248C60.9819 118.248 60.7865 118.319 60.6236 118.463C60.4608 118.606 60.3793 118.811 60.3793 119.078L60.3793 119.137L62.0307 119.137L62.0307 119.039ZM67.1491 122L67.1491 120.065L65.3707 120.065L65.3707 122L64.1493 122L64.1493 117.163L65.3707 117.163L65.3707 119.02L67.1491 119.02L67.1491 117.163L68.3998 117.163L68.3998 122L67.1491 122ZM72.3685 119.127L71.5477 120.388L70.4631 122L69.3785 122L69.3785 117.163L70.6194 117.163L70.6194 120.016L70.6683 120.016L71.3718 118.942L72.5542 117.163L73.6583 117.163L73.6583 122L72.4174 122L72.4174 119.127L72.3685 119.127ZM80.4698 120.3C80.4698 120.573 80.4177 120.821 80.3135 121.042C80.2093 121.257 80.066 121.44 79.8836 121.59C79.7012 121.739 79.4862 121.853 79.2387 121.932C78.9976 122.01 78.7371 122.049 78.4569 122.049C78.1703 122.049 77.9032 122.01 77.6557 121.932C77.4081 121.847 77.1932 121.73 77.0108 121.58C76.8284 121.43 76.6851 121.244 76.5808 121.023C76.4766 120.801 76.4245 120.554 76.4245 120.28L76.4245 120.065L75.8675 120.065L75.8675 122L74.6559 122L74.6559 117.163L75.8675 117.163L75.8675 119.029L76.4245 119.029L76.4245 118.844C76.4245 118.57 76.4799 118.326 76.5906 118.111C76.7013 117.889 76.8512 117.704 77.0401 117.554C77.229 117.404 77.444 117.29 77.685 117.212C77.9325 117.134 78.1899 117.095 78.4569 117.095C78.7305 117.095 78.9879 117.134 79.2289 117.212C79.4764 117.29 79.6914 117.404 79.8738 117.554C80.0562 117.704 80.1995 117.886 80.3037 118.101C80.4145 118.316 80.4698 118.56 80.4698 118.834L80.4698 120.3ZM79.2484 119.059C79.2484 118.753 79.1703 118.534 79.0139 118.404C78.8576 118.274 78.6719 118.209 78.4569 118.209C78.2485 118.209 78.0596 118.274 77.8902 118.404C77.7273 118.534 77.6459 118.753 77.6459 119.059L77.6459 120.114C77.6459 120.407 77.7241 120.619 77.8804 120.749C78.0433 120.873 78.2355 120.935 78.4569 120.935C78.6589 120.935 78.8413 120.873 79.0041 120.749C79.167 120.619 79.2484 120.407 79.2484 120.114L79.2484 119.059Z" fill="white" style="fill:white;fill-opacity:1;"/>
<g filter="url(#filter0_d_389_8636)">
<path d="M61.944 53.6615L51.944 53.6615C47.5625 53.6615 44.7334 52.7206 42.9758 50.963C41.2182 49.2054 40.2773 46.3763 40.2773 41.9948L40.2773 31.9948C40.2773 27.6133 41.2182 24.7842 42.9758 23.0266C44.7334 21.269 47.5625 20.3281 51.944 20.3281L61.944 20.3281C66.3255 20.3281 69.1546 21.269 70.9122 23.0266C72.6698 24.7842 73.6107 27.6133 73.6107 31.9948L73.6107 41.9948C73.6107 46.3763 72.6698 49.2054 70.9122 50.963C69.1546 52.7206 66.3255 53.6615 61.944 53.6615Z" fill="#FFD66B" style="fill:#FFD66B;fill:color(display-p3 1.0000 0.8378 0.4208);fill-opacity:1;"/>
<path d="M61.944 53.6615L51.944 53.6615C47.5625 53.6615 44.7334 52.7206 42.9758 50.963C41.2182 49.2054 40.2773 46.3763 40.2773 41.9948L40.2773 31.9948C40.2773 27.6133 41.2182 24.7842 42.9758 23.0266C44.7334 21.269 47.5625 20.3281 51.944 20.3281L61.944 20.3281C66.3255 20.3281 69.1546 21.269 70.9122 23.0266C72.6698 24.7842 73.6107 27.6133 73.6107 31.9948L73.6107 41.9948C73.6107 46.3763 72.6698 49.2054 70.9122 50.963C69.1546 52.7206 66.3255 53.6615 61.944 53.6615Z" fill="url(#paint0_linear_389_8636)" style=""/>
<path d="M61.944 53.6615L51.944 53.6615C47.5625 53.6615 44.7334 52.7206 42.9758 50.963C41.2182 49.2054 40.2773 46.3763 40.2773 41.9948L40.2773 31.9948C40.2773 27.6133 41.2182 24.7842 42.9758 23.0266C44.7334 21.269 47.5625 20.3281 51.944 20.3281L61.944 20.3281C66.3255 20.3281 69.1546 21.269 70.9122 23.0266C72.6698 24.7842 73.6107 27.6133 73.6107 31.9948L73.6107 41.9948C73.6107 46.3763 72.6698 49.2054 70.9122 50.963C69.1546 52.7206 66.3255 53.6615 61.944 53.6615Z" stroke="white" style="stroke:white;stroke-opacity:1;" stroke-width="2.5"/>
<path d="M54.5758 42.9615C54.2424 42.9615 53.9258 42.8281 53.6924 42.5948L48.9758 37.8781C48.4924 37.3948 48.4924 36.5948 48.9758 36.1115C49.4591 35.6281 50.2591 35.6281 50.7424 36.1115L54.5758 39.9448L63.1425 31.3781C63.6258 30.8948 64.4258 30.8948 64.9091 31.3781C65.3925 31.8615 65.3925 32.6615 64.9091 33.1448L55.4591 42.5948C55.2258 42.8281 54.9091 42.9615 54.5758 42.9615Z" fill="white" style="fill:white;fill-opacity:1;"/>
</g>
<defs>
<filter id="filter0_d_389_8636" x="11.9375" y="-2" width="90" height="90" filterUnits="userSpaceOnUse" color-interpolation-filters="sRGB">
<feFlood flood-opacity="0" result="BackgroundImageFix"/>
<feColorMatrix in="SourceAlpha" type="matrix" values="0 0 0 0 0 0 0 0 0 0 0 0 0 0 0 0 0 0 127 0" result="hardAlpha"/>
<feOffset dy="6"/>
<feGaussianBlur stdDeviation="12.5"/>
<feComposite in2="hardAlpha" operator="out"/>
<feColorMatrix type="matrix" values="0 0 0 0 0.27451 0 0 0 0 0.278431 0 0 0 0 0.305882 0 0 0 0.38 0"/>
<feBlend mode="multiply" in2="BackgroundImageFix" result="effect1_dropShadow_389_8636"/>
<feBlend mode="normal" in="SourceGraphic" in2="effect1_dropShadow_389_8636" result="shape"/>
</filter>
<linearGradient id="paint0_linear_389_8636" x1="56.944" y1="19.0781" x2="56.944" y2="54.9115" gradientUnits="userSpaceOnUse">
<stop stop-color="#FFD66B" style="stop-color:#FFD66B;stop-color:color(display-p3 1.0000 0.8392 0.4196);stop-opacity:1;"/>
<stop offset="1" stop-color="#FFA469" style="stop-color:#FFA469;stop-color:color(display-p3 1.0000 0.6431 0.4118);stop-opacity:1;"/>
</linearGradient>
<clipPath id="clip0_389_8636">
<rect x="19.9648" y="28.0703" width="96" height="96" rx="12" transform="rotate(12 19.9648 28.0703)" fill="white" style="fill:white;fill-opacity:1;"/>
</clipPath>
</defs>
</svg>
