<svg width="114" height="142" viewBox="0 0 114 142" fill="none" xmlns="http://www.w3.org/2000/svg">
<g clip-path="url(#clip0_389_8609)">
<rect x="19.9648" y="28" width="96" height="96" rx="12" transform="rotate(12 19.9648 28)" fill="#B9BABD" style="fill:#B9BABD;fill:color(display-p3 0.7255 0.7294 0.7412);fill-opacity:1;"/>
<path d="M29.9289 44.4814L29.3292 44.9415L29.0755 46.1353L28.1084 45.9297L29.0144 41.6676L29.9814 41.8731L29.6277 43.5372L31.3692 42.1681L32.5125 42.4111L30.7325 43.8423L31.6797 46.6865L30.5474 46.4458L29.9272 44.4787L29.9289 44.4814Z" fill="#989898" style="fill:#989898;fill:color(display-p3 0.5961 0.5961 0.5961);fill-opacity:1;"/>
<path d="M34.0368 42.7351L33.1309 46.9973L32.1638 46.7917L33.0698 42.5296L34.0368 42.7351Z" fill="#989898" style="fill:#989898;fill:color(display-p3 0.5961 0.5961 0.5961);fill-opacity:1;"/>
<path d="M37.4409 46.6072C37.4039 46.803 37.3167 46.9857 37.1875 47.1385C37.0634 47.2784 36.911 47.3888 36.7415 47.4604C36.5547 47.5378 36.3565 47.5822 36.1548 47.5885C35.9319 47.5973 35.7081 47.5778 35.4901 47.5315C35.3403 47.4997 35.1924 47.4589 35.0481 47.4118C34.9105 47.3662 34.7762 47.3048 34.6508 47.2337C34.5216 47.1594 34.4001 47.0704 34.2902 46.9698C34.1668 46.857 34.0573 46.733 33.959 46.5998L34.6547 45.9915C34.7869 46.1601 34.9469 46.3065 35.1246 46.4238C35.2843 46.528 35.4622 46.6009 35.6468 46.6425C35.7587 46.6686 35.8734 46.6813 35.9897 46.6756C36.0706 46.6741 36.1505 46.6559 36.2261 46.6252C36.2812 46.6041 36.3304 46.5677 36.3673 46.5241C36.3979 46.4885 36.4184 46.446 36.4279 46.4012C36.4403 46.343 36.4368 46.2837 36.4164 46.2279C36.3887 46.1635 36.3453 46.1074 36.2903 46.063C36.2083 45.994 36.1204 45.9309 36.0279 45.8784C35.9175 45.8128 35.7777 45.734 35.6098 45.6468C35.4436 45.5623 35.2824 45.4648 35.1307 45.3553C35.0048 45.2654 34.8946 45.1553 34.802 45.028C34.7206 44.9123 34.6643 44.7763 34.6413 44.6356C34.6164 44.4712 34.6242 44.3043 34.6634 44.1417C34.6998 43.9598 34.7753 43.7886 34.8867 43.6438C34.9944 43.5051 35.1309 43.3937 35.2881 43.3148C35.4578 43.2314 35.6411 43.1814 35.8283 43.1674C36.0443 43.1478 36.2575 43.1627 36.4668 43.2071C36.7091 43.2586 36.9445 43.3321 37.1728 43.4274C37.427 43.5423 37.6543 43.7077 37.8413 43.9113L37.2415 44.6101C37.1005 44.4608 36.9326 44.3408 36.7488 44.2526C36.5929 44.1843 36.431 44.1336 36.2636 44.098C36.1346 44.0659 36.0016 44.0633 35.8725 44.0968C35.7673 44.1259 35.6908 44.215 35.6746 44.3239C35.6636 44.3754 35.6681 44.4302 35.6899 44.4793C35.7203 44.542 35.7641 44.5957 35.8169 44.6397C35.899 44.7087 35.9851 44.7691 36.0776 44.8216C36.1858 44.8867 36.3221 44.9601 36.4813 45.0455C36.694 45.1492 36.8918 45.2802 37.0734 45.4335C37.2004 45.5401 37.304 45.6698 37.3836 45.8155C37.4454 45.9363 37.4792 46.0699 37.4829 46.2041C37.4844 46.3378 37.4717 46.4733 37.4414 46.6049L37.4409 46.6072Z" fill="#989898" style="fill:#989898;fill:color(display-p3 0.5961 0.5961 0.5961);fill-opacity:1;"/>
<path d="M38.6606 43.7179L41.586 44.3397L41.4008 45.211L39.4424 44.7947L39.2715 45.5988L40.9435 45.9542L40.7583 46.8254L39.0863 46.47L38.9078 47.3099L40.8661 47.7262L40.681 48.5974L37.7556 47.9756L38.6606 43.7179Z" fill="#989898" style="fill:#989898;fill:color(display-p3 0.5961 0.5961 0.5961);fill-opacity:1;"/>
<path d="M41.3188 48.7377L42.2248 44.4755L43.1786 44.6782L42.4583 48.0669L44.4475 48.4897L44.2623 49.361L41.3193 48.7354L41.3188 48.7377Z" fill="#989898" style="fill:#989898;fill:color(display-p3 0.5961 0.5961 0.5961);fill-opacity:1;"/>
<path d="M45.5621 45.1849L48.4874 45.8067L48.3022 46.6779L46.3439 46.2617L46.173 47.0657L47.845 47.4211L47.6598 48.2923L45.9878 47.937L45.8093 48.7769L47.7676 49.1931L47.5824 50.0644L44.6571 49.4425L45.5621 45.1849Z" fill="#989898" style="fill:#989898;fill:color(display-p3 0.5961 0.5961 0.5961);fill-opacity:1;"/>
<path d="M50.0894 49.1014L50.8421 47.6509L51.4811 46.443L52.4899 46.6574L50.2518 50.6341L49.2605 50.4234L48.8222 45.8778L49.8554 46.0974L49.9536 47.4877L50.0525 49.0912L50.0877 49.0987L50.0894 49.1014Z" fill="#989898" style="fill:#989898;fill:color(display-p3 0.5961 0.5961 0.5961);fill-opacity:1;"/>
<path d="M29.7441 51.9165C29.6121 51.9706 29.4741 52.0093 29.3323 52.0331C29.1999 52.0566 29.0641 52.063 28.9307 52.0581C28.6067 52.0455 28.2908 51.9619 28.0057 51.8098C27.826 51.7176 27.664 51.5964 27.5261 51.4497C27.3898 51.3058 27.29 51.132 27.2283 50.9429C27.1637 50.7344 27.1576 50.5125 27.2073 50.3001L27.5462 48.7059C27.5871 48.4916 27.6808 48.2909 27.8206 48.1235C27.95 47.9726 28.1128 47.85 28.2928 47.7662C28.4777 47.6812 28.6764 47.6295 28.8785 47.6162C29.0838 47.5988 29.2918 47.6125 29.4957 47.6558C29.7485 47.7095 29.9931 47.8014 30.2222 47.9229C30.4399 48.0325 30.6306 48.1927 30.7789 48.3886L30.1445 49.0516C30.0419 48.9125 29.9066 48.7969 29.7516 48.7194C29.6156 48.6506 29.4736 48.5992 29.3273 48.5681C29.2453 48.5507 29.1604 48.5467 29.0753 48.5545C28.988 48.5617 28.9045 48.5839 28.8248 48.6209C28.7424 48.6597 28.67 48.7171 28.6129 48.7894C28.5453 48.8783 28.5007 48.9792 28.4818 49.0901L28.225 50.2981C28.1977 50.405 28.1969 50.5175 28.2203 50.6257C28.2413 50.7123 28.2792 50.7955 28.3365 50.8639C28.3898 50.9293 28.4548 50.983 28.5294 51.0246C28.6017 51.0658 28.6809 51.0967 28.7629 51.1142C28.8405 51.1307 28.9205 51.1359 29.0002 51.1318C29.087 51.1267 29.1732 51.1028 29.2489 51.0626L29.3716 50.4855L28.7907 50.3621L28.9673 49.5313L30.5215 49.8616L30.1325 51.6916C30.0168 51.789 29.8844 51.8665 29.7453 51.9214L29.7441 51.9165Z" fill="#989898" style="fill:#989898;fill:color(display-p3 0.5961 0.5961 0.5961);fill-opacity:1;"/>
<path d="M33.5128 48.5543C33.7182 48.5909 33.9136 48.6747 34.0821 48.7973C34.2221 48.9022 34.3371 49.0369 34.4176 49.1925C34.4945 49.3426 34.5406 49.5073 34.5506 49.6784C34.5633 49.8477 34.5524 50.0191 34.517 50.1852C34.4927 50.2997 34.4506 50.4105 34.3967 50.5117C34.3396 50.6169 34.2718 50.7175 34.1905 50.8058C34.1087 50.8963 34.015 50.9773 33.9126 51.0448C33.8098 51.1144 33.696 51.17 33.5762 51.2103L33.9596 53.1129L32.9198 52.8919L32.6181 51.1826L32.0173 51.0549L31.6827 52.6289L30.7095 52.4221L31.6172 48.1514L33.515 48.5547L33.5128 48.5543ZM32.1984 50.1922L32.9211 50.3459C33.0623 50.39 33.2152 50.3685 33.3387 50.2891C33.4385 50.2118 33.5064 50.0995 33.5305 49.9755C33.5977 49.7246 33.4529 49.4685 33.2052 49.4018C33.1786 49.3961 33.152 49.3905 33.1227 49.3866L32.3999 49.233L32.1957 50.194L32.1984 50.1922Z" fill="#989898" style="fill:#989898;fill:color(display-p3 0.5961 0.5961 0.5961);fill-opacity:1;"/>
<path d="M37.9666 52.5542C37.9257 52.7684 37.837 52.9678 37.7011 53.1384C37.5784 53.2907 37.4227 53.4125 37.2476 53.495C37.0649 53.5805 36.8689 53.6304 36.6668 53.6438C36.4504 53.6588 36.2314 53.6427 36.0186 53.5975C35.8057 53.5523 35.6013 53.4783 35.412 53.377C35.235 53.2831 35.074 53.1573 34.9419 53.0049C34.8133 52.8579 34.7206 52.6833 34.6704 52.4942C34.6179 52.2836 34.6162 52.0626 34.6655 51.8525L35.0067 50.2471C35.0449 50.0346 35.1408 49.8344 35.2824 49.6697C35.413 49.5238 35.5744 49.4079 35.7535 49.3286C35.9369 49.2502 36.1347 49.2031 36.3336 49.1937C36.5379 49.1809 36.7432 49.1963 36.9427 49.2387C37.1445 49.2816 37.3378 49.3532 37.5205 49.4531C37.6997 49.5475 37.8607 49.6732 37.9977 49.8244C38.1313 49.9701 38.2283 50.1456 38.2852 50.3361C38.3449 50.5459 38.3488 50.7673 38.299 50.9797L37.9644 52.5537L37.9666 52.5542ZM37.2888 50.9574C37.3139 50.8501 37.3169 50.7381 37.2935 50.6299C37.2748 50.5437 37.2364 50.4628 37.1818 50.3926C37.1285 50.3272 37.0639 50.2713 36.9889 50.2319C36.9165 50.1907 36.8391 50.1625 36.7575 50.1428C36.6755 50.1254 36.5906 50.1214 36.5078 50.1296C36.4227 50.1373 36.3414 50.16 36.2661 50.1979C36.186 50.2372 36.1175 50.2978 36.0631 50.3683C35.9977 50.4577 35.9549 50.5612 35.9342 50.6695L35.6774 51.8775C35.6501 51.9843 35.6493 52.0968 35.6727 52.2051C35.6937 52.2917 35.7316 52.3748 35.7889 52.4433C35.8422 52.5086 35.9072 52.5623 35.9818 52.604C36.0541 52.6452 36.1333 52.6761 36.2153 52.6935C36.2974 52.711 36.3801 52.7145 36.4629 52.7063C36.5475 52.7008 36.6292 52.6759 36.7045 52.6379C36.783 52.5959 36.851 52.5376 36.9031 52.4666C36.9685 52.3772 37.0113 52.2737 37.032 52.1654L37.2888 50.9574Z" fill="#989898" style="fill:#989898;fill:color(display-p3 0.5961 0.5961 0.5961);fill-opacity:1;"/>
<path d="M41.7065 53.9828C41.5793 54.1341 41.4188 54.2572 41.241 54.3414C41.0561 54.4265 40.8596 54.4786 40.6575 54.492C40.4478 54.5084 40.2376 54.4943 40.0314 54.4504C39.8252 54.4066 39.627 54.3363 39.4416 54.2382C39.2619 54.1461 39.1027 54.0231 38.9679 53.8724C38.8388 53.7276 38.7412 53.5543 38.6861 53.3666C38.6286 53.1572 38.6243 52.938 38.6762 52.7261L39.3015 49.7847L40.2747 49.9916L39.6896 52.7444C39.6645 52.8517 39.6615 52.9637 39.6853 53.0697C39.7063 53.1563 39.7443 53.2395 39.8015 53.308C39.8549 53.3733 39.9199 53.427 39.9945 53.4687C40.0668 53.5099 40.146 53.5408 40.228 53.5582C40.31 53.5756 40.3927 53.5791 40.4756 53.5709C40.5602 53.5654 40.6419 53.5406 40.7172 53.5026C40.7956 53.4606 40.8636 53.4023 40.9158 53.3312C40.9811 53.2419 41.0235 53.1406 41.0442 53.0323L41.6294 50.2795L42.6026 50.4864L41.9831 53.4009C41.9422 53.6151 41.8508 53.8163 41.7132 53.9842L41.7065 53.9828Z" fill="#989898" style="fill:#989898;fill:color(display-p3 0.5961 0.5961 0.5961);fill-opacity:1;"/>
<path d="M45.1833 51.0349C45.3931 51.0725 45.5907 51.1567 45.7664 51.2785C45.909 51.3816 46.0285 51.5173 46.1111 51.6733C46.1904 51.8239 46.2369 51.9864 46.2518 52.1562C46.2662 52.3282 46.2543 52.504 46.2181 52.6747C46.1818 52.8453 46.1167 53.0099 46.0225 53.1588C45.8299 53.4652 45.5248 53.6796 45.1755 53.7532C44.977 53.7932 44.7711 53.7916 44.5747 53.7452L43.7345 53.5666L43.4037 55.1227L42.4304 54.9158L43.3387 50.6428L45.1833 51.0349ZM43.9184 52.6904L44.6345 52.8427C44.7753 52.889 44.9303 52.868 45.057 52.7846C45.1551 52.7046 45.223 52.5923 45.2448 52.4678C45.2733 52.3448 45.2591 52.2151 45.2043 52.1025C45.1225 51.9748 44.9894 51.8925 44.8397 51.8771L44.1236 51.7249L43.9179 52.6927L43.9184 52.6904Z" fill="#989898" style="fill:#989898;fill:color(display-p3 0.5961 0.5961 0.5961);fill-opacity:1;"/>
<path opacity="0.6" d="M94.7957 60.6601L94.5449 60.6068L94.6275 60.2185L93.4239 59.9626L93.3413 60.3509L93.0906 60.2976L93.2209 59.6844L93.3943 59.7212C93.5453 59.5606 93.6735 59.3658 93.7792 59.1366C93.8859 58.9067 93.9656 58.6681 94.0182 58.4207L95.024 58.6345L94.7326 60.0057L94.926 60.0468L94.7957 60.6601ZM94.4632 59.9484L94.7066 58.8036L94.2237 58.701C94.1603 58.9381 94.077 59.149 93.9739 59.3338C93.8707 59.5185 93.7659 59.6664 93.6594 59.7776L94.4632 59.9484ZM96.6582 60.6546L96.3888 60.5974L96.6809 59.2233L96.0834 59.0963C96.0637 59.1749 96.0446 59.2507 96.0261 59.3237C96.0076 59.3966 95.9906 59.4624 95.9751 59.521C95.9345 59.6791 95.8964 59.8043 95.8609 59.8966C95.8255 59.9879 95.7887 60.0625 95.7504 60.1202C95.7149 60.1746 95.6789 60.2173 95.6423 60.2485C95.6069 60.2789 95.5698 60.3055 95.531 60.3282C95.4924 60.3499 95.4516 60.3637 95.4084 60.3695C95.3662 60.3755 95.3217 60.3735 95.2749 60.3636C95.2587 60.3601 95.2349 60.3546 95.2036 60.3469C95.1732 60.3395 95.1532 60.3347 95.1437 60.3327L95.1936 60.0977L95.208 60.1008C95.2156 60.1024 95.2265 60.1052 95.2406 60.1092C95.2547 60.1132 95.2666 60.1162 95.2761 60.1182C95.299 60.1231 95.3232 60.1247 95.3485 60.1231C95.3747 60.1217 95.3984 60.1138 95.4194 60.0993C95.4783 60.0619 95.5346 59.9895 95.5884 59.8821C95.6422 59.7747 95.6967 59.6146 95.7519 59.4017C95.7724 59.3242 95.7954 59.2322 95.821 59.1259C95.8478 59.0187 95.873 58.9168 95.8965 58.8199L96.9984 59.0541L96.6582 60.6546ZM98.5365 61.0539L98.2671 60.9966L98.4021 60.3619L98.0854 60.2946L97.4547 60.8239L97.1381 60.7566L97.8172 60.2106C97.6868 60.1429 97.598 60.0632 97.5506 59.9712C97.5035 59.8783 97.4935 59.7679 97.5207 59.6399C97.5388 59.5549 97.5732 59.4868 97.624 59.4357C97.6748 59.3846 97.7333 59.3466 97.7995 59.3218C97.8645 59.2976 97.9356 59.2873 98.0127 59.2907C98.0901 59.2932 98.1727 59.3037 98.2606 59.3224L98.8767 59.4534L98.5365 61.0539ZM98.4471 60.1498L98.5616 59.6111L98.2221 59.5389C98.1485 59.5232 98.095 59.5144 98.0615 59.5122C98.028 59.5101 97.9899 59.5155 97.9472 59.5284C97.9055 59.5415 97.8717 59.5642 97.8459 59.5967C97.8212 59.6284 97.8043 59.6652 97.7954 59.7073C97.7842 59.7598 97.7805 59.8034 97.7841 59.8381C97.7886 59.8731 97.8051 59.9085 97.8333 59.9445C97.8628 59.9797 97.9017 60.0079 97.9501 60.0292C97.9987 60.0495 98.0541 60.0663 98.1161 60.0794L98.4471 60.1498ZM78.9383 59.1195C78.8829 59.3803 78.7723 59.5719 78.6065 59.6944C78.4407 59.8169 78.2455 59.8543 78.0211 59.8066C77.7947 59.7585 77.6306 59.6448 77.529 59.4654C77.4283 59.2863 77.4057 59.0663 77.4611 58.8055C77.5165 58.5447 77.6267 58.353 77.7915 58.2303C77.9575 58.1069 78.1537 58.0692 78.3801 58.1173C78.6046 58.165 78.7676 58.279 78.869 58.4593C78.9707 58.6387 78.9938 58.8587 78.9383 59.1195ZM78.6604 59.0604C78.7044 58.8532 78.6965 58.6907 78.6367 58.5732C78.577 58.4547 78.475 58.3801 78.3308 58.3494C78.1846 58.3184 78.0602 58.3448 77.9575 58.4288C77.8559 58.5121 77.7831 58.6573 77.7391 58.8646C77.6964 59.0652 77.7046 59.2262 77.7637 59.3476C77.823 59.468 77.9252 59.5436 78.0704 59.5745C78.2137 59.605 78.3368 59.5777 78.4397 59.4928C78.5438 59.4071 78.6173 59.2629 78.6604 59.0604ZM80.6439 60.3177L80.3745 60.2604L80.6653 58.8921L79.8644 58.7218L79.5735 60.0902L79.3042 60.0329L79.6444 58.4324L80.9841 58.7172L80.6439 60.3177ZM82.7591 59.3416L82.1803 59.2186L81.8903 60.5826L81.6209 60.5254L81.9109 59.1613L81.332 59.0383L81.3823 58.8019L82.8094 59.1052L82.7591 59.3416ZM84.2143 61.0766L83.9478 61.0199L84.2033 59.8178L83.1095 60.8418L82.866 60.79L83.2062 59.1895L83.4727 59.2462L83.2208 60.4311L84.3023 59.4225L84.5545 59.4761L84.2143 61.0766ZM86.3763 61.5361L86.1098 61.4795L86.3784 60.2157L85.8053 60.9535L85.6047 60.9109L85.384 60.0044L85.1154 61.2681L84.8632 61.2145L85.2034 59.6141L85.5287 59.6832L85.7739 60.6713L86.3855 59.8653L86.7165 59.9357L86.3763 61.5361ZM88.3721 61.9604L88.1056 61.9037L88.3611 60.7016L87.2674 61.7256L87.0238 61.6738L87.364 60.0733L87.6305 60.13L87.3786 61.3149L88.4601 60.3063L88.7123 60.3599L88.3721 61.9604ZM90.2297 61.8865C90.2106 61.9763 90.1735 62.0477 90.1182 62.1009C90.064 62.1543 90.0003 62.1931 89.9272 62.2175C89.8543 62.241 89.7769 62.253 89.6949 62.2535C89.6129 62.2541 89.5328 62.246 89.4545 62.2294C89.3437 62.2058 89.2403 62.1729 89.1445 62.1305C89.0487 62.0882 88.9567 62.0347 88.8686 61.9701L88.9314 61.6749L88.95 61.6789C89.0067 61.7548 89.0855 61.821 89.1863 61.8774C89.2872 61.9337 89.3882 61.9727 89.4895 61.9942C89.5372 62.0044 89.5873 62.0105 89.6398 62.0127C89.6925 62.0139 89.7395 62.0084 89.7811 61.9963C89.8261 61.9819 89.8638 61.9615 89.8944 61.935C89.9252 61.9076 89.9465 61.8662 89.9583 61.8108C89.9704 61.7535 89.9682 61.7051 89.9517 61.6656C89.9361 61.6264 89.91 61.5939 89.8736 61.5682C89.838 61.5427 89.793 61.5221 89.7384 61.5065C89.6838 61.4909 89.6336 61.4782 89.5877 61.4685L89.3542 61.4188L89.4035 61.1867L89.5654 61.2211C89.6036 61.2293 89.6536 61.2384 89.7154 61.2485C89.7781 61.2588 89.8298 61.2619 89.8707 61.2576C89.9238 61.2519 89.9679 61.2373 90.0028 61.2138C90.0387 61.1904 90.0636 61.1463 90.0774 61.0814C90.0869 61.0365 90.0833 60.9972 90.0664 60.9637C90.0498 60.9292 90.026 60.9002 89.9951 60.8767C89.9632 60.8529 89.9259 60.8335 89.8832 60.8184C89.8414 60.8036 89.8038 60.7926 89.7704 60.7855C89.6729 60.7648 89.5741 60.7577 89.4738 60.7644C89.3747 60.7703 89.2879 60.7912 89.2134 60.8273L89.1947 60.8234L89.2578 60.5268C89.3425 60.5178 89.432 60.5149 89.5262 60.5179C89.6204 60.521 89.7129 60.5321 89.8036 60.5514C89.8781 60.5673 89.9508 60.5897 90.0215 60.6187C90.0931 60.6479 90.1575 60.6856 90.2146 60.7316C90.2707 60.7775 90.3129 60.8329 90.341 60.8978C90.3694 60.9617 90.3748 61.0348 90.3573 61.1169C90.3395 61.201 90.2975 61.2694 90.2313 61.3222C90.1664 61.3743 90.087 61.4049 89.9932 61.4139L89.9911 61.4239C90.0844 61.4687 90.1532 61.5303 90.1974 61.6086C90.2419 61.6859 90.2527 61.7785 90.2297 61.8865ZM91.921 62.7147L91.6531 62.6578L91.6893 62.4873C91.662 62.4984 91.6246 62.5144 91.5773 62.5353C91.5311 62.5555 91.487 62.5701 91.4452 62.5791C91.3956 62.5916 91.3401 62.5987 91.2788 62.6007C91.2173 62.6036 91.1474 62.5967 91.0691 62.5801C90.9248 62.5494 90.8127 62.4756 90.7327 62.3588C90.6527 62.242 90.6285 62.1095 90.6599 61.9615C90.6857 61.8401 90.7323 61.7477 90.7997 61.6842C90.8683 61.6199 90.9554 61.5765 91.061 61.554C91.1676 61.5317 91.2908 61.5275 91.4306 61.5412C91.5705 61.555 91.7196 61.5747 91.8778 61.6003L91.8867 61.5588C91.8997 61.4976 91.8994 61.4447 91.886 61.3999C91.8735 61.3553 91.8496 61.3173 91.8144 61.2858C91.7809 61.2557 91.7382 61.2312 91.6863 61.2122C91.6344 61.1932 91.5793 61.1775 91.5211 61.1651C91.4504 61.1501 91.3696 61.1429 91.2786 61.1435C91.1878 61.1432 91.0923 61.1508 90.9921 61.1665L90.9778 61.1634L91.036 60.8898C91.0916 60.8866 91.1709 60.887 91.2739 60.8909C91.3769 60.8948 91.4766 60.907 91.5731 60.9275C91.6858 60.9515 91.7817 60.9819 91.8607 61.0186C91.9409 61.0546 92.0068 61.1016 92.0584 61.1595C92.1092 61.2162 92.143 61.2828 92.1597 61.3592C92.1764 61.4357 92.1738 61.5255 92.1519 61.6286L91.921 62.7147ZM91.7368 62.2637L91.8315 61.8181C91.7484 61.8054 91.6499 61.792 91.5361 61.7778C91.4233 61.7638 91.3324 61.759 91.2636 61.7633C91.1816 61.7688 91.1117 61.7899 91.054 61.8266C90.9965 61.8623 90.9591 61.9207 90.9419 62.0019C90.9224 62.0936 90.9353 62.1688 90.9808 62.2273C91.0265 62.285 91.1061 62.3259 91.2198 62.35C91.3144 62.3701 91.4047 62.3703 91.4907 62.3507C91.577 62.3301 91.659 62.3011 91.7368 62.2637ZM93.8266 63.1198L92.5571 62.8499L92.8973 61.2494L93.1666 61.3067L92.8758 62.6751L93.6638 62.8426L93.9547 61.4742L94.2241 61.5315L93.9332 62.8998L94.1267 62.9409L93.9957 63.5571L93.7449 63.5038L93.8266 63.1198ZM95.9141 63.5635L95.6476 63.5068L95.9031 62.3047L94.8094 63.3287L94.5658 63.2769L94.906 61.6764L95.1725 61.7331L94.9206 62.918L96.0021 61.9094L96.2543 61.963L95.9141 63.5635ZM97.9113 63.988L97.6448 63.9314L97.9004 62.7292L96.8066 63.7532L96.563 63.7014L96.9032 62.1009L97.1697 62.1576L96.9179 63.3425L97.9994 62.3339L98.2515 62.3875L97.9113 63.988ZM86.4107 63.1848C86.4634 63.2659 86.4968 63.3578 86.5108 63.4607C86.5251 63.5625 86.5187 63.6775 86.4915 63.8055C86.4407 64.0443 86.3269 64.2273 86.1501 64.3544C85.9734 64.4816 85.7804 64.5229 85.5712 64.4785C85.468 64.4565 85.3766 64.4191 85.297 64.3663C85.2176 64.3125 85.155 64.2427 85.1093 64.1572C85.0522 64.0502 85.0192 63.9238 85.0102 63.7782C85.0024 63.6317 85.0196 63.4592 85.0618 63.2605C85.077 63.1889 85.0958 63.117 85.1181 63.0448C85.1407 62.9718 85.1748 62.8862 85.2206 62.7881C85.2586 62.7033 85.3045 62.6237 85.3583 62.5493C85.413 62.475 85.471 62.418 85.5324 62.3781C85.616 62.323 85.7181 62.2863 85.8388 62.268C85.9607 62.249 86.116 62.2511 86.3048 62.2742C86.3817 62.2836 86.453 62.2932 86.5187 62.3032C86.5847 62.3123 86.6439 62.3204 86.6963 62.3275L86.6436 62.5754C86.5797 62.5658 86.5164 62.5563 86.4535 62.5469C86.3915 62.5378 86.3294 62.5295 86.267 62.5223C86.1425 62.5068 86.0274 62.5033 85.9218 62.5118C85.8171 62.5205 85.7369 62.5434 85.6811 62.5804C85.6197 62.6203 85.5674 62.6786 85.5241 62.7552C85.482 62.8312 85.4493 62.9051 85.4261 62.977C85.5087 62.9407 85.5961 62.9143 85.6885 62.898C85.7819 62.8809 85.8769 62.8826 85.9734 62.9032C86.0632 62.9222 86.1465 62.9554 86.2233 63.0027C86.3001 63.05 86.3626 63.1107 86.4107 63.1848ZM86.2144 63.7631C86.252 63.5864 86.2375 63.4455 86.171 63.3405C86.1046 63.2346 86.0017 63.1668 85.8623 63.1371C85.7792 63.1195 85.6966 63.1159 85.6145 63.1264C85.5326 63.1359 85.4526 63.1554 85.3744 63.1847C85.3675 63.2082 85.3596 63.2359 85.3507 63.268C85.3431 63.2993 85.3364 63.3283 85.3307 63.3551C85.2954 63.5213 85.2806 63.6589 85.2864 63.768C85.2922 63.877 85.3139 63.9675 85.3515 64.0394C85.3845 64.1003 85.4244 64.1473 85.4713 64.1802C85.5185 64.2122 85.5716 64.2345 85.6308 64.247C85.7751 64.2777 85.8989 64.2496 86.0022 64.1627C86.1055 64.0759 86.1763 63.9427 86.2144 63.7631ZM88.2126 64.9935L87.9461 64.9368L88.2016 63.7347L87.1079 64.7587L86.8643 64.7069L87.2045 63.1064L87.471 63.1631L87.2191 64.348L88.3006 63.3394L88.5528 63.393L88.2126 64.9935ZM90.0702 64.9196C90.0511 65.0094 90.014 65.0809 89.9587 65.134C89.9045 65.1874 89.8408 65.2263 89.7677 65.2507C89.6948 65.2741 89.6174 65.2861 89.5354 65.2866C89.4535 65.2872 89.3733 65.2791 89.295 65.2625C89.1842 65.2389 89.0808 65.206 88.985 65.1637C88.8892 65.1213 88.7972 65.0678 88.7091 65.0032L88.7719 64.708L88.7905 64.712C88.8472 64.7879 88.926 64.8541 89.0268 64.9105C89.1277 64.9669 89.2287 65.0058 89.33 65.0273C89.3777 65.0375 89.4278 65.0436 89.4803 65.0458C89.533 65.047 89.58 65.0415 89.6216 65.0294C89.6666 65.015 89.7043 64.9946 89.7349 64.9681C89.7657 64.9407 89.787 64.8993 89.7988 64.8439C89.8109 64.7866 89.8088 64.7382 89.7922 64.6988C89.7766 64.6595 89.7505 64.627 89.7141 64.6013C89.6786 64.5758 89.6335 64.5552 89.5789 64.5396C89.5243 64.524 89.4741 64.5113 89.4282 64.5016L89.1947 64.452L89.244 64.2198L89.4059 64.2543C89.4442 64.2624 89.4941 64.2715 89.5559 64.2816C89.6186 64.292 89.6703 64.295 89.7112 64.2907C89.7643 64.285 89.8084 64.2704 89.8433 64.2469C89.8792 64.2236 89.9041 64.1794 89.9179 64.1145C89.9274 64.0696 89.9238 64.0304 89.9069 63.9968C89.8903 63.9624 89.8665 63.9333 89.8356 63.9098C89.8037 63.886 89.7664 63.8666 89.7237 63.8516C89.6819 63.8367 89.6443 63.8257 89.6109 63.8186C89.5134 63.7979 89.4146 63.7908 89.3143 63.7975C89.2152 63.8034 89.1284 63.8244 89.0539 63.8604L89.0352 63.8565L89.0983 63.5599C89.183 63.5509 89.2725 63.548 89.3667 63.551C89.4609 63.5541 89.5534 63.5653 89.6441 63.5846C89.7186 63.6004 89.7913 63.6228 89.862 63.6518C89.9336 63.681 89.998 63.7187 90.0551 63.7648C90.1112 63.8106 90.1534 63.866 90.1815 63.9309C90.2099 63.9948 90.2153 64.0679 90.1978 64.15C90.18 64.2341 90.138 64.3025 90.0718 64.3554C90.0069 64.4074 89.9275 64.438 89.8337 64.447L89.8316 64.457C89.9249 64.5018 89.9937 64.5634 90.0379 64.6417C90.0824 64.719 90.0932 64.8117 90.0702 64.9196ZM91.8575 65.7682L91.5881 65.711L91.7413 64.9903L90.9404 64.82L90.7872 65.5407L90.5178 65.4835L90.858 63.883L91.1274 63.9403L90.9897 64.5879L91.7907 64.7582L91.9283 64.1105L92.1977 64.1678L91.8575 65.7682ZM94.0103 65.4186L92.8311 65.168C92.8102 65.2664 92.8067 65.3555 92.8207 65.4353C92.8349 65.5142 92.8628 65.5826 92.9044 65.6403C92.9444 65.6967 92.9958 65.7436 93.0587 65.781C93.1226 65.8185 93.1957 65.846 93.2778 65.8635C93.3867 65.8866 93.5007 65.8884 93.6196 65.8687C93.7398 65.8483 93.8277 65.8221 93.8835 65.79L93.8978 65.7931L93.8354 66.0868C93.7365 66.1057 93.637 66.118 93.537 66.1237C93.4369 66.1294 93.3349 66.1212 93.2307 66.0991C92.9652 66.0426 92.7731 65.9269 92.6546 65.752C92.5362 65.576 92.5052 65.3558 92.5614 65.0912C92.617 64.8295 92.7324 64.6368 92.9074 64.5133C93.0833 64.39 93.2879 64.3531 93.5209 64.4026C93.7368 64.4485 93.8896 64.5469 93.9794 64.6977C94.0701 64.8488 94.0907 65.0404 94.0414 65.2725L94.0103 65.4186ZM93.792 65.1566C93.8211 65.015 93.8085 64.898 93.7543 64.8056C93.701 64.7134 93.6027 64.6521 93.4594 64.6216C93.3152 64.591 93.191 64.609 93.087 64.6758C92.9839 64.7427 92.9132 64.838 92.875 64.9617L93.792 65.1566ZM95.5911 66.457C95.4703 66.4852 95.3682 66.5005 95.2848 66.5027C95.2022 66.5061 95.1218 66.4995 95.0435 66.4829C94.9269 66.4581 94.8235 66.4186 94.7332 66.3645C94.643 66.3094 94.5704 66.2401 94.5153 66.1565C94.4602 66.0729 94.4242 65.9744 94.4074 65.861C94.3915 65.7478 94.3985 65.621 94.4284 65.4805C94.4826 65.2255 94.5965 65.0371 94.7702 64.9152C94.944 64.7924 95.1537 64.7571 95.3992 64.8093C95.4918 64.829 95.5798 64.8612 95.6632 64.9059C95.7475 64.9508 95.823 64.9997 95.8895 65.0528L95.8259 65.3523L95.8101 65.3489C95.7357 65.2622 95.6585 65.1934 95.5785 65.1425C95.4994 65.0917 95.4193 65.0577 95.3381 65.0404C95.1786 65.0065 95.0435 65.0337 94.9329 65.122C94.8232 65.2105 94.7482 65.3498 94.7078 65.5399C94.6674 65.73 94.6794 65.8868 94.744 66.0104C94.8086 66.1339 94.9212 66.2128 95.0816 66.2469C95.138 66.2589 95.1954 66.2636 95.2538 66.261C95.3133 66.2587 95.3683 66.2509 95.419 66.2377C95.4592 66.2273 95.501 66.2137 95.5445 66.197C95.5891 66.1795 95.6204 66.1662 95.6384 66.1571L95.6541 66.1604L95.5911 66.457ZM97.3005 66.9252L97.0326 66.8682L97.0688 66.6977C97.0415 66.7089 97.0041 66.7249 96.9568 66.7458C96.9105 66.7659 96.8665 66.7805 96.8246 66.7896C96.7751 66.802 96.7196 66.8092 96.6583 66.8111C96.5968 66.814 96.5269 66.8072 96.4486 66.7905C96.3043 66.7599 96.1922 66.6861 96.1122 66.5693C96.0322 66.4524 96.008 66.32 96.0394 66.1719C96.0652 66.0506 96.1118 65.9582 96.1792 65.8946C96.2478 65.8303 96.3349 65.787 96.4405 65.7645C96.5471 65.7422 96.6703 65.7379 96.8101 65.7517C96.95 65.7654 97.099 65.7851 97.2573 65.8108L97.2662 65.7692C97.2792 65.7081 97.2789 65.6552 97.2655 65.6104C97.253 65.5658 97.2291 65.5278 97.1939 65.4963C97.1603 65.4662 97.1176 65.4417 97.0658 65.4226C97.0139 65.4036 96.9588 65.3879 96.9006 65.3756C96.8299 65.3605 96.7491 65.3533 96.6581 65.354C96.5673 65.3536 96.4718 65.3613 96.3716 65.3769L96.3573 65.3739L96.4155 65.1002C96.4711 65.0971 96.5504 65.0974 96.6533 65.1014C96.7563 65.1053 96.8561 65.1175 96.9526 65.138C97.0653 65.162 97.1612 65.1923 97.2402 65.2291C97.3204 65.2651 97.3863 65.3121 97.4379 65.37C97.4887 65.4267 97.5225 65.4933 97.5392 65.5697C97.5559 65.6461 97.5533 65.7359 97.5314 65.8391L97.3005 66.9252ZM97.1163 66.4742L97.211 66.0286C97.1279 66.0159 97.0294 66.0025 96.9156 65.9883C96.8028 65.9743 96.7119 65.9694 96.6431 65.9738C96.5611 65.9793 96.4912 66.0004 96.4335 66.037C96.376 66.0727 96.3386 66.1312 96.3214 66.2124C96.3019 66.3041 96.3148 66.3792 96.3603 66.4378C96.406 66.4954 96.4856 66.5363 96.5993 66.5605C96.6939 66.5806 96.7842 66.5808 96.8702 66.5612C96.9565 66.5406 97.0385 66.5116 97.1163 66.4742Z" fill="#989898" style="fill:#989898;fill:color(display-p3 0.5961 0.5961 0.5961);fill-opacity:1;"/>
<line x1="26.3489" y1="55.6773" x2="96.7755" y2="70.647" stroke="#D7D7D7" style="stroke:#D7D7D7;stroke:color(display-p3 0.8417 0.8417 0.8417);stroke-opacity:1;" stroke-width="0.5"/>
</g>
<rect x="8.9375" y="36.9297" width="96" height="96" rx="12" fill="white" style="fill:white;fill-opacity:1;"/>
<path d="M22.1124 50.9807L21.6215 51.5554L21.6215 52.7759L20.6328 52.7759L20.6328 48.4185L21.6215 48.4185L21.6215 50.1198L23.0402 48.4185L24.2091 48.4185L22.7655 50.1885L24.2834 52.7736L23.1258 52.7736L22.1102 50.9784L22.1124 50.9807Z" fill="#989898" style="fill:#989898;fill:color(display-p3 0.5961 0.5961 0.5961);fill-opacity:1;"/>
<path d="M25.7675 48.4185L25.7675 52.7759L24.7788 52.7759L24.7788 48.4185L25.7675 48.4185Z" fill="#989898" style="fill:#989898;fill:color(display-p3 0.5961 0.5961 0.5961);fill-opacity:1;"/>
<path d="M29.9022 51.4982C29.9067 51.6974 29.8594 51.8943 29.7648 52.0706C29.6725 52.2332 29.5464 52.3729 29.3955 52.4782C29.2288 52.5927 29.0442 52.6774 28.8483 52.7255C28.6321 52.7805 28.4091 52.8079 28.1862 52.8079C28.033 52.8079 27.8799 52.7988 27.729 52.7828C27.5849 52.7667 27.4407 52.7347 27.3034 52.6912C27.1615 52.6454 27.0241 52.5835 26.8957 52.508C26.7516 52.4233 26.6187 52.3248 26.4949 52.2149L27.0489 51.4753C27.2133 51.6127 27.4002 51.7226 27.5984 51.8005C27.7763 51.8691 27.9655 51.9035 28.1546 51.9058C28.2695 51.9081 28.3843 51.8966 28.4969 51.8669C28.5758 51.8485 28.6501 51.8142 28.7176 51.7684C28.7672 51.7363 28.8077 51.6905 28.8347 51.6402C28.8573 51.599 28.8685 51.5532 28.8685 51.5074C28.8685 51.4478 28.8528 51.3906 28.8212 51.3402C28.7807 51.283 28.7266 51.2372 28.6636 51.2051C28.569 51.1547 28.4699 51.1112 28.3686 51.0792C28.247 51.038 28.0938 50.9899 27.9114 50.9395C27.7312 50.8914 27.5533 50.8296 27.3822 50.754C27.2403 50.6922 27.1097 50.6075 26.9926 50.5022C26.889 50.406 26.8057 50.2846 26.7539 50.1518C26.6953 49.9961 26.6683 49.8313 26.6728 49.6641C26.6705 49.4787 26.7088 49.2955 26.7876 49.1306C26.8642 48.9726 26.9746 48.8352 27.1119 48.7253C27.2606 48.6086 27.4295 48.5215 27.6096 48.4689C27.8168 48.4048 28.0285 48.375 28.2425 48.375C28.4902 48.375 28.7357 48.3979 28.9789 48.4437C29.2514 48.5032 29.5081 48.6177 29.7333 48.778L29.2919 49.5863C29.123 49.4695 28.9338 49.3871 28.7357 49.339C28.569 49.3046 28.4001 49.2886 28.2289 49.2886C28.0961 49.284 27.9655 49.3092 27.8461 49.3687C27.7493 49.4191 27.693 49.5222 27.6997 49.6321C27.6997 49.6847 27.7155 49.7374 27.747 49.7809C27.7898 49.8359 27.8438 49.8794 27.9046 49.9114C27.9992 49.9618 28.0961 50.003 28.1974 50.0351C28.3168 50.0763 28.4654 50.1198 28.6388 50.1702C28.8685 50.2274 29.0892 50.3144 29.2987 50.4266C29.445 50.5045 29.5734 50.6098 29.6815 50.7357C29.7671 50.8411 29.8279 50.9647 29.8594 51.0952C29.8887 51.2257 29.9045 51.3608 29.9022 51.4959L29.9022 51.4982Z" fill="#989898" style="fill:#989898;fill:color(display-p3 0.5961 0.5961 0.5961);fill-opacity:1;"/>
<path d="M30.4945 48.4185L33.4852 48.4185L33.4852 49.3092L31.4831 49.3092L31.4831 50.1312L33.1925 50.1312L33.1925 51.0219L31.4831 51.0219L31.4831 51.8806L33.4852 51.8806L33.4852 52.7713L30.4945 52.7713L30.4945 48.4185Z" fill="#989898" style="fill:#989898;fill:color(display-p3 0.5961 0.5961 0.5961);fill-opacity:1;"/>
<path d="M34.1383 52.7759L34.1383 48.4185L35.1135 48.4185L35.1135 51.8829L37.147 51.8829L37.147 52.7736L34.1383 52.7736L34.1383 52.7759Z" fill="#989898" style="fill:#989898;fill:color(display-p3 0.5961 0.5961 0.5961);fill-opacity:1;"/>
<path d="M37.5502 48.4185L40.5409 48.4185L40.5409 49.3092L38.5388 49.3092L38.5388 50.1312L40.2481 50.1312L40.2481 51.0219L38.5388 51.0219L38.5388 51.8806L40.5409 51.8806L40.5409 52.7713L37.5502 52.7713L37.5502 48.4185Z" fill="#989898" style="fill:#989898;fill:color(display-p3 0.5961 0.5961 0.5961);fill-opacity:1;"/>
<path d="M42.7929 51.3082L43.2276 49.7328L43.6014 48.4185L44.6328 48.4185L43.2703 52.7736L42.2569 52.7736L40.8832 48.4185L41.9394 48.4185L42.3245 49.758L42.7546 51.3059L42.7907 51.3059L42.7929 51.3082Z" fill="#989898" style="fill:#989898;fill:color(display-p3 0.5961 0.5961 0.5961);fill-opacity:1;"/>
<path d="M23.4739 58.2956C23.356 58.3759 23.2291 58.4425 23.0954 58.4953C22.9707 58.5458 22.8392 58.5802 22.7078 58.6032C22.3882 58.6583 22.0618 58.6422 21.7513 58.5527C21.5564 58.4999 21.3728 58.415 21.2073 58.3002C21.0441 58.1877 20.9104 58.0385 20.8107 57.8663C20.7041 57.6758 20.652 57.46 20.6565 57.2419L20.6565 55.6121C20.652 55.394 20.7019 55.1782 20.8039 54.9854C20.8991 54.811 21.0328 54.6572 21.1914 54.5378C21.3546 54.4161 21.5382 54.3243 21.7332 54.2692C21.9303 54.2095 22.1366 54.1797 22.3451 54.1797C22.6035 54.1797 22.8619 54.2187 23.1112 54.2899C23.3469 54.3519 23.5668 54.4689 23.7527 54.6296L23.2699 55.4101C23.1407 55.2953 22.9843 55.2104 22.8166 55.1668C22.6692 55.1277 22.5196 55.1071 22.3701 55.1071C22.2862 55.1071 22.2023 55.1209 22.1207 55.1461C22.0369 55.1714 21.9598 55.2104 21.8895 55.2632C21.817 55.3183 21.7581 55.3894 21.7173 55.4721C21.6697 55.5731 21.647 55.681 21.6516 55.7935L21.6516 57.0285C21.647 57.1386 21.6697 57.2488 21.715 57.3498C21.7536 57.4302 21.8079 57.5036 21.8782 57.5587C21.9439 57.6115 22.0187 57.6506 22.1003 57.6758C22.1797 57.7011 22.2635 57.7148 22.3474 57.7148C22.4267 57.7148 22.506 57.7033 22.5831 57.6827C22.667 57.6597 22.7463 57.6184 22.812 57.5633L22.812 56.9734L22.2182 56.9734L22.2182 56.124L23.8071 56.124L23.8071 57.9949C23.7141 58.1143 23.6008 58.2176 23.4761 58.3002L23.4739 58.2956Z" fill="#989898" style="fill:#989898;fill:color(display-p3 0.5961 0.5961 0.5961);fill-opacity:1;"/>
<path d="M26.4612 54.2233C26.6697 54.2164 26.8783 54.2577 27.0686 54.3427C27.2273 54.4161 27.3678 54.524 27.4789 54.6595C27.5854 54.7903 27.6648 54.9418 27.7101 55.1071C27.7577 55.2701 27.7826 55.4399 27.7826 55.6098C27.7826 55.7269 27.7645 55.844 27.7327 55.9541C27.6988 56.0689 27.6534 56.1814 27.5922 56.2847C27.531 56.3903 27.4562 56.489 27.3701 56.5762C27.284 56.6658 27.1842 56.7438 27.0754 56.8081L27.8461 58.5894L26.7831 58.5894L26.1326 56.9803L25.5183 56.9803L25.5183 58.5894L24.5233 58.5894L24.5233 54.2233L26.4635 54.2233L26.4612 54.2233ZM25.516 56.0988L26.2549 56.0988C26.4023 56.1125 26.5473 56.0597 26.6516 55.9564C26.7332 55.86 26.7763 55.7361 26.774 55.6098C26.7876 55.3504 26.5927 55.13 26.3365 55.1163C26.3093 55.1163 26.2821 55.1163 26.2527 55.1186L25.5138 55.1186L25.5138 56.1011L25.516 56.0988Z" fill="#989898" style="fill:#989898;fill:color(display-p3 0.5961 0.5961 0.5961);fill-opacity:1;"/>
<path d="M31.6494 57.2098C31.6539 57.4279 31.6086 57.6414 31.5111 57.8365C31.4227 58.011 31.2958 58.1625 31.1417 58.2795C30.9807 58.4012 30.7994 58.4907 30.6045 58.5458C30.396 58.6055 30.1784 58.6353 29.9608 58.6353C29.7432 58.6353 29.5279 58.6055 29.3216 58.5458C29.129 58.4907 28.9454 58.4012 28.7844 58.2795C28.628 58.1625 28.5011 58.011 28.4127 57.8365C28.3175 57.6414 28.2699 57.4256 28.2745 57.2098L28.2745 55.5685C28.2677 55.3527 28.3198 55.1369 28.424 54.9464C28.5215 54.7765 28.6552 54.6296 28.8139 54.5148C28.9771 54.4001 29.1607 54.3128 29.3533 54.2623C29.5505 54.2072 29.7545 54.1797 29.9585 54.1797C30.1648 54.1797 30.3688 54.2095 30.5682 54.2692C30.7631 54.3243 30.9467 54.4138 31.1122 54.5332C31.2731 54.648 31.4046 54.7995 31.4998 54.9739C31.6018 55.1668 31.6516 55.3826 31.6471 55.6006L31.6471 57.2098L31.6494 57.2098ZM30.6544 55.7889C30.6566 55.6787 30.6362 55.5685 30.5909 55.4675C30.5546 55.3871 30.5002 55.316 30.4322 55.2586C30.3665 55.2058 30.2917 55.1645 30.2101 55.1415C30.1308 55.1163 30.0492 55.1048 29.9653 55.1025C29.8815 55.1025 29.7976 55.1163 29.7183 55.1415C29.6367 55.1668 29.5619 55.2058 29.4961 55.2586C29.4259 55.3137 29.3715 55.3871 29.3329 55.4675C29.2876 55.5685 29.2672 55.6787 29.2695 55.7889L29.2695 57.0239C29.2649 57.1341 29.2876 57.2442 29.3329 57.3452C29.3715 57.4256 29.4259 57.499 29.4961 57.5541C29.5619 57.6069 29.6367 57.646 29.7183 57.6712C29.7976 57.6965 29.8815 57.7102 29.9653 57.7102C30.0492 57.7102 30.1308 57.6965 30.2101 57.6712C30.2917 57.6483 30.3665 57.6069 30.4322 57.5541C30.5002 57.4967 30.5546 57.4256 30.5909 57.3452C30.6362 57.2442 30.6566 57.1341 30.6544 57.0239L30.6544 55.7889Z" fill="#989898" style="fill:#989898;fill:color(display-p3 0.5961 0.5961 0.5961);fill-opacity:1;"/>
<path d="M35.6045 57.8296C35.5116 58.0041 35.3801 58.1579 35.2237 58.2772C35.0606 58.3989 34.8792 58.4907 34.6843 58.5458C34.4826 58.6055 34.2741 58.6353 34.0633 58.6353C33.8525 58.6353 33.6439 58.6078 33.4422 58.5504C33.2473 58.4976 33.066 58.4104 32.9028 58.291C32.7464 58.1762 32.6149 58.027 32.522 57.8549C32.4223 57.662 32.3724 57.4485 32.3792 57.2305L32.3792 54.2233L33.3742 54.2233L33.3742 57.0376C33.372 57.1478 33.3924 57.258 33.4377 57.3567C33.4762 57.4371 33.5306 57.5105 33.6009 57.5656C33.6666 57.6184 33.7414 57.6574 33.823 57.6827C33.9023 57.7079 33.9862 57.7217 34.0701 57.7217C34.1539 57.7217 34.2355 57.7079 34.3149 57.6827C34.3965 57.6597 34.4712 57.6184 34.537 57.5656C34.605 57.5082 34.6594 57.4371 34.6956 57.3567C34.741 57.2557 34.7614 57.1478 34.7591 57.0376L34.7591 54.2233L35.7541 54.2233L35.7541 57.2029C35.7587 57.421 35.7111 57.6368 35.6113 57.8296L35.6045 57.8296Z" fill="#989898" style="fill:#989898;fill:color(display-p3 0.5961 0.5961 0.5961);fill-opacity:1;"/>
<path d="M38.3924 54.2233C38.6055 54.2164 38.8162 54.2577 39.0134 54.3404C39.1744 54.4115 39.3194 54.5194 39.4328 54.6549C39.5415 54.7857 39.6209 54.9349 39.6707 55.0979C39.7206 55.2632 39.7455 55.4376 39.7455 55.6121C39.7455 55.7866 39.7161 55.961 39.6549 56.1263C39.5302 56.466 39.2764 56.7392 38.95 56.8838C38.7641 56.9642 38.5624 57.0055 38.3607 57.0009L37.5016 57.0009L37.5016 58.5917L36.5066 58.5917L36.5066 54.2233L38.3924 54.2233ZM37.4994 56.1056L38.2315 56.1056C38.3788 56.1217 38.5261 56.0689 38.6327 55.961C38.712 55.8623 38.7551 55.7384 38.7505 55.6121C38.7528 55.4859 38.712 55.3619 38.6349 55.2632C38.5284 55.1553 38.3811 55.1025 38.2315 55.1186L37.4994 55.1186L37.4994 56.1079L37.4994 56.1056Z" fill="#989898" style="fill:#989898;fill:color(display-p3 0.5961 0.5961 0.5961);fill-opacity:1;"/>
<path opacity="0.6" d="M88.9294 53.3223L88.6731 53.3223L88.6731 52.9253L87.4426 52.9253L87.4426 53.3223L87.1863 53.3223L87.1863 52.6953L87.3635 52.6953C87.4778 52.5068 87.5627 52.2896 87.6184 52.0435C87.675 51.7964 87.7034 51.5464 87.7034 51.2935L88.7317 51.2935L88.7317 52.6953L88.9294 52.6953L88.9294 53.3223ZM88.4563 52.6953L88.4563 51.5249L87.9626 51.5249C87.9499 51.77 87.9123 51.9937 87.8498 52.1958C87.7873 52.3979 87.7156 52.5645 87.6345 52.6953L88.4563 52.6953ZM90.7501 52.9297L90.4747 52.9297L90.4747 51.5249L89.8639 51.5249C89.861 51.606 89.858 51.6841 89.8551 51.7593C89.8522 51.8345 89.8492 51.9023 89.8463 51.9629C89.8395 52.126 89.8282 52.2563 89.8126 52.354C89.797 52.4507 89.7765 52.5312 89.7511 52.5957C89.7277 52.6562 89.7013 52.7056 89.672 52.7437C89.6437 52.7808 89.6129 52.8145 89.5797 52.8447C89.5465 52.874 89.5094 52.896 89.4684 52.9106C89.4283 52.9253 89.3844 52.9326 89.3365 52.9326C89.3199 52.9326 89.2955 52.9321 89.2633 52.9312C89.2321 52.9302 89.2115 52.9297 89.2018 52.9297L89.2018 52.6895L89.2164 52.6895C89.2242 52.6895 89.2355 52.6899 89.2501 52.6909C89.2648 52.6919 89.277 52.6924 89.2867 52.6924C89.3102 52.6924 89.3341 52.689 89.3585 52.6821C89.3839 52.6753 89.4054 52.6626 89.423 52.644C89.4728 52.5952 89.5128 52.5127 89.5431 52.3965C89.5734 52.2803 89.5934 52.1123 89.6031 51.8926C89.6071 51.8125 89.6105 51.7178 89.6134 51.6084C89.6173 51.498 89.6207 51.3931 89.6237 51.2935L90.7501 51.2935L90.7501 52.9297ZM92.6704 52.9297L92.395 52.9297L92.395 52.2808L92.0713 52.2808L91.5645 52.9297L91.2407 52.9297L91.7915 52.2544C91.6499 52.2153 91.5464 52.1558 91.481 52.0757C91.4155 51.9946 91.3828 51.8887 91.3828 51.7578C91.3828 51.6709 91.4023 51.5972 91.4414 51.5366C91.4805 51.4761 91.5298 51.4268 91.5894 51.3887C91.6479 51.3516 91.7153 51.3267 91.7915 51.314C91.8677 51.3003 91.9507 51.2935 92.0405 51.2935L92.6704 51.2935L92.6704 52.9297ZM92.395 52.064L92.395 51.5132L92.0479 51.5132C91.9727 51.5132 91.9185 51.5156 91.8853 51.5205C91.8521 51.5254 91.8159 51.5386 91.7769 51.5601C91.7388 51.5815 91.7104 51.6108 91.6919 51.6479C91.6743 51.6841 91.6655 51.7236 91.6655 51.7666C91.6655 51.8203 91.6709 51.8638 91.6816 51.897C91.6934 51.9302 91.7168 51.9614 91.752 51.9907C91.7881 52.019 91.832 52.0386 91.8838 52.0493C91.9355 52.0591 91.9932 52.064 92.0566 52.064L92.395 52.064ZM73.0983 55.1123C73.0983 55.3789 73.03 55.5894 72.8933 55.7437C72.7565 55.8979 72.5734 55.9751 72.3439 55.9751C72.1125 55.9751 71.9284 55.8979 71.7917 55.7437C71.656 55.5894 71.5881 55.3789 71.5881 55.1123C71.5881 54.8457 71.656 54.6353 71.7917 54.481C71.9284 54.3257 72.1125 54.248 72.3439 54.248C72.5734 54.248 72.7565 54.3257 72.8933 54.481C73.03 54.6353 73.0983 54.8457 73.0983 55.1123ZM72.8142 55.1123C72.8142 54.9004 72.7727 54.7432 72.6896 54.6406C72.6066 54.5371 72.4914 54.4854 72.3439 54.4854C72.1945 54.4854 72.0783 54.5371 71.9953 54.6406C71.9133 54.7432 71.8723 54.9004 71.8723 55.1123C71.8723 55.3174 71.9138 55.4731 71.9968 55.5796C72.0798 55.6851 72.1955 55.7378 72.3439 55.7378C72.4904 55.7378 72.6052 55.6855 72.6882 55.5811C72.7722 55.4756 72.8142 55.3193 72.8142 55.1123ZM75.0157 55.9297L74.7403 55.9297L74.7403 54.5308L73.9215 54.5308L73.9215 55.9297L73.6461 55.9297L73.6461 54.2935L75.0157 54.2935L75.0157 55.9297ZM76.8818 54.5352L76.29 54.5352L76.29 55.9297L76.0146 55.9297L76.0146 54.5352L75.4228 54.5352L75.4228 54.2935L76.8818 54.2935L76.8818 54.5352ZM78.6659 55.9297L78.3934 55.9297L78.3934 54.7007L77.5365 55.9297L77.2874 55.9297L77.2874 54.2935L77.5599 54.2935L77.5599 55.5049L78.408 54.2935L78.6659 54.2935L78.6659 55.9297ZM80.8762 55.9297L80.6037 55.9297L80.6037 54.6377L80.1965 55.4785L79.9914 55.4785L79.5871 54.6377L79.5871 55.9297L79.3293 55.9297L79.3293 54.2935L79.6618 54.2935L80.1071 55.209L80.5378 54.2935L80.8762 54.2935L80.8762 55.9297ZM82.9166 55.9297L82.6441 55.9297L82.6441 54.7007L81.7872 55.9297L81.5382 55.9297L81.5382 54.2935L81.8106 54.2935L81.8106 55.5049L82.6588 54.2935L82.9166 54.2935L82.9166 55.9297ZM84.7182 55.4712C84.7182 55.563 84.6968 55.6406 84.6538 55.7041C84.6118 55.7676 84.5576 55.8188 84.4912 55.8579C84.4248 55.896 84.3515 55.9238 84.2715 55.9414C84.1914 55.959 84.1113 55.9678 84.0312 55.9678C83.9179 55.9678 83.81 55.957 83.7075 55.9355C83.605 55.9141 83.5039 55.8809 83.4043 55.8359L83.4043 55.5342L83.4233 55.5342C83.4946 55.5967 83.5854 55.645 83.6958 55.6792C83.8061 55.7134 83.9131 55.7305 84.0166 55.7305C84.0654 55.7305 84.1157 55.7261 84.1675 55.7173C84.2192 55.7075 84.2641 55.6924 84.3022 55.6719C84.3432 55.6484 84.376 55.6206 84.4004 55.5884C84.4248 55.5552 84.437 55.5103 84.437 55.4536C84.437 55.395 84.4248 55.3481 84.4004 55.313C84.3769 55.2778 84.3447 55.2515 84.3037 55.2339C84.2637 55.2163 84.2153 55.2056 84.1587 55.2017C84.102 55.1978 84.0503 55.1958 84.0034 55.1958L83.7646 55.1958L83.7646 54.9585L83.9302 54.9585C83.9692 54.9585 84.02 54.957 84.0825 54.9541C84.146 54.9512 84.1972 54.9434 84.2363 54.9307C84.2871 54.9141 84.3271 54.8906 84.3564 54.8604C84.3867 54.8301 84.4018 54.7817 84.4018 54.7153C84.4018 54.6694 84.3901 54.6318 84.3667 54.6025C84.3432 54.5723 84.3139 54.5488 84.2788 54.5322C84.2427 54.5156 84.2021 54.5044 84.1572 54.4985C84.1133 54.4927 84.0742 54.4897 84.04 54.4897C83.9404 54.4897 83.8423 54.5034 83.7456 54.5308C83.6499 54.5571 83.5693 54.5957 83.5039 54.6465L83.4848 54.6465L83.4848 54.3433C83.5659 54.3169 83.6528 54.2954 83.7456 54.2788C83.8384 54.2622 83.9311 54.2539 84.0239 54.2539C84.1001 54.2539 84.1758 54.2607 84.251 54.2744C84.3271 54.2881 84.3979 54.3115 84.4634 54.3447C84.5278 54.3779 84.5805 54.4233 84.6216 54.481C84.6626 54.5376 84.6831 54.6079 84.6831 54.6919C84.6831 54.7778 84.6562 54.8535 84.6025 54.9189C84.5498 54.9834 84.4785 55.0298 84.3887 55.0581L84.3887 55.0684C84.4892 55.0928 84.5693 55.1387 84.6289 55.2061C84.6885 55.2725 84.7182 55.3608 84.7182 55.4712ZM86.5448 55.9297L86.2709 55.9297L86.2709 55.7554C86.2464 55.772 86.2132 55.7954 86.1713 55.8257C86.1302 55.855 86.0902 55.8784 86.0511 55.896C86.0052 55.9185 85.9525 55.937 85.8929 55.9517C85.8334 55.9673 85.7635 55.9751 85.6835 55.9751C85.536 55.9751 85.411 55.9263 85.3085 55.8286C85.2059 55.731 85.1546 55.6064 85.1546 55.4551C85.1546 55.3311 85.181 55.231 85.2338 55.1548C85.2875 55.0776 85.3636 55.0171 85.4623 54.9731C85.5619 54.9292 85.6815 54.8994 85.8212 54.8838C85.9608 54.8682 86.1107 54.8564 86.2709 54.8486L86.2709 54.8062C86.2709 54.7437 86.2596 54.6919 86.2372 54.6509C86.2157 54.6099 86.1844 54.5776 86.1434 54.5542C86.1044 54.5317 86.0575 54.5166 86.0028 54.5088C85.9481 54.501 85.891 54.4971 85.8314 54.4971C85.7591 54.4971 85.6786 54.5068 85.5897 54.5264C85.5008 54.5449 85.409 54.5723 85.3143 54.6084L85.2997 54.6084L85.2997 54.3286C85.3534 54.314 85.431 54.2979 85.5326 54.2803C85.6341 54.2627 85.7342 54.2539 85.8329 54.2539C85.9481 54.2539 86.0482 54.2637 86.1332 54.2832C86.2191 54.3018 86.2933 54.334 86.3558 54.3799C86.4173 54.4248 86.4642 54.4829 86.4964 54.5542C86.5287 54.6255 86.5448 54.7139 86.5448 54.8193L86.5448 55.9297ZM86.2709 55.5269L86.2709 55.0713C86.1869 55.0762 86.0878 55.0835 85.9735 55.0933C85.8602 55.103 85.7704 55.1172 85.704 55.1357C85.6249 55.1582 85.5609 55.1934 85.5121 55.2412C85.4632 55.2881 85.4388 55.353 85.4388 55.436C85.4388 55.5298 85.4671 55.6006 85.5238 55.6484C85.5804 55.6953 85.6669 55.7187 85.7831 55.7187C85.8797 55.7187 85.9681 55.7002 86.0482 55.6631C86.1283 55.625 86.2025 55.5796 86.2709 55.5269ZM88.4929 55.9297L87.1951 55.9297L87.1951 54.2935L87.4705 54.2935L87.4705 55.6924L88.2761 55.6924L88.2761 54.2935L88.5515 54.2935L88.5515 55.6924L88.7493 55.6924L88.7493 56.3223L88.4929 56.3223L88.4929 55.9297ZM90.6271 55.9297L90.3546 55.9297L90.3546 54.7007L89.4977 55.9297L89.2487 55.9297L89.2487 54.2935L89.5211 54.2935L89.5211 55.5049L90.3693 54.2935L90.6271 54.2935L90.6271 55.9297ZM92.6689 55.9297L92.3965 55.9297L92.3965 54.7007L91.5396 55.9297L91.2905 55.9297L91.2905 54.2935L91.563 54.2935L91.563 55.5049L92.4111 54.2935L92.6689 54.2935L92.6689 55.9297ZM81.2527 57.5352C81.321 57.6035 81.3728 57.6865 81.4079 57.7842C81.4431 57.8809 81.4607 57.9946 81.4607 58.1255C81.4607 58.3696 81.3874 58.5723 81.2409 58.7334C81.0945 58.8945 80.9143 58.9751 80.7004 58.9751C80.5949 58.9751 80.4978 58.9575 80.4089 58.9224C80.32 58.8862 80.2444 58.8311 80.1819 58.7568C80.1037 58.6641 80.0451 58.5474 80.0061 58.4067C79.968 58.2651 79.9489 58.0928 79.9489 57.8896C79.9489 57.8164 79.9524 57.7422 79.9592 57.667C79.966 57.5908 79.9817 57.5 80.0061 57.3945C80.0256 57.3037 80.0539 57.2163 80.091 57.1323C80.1291 57.0483 80.174 56.9805 80.2258 56.9287C80.2961 56.8574 80.3884 56.8003 80.5027 56.7573C80.6179 56.7134 80.7702 56.6831 80.9597 56.6665C81.0368 56.6597 81.1086 56.6543 81.175 56.6504C81.2414 56.6455 81.301 56.6411 81.3537 56.6372L81.3537 56.8906C81.2893 56.8945 81.2253 56.8984 81.1618 56.9023C81.0993 56.9062 81.0368 56.9111 80.9743 56.917C80.8493 56.9277 80.7361 56.9482 80.6345 56.9785C80.5339 57.0088 80.4602 57.0479 80.4133 57.0957C80.3615 57.1475 80.3225 57.2153 80.2961 57.2993C80.2707 57.3823 80.2541 57.4614 80.2463 57.5366C80.3196 57.4839 80.3996 57.4399 80.4865 57.4048C80.5744 57.3687 80.6677 57.3506 80.7663 57.3506C80.8581 57.3506 80.9465 57.3657 81.0315 57.396C81.1164 57.4263 81.1902 57.4727 81.2527 57.5352ZM81.1809 58.1416C81.1809 57.9609 81.1374 57.8262 81.0505 57.7373C80.9636 57.6475 80.8488 57.6025 80.7063 57.6025C80.6213 57.6025 80.5398 57.6162 80.4616 57.6436C80.3835 57.6699 80.3093 57.7056 80.239 57.7505C80.237 57.7749 80.2351 57.8037 80.2331 57.8369C80.2321 57.8691 80.2317 57.8989 80.2317 57.9263C80.2317 58.0962 80.2458 58.2339 80.2741 58.3394C80.3025 58.4448 80.3425 58.5288 80.3943 58.5913C80.4392 58.644 80.488 58.6816 80.5407 58.7041C80.5935 58.7256 80.6501 58.7363 80.7107 58.7363C80.8581 58.7363 80.9734 58.6831 81.0564 58.5767C81.1394 58.4702 81.1809 58.3252 81.1809 58.1416ZM83.3912 58.9297L83.1188 58.9297L83.1188 57.7007L82.2618 58.9297L82.0128 58.9297L82.0128 57.2935L82.2853 57.2935L82.2853 58.5049L83.1334 57.2935L83.3912 57.2935L83.3912 58.9297ZM85.1929 58.4712C85.1929 58.563 85.1714 58.6406 85.1284 58.7041C85.0864 58.7676 85.0322 58.8188 84.9658 58.8579C84.8994 58.896 84.8262 58.9238 84.7461 58.9414C84.666 58.959 84.5859 58.9678 84.5058 58.9678C84.3926 58.9678 84.2846 58.957 84.1821 58.9355C84.0796 58.9141 83.9785 58.8809 83.8789 58.8359L83.8789 58.5342L83.8979 58.5342C83.9692 58.5967 84.06 58.645 84.1704 58.6792C84.2807 58.7134 84.3877 58.7305 84.4912 58.7305C84.54 58.7305 84.5903 58.7261 84.6421 58.7173C84.6938 58.7075 84.7388 58.6924 84.7768 58.6719C84.8179 58.6484 84.8506 58.6206 84.875 58.5884C84.8994 58.5552 84.9116 58.5103 84.9116 58.4536C84.9116 58.395 84.8994 58.3481 84.875 58.313C84.8515 58.2778 84.8193 58.2515 84.7783 58.2339C84.7383 58.2163 84.6899 58.2056 84.6333 58.2017C84.5766 58.1978 84.5249 58.1958 84.478 58.1958L84.2392 58.1958L84.2392 57.9585L84.4048 57.9585C84.4438 57.9585 84.4946 57.957 84.5571 57.9541C84.6206 57.9512 84.6719 57.9434 84.7109 57.9307C84.7617 57.9141 84.8017 57.8906 84.831 57.8604C84.8613 57.8301 84.8764 57.7817 84.8764 57.7153C84.8764 57.6694 84.8647 57.6318 84.8413 57.6025C84.8179 57.5723 84.7886 57.5488 84.7534 57.5322C84.7173 57.5156 84.6767 57.5044 84.6318 57.4985C84.5879 57.4927 84.5488 57.4897 84.5146 57.4897C84.415 57.4897 84.3169 57.5034 84.2202 57.5308C84.1245 57.5571 84.0439 57.5957 83.9785 57.6465L83.9595 57.6465L83.9595 57.3433C84.0405 57.3169 84.1274 57.2954 84.2202 57.2788C84.313 57.2622 84.4057 57.2539 84.4985 57.2539C84.5747 57.2539 84.6504 57.2607 84.7256 57.2744C84.8017 57.2881 84.8725 57.3115 84.938 57.3447C85.0024 57.3779 85.0552 57.4233 85.0962 57.481C85.1372 57.5376 85.1577 57.6079 85.1577 57.6919C85.1577 57.7778 85.1308 57.8535 85.0771 57.9189C85.0244 57.9834 84.9531 58.0298 84.8633 58.0581L84.8633 58.0684C84.9638 58.0928 85.0439 58.1387 85.1035 58.2061C85.1631 58.2725 85.1929 58.3608 85.1929 58.4712ZM87.1175 58.9297L86.8421 58.9297L86.8421 58.1929L86.0233 58.1929L86.0233 58.9297L85.7479 58.9297L85.7479 57.2935L86.0233 57.2935L86.0233 57.9556L86.8421 57.9556L86.8421 57.2935L87.1175 57.2935L87.1175 58.9297ZM89.1506 58.1401L87.9451 58.1401C87.9451 58.2407 87.9602 58.3286 87.9905 58.4038C88.0207 58.478 88.0622 58.5391 88.115 58.5869C88.1658 58.6338 88.2258 58.6689 88.2952 58.6924C88.3655 58.7158 88.4426 58.7275 88.5266 58.7275C88.6379 58.7275 88.7497 58.7056 88.8621 58.6616C88.9753 58.6167 89.0559 58.5728 89.1038 58.5298L89.1184 58.5298L89.1184 58.8301C89.0256 58.8691 88.9309 58.9019 88.8342 58.9282C88.7375 58.9546 88.636 58.9678 88.5295 58.9678C88.258 58.9678 88.0461 58.8945 87.8938 58.748C87.7414 58.6006 87.6653 58.3916 87.6653 58.1211C87.6653 57.8535 87.738 57.6411 87.8835 57.4839C88.03 57.3267 88.2224 57.248 88.4607 57.248C88.6814 57.248 88.8513 57.3125 88.9705 57.4414C89.0906 57.5703 89.1506 57.7534 89.1506 57.9907L89.1506 58.1401ZM88.8826 57.9292C88.8816 57.7847 88.845 57.6729 88.7727 57.5937C88.7014 57.5146 88.5925 57.4751 88.446 57.4751C88.2986 57.4751 88.1809 57.5186 88.093 57.6055C88.0061 57.6924 87.9568 57.8003 87.9451 57.9292L88.8826 57.9292ZM90.9127 58.8271C90.8004 58.8799 90.7037 58.916 90.6227 58.9355C90.5426 58.9561 90.4625 58.9663 90.3824 58.9663C90.2633 58.9663 90.1539 58.9492 90.0543 58.915C89.9547 58.8799 89.8693 58.8271 89.798 58.7568C89.7267 58.6865 89.671 58.5977 89.631 58.4902C89.5919 58.3828 89.5724 58.2573 89.5724 58.1138C89.5724 57.853 89.6446 57.645 89.7892 57.4897C89.9337 57.3335 90.1315 57.2554 90.3824 57.2554C90.4772 57.2554 90.5699 57.2686 90.6608 57.2949C90.7526 57.3213 90.8365 57.3535 90.9127 57.3916L90.9127 57.6978L90.8966 57.6978C90.8058 57.6284 90.7159 57.5771 90.6271 57.5439C90.5392 57.5107 90.4537 57.4941 90.3707 57.4941C90.2076 57.4941 90.0812 57.5488 89.9913 57.6582C89.9025 57.7676 89.858 57.9194 89.858 58.1138C89.858 58.3081 89.9025 58.459 89.9913 58.5664C90.0802 58.6738 90.2067 58.7275 90.3707 58.7275C90.4283 58.7275 90.4855 58.7202 90.5421 58.7056C90.5997 58.6909 90.652 58.6719 90.6988 58.6484C90.736 58.6299 90.774 58.6079 90.8131 58.5825C90.8531 58.5562 90.881 58.5366 90.8966 58.5239L90.9127 58.5239L90.9127 58.8271ZM92.6821 58.9297L92.4082 58.9297L92.4082 58.7554C92.3838 58.772 92.3506 58.7954 92.3086 58.8257C92.2676 58.855 92.2275 58.8784 92.1885 58.896C92.1426 58.9185 92.0898 58.937 92.0303 58.9517C91.9707 58.9673 91.9009 58.9751 91.8208 58.9751C91.6733 58.9751 91.5483 58.9263 91.4458 58.8286C91.3433 58.731 91.292 58.6064 91.292 58.4551C91.292 58.3311 91.3184 58.231 91.3711 58.1548C91.4248 58.0776 91.501 58.0171 91.5996 57.9731C91.6992 57.9292 91.8188 57.8994 91.9585 57.8838C92.0981 57.8682 92.248 57.8564 92.4082 57.8486L92.4082 57.8062C92.4082 57.7437 92.397 57.6919 92.3745 57.6509C92.353 57.6099 92.3218 57.5776 92.2808 57.5542C92.2417 57.5317 92.1948 57.5166 92.1401 57.5088C92.0855 57.501 92.0283 57.4971 91.9688 57.4971C91.8965 57.4971 91.8159 57.5068 91.7271 57.5264C91.6382 57.5449 91.5464 57.5723 91.4517 57.6084L91.437 57.6084L91.437 57.3286C91.4907 57.314 91.5684 57.2979 91.6699 57.2803C91.7715 57.2627 91.8716 57.2539 91.9702 57.2539C92.0855 57.2539 92.1855 57.2637 92.2705 57.2832C92.3564 57.3018 92.4307 57.334 92.4932 57.3799C92.5547 57.4248 92.6016 57.4829 92.6338 57.5542C92.666 57.6255 92.6821 57.7139 92.6821 57.8193L92.6821 58.9297ZM92.4082 58.5269L92.4082 58.0713C92.3242 58.0762 92.2251 58.0835 92.1108 58.0933C91.9976 58.103 91.9077 58.1172 91.8413 58.1357C91.7622 58.1582 91.6982 58.1934 91.6494 58.2412C91.6006 58.2881 91.5762 58.353 91.5762 58.436C91.5762 58.5298 91.6045 58.6006 91.6611 58.6484C91.7178 58.6953 91.8042 58.7187 91.9204 58.7187C92.0171 58.7187 92.1055 58.7002 92.1855 58.6631C92.2656 58.625 92.3398 58.5796 92.4082 58.5269Z" fill="#989898" style="fill:#989898;fill:color(display-p3 0.5961 0.5961 0.5961);fill-opacity:1;"/>
<line x1="20.9414" y1="62.6797" x2="92.9414" y2="62.6797" stroke="#D7D7D7" style="stroke:#D7D7D7;stroke:color(display-p3 0.8417 0.8417 0.8417);stroke-opacity:1;" stroke-width="0.5"/>
<path d="M23.8366 101.93L23.8366 96.3991L21.3546 96.3991L21.3546 101.93L20.016 101.93L20.016 95.1972L25.1948 95.1972L25.1948 101.93L23.8366 101.93ZM30.4175 100.21C30.4175 100.51 30.3556 100.77 30.2318 100.992C30.1145 101.213 29.9549 101.399 29.753 101.549C29.5576 101.692 29.3328 101.799 29.0788 101.871C28.8247 101.943 28.5642 101.979 28.2971 101.979C28.0235 101.979 27.7596 101.943 27.5056 101.871C27.2515 101.799 27.0235 101.692 26.8216 101.549C26.6262 101.399 26.4698 101.213 26.3526 100.992C26.2353 100.77 26.1767 100.51 26.1767 100.21L26.1767 98.8126C26.1767 98.513 26.2353 98.2524 26.3526 98.0309C26.4763 97.8094 26.6359 97.627 26.8314 97.4837C27.0333 97.3339 27.2613 97.2231 27.5154 97.1515C27.7759 97.0733 28.0398 97.0342 28.3068 97.0342C28.5935 97.0342 28.8638 97.0733 29.1179 97.1515C29.3784 97.2231 29.6032 97.3339 29.7921 97.4837C29.9875 97.6335 30.1406 97.8224 30.2513 98.0504C30.3621 98.2719 30.4175 98.5325 30.4175 98.8322L30.4175 100.21ZM29.1765 99.0276C29.1765 98.8712 29.1504 98.741 29.0983 98.6367C29.0462 98.5325 28.9778 98.4478 28.8931 98.3827C28.8084 98.311 28.714 98.2622 28.6097 98.2361C28.512 98.2035 28.4111 98.1872 28.3068 98.1872C28.2026 98.1872 28.0951 98.2035 27.9844 98.2361C27.8802 98.2622 27.7857 98.311 27.701 98.3827C27.6163 98.4478 27.5479 98.5325 27.4958 98.6367C27.4437 98.741 27.4176 98.8712 27.4176 99.0276L27.4176 99.9852C27.4176 100.142 27.4404 100.275 27.486 100.386C27.5382 100.49 27.6066 100.578 27.6912 100.65C27.7759 100.715 27.8704 100.764 27.9746 100.796C28.0788 100.822 28.1896 100.835 28.3068 100.835C28.4111 100.835 28.512 100.822 28.6097 100.796C28.714 100.764 28.8084 100.715 28.8931 100.65C28.9778 100.578 29.0462 100.49 29.0983 100.386C29.1504 100.275 29.1765 100.142 29.1765 99.9852L29.1765 99.0276ZM35.4356 100.474C35.4356 100.676 35.403 100.865 35.3379 101.04C35.2727 101.216 35.1718 101.373 35.035 101.51C34.9047 101.64 34.7386 101.744 34.5366 101.822C34.3412 101.894 34.11 101.93 33.8429 101.93L31.2925 101.93L31.2925 97.0928L33.8233 97.0928C34.0774 97.0928 34.2989 97.1287 34.4878 97.2003C34.6832 97.2655 34.8428 97.3567 34.9666 97.4739C35.0969 97.5912 35.1913 97.7312 35.2499 97.8941C35.3151 98.0504 35.3477 98.2198 35.3477 98.4022C35.3477 98.5064 35.3314 98.6107 35.2988 98.7149C35.2662 98.8191 35.2206 98.9168 35.162 99.008C35.1034 99.0927 35.035 99.1709 34.9568 99.2426C34.8786 99.3077 34.7972 99.3566 34.7125 99.3891L34.7125 99.3989C34.934 99.4901 35.1099 99.6302 35.2402 99.8191C35.3705 100.008 35.4356 100.226 35.4356 100.474ZM34.1653 100.425C34.1653 100.275 34.1132 100.155 34.009 100.063C33.9048 99.9722 33.7647 99.9266 33.5888 99.9266L32.5335 99.9266L32.5335 100.923L33.5595 100.923C33.768 100.923 33.921 100.878 34.0188 100.786C34.1165 100.695 34.1653 100.575 34.1653 100.425ZM34.1067 98.539C34.1067 98.4022 34.0578 98.298 33.9601 98.2263C33.8689 98.1547 33.7452 98.1188 33.5888 98.1188L32.5335 98.1188L32.5335 98.9396L33.6084 98.9396C33.7712 98.9396 33.895 98.9038 33.9797 98.8322C34.0644 98.7605 34.1067 98.6628 34.1067 98.539ZM40.856 101.93L40.856 97.0928L42.0872 97.0928L42.0872 101.93L40.856 101.93ZM37.5435 100.904L38.5695 100.904C38.791 100.904 38.9538 100.855 39.058 100.757C39.1623 100.659 39.2144 100.532 39.2144 100.376C39.2144 100.246 39.1623 100.128 39.058 100.024C38.9603 99.9135 38.7975 99.8582 38.5695 99.8582L37.5435 99.8582L37.5435 100.904ZM36.3221 101.93L36.3221 97.0928L37.5435 97.0928L37.5435 98.8517L38.677 98.8517C39.2307 98.8517 39.6574 98.9885 39.957 99.2621C40.2632 99.5357 40.4163 99.907 40.4163 100.376C40.4163 100.571 40.3837 100.764 40.3186 100.953C40.2534 101.135 40.1524 101.301 40.0156 101.451C39.8788 101.594 39.6997 101.711 39.4782 101.803C39.2632 101.887 39.0059 101.93 38.7063 101.93L36.3221 101.93ZM49.3997 97.0928L49.3997 101.93L43.1069 101.93L43.1069 97.0928L44.3479 97.0928L44.3479 100.845L45.6279 100.845L45.6279 97.0928L46.8591 97.0928L46.8591 100.845L48.149 100.845L48.149 97.0928L49.3997 97.0928ZM51.5987 99.8777L51.5987 100.034C51.5987 100.177 51.6215 100.301 51.6671 100.405C51.7192 100.51 51.7844 100.594 51.8625 100.659C51.9472 100.725 52.0417 100.773 52.1459 100.806C52.2501 100.839 52.3609 100.855 52.4781 100.855C52.6149 100.855 52.7843 100.835 52.9863 100.796C53.1882 100.751 53.4032 100.637 53.6312 100.454L54.3152 101.304C54.1653 101.448 54.0155 101.565 53.8657 101.656C53.7159 101.741 53.566 101.809 53.4162 101.861C53.2664 101.907 53.1133 101.936 52.9569 101.949C52.8071 101.969 52.654 101.979 52.4977 101.979C52.2111 101.979 51.9375 101.943 51.6769 101.871C51.4228 101.799 51.1981 101.692 51.0027 101.549C50.8072 101.399 50.6509 101.213 50.5336 100.992C50.4164 100.77 50.3577 100.506 50.3577 100.2L50.3577 98.9494C50.3577 98.6498 50.4099 98.3827 50.5141 98.1482C50.6248 97.9071 50.7747 97.7052 50.9636 97.5423C51.1525 97.3795 51.3707 97.2557 51.6183 97.171C51.8658 97.0863 52.1329 97.044 52.4195 97.044C52.7192 97.044 52.996 97.0863 53.2501 97.171C53.5041 97.2557 53.7224 97.3795 53.9048 97.5423C54.0872 97.6987 54.2305 97.8941 54.3347 98.1286C54.4389 98.3631 54.491 98.6302 54.491 98.9299L54.491 99.8777L51.5987 99.8777ZM53.2501 98.969C53.2501 98.6954 53.1687 98.4967 53.0058 98.3729C52.8429 98.2426 52.6508 98.1775 52.4293 98.1775C52.2013 98.1775 52.0059 98.2491 51.843 98.3924C51.6801 98.5358 51.5987 98.741 51.5987 99.008L51.5987 99.0667L53.2501 99.0667L53.2501 98.969ZM58.3685 101.93L58.3685 99.995L56.5901 99.995L56.5901 101.93L55.3686 101.93L55.3686 97.0928L56.5901 97.0928L56.5901 98.9494L58.3685 98.9494L58.3685 97.0928L59.6192 97.0928L59.6192 101.93L58.3685 101.93ZM63.5879 99.0569L62.7671 100.317L61.6825 101.93L60.5979 101.93L60.5979 97.0928L61.8388 97.0928L61.8388 99.9461L61.8877 99.9461L62.5912 98.8712L63.7736 97.0928L64.8777 97.0928L64.8777 101.93L63.6368 101.93L63.6368 99.0569L63.5879 99.0569ZM69.8815 97.0928L69.8815 101.93L68.6308 101.93L68.6308 100.102L68.1129 100.102C67.8979 100.102 67.7188 100.145 67.5755 100.229C67.4322 100.308 67.3214 100.487 67.2433 100.767L66.9501 101.93L65.6505 101.93L66.0511 100.532C66.1033 100.37 66.1684 100.229 66.2466 100.112C66.3247 99.9884 66.4355 99.9005 66.5788 99.8484C66.4355 99.8028 66.315 99.7344 66.2173 99.6432C66.1195 99.552 66.0381 99.451 65.973 99.3403C65.9143 99.223 65.872 99.1025 65.8459 98.9787C65.8199 98.855 65.8069 98.7344 65.8069 98.6172C65.8069 98.4283 65.8394 98.2426 65.9046 98.0602C65.9697 97.8778 66.0707 97.715 66.2075 97.5716C66.3443 97.4283 66.5169 97.3143 66.7254 97.2296C66.9338 97.1384 67.1814 97.0928 67.468 97.0928L69.8815 97.0928ZM68.6308 98.1286L67.6341 98.1286C67.4582 98.1286 67.3149 98.1742 67.2042 98.2654C67.0999 98.3501 67.0478 98.4706 67.0478 98.627C67.0478 98.9331 67.2465 99.0862 67.6439 99.0862L68.6308 99.0862L68.6308 98.1286ZM21.4035 111.979C21.2472 111.979 21.0908 111.972 20.9345 111.959C20.7846 111.946 20.6316 111.917 20.4752 111.871C20.3254 111.825 20.1756 111.76 20.0257 111.676C19.8759 111.591 19.7293 111.474 19.586 111.324L20.27 110.425C20.3808 110.529 20.485 110.611 20.5827 110.669C20.6804 110.721 20.7716 110.76 20.8563 110.786C20.941 110.812 21.0192 110.829 21.0908 110.835C21.1625 110.842 21.2276 110.845 21.2862 110.845C21.397 110.845 21.5045 110.832 21.6087 110.806C21.7129 110.773 21.8041 110.725 21.8823 110.659C21.967 110.588 22.0321 110.5 22.0777 110.396C22.1298 110.291 22.1559 110.164 22.1559 110.014L22.1559 109.897L20.6413 109.897L20.6413 108.998L22.1559 108.998L22.1559 108.92C22.1559 108.633 22.081 108.441 21.9312 108.344C21.7813 108.239 21.5989 108.187 21.384 108.187C21.2602 108.187 21.1038 108.21 20.9149 108.256C20.7325 108.301 20.5599 108.399 20.397 108.549L19.7424 107.65C19.8792 107.526 20.0225 107.425 20.1723 107.347C20.3286 107.262 20.485 107.197 20.6413 107.151C20.7977 107.106 20.9475 107.077 21.0908 107.064C21.2406 107.044 21.3774 107.034 21.5012 107.034C22.081 107.034 22.5402 107.181 22.879 107.474C23.2242 107.767 23.3969 108.204 23.3969 108.783L23.3969 110.2C23.3969 110.493 23.3415 110.751 23.2307 110.972C23.1265 111.194 22.98 111.379 22.791 111.529C22.6086 111.679 22.3969 111.793 22.1559 111.871C21.9149 111.943 21.6641 111.979 21.4035 111.979ZM26.4281 113.874L26.4281 111.979C26.1024 111.979 25.806 111.926 25.5389 111.822C25.2719 111.718 25.0406 111.575 24.8452 111.392C24.6563 111.21 24.5097 110.995 24.4055 110.747C24.3012 110.493 24.2491 110.22 24.2491 109.927L24.2491 109.106C24.2491 108.813 24.298 108.546 24.3957 108.304C24.4999 108.057 24.6465 107.842 24.8354 107.66C25.0243 107.477 25.2523 107.334 25.5194 107.23C25.793 107.125 26.0959 107.067 26.4281 107.054L26.4281 105.207L27.6691 105.207L27.6691 107.054C27.9948 107.067 28.2912 107.125 28.5583 107.23C28.8254 107.334 29.0534 107.477 29.2423 107.66C29.4377 107.842 29.5876 108.057 29.6918 108.304C29.796 108.546 29.8481 108.813 29.8481 109.106L29.8481 109.927C29.8481 110.22 29.796 110.493 29.6918 110.747C29.5876 110.995 29.4377 111.21 29.2423 111.392C29.0534 111.575 28.8254 111.718 28.5583 111.822C28.2912 111.926 27.9948 111.979 27.6691 111.979L27.6691 113.874L26.4281 113.874ZM26.4281 108.197C26.122 108.197 25.8874 108.295 25.7246 108.49C25.5617 108.679 25.4803 108.92 25.4803 109.213L25.4803 109.819C25.4803 110.112 25.565 110.356 25.7344 110.552C25.9037 110.741 26.135 110.839 26.4281 110.845L26.4281 108.197ZM27.6691 110.845C27.9753 110.839 28.2098 110.741 28.3726 110.552C28.5355 110.356 28.6169 110.112 28.6169 109.819L28.6169 109.213C28.6169 108.92 28.5388 108.679 28.3824 108.49C28.2261 108.301 27.9883 108.204 27.6691 108.197L27.6691 110.845ZM32.8597 113.874L32.8597 111.979C32.534 111.979 32.2376 111.926 31.9705 111.822C31.7034 111.718 31.4722 111.575 31.2767 111.392C31.0878 111.21 30.9412 110.995 30.837 110.747C30.7328 110.493 30.6807 110.22 30.6807 109.927L30.6807 109.106C30.6807 108.813 30.7295 108.546 30.8272 108.304C30.9315 108.057 31.078 107.842 31.267 107.66C31.4559 107.477 31.6839 107.334 31.951 107.23C32.2246 107.125 32.5275 107.067 32.8597 107.054L32.8597 105.207L34.1007 105.207L34.1007 107.054C34.4264 107.067 34.7228 107.125 34.9899 107.23C35.2569 107.334 35.4849 107.477 35.6739 107.66C35.8693 107.842 36.0191 108.057 36.1233 108.304C36.2276 108.546 36.2797 108.813 36.2797 109.106L36.2797 109.927C36.2797 110.22 36.2276 110.493 36.1233 110.747C36.0191 110.995 35.8693 111.21 35.6739 111.392C35.4849 111.575 35.2569 111.718 34.9899 111.822C34.7228 111.926 34.4264 111.979 34.1007 111.979L34.1007 113.874L32.8597 113.874ZM32.8597 108.197C32.5535 108.197 32.319 108.295 32.1562 108.49C31.9933 108.679 31.9119 108.92 31.9119 109.213L31.9119 109.819C31.9119 110.112 31.9966 110.356 32.1659 110.552C32.3353 110.741 32.5666 110.839 32.8597 110.845L32.8597 108.197ZM34.1007 110.845C34.4068 110.839 34.6413 110.741 34.8042 110.552C34.9671 110.356 35.0485 110.112 35.0485 109.819L35.0485 109.213C35.0485 108.92 34.9703 108.679 34.814 108.49C34.6576 108.301 34.4199 108.204 34.1007 108.197L34.1007 110.845ZM38.3825 109.878L38.3825 110.034C38.3825 110.177 38.4053 110.301 38.4509 110.405C38.503 110.51 38.5682 110.594 38.6463 110.659C38.731 110.725 38.8255 110.773 38.9297 110.806C39.0339 110.839 39.1447 110.855 39.2619 110.855C39.3987 110.855 39.5681 110.835 39.7701 110.796C39.972 110.751 40.187 110.637 40.415 110.454L41.099 111.304C40.9491 111.448 40.7993 111.565 40.6495 111.656C40.4997 111.741 40.3498 111.809 40.2 111.861C40.0502 111.907 39.8971 111.936 39.7407 111.949C39.5909 111.969 39.4378 111.979 39.2815 111.979C38.9949 111.979 38.7213 111.943 38.4607 111.871C38.2066 111.799 37.9819 111.692 37.7865 111.549C37.591 111.399 37.4347 111.213 37.3174 110.992C37.2002 110.77 37.1416 110.506 37.1416 110.2L37.1416 108.949C37.1416 108.65 37.1937 108.383 37.2979 108.148C37.4086 107.907 37.5585 107.705 37.7474 107.542C37.9363 107.379 38.1545 107.256 38.4021 107.171C38.6496 107.086 38.9167 107.044 39.2033 107.044C39.503 107.044 39.7798 107.086 40.0339 107.171C40.2879 107.256 40.5062 107.379 40.6886 107.542C40.871 107.699 41.0143 107.894 41.1185 108.129C41.2227 108.363 41.2749 108.63 41.2749 108.93L41.2749 109.878L38.3825 109.878ZM40.0339 108.969C40.0339 108.695 39.9525 108.497 39.7896 108.373C39.6267 108.243 39.4346 108.177 39.2131 108.177C38.9851 108.177 38.7897 108.249 38.6268 108.392C38.4639 108.536 38.3825 108.741 38.3825 109.008L38.3825 109.067L40.0339 109.067L40.0339 108.969ZM42.1524 111.93L42.1524 107.083L43.4032 107.083L43.4032 108.881L43.8038 108.881C44.0123 108.881 44.1882 108.839 44.3315 108.754C44.4813 108.669 44.6051 108.493 44.7028 108.226L45.123 107.083L46.4519 107.083L45.9437 108.49C45.8656 108.718 45.7711 108.907 45.6604 109.057C45.5562 109.207 45.4031 109.321 45.2011 109.399C45.4422 109.477 45.6148 109.598 45.719 109.76C45.8232 109.917 45.9144 110.115 45.9926 110.356L46.5398 111.93L45.1523 111.93L44.7712 110.65C44.7256 110.506 44.6702 110.392 44.6051 110.308C44.5464 110.216 44.478 110.148 44.3999 110.102C44.3217 110.05 44.2338 110.018 44.136 110.005C44.0383 109.992 43.9308 109.985 43.8136 109.985L43.4032 109.985L43.4032 111.93L42.1524 111.93ZM49.4753 108.138L49.4753 111.93L48.2343 111.93L48.2343 108.138L46.8565 108.138L46.8565 107.093L50.853 107.093L50.853 108.138L49.4753 108.138ZM54.3891 109.057L53.5683 110.317L52.4836 111.93L51.399 111.93L51.399 107.093L52.64 107.093L52.64 109.946L52.6888 109.946L53.3924 108.871L54.5747 107.093L55.6789 107.093L55.6789 111.93L54.4379 111.93L54.4379 109.057L54.3891 109.057ZM60.7706 110.474C60.7706 110.676 60.7381 110.865 60.6729 111.04C60.6078 111.216 60.5068 111.373 60.37 111.51C60.2397 111.64 60.0736 111.744 59.8717 111.822C59.6762 111.894 59.445 111.93 59.1779 111.93L56.6276 111.93L56.6276 107.093L59.1583 107.093C59.4124 107.093 59.6339 107.129 59.8228 107.2C60.0182 107.265 60.1778 107.357 60.3016 107.474C60.4319 107.591 60.5263 107.731 60.585 107.894C60.6501 108.05 60.6827 108.22 60.6827 108.402C60.6827 108.506 60.6664 108.611 60.6338 108.715C60.6013 108.819 60.5557 108.917 60.497 109.008C60.4384 109.093 60.37 109.171 60.2918 109.243C60.2137 109.308 60.1322 109.357 60.0475 109.389L60.0475 109.399C60.269 109.49 60.4449 109.63 60.5752 109.819C60.7055 110.008 60.7706 110.226 60.7706 110.474ZM59.5003 110.425C59.5003 110.275 59.4482 110.155 59.344 110.063C59.2398 109.972 59.0997 109.927 58.9238 109.927L57.8685 109.927L57.8685 110.923L58.8945 110.923C59.103 110.923 59.2561 110.878 59.3538 110.786C59.4515 110.695 59.5003 110.575 59.5003 110.425ZM59.4417 108.539C59.4417 108.402 59.3929 108.298 59.2951 108.226C59.2039 108.155 59.0802 108.119 58.9238 108.119L57.8685 108.119L57.8685 108.94L58.9434 108.94C59.1062 108.94 59.23 108.904 59.3147 108.832C59.3994 108.76 59.4417 108.663 59.4417 108.539ZM64.6569 111.93L64.6569 109.995L62.8785 109.995L62.8785 111.93L61.6571 111.93L61.6571 107.093L62.8785 107.093L62.8785 108.949L64.6569 108.949L64.6569 107.093L65.9076 107.093L65.9076 111.93L64.6569 111.93ZM71.0489 110.21C71.0489 110.51 70.987 110.77 70.8633 110.992C70.746 111.213 70.5864 111.399 70.3845 111.549C70.189 111.692 69.9643 111.799 69.7102 111.871C69.4562 111.943 69.1956 111.979 68.9285 111.979C68.6549 111.979 68.3911 111.943 68.137 111.871C67.883 111.799 67.655 111.692 67.453 111.549C67.2576 111.399 67.1013 111.213 66.984 110.992C66.8668 110.77 66.8081 110.51 66.8081 110.21L66.8081 108.813C66.8081 108.513 66.8668 108.252 66.984 108.031C67.1078 107.809 67.2674 107.627 67.4628 107.484C67.6647 107.334 67.8927 107.223 68.1468 107.151C68.4074 107.073 68.6712 107.034 68.9383 107.034C69.2249 107.034 69.4953 107.073 69.7493 107.151C70.0099 107.223 70.2346 107.334 70.4235 107.484C70.619 107.634 70.7721 107.822 70.8828 108.05C70.9935 108.272 71.0489 108.532 71.0489 108.832L71.0489 110.21ZM69.8079 109.028C69.8079 108.871 69.7819 108.741 69.7298 108.637C69.6777 108.532 69.6093 108.448 69.5246 108.383C69.4399 108.311 69.3454 108.262 69.2412 108.236C69.1435 108.204 69.0425 108.187 68.9383 108.187C68.8341 108.187 68.7266 108.204 68.6158 108.236C68.5116 108.262 68.4171 108.311 68.3325 108.383C68.2478 108.448 68.1794 108.532 68.1273 108.637C68.0751 108.741 68.0491 108.871 68.0491 109.028L68.0491 109.985C68.0491 110.142 68.0719 110.275 68.1175 110.386C68.1696 110.49 68.238 110.578 68.3227 110.65C68.4074 110.715 68.5018 110.764 68.6061 110.796C68.7103 110.822 68.821 110.835 68.9383 110.835C69.0425 110.835 69.1435 110.822 69.2412 110.796C69.3454 110.764 69.4399 110.715 69.5246 110.65C69.6093 110.578 69.6777 110.49 69.7298 110.386C69.7819 110.275 69.8079 110.142 69.8079 109.985L69.8079 109.028ZM75.7251 111.265C75.5817 111.415 75.4352 111.539 75.2853 111.637C75.1355 111.728 74.9824 111.799 74.8261 111.852C74.6697 111.904 74.5134 111.936 74.3571 111.949C74.2072 111.969 74.0541 111.979 73.8978 111.979C73.6307 111.979 73.3767 111.943 73.1356 111.871C72.8946 111.799 72.6829 111.692 72.5005 111.549C72.3181 111.399 72.1715 111.216 72.0608 111.001C71.9566 110.78 71.9044 110.523 71.9044 110.229L71.9044 108.803C71.9044 108.51 71.9631 108.252 72.0803 108.031C72.1976 107.809 72.3507 107.627 72.5396 107.484C72.7285 107.334 72.9402 107.223 73.1747 107.151C73.4157 107.073 73.6568 107.034 73.8978 107.034C74.0476 107.034 74.2007 107.041 74.3571 107.054C74.5134 107.067 74.6665 107.096 74.8163 107.142C74.9727 107.187 75.1257 107.256 75.2756 107.347C75.4254 107.432 75.572 107.549 75.7153 107.699L75.002 108.607C74.774 108.405 74.5785 108.285 74.4157 108.246C74.2593 108.2 74.1225 108.177 74.0053 108.177C73.9076 108.177 73.8066 108.194 73.7024 108.226C73.5981 108.252 73.5037 108.301 73.419 108.373C73.3408 108.438 73.2757 108.526 73.2236 108.637C73.1715 108.741 73.1454 108.868 73.1454 109.018L73.1454 109.985C73.1454 110.142 73.1682 110.275 73.2138 110.386C73.2659 110.49 73.3311 110.578 73.4092 110.65C73.4874 110.715 73.5753 110.764 73.6731 110.796C73.7773 110.822 73.8815 110.835 73.9857 110.835C74.116 110.835 74.2724 110.806 74.4548 110.747C74.6437 110.689 74.8196 110.578 74.9824 110.415L75.7251 111.265ZM78.5795 108.138L78.5795 111.93L77.3386 111.93L77.3386 108.138L75.9608 108.138L75.9608 107.093L79.9573 107.093L79.9573 108.138L78.5795 108.138ZM83.4933 109.057L82.6725 110.317L81.5879 111.93L80.5033 111.93L80.5033 107.093L81.7442 107.093L81.7442 109.946L81.7931 109.946L82.4966 108.871L83.679 107.093L84.7831 107.093L84.7831 111.93L83.5422 111.93L83.5422 109.057L83.4933 109.057ZM19.9378 121.93L19.9378 117.083L21.1885 117.083L21.1885 118.881L21.5892 118.881C21.7976 118.881 21.9735 118.839 22.1168 118.754C22.2666 118.669 22.3904 118.493 22.4881 118.226L22.9083 117.083L24.2372 117.083L23.7291 118.49C23.6509 118.718 23.5565 118.907 23.4457 119.057C23.3415 119.207 23.1884 119.321 22.9865 119.399C23.2275 119.477 23.4001 119.598 23.5043 119.76C23.6086 119.917 23.6998 120.115 23.7779 120.356L24.3251 121.93L22.9376 121.93L22.5565 120.65C22.5109 120.506 22.4556 120.392 22.3904 120.308C22.3318 120.216 22.2634 120.148 22.1852 120.102C22.107 120.05 22.0191 120.018 21.9214 120.005C21.8237 119.992 21.7162 119.985 21.5989 119.985L21.1885 119.985L21.1885 121.93L19.9378 121.93ZM29.2247 120.21C29.2247 120.51 29.1628 120.77 29.039 120.992C28.9217 121.213 28.7621 121.399 28.5602 121.549C28.3648 121.692 28.14 121.799 27.886 121.871C27.6319 121.943 27.3714 121.979 27.1043 121.979C26.8307 121.979 26.5668 121.943 26.3128 121.871C26.0587 121.799 25.8307 121.692 25.6288 121.549C25.4334 121.399 25.277 121.213 25.1598 120.992C25.0425 120.77 24.9839 120.51 24.9839 120.21L24.9839 118.813C24.9839 118.513 25.0425 118.252 25.1598 118.031C25.2835 117.809 25.4431 117.627 25.6386 117.484C25.8405 117.334 26.0685 117.223 26.3226 117.151C26.5831 117.073 26.847 117.034 27.114 117.034C27.4007 117.034 27.671 117.073 27.9251 117.151C28.1856 117.223 28.4104 117.334 28.5993 117.484C28.7947 117.634 28.9478 117.822 29.0585 118.05C29.1693 118.272 29.2247 118.532 29.2247 118.832L29.2247 120.21ZM27.9837 119.028C27.9837 118.871 27.9576 118.741 27.9055 118.637C27.8534 118.532 27.785 118.448 27.7003 118.383C27.6156 118.311 27.5212 118.262 27.417 118.236C27.3192 118.204 27.2183 118.187 27.114 118.187C27.0098 118.187 26.9023 118.204 26.7916 118.236C26.6874 118.262 26.5929 118.311 26.5082 118.383C26.4235 118.448 26.3551 118.532 26.303 118.637C26.2509 118.741 26.2248 118.871 26.2248 119.028L26.2248 119.985C26.2248 120.142 26.2476 120.275 26.2932 120.386C26.3454 120.49 26.4138 120.578 26.4984 120.65C26.5831 120.715 26.6776 120.764 26.7818 120.796C26.886 120.822 26.9968 120.835 27.114 120.835C27.2183 120.835 27.3192 120.822 27.417 120.796C27.5212 120.764 27.6156 120.715 27.7003 120.65C27.785 120.578 27.8534 120.49 27.9055 120.386C27.9576 120.275 27.9837 120.142 27.9837 119.985L27.9837 119.028ZM32.7673 119.858L33.5002 118.51L34.2721 117.093L35.3763 117.093L35.3763 121.93L34.1549 121.93L34.1549 119.487L34.1256 119.487L33.6272 120.454L33.1582 121.314L32.3276 121.314L31.8293 120.425L31.3798 119.575L31.3505 119.585L31.3505 121.93L30.129 121.93L30.129 117.093L31.2528 117.093L31.9856 118.48L32.7185 119.858L32.7673 119.858ZM39.35 121.93L39.35 118.168L37.6107 118.168L37.6107 121.93L36.3698 121.93L36.3698 117.083L40.6008 117.083L40.6008 121.93L39.35 121.93ZM44.4725 121.529C44.1793 121.698 43.9155 121.816 43.681 121.881C43.4465 121.939 43.2282 121.969 43.0263 121.969C42.5312 121.969 42.1469 121.838 41.8733 121.578C41.6062 121.311 41.4726 120.949 41.4726 120.493C41.4726 120.226 41.528 120.001 41.6388 119.819C41.7495 119.63 41.8896 119.477 42.0589 119.36C42.2348 119.243 42.427 119.158 42.6354 119.106C42.8439 119.054 43.0426 119.028 43.2315 119.028L44.4822 119.028L44.4822 118.822C44.4822 118.594 44.4171 118.425 44.2868 118.314C44.1565 118.197 43.9253 118.138 43.593 118.138C43.4367 118.138 43.2413 118.161 43.0068 118.207C42.7788 118.252 42.5475 118.37 42.313 118.559L41.756 117.65C42.0948 117.389 42.4335 117.22 42.7722 117.142C43.1175 117.064 43.4334 117.024 43.7201 117.024C44.4106 117.024 44.9187 117.181 45.2444 117.493C45.5701 117.806 45.733 118.278 45.733 118.91L45.733 121.93L44.5897 121.93L44.5018 121.539L44.4725 121.529ZM44.492 119.946L43.4562 119.946C43.3781 119.946 43.2999 119.953 43.2217 119.966C43.1501 119.972 43.0817 119.995 43.0165 120.034C42.9579 120.067 42.909 120.115 42.87 120.181C42.8309 120.239 42.8113 120.317 42.8113 120.415C42.8113 120.545 42.8569 120.653 42.9481 120.738C43.0458 120.816 43.1892 120.855 43.3781 120.855C43.5865 120.855 43.7917 120.816 43.9937 120.738C44.1956 120.653 44.3617 120.575 44.492 120.503L44.492 119.946ZM49.704 121.93L49.704 119.995L47.9256 119.995L47.9256 121.93L46.7042 121.93L46.7042 117.093L47.9256 117.093L47.9256 118.949L49.704 118.949L49.704 117.093L50.9547 117.093L50.9547 121.93L49.704 121.93ZM54.9234 119.057L54.1026 120.317L53.018 121.93L51.9334 121.93L51.9334 117.093L53.1744 117.093L53.1744 119.946L53.2232 119.946L53.9267 118.871L55.1091 117.093L56.2133 117.093L56.2133 121.93L54.9723 121.93L54.9723 119.057L54.9234 119.057ZM60.1813 119.057L59.3605 120.317L58.2759 121.93L57.1912 121.93L57.1912 117.093L58.4322 117.093L58.4322 119.946L58.4811 119.946L59.1846 118.871L60.3669 117.093L61.4711 117.093L61.4711 121.93L60.2301 121.93L60.2301 119.057L60.1813 119.057Z" fill="#46474E" style="fill:#46474E;fill:color(display-p3 0.2745 0.2784 0.3059);fill-opacity:1;"/>
<g filter="url(#filter0_d_389_8609)">
<path d="M61.944 53.6615L51.944 53.6615C47.5625 53.6615 44.7334 52.7206 42.9758 50.963C41.2182 49.2054 40.2773 46.3763 40.2773 41.9948L40.2773 31.9948C40.2773 27.6133 41.2182 24.7842 42.9758 23.0266C44.7334 21.269 47.5625 20.3281 51.944 20.3281L61.944 20.3281C66.3255 20.3281 69.1546 21.269 70.9122 23.0266C72.6698 24.7842 73.6107 27.6133 73.6107 31.9948L73.6107 41.9948C73.6107 46.3763 72.6698 49.2054 70.9122 50.963C69.1546 52.7206 66.3255 53.6615 61.944 53.6615Z" fill="#FFD66B" style="fill:#FFD66B;fill:color(display-p3 1.0000 0.8378 0.4208);fill-opacity:1;"/>
<path d="M61.944 53.6615L51.944 53.6615C47.5625 53.6615 44.7334 52.7206 42.9758 50.963C41.2182 49.2054 40.2773 46.3763 40.2773 41.9948L40.2773 31.9948C40.2773 27.6133 41.2182 24.7842 42.9758 23.0266C44.7334 21.269 47.5625 20.3281 51.944 20.3281L61.944 20.3281C66.3255 20.3281 69.1546 21.269 70.9122 23.0266C72.6698 24.7842 73.6107 27.6133 73.6107 31.9948L73.6107 41.9948C73.6107 46.3763 72.6698 49.2054 70.9122 50.963C69.1546 52.7206 66.3255 53.6615 61.944 53.6615Z" fill="url(#paint0_linear_389_8609)" style=""/>
<path d="M61.944 53.6615L51.944 53.6615C47.5625 53.6615 44.7334 52.7206 42.9758 50.963C41.2182 49.2054 40.2773 46.3763 40.2773 41.9948L40.2773 31.9948C40.2773 27.6133 41.2182 24.7842 42.9758 23.0266C44.7334 21.269 47.5625 20.3281 51.944 20.3281L61.944 20.3281C66.3255 20.3281 69.1546 21.269 70.9122 23.0266C72.6698 24.7842 73.6107 27.6133 73.6107 31.9948L73.6107 41.9948C73.6107 46.3763 72.6698 49.2054 70.9122 50.963C69.1546 52.7206 66.3255 53.6615 61.944 53.6615Z" stroke="white" style="stroke:white;stroke-opacity:1;" stroke-width="2.5"/>
<path d="M54.5758 42.9615C54.2424 42.9615 53.9258 42.8281 53.6924 42.5948L48.9758 37.8781C48.4924 37.3948 48.4924 36.5948 48.9758 36.1115C49.4591 35.6281 50.2591 35.6281 50.7424 36.1115L54.5758 39.9448L63.1425 31.3781C63.6258 30.8948 64.4258 30.8948 64.9091 31.3781C65.3925 31.8615 65.3925 32.6615 64.9091 33.1448L55.4591 42.5948C55.2258 42.8281 54.9091 42.9615 54.5758 42.9615Z" fill="white" style="fill:white;fill-opacity:1;"/>
</g>
<defs>
<filter id="filter0_d_389_8609" x="11.9375" y="-2" width="90" height="90" filterUnits="userSpaceOnUse" color-interpolation-filters="sRGB">
<feFlood flood-opacity="0" result="BackgroundImageFix"/>
<feColorMatrix in="SourceAlpha" type="matrix" values="0 0 0 0 0 0 0 0 0 0 0 0 0 0 0 0 0 0 127 0" result="hardAlpha"/>
<feOffset dy="6"/>
<feGaussianBlur stdDeviation="12.5"/>
<feComposite in2="hardAlpha" operator="out"/>
<feColorMatrix type="matrix" values="0 0 0 0 0.27451 0 0 0 0 0.278431 0 0 0 0 0.305882 0 0 0 0.38 0"/>
<feBlend mode="multiply" in2="BackgroundImageFix" result="effect1_dropShadow_389_8609"/>
<feBlend mode="normal" in="SourceGraphic" in2="effect1_dropShadow_389_8609" result="shape"/>
</filter>
<linearGradient id="paint0_linear_389_8609" x1="56.944" y1="19.0781" x2="56.944" y2="54.9115" gradientUnits="userSpaceOnUse">
<stop stop-color="#FFD66B" style="stop-color:#FFD66B;stop-color:color(display-p3 1.0000 0.8392 0.4196);stop-opacity:1;"/>
<stop offset="1" stop-color="#FFA469" style="stop-color:#FFA469;stop-color:color(display-p3 1.0000 0.6431 0.4118);stop-opacity:1;"/>
</linearGradient>
<clipPath id="clip0_389_8609">
<rect x="19.9648" y="28" width="96" height="96" rx="12" transform="rotate(12 19.9648 28)" fill="white" style="fill:white;fill-opacity:1;"/>
</clipPath>
</defs>
</svg>
