<svg width="277" height="197" viewBox="0 0 277 197" fill="none" xmlns="http://www.w3.org/2000/svg">
<path d="M198.021 51.7598H188.637V71.8522H198.021V51.7598Z" fill="#46474E" style="fill:#46474E;fill:color(display-p3 0.2745 0.2784 0.3059);fill-opacity:1;"/>
<path d="M197.182 48.707H189.477V51.76H197.182V48.707Z" fill="#46474E" style="fill:#46474E;fill:color(display-p3 0.2745 0.2784 0.3059);fill-opacity:1;"/>
<path d="M193.5 4C193.769 4 194 14.2988 194 27C194 39.7012 193.769 50 193.5 50C193.231 50 193 39.705 193 27C193 14.295 193.231 4 193.5 4Z" fill="#65666D" style="fill:#65666D;fill:color(display-p3 0.3961 0.4000 0.4275);fill-opacity:1;"/>
<path d="M212.9 30.6953H203.516V50.7878H212.9V30.6953Z" fill="#46474E" style="fill:#46474E;fill:color(display-p3 0.2745 0.2784 0.3059);fill-opacity:1;"/>
<path d="M212.055 27.6484H204.35V30.7014H212.055V27.6484Z" fill="#46474E" style="fill:#46474E;fill:color(display-p3 0.2745 0.2784 0.3059);fill-opacity:1;"/>
<path d="M208.5 0C208.5 0 208.577 0.100398 208.596 0.293756C208.615 0.505706 208.654 0.784588 208.692 1.13784C208.731 1.89268 208.788 2.94871 208.846 4.24644C208.885 6.88652 208.942 10.5046 209 14.4981C208.942 18.4954 208.885 22.1098 208.846 24.7536C208.788 26.0513 208.731 27.1073 208.692 27.8622C208.654 28.2154 208.615 28.4943 208.596 28.7062C208.558 28.8996 208.538 29 208.5 29C208.462 29 208.423 28.8996 208.404 28.7062C208.385 28.4943 208.346 28.2154 208.308 27.8622C208.269 27.1073 208.212 26.0513 208.154 24.7536C208.115 22.1135 208.058 18.4954 208 14.4981C208.058 10.5046 208.115 6.88652 208.154 4.24644C208.212 2.94871 208.269 1.89268 208.308 1.13784C208.346 0.784588 208.385 0.505706 208.404 0.293756C208.442 0.100398 208.462 0 208.5 0Z" fill="#65666D" style="fill:#65666D;fill:color(display-p3 0.3961 0.4000 0.4275);fill-opacity:1;"/>
<path d="M17.1602 196.121L24.5121 175.322L27.9472 176.605L19.4884 196.121H17.1602Z" fill="#FFA469" style="fill:#FFA469;fill:color(display-p3 1.0000 0.6431 0.4118);fill-opacity:1;"/>
<path d="M48.6523 171.991C48.6523 172.396 55.5177 196.119 55.5177 196.119H58.1512L52.5025 171.385L48.6523 171.991Z" fill="#FFA469" style="fill:#FFA469;fill:color(display-p3 1.0000 0.6431 0.4118);fill-opacity:1;"/>
<path d="M76.7194 169.076C76.8195 169.482 82.9168 196.119 82.9168 196.119H80.3118C80.3118 196.119 73.3749 170.087 73.6755 170.087C73.9761 170.087 76.7146 169.076 76.7146 169.076H76.7194Z" fill="#FFA469" style="fill:#FFA469;fill:color(display-p3 1.0000 0.6431 0.4118);fill-opacity:1;"/>
<path d="M39.3906 196.12L44.4669 175.531L48.651 175.111L41.4135 196.12H39.3906Z" fill="#FFA469" style="fill:#FFA469;fill:color(display-p3 1.0000 0.6431 0.4118);fill-opacity:1;"/>
<path d="M10.8945 148.364C10.8945 148.364 25.3647 146.442 28.8809 146.728C32.397 147.014 32.9314 148.355 34.4342 151.208C35.937 154.055 37.2824 157.194 37.2824 157.194C37.2824 157.194 42.8787 156.827 45.331 161.626L74.6864 158.325C76.2131 158.201 77.8161 158.955 79.0613 159.851C80.4592 160.853 81.3323 163.157 80.9983 165.976C80.3399 171.529 74.8057 173.957 70.5071 174.959C66.2085 175.965 35.5029 179.891 26.0708 176.872C16.6435 173.857 14.8782 162.771 13.2037 156.832C11.5291 150.893 10.8945 148.369 10.8945 148.369V148.364Z" fill="#65666D" style="fill:#65666D;fill:color(display-p3 0.3961 0.4000 0.4275);fill-opacity:1;"/>
<path d="M4.63006 108.98C4.63006 108.98 -0.913735 108.026 0.131095 114.971C1.17592 121.917 12.6595 153.949 12.6595 153.949L50.9461 167.063L74.1279 158.343L72.9686 148.545C72.9686 148.545 72.2387 144.843 69.4477 144.881C66.6567 144.919 49.3192 144.967 49.3192 144.967C49.3192 144.967 44.8536 113.068 42.7163 111.37C40.5789 109.672 36.6286 109.366 28.7375 111.99C20.8464 114.614 16.19 113.55 14.0192 112.729C11.8485 111.909 6.61476 108.842 4.62052 108.98H4.63006Z" fill="#65666D" style="fill:#65666D;fill:color(display-p3 0.3961 0.4000 0.4275);fill-opacity:1;"/>
<path d="M15.0392 145.537C15.0392 145.537 14.9772 145.437 14.877 145.232C14.7673 145.007 14.6289 144.712 14.4524 144.34C14.085 143.567 13.5793 142.431 12.983 141.019C11.7855 138.195 10.254 134.241 8.8418 129.776C7.42961 125.311 6.40387 121.194 5.76457 118.198C5.44014 116.7 5.2016 115.484 5.05847 114.635C4.99168 114.229 4.93443 113.91 4.89149 113.662C4.85809 113.438 4.84378 113.323 4.84855 113.318C4.85809 113.318 4.88672 113.433 4.9392 113.652C4.99168 113.896 5.06324 114.215 5.14912 114.616C5.32564 115.455 5.58804 116.667 5.93155 118.155C6.61856 121.142 7.66816 125.239 9.07558 129.7C10.4878 134.155 11.9858 138.114 13.1404 140.948C13.7177 142.365 14.1948 143.51 14.5383 144.297C14.6957 144.674 14.8245 144.974 14.9199 145.208C15.0058 145.418 15.044 145.527 15.0392 145.532V145.537Z" fill="#46474E" style="fill:#46474E;fill:color(display-p3 0.2745 0.2784 0.3059);fill-opacity:1;"/>
<path d="M80.9992 165.022C80.9992 165.022 81.0231 164.75 81.0231 164.24C81.0183 163.729 80.9754 162.956 80.6128 162.055C80.255 161.158 79.5203 160.156 78.3514 159.417C77.1921 158.682 75.5986 158.253 73.8715 158.463C66.8916 159.135 57.2735 160.061 46.6487 161.082C45.809 161.163 44.9741 161.239 44.1535 161.32L44.0724 161.33L44.0342 161.253C43.3329 159.908 42.3692 158.716 41.1812 157.871C40.0076 157.017 38.624 156.488 37.2786 156.364H37.2023L37.1736 156.292C36.3864 154.475 35.5754 152.743 34.75 151.107C34.3302 150.296 33.9246 149.495 33.5 148.736C33.0754 147.982 32.6031 147.267 31.9399 146.799C31.2911 146.318 30.5039 146.108 29.7501 145.979C28.9915 145.86 28.2425 145.822 27.5221 145.822C26.0813 145.822 24.7454 145.907 23.5336 145.988C21.1147 146.16 19.1968 146.356 17.8801 146.489C17.2312 146.556 16.7255 146.609 16.3725 146.642C16.2102 146.656 16.0814 146.671 15.9812 146.68C15.8954 146.69 15.8477 146.69 15.8477 146.685C15.8477 146.685 15.8906 146.671 15.9765 146.656C16.0719 146.642 16.2007 146.623 16.3629 146.599C16.716 146.551 17.2217 146.489 17.8658 146.408C19.1825 146.251 21.1004 146.031 23.5193 145.841C24.7311 145.75 26.0669 145.655 27.5173 145.645C28.2425 145.64 29.0011 145.669 29.7787 145.788C30.5468 145.912 31.3627 146.127 32.0544 146.632C32.7558 147.129 33.2472 147.868 33.6813 148.626C34.1107 149.394 34.521 150.186 34.9408 151.002C35.7758 152.638 36.5916 154.37 37.3836 156.192L37.2786 156.121C38.7003 156.249 40.0982 156.788 41.3148 157.666C42.5409 158.53 43.5285 159.756 44.2489 161.134L44.1249 161.067C44.9502 160.991 45.7804 160.91 46.62 160.829C57.2496 159.837 66.8678 158.935 73.8476 158.282C75.6081 158.081 77.2445 158.53 78.4182 159.298C79.6061 160.061 80.3409 161.096 80.6939 162.017C81.0469 162.942 81.0756 163.729 81.066 164.24C81.0517 164.755 80.9897 165.022 80.9897 165.022H80.9992Z" fill="#46474E" style="fill:#46474E;fill:color(display-p3 0.2745 0.2784 0.3059);fill-opacity:1;"/>
<path d="M49.329 144.965C49.329 144.965 49.3528 145.041 49.3862 145.184C49.4196 145.356 49.4578 145.566 49.5103 145.833C49.6152 146.429 49.7536 147.245 49.9301 148.266C50.2736 150.37 50.7507 153.289 51.3041 156.662L51.1896 156.561C52.6591 156.571 54.2526 156.609 55.8985 156.695C60.4786 156.929 64.5959 157.425 67.573 157.74C69.0424 157.902 70.2399 158.031 71.1034 158.126C71.4994 158.174 71.8191 158.207 72.0624 158.236C72.2818 158.264 72.3964 158.284 72.3964 158.293C72.3964 158.303 72.2771 158.298 72.0576 158.288C71.8143 158.274 71.4946 158.25 71.0939 158.226C70.259 158.164 69.0472 158.059 67.5539 157.916C64.5673 157.644 60.45 157.172 55.8842 156.943C54.243 156.862 52.6543 156.814 51.1849 156.8H51.0847L51.0704 156.7C50.5551 153.322 50.1066 150.398 49.7822 148.29C49.6343 147.269 49.5151 146.444 49.4292 145.847C49.3958 145.58 49.3672 145.366 49.3433 145.194C49.3242 145.046 49.3194 144.965 49.329 144.965Z" fill="#46474E" style="fill:#46474E;fill:color(display-p3 0.2745 0.2784 0.3059);fill-opacity:1;"/>
<path d="M36.9339 171.226C36.9339 171.226 36.8766 171.145 36.7955 170.983C36.7001 170.797 36.5856 170.558 36.4377 170.267C36.1228 169.614 35.6934 168.712 35.1638 167.62C34.0999 165.344 32.6496 162.258 31.0513 158.842C30.2594 157.125 29.5055 155.489 28.8185 153.996C28.1411 152.503 27.7212 151.009 27.8882 149.741C28.0504 148.476 28.6849 147.58 29.2288 147.145C29.5008 146.917 29.7536 146.807 29.9206 146.73C30.0971 146.673 30.1878 146.645 30.1926 146.654C30.2069 146.683 29.8109 146.764 29.2909 147.217C28.7804 147.656 28.1935 148.538 28.06 149.76C27.9216 150.981 28.3414 152.426 29.0285 153.9C29.7202 155.389 30.4836 157.025 31.2803 158.737C32.8547 162.162 34.2812 165.263 35.3261 167.543C35.8222 168.655 36.2278 169.561 36.5283 170.224C36.6571 170.525 36.7621 170.768 36.8432 170.959C36.9148 171.126 36.9434 171.216 36.9386 171.221L36.9339 171.226Z" fill="#46474E" style="fill:#46474E;fill:color(display-p3 0.2745 0.2784 0.3059);fill-opacity:1;"/>
<path d="M80.9788 166.018C80.9788 166.018 80.9263 166.037 80.8213 166.07C80.702 166.103 80.5494 166.142 80.3538 166.194C79.9292 166.299 79.3233 166.452 78.5551 166.647C77.7775 166.848 76.8138 167.057 75.6974 167.306C74.581 167.563 73.3024 167.811 71.8902 168.083C66.2414 169.185 58.336 170.268 49.5623 170.75C40.7838 171.246 32.8212 171.117 27.0675 170.955C24.1906 170.883 21.8576 170.659 20.2785 170.325C19.4865 170.168 18.8853 169.996 18.4798 169.877C18.289 169.815 18.1363 169.762 18.0218 169.724C17.9168 169.686 17.8691 169.667 17.8691 169.662C17.8691 169.662 17.9264 169.672 18.0314 169.7C18.1506 169.734 18.3033 169.777 18.4941 169.829C18.9044 169.934 19.5103 170.087 20.2975 170.235C21.8767 170.535 24.1954 170.735 27.0722 170.783C32.826 170.898 40.7791 170.998 49.548 170.506C58.3122 170.029 66.2033 168.975 71.8568 167.916C73.269 167.654 74.5523 167.415 75.6687 167.172C76.7851 166.938 77.7536 166.743 78.5361 166.557C79.3089 166.385 79.9148 166.247 80.3442 166.151C80.5398 166.108 80.6973 166.075 80.8166 166.051C80.9215 166.032 80.9788 166.022 80.9788 166.027V166.018Z" fill="#46474E" style="fill:#46474E;fill:color(display-p3 0.2745 0.2784 0.3059);fill-opacity:1;"/>
<path d="M163.032 21.2676H106.969V93.6663H163.032V21.2676Z" fill="#65666D" style="fill:#65666D;fill:color(display-p3 0.3961 0.4000 0.4275);fill-opacity:1;"/>
<path d="M163.032 21.2679C163.032 21.2679 162.984 21.3394 162.879 21.4634C162.755 21.6018 162.598 21.783 162.398 22.0073C161.949 22.4986 161.315 23.1951 160.503 24.0823L160.48 24.1062H160.446C155.57 24.1587 145.995 24.192 135.003 24.192C124.011 24.192 114.431 24.1587 109.555 24.1062H109.521L109.498 24.0823C108.687 23.1951 108.052 22.4986 107.604 22.0073C107.403 21.783 107.246 21.6018 107.122 21.4634C107.017 21.3394 106.964 21.2726 106.969 21.2679C106.974 21.2631 107.036 21.3203 107.155 21.4348C107.284 21.5684 107.456 21.7353 107.666 21.95C108.128 22.4318 108.777 23.1044 109.612 23.9726L109.555 23.9488C114.431 23.9011 124.006 23.8629 135.003 23.8629C146 23.8629 155.575 23.8963 160.446 23.9488L160.389 23.9726C161.224 23.1044 161.873 22.427 162.335 21.95C162.545 21.7353 162.717 21.5684 162.846 21.4348C162.96 21.3203 163.022 21.2631 163.032 21.2679Z" fill="#46474E" style="fill:#46474E;fill:color(display-p3 0.2745 0.2784 0.3059);fill-opacity:1;"/>
<path d="M106.969 93.6722C106.969 93.6722 107.016 93.6007 107.121 93.4767C107.245 93.3383 107.403 93.157 107.603 92.9328C108.052 92.4415 108.686 91.745 109.497 90.8578L109.521 90.8339H109.555C114.43 90.7814 124.006 90.748 134.998 90.748C145.99 90.748 155.57 90.7814 160.446 90.8339H160.479L160.503 90.8578C161.314 91.745 161.949 92.4415 162.397 92.9328C162.598 93.157 162.755 93.3383 162.879 93.4767C162.984 93.6007 163.037 93.6675 163.032 93.6722C163.027 93.677 162.965 93.6198 162.846 93.5053C162.717 93.3717 162.545 93.2047 162.335 92.9901C161.872 92.5083 161.224 91.8357 160.389 90.9675L160.446 90.9913C155.57 91.039 145.995 91.0772 134.998 91.0772C124.001 91.0772 114.426 91.0438 109.555 90.9913L109.612 90.9675C108.777 91.8357 108.128 92.5083 107.665 92.9901C107.455 93.2047 107.284 93.3717 107.155 93.5053C107.04 93.6198 106.978 93.677 106.969 93.6722Z" fill="#46474E" style="fill:#46474E;fill:color(display-p3 0.2745 0.2784 0.3059);fill-opacity:1;"/>
<path d="M160.444 24.0273H109.553V90.9116H160.444V24.0273Z" fill="#F3F0F0" style="fill:#F3F0F0;fill:color(display-p3 0.9529 0.9412 0.9412);fill-opacity:1;"/>
<path d="M117.516 71.3503C119.028 69.9097 121.266 69.4995 123.355 69.5519C125.445 69.6044 127.515 70.0481 129.605 70.0194C132.95 69.9765 136.28 68.741 139.576 69.3134C140.631 69.4947 141.695 69.862 142.739 69.6378C143.655 69.4422 144.424 68.8173 145.32 68.5502C147.644 67.8585 150.254 69.6712 152.482 68.7267V83.6577H117.516V71.3503Z" fill="#FFA469" style="fill:#FFA469;fill:color(display-p3 1.0000 0.6431 0.4118);fill-opacity:1;"/>
<path d="M118.223 71.9501C118.132 71.9501 118.061 63.106 118.061 52.2011C118.061 41.2962 118.132 32.4473 118.223 32.4473C118.313 32.4473 118.385 41.2914 118.385 52.2011C118.385 63.1107 118.313 71.9501 118.223 71.9501Z" fill="#46474E" style="fill:#46474E;fill:color(display-p3 0.2745 0.2784 0.3059);fill-opacity:1;"/>
<path d="M119.811 71.9501C119.72 71.9501 119.648 63.106 119.648 52.2011C119.648 41.2962 119.72 32.4473 119.811 32.4473C119.901 32.4473 119.973 41.2914 119.973 52.2011C119.973 63.1107 119.901 71.9501 119.811 71.9501Z" fill="#46474E" style="fill:#46474E;fill:color(display-p3 0.2745 0.2784 0.3059);fill-opacity:1;"/>
<path d="M121.404 71.9501C121.314 71.9501 121.242 63.106 121.242 52.2011C121.242 41.2962 121.314 32.4473 121.404 32.4473C121.495 32.4473 121.567 41.2914 121.567 52.2011C121.567 63.1107 121.495 71.9501 121.404 71.9501Z" fill="#46474E" style="fill:#46474E;fill:color(display-p3 0.2745 0.2784 0.3059);fill-opacity:1;"/>
<path d="M122.998 71.9501C122.907 71.9501 122.836 63.106 122.836 52.2011C122.836 41.2962 122.907 32.4473 122.998 32.4473C123.089 32.4473 123.16 41.2914 123.16 52.2011C123.16 63.1107 123.089 71.9501 122.998 71.9501Z" fill="#46474E" style="fill:#46474E;fill:color(display-p3 0.2745 0.2784 0.3059);fill-opacity:1;"/>
<path d="M124.586 71.9501C124.495 71.9501 124.424 63.106 124.424 52.2011C124.424 41.2962 124.495 32.4473 124.586 32.4473C124.677 32.4473 124.748 41.2914 124.748 52.2011C124.748 63.1107 124.677 71.9501 124.586 71.9501Z" fill="#46474E" style="fill:#46474E;fill:color(display-p3 0.2745 0.2784 0.3059);fill-opacity:1;"/>
<path d="M126.18 71.9501C126.089 71.9501 126.018 63.106 126.018 52.2011C126.018 41.2962 126.089 32.4473 126.18 32.4473C126.27 32.4473 126.342 41.2914 126.342 52.2011C126.342 63.1107 126.27 71.9501 126.18 71.9501Z" fill="#46474E" style="fill:#46474E;fill:color(display-p3 0.2745 0.2784 0.3059);fill-opacity:1;"/>
<path d="M127.774 71.9501C127.683 71.9501 127.611 63.106 127.611 52.2011C127.611 41.2962 127.683 32.4473 127.774 32.4473C127.864 32.4473 127.936 41.2914 127.936 52.2011C127.936 63.1107 127.864 71.9501 127.774 71.9501Z" fill="#46474E" style="fill:#46474E;fill:color(display-p3 0.2745 0.2784 0.3059);fill-opacity:1;"/>
<path d="M129.363 71.9501C129.273 71.9501 129.201 63.106 129.201 52.2011C129.201 41.2962 129.273 32.4473 129.363 32.4473C129.454 32.4473 129.526 41.2914 129.526 52.2011C129.526 63.1107 129.454 71.9501 129.363 71.9501Z" fill="#46474E" style="fill:#46474E;fill:color(display-p3 0.2745 0.2784 0.3059);fill-opacity:1;"/>
<path d="M130.955 71.9501C130.865 71.9501 130.793 63.106 130.793 52.2011C130.793 41.2962 130.865 32.4473 130.955 32.4473C131.046 32.4473 131.117 41.2914 131.117 52.2011C131.117 63.1107 131.046 71.9501 130.955 71.9501Z" fill="#46474E" style="fill:#46474E;fill:color(display-p3 0.2745 0.2784 0.3059);fill-opacity:1;"/>
<path d="M132.549 71.9501C132.458 71.9501 132.387 63.106 132.387 52.2011C132.387 41.2962 132.458 32.4473 132.549 32.4473C132.64 32.4473 132.711 41.2914 132.711 52.2011C132.711 63.1107 132.64 71.9501 132.549 71.9501Z" fill="#46474E" style="fill:#46474E;fill:color(display-p3 0.2745 0.2784 0.3059);fill-opacity:1;"/>
<path d="M134.139 71.9501C134.048 71.9501 133.977 63.106 133.977 52.2011C133.977 41.2962 134.048 32.4473 134.139 32.4473C134.229 32.4473 134.301 41.2914 134.301 52.2011C134.301 63.1107 134.229 71.9501 134.139 71.9501Z" fill="#46474E" style="fill:#46474E;fill:color(display-p3 0.2745 0.2784 0.3059);fill-opacity:1;"/>
<path d="M135.733 71.9501C135.642 71.9501 135.57 63.106 135.57 52.2011C135.57 41.2962 135.642 32.4473 135.733 32.4473C135.823 32.4473 135.895 41.2914 135.895 52.2011C135.895 63.1107 135.823 71.9501 135.733 71.9501Z" fill="#46474E" style="fill:#46474E;fill:color(display-p3 0.2745 0.2784 0.3059);fill-opacity:1;"/>
<path d="M137.324 71.9501C137.234 71.9501 137.162 63.106 137.162 52.2011C137.162 41.2962 137.234 32.4473 137.324 32.4473C137.415 32.4473 137.487 41.2914 137.487 52.2011C137.487 63.1107 137.415 71.9501 137.324 71.9501Z" fill="#46474E" style="fill:#46474E;fill:color(display-p3 0.2745 0.2784 0.3059);fill-opacity:1;"/>
<path d="M138.918 71.9501C138.827 71.9501 138.756 63.106 138.756 52.2011C138.756 41.2962 138.827 32.4473 138.918 32.4473C139.009 32.4473 139.08 41.2914 139.08 52.2011C139.08 63.1107 139.009 71.9501 138.918 71.9501Z" fill="#46474E" style="fill:#46474E;fill:color(display-p3 0.2745 0.2784 0.3059);fill-opacity:1;"/>
<path d="M140.508 71.9501C140.417 71.9501 140.346 63.106 140.346 52.2011C140.346 41.2962 140.417 32.4473 140.508 32.4473C140.599 32.4473 140.67 41.2914 140.67 52.2011C140.67 63.1107 140.599 71.9501 140.508 71.9501Z" fill="#46474E" style="fill:#46474E;fill:color(display-p3 0.2745 0.2784 0.3059);fill-opacity:1;"/>
<path d="M142.102 71.9501C142.011 71.9501 141.939 63.106 141.939 52.2011C141.939 41.2962 142.011 32.4473 142.102 32.4473C142.192 32.4473 142.264 41.2914 142.264 52.2011C142.264 63.1107 142.192 71.9501 142.102 71.9501Z" fill="#46474E" style="fill:#46474E;fill:color(display-p3 0.2745 0.2784 0.3059);fill-opacity:1;"/>
<path d="M143.693 71.9501C143.603 71.9501 143.531 63.106 143.531 52.2011C143.531 41.2962 143.603 32.4473 143.693 32.4473C143.784 32.4473 143.856 41.2914 143.856 52.2011C143.856 63.1107 143.784 71.9501 143.693 71.9501Z" fill="#46474E" style="fill:#46474E;fill:color(display-p3 0.2745 0.2784 0.3059);fill-opacity:1;"/>
<path d="M145.283 71.9501C145.193 71.9501 145.121 63.106 145.121 52.2011C145.121 41.2962 145.193 32.4473 145.283 32.4473C145.374 32.4473 145.446 41.2914 145.446 52.2011C145.446 63.1107 145.374 71.9501 145.283 71.9501Z" fill="#46474E" style="fill:#46474E;fill:color(display-p3 0.2745 0.2784 0.3059);fill-opacity:1;"/>
<path d="M146.877 71.9501C146.786 71.9501 146.715 63.106 146.715 52.2011C146.715 41.2962 146.786 32.4473 146.877 32.4473C146.968 32.4473 147.039 41.2914 147.039 52.2011C147.039 63.1107 146.968 71.9501 146.877 71.9501Z" fill="#46474E" style="fill:#46474E;fill:color(display-p3 0.2745 0.2784 0.3059);fill-opacity:1;"/>
<path d="M148.471 71.9501C148.38 71.9501 148.309 63.106 148.309 52.2011C148.309 41.2962 148.38 32.4473 148.471 32.4473C148.561 32.4473 148.633 41.2914 148.633 52.2011C148.633 63.1107 148.561 71.9501 148.471 71.9501Z" fill="#46474E" style="fill:#46474E;fill:color(display-p3 0.2745 0.2784 0.3059);fill-opacity:1;"/>
<path d="M150.059 71.9501C149.968 71.9501 149.896 63.106 149.896 52.2011C149.896 41.2962 149.968 32.4473 150.059 32.4473C150.149 32.4473 150.221 41.2914 150.221 52.2011C150.221 63.1107 150.149 71.9501 150.059 71.9501Z" fill="#46474E" style="fill:#46474E;fill:color(display-p3 0.2745 0.2784 0.3059);fill-opacity:1;"/>
<path d="M151.652 71.9501C151.562 71.9501 151.49 63.106 151.49 52.2011C151.49 41.2962 151.562 32.4473 151.652 32.4473C151.743 32.4473 151.815 41.2914 151.815 52.2011C151.815 63.1107 151.743 71.9501 151.652 71.9501Z" fill="#46474E" style="fill:#46474E;fill:color(display-p3 0.2745 0.2784 0.3059);fill-opacity:1;"/>
<path d="M267.29 196.041L264.451 179.951H255.205L261.402 196.07L267.29 196.041Z" fill="#FFA469" style="fill:#FFA469;fill:color(display-p3 1.0000 0.6431 0.4118);fill-opacity:1;"/>
<path d="M96.8535 195.909L102.173 175.182H111.424L102.736 195.937L96.8535 195.909Z" fill="#FFA469" style="fill:#FFA469;fill:color(display-p3 1.0000 0.6431 0.4118);fill-opacity:1;"/>
<path d="M96.3789 129.735C96.3789 129.735 105.002 125.58 115.287 127.513C117.227 127.879 116.08 147.87 116.08 147.87L108.528 153.714L96.3789 129.735Z" fill="#65666D" style="fill:#65666D;fill:color(display-p3 0.3961 0.4000 0.4275);fill-opacity:1;"/>
<path d="M105.446 172.511C105.446 172.511 105.427 157.337 105.446 157.041H182.267L183.073 172.544L105.446 172.516V172.511Z" fill="#65666D" style="fill:#65666D;fill:color(display-p3 0.3961 0.4000 0.4275);fill-opacity:1;"/>
<path d="M97.7704 129.145H101.072C104.798 129.145 107.823 132.169 107.823 135.894V172.888C107.823 173.327 107.465 173.685 107.026 173.685H97.7704C94.0443 173.685 91.0195 170.66 91.0195 166.935V135.894C91.0195 132.169 94.0443 129.145 97.7704 129.145Z" fill="#65666D" style="fill:#65666D;fill:color(display-p3 0.3961 0.4000 0.4275);fill-opacity:1;"/>
<path d="M184.635 146.932C184.694 146.6 184.084 144.969 178.753 145.142C174.667 145.273 117.465 144.875 114.672 147.358C107.581 153.665 106.199 151.729 105.441 157.532L184.63 157.031V146.932H184.635Z" fill="#65666D" style="fill:#65666D;fill:color(display-p3 0.3961 0.4000 0.4275);fill-opacity:1;"/>
<path d="M270.115 172.334H95.1465C93.4443 172.334 92.0645 173.714 92.0645 175.416V176.928C92.0645 178.63 93.4443 180.009 95.1465 180.009H270.115C271.817 180.009 273.197 178.63 273.197 176.928V175.416C273.197 173.714 271.817 172.334 270.115 172.334Z" fill="#65666D" style="fill:#65666D;fill:color(display-p3 0.3961 0.4000 0.4275);fill-opacity:1;"/>
<path d="M249.581 146.742L250.545 122.218C250.631 119.99 248.847 118.144 246.619 118.158L182.273 118.53V146.747H249.581V146.742Z" fill="#65666D" style="fill:#65666D;fill:color(display-p3 0.3961 0.4000 0.4275);fill-opacity:1;"/>
<path d="M259.095 172.511C259.095 172.511 259.114 157.337 259.095 157.041H182.273L182.631 172.368L259.095 172.511Z" fill="#65666D" style="fill:#65666D;fill:color(display-p3 0.3961 0.4000 0.4275);fill-opacity:1;"/>
<path d="M182.345 146.536C182.288 146.197 182.798 144.733 187.975 144.909C191.939 145.043 246.623 144.504 249.581 146.736C252.539 148.969 258.212 151.23 259.099 157.551L182.273 157.04L182.345 146.536Z" fill="#65666D" style="fill:#65666D;fill:color(display-p3 0.3961 0.4000 0.4275);fill-opacity:1;"/>
<path d="M268.186 129.729C268.186 129.729 260.042 125.832 250.329 127.645C248.497 127.988 249.58 146.74 249.58 146.74L256.712 152.221L268.186 129.729Z" fill="#65666D" style="fill:#65666D;fill:color(display-p3 0.3961 0.4000 0.4275);fill-opacity:1;"/>
<path d="M266.771 173.682H256.718V135.891C256.718 132.166 259.743 129.141 263.469 129.141H266.771C270.497 129.141 273.521 132.166 273.521 135.891V166.932C273.521 170.657 270.497 173.682 266.771 173.682Z" fill="#65666D" style="fill:#65666D;fill:color(display-p3 0.3961 0.4000 0.4275);fill-opacity:1;"/>
<path d="M270.097 172.371C270.097 172.437 231.028 172.533 182.842 172.581C134.641 172.628 95.582 172.614 95.582 172.542C95.582 172.476 134.641 172.38 182.842 172.332C231.023 172.285 270.097 172.299 270.097 172.371Z" fill="#46474E" style="fill:#46474E;fill:color(display-p3 0.2745 0.2784 0.3059);fill-opacity:1;"/>
<path d="M184.396 118.516C184.396 118.516 184.406 118.563 184.411 118.654C184.411 118.759 184.42 118.892 184.425 119.059C184.43 119.436 184.439 119.961 184.449 120.629C184.458 122.007 184.473 123.973 184.487 126.391C184.497 131.276 184.511 137.993 184.525 145.411C184.511 152.833 184.497 159.55 184.487 164.434C184.473 166.853 184.458 168.818 184.449 170.197C184.439 170.865 184.43 171.39 184.425 171.766C184.42 171.933 184.415 172.067 184.411 172.172C184.411 172.263 184.401 172.31 184.396 172.31C184.392 172.31 184.387 172.263 184.382 172.172C184.382 172.067 184.373 171.933 184.368 171.766C184.363 171.39 184.353 170.865 184.344 170.197C184.334 168.818 184.32 166.853 184.306 164.434C184.296 159.55 184.282 152.833 184.268 145.411C184.282 137.993 184.296 131.276 184.306 126.391C184.32 123.973 184.334 122.007 184.344 120.629C184.353 119.961 184.363 119.436 184.368 119.059C184.373 118.892 184.377 118.759 184.382 118.654C184.382 118.563 184.392 118.516 184.396 118.516Z" fill="#46474E" style="fill:#46474E;fill:color(display-p3 0.2745 0.2784 0.3059);fill-opacity:1;"/>
<path d="M115.029 147.029L114.032 122.068C113.944 119.8 115.789 117.921 118.093 117.936L184.639 118.314V147.034H115.029V147.029Z" fill="#65666D" style="fill:#65666D;fill:color(display-p3 0.3961 0.4000 0.4275);fill-opacity:1;"/>
<path d="M249.971 147.171C249.971 147.171 250.233 147.357 250.749 147.738C251.264 148.12 252.032 148.688 253.039 149.437C254.05 150.19 255.3 151.121 256.784 152.227C257.514 152.795 258.258 153.511 258.749 154.479C259.255 155.419 259.451 156.673 258.964 157.828L258.95 157.856H258.916C234.084 157.794 178.908 157.651 114.892 157.489C111.753 157.479 108.633 157.47 105.551 157.46H105.441L105.431 157.36C105.279 156.101 105.746 154.908 106.405 153.911C106.734 153.406 107.144 152.967 107.569 152.547C108.003 152.137 108.466 151.779 108.924 151.412C110.746 149.947 112.55 148.497 114.324 147.071L114.353 147.047H114.396C152.797 146.574 186.699 146.565 210.993 146.737C223.139 146.813 232.886 146.918 239.594 147.004C242.948 147.052 245.544 147.09 247.304 147.114C248.177 147.128 248.845 147.142 249.298 147.147C249.747 147.156 249.976 147.166 249.976 147.166C249.356 147.166 235.243 147.066 210.993 146.894C186.699 146.77 152.807 146.808 114.401 147.29L114.477 147.266C112.707 148.693 110.908 150.138 109.086 151.602C108.633 151.97 108.165 152.327 107.745 152.723C107.335 153.129 106.934 153.558 106.619 154.045C106.295 154.527 106.033 155.051 105.861 155.605C105.694 156.153 105.603 156.754 105.679 157.308L105.56 157.207C108.642 157.217 111.762 157.227 114.902 157.236C178.918 157.465 234.093 157.656 258.926 157.747L258.878 157.775C259.346 156.673 259.169 155.442 258.673 154.517C258.196 153.568 257.461 152.857 256.741 152.289C255.267 151.178 254.021 150.238 253.02 149.484C252.018 148.726 251.259 148.153 250.749 147.767C250.238 147.381 249.98 147.176 249.98 147.176L249.971 147.171Z" fill="#46474E" style="fill:#46474E;fill:color(display-p3 0.2745 0.2784 0.3059);fill-opacity:1;"/>
<path d="M105.519 157.152C105.585 157.152 105.643 160.568 105.643 164.78C105.643 168.992 105.585 172.408 105.519 172.408C105.452 172.408 105.395 168.992 105.395 164.78C105.395 160.568 105.452 157.152 105.519 157.152Z" fill="#46474E" style="fill:#46474E;fill:color(display-p3 0.2745 0.2784 0.3059);fill-opacity:1;"/>
<path d="M258.923 157.551C258.99 157.551 259.047 160.861 259.047 164.945C259.047 169.028 258.99 172.339 258.923 172.339C258.856 172.339 258.799 169.028 258.799 164.945C258.799 160.861 258.856 157.551 258.923 157.551Z" fill="#46474E" style="fill:#46474E;fill:color(display-p3 0.2745 0.2784 0.3059);fill-opacity:1;"/>
<path d="M195.303 149.648C195.303 149.648 190.532 153.936 187.235 151.222C181.038 146.122 177.994 127.299 177.994 127.299L171.487 139.687L162.627 136.224L177.722 115.955L187.498 124.804L195.298 149.643L195.303 149.648Z" fill="#46474E" style="fill:#46474E;fill:color(display-p3 0.2745 0.2784 0.3059);fill-opacity:1;"/>
<path d="M183.06 105.918C180.794 104.296 176.343 104.244 173.895 105.579C172.474 106.357 170.966 107.397 170.055 108.656C167.941 111.59 157.564 131.301 157.564 131.301L169.883 138.332C169.883 138.332 169.687 138.618 169.94 138.189C171.744 135.141 178.537 124.107 178.537 124.107C178.537 124.107 182.459 140.942 185.641 146.389C187.349 149.313 189.806 154.365 196.266 154.365C198.508 154.365 213.661 153.545 214.128 153.478C214.596 153.411 212.502 141.371 212.502 141.371L200.164 135.088C200.164 135.088 189.205 114.199 186.691 109.987C185.942 108.733 183.976 106.586 183.051 105.923L183.06 105.918Z" fill="#46474E" style="fill:#46474E;fill:color(display-p3 0.2745 0.2784 0.3059);fill-opacity:1;"/>
<path d="M198.228 154.378C198.228 154.378 198.185 154.388 198.108 154.393C198.013 154.393 197.899 154.402 197.751 154.407C197.588 154.412 197.398 154.417 197.173 154.426C196.94 154.421 196.677 154.412 196.381 154.407C195.785 154.383 195.06 154.307 194.225 154.149C193.395 153.968 192.464 153.672 191.515 153.181C189.597 152.203 187.756 150.347 186.119 148.067C185.284 146.942 184.487 145.673 183.858 144.275C183.242 142.872 182.665 141.394 182.178 139.843C181.172 136.757 180.432 133.752 179.817 131.013C179.507 129.644 179.244 128.337 179.006 127.111C178.772 125.885 178.543 124.741 178.452 123.682C178.219 121.587 178.028 119.884 177.889 118.682C177.832 118.105 177.784 117.652 177.751 117.323C177.737 117.18 177.727 117.06 177.722 116.97C177.718 116.889 177.718 116.85 177.722 116.846C177.722 116.846 177.737 116.884 177.751 116.965C177.765 117.06 177.784 117.175 177.803 117.318C177.846 117.647 177.913 118.1 177.989 118.673C178.142 119.87 178.362 121.568 178.629 123.658C178.734 124.717 178.968 125.847 179.211 127.073C179.459 128.294 179.731 129.601 180.046 130.966C180.671 133.699 181.415 136.695 182.417 139.767C182.904 141.308 183.476 142.782 184.082 144.175C184.707 145.563 185.48 146.803 186.31 147.934C187.927 150.209 189.726 152.05 191.601 153.028C192.531 153.525 193.442 153.825 194.258 154.021C195.079 154.192 195.799 154.283 196.391 154.321C196.682 154.335 196.944 154.35 197.178 154.364C197.402 154.364 197.593 154.364 197.755 154.369C197.899 154.369 198.018 154.374 198.113 154.378C198.194 154.378 198.232 154.383 198.232 154.388L198.228 154.378Z" fill="#65666D" style="fill:#65666D;fill:color(display-p3 0.3961 0.4000 0.4275);fill-opacity:1;"/>
<path d="M267.786 110.141C268.492 109.921 269.303 110.064 269.899 110.513C270.143 110.694 270.381 110.937 270.686 110.933C270.901 110.928 271.092 110.79 271.292 110.713C271.913 110.475 272.69 110.894 272.848 111.553C272.886 111.715 272.895 111.887 272.981 112.03C273.339 112.593 274.436 111.949 274.794 112.512C274.518 112.488 274.222 112.497 273.978 112.64C273.735 112.783 273.568 113.089 273.664 113.356C273.907 114.052 275.214 113.556 275.548 114.21C275.729 114.563 275.496 115.078 275.782 115.35C275.892 115.455 276.049 115.483 276.192 115.545C276.66 115.751 276.903 116.371 276.703 116.843C276.531 117.248 276.082 117.606 276.221 118.026C276.307 118.284 276.588 118.412 276.841 118.508C276.641 118.856 276.364 119.157 276.035 119.381C276.45 120.092 276.173 121.127 275.457 121.518C275.624 121.928 275.791 122.353 275.796 122.796C275.796 123.24 275.596 123.712 275.2 123.893C275.109 123.936 275.009 123.96 274.937 124.027C274.856 124.099 274.813 124.204 274.78 124.309C274.656 124.709 274.618 125.143 274.403 125.506C274.188 125.864 273.702 126.112 273.358 125.873C273.277 125.816 273.201 125.735 273.105 125.744C273.034 125.744 272.972 125.802 272.929 125.859C272.738 126.093 272.657 126.393 272.547 126.675C272.437 126.956 272.28 127.242 272.008 127.371C271.736 127.495 271.345 127.371 271.297 127.071C271.173 127.538 271.054 128.005 270.93 128.468C270.858 128.745 270.744 129.065 270.472 129.146C270.114 129.246 269.804 128.826 269.785 128.454C269.766 128.077 269.909 127.705 269.88 127.333C269.866 127.18 269.828 127.028 269.847 126.875C269.861 126.756 269.914 126.632 269.871 126.517C269.785 126.288 269.408 126.374 269.312 126.598C269.217 126.822 269.293 127.08 269.336 127.319C269.379 127.557 269.355 127.858 269.145 127.977C269.045 128.034 268.921 128.039 268.821 128.101C268.478 128.311 268.759 128.874 268.621 129.255C268.516 129.537 268.201 129.666 267.915 129.747C267.566 129.842 267.032 129.78 267.051 129.413C267.056 129.284 267.142 129.174 267.161 129.05C267.185 128.902 267.123 128.759 267.075 128.616C266.96 128.263 266.946 127.877 267.042 127.519C267.123 128.005 267.161 128.607 266.76 128.883C266.593 128.998 266.383 129.026 266.188 129.084C265.806 129.198 265.477 129.441 265.095 129.565C264.718 129.685 264.227 129.637 264.022 129.293C263.94 129.689 263.568 130.004 263.168 130.014C262.767 130.023 262.38 129.723 262.28 129.327C262.252 129.217 262.242 129.098 262.175 129.012C262.099 128.917 261.98 128.883 261.865 128.845C261.192 128.607 260.682 127.958 260.601 127.242C260.725 127.266 260.849 127.285 260.973 127.309C260.41 126.88 259.823 126.427 259.513 125.783C259.203 125.139 259.26 124.251 259.837 123.841C260.086 123.665 260.443 123.541 260.481 123.23C260.51 123.021 260.362 122.83 260.224 122.668C259.642 121.995 259.06 121.318 258.483 120.645C258.201 120.316 257.905 119.968 257.834 119.538C257.762 119.109 258.02 118.594 258.444 118.565C258.463 118.131 258.363 117.687 258.149 117.306C257.91 116.876 257.543 116.538 257.285 116.123C257.027 115.708 256.894 115.145 257.156 114.735C257.419 114.324 258.182 114.324 258.296 114.801C258.592 114.124 257.49 113.437 257.743 112.745C257.953 112.182 258.754 112.287 259.308 112.082C259.336 111.863 259.222 111.643 259.246 111.424C259.298 110.961 259.885 110.809 260.343 110.842C260.801 110.875 261.336 110.952 261.641 110.608C261.956 110.255 261.865 109.602 262.271 109.373C262.495 109.244 262.819 109.335 262.948 109.564C263.649 108.991 264.713 110.336 265.491 109.878C265.553 109.84 265.61 109.793 265.639 109.726C265.663 109.668 265.658 109.602 265.648 109.54C265.601 109.244 265.419 108.996 265.305 108.724C265.19 108.452 265.167 108.09 265.391 107.899C265.615 107.708 266.063 107.975 265.916 108.233C266.302 108.147 266.717 108.543 266.65 108.943C266.946 108.829 267.29 109.029 267.447 109.311C267.604 109.592 267.624 109.926 267.643 110.25" fill="#46474E" style="fill:#46474E;fill:color(display-p3 0.2745 0.2784 0.3059);fill-opacity:1;"/>
<path d="M266.721 120.304C267.055 119.102 266.73 117.804 266.215 116.669C266 116.192 265.738 115.715 265.328 115.4C264.917 115.085 264.316 114.966 263.882 115.243L263.543 116.049C262.809 117.223 263.2 118.754 263.047 120.137C262.98 120.738 262.828 121.42 263.2 121.897C263.396 122.145 263.706 122.279 264.011 122.327C265.228 122.522 266.392 121.506 266.726 120.304H266.721Z" fill="#FFA469" style="fill:#FFA469;fill:color(display-p3 1.0000 0.6431 0.4118);fill-opacity:1;"/>
<path d="M263.873 126.024C265.032 125.471 265.662 123.978 265.257 122.738C265.991 122.404 266.273 121.44 266.106 120.639C265.934 119.837 265.424 119.16 264.927 118.511C265.409 116.656 264.159 114.519 262.323 114.061C262.113 112.343 260.4 111.194 258.725 110.86C258.315 110.779 257.895 110.726 257.523 110.535C257.251 110.392 257.027 110.178 256.774 110.001C255.395 109.023 253.396 109.309 252.118 110.407C251.912 110.583 251.717 110.779 251.474 110.893C251.154 111.046 250.791 111.041 250.443 111.103C249.694 111.241 249.021 111.728 248.644 112.401C248.325 112.968 248.196 113.684 247.69 114.089C247.437 114.29 247.108 114.39 246.874 114.619C246.197 115.277 246.66 116.551 246.078 117.3C245.958 117.452 245.806 117.572 245.672 117.715C245.405 118.006 245.248 118.397 245.238 118.793C245.233 119.098 245.305 119.422 245.185 119.704C245.095 119.919 244.904 120.066 244.761 120.248C244.413 120.691 244.503 123.158 244.789 123.649L257.356 130.38C258.41 130.685 259.632 130.213 260.223 129.273C260.324 129.116 260.414 128.939 260.576 128.863C260.72 128.796 260.882 128.82 261.034 128.815C262.07 128.796 262.738 127.718 263.124 126.74C263.177 126.602 263.234 126.463 263.329 126.354C263.468 126.196 263.678 126.12 263.868 126.029L263.873 126.024Z" fill="#46474E" style="fill:#46474E;fill:color(display-p3 0.2745 0.2784 0.3059);fill-opacity:1;"/>
<path d="M260.242 124.147C261.42 121.9 261.335 118.561 259.674 116.286C258.629 114.855 257.537 114.277 256.845 113.805C255.295 112.746 253.548 112.88 253.548 112.88C252.771 112.679 249.026 113.715 247.594 116.214C246.006 118.995 244.178 122.449 243.463 124.763C242.022 129.414 245.009 131.622 245.009 131.622C245.009 131.617 241.125 138.573 241.125 138.573L252.427 139.035L260.247 124.152L260.242 124.147Z" fill="#FFBF9D" style="fill:#FFBF9D;fill:color(display-p3 1.0000 0.7490 0.6157);fill-opacity:1;"/>
<path d="M250.008 127.49C250.094 127.271 250.085 127.028 250.008 126.823C249.861 126.412 249.46 126.145 249.04 126.183C248.615 126.217 248.377 126.555 248.205 126.994C248.243 127.333 248.234 127.638 248.51 127.834C248.553 127.862 248.596 127.891 248.644 127.915C248.868 128.039 249.131 128.091 249.388 128.025C249.646 127.958 249.894 127.757 250.004 127.49H250.008Z" fill="#FFA469" style="fill:#FFA469;fill:color(display-p3 1.0000 0.6431 0.4118);fill-opacity:1;"/>
<path d="M246.817 120.481C246.664 120.767 246.774 121.135 247.07 121.306C247.361 121.473 247.723 121.383 247.876 121.096C248.028 120.81 247.919 120.438 247.623 120.271C247.332 120.099 246.969 120.195 246.817 120.481Z" fill="#46474E" style="fill:#46474E;fill:color(display-p3 0.2745 0.2784 0.3059);fill-opacity:1;"/>
<path d="M247.762 118.364C247.795 118.469 248.358 118.374 248.945 118.674C249.532 118.965 249.813 119.49 249.913 119.452C249.961 119.438 249.956 119.271 249.837 119.037C249.723 118.803 249.47 118.512 249.107 118.326C248.74 118.14 248.368 118.121 248.124 118.169C247.876 118.216 247.752 118.317 247.766 118.364H247.762Z" fill="#46474E" style="fill:#46474E;fill:color(display-p3 0.2745 0.2784 0.3059);fill-opacity:1;"/>
<path d="M248.883 124.802C248.902 124.768 248.568 124.52 248.019 124.144C247.876 124.053 247.752 123.948 247.776 123.833C247.795 123.705 247.938 123.576 248.096 123.433C248.415 123.137 248.754 122.827 249.107 122.503C250.529 121.172 251.636 120.046 251.583 119.989C251.531 119.931 250.333 120.962 248.911 122.293C248.563 122.622 248.234 122.937 247.919 123.237C247.776 123.38 247.585 123.528 247.547 123.795C247.533 123.929 247.599 124.067 247.685 124.144C247.766 124.22 247.847 124.268 247.924 124.31C248.501 124.644 248.868 124.835 248.887 124.802H248.883Z" fill="#46474E" style="fill:#46474E;fill:color(display-p3 0.2745 0.2784 0.3059);fill-opacity:1;"/>
<path d="M245.008 131.623C245.008 131.623 247.79 133.278 251.464 132.997C251.464 132.997 248.463 135.258 244.412 132.687L245.008 131.623Z" fill="#FFA469" style="fill:#FFA469;fill:color(display-p3 1.0000 0.6431 0.4118);fill-opacity:1;"/>
<path d="M248.311 117.023C248.34 117.219 248.836 117.353 249.337 117.663C249.847 117.958 250.205 118.335 250.382 118.264C250.463 118.226 250.477 118.054 250.367 117.815C250.258 117.577 250.014 117.286 249.666 117.076C249.318 116.866 248.95 116.794 248.697 116.814C248.44 116.833 248.301 116.928 248.311 117.019V117.023Z" fill="#46474E" style="fill:#46474E;fill:color(display-p3 0.2745 0.2784 0.3059);fill-opacity:1;"/>
<path d="M252.956 123.572C252.813 123.863 252.45 123.978 252.149 123.83C251.849 123.682 251.72 123.324 251.863 123.033C252.006 122.742 252.369 122.628 252.669 122.776C252.97 122.923 253.104 123.281 252.956 123.572Z" fill="#46474E" style="fill:#46474E;fill:color(display-p3 0.2745 0.2784 0.3059);fill-opacity:1;"/>
<path d="M255.657 122.688C255.552 122.721 255.313 122.192 254.736 121.872C254.168 121.543 253.582 121.61 253.558 121.505C253.543 121.457 253.682 121.366 253.935 121.333C254.187 121.3 254.564 121.338 254.922 121.543C255.28 121.743 255.509 122.048 255.609 122.282C255.709 122.521 255.705 122.678 255.652 122.692L255.657 122.688Z" fill="#46474E" style="fill:#46474E;fill:color(display-p3 0.2745 0.2784 0.3059);fill-opacity:1;"/>
<path d="M256.215 121.209C256.029 121.276 255.661 120.894 255.132 120.589C254.612 120.269 254.101 120.126 254.073 119.931C254.063 119.84 254.206 119.744 254.469 119.73C254.731 119.716 255.108 119.792 255.471 120.007C255.833 120.222 256.086 120.517 256.196 120.761C256.31 121.004 256.301 121.171 256.215 121.209Z" fill="#46474E" style="fill:#46474E;fill:color(display-p3 0.2745 0.2784 0.3059);fill-opacity:1;"/>
<path d="M257.556 127.884C257.714 127.564 258.453 126.992 258.787 127.102C259.684 127.397 261.154 128.232 260.113 130.384C258.692 133.332 256.068 131.257 256.106 131.171C256.135 131.104 257.008 128.986 257.556 127.879V127.884Z" fill="#FFBF9D" style="fill:#FFBF9D;fill:color(display-p3 1.0000 0.7490 0.6157);fill-opacity:1;"/>
<path d="M257.428 130.496C257.428 130.496 257.462 130.558 257.528 130.639C257.595 130.72 257.724 130.82 257.9 130.834C258.263 130.872 258.759 130.51 259.031 129.985C259.17 129.723 259.236 129.437 259.246 129.179C259.26 128.917 259.198 128.697 259.055 128.592C258.917 128.478 258.764 128.516 258.688 128.583C258.607 128.645 258.597 128.711 258.583 128.711C258.573 128.711 258.545 128.63 258.626 128.521C258.664 128.468 258.735 128.416 258.831 128.392C258.926 128.368 259.045 128.392 259.146 128.459C259.36 128.587 259.461 128.897 259.451 129.179C259.451 129.47 259.384 129.79 259.232 130.09C258.926 130.672 258.358 131.078 257.881 130.992C257.652 130.944 257.509 130.796 257.457 130.682C257.4 130.562 257.419 130.491 257.433 130.491L257.428 130.496Z" fill="#FFA469" style="fill:#FFA469;fill:color(display-p3 1.0000 0.6431 0.4118);fill-opacity:1;"/>
<path d="M246.936 115.93C247.704 115.858 248.324 115.543 248.629 114.828C248.958 115.143 249.602 114.837 249.994 114.613C250.385 114.389 250.748 114.36 250.934 113.941C250.972 113.859 251.005 113.769 251.081 113.716C251.196 113.635 251.349 113.669 251.492 113.692C252.203 113.812 252.966 113.53 253.438 112.977C253.925 113.568 254.555 114.036 255.256 114.322C255.337 114.914 255.738 115.458 256.277 115.701C256.816 115.949 257.474 115.892 257.966 115.558C257.961 116.016 258.219 116.44 258.562 116.741C258.901 117.041 259.321 117.232 259.731 117.418C259.168 118.119 259.24 119.255 259.884 119.884C259.97 119.97 260.075 120.061 260.075 120.185C260.075 120.314 259.96 120.404 259.869 120.49C259.287 121.034 259.311 122.103 259.912 122.622C259.254 122.751 258.882 123.639 259.24 124.216C259.311 124.335 259.411 124.483 259.335 124.597C259.307 124.64 259.259 124.664 259.211 124.688C258.853 124.869 258.481 125.074 258.276 125.423C258.071 125.771 258.114 126.3 258.462 126.501C258.19 126.572 257.909 126.701 257.78 126.954C257.651 127.207 257.78 127.598 258.057 127.627C258.176 127.636 259.755 128.089 259.865 128.032C261.239 127.321 260.819 125.551 261.425 124.111C262.031 122.67 262.217 121.072 262.126 119.507C262.088 118.849 262.002 118.191 261.797 117.566C261.563 116.855 261.177 116.206 260.79 115.562C260.285 114.728 259.76 113.883 259.02 113.254C257.641 112.08 255.738 111.827 253.949 111.765C253.267 111.741 252.58 111.741 251.916 111.904C251.124 112.099 250.404 112.519 249.731 112.982C248.758 113.65 247.832 114.437 247.207 115.453" fill="#46474E" style="fill:#46474E;fill:color(display-p3 0.2745 0.2784 0.3059);fill-opacity:1;"/>
<path d="M246.875 114.613C246.875 114.613 246.966 114.508 247.185 114.379C247.295 114.313 247.438 114.246 247.591 114.141C247.743 114.036 247.896 113.883 248.025 113.678C248.154 113.473 248.259 113.22 248.368 112.948C248.483 112.672 248.607 112.366 248.822 112.09C249.031 111.808 249.313 111.555 249.656 111.36C249.828 111.264 250.014 111.183 250.215 111.126C250.415 111.069 250.63 111.04 250.84 111.016C251.054 110.988 251.269 110.954 251.469 110.859C251.67 110.764 251.837 110.606 252.018 110.449C252.376 110.134 252.8 109.862 253.278 109.676C253.755 109.49 254.279 109.371 254.828 109.375C255.1 109.371 255.377 109.414 255.653 109.466C255.925 109.538 256.202 109.628 256.455 109.767C256.584 109.833 256.708 109.919 256.827 109.996C256.946 110.081 257.061 110.177 257.175 110.263C257.404 110.444 257.662 110.587 257.948 110.659C258.235 110.74 258.535 110.773 258.836 110.845C259.136 110.907 259.432 111.007 259.728 111.117C260.019 111.231 260.305 111.379 260.577 111.541C260.849 111.713 261.107 111.908 261.345 112.133C261.813 112.586 262.194 113.177 262.318 113.855C262.333 113.921 262.342 113.988 262.357 114.055L262.318 114.012C263.292 114.255 264.088 114.961 264.556 115.801C265.028 116.636 265.191 117.638 264.962 118.525L264.952 118.482C265.219 118.83 265.482 119.174 265.696 119.546C265.911 119.913 266.083 120.309 266.154 120.719C266.221 121.129 266.178 121.554 266.03 121.926C265.887 122.298 265.615 122.618 265.267 122.775L265.291 122.723C265.496 123.352 265.429 124.02 265.214 124.569C265 125.122 264.632 125.585 264.193 125.871C264.088 125.947 263.969 126.005 263.859 126.062C263.745 126.114 263.63 126.162 263.53 126.219C263.43 126.281 263.344 126.358 263.287 126.453C263.225 126.548 263.187 126.658 263.144 126.763C262.972 127.183 262.781 127.555 262.562 127.86C262.342 128.166 262.104 128.409 261.86 128.561C261.617 128.719 261.374 128.786 261.178 128.805C260.978 128.829 260.83 128.8 260.73 128.814C260.63 128.824 260.582 128.852 260.582 128.848C260.582 128.848 260.625 128.814 260.73 128.8C260.83 128.781 260.983 128.8 261.178 128.776C261.374 128.752 261.608 128.681 261.846 128.523C262.085 128.371 262.318 128.127 262.528 127.827C262.738 127.522 262.929 127.154 263.096 126.734C263.139 126.63 263.177 126.52 263.239 126.415C263.301 126.31 263.397 126.224 263.502 126.157C263.607 126.09 263.721 126.043 263.836 125.99C263.945 125.933 264.06 125.881 264.16 125.799C264.585 125.518 264.938 125.065 265.148 124.526C265.358 123.987 265.42 123.343 265.219 122.732L265.21 122.699L265.243 122.684C265.572 122.537 265.825 122.231 265.963 121.878C266.102 121.521 266.145 121.115 266.078 120.719C266.011 120.323 265.844 119.937 265.629 119.574C265.415 119.212 265.157 118.868 264.89 118.525L264.876 118.506V118.482C265.105 117.623 264.947 116.65 264.484 115.83C264.026 115.014 263.254 114.327 262.309 114.088L262.28 114.079V114.045C262.261 113.983 262.252 113.917 262.237 113.855C262.118 113.201 261.751 112.629 261.293 112.185C261.059 111.966 260.806 111.77 260.539 111.603C260.267 111.441 259.99 111.298 259.704 111.183C259.418 111.074 259.122 110.973 258.826 110.911C258.53 110.845 258.23 110.806 257.934 110.721C257.786 110.678 257.643 110.625 257.509 110.554C257.376 110.482 257.252 110.396 257.132 110.306C257.013 110.215 256.903 110.124 256.784 110.038C256.665 109.962 256.546 109.876 256.422 109.814C256.174 109.676 255.906 109.59 255.639 109.518C255.372 109.466 255.1 109.423 254.833 109.428C254.299 109.418 253.779 109.538 253.311 109.719C252.839 109.9 252.424 110.162 252.071 110.473C251.894 110.625 251.717 110.787 251.508 110.892C251.298 110.997 251.069 111.031 250.854 111.055C250.639 111.078 250.429 111.102 250.238 111.159C250.043 111.212 249.857 111.288 249.69 111.384C249.351 111.57 249.074 111.818 248.869 112.09C248.659 112.362 248.53 112.662 248.416 112.934C248.301 113.206 248.197 113.464 248.058 113.669C247.929 113.879 247.767 114.031 247.61 114.136C247.452 114.241 247.309 114.303 247.199 114.37C247.09 114.432 247.009 114.484 246.956 114.527C246.904 114.565 246.88 114.589 246.88 114.589L246.875 114.613Z" fill="#65666D" style="fill:#65666D;fill:color(display-p3 0.3961 0.4000 0.4275);fill-opacity:1;"/>
<path d="M261.277 112.714C261.277 112.714 261.224 112.628 261.115 112.49C261.01 112.347 260.838 112.156 260.575 111.979C260.318 111.803 259.965 111.655 259.555 111.631C259.149 111.607 258.691 111.717 258.3 111.979C258.185 112.056 258.08 112.141 257.994 112.237C257.909 112.332 257.847 112.447 257.861 112.557L257.88 112.69L257.78 112.595C257.503 112.337 257.145 112.232 256.835 112.242C256.52 112.251 256.258 112.385 256.077 112.533C255.895 112.681 255.785 112.843 255.723 112.957C255.661 113.072 255.638 113.143 255.633 113.138C255.633 113.138 255.633 113.119 255.642 113.086C255.652 113.053 255.666 113.005 255.695 112.943C255.747 112.824 255.852 112.647 256.038 112.485C256.22 112.323 256.496 112.175 256.83 112.161C257.16 112.141 257.546 112.251 257.847 112.523L257.765 112.566C257.742 112.409 257.827 112.27 257.918 112.165C258.013 112.06 258.123 111.97 258.243 111.893C258.653 111.617 259.135 111.507 259.559 111.536C259.989 111.564 260.351 111.731 260.614 111.917C260.876 112.103 261.043 112.313 261.143 112.461C261.191 112.537 261.224 112.599 261.248 112.642C261.267 112.685 261.277 112.709 261.277 112.709V112.714Z" fill="#65666D" style="fill:#65666D;fill:color(display-p3 0.3961 0.4000 0.4275);fill-opacity:1;"/>
<path d="M264.302 118.493C264.302 118.493 264.25 118.522 264.149 118.546C264.049 118.57 263.901 118.603 263.71 118.608C263.52 118.612 263.286 118.593 263.047 118.488C262.814 118.383 262.565 118.193 262.437 117.902L262.503 117.926C262.456 117.949 262.408 117.978 262.36 118.002C262.308 118.026 262.255 118.045 262.203 118.069C261.878 118.183 261.544 118.202 261.253 118.154C260.962 118.107 260.71 118.007 260.523 117.887C260.333 117.768 260.204 117.639 260.118 117.549C260.042 117.453 260.003 117.391 260.008 117.391C260.023 117.377 260.18 117.615 260.557 117.83C260.743 117.935 260.986 118.026 261.268 118.069C261.544 118.112 261.864 118.088 262.169 117.983C262.217 117.964 262.27 117.945 262.317 117.921C262.365 117.897 262.408 117.873 262.456 117.849L262.503 117.825L262.522 117.873C262.637 118.135 262.856 118.317 263.076 118.422C263.295 118.527 263.52 118.555 263.706 118.555C264.073 118.555 264.297 118.488 264.302 118.508V118.493Z" fill="#65666D" style="fill:#65666D;fill:color(display-p3 0.3961 0.4000 0.4275);fill-opacity:1;"/>
<path d="M264.482 121.998C264.482 121.998 264.473 122.017 264.449 122.051C264.42 122.079 264.382 122.122 264.315 122.161C264.186 122.237 263.962 122.299 263.695 122.237C263.428 122.18 263.156 121.979 262.913 121.722C262.793 121.593 262.665 121.459 262.545 121.307C262.431 121.154 262.321 120.958 262.331 120.734C262.331 120.715 262.331 120.696 262.335 120.677L262.393 120.734C262.006 120.811 261.625 120.858 261.276 120.815C260.928 120.782 260.627 120.648 260.422 120.481C260.212 120.319 260.093 120.128 260.036 119.995C260.007 119.928 259.993 119.871 259.983 119.833C259.979 119.794 259.974 119.775 259.979 119.775C259.988 119.775 260.002 119.852 260.069 119.981C260.131 120.109 260.255 120.281 260.46 120.429C260.666 120.582 260.947 120.696 261.281 120.725C261.615 120.758 261.982 120.715 262.369 120.634L262.431 120.62V120.687C262.431 120.687 262.421 120.715 262.421 120.734C262.412 120.92 262.507 121.097 262.617 121.245C262.727 121.393 262.855 121.531 262.97 121.655C263.204 121.908 263.457 122.103 263.7 122.165C263.948 122.232 264.163 122.189 264.287 122.122C264.415 122.06 264.463 121.989 264.473 121.998H264.482Z" fill="#65666D" style="fill:#65666D;fill:color(display-p3 0.3961 0.4000 0.4275);fill-opacity:1;"/>
<path d="M272.751 113.118C272.751 113.118 272.699 113.094 272.603 113.07C272.508 113.051 272.35 113.041 272.179 113.118C272.002 113.189 271.816 113.332 271.682 113.566C271.549 113.795 271.468 114.095 271.396 114.42L271.387 114.472L271.339 114.444C271.019 114.267 270.609 114.172 270.184 114.239C269.764 114.301 269.345 114.558 269.13 114.983C268.925 115.364 268.906 115.822 269.068 116.175L269.125 116.304L269.001 116.237C268.557 116.004 268.052 116.013 267.665 116.161C267.269 116.309 267.002 116.6 266.849 116.872C266.692 117.144 266.644 117.396 266.625 117.568C266.606 117.74 266.62 117.835 266.611 117.835C266.611 117.835 266.606 117.811 266.597 117.769C266.592 117.721 266.587 117.654 266.592 117.568C266.601 117.392 266.64 117.129 266.797 116.843C266.95 116.562 267.222 116.247 267.632 116.085C268.037 115.922 268.567 115.908 269.039 116.151L268.977 116.213C268.796 115.832 268.82 115.336 269.039 114.935C269.154 114.711 269.321 114.525 269.521 114.391C269.722 114.258 269.941 114.181 270.165 114.143C270.609 114.076 271.038 114.177 271.372 114.367L271.315 114.396C271.391 114.067 271.477 113.761 271.625 113.523C271.768 113.28 271.973 113.132 272.159 113.065C272.346 112.993 272.508 113.008 272.608 113.041C272.66 113.055 272.694 113.075 272.718 113.089C272.742 113.103 272.751 113.113 272.751 113.113V113.118Z" fill="#65666D" style="fill:#65666D;fill:color(display-p3 0.3961 0.4000 0.4275);fill-opacity:1;"/>
<path d="M274.77 122.125C274.77 122.125 274.751 122.125 274.708 122.125C274.67 122.125 274.608 122.125 274.532 122.121C274.379 122.106 274.15 122.063 273.883 121.954C273.616 121.844 273.311 121.663 273.029 121.376C272.748 121.095 272.495 120.704 272.375 120.227L272.442 120.255C271.975 120.556 271.316 120.713 270.696 120.494C270.038 120.26 269.604 119.597 269.642 118.977L269.718 119.01C269.546 119.177 269.332 119.278 269.126 119.33C268.917 119.382 268.707 119.382 268.516 119.359C268.129 119.306 267.824 119.144 267.59 119.001C267.356 118.853 267.185 118.71 267.07 118.614C266.956 118.519 266.898 118.462 266.898 118.457C266.898 118.457 266.965 118.5 267.089 118.591C267.209 118.681 267.385 118.81 267.619 118.953C267.853 119.091 268.158 119.239 268.525 119.282C268.888 119.325 269.336 119.258 269.656 118.944L269.737 118.863V118.977C269.699 119.549 270.114 120.174 270.729 120.394C271.312 120.604 271.946 120.456 272.395 120.17L272.447 120.136L272.461 120.198C272.576 120.651 272.81 121.038 273.082 121.314C273.349 121.596 273.645 121.777 273.902 121.892C274.422 122.121 274.77 122.092 274.766 122.111L274.77 122.125Z" fill="#65666D" style="fill:#65666D;fill:color(display-p3 0.3961 0.4000 0.4275);fill-opacity:1;"/>
<path d="M269.623 124.853C269.623 124.853 269.609 124.872 269.561 124.891C269.518 124.905 269.446 124.91 269.36 124.881C269.193 124.824 268.979 124.681 268.774 124.447C268.573 124.214 268.387 123.865 268.344 123.446C268.306 123.03 268.416 122.553 268.707 122.172V122.162L268.75 122.243C268.273 122.243 267.838 122.057 267.509 121.809C267.18 121.561 266.961 121.251 266.822 120.975C266.684 120.698 266.617 120.45 266.584 120.283C266.55 120.111 266.546 120.016 266.555 120.016C266.579 120.011 266.603 120.402 266.884 120.941C267.027 121.203 267.247 121.504 267.567 121.738C267.881 121.971 268.301 122.143 268.75 122.143H268.845L268.788 122.224V122.234C268.506 122.596 268.397 123.045 268.43 123.441C268.463 123.837 268.63 124.171 268.821 124.404C269.012 124.638 269.217 124.786 269.365 124.848C269.523 124.915 269.613 124.848 269.613 124.858L269.623 124.853Z" fill="#65666D" style="fill:#65666D;fill:color(display-p3 0.3961 0.4000 0.4275);fill-opacity:1;"/>
<path d="M266.384 109.979C266.384 109.979 266.059 110.232 265.806 110.814C265.682 111.1 265.596 111.477 265.625 111.892C265.658 112.303 265.821 112.751 266.116 113.123C266.283 113.333 266.484 113.505 266.694 113.633L266.746 113.667L266.703 113.71C266.441 113.986 266.25 114.301 266.131 114.602C266.012 114.902 265.949 115.189 265.926 115.432C265.916 115.551 265.907 115.661 265.916 115.756C265.921 115.847 265.959 115.923 266.012 115.952C266.064 115.985 266.116 115.985 266.145 115.976C266.174 115.966 266.188 115.952 266.193 115.952C266.193 115.952 266.188 115.971 266.155 115.99C266.121 116.009 266.059 116.014 265.997 115.98C265.93 115.947 265.883 115.856 265.873 115.761C265.864 115.661 265.864 115.551 265.873 115.427C265.887 115.179 265.94 114.883 266.059 114.573C266.178 114.263 266.369 113.934 266.641 113.643L266.651 113.719C266.431 113.586 266.221 113.404 266.05 113.185C265.74 112.794 265.573 112.326 265.544 111.897C265.515 111.463 265.616 111.077 265.749 110.786C265.883 110.49 266.05 110.285 266.174 110.156C266.236 110.094 266.288 110.046 266.326 110.018C266.365 109.989 266.384 109.975 266.384 109.979Z" fill="#65666D" style="fill:#65666D;fill:color(display-p3 0.3961 0.4000 0.4275);fill-opacity:1;"/>
<path d="M250.151 126.418C250.075 126.361 249.727 126.881 249.04 126.948C248.353 127.015 247.837 126.576 247.785 126.647C247.756 126.676 247.837 126.833 248.066 127C248.291 127.167 248.672 127.32 249.092 127.282C249.512 127.239 249.832 127.015 249.994 126.814C250.161 126.609 250.189 126.438 250.151 126.418Z" fill="#46474E" style="fill:#46474E;fill:color(display-p3 0.2745 0.2784 0.3059);fill-opacity:1;"/>
<path d="M202.61 130.146C202.476 130.051 201.732 130.337 202.095 131.258C202.457 132.174 203.345 132.236 203.931 133.228C204.518 134.22 204.056 134.692 205.382 135.918C206.708 137.144 207.209 137.34 207.209 137.34L209.127 134.988L205.325 131.105L202.615 130.146H202.61Z" fill="#FFA469" style="fill:#FFA469;fill:color(display-p3 1.0000 0.6431 0.4118);fill-opacity:1;"/>
<path d="M193.537 127.347L191.786 105.514C191.719 104.665 192.335 103.916 193.184 103.82L195.269 126.665L212.091 141.825C212.416 142.116 212.392 142.636 212.044 142.899C211.781 143.094 211.414 143.08 211.17 142.865L193.542 127.347H193.537Z" fill="#E0E0E0" style="fill:#E0E0E0;fill:color(display-p3 0.8784 0.8784 0.8784);fill-opacity:1;"/>
<path d="M199.988 126.835C199.988 126.835 204.196 126.286 204.325 126.363C204.921 126.716 208.781 130.002 208.781 130.002L211.954 135.932L207.426 138.341C207.426 138.341 206.29 136.686 206.076 135.584C205.861 134.482 204.401 131.429 204.401 131.429L202.479 130.055L198.991 129.988C198.991 129.988 198.624 130.041 198.232 129.239L200.742 128.18L203.304 128.486L205.05 129.282L203.28 127.842C203.28 127.842 200.952 127.77 200.828 127.751C200.709 127.732 199.912 127.407 199.988 126.83V126.835Z" fill="#FFBF9D" style="fill:#FFBF9D;fill:color(display-p3 1.0000 0.7490 0.6157);fill-opacity:1;"/>
<path d="M241.361 134.497C241.127 134.439 236.475 134.354 232.243 135.551C226.132 137.283 222.458 138.986 219.19 138.986C215.111 138.986 207.354 138.671 207.354 138.671C207.354 138.671 210.645 144.266 210.526 148.784C210.407 153.301 211.852 154.365 211.852 154.365L237.544 153.254C241.933 153.082 247.873 151.584 249.977 147.171C251.546 143.88 252.071 141.299 252.119 141.161L254.023 136.729L244.037 132.121L242.119 134.621L241.365 134.497H241.361Z" fill="#FFA469" style="fill:#FFA469;fill:color(display-p3 1.0000 0.6431 0.4118);fill-opacity:1;"/>
<path d="M240.011 139.559L237.706 141.978L224.348 145.603L211.418 134.875C211.418 134.875 207.397 135.357 207.859 141.019C207.893 141.425 218.193 153.584 220.202 154.257C222.21 154.929 228.918 154.333 229.767 154.333C230.617 154.333 244.199 152.058 245.821 150.908C247.444 149.758 251.017 143.318 250.879 141.849" fill="#FFA469" style="fill:#FFA469;fill:color(display-p3 1.0000 0.6431 0.4118);fill-opacity:1;"/>
<path d="M250.883 141.852C250.883 141.852 250.883 141.938 250.883 142.1C250.888 142.186 250.859 142.286 250.836 142.405C250.812 142.524 250.783 142.667 250.731 142.82C250.549 143.44 250.187 144.323 249.643 145.415C249.094 146.507 248.369 147.819 247.377 149.25C247.124 149.603 246.852 149.966 246.547 150.319C246.236 150.667 245.879 151.015 245.402 151.211C244.476 151.583 243.465 151.831 242.405 152.098C240.278 152.613 237.93 153.086 235.402 153.544C234.137 153.773 232.83 154.002 231.475 154.216C230.803 154.312 230.101 154.445 229.4 154.455C228.699 154.493 227.988 154.536 227.267 154.579C225.822 154.655 224.343 154.717 222.826 154.679C222.067 154.655 221.299 154.627 220.526 154.46C220.335 154.412 220.14 154.369 219.949 154.264C219.772 154.164 219.605 154.054 219.448 153.93C219.133 153.692 218.832 153.434 218.541 153.172C217.372 152.108 216.27 150.949 215.159 149.761C214.052 148.568 212.955 147.342 211.857 146.083C211.037 145.143 210.235 144.203 209.453 143.259C209.062 142.787 208.675 142.314 208.303 141.837L208.026 141.475C207.936 141.336 207.85 141.265 207.754 141.05C207.721 140.721 207.726 140.435 207.711 140.13C207.707 139.829 207.745 139.529 207.754 139.228C207.778 138.927 207.85 138.632 207.897 138.336C208.055 137.759 208.241 137.182 208.575 136.685C209.205 135.669 210.249 134.949 211.404 134.744L211.452 134.734L211.495 134.768C216.318 138.784 220.698 142.424 224.41 145.515L224.324 145.496C230.278 143.903 234.886 142.672 237.697 141.918L237.677 141.933C238.436 141.15 239.018 140.549 239.414 140.139C239.605 139.944 239.753 139.796 239.858 139.691C239.958 139.591 240.015 139.543 240.015 139.543C240.015 139.543 239.972 139.6 239.877 139.705C239.777 139.815 239.634 139.972 239.447 140.173C239.056 140.588 238.489 141.198 237.739 141.995L237.73 142.004H237.716C234.915 142.777 230.311 144.046 224.371 145.682L224.324 145.697L224.285 145.663C220.564 142.582 216.175 138.951 211.342 134.954L211.433 134.982C210.374 135.173 209.367 135.855 208.78 136.819C208.169 137.778 207.95 138.961 207.955 140.134C207.969 140.421 207.969 140.745 207.993 141.003C208.026 141.06 208.141 141.222 208.222 141.332L208.494 141.689C208.866 142.162 209.252 142.634 209.639 143.101C210.421 144.041 211.223 144.981 212.039 145.921C213.131 147.175 214.228 148.401 215.33 149.594C216.437 150.777 217.539 151.936 218.694 152.99C218.985 153.253 219.276 153.505 219.586 153.734C219.739 153.854 219.896 153.954 220.054 154.049C220.206 154.13 220.392 154.173 220.574 154.221C221.308 154.383 222.077 154.412 222.826 154.436C224.333 154.474 225.807 154.417 227.248 154.345C227.969 154.307 228.68 154.264 229.386 154.226C230.092 154.216 230.76 154.087 231.442 153.992C232.792 153.782 234.099 153.558 235.364 153.334C237.892 152.881 240.239 152.418 242.362 151.917C243.417 151.655 244.438 151.416 245.34 151.054C245.788 150.872 246.127 150.553 246.437 150.209C246.737 149.861 247.009 149.508 247.267 149.16C248.264 147.743 248.999 146.441 249.562 145.358C250.12 144.275 250.492 143.402 250.693 142.791C250.75 142.639 250.783 142.505 250.807 142.386C250.831 142.267 250.869 142.171 250.864 142.085C250.879 141.923 250.888 141.837 250.888 141.837L250.883 141.852Z" fill="#46474E" style="fill:#46474E;fill:color(display-p3 0.2745 0.2784 0.3059);fill-opacity:1;"/>
<path d="M249.838 140.182C249.805 140.211 249.466 139.82 248.803 139.328C248.149 138.837 247.138 138.264 245.912 137.993C244.686 137.721 243.531 137.807 242.729 137.973C241.923 138.14 241.446 138.35 241.432 138.307C241.427 138.293 241.537 138.226 241.751 138.126C241.966 138.026 242.286 137.907 242.691 137.802C243.502 137.587 244.7 137.463 245.969 137.749C247.238 138.031 248.269 138.646 248.913 139.19C249.237 139.462 249.476 139.705 249.628 139.886C249.781 140.068 249.852 140.177 249.838 140.187V140.182Z" fill="#46474E" style="fill:#46474E;fill:color(display-p3 0.2745 0.2784 0.3059);fill-opacity:1;"/>
<path d="M250.921 138.69C250.912 138.718 250.392 138.609 249.571 138.356C248.75 138.103 247.629 137.707 246.432 137.173C245.234 136.639 244.185 136.076 243.45 135.632C242.715 135.188 242.281 134.878 242.295 134.854C242.314 134.821 242.777 135.079 243.536 135.479C244.29 135.88 245.344 136.414 246.532 136.944C247.725 137.473 248.827 137.893 249.628 138.189C250.43 138.48 250.935 138.652 250.921 138.69Z" fill="#46474E" style="fill:#46474E;fill:color(display-p3 0.2745 0.2784 0.3059);fill-opacity:1;"/>
<path d="M169.368 138.61L163.157 147.85L162.393 151.318C162.155 152.401 161.086 153.083 160.003 152.845L139.898 148.427C139.898 148.427 140.075 145.961 141.626 145.67C143.176 145.379 154.321 143.128 154.321 143.128L160.103 132.643L169.368 138.62V138.61Z" fill="#E0E0E0" style="fill:#E0E0E0;fill:color(display-p3 0.8784 0.8784 0.8784);fill-opacity:1;"/>
<path d="M170.15 139.61L168.056 142.362C167.765 142.744 167.235 142.844 166.825 142.591L157.55 136.924C157.14 136.676 156.987 136.156 157.192 135.722L158.504 132.974C158.743 132.478 159.358 132.292 159.831 132.578L169.969 138.67C170.298 138.866 170.379 139.304 170.15 139.61Z" fill="#E0E0E0" style="fill:#E0E0E0;fill:color(display-p3 0.8784 0.8784 0.8784);fill-opacity:1;"/>
<path d="M170.15 139.61C170.15 139.61 170.235 139.51 170.255 139.285C170.264 139.176 170.245 139.033 170.154 138.899C170.073 138.756 169.897 138.675 169.706 138.565C168.933 138.112 167.85 137.473 166.514 136.686C165.164 135.884 163.566 134.93 161.791 133.876C161.347 133.609 160.894 133.337 160.426 133.06C160.197 132.922 159.964 132.783 159.725 132.645C159.506 132.531 159.234 132.521 159.005 132.626C158.89 132.679 158.79 132.755 158.709 132.85C158.628 132.941 158.58 133.065 158.513 133.199C158.389 133.456 158.265 133.718 158.141 133.981C157.888 134.506 157.635 135.035 157.378 135.574C157.311 135.712 157.239 135.836 157.22 135.961C157.192 136.089 157.201 136.223 157.235 136.352C157.268 136.476 157.335 136.595 157.421 136.69C157.507 136.786 157.621 136.853 157.75 136.929C158.246 137.234 158.733 137.53 159.215 137.826C160.174 138.412 161.099 138.98 161.982 139.524C163.737 140.607 165.321 141.585 166.662 142.41C166.834 142.515 166.977 142.62 167.149 142.648C167.316 142.682 167.492 142.663 167.645 142.601C167.955 142.486 168.112 142.167 168.313 141.928C168.69 141.442 169.019 141.022 169.291 140.669C169.553 140.34 169.763 140.073 169.916 139.882C170.059 139.7 170.14 139.61 170.145 139.615C170.15 139.615 170.083 139.72 169.949 139.906C169.801 140.106 169.606 140.378 169.353 140.721C169.086 141.079 168.771 141.504 168.403 142C168.308 142.124 168.213 142.253 168.112 142.386C168.012 142.524 167.864 142.653 167.688 142.725C167.516 142.801 167.316 142.825 167.115 142.787C166.915 142.753 166.738 142.634 166.576 142.539C165.231 141.728 163.642 140.759 161.877 139.691C160.994 139.152 160.064 138.589 159.105 138.002C158.623 137.711 158.136 137.411 157.64 137.11C157.521 137.039 157.378 136.958 157.268 136.833C157.158 136.714 157.077 136.566 157.034 136.409C156.991 136.252 156.982 136.08 157.02 135.922C157.034 135.841 157.063 135.765 157.096 135.689L157.192 135.488C157.449 134.949 157.702 134.42 157.955 133.895C158.079 133.633 158.203 133.375 158.327 133.113C158.389 132.989 158.447 132.846 158.551 132.721C158.652 132.602 158.78 132.502 158.924 132.44C159.21 132.311 159.549 132.321 159.821 132.464C160.073 132.607 160.298 132.75 160.531 132.888C160.994 133.17 161.447 133.442 161.891 133.709C163.656 134.777 165.245 135.746 166.59 136.557C167.912 137.368 168.985 138.026 169.749 138.494C169.93 138.608 170.121 138.703 170.207 138.866C170.297 139.018 170.312 139.176 170.297 139.29C170.283 139.409 170.24 139.491 170.207 139.543C170.173 139.591 170.15 139.615 170.15 139.615V139.61Z" fill="#46474E" style="fill:#46474E;fill:color(display-p3 0.2745 0.2784 0.3059);fill-opacity:1;"/>
<path d="M165.713 141.669C165.737 141.726 166.748 141.12 167.407 139.875C168.08 138.635 168.027 137.457 167.965 137.471C167.884 137.461 167.822 138.578 167.183 139.756C166.558 140.939 165.661 141.611 165.713 141.673V141.669Z" fill="#46474E" style="fill:#46474E;fill:color(display-p3 0.2745 0.2784 0.3059);fill-opacity:1;"/>
<path d="M162.17 139.741C162.222 139.779 162.928 138.916 163.668 137.766C164.412 136.616 164.904 135.624 164.846 135.591C164.784 135.557 164.202 136.497 163.468 137.637C162.733 138.782 162.117 139.698 162.175 139.741H162.17Z" fill="#46474E" style="fill:#46474E;fill:color(display-p3 0.2745 0.2784 0.3059);fill-opacity:1;"/>
<path d="M158.566 137.37C158.642 137.398 158.895 136.258 159.825 135.233C160.741 134.193 161.844 133.816 161.81 133.74C161.801 133.711 161.514 133.764 161.09 133.964C160.665 134.159 160.117 134.527 159.635 135.061C159.158 135.6 158.852 136.187 158.704 136.63C158.556 137.074 158.537 137.365 158.566 137.37Z" fill="#46474E" style="fill:#46474E;fill:color(display-p3 0.2745 0.2784 0.3059);fill-opacity:1;"/>
<path d="M157.746 152.227C157.785 152.241 157.904 151.879 158.214 151.363C158.519 150.848 159.039 150.185 159.793 149.665C160.547 149.15 161.353 148.902 161.945 148.802C162.536 148.702 162.918 148.716 162.918 148.678C162.918 148.649 162.541 148.573 161.921 148.63C161.305 148.687 160.447 148.921 159.655 149.46C158.863 150.004 158.338 150.72 158.061 151.273C157.784 151.831 157.718 152.213 157.746 152.222V152.227Z" fill="#46474E" style="fill:#46474E;fill:color(display-p3 0.2745 0.2784 0.3059);fill-opacity:1;"/>
<path d="M145.572 149.669C145.572 149.669 145.763 149.445 145.906 149.006C146.049 148.572 146.13 147.9 145.934 147.208C145.744 146.516 145.371 145.982 145.08 145.629C144.785 145.276 144.565 145.1 144.546 145.119C144.517 145.142 144.689 145.367 144.942 145.734C145.19 146.101 145.519 146.631 145.696 147.275C145.877 147.919 145.834 148.534 145.739 148.963C145.643 149.393 145.534 149.655 145.572 149.669Z" fill="#46474E" style="fill:#46474E;fill:color(display-p3 0.2745 0.2784 0.3059);fill-opacity:1;"/>
</svg>
