<svg width="230" height="178" viewBox="0 0 230 178" fill="none" xmlns="http://www.w3.org/2000/svg">
<path d="M110.507 140.003C110.507 147.085 108.511 153.7 105.051 159.318C101.855 164.507 97.4114 168.845 92.1371 171.907C86.6972 175.071 80.3724 176.886 73.6274 176.886C71.9753 176.886 70.352 176.777 68.7604 176.564C58.982 175.278 50.4163 170.157 44.6071 162.769C40.1253 157.058 37.2892 149.995 36.8213 142.289C36.7703 141.534 36.748 140.77 36.748 140.006C36.748 135.553 37.5343 131.285 38.9826 127.334C38.9826 127.331 38.9858 127.328 38.9858 127.328C39.3391 126.357 39.7338 125.409 40.1667 124.482C41.4113 121.799 42.971 119.291 44.8013 117.002C47.3732 113.781 50.4767 111.002 53.9718 108.799C59.66 105.206 66.3986 103.127 73.6242 103.127C77.7367 103.127 81.6933 103.802 85.3889 105.04C89.0017 106.259 92.3694 108.019 95.3838 110.228C99.8975 113.529 103.634 117.836 106.257 122.814C107.158 124.514 107.925 126.29 108.552 128.13C109.609 131.243 110.262 134.544 110.449 137.969C110.484 138.641 110.504 139.319 110.504 140L110.507 140.003Z" fill="#F3F0F0" style="fill:#F3F0F0;fill:color(display-p3 0.9529 0.9412 0.9412);fill-opacity:1;"/>
<path d="M110.452 137.972L108.682 136.336C109.178 133.497 109.038 130.705 108.555 128.133C107.927 126.29 107.16 124.517 106.26 122.817C107.721 126.554 108.838 131.361 107.94 136.32L103.551 138.297C102.055 135.894 98.1967 130.546 92.6613 128.989L86.5434 114.914L89.3573 109.522L95.3861 110.231C92.3717 108.022 89.004 106.259 85.3911 105.043L88.7207 109.168L85.9164 114.544L69.6126 116.018C65.4491 112.463 59.8023 110.693 54.3528 111.237L53.974 108.802C50.4758 111.005 47.3723 113.784 44.8035 117.005L54.0377 111.928L54.044 112.001C59.2739 111.371 64.7329 112.975 68.8136 116.302L65.3631 132.316C62.406 133.076 54.9576 135.588 49.0689 142.483L39.6342 140.114C38.7556 133.952 39.5387 127.875 40.1657 124.485C39.7328 125.412 39.3381 126.36 38.9848 127.331C38.9848 127.331 38.9816 127.334 38.9816 127.337C38.5233 130.845 38.2368 135.543 38.9243 140.296C38.4883 140.716 37.632 141.528 36.8203 142.295C37.2882 150.001 40.1244 157.064 44.6062 162.775L50.5872 162.568C55.8107 168.947 62.8708 170.736 65.5732 171.204L68.7595 176.57C70.3542 176.78 71.9744 176.892 73.6264 176.892C80.3746 176.892 86.6962 175.081 92.1361 171.913L93.7213 167.912C95.4338 167.021 98.3941 164.844 101.367 159.655L105.047 159.324C108.507 153.709 110.503 147.092 110.503 140.009C110.503 139.328 110.483 138.65 110.448 137.978L110.452 137.972ZM80.7025 159.894L65.4809 170.44C62.6925 169.93 55.8616 168.078 50.8896 161.772L49.4445 143.164C55.1613 136.349 62.457 133.828 65.4236 133.048L80.5433 141.327C82.2303 148.947 81.0112 157.892 80.6993 159.897L80.7025 159.894ZM101.03 158.774C98.2827 163.733 95.5166 166.002 93.8041 167.008L81.4314 159.942C81.7656 157.765 82.9561 148.791 81.2499 141.123L92.6295 129.744C98.0662 131.37 101.899 136.985 103.15 139.042L101.03 158.77V158.774Z" fill="#46474E" style="fill:#46474E;fill:color(display-p3 0.2745 0.2784 0.3059);fill-opacity:1;"/>
<path d="M224.968 166.449C216.644 177.909 200.605 180.449 189.142 172.125C177.683 163.801 175.143 147.762 183.467 136.302C188.971 128.727 197.848 125.047 206.544 125.83C207.789 125.941 209.027 126.142 210.253 126.441C213.42 127.205 216.492 128.59 219.293 130.624C224.647 134.513 228.053 140.087 229.316 146.087C229.603 147.453 229.778 148.844 229.841 150.238C229.841 150.238 229.841 150.24 229.841 150.244C229.841 150.244 229.845 150.254 229.841 150.254C230.09 155.85 228.517 161.567 224.968 166.449Z" fill="#FFA469" style="fill:#FFA469;fill:color(display-p3 1.0000 0.6431 0.4118);fill-opacity:1;"/>
<path d="M229.838 150.244C229.762 150.18 229.787 150.205 229.838 150.253C229.838 150.253 229.838 150.247 229.838 150.244ZM229.316 146.087C228.055 145.409 226.69 144.947 225.267 144.737C221.992 144.25 218.5 145.202 215.899 147.245C214.381 148.436 213.175 149.983 212.057 151.542C211.519 152.29 210.994 153.048 210.437 153.786C210.173 154.137 209.899 154.48 209.619 154.821C209.492 154.971 209.361 155.123 209.227 155.273C209.151 155.359 209.075 155.461 208.989 155.537C209.024 155.509 209.049 155.486 209.071 155.467C209.008 155.528 208.893 155.629 208.858 155.661C208.339 156.174 207.776 156.642 207.181 157.062C207.053 157.151 206.92 157.24 206.786 157.326C206.726 157.364 206.665 157.406 206.605 157.444C206.595 157.45 206.582 157.457 206.566 157.466C206.56 157.469 206.554 157.472 206.547 157.479C206.223 157.663 205.898 157.842 205.557 158.001C204.908 158.31 204.24 158.564 203.552 158.781C203.546 158.781 203.542 158.781 203.536 158.784C203.479 158.8 203.415 158.819 203.351 158.835C203.17 158.883 202.985 158.927 202.798 158.969C202.425 159.051 202.05 159.118 201.674 159.166C201.33 159.214 200.983 159.249 200.633 159.271C200.573 159.271 200.512 159.277 200.455 159.277C200.267 159.23 199.993 159.284 199.796 159.277C199.067 159.258 198.341 159.179 197.628 159.042C197.561 159.029 197.498 159.013 197.434 159.004C197.265 158.937 197.065 158.911 196.887 158.864C196.501 158.752 196.116 158.622 195.738 158.475C195.394 158.341 195.056 158.192 194.722 158.03C194.63 157.982 194.544 157.937 194.452 157.889C194.439 157.883 194.429 157.88 194.42 157.874C194.413 157.874 194.41 157.87 194.407 157.867C194.251 157.775 194.092 157.686 193.936 157.59C193.274 157.183 192.65 156.721 192.064 156.218C191.946 156.113 191.829 156.008 191.711 155.9C191.705 155.897 191.701 155.894 191.695 155.887C191.622 155.814 191.549 155.744 191.479 155.674C191.198 155.384 190.928 155.082 190.67 154.77C190.434 154.484 190.208 154.188 189.995 153.882C189.89 153.729 189.788 153.576 189.686 153.42C189.683 153.414 189.671 153.398 189.658 153.376V153.369C189.658 153.369 189.658 153.369 189.651 153.369C189.651 153.366 189.648 153.363 189.645 153.36V153.354C189.645 153.354 189.645 153.347 189.642 153.347C189.604 153.287 189.553 153.214 189.559 153.207C189.569 153.223 189.578 153.236 189.585 153.249C189.559 153.204 189.537 153.163 189.511 153.118C189.129 152.443 188.805 151.737 188.544 151.008C188.483 150.833 188.429 150.654 188.369 150.482V150.479C188.365 150.47 188.365 150.463 188.362 150.457C188.346 150.384 188.324 150.314 188.308 150.244C188.213 149.862 188.133 149.477 188.069 149.088C188.012 148.735 187.971 148.372 187.942 148.016C187.933 147.917 187.971 147.497 187.91 147.43C187.91 147.331 187.91 147.232 187.91 147.137C187.92 146.383 187.99 145.631 188.12 144.887C188.149 144.721 188.181 144.559 188.216 144.396C188.216 144.396 188.216 144.394 188.216 144.39C188.222 144.361 188.229 144.336 188.232 144.307C188.238 144.275 188.248 144.25 188.257 144.237C188.248 144.291 188.235 144.345 188.216 144.39C188.299 144.237 188.283 144.189 188.257 144.231C188.264 144.193 188.267 144.154 188.276 144.123C188.375 143.744 188.49 143.365 188.62 142.996C188.741 142.655 188.872 142.318 189.018 141.987C189.098 141.808 189.177 141.63 189.266 141.452C189.295 141.395 189.327 141.334 189.355 141.277C189.368 141.248 189.384 141.22 189.397 141.191C189.613 140.933 189.76 140.564 189.944 140.284C190.161 139.956 190.39 139.638 190.638 139.332C190.816 139.109 191.023 138.902 191.211 138.683C191.23 138.651 191.265 138.606 191.297 138.571C191.272 138.609 191.243 138.648 191.211 138.683C191.173 138.734 191.179 138.74 191.323 138.546C191.323 138.546 191.323 138.545 191.323 138.543C191.386 138.482 191.45 138.415 191.514 138.352C191.647 138.218 191.787 138.091 191.927 137.963C192.462 137.479 193.032 137.031 193.624 136.617C193.91 136.416 194.197 136.225 194.49 136.041C194.569 135.99 194.649 135.939 194.732 135.888C194.76 135.872 194.795 135.85 194.834 135.834C194.808 135.847 194.786 135.859 194.76 135.872C194.849 135.827 194.891 135.808 194.907 135.799C194.894 135.802 194.872 135.812 194.846 135.824C194.967 135.754 195.082 135.675 195.203 135.608C195.843 135.245 196.495 134.901 197.151 134.573C198.481 133.908 199.837 133.3 201.177 132.667C203.88 131.397 206.633 129.999 208.826 127.937C209.326 127.465 209.804 126.966 210.246 126.437C209.021 126.138 207.782 125.938 206.538 125.826C206.051 126.259 205.535 126.663 205.007 127.036C204.723 127.233 204.437 127.424 204.144 127.609C204.071 127.656 203.998 127.698 203.928 127.746C203.924 127.746 203.921 127.752 203.918 127.752C203.912 127.752 203.912 127.755 203.905 127.758C203.889 127.768 203.874 127.777 203.851 127.787C203.861 127.781 203.867 127.774 203.874 127.771C203.788 127.816 203.743 127.835 203.727 127.847C203.737 127.844 203.753 127.835 203.768 127.828C203.66 127.895 203.549 127.968 203.434 128.032C202.798 128.395 202.148 128.736 201.493 129.063C198.819 130.397 196.03 131.514 193.458 133.049C192.096 133.86 190.785 134.752 189.639 135.853C188.388 137.053 187.385 138.387 186.573 139.921C185.058 142.783 184.501 146.173 184.966 149.372C185.943 156.11 191.762 161.649 198.535 162.304C201.649 162.604 204.918 161.938 207.639 160.395C209.167 159.529 210.472 158.472 211.65 157.173C212.891 155.805 213.894 154.251 214.983 152.768C215.266 152.386 215.555 152.004 215.858 151.632C215.982 151.479 216.109 151.326 216.24 151.176C216.319 151.087 216.396 150.995 216.475 150.909C216.517 150.861 216.558 150.817 216.6 150.772C216.663 150.737 216.991 150.381 217.013 150.358C217.188 150.193 217.363 150.037 217.548 149.884C217.863 149.62 218.194 149.372 218.541 149.146C218.598 149.107 218.723 149.053 218.777 148.999C218.92 148.92 219.066 148.84 219.213 148.764C219.563 148.585 219.923 148.426 220.286 148.289C220.47 148.222 220.655 148.156 220.839 148.098C220.874 148.086 220.986 148.031 221.008 148.022C220.999 148.028 220.973 148.041 220.929 148.066C220.722 148.181 220.96 148.06 221.021 148.044C221.4 147.945 221.785 147.866 222.173 147.809C222.542 147.755 222.912 147.726 223.281 147.7H223.29C223.37 147.7 223.446 147.7 223.529 147.7C223.758 147.7 223.987 147.713 224.213 147.732C224.573 147.758 224.926 147.805 225.28 147.872C225.363 147.888 225.439 147.901 225.519 147.917C225.525 147.917 225.531 147.92 225.538 147.92C225.582 147.93 225.633 147.93 225.665 147.933C225.665 147.933 225.665 147.933 225.668 147.933C225.862 147.971 226.088 148.073 226.254 148.13C226.636 148.257 227.008 148.404 227.377 148.573C227.476 148.617 227.575 148.665 227.673 148.713C227.686 148.719 227.763 148.754 227.817 148.779C227.807 148.776 227.794 148.77 227.782 148.764C227.54 148.659 227.858 148.805 227.887 148.824C228.014 148.897 228.141 148.974 228.262 149.05C228.603 149.263 228.931 149.496 229.246 149.744C229.418 149.881 229.583 150.021 229.752 150.167C229.758 150.17 229.79 150.199 229.825 150.228C229.765 148.834 229.59 147.446 229.3 146.077L229.316 146.087ZM187.917 147.532C187.917 147.506 187.917 147.481 187.917 147.455C187.917 147.506 187.92 147.595 187.917 147.627C187.917 147.618 187.917 147.586 187.917 147.532Z" fill="#F3F0F0" style="fill:#F3F0F0;fill:color(display-p3 0.9529 0.9412 0.9412);fill-opacity:1;"/>
<path d="M206.399 168.625C205.456 167.941 204.387 169.405 205.332 170.092C206.274 170.777 207.344 169.313 206.399 168.625Z" fill="#FFA469" style="fill:#FFA469;fill:color(display-p3 1.0000 0.6431 0.4118);fill-opacity:1;"/>
<g style="mix-blend-mode:soft-light">
<path d="M208.142 145.96C207.515 147.822 203.8 148.249 199.847 146.918C195.893 145.584 193.194 142.997 193.821 141.135C194.448 139.272 198.163 138.846 202.116 140.176C206.069 141.51 208.769 144.098 208.142 145.96Z" fill="#F3F0F0" style="fill:#F3F0F0;fill:color(display-p3 0.9529 0.9412 0.9412);fill-opacity:1;"/>
<path d="M222.339 167.712C224.68 165.274 225.648 162.404 224.501 161.302C223.353 160.2 220.525 161.283 218.183 163.722C215.842 166.16 214.874 169.03 216.021 170.132C217.169 171.234 219.997 170.151 222.339 167.712Z" fill="#F3F0F0" style="fill:#F3F0F0;fill:color(display-p3 0.9529 0.9412 0.9412);fill-opacity:1;"/>
</g>
<path d="M163.654 29.0059H98.7095C93.9436 29.0059 90.0801 32.8694 90.0801 37.6352V168.467C90.0801 173.233 93.9436 177.096 98.7095 177.096H163.654C168.42 177.096 172.283 173.233 172.283 168.467V37.6352C172.283 32.8694 168.42 29.0059 163.654 29.0059Z" fill="#65666D" style="fill:#65666D;fill:color(display-p3 0.3961 0.4000 0.4275);fill-opacity:1;"/>
<path d="M168.184 37.6343V162.523C168.184 165.025 166.153 167.056 163.651 167.056H98.7062C96.2043 167.056 94.1735 165.025 94.1735 162.523L94.1735 37.6343C94.1735 35.1324 96.2043 33.1016 98.7062 33.1016L163.651 33.1016C166.153 33.1016 168.184 35.1324 168.184 37.6343Z" fill="#F3F0F0" style="fill:#F3F0F0;fill:color(display-p3 0.9529 0.9412 0.9412);fill-opacity:1;"/>
<path d="M166.298 75.1602H97.082V116.649H166.298V75.1602Z" fill="#FFA469" style="fill:#FFA469;fill:color(display-p3 1.0000 0.6431 0.4118);fill-opacity:1;"/>
<path d="M164.945 115.293V76.5137H98.4377V115.293H164.945Z" stroke="#F3F0F0" style="stroke:#F3F0F0;stroke:color(display-p3 0.9529 0.9412 0.9412);stroke-opacity:1;" stroke-width="0.270563" stroke-miterlimit="10"/>
<path d="M131.691 76.5137V115.293" stroke="#F3F0F0" style="stroke:#F3F0F0;stroke:color(display-p3 0.9529 0.9412 0.9412);stroke-opacity:1;" stroke-width="0.270563" stroke-miterlimit="10"/>
<path d="M139.962 97.8484C141.041 93.2767 138.21 88.6959 133.638 87.6169C129.067 86.5379 124.486 89.3693 123.407 93.941C122.328 98.5127 125.159 103.093 129.731 104.172C134.303 105.252 138.883 102.42 139.962 97.8484Z" stroke="#F3F0F0" style="stroke:#F3F0F0;stroke:color(display-p3 0.9529 0.9412 0.9412);stroke-opacity:1;" stroke-width="0.270563" stroke-miterlimit="10"/>
<path d="M164.946 85.0684H151.848V106.742H164.946V85.0684Z" stroke="#F3F0F0" style="stroke:#F3F0F0;stroke:color(display-p3 0.9529 0.9412 0.9412);stroke-opacity:1;" stroke-width="0.270563" stroke-miterlimit="10"/>
<path d="M164.945 88.2734H155.721V103.54H164.945V88.2734Z" stroke="#F3F0F0" style="stroke:#F3F0F0;stroke:color(display-p3 0.9529 0.9412 0.9412);stroke-opacity:1;" stroke-width="0.270563" stroke-miterlimit="10"/>
<path d="M98.4348 106.742H111.533V85.0685H98.4348V106.742Z" stroke="#F3F0F0" style="stroke:#F3F0F0;stroke:color(display-p3 0.9529 0.9412 0.9412);stroke-opacity:1;" stroke-width="0.270563" stroke-miterlimit="10"/>
<path d="M98.4375 103.537H107.662V88.271H98.4375V103.537Z" stroke="#F3F0F0" style="stroke:#F3F0F0;stroke:color(display-p3 0.9529 0.9412 0.9412);stroke-opacity:1;" stroke-width="0.270563" stroke-miterlimit="10"/>
<path d="M122.22 49.4141H110.144C109.405 49.4141 108.807 50.0126 108.807 50.751V69.6522C108.807 70.3905 109.405 70.9891 110.144 70.9891H122.22C122.959 70.9891 123.557 70.3905 123.557 69.6522V50.751C123.557 50.0126 122.959 49.4141 122.22 49.4141Z" fill="#FBD97E" style="fill:#FBD97E;fill:color(display-p3 0.9843 0.8510 0.4941);fill-opacity:1;"/>
<path d="M112.441 66.1032L115.615 61.2235C116.035 60.5806 116.373 60.0362 116.627 59.5938C116.882 59.1513 117.07 58.763 117.184 58.4288C117.299 58.0946 117.356 57.7667 117.356 57.4452C117.356 56.9518 117.216 56.5635 116.939 56.2802C116.659 56.0001 116.271 55.8568 115.771 55.8568C115.166 55.8568 114.625 56.0064 114.144 56.3057C113.664 56.6049 113.234 56.9455 112.855 57.3243L112.578 55.0993C113.094 54.6855 113.645 54.364 114.23 54.1348C114.813 53.9056 115.475 53.791 116.217 53.791C116.958 53.791 117.553 53.9406 118.04 54.2398C118.527 54.539 118.89 54.9337 119.132 55.4303C119.374 55.9269 119.495 56.4648 119.495 57.0505C119.495 57.5057 119.431 57.9609 119.304 58.4161C119.177 58.8744 118.97 59.3773 118.68 59.9344C118.391 60.4882 117.999 61.1376 117.512 61.8793L116.099 64.0342H119.925V66.1032H112.441Z" fill="#46474E" style="fill:#46474E;fill:color(display-p3 0.2745 0.2784 0.3059);fill-opacity:1;"/>
<path d="M153.296 49.4141H141.22C140.481 49.4141 139.883 50.0126 139.883 50.751V69.6522C139.883 70.3905 140.481 70.9891 141.22 70.9891H153.296C154.035 70.9891 154.633 70.3905 154.633 69.6522V50.751C154.633 50.0126 154.035 49.4141 153.296 49.4141Z" fill="#FBD97E" style="fill:#FBD97E;fill:color(display-p3 0.9843 0.8510 0.4941);fill-opacity:1;"/>
<path d="M147.261 66.3425C146.243 66.3425 145.354 66.0751 144.594 65.5435C143.833 65.0119 143.238 64.2671 142.814 63.309C142.388 62.3509 142.178 61.2368 142.178 59.9604C142.178 58.6839 142.391 57.6685 142.814 56.7391C143.241 55.8096 143.833 55.087 144.594 54.565C145.354 54.0462 146.246 53.7852 147.261 53.7852C148.277 53.7852 149.177 54.0462 149.938 54.5682C150.699 55.0902 151.291 55.816 151.714 56.7454C152.138 57.6749 152.348 58.7444 152.348 59.9572C152.348 61.2336 152.138 62.3509 151.714 63.3058C151.291 64.2639 150.699 65.0088 149.938 65.5403C149.177 66.0719 148.283 66.3393 147.261 66.3393V66.3425ZM147.261 64.3594C147.809 64.3594 148.296 64.2098 148.732 63.9106C149.165 63.6114 149.508 63.1403 149.763 62.4909C150.015 61.8448 150.142 61.0012 150.142 59.9604C150.142 58.528 149.868 57.468 149.317 56.7741C148.77 56.0802 148.082 55.7364 147.261 55.7364C146.44 55.7364 145.762 56.0802 145.208 56.7677C144.657 57.4553 144.38 58.5184 144.38 59.9604C144.38 60.9885 144.508 61.8257 144.759 62.475C145.011 63.1212 145.354 63.5986 145.791 63.901C146.223 64.2066 146.714 64.3594 147.261 64.3594Z" fill="#46474E" style="fill:#46474E;fill:color(display-p3 0.2745 0.2784 0.3059);fill-opacity:1;"/>
<path d="M133.166 56.4688H130.215V59.4195H133.166V56.4688Z" fill="#F3F0F0" style="fill:#F3F0F0;fill:color(display-p3 0.9529 0.9412 0.9412);fill-opacity:1;"/>
<path d="M133.166 62.8379H130.215V65.7886H133.166V62.8379Z" fill="#F3F0F0" style="fill:#F3F0F0;fill:color(display-p3 0.9529 0.9412 0.9412);fill-opacity:1;"/>
<path d="M154.753 124.367H108.63C108.324 124.367 108.076 124.615 108.076 124.921C108.076 125.227 108.324 125.475 108.63 125.475H154.753C155.059 125.475 155.307 125.227 155.307 124.921C155.307 124.615 155.059 124.367 154.753 124.367Z" fill="#FBD97E" style="fill:#FBD97E;fill:color(display-p3 0.9843 0.8510 0.4941);fill-opacity:1;"/>
<path d="M162.782 130.033H100.601C100.295 130.033 100.047 130.281 100.047 130.587C100.047 130.893 100.295 131.141 100.601 131.141H162.782C163.088 131.141 163.336 130.893 163.336 130.587C163.336 130.281 163.088 130.033 162.782 130.033Z" fill="#FBD97E" style="fill:#FBD97E;fill:color(display-p3 0.9843 0.8510 0.4941);fill-opacity:1;"/>
<path d="M162.782 135.705H100.601C100.295 135.705 100.047 135.953 100.047 136.259C100.047 136.565 100.295 136.813 100.601 136.813H162.782C163.088 136.813 163.336 136.565 163.336 136.259C163.336 135.953 163.088 135.705 162.782 135.705Z" fill="#FBD97E" style="fill:#FBD97E;fill:color(display-p3 0.9843 0.8510 0.4941);fill-opacity:1;"/>
<path d="M142.563 141.16H120.825C120.011 141.16 119.352 141.82 119.352 142.634V147.523C119.352 148.337 120.011 148.997 120.825 148.997H142.563C143.377 148.997 144.036 148.337 144.036 147.523V142.634C144.036 141.82 143.377 141.16 142.563 141.16Z" fill="#FFA469" style="fill:#FFA469;fill:color(display-p3 1.0000 0.6431 0.4118);fill-opacity:1;"/>
<path d="M103.262 42.8202L96.0169 42.3459L95.8896 39.5129C95.8291 38.176 94.8233 37.0715 93.4959 36.8901L84.6214 35.6773V34.0125C84.6214 32.5451 83.4787 31.3324 82.0145 31.2432L72.2137 30.6544L70.7973 3.54396C70.7272 2.22935 69.7341 1.15028 68.429 0.975208C65.7648 0.618701 61.2066 0.201716 57.3551 0.806504C56.0341 1.0134 55.0664 2.16887 55.0664 3.50577V85.5182H100.941V76.8124L106.171 65.0923V45.9173C106.171 44.2812 104.901 42.9252 103.268 42.8202H103.262Z" fill="#FFA469" style="fill:#FFA469;fill:color(display-p3 1.0000 0.6431 0.4118);fill-opacity:1;"/>
<path d="M99.9726 42.8202L92.7279 42.3459L92.6005 39.5129C92.54 38.176 91.5342 37.0715 90.2068 36.8901L81.3324 35.6773V34.0125C81.3324 32.5451 80.1896 31.3324 78.7254 31.2432L68.9247 30.6544L67.5082 3.54396C67.4382 2.22935 66.445 1.15028 65.14 0.975208C62.4757 0.618701 57.9175 0.201716 54.066 0.806504C52.745 1.0134 51.7773 2.16887 51.7773 3.50577V85.5182H97.6521V76.8124L102.882 65.0923V45.9173C102.882 44.2812 101.612 42.9252 99.9789 42.8202H99.9726Z" fill="#FFA469" style="fill:#FFA469;fill:color(display-p3 1.0000 0.6431 0.4118);fill-opacity:1;"/>
<path d="M54.502 82.7919V3.5074C55.6383 3.32278 56.9784 3.23047 58.4649 3.23047C60.8904 3.23047 63.2332 3.47557 64.7738 3.67928L66.324 33.2311L77.0987 33.8773C77.9454 33.9282 78.6043 34.6285 78.6043 35.4752V38.0535L89.2868 39.5146C89.7579 39.5782 90.1112 39.9825 90.1112 40.4599V44.9067L98.9157 45.4829C99.6096 45.5274 100.148 46.1036 100.148 46.7975V63.6838C100.148 64.2249 100.033 64.7597 99.8133 65.2562L94.9177 76.2284V82.7855H54.5051L54.502 82.7919Z" stroke="#F3F0F0" style="stroke:#F3F0F0;stroke:color(display-p3 0.9529 0.9412 0.9412);stroke-opacity:1;" stroke-width="0.547492" stroke-linecap="round" stroke-linejoin="round"/>
<path d="M54.502 48.0829L75.8573 43.652C76.6276 43.4928 77.3566 44.0563 77.3948 44.8425L77.7258 51.597C77.7576 52.2718 77.3152 52.8798 76.6627 53.0517L67.9951 55.3403C78.407 61.1272 78.824 72.2807 78.824 72.2807" stroke="#F3F0F0" style="stroke:#F3F0F0;stroke:color(display-p3 0.9529 0.9412 0.9412);stroke-opacity:1;" stroke-width="0.547492" stroke-linecap="round" stroke-linejoin="round"/>
<path d="M66.2637 35.1523L66.6616 45.5547" stroke="#F3F0F0" style="stroke:#F3F0F0;stroke:color(display-p3 0.9529 0.9412 0.9412);stroke-opacity:1;" stroke-width="0.547492" stroke-linecap="round" stroke-linejoin="round"/>
<path d="M78.6018 38.0527L78.8214 54.0764H72.748" stroke="#F3F0F0" style="stroke:#F3F0F0;stroke:color(display-p3 0.9529 0.9412 0.9412);stroke-opacity:1;" stroke-width="0.547492" stroke-linecap="round" stroke-linejoin="round"/>
<path d="M90.1076 44.9141V55.7557H80.4946C79.5715 55.7557 78.8203 55.0077 78.8203 54.0814" stroke="#F3F0F0" style="stroke:#F3F0F0;stroke:color(display-p3 0.9529 0.9412 0.9412);stroke-opacity:1;" stroke-width="0.547492" stroke-linecap="round" stroke-linejoin="round"/>
<path d="M90.1074 55.7539V56.5178C90.1074 57.4823 90.8905 58.2654 91.8549 58.2654H98.6222" stroke="#F3F0F0" style="stroke:#F3F0F0;stroke:color(display-p3 0.9529 0.9412 0.9412);stroke-opacity:1;" stroke-width="0.547492" stroke-linecap="round" stroke-linejoin="round"/>
<g style="mix-blend-mode:soft-light">
<path d="M74.4784 70.3199C72.5717 72.1152 68.3509 70.7274 65.0532 67.2228C61.7556 63.7182 60.6256 59.421 62.5322 57.6289C64.4389 55.8337 68.6597 57.2215 71.9574 60.7261C75.2551 64.2307 76.3851 68.5278 74.4784 70.3199Z" fill="#F3F0F0" style="fill:#F3F0F0;fill:color(display-p3 0.9529 0.9412 0.9412);fill-opacity:1;"/>
<path d="M58.4534 33.7128C57.1452 33.7128 56.082 30.9053 56.082 27.4452C56.082 23.9852 57.142 21.1777 58.4534 21.1777C59.7649 21.1777 60.8248 23.9852 60.8248 27.4452C60.8248 30.9053 59.7649 33.7128 58.4534 33.7128Z" fill="#F3F0F0" style="fill:#F3F0F0;fill:color(display-p3 0.9529 0.9412 0.9412);fill-opacity:1;"/>
<path d="M67.2778 73.3651C66.4884 74.1068 64.7472 73.5338 63.3817 72.0855C62.0193 70.6372 61.5514 68.861 62.3408 68.1194C63.1302 67.3777 64.8714 67.9507 66.2369 69.399C67.5993 70.8473 68.0672 72.6234 67.2778 73.3651Z" fill="#F3F0F0" style="fill:#F3F0F0;fill:color(display-p3 0.9529 0.9412 0.9412);fill-opacity:1;"/>
</g>
<path d="M196.017 50.5621C195.215 52.1346 194.295 53.5956 193.273 54.9325C191.178 57.6859 188.67 59.9172 185.961 61.5343C183.275 63.1449 180.391 64.1444 177.51 64.45C174.33 64.7937 171.157 64.2876 168.266 62.817L163.982 60.6366L164.323 59.9714C158.144 53.8916 156.88 42.9259 161.849 33.1697C166.815 23.4135 176.425 17.98 184.978 19.3965L185.315 18.7344L189.6 20.9148C192.49 22.3854 194.766 24.6517 196.36 27.421C197.812 29.9325 198.7 32.8578 198.977 35.9772C199.27 39.1635 198.926 42.5535 197.898 45.9116C197.427 47.4777 196.8 49.0342 196.02 50.5621H196.017Z" fill="#FFA469" style="fill:#FFA469;fill:color(display-p3 1.0000 0.6431 0.4118);fill-opacity:1;"/>
<path d="M196.017 50.5599C195.215 52.1323 194.295 53.5933 193.273 54.9302L185.439 50.9418L190.039 41.9082L197.895 45.9062C197.424 47.4723 196.797 49.0288 196.017 50.5567V50.5599Z" fill="#FBD97E" style="fill:#FBD97E;fill:color(display-p3 0.9843 0.8510 0.4941);fill-opacity:1;"/>
<path d="M185.962 61.5357C183.276 63.1464 180.392 64.1459 177.511 64.4515L174.809 62.0323L183.276 58.3145L185.965 61.5357H185.962Z" fill="#FBD97E" style="fill:#FBD97E;fill:color(display-p3 0.9843 0.8510 0.4941);fill-opacity:1;"/>
<path d="M198.973 35.9785L194.787 35.7016L192.811 26.668L196.357 27.4255C197.808 29.937 198.696 32.8623 198.973 35.9817V35.9785Z" fill="#FBD97E" style="fill:#FBD97E;fill:color(display-p3 0.9843 0.8510 0.4941);fill-opacity:1;"/>
<path d="M191.732 48.3813C191.099 49.6228 190.392 50.7941 189.622 51.8891C189.415 52.182 189.205 52.4716 188.988 52.7517C187.311 54.9544 185.369 56.8261 183.275 58.3126C182.431 58.911 181.562 59.4521 180.674 59.9232C179.175 60.7254 177.625 61.3365 176.049 61.7503C175.635 61.8586 175.225 61.9509 174.808 62.0336C172.497 62.4825 170.167 62.4952 167.92 62.0273C167.289 61.8904 166.665 61.7217 166.048 61.5116C165.348 61.2729 164.654 60.9832 163.979 60.6394C163.304 60.2957 162.661 59.9073 162.056 59.4808C161.525 59.1116 161.022 58.7073 160.547 58.2808C158.841 56.7401 157.479 54.8462 156.483 52.7135C156.304 52.3284 156.133 51.9369 155.977 51.5358C155.384 50.0206 154.964 48.4036 154.732 46.723C154.592 45.733 154.516 44.7176 154.5 43.6863C154.471 41.1143 154.84 38.4374 155.636 35.7827C155.735 35.4452 155.846 35.1047 155.961 34.7641C156.394 33.4972 156.922 32.2335 157.555 30.9921C157.769 30.5719 157.991 30.1581 158.224 29.7539C158.832 28.6875 159.497 27.6817 160.21 26.7363C161.884 24.5081 163.829 22.6174 165.936 21.1118C166.309 20.8412 166.688 20.5897 167.073 20.3447C168.534 19.4152 170.059 18.6703 171.615 18.1197C172.535 17.795 173.464 17.5403 174.397 17.3557C176.737 16.8878 179.102 16.8751 181.378 17.3557C182.005 17.4862 182.625 17.6549 183.237 17.8618C183.937 18.1038 184.628 18.3934 185.302 18.7372C185.977 19.081 186.62 19.4693 187.228 19.8927C187.76 20.2683 188.266 20.6725 188.743 21.1086C190.472 22.6651 191.844 24.5813 192.843 26.7554C193.244 27.6148 193.585 28.5125 193.859 29.4419C194.33 31.0239 194.622 32.6951 194.731 34.4235C194.763 34.8787 194.775 35.3434 194.778 35.8018C194.801 38.3864 194.416 41.0666 193.601 43.734C193.26 44.8672 192.834 45.9972 192.331 47.1177C192.143 47.5442 191.939 47.9644 191.723 48.3877L191.732 48.3813Z" fill="#FFA469" style="fill:#FFA469;fill:color(display-p3 1.0000 0.6431 0.4118);fill-opacity:1;"/>
<path d="M191.733 48.3777C191.099 49.6191 190.393 50.7905 189.622 51.8855C189.415 52.1783 189.205 52.468 188.989 52.7481L181.213 48.7915L183.275 58.3089C182.432 58.9074 181.563 59.4485 180.675 59.9196C179.175 60.7217 177.625 61.3329 176.05 61.7467C175.636 61.8549 175.225 61.9472 174.808 62.03L172.752 52.5284L167.92 62.0204C167.29 61.8836 166.666 61.7148 166.048 61.5048C165.348 61.266 164.654 60.9764 163.979 60.6326C163.304 60.2888 162.661 59.9005 162.057 59.474C161.525 59.1047 161.022 58.7005 160.548 58.2739L165.383 48.7756L156.483 52.7067C156.305 52.3215 156.133 51.93 155.977 51.5289C155.385 50.0138 154.965 48.3968 154.732 46.7161C154.592 45.7262 154.516 44.7108 154.5 43.6794L163.425 39.7388L155.636 35.7758C155.735 35.4384 155.846 35.0978 155.961 34.7572C156.394 33.4904 156.922 32.2267 157.556 30.9853C157.769 30.5651 157.992 30.1513 158.224 29.747C158.832 28.6807 159.497 27.6748 160.21 26.7295L168.019 30.7051L165.937 21.1049C166.309 20.8344 166.688 20.5829 167.073 20.3378C168.534 19.4083 170.059 18.6635 171.615 18.1128C172.535 17.7882 173.465 17.5335 174.398 17.3489L176.482 26.9682L181.381 17.3457C182.008 17.4762 182.629 17.6449 183.24 17.8518C183.94 18.0937 184.631 18.3834 185.306 18.7272C185.981 19.0709 186.624 19.4593 187.232 19.8826C187.763 20.2582 188.269 20.6625 188.747 21.0986L183.851 30.7147L192.847 26.7422C193.248 27.6016 193.588 28.4993 193.862 29.4287C194.333 31.0107 194.626 32.6819 194.734 34.4103C194.766 34.8655 194.779 35.3302 194.782 35.7886L185.809 39.7515L193.604 43.7208C193.264 44.854 192.837 45.984 192.334 47.1045C192.146 47.531 191.943 47.9512 191.726 48.3745L191.733 48.3777Z" fill="#F3F0F0" style="fill:#F3F0F0;fill:color(display-p3 0.9529 0.9412 0.9412);fill-opacity:1;"/>
<path d="M186.814 45.8845C191.007 37.6486 188.962 28.2011 182.247 24.7827C175.533 21.3644 166.691 25.2698 162.498 33.5056C158.305 41.7415 160.35 51.1891 167.064 54.6074C173.779 58.0257 182.621 54.1203 186.814 45.8845Z" fill="#FFA469" style="fill:#FFA469;fill:color(display-p3 1.0000 0.6431 0.4118);fill-opacity:1;"/>
<path d="M167.225 50.9388C167.225 50.9388 167.197 50.9229 167.184 50.9133C166.337 50.2799 165.599 49.4968 164.988 48.5865C164.876 48.421 164.924 48.1631 165.089 48.0103C165.255 47.8576 165.481 47.8671 165.592 48.0294C166.162 48.8825 166.856 49.6178 167.649 50.2099C167.801 50.3244 167.821 50.5727 167.693 50.7669C167.575 50.9451 167.375 51.012 167.225 50.9356V50.9388ZM169.934 52.3139C169.784 52.2375 169.721 52.0369 169.794 51.8364C169.874 51.6168 170.087 51.4863 170.271 51.5436C171.22 51.8332 172.223 51.9574 173.248 51.916C173.445 51.9096 173.585 52.0847 173.56 52.3075C173.534 52.5335 173.353 52.7213 173.155 52.7309C172.06 52.7754 170.991 52.6417 169.979 52.333C169.963 52.3266 169.947 52.3202 169.934 52.3139ZM163.73 45.7281C163.66 45.693 163.603 45.6262 163.577 45.5339C163.25 44.4198 163.078 43.2357 163.059 42.0134C163.059 41.7906 163.215 41.5805 163.415 41.5391C163.616 41.4977 163.778 41.6441 163.781 41.867C163.797 43.0129 163.959 44.1238 164.268 45.1678C164.329 45.3684 164.22 45.6135 164.029 45.7153C163.924 45.7694 163.816 45.7694 163.73 45.7281ZM176.205 52.056C176.119 52.0115 176.055 51.9255 176.039 51.8078C176.007 51.5945 176.141 51.3621 176.338 51.2921C177.363 50.9229 178.357 50.3977 179.292 49.7356C179.474 49.6083 179.687 49.6528 179.773 49.8374C179.859 50.0221 179.779 50.2767 179.601 50.404C178.605 51.1107 177.545 51.6709 176.45 52.0624C176.361 52.0942 176.272 52.0879 176.202 52.0529L176.205 52.056ZM163.635 38.7221C163.501 38.6552 163.434 38.4865 163.479 38.3019C163.772 37.07 164.22 35.8605 164.806 34.705C164.911 34.4981 165.134 34.3994 165.306 34.4854C165.475 34.5713 165.526 34.81 165.42 35.0169C164.87 36.0992 164.453 37.2356 164.176 38.391C164.122 38.6138 163.924 38.7762 163.73 38.7539C163.695 38.7507 163.663 38.7412 163.635 38.7253V38.7221ZM181.918 48.0008C181.89 47.9849 181.864 47.9658 181.839 47.9403C181.705 47.8003 181.718 47.5424 181.868 47.3674C182.638 46.4634 183.306 45.4543 183.857 44.3721L183.882 44.3243C183.987 44.1174 184.21 44.0187 184.382 44.1047C184.551 44.1906 184.605 44.4294 184.497 44.6363L184.471 44.684C183.882 45.8395 183.169 46.9122 182.348 47.8766C182.224 48.0199 182.049 48.0644 181.915 47.9976L181.918 48.0008ZM166.971 32.1394C166.942 32.1235 166.917 32.1044 166.891 32.0821C166.757 31.9421 166.77 31.6842 166.92 31.5092C167.741 30.5415 168.667 29.6884 169.667 28.9754C169.848 28.8481 170.065 28.8927 170.147 29.0773C170.233 29.2619 170.157 29.5166 169.975 29.6439C169.04 30.3123 168.171 31.1113 167.4 32.0185C167.276 32.1617 167.101 32.2063 166.967 32.1394H166.971ZM185.28 41.3736C185.146 41.3067 185.079 41.138 185.124 40.9534C185.398 39.7948 185.528 38.6266 185.509 37.4743C185.506 37.2515 185.665 37.0414 185.865 37C186.066 36.9586 186.232 37.1051 186.235 37.3279C186.254 38.5534 186.117 39.8011 185.821 41.0394C185.767 41.2622 185.569 41.4245 185.375 41.4022C185.34 41.399 185.308 41.3863 185.28 41.3736ZM172.681 28.0714C172.595 28.0269 172.531 27.9409 172.516 27.8232C172.484 27.6099 172.617 27.3775 172.815 27.3075C173.907 26.9128 175.017 26.6868 176.109 26.639C176.307 26.6295 176.447 26.8046 176.421 27.0306C176.396 27.2566 176.214 27.4444 176.017 27.4539C174.992 27.4985 173.951 27.7086 172.926 28.081C172.837 28.1128 172.748 28.1065 172.678 28.0714H172.681ZM185.168 34.3708C185.098 34.3358 185.041 34.2689 185.016 34.1766C184.707 33.1326 184.261 32.1713 183.688 31.3214C183.577 31.1559 183.621 30.898 183.79 30.7452C183.956 30.5924 184.182 30.5988 184.293 30.7643C184.904 31.6715 185.382 32.6965 185.71 33.8106C185.77 34.0111 185.662 34.2562 185.471 34.358C185.366 34.4122 185.258 34.4153 185.172 34.3708H185.168ZM178.949 27.8009C178.799 27.7245 178.735 27.5239 178.809 27.3234C178.888 27.107 179.101 26.9733 179.286 27.0306C180.292 27.3361 181.247 27.8168 182.087 28.4439C182.24 28.5584 182.262 28.8067 182.132 29.0009C182.004 29.1951 181.775 29.2619 181.622 29.1441C180.836 28.5584 179.939 28.1064 178.996 27.82C178.98 27.8168 178.965 27.8072 178.949 27.8009Z" fill="#F3F0F0" style="fill:#F3F0F0;fill:color(display-p3 0.9529 0.9412 0.9412);fill-opacity:1;"/>
<path d="M169.09 36.1109L169.641 39.8828L167.521 43.4065C166.983 44.301 167.4 45.3673 168.285 45.3609L171.77 45.3323L173.798 48.1684C174.31 48.8878 175.421 48.5949 175.825 47.6337L177.427 43.8458L180.801 42.0728C181.657 41.624 181.924 40.3762 181.291 39.7873L178.795 37.4764L178.853 33.5453C178.869 32.549 177.923 32.0683 177.127 32.6667L173.982 35.0254L170.643 34.3697C169.797 34.2042 168.947 35.1559 169.087 36.1109H169.09Z" fill="#F3F0F0" style="fill:#F3F0F0;fill:color(display-p3 0.9529 0.9412 0.9412);fill-opacity:1;"/>
<g style="mix-blend-mode:soft-light">
<path d="M174.884 33.15C178.303 31.5035 180.285 28.5277 179.311 26.5034C178.336 24.4791 174.774 24.1729 171.354 25.8195C167.934 27.466 165.952 30.4418 166.927 32.466C167.902 34.4903 171.464 34.7965 174.884 33.15Z" fill="#F3F0F0" style="fill:#F3F0F0;fill:color(display-p3 0.9529 0.9412 0.9412);fill-opacity:1;"/>
<path d="M175.538 38.6991C175.776 37.1793 174.247 35.6784 172.125 35.3468C170.002 35.0152 168.089 35.9784 167.852 37.4982C167.614 39.018 169.142 40.5188 171.265 40.8504C173.387 41.1821 175.301 40.2189 175.538 38.6991Z" fill="#F3F0F0" style="fill:#F3F0F0;fill:color(display-p3 0.9529 0.9412 0.9412);fill-opacity:1;"/>
<path d="M182.728 47.7011C183.247 48.9711 181.999 51.0879 179.946 52.428C177.893 53.768 175.808 53.8222 175.289 52.5521C174.771 51.2821 176.018 49.1653 178.071 47.8252C180.125 46.4851 182.209 46.431 182.728 47.7011Z" fill="#F3F0F0" style="fill:#F3F0F0;fill:color(display-p3 0.9529 0.9412 0.9412);fill-opacity:1;"/>
</g>
<path d="M34.9559 84.4621C35.8726 85.7608 36.6524 87.104 37.2986 88.4728C38.6323 91.2803 39.3963 94.1864 39.6032 96.978C39.8133 99.7505 39.4695 102.418 38.5846 104.78C37.6137 107.39 35.984 109.628 33.7081 111.232L30.3372 113.61L29.9489 113.059C22.7996 115.22 13.7533 111.467 8.07463 103.414C2.39599 95.361 1.90261 85.5793 6.33666 79.5697L5.95151 79.0222L9.3224 76.6444C11.5983 75.0401 14.2498 74.2571 17.0319 74.2189C19.5561 74.1775 22.1853 74.7536 24.7254 75.8836C27.326 77.0327 29.8374 78.758 32.0561 81.0052C33.0937 82.0461 34.0646 83.2016 34.9527 84.4653L34.9559 84.4621Z" fill="#FFA469" style="fill:#FFA469;fill:color(display-p3 1.0000 0.6431 0.4118);fill-opacity:1;"/>
<path d="M34.9551 84.462C35.8719 85.7607 36.6517 87.1039 37.2979 88.4727L31.1354 92.8176L25.877 85.3596L32.0553 81.002C33.093 82.0428 34.0639 83.1983 34.952 84.462H34.9551Z" fill="#FBD97E" style="fill:#FBD97E;fill:color(display-p3 0.9843 0.8510 0.4941);fill-opacity:1;"/>
<path d="M39.6004 96.9805C39.8105 99.7529 39.4667 102.42 38.5818 104.782L35.6406 105.833L36.0385 97.6744L39.6004 96.9836V96.9805Z" fill="#FBD97E" style="fill:#FBD97E;fill:color(display-p3 0.9843 0.8510 0.4941);fill-opacity:1;"/>
<path d="M24.7283 75.8836L22.8821 79.0062L15.0645 76.638L17.0348 74.2189C19.559 74.1775 22.1882 74.7536 24.7283 75.8836Z" fill="#FBD97E" style="fill:#FBD97E;fill:color(display-p3 0.9843 0.8510 0.4941);fill-opacity:1;"/>
<path d="M31.5832 86.8432C32.3058 87.8682 32.9424 88.9218 33.4994 89.9913C33.6459 90.2778 33.7923 90.5675 33.926 90.8539C34.9923 93.1044 35.6926 95.4121 36.0396 97.6753C36.1796 98.5857 36.2624 99.4929 36.2815 100.384C36.3229 101.89 36.1955 103.354 35.9059 104.751C35.8295 105.117 35.7403 105.477 35.6417 105.834C35.091 107.817 34.1934 109.625 32.952 111.162C32.6018 111.592 32.223 112.002 31.822 112.388C31.3636 112.827 30.867 113.237 30.3355 113.613C29.8039 113.989 29.2532 114.317 28.6834 114.603C28.1869 114.854 27.6776 115.071 27.1619 115.252C25.2966 115.908 23.2881 116.147 21.235 115.997C20.8657 115.969 20.4933 115.934 20.1209 115.883C18.7076 115.688 17.2848 115.316 15.881 114.769C15.0534 114.45 14.2322 114.071 13.4205 113.639C11.4024 112.55 9.45754 111.111 7.69728 109.348C7.47128 109.125 7.24847 108.893 7.02883 108.657C6.2076 107.775 5.43092 106.82 4.70836 105.795C4.46326 105.448 4.22771 105.098 4.00171 104.745C3.40647 103.815 2.87808 102.867 2.4229 101.906C1.33746 99.6488 0.618082 97.3252 0.264759 95.0461C0.201097 94.6418 0.150168 94.2376 0.108787 93.8365C-0.0471843 92.3054 -0.0344519 90.803 0.140618 89.3611C0.24566 88.5112 0.407998 87.6804 0.627632 86.8783C1.17512 84.8634 2.08549 83.0267 3.34599 81.4734C3.68977 81.0436 4.06537 80.6362 4.46644 80.2511C4.92799 79.815 5.42455 79.4043 5.95613 79.0287C6.48771 78.6531 7.03838 78.3253 7.60497 78.0356C8.10472 77.7842 8.6172 77.5677 9.14241 77.3895C11.03 76.7242 13.0608 76.4886 15.1425 76.651C15.9701 76.7114 16.8009 76.8356 17.6349 77.0234C19.0514 77.3417 20.4679 77.8351 21.8621 78.494C22.2313 78.6659 22.5973 78.8537 22.957 79.051C24.9815 80.1492 26.9264 81.6039 28.6866 83.3832C29.4378 84.1376 30.154 84.9525 30.832 85.8246C31.0898 86.1557 31.3413 86.4931 31.5864 86.8432H31.5832Z" fill="#FFA469" style="fill:#FFA469;fill:color(display-p3 1.0000 0.6431 0.4118);fill-opacity:1;"/>
<path d="M31.5859 86.8375C32.3085 87.8625 32.9451 88.9161 33.5021 89.9856C33.6485 90.2721 33.795 90.5617 33.9287 90.8482L27.8139 95.1613L36.0422 97.6728C36.1823 98.5831 36.265 99.4903 36.2841 100.382C36.3255 101.887 36.1982 103.351 35.9085 104.749C35.8321 105.115 35.743 105.475 35.6443 105.831L27.432 103.323L32.9578 111.16C32.6077 111.589 32.2289 112 31.8278 112.385C31.3694 112.824 30.8729 113.235 30.3413 113.611C29.8097 113.986 29.2591 114.314 28.6893 114.6C28.1927 114.852 27.6834 115.068 27.1678 115.25L21.6419 107.41L21.2408 115.995C20.8716 115.966 20.4992 115.931 20.1268 115.88C18.7135 115.686 17.2906 115.313 15.8869 114.766C15.0593 114.448 14.238 114.069 13.4263 113.636L13.8274 105.029L7.70314 109.348C7.47714 109.126 7.25433 108.893 7.03469 108.658C6.21345 107.776 5.43678 106.821 4.71422 105.796C4.46912 105.449 4.23357 105.099 4.00757 104.746C3.41233 103.816 2.88394 102.868 2.42876 101.906L8.57213 97.5741L0.270618 95.0435C0.206956 94.6393 0.156027 94.235 0.114647 93.834C-0.0413249 92.3029 -0.0285925 90.8005 0.146478 89.3585C0.25152 88.5086 0.413858 87.6779 0.633491 86.8757L8.95092 89.4126L3.35185 81.4708C3.69563 81.0411 4.07123 80.6337 4.4723 80.2485C4.93385 79.8124 5.43041 79.4018 5.96199 79.0262C6.49357 78.6506 7.04424 78.3227 7.61083 78.0331C8.11058 77.7816 8.62306 77.5652 9.14827 77.3869L14.7441 85.3256L15.1484 76.6484C15.976 76.7089 16.8068 76.8331 17.6408 77.0209C19.0572 77.3392 20.4737 77.8326 21.8679 78.4915C22.2371 78.6633 22.6032 78.8511 22.9629 79.0485L22.5586 87.7065L28.6925 83.3839C29.4437 84.1383 30.1599 84.9531 30.8379 85.8253C31.0957 86.1563 31.3472 86.4937 31.5923 86.8439L31.5859 86.8375Z" fill="#F3F0F0" style="fill:#F3F0F0;fill:color(display-p3 0.9529 0.9412 0.9412);fill-opacity:1;"/>
<path d="M26.8323 108.615C32.1151 104.89 32.5121 96.3601 27.7191 89.5631C22.9261 82.7661 14.7581 80.2759 9.47539 84.0011C4.19266 87.7262 3.79564 96.2562 8.58863 103.053C13.3816 109.85 21.5496 112.34 26.8323 108.615Z" fill="#FFA469" style="fill:#FFA469;fill:color(display-p3 1.0000 0.6431 0.4118);fill-opacity:1;"/>
<path d="M24.0339 106.909C24.0339 106.909 24.0116 106.925 23.9988 106.931C23.1744 107.313 22.2768 107.549 21.3282 107.628C21.1563 107.641 20.9717 107.495 20.9176 107.3C20.8635 107.106 20.9558 106.934 21.1277 106.922C22.0158 106.848 22.8593 106.629 23.6296 106.269C23.7792 106.199 23.9797 106.291 24.0816 106.476C24.1739 106.645 24.1484 106.829 24.0307 106.912L24.0339 106.909ZM26.1602 105.403C26.0424 105.486 25.8609 105.448 25.7336 105.305C25.5936 105.149 25.5745 104.926 25.6891 104.808C26.2843 104.2 26.7713 103.477 27.1406 102.666C27.2106 102.51 27.4016 102.478 27.5671 102.593C27.7326 102.71 27.809 102.93 27.739 103.089C27.3475 103.955 26.8286 104.725 26.192 105.375C26.1824 105.384 26.1697 105.394 26.1602 105.403ZM18.6067 107.364C18.5494 107.402 18.4762 107.418 18.3966 107.399C17.4003 107.17 16.4072 106.794 15.449 106.282C15.274 106.189 15.1721 105.973 15.2167 105.801C15.2644 105.629 15.4427 105.566 15.6146 105.658C16.5154 106.139 17.4448 106.492 18.3807 106.705C18.5621 106.746 18.7085 106.934 18.7149 107.125C18.7149 107.23 18.6767 107.313 18.6067 107.361V107.364ZM28.4011 100.438C28.3342 100.485 28.2419 100.495 28.1432 100.46C27.965 100.393 27.8377 100.189 27.8567 100.005C27.9682 99.0529 27.9459 98.0566 27.7931 97.0476C27.7644 96.8534 27.8854 96.707 28.0605 96.7197C28.2387 96.7325 28.4074 96.9043 28.4361 97.0985C28.5984 98.1776 28.6239 99.2376 28.5029 100.253C28.4934 100.336 28.4552 100.403 28.3979 100.441L28.4011 100.438ZM13.1031 104.416C12.9981 104.49 12.8421 104.471 12.7148 104.356C11.8681 103.595 11.0978 102.729 10.4261 101.778C10.3052 101.606 10.3147 101.389 10.4484 101.297C10.5821 101.205 10.7858 101.265 10.91 101.437C11.5402 102.328 12.2628 103.143 13.0554 103.856C13.2082 103.993 13.2591 104.219 13.1636 104.356C13.1477 104.381 13.1254 104.401 13.1031 104.416ZM27.462 94.2624C27.4398 94.2783 27.4143 94.291 27.3857 94.2974C27.2233 94.3388 27.0291 94.2178 26.9496 94.0268C26.5453 93.0401 26.0201 92.0883 25.3899 91.1939L25.3612 91.1557C25.2402 90.9838 25.2498 90.7673 25.3835 90.675C25.5172 90.5795 25.7241 90.6432 25.845 90.8151L25.8737 90.8533C26.5453 91.805 27.1055 92.8236 27.5384 93.874C27.6021 94.03 27.5703 94.186 27.4652 94.2592L27.462 94.2624ZM9.26748 98.9925C9.2452 99.0084 9.21973 99.0211 9.19109 99.0275C9.02875 99.0689 8.83458 98.9479 8.755 98.7569C8.31892 97.7033 8.01334 96.6179 7.84782 95.5388C7.81917 95.3446 7.93695 95.195 8.1152 95.2109C8.29345 95.2237 8.46216 95.3924 8.49081 95.5897C8.64678 96.602 8.93326 97.6174 9.34069 98.6073C9.40435 98.7633 9.37252 98.9192 9.26748 98.9956V98.9925ZM23.601 88.8034C23.4959 88.8766 23.3399 88.8575 23.2126 88.7429C22.4168 88.0299 21.5542 87.4251 20.6502 86.9444C20.4752 86.8521 20.3733 86.6357 20.4179 86.4638C20.4624 86.2919 20.6407 86.2283 20.8157 86.3206C21.7802 86.833 22.7001 87.4792 23.55 88.24C23.7028 88.3768 23.7537 88.6028 23.6614 88.7397C23.6455 88.7652 23.6232 88.7843 23.601 88.8002V88.8034ZM8.31574 92.8173C8.24889 92.865 8.15658 92.8746 8.05791 92.8395C7.87965 92.7727 7.75233 92.569 7.77143 92.3844C7.8892 91.3689 8.14385 90.4108 8.53219 89.545C8.60221 89.3891 8.7932 89.3541 8.95872 89.4718C9.12424 89.5896 9.20064 89.8092 9.13061 89.9684C8.76455 90.7833 8.52582 91.6777 8.4176 92.6326C8.40805 92.7154 8.36985 92.7822 8.31255 92.8204L8.31574 92.8173ZM18.0942 85.8654C18.0369 85.9036 17.9637 85.9195 17.8841 85.9004C16.9483 85.6871 16.0252 85.6203 15.1403 85.6967C14.9684 85.7126 14.7838 85.5662 14.7297 85.3688C14.6756 85.1746 14.7679 85.0028 14.9398 84.99C15.8851 84.9073 16.8719 84.9805 17.8682 85.2065C18.0496 85.2479 18.1992 85.4357 18.2024 85.6266C18.2024 85.7317 18.1642 85.8145 18.0942 85.8622V85.8654ZM10.5471 87.8453C10.4293 87.928 10.2479 87.8898 10.1206 87.7466C9.98049 87.5906 9.9614 87.3678 10.076 87.25C10.7062 86.6039 11.4543 86.0723 12.2691 85.6903C12.4187 85.6203 12.6193 85.7126 12.7211 85.8972C12.823 86.0786 12.788 86.2887 12.6352 86.3556C11.8713 86.7121 11.1678 87.2118 10.5789 87.8166C10.5694 87.8262 10.5566 87.8357 10.5471 87.8453Z" fill="#F3F0F0" style="fill:#F3F0F0;fill:color(display-p3 0.9529 0.9412 0.9412);fill-opacity:1;"/>
<path d="M13.1932 99.073L16.3508 100.273L18.2766 103.434C18.7636 104.236 19.7599 104.373 20.0973 103.685L21.4311 100.976L24.4327 100.63C25.1935 100.54 25.3972 99.5568 24.8083 98.8279L22.4751 95.9536L22.4051 92.5763C22.386 91.72 21.517 90.9752 20.8135 91.2107L18.0379 92.1434L14.9948 90.4022C14.2245 89.9598 13.4829 90.485 13.6389 91.3604L14.2564 94.8108L12.4452 97.1122C11.9868 97.6947 12.3974 98.7642 13.1964 99.0698L13.1932 99.073Z" fill="#F3F0F0" style="fill:#F3F0F0;fill:color(display-p3 0.9529 0.9412 0.9412);fill-opacity:1;"/>
<g style="mix-blend-mode:soft-light">
<path d="M10.3308 87.1561C12.247 87.9041 13.4629 91.1636 13.0459 94.439C12.6321 97.7144 10.7414 99.7611 8.82835 99.0131C6.91212 98.2651 5.69618 95.0056 6.11317 91.7302C6.52697 88.4548 8.41773 86.4081 10.3308 87.1561Z" fill="#F3F0F0" style="fill:#F3F0F0;fill:color(display-p3 0.9529 0.9412 0.9412);fill-opacity:1;"/>
<path d="M17.9411 95.3868C18.9024 96.3927 18.7082 98.3376 17.505 99.7318C16.3018 101.126 14.5479 101.441 13.5835 100.438C12.6222 99.4325 12.8163 97.4877 14.0195 96.0935C15.2227 94.6993 16.9766 94.3842 17.9411 95.3868Z" fill="#F3F0F0" style="fill:#F3F0F0;fill:color(display-p3 0.9529 0.9412 0.9412);fill-opacity:1;"/>
<path d="M27.5483 93.5095C28.7419 93.6559 29.9069 95.5339 30.152 97.7016C30.3971 99.8693 29.6268 101.509 28.4364 101.359C27.2427 101.213 26.0777 99.3345 25.8326 97.1668C25.5875 94.9992 26.3578 93.3599 27.5483 93.5095Z" fill="#F3F0F0" style="fill:#F3F0F0;fill:color(display-p3 0.9529 0.9412 0.9412);fill-opacity:1;"/>
</g>
<path d="M208.64 71.1102C207.936 70.3494 207.309 69.5536 206.762 68.7356C205.635 67.0549 204.842 65.2883 204.406 63.5567C203.967 61.841 203.881 60.1603 204.155 58.6452C204.457 56.9677 205.199 55.4875 206.408 54.3703L208.2 52.7119L208.5 53.0334C212.622 51.3113 218.561 53.1734 222.929 57.8908C227.293 62.6081 228.69 68.6751 226.656 72.654L226.952 72.9755L225.16 74.6338C223.95 75.7511 222.419 76.3782 220.726 76.5501C219.188 76.706 217.52 76.4864 215.843 75.9166C214.127 75.3373 212.402 74.3951 210.798 73.1123C210.05 72.5171 209.327 71.8486 208.643 71.1102H208.64Z" fill="#FFA469" style="fill:#FFA469;fill:color(display-p3 1.0000 0.6431 0.4118);fill-opacity:1;"/>
<path d="M208.64 71.108C207.936 70.3473 207.309 69.5515 206.762 68.7334L210.037 65.7031L214.08 70.0703L210.795 73.1102C210.047 72.5149 209.324 71.8465 208.64 71.108Z" fill="#FBD97E" style="fill:#FBD97E;fill:color(display-p3 0.9843 0.8510 0.4941);fill-opacity:1;"/>
<path d="M204.406 63.5599C203.967 61.8442 203.881 60.1635 204.155 58.6483L205.832 57.8398L206.504 62.9423L204.409 63.5599H204.406Z" fill="#FBD97E" style="fill:#FBD97E;fill:color(display-p3 0.9843 0.8510 0.4941);fill-opacity:1;"/>
<path d="M215.844 75.9173L216.624 73.877L221.659 74.9401L220.727 76.5508C219.189 76.7067 217.521 76.4871 215.844 75.9173Z" fill="#FBD97E" style="fill:#FBD97E;fill:color(display-p3 0.9843 0.8510 0.4941);fill-opacity:1;"/>
<path d="M210.432 69.4539C209.874 68.8523 209.368 68.2316 208.91 67.5949C208.789 67.4231 208.668 67.2512 208.553 67.0793C207.653 65.7328 206.965 64.3323 206.5 62.9413C206.313 62.381 206.163 61.8208 206.048 61.2669C205.854 60.3311 205.768 59.4112 205.791 58.5263C205.797 58.2939 205.81 58.0648 205.829 57.8388C205.943 56.5751 206.287 55.4005 206.873 54.3787C207.038 54.0922 207.223 53.8185 207.427 53.5543C207.659 53.2551 207.914 52.975 208.197 52.714C208.48 52.453 208.779 52.2174 209.095 52.0105C209.368 51.8291 209.655 51.6667 209.951 51.5267C211.017 51.0206 212.214 50.7659 213.484 50.75C213.713 50.75 213.942 50.75 214.178 50.7627C215.063 50.8105 215.973 50.9665 216.89 51.2338C217.431 51.3898 217.975 51.5808 218.517 51.81C219.869 52.3829 221.216 53.1755 222.489 54.1814C222.651 54.3087 222.814 54.4424 222.973 54.5761C223.571 55.0822 224.154 55.636 224.711 56.2377C224.899 56.4414 225.083 56.6483 225.258 56.8552C225.726 57.4027 226.153 57.9661 226.541 58.5422C227.455 59.8918 228.155 61.2988 228.626 62.7025C228.712 62.9508 228.785 63.1991 228.855 63.4474C229.123 64.3927 229.282 65.3286 229.336 66.2358C229.368 66.7705 229.361 67.2989 229.317 67.8082C229.209 69.091 228.858 70.2846 228.263 71.3192C228.101 71.6056 227.919 71.8794 227.716 72.1404C227.483 72.4364 227.226 72.7197 226.945 72.9807C226.662 73.2417 226.363 73.4773 226.048 73.6842C225.771 73.8656 225.481 74.028 225.182 74.168C224.103 74.6805 222.89 74.9351 221.601 74.9415C221.092 74.9479 220.57 74.9129 220.038 74.8397C219.137 74.7155 218.217 74.4831 217.294 74.1457C217.049 74.0566 216.804 73.9611 216.562 73.8561C215.203 73.2799 213.857 72.4746 212.58 71.4592C212.036 71.0295 211.507 70.5584 210.998 70.0523C210.804 69.8613 210.613 69.6608 210.425 69.457L210.432 69.4539Z" fill="#FFA469" style="fill:#FFA469;fill:color(display-p3 1.0000 0.6431 0.4118);fill-opacity:1;"/>
<path d="M210.432 69.4539C209.874 68.8523 209.368 68.2316 208.91 67.5949C208.789 67.4231 208.668 67.2512 208.553 67.0793L211.803 64.0713L206.5 62.9413C206.313 62.381 206.163 61.8208 206.048 61.2669C205.854 60.3311 205.768 59.4112 205.791 58.5263C205.797 58.2939 205.81 58.0648 205.829 57.8388L211.122 58.9688L206.876 54.3787C207.042 54.0922 207.226 53.8185 207.43 53.5543C207.662 53.2551 207.917 52.975 208.2 52.714C208.483 52.453 208.783 52.2174 209.098 52.0105C209.372 51.8291 209.658 51.6667 209.954 51.5267L214.203 56.1199L213.487 50.75C213.716 50.75 213.946 50.75 214.181 50.7627C215.066 50.8105 215.976 50.9665 216.893 51.2338C217.434 51.3898 217.979 51.5808 218.52 51.81L219.236 57.1926L222.492 54.1814C222.655 54.3087 222.817 54.4424 222.976 54.5761C223.574 55.0822 224.157 55.636 224.714 56.2377C224.902 56.4414 225.086 56.6483 225.262 56.8552C225.729 57.4027 226.156 57.9661 226.544 58.5422L223.278 61.563L228.626 62.7025C228.712 62.9508 228.785 63.1991 228.855 63.4474C229.123 64.3927 229.282 65.3286 229.336 66.2358C229.368 66.7705 229.361 67.2989 229.317 67.8082L223.956 66.6655L228.26 71.3192C228.098 71.6056 227.916 71.8794 227.713 72.1404C227.48 72.4364 227.222 72.7197 226.942 72.9807C226.659 73.2417 226.36 73.4773 226.045 73.6842C225.768 73.8656 225.478 74.028 225.179 74.168L220.875 69.5175L221.598 74.9447C221.088 74.9511 220.566 74.9161 220.035 74.8428C219.134 74.7187 218.214 74.4863 217.291 74.1489C217.046 74.0598 216.801 73.9643 216.559 73.8593L215.836 68.4448L212.577 71.4592C212.033 71.0295 211.504 70.5584 210.995 70.0523C210.801 69.8613 210.61 69.6608 210.422 69.457L210.432 69.4539Z" fill="#F3F0F0" style="fill:#F3F0F0;fill:color(display-p3 0.9529 0.9412 0.9412);fill-opacity:1;"/>
<path d="M224.247 70.0453C227.055 67.4472 226.344 62.1131 222.659 58.1312C218.975 54.1494 213.712 53.0276 210.904 55.6258C208.096 58.2239 208.807 63.558 212.492 67.5399C216.177 71.5217 221.44 72.6434 224.247 70.0453Z" fill="#FFA469" style="fill:#FFA469;fill:color(display-p3 1.0000 0.6431 0.4118);fill-opacity:1;"/>
<path d="M212.795 56.552C212.795 56.552 212.808 56.5425 212.814 56.5361C213.276 56.256 213.798 56.0618 214.368 55.9631C214.47 55.944 214.6 56.0268 214.654 56.1446C214.708 56.2623 214.67 56.3738 214.568 56.3929C214.033 56.4852 213.546 56.6666 213.114 56.9308C213.031 56.9817 212.897 56.934 212.814 56.8258C212.738 56.7271 212.735 56.6093 212.795 56.552ZM211.665 57.6024C211.729 57.5451 211.844 57.5579 211.936 57.6406C212.038 57.7297 212.076 57.8666 212.019 57.9462C211.723 58.3568 211.506 58.8311 211.372 59.3563C211.347 59.4582 211.232 59.4868 211.121 59.4232C211.006 59.3595 210.936 59.2258 210.962 59.1239C211.105 58.5637 211.334 58.0576 211.649 57.6183C211.656 57.612 211.659 57.6056 211.665 57.5993V57.6024ZM216.055 55.9822C216.083 55.9536 216.128 55.9409 216.179 55.9504C216.812 56.0395 217.458 56.221 218.105 56.4915C218.222 56.5393 218.308 56.6698 218.299 56.778C218.289 56.8862 218.187 56.9372 218.073 56.8894C217.468 56.638 216.86 56.4661 216.268 56.3833C216.153 56.3674 216.042 56.256 216.017 56.1382C216.004 56.0745 216.017 56.0173 216.055 55.9854V55.9822ZM210.85 60.811C210.885 60.7792 210.943 60.7664 211.006 60.7855C211.124 60.8174 211.223 60.9383 211.232 61.0529C211.271 61.6513 211.395 62.272 211.602 62.8927C211.643 63.0137 211.586 63.1092 211.474 63.1124C211.363 63.1124 211.242 63.0169 211.204 62.8959C210.984 62.2338 210.85 61.5717 210.809 60.9351C210.806 60.8842 210.822 60.8396 210.85 60.8142V60.811ZM219.744 57.5292C219.798 57.4783 219.897 57.4815 219.989 57.5451C220.591 57.9749 221.157 58.4746 221.676 59.0316C221.768 59.1335 221.787 59.2672 221.717 59.334C221.647 59.4009 221.514 59.3722 221.421 59.2704C220.938 58.7483 220.406 58.2772 219.839 57.8762C219.731 57.7966 219.674 57.6597 219.718 57.5706C219.725 57.5547 219.734 57.542 219.747 57.5292H219.744ZM212.114 64.6084C212.114 64.6084 212.14 64.5893 212.155 64.5829C212.251 64.5479 212.381 64.6148 212.451 64.7294C212.808 65.3214 213.238 65.888 213.722 66.4132L213.744 66.4355C213.836 66.5374 213.855 66.6711 213.785 66.7347C213.715 66.8016 213.581 66.7729 213.489 66.6711L213.467 66.6488C212.951 66.0917 212.496 65.487 212.114 64.8535C212.057 64.758 212.06 64.6593 212.114 64.6084ZM222.691 60.7059C222.691 60.7059 222.717 60.6868 222.733 60.6805C222.828 60.6455 222.959 60.7091 223.029 60.8237C223.414 61.4572 223.72 62.1161 223.942 62.7813C223.984 62.9023 223.927 63.001 223.815 63.001C223.704 63.001 223.583 62.9055 223.545 62.7845C223.338 62.1606 223.048 61.5431 222.688 60.951C222.631 60.8556 222.634 60.7569 222.688 60.7059H222.691ZM215.084 67.8074C215.138 67.7565 215.237 67.7597 215.326 67.8233C215.892 68.2244 216.484 68.5586 217.092 68.8101C217.21 68.8578 217.296 68.9884 217.287 69.0966C217.277 69.208 217.175 69.2557 217.061 69.208C216.414 68.9374 215.781 68.5841 215.176 68.1544C215.068 68.078 215.011 67.9411 215.052 67.8488C215.058 67.8329 215.071 67.8202 215.081 67.8074H215.084ZM223.962 64.5034C223.997 64.4715 224.054 64.4588 224.118 64.4747C224.235 64.5066 224.334 64.6275 224.344 64.7421C224.385 65.3819 224.337 65.9899 224.197 66.5501C224.172 66.652 224.057 66.6806 223.946 66.6201C223.831 66.5565 223.761 66.4228 223.786 66.3209C223.917 65.7957 223.965 65.2228 223.923 64.6243C223.92 64.5702 223.936 64.5288 223.965 64.5002L223.962 64.5034ZM218.77 69.348C218.799 69.3194 218.843 69.3067 218.894 69.3162C219.489 69.399 220.059 69.3926 220.594 69.3003C220.696 69.2812 220.826 69.364 220.88 69.4817C220.934 69.5995 220.896 69.7109 220.794 69.73C220.225 69.8319 219.617 69.8351 218.983 69.7491C218.869 69.7332 218.757 69.625 218.732 69.504C218.719 69.4404 218.732 69.3831 218.77 69.3512V69.348ZM223.153 67.7183C223.217 67.661 223.331 67.6737 223.424 67.7565C223.525 67.8456 223.564 67.9825 223.506 68.0621C223.194 68.4982 222.797 68.8706 222.341 69.1475C222.259 69.1984 222.125 69.1507 222.042 69.0425C221.959 68.9342 221.959 68.8037 222.042 68.7528C222.469 68.4918 222.841 68.1417 223.134 67.7342C223.14 67.7279 223.143 67.7215 223.15 67.7151L223.153 67.7183Z" fill="#F3F0F0" style="fill:#F3F0F0;fill:color(display-p3 0.9529 0.9412 0.9412);fill-opacity:1;"/>
<path d="M220.29 60.8661L218.23 60.2836L216.702 58.4151C216.314 57.9409 215.693 57.909 215.563 58.3547L215.05 60.1117L213.258 60.4841C212.803 60.5796 212.79 61.2035 213.229 61.6269L214.974 63.2948L215.394 65.3957C215.499 65.9272 216.113 66.3474 216.518 66.1628L218.106 65.4339L220.159 66.357C220.681 66.5925 221.073 66.2264 220.882 65.6885L220.121 63.5717L220.971 62.0439C221.187 61.6555 220.815 61.0125 220.293 60.8629L220.29 60.8661Z" fill="#F3F0F0" style="fill:#F3F0F0;fill:color(display-p3 0.9529 0.9412 0.9412);fill-opacity:1;"/>
<g style="mix-blend-mode:soft-light">
<path d="M223.365 68.1437C222.114 67.7777 221.007 65.8105 220.892 63.7479C220.781 61.6852 221.704 60.3101 222.955 60.6762C224.206 61.0422 225.313 63.0094 225.428 65.072C225.542 67.1347 224.616 68.5098 223.365 68.1437Z" fill="#F3F0F0" style="fill:#F3F0F0;fill:color(display-p3 0.9529 0.9412 0.9412);fill-opacity:1;"/>
<path d="M217.802 63.4145C217.102 62.8384 217.003 61.6161 217.583 60.6866C218.162 59.754 219.196 59.4643 219.897 60.0405C220.597 60.6166 220.696 61.8389 220.116 62.7684C219.537 63.6978 218.502 63.9875 217.802 63.4145Z" fill="#F3F0F0" style="fill:#F3F0F0;fill:color(display-p3 0.9529 0.9412 0.9412);fill-opacity:1;"/>
<path d="M212.15 65.0874C211.405 65.0588 210.485 63.9511 210.093 62.611C209.702 61.2741 209.988 60.2141 210.733 60.2428C211.478 60.2714 212.398 61.3791 212.789 62.7192C213.181 64.0561 212.894 65.1161 212.15 65.0874Z" fill="#F3F0F0" style="fill:#F3F0F0;fill:color(display-p3 0.9529 0.9412 0.9412);fill-opacity:1;"/>
</g>
</svg>
