<svg width="225" height="199" viewBox="0 0 225 199" fill="none" xmlns="http://www.w3.org/2000/svg">
<path d="M141.143 63.6684C141.143 63.6684 151.357 65.3971 152.18 65.6124C153.003 65.8341 156.239 67.3665 156.403 68.3543C156.568 69.3421 156.403 72.2487 156.403 72.2487C156.403 72.2487 155.821 72.7236 155.454 71.7737C155.086 70.8239 155.143 68.9432 155.143 68.9432L153.332 68.2467L154.32 70.0007L154.485 74.1103C154.485 74.1103 153.218 73.9964 152.978 73.0085C152.731 72.027 152.737 70.9252 152.737 70.9252L151.42 69.8044L152.408 71.1405L152.743 74.104C152.743 74.104 151.781 74.4143 151.477 73.7557C151.173 73.0972 151.148 71.1405 151.148 71.1405L147.424 69.8424L144.961 71.2165L140.357 68.6139L141.155 63.6621L141.143 63.6684Z" fill="#FFBE9D" style="fill:#FFBE9D;fill:color(display-p3 1.0000 0.7451 0.6157);fill-opacity:1;"/>
<path d="M105.386 38.4199C105.43 38.6226 117.696 55.5044 117.696 55.5044L142.328 63.1664L141.207 72.4178L111.015 66.3389L100.301 54.0416L105.386 38.4199Z" fill="#FBD97E" style="fill:#FBD97E;fill:color(display-p3 0.9843 0.8510 0.4941);fill-opacity:1;"/>
<path d="M62.473 61.6641H12.1442C11.0776 61.6641 10.2129 62.5288 10.2129 63.5954V69.5414C10.2129 70.608 11.0776 71.4727 12.1442 71.4727H62.473C63.5397 71.4727 64.4044 70.608 64.4044 69.5414V63.5954C64.4044 62.5288 63.5397 61.6641 62.473 61.6641Z" fill="#D7D7D7" style="fill:#D7D7D7;fill:color(display-p3 0.8417 0.8417 0.8417);fill-opacity:1;"/>
<path d="M62.4735 71.4725C62.4735 71.4725 62.5812 71.4725 62.7901 71.4282C62.9928 71.3838 63.3094 71.3015 63.6323 71.0419C63.9489 70.7949 64.2782 70.358 64.3415 69.7628C64.3669 69.1675 64.3415 68.4583 64.3415 67.6731C64.3415 66.8816 64.3352 66.0077 64.3289 65.0452C64.3289 64.564 64.3289 64.0637 64.3225 63.5445C64.3099 63.0442 64.0819 62.5377 63.6703 62.1894C63.4677 62.0121 63.2207 61.8854 62.9548 61.8158C62.6888 61.7398 62.4039 61.7525 62.0999 61.7525C61.4984 61.7525 60.8841 61.7525 60.2509 61.7525C58.9781 61.7525 57.6357 61.7588 56.2299 61.7651C44.9395 61.7778 29.3558 61.7968 12.1511 61.8158C11.6571 61.8158 11.1696 62.0311 10.8466 62.392C10.511 62.7593 10.3527 63.2405 10.3844 63.7535C10.3844 64.8173 10.3844 65.8748 10.3844 66.9196C10.3844 67.4452 10.3844 67.9644 10.3844 68.4837V69.2625C10.3844 69.5285 10.3844 69.7564 10.4477 69.9907C10.568 70.4467 10.8846 70.8456 11.2962 71.0735C11.4988 71.1875 11.7268 71.2572 11.9611 71.2825C12.1827 71.3015 12.455 71.2888 12.7083 71.2952C16.7673 71.2952 20.6806 71.3015 24.4103 71.3078C31.8634 71.3205 38.5819 71.3332 44.2303 71.3458C49.8597 71.3648 54.4189 71.3838 57.5913 71.3965C59.1554 71.4092 60.3776 71.4218 61.2261 71.4282C61.6313 71.4345 61.9416 71.4408 62.1696 71.4472C62.3849 71.4472 62.4925 71.4661 62.4925 71.4661C62.4925 71.4661 62.3849 71.4788 62.1696 71.4851C61.9416 71.4851 61.6313 71.4915 61.2261 71.5041C60.3839 71.5105 59.1617 71.5231 57.5913 71.5358C54.4252 71.5485 49.8597 71.5675 44.2303 71.5865C38.5882 71.5991 31.8697 71.6055 24.4103 71.6245C20.6806 71.6245 16.7673 71.6245 12.7083 71.6371C12.4487 71.6371 12.2144 71.6498 11.9294 71.6245C11.6571 71.5928 11.3849 71.5105 11.1442 71.3775C10.6567 71.1115 10.283 70.6366 10.1374 70.0984C10.0614 69.8324 10.0614 69.5348 10.0614 69.2878V68.509C10.0614 67.9897 10.0614 67.4642 10.0614 66.9449C10.0614 65.8938 10.0614 64.8426 10.0614 63.7788C10.0234 63.2342 10.2134 62.6136 10.606 62.1957C10.9923 61.7651 11.5748 61.5055 12.1574 61.5118C29.3621 61.5308 44.9458 61.5498 56.2363 61.5625C57.6483 61.5625 58.9908 61.5688 60.2572 61.5752C60.8905 61.5752 61.511 61.5752 62.1062 61.5752C62.3975 61.5752 62.7142 61.5625 63.0054 61.6511C63.2967 61.7335 63.569 61.8728 63.7906 62.0691C64.2402 62.4553 64.4872 63.0126 64.4935 63.5572C64.4935 64.0764 64.4935 64.5766 64.4935 65.0579C64.4935 66.0141 64.4808 66.8943 64.4808 67.6858C64.4682 68.4773 64.4809 69.1675 64.4492 69.7881C64.3669 70.415 64.0186 70.8583 63.683 71.1115C63.3411 71.3712 63.0181 71.4408 62.8091 71.4788C62.5938 71.5105 62.4862 71.4915 62.4862 71.4915L62.4735 71.4725Z" fill="#46474E" style="fill:#46474E;fill:color(display-p3 0.2745 0.2784 0.3059);fill-opacity:1;"/>
<path d="M199.136 196.804C213.42 196.118 224.443 183.982 223.757 169.699C223.071 155.415 210.935 144.392 196.652 145.078C182.368 145.764 171.345 157.899 172.031 172.183C172.717 186.467 184.853 197.49 199.136 196.804Z" fill="#46474E" style="fill:#46474E;fill:color(display-p3 0.2745 0.2784 0.3059);fill-opacity:1;"/>
<path d="M172.003 170.508C172.003 170.508 172.003 170.552 172.003 170.577C171.794 184.876 183.217 196.635 197.515 196.837C211.814 197.046 223.573 185.623 223.775 171.325C223.775 171.299 223.775 171.28 223.775 171.255L172.003 170.508Z" fill="#46474E" style="fill:#46474E;fill:color(display-p3 0.2745 0.2784 0.3059);fill-opacity:1;"/>
<path d="M179.715 170.682C179.569 180.718 187.592 188.975 197.629 189.121C207.665 189.267 215.923 181.244 216.068 171.207C216.214 161.17 208.191 152.913 198.154 152.768C188.118 152.622 179.86 160.645 179.715 170.682Z" fill="#D7D7D7" style="fill:#D7D7D7;fill:color(display-p3 0.8417 0.8417 0.8417);fill-opacity:1;"/>
<path d="M198.15 152.768C188.114 152.622 179.857 160.645 179.711 170.682L216.064 171.207C216.21 161.17 208.187 152.913 198.15 152.768Z" fill="#D7D7D7" style="fill:#D7D7D7;fill:color(display-p3 0.8417 0.8417 0.8417);fill-opacity:1;"/>
<path d="M186.821 170.791C186.733 176.908 191.621 181.935 197.732 182.024C203.849 182.113 208.877 177.224 208.965 171.114C209.054 164.997 204.166 159.969 198.055 159.88C191.938 159.791 186.91 164.68 186.821 170.791Z" fill="#46474E" style="fill:#46474E;fill:color(display-p3 0.2745 0.2784 0.3059);fill-opacity:1;"/>
<path d="M185.6 132.978C185.6 132.978 212.107 124.962 223.074 153.761L167.604 170.94L185.606 132.978H185.6Z" fill="#FFA469" style="fill:#FFA469;fill:color(display-p3 1.0000 0.6431 0.4118);fill-opacity:1;"/>
<path d="M39.3806 196.804C53.6642 196.118 64.6872 183.982 64.0011 169.699C63.315 155.415 51.1796 144.392 36.896 145.078C22.6124 145.764 11.5894 157.899 12.2755 172.183C12.9616 186.467 25.0969 197.49 39.3806 196.804Z" fill="#46474E" style="fill:#46474E;fill:color(display-p3 0.2745 0.2784 0.3059);fill-opacity:1;"/>
<path d="M12.2528 170.502C12.2528 170.502 12.2528 170.546 12.2528 170.572C12.0439 184.87 23.4672 196.629 37.7655 196.831C52.0637 197.04 63.8227 185.617 64.0254 171.319C64.0254 171.293 64.0254 171.274 64.0254 171.249L12.2528 170.502Z" fill="#46474E" style="fill:#46474E;fill:color(display-p3 0.2745 0.2784 0.3059);fill-opacity:1;"/>
<path d="M19.959 170.682C19.8133 180.718 27.8363 188.975 37.873 189.121C47.9096 189.267 56.1668 181.244 56.3125 171.207C56.4581 161.17 48.4352 152.913 38.3985 152.768C28.3619 152.622 20.1046 160.645 19.959 170.682Z" fill="#D7D7D7" style="fill:#D7D7D7;fill:color(display-p3 0.8417 0.8417 0.8417);fill-opacity:1;"/>
<path d="M38.4005 152.768C28.3638 152.622 20.1066 160.645 19.9609 170.682L56.3144 171.207C56.4601 161.17 48.4371 152.913 38.4005 152.768Z" fill="#D7D7D7" style="fill:#D7D7D7;fill:color(display-p3 0.8417 0.8417 0.8417);fill-opacity:1;"/>
<path d="M27.0637 170.785C26.975 176.902 31.8635 181.929 37.9742 182.018C44.0911 182.107 49.1189 177.218 49.2076 171.108C49.2963 164.991 44.4077 159.963 38.2971 159.874C32.1801 159.786 27.1523 164.674 27.0637 170.785Z" fill="#46474E" style="fill:#46474E;fill:color(display-p3 0.2745 0.2784 0.3059);fill-opacity:1;"/>
<path d="M74.9623 160.55C74.8167 160.626 61.3353 158.467 61.3353 158.467C59.8598 160.392 57.6056 161.57 55.1866 161.684C49.361 161.962 43.6683 162.222 38.7354 162.437C34.1382 162.64 30.5731 166.534 30.7631 171.131C30.9467 175.488 34.4358 178.964 38.7861 179.135L67.4586 180.262C72.1761 180.446 78.4387 177.584 81.3832 173.892L74.956 160.537L74.9623 160.55Z" fill="#65666D" style="fill:#65666D;fill:color(display-p3 0.3961 0.4000 0.4275);fill-opacity:1;"/>
<path d="M4.5229 149.097C4.5229 149.097 3.28811 123.863 27.0024 118.607V115.371H110.075V123.084C110.075 123.084 97.8794 137.769 101.862 149.958C105.845 162.154 107.087 163.395 107.087 163.395H154.363C154.363 163.395 160.088 156.176 160.335 145.481C160.581 134.78 156.136 116.486 152.818 104.79C149.798 94.1583 147.892 85.2614 147.892 85.2614L162.076 80.5312C162.076 80.5312 188.323 114.846 189.393 116.777C190.463 118.708 194.111 123.211 193.25 133.07C192.388 142.929 168.807 173.381 162.589 176.807C156.371 180.239 150.798 180.454 145.219 181.309C140.382 182.056 104.585 181.562 95.2262 181.417C91.9714 181.366 88.761 180.537 85.9811 178.852C83.1822 177.155 81.0736 174.344 78.7497 169.734L73.8168 160.083L4.50391 149.091L4.5229 149.097Z" fill="#FFA469" style="fill:#FFA469;fill:color(display-p3 1.0000 0.6431 0.4118);fill-opacity:1;"/>
<path d="M10.8796 147.34L0.412405 163.728C-0.930034 165.824 1.24193 168.464 3.52155 167.476C4.62969 166.995 5.82016 166.248 7.02962 165.095C11.8168 160.543 20.3464 148.549 20.3464 148.549L10.8733 147.34H10.8796Z" fill="#65666D" style="fill:#65666D;fill:color(display-p3 0.3961 0.4000 0.4275);fill-opacity:1;"/>
<path d="M85.9102 150.288C85.9102 150.288 85.9228 150.206 85.9735 150.048C86.0242 149.877 86.0938 149.649 86.1825 149.358C86.3598 148.75 86.5751 147.844 86.7334 146.654C86.9993 144.292 86.879 140.689 85.1123 136.763C84.2511 134.806 82.9783 132.805 81.256 130.969C79.5273 129.145 77.3933 127.461 74.8984 126.118C72.4161 124.769 69.6046 123.706 66.6031 123.028C63.5953 122.35 60.3975 122.047 57.1237 122.047C53.8499 122.047 50.6585 122.338 47.5937 122.743C44.5289 123.155 41.5907 123.661 38.8172 124.294C33.2764 125.542 28.4576 127.385 24.7279 129.506C20.9855 131.615 18.3323 133.92 16.6732 135.648C15.8374 136.509 15.2358 137.225 14.8369 137.719C14.6469 137.953 14.5013 138.143 14.3873 138.282C14.286 138.409 14.229 138.472 14.2227 138.466C14.2227 138.466 14.9319 137.326 16.5783 135.56C18.212 133.793 20.8589 131.45 24.6076 129.303C28.3436 127.138 33.1878 125.263 38.7475 123.997C41.5274 123.357 44.4719 122.838 47.5493 122.42C50.6205 122.009 53.8309 121.711 57.1237 121.711C60.4165 121.711 63.6396 122.021 66.6728 122.705C69.7059 123.389 72.5365 124.465 75.044 125.84C77.5579 127.201 79.7172 128.917 81.4586 130.772C83.1936 132.64 84.4728 134.673 85.3276 136.661C87.0816 140.644 87.1703 144.292 86.86 146.66C86.6827 147.857 86.4484 148.769 86.2458 149.37C86.1445 149.655 86.0622 149.883 86.0052 150.048C85.9482 150.2 85.9165 150.276 85.9102 150.276V150.288Z" fill="#46474E" style="fill:#46474E;fill:color(display-p3 0.2745 0.2784 0.3059);fill-opacity:1;"/>
<path d="M81.1239 144.621C81.0859 144.609 81.2632 144.222 81.4342 143.5C81.6305 142.779 81.7128 141.683 81.5292 140.366C81.3455 139.043 80.8389 137.517 79.9841 135.965C79.5662 135.186 79.0532 134.414 78.4517 133.66C77.8628 132.9 77.1726 132.178 76.3937 131.526C74.8296 130.215 73.0946 129.291 71.4545 128.639C69.8018 127.999 68.2441 127.619 66.9206 127.398C65.5972 127.176 64.508 127.081 63.7608 127.037C63.0073 126.992 62.5957 126.973 62.5957 126.948C62.5957 126.935 62.697 126.929 62.8996 126.916C63.0959 126.916 63.3936 126.897 63.7672 126.904C64.5207 126.904 65.6162 126.967 66.9586 127.163C68.3011 127.353 69.8841 127.714 71.5685 128.347C73.2402 129 75.0132 129.93 76.609 131.267C77.4068 131.938 78.1097 132.672 78.7113 133.451C79.3192 134.217 79.8384 135.015 80.2564 135.813C81.1112 137.396 81.6051 138.967 81.7634 140.328C81.9218 141.683 81.8014 142.804 81.5608 143.526C81.4848 143.899 81.3265 144.159 81.2569 144.349C81.1746 144.533 81.1302 144.628 81.1176 144.621H81.1239Z" fill="#D7D7D7" style="fill:#D7D7D7;fill:color(display-p3 0.8417 0.8417 0.8417);fill-opacity:1;"/>
<path d="M62.9806 70.9688H11.6323C8.63168 70.9688 6.19922 73.4012 6.19922 76.4018V109.931C6.19922 112.932 8.63168 115.364 11.6323 115.364H62.9806C65.9812 115.364 68.4137 112.932 68.4137 109.931V76.4018C68.4137 73.4012 65.9812 70.9688 62.9806 70.9688Z" fill="#65666D" style="fill:#65666D;fill:color(display-p3 0.3961 0.4000 0.4275);fill-opacity:1;"/>
<path d="M19.1669 98.955L21.6789 98.1826C22.241 98.0097 22.6173 97.7255 22.8076 97.3299C22.9978 96.9344 23.0204 96.5062 22.8752 96.0453C22.7263 95.5726 22.4539 95.2286 22.0581 95.0133C21.6742 94.7943 21.2071 94.7694 20.6569 94.9386L18.145 95.7111L19.1669 98.955ZM20.5262 92.5873C21.1363 92.3997 21.6998 92.356 22.2168 92.4563C22.7301 92.5447 23.188 92.728 23.5905 93.006C24.005 93.2804 24.3506 93.6278 24.6274 94.0483C24.9124 94.4532 25.1238 94.8743 25.2615 95.3115C25.403 95.7606 25.4607 96.2354 25.4347 96.736C25.4207 97.2328 25.3159 97.7123 25.1203 98.1743C24.9367 98.6326 24.6548 99.0498 24.2748 99.4259C23.9029 99.7865 23.4299 100.055 22.8558 100.232L19.8594 101.153L21.3058 105.744L18.8477 106.5L15 94.2866L20.5262 92.5873Z" fill="#46474E" style="fill:#46474E;fill:color(display-p3 0.2745 0.2784 0.3059);fill-opacity:1;"/>
<path d="M29.4188 103.249L26.6601 94.4926L28.9387 93.7919L31.6975 102.549L29.4188 103.249ZM25.7682 92.1614C25.6565 91.8069 25.6872 91.4669 25.8602 91.1415C26.0332 90.8161 26.2931 90.6001 26.64 90.4934C26.9869 90.3867 27.325 90.4189 27.6544 90.5898C27.9838 90.7607 28.2043 91.0234 28.316 91.378C28.4277 91.7325 28.397 92.0725 28.224 92.3979C28.0473 92.7115 27.7855 92.9216 27.4386 93.0283C27.0917 93.1349 26.7554 93.1087 26.4298 92.9496C26.1004 92.7787 25.8799 92.5159 25.7682 92.1614Z" fill="#46474E" style="fill:#46474E;fill:color(display-p3 0.2745 0.2784 0.3059);fill-opacity:1;"/>
<path d="M33.6272 101.955L33.0576 100.147L35.8743 93.7203L31.7117 95.0003L31.1141 93.1035L38.0578 90.9684L38.6162 92.741L35.7884 99.1325L40.2022 97.7753L40.8221 99.7429L33.6272 101.955Z" fill="#46474E" style="fill:#46474E;fill:color(display-p3 0.2745 0.2784 0.3059);fill-opacity:1;"/>
<path d="M42.1253 99.3422L41.5557 97.5341L44.3723 91.1071L40.2097 92.3871L39.6122 90.4904L46.5558 88.3552L47.1143 90.1279L44.2865 96.5194L48.7003 95.1621L49.3201 97.1297L42.1253 99.3422Z" fill="#46474E" style="fill:#46474E;fill:color(display-p3 0.2745 0.2784 0.3059);fill-opacity:1;"/>
<path d="M55.9565 94.2919C55.515 94.7647 55.0976 95.1263 54.7042 95.3769C54.3071 95.6157 53.9231 95.7921 53.5523 95.9061C52.6432 96.1857 51.8631 96.1663 51.2118 95.8481C50.5687 95.5144 50.1169 94.9339 49.8562 94.1067C49.7036 93.6222 49.6768 93.1832 49.7759 92.7898C49.8713 92.3845 50.041 92.0278 50.285 91.7194C50.5409 91.4074 50.8454 91.1452 51.1984 90.933C51.5514 90.7208 51.9013 90.5613 52.2482 90.4546L54.5448 89.7484L54.4275 89.3762C54.2972 88.9626 54.0808 88.6921 53.7783 88.5648C53.472 88.4256 53.0139 88.4498 52.4039 88.6374C52.1168 88.7257 51.771 88.8774 51.3664 89.0925C50.9738 89.304 50.6162 89.6473 50.2936 90.1224L48.7515 88.7883C49.2246 88.1244 49.7498 87.6259 50.3271 87.2928C50.9164 86.956 51.4742 86.7067 52.0005 86.5449C53.2684 86.155 54.2908 86.1517 55.0675 86.5351C55.8443 86.9184 56.4133 87.6832 56.7744 88.8295L58.5 94.3069L56.4008 94.9525L56.0159 94.2931L55.9565 94.2919ZM55.0877 91.4092L53.1858 91.994C53.0423 92.0382 52.9024 92.0941 52.7664 92.1619C52.6385 92.2142 52.5259 92.2941 52.4287 92.4018C52.3396 92.494 52.2778 92.6102 52.2433 92.7505C52.205 92.8789 52.2138 93.0318 52.2697 93.209C52.3441 93.4454 52.4893 93.6146 52.7051 93.7167C52.9292 93.8034 53.2147 93.7934 53.5616 93.6867C53.9444 93.569 54.2988 93.3822 54.625 93.1264C54.9474 92.8588 55.2077 92.6231 55.406 92.4196L55.0877 91.4092Z" fill="#46474E" style="fill:#46474E;fill:color(display-p3 0.2745 0.2784 0.3059);fill-opacity:1;"/>
<path d="M68.4199 80.8775C68.4199 80.9662 54.4319 81.0422 37.1828 81.0422C19.9337 81.0422 5.93945 80.9662 5.93945 80.8775C5.93945 80.7889 19.9274 80.7129 37.1828 80.7129C54.4382 80.7129 68.4199 80.7889 68.4199 80.8775Z" fill="#46474E" style="fill:#46474E;fill:color(display-p3 0.2745 0.2784 0.3059);fill-opacity:1;"/>
<path d="M110.036 118.307C110.036 118.396 91.369 118.472 68.3385 118.472C45.3081 118.472 26.6406 118.396 26.6406 118.307C26.6406 118.219 45.3081 118.143 68.3385 118.143C91.369 118.143 110.036 118.219 110.036 118.307Z" fill="#46474E" style="fill:#46474E;fill:color(display-p3 0.2745 0.2784 0.3059);fill-opacity:1;"/>
<path d="M110.075 115.367C110.075 115.367 111.443 113.733 111.576 111.643C111.709 109.554 110.752 106.951 108.511 106.951H79.8257C75.1779 106.951 71.4102 110.719 71.4102 115.367H110.075Z" fill="#65666D" style="fill:#65666D;fill:color(display-p3 0.3961 0.4000 0.4275);fill-opacity:1;"/>
<path d="M147.896 85.2641L142.906 74.8602C141.544 71.903 142.627 68.3886 145.426 66.7232L160.345 57.8264C161.124 57.3642 162.017 57.1172 162.922 57.1172H166.145L167.437 78.1466L162.466 80.0463L165.613 85.1628L147.896 85.2641Z" fill="#FFA469" style="fill:#FFA469;fill:color(display-p3 1.0000 0.6431 0.4118);fill-opacity:1;"/>
<path d="M166.198 57.8735C166.198 57.8735 171.302 59.045 171.941 66.9097C172.581 74.7807 167.439 77.2249 167.439 77.2249L166.191 57.8672L166.198 57.8735Z" fill="#D7D7D7" style="fill:#D7D7D7;fill:color(display-p3 0.8417 0.8417 0.8417);fill-opacity:1;"/>
<path d="M149.639 70.7769C149.639 70.7769 139.323 75.6654 138.063 76.4696C137.189 77.0269 136.442 78.002 137.126 79.7181C138.298 82.6436 143.116 79.889 143.116 79.889L152.716 75.0892C152.716 75.0892 156.408 73.3478 155.046 71.1632C153.52 68.7189 149.639 70.7769 149.639 70.7769Z" fill="#46474E" style="fill:#46474E;fill:color(display-p3 0.2745 0.2784 0.3059);fill-opacity:1;"/>
<path d="M135.036 69.0005C135.036 69.0005 144.724 70.6595 145.547 70.8812C146.37 71.1028 149.606 72.6352 149.771 73.623C149.936 74.6109 149.771 77.5174 149.771 77.5174C149.771 77.5174 149.188 77.9923 148.821 77.0424C148.454 76.0926 148.511 74.2119 148.511 74.2119L146.7 73.5154L147.688 75.2694L147.852 79.379C147.852 79.379 146.586 79.2651 146.345 78.2772C146.098 77.2957 146.104 76.1939 146.104 76.1939L144.787 75.0731L145.775 76.4092L146.111 79.3727C146.111 79.3727 145.148 79.683 144.844 79.0244C144.54 78.3659 144.515 76.4092 144.515 76.4092L140.792 75.1111L138.328 76.4852L134.453 74.3639L135.048 68.9941L135.036 69.0005Z" fill="#FFBE9D" style="fill:#FFBE9D;fill:color(display-p3 1.0000 0.7451 0.6157);fill-opacity:1;"/>
<path d="M150.133 55.4974C150.133 59.4234 148.328 62.6022 146.105 62.6022C143.883 62.6022 142.078 59.4234 142.078 55.4974C142.078 51.5714 143.883 48.3926 146.105 48.3926C148.328 48.3926 150.133 51.5714 150.133 55.4974Z" fill="#46474E" style="fill:#46474E;fill:color(display-p3 0.2745 0.2784 0.3059);fill-opacity:1;"/>
<path d="M146.764 60.3795L148.974 68.0479C149.962 67.5476 150.171 66.5598 150.006 65.7809C149.449 63.1531 149.139 61.285 148.524 58.9801C148.449 58.7458 146.758 60.3732 146.758 60.3732" fill="#46474E" style="fill:#46474E;fill:color(display-p3 0.2745 0.2784 0.3059);fill-opacity:1;"/>
<path d="M2.6348 145.137L2.97041 141.527L89.2664 151.469C94.136 152.039 97.5237 156.592 96.6689 161.423L96.2826 163.608L6.96606 150.627C4.29385 150.241 2.38784 147.822 2.6348 145.13V145.137Z" fill="#65666D" style="fill:#65666D;fill:color(display-p3 0.3961 0.4000 0.4275);fill-opacity:1;"/>
<path d="M193.065 124.6C193.065 124.6 193.109 124.777 193.166 125.125C193.217 125.473 193.318 125.986 193.382 126.651C193.502 127.981 193.584 129.944 193.236 132.325C192.894 134.706 192.077 137.479 190.728 140.354C189.411 143.242 187.588 146.224 185.701 149.346C181.895 155.609 177.659 160.725 174.581 164.385C173.036 166.209 171.757 167.665 170.87 168.672C170.44 169.153 170.098 169.533 169.845 169.818C169.604 170.078 169.477 170.211 169.471 170.205C169.465 170.198 169.572 170.053 169.794 169.774C170.035 169.483 170.364 169.084 170.775 168.583C171.656 167.532 172.884 166.051 174.404 164.233C177.437 160.542 181.629 155.406 185.422 149.175C187.315 146.053 189.133 143.09 190.456 140.228C191.811 137.378 192.641 134.643 193.008 132.293C193.388 129.938 193.344 128 193.255 126.67C193.211 126.005 193.128 125.492 193.103 125.138C193.065 124.79 193.052 124.6 193.065 124.6Z" fill="#46474E" style="fill:#46474E;fill:color(display-p3 0.2745 0.2784 0.3059);fill-opacity:1;"/>
<path d="M160.221 169.128C160.157 169.191 158.796 167.962 157.181 166.379C155.566 164.796 154.306 163.46 154.369 163.397C154.433 163.334 155.794 164.562 157.415 166.145C159.03 167.728 160.29 169.064 160.227 169.128H160.221Z" fill="#46474E" style="fill:#46474E;fill:color(display-p3 0.2745 0.2784 0.3059);fill-opacity:1;"/>
<path d="M103.843 168.487C103.767 168.449 104.287 167.177 105.236 165.784C106.18 164.384 107.174 163.428 107.231 163.491C107.301 163.555 106.433 164.593 105.509 165.973C104.571 167.348 103.926 168.532 103.843 168.494V168.487Z" fill="#46474E" style="fill:#46474E;fill:color(display-p3 0.2745 0.2784 0.3059);fill-opacity:1;"/>
<path d="M67.3432 180.55C67.2673 180.486 68.7047 179.568 69.9331 177.257C70.5474 176.117 71.0476 174.629 71.1996 172.919C71.3579 171.222 71.1109 169.297 70.2751 167.511C69.4075 165.738 68.0715 164.339 66.653 163.389C65.2283 162.433 63.7592 161.888 62.4864 161.648C59.9155 161.148 58.3008 161.692 58.3008 161.591C58.3008 161.578 58.3958 161.553 58.5857 161.508C58.7757 161.47 59.048 161.382 59.4152 161.35C60.1435 161.236 61.2263 161.204 62.5307 161.426C63.8352 161.641 65.3549 162.18 66.824 163.142C68.2931 164.098 69.6798 165.536 70.5727 167.372C71.4339 169.221 71.6745 171.203 71.4972 172.951C71.3262 174.699 70.7817 176.218 70.1294 177.371C69.4835 178.523 68.7743 179.346 68.2234 179.84C67.9638 180.106 67.7232 180.258 67.5712 180.385C67.4192 180.505 67.3369 180.562 67.3243 180.55H67.3432Z" fill="#46474E" style="fill:#46474E;fill:color(display-p3 0.2745 0.2784 0.3059);fill-opacity:1;"/>
<path d="M35.8283 173.929C35.7397 173.929 35.6004 172.567 35.5181 170.883C35.4357 169.198 35.4484 167.831 35.5371 167.824C35.6257 167.824 35.765 169.179 35.8473 170.87C35.9296 172.554 35.917 173.922 35.8283 173.929Z" fill="#46474E" style="fill:#46474E;fill:color(display-p3 0.2745 0.2784 0.3059);fill-opacity:1;"/>
<path d="M38.1195 173.935C38.0309 173.948 37.7839 172.586 37.5686 170.902C37.3533 169.211 37.252 167.837 37.3407 167.824C37.4293 167.812 37.6763 169.173 37.8916 170.864C38.1069 172.555 38.2082 173.929 38.1195 173.941V173.935Z" fill="#46474E" style="fill:#46474E;fill:color(display-p3 0.2745 0.2784 0.3059);fill-opacity:1;"/>
<path d="M73.7088 115.366C73.7088 115.454 63.2163 115.53 50.2794 115.53C37.3426 115.53 26.8438 115.454 26.8438 115.366C26.8438 115.277 37.3363 115.201 50.2794 115.201C63.2226 115.201 73.7088 115.277 73.7088 115.366Z" fill="#46474E" style="fill:#46474E;fill:color(display-p3 0.2745 0.2784 0.3059);fill-opacity:1;"/>
<path d="M39.7291 115.337C39.6404 115.337 39.5645 103.318 39.5645 88.5007C39.5645 73.6832 39.6404 61.6582 39.7291 61.6582C39.8177 61.6582 39.8937 73.6705 39.8937 88.5007C39.8937 103.331 39.8177 115.337 39.7291 115.337Z" fill="#46474E" style="fill:#46474E;fill:color(display-p3 0.2745 0.2784 0.3059);fill-opacity:1;"/>
<path d="M33.308 115.292C33.2194 115.292 33.669 103.28 34.3085 88.469C34.9544 73.6578 35.5496 61.6519 35.6383 61.6582C35.7269 61.6582 35.2773 73.6705 34.6378 88.4817C33.9919 103.293 33.3967 115.292 33.308 115.292Z" fill="#46474E" style="fill:#46474E;fill:color(display-p3 0.2745 0.2784 0.3059);fill-opacity:1;"/>
<path d="M18.777 188.525C18.777 188.525 18.6757 188.436 18.4984 188.246C18.3274 188.05 18.0615 187.777 17.7575 187.391C17.1306 186.638 16.2948 185.485 15.4209 183.959C13.6732 180.939 11.9382 176.215 11.9572 170.813C11.9825 165.406 13.7555 160.701 15.5286 157.693C16.4151 156.173 17.2636 155.027 17.8905 154.28C18.1945 153.894 18.4667 153.628 18.6377 153.431C18.815 153.241 18.91 153.146 18.9163 153.153C18.9227 153.159 18.8467 153.273 18.6884 153.476C18.5364 153.685 18.2768 153.963 17.9918 154.356C17.3966 155.128 16.5797 156.287 15.7312 157.807C14.0215 160.821 12.3055 165.475 12.2865 170.813C12.2675 176.145 13.9392 180.818 15.6236 183.845C16.4594 185.371 17.2636 186.536 17.8588 187.315C18.1438 187.714 18.3971 187.999 18.5491 188.202C18.7074 188.404 18.7834 188.518 18.777 188.525Z" fill="#65666D" style="fill:#65666D;fill:color(display-p3 0.3961 0.4000 0.4275);fill-opacity:1;"/>
<path d="M109.491 140.279L109.295 140.653L105.483 147.827L100.139 152.975L110.821 167.198L119.724 165.722C119.724 165.722 118.724 163.69 114.26 163.297L112.55 154.799L118.825 145.073" fill="#65666D" style="fill:#65666D;fill:color(display-p3 0.3961 0.4000 0.4275);fill-opacity:1;"/>
<path d="M100.139 152.97L110.815 167.193L119.718 165.717L118.496 164.546L111.188 165.344L101.272 151.875L100.139 152.97Z" fill="#D7D7D7" style="fill:#D7D7D7;fill:color(display-p3 0.8417 0.8417 0.8417);fill-opacity:1;"/>
<path d="M113.544 159.383C113.493 159.485 112.93 159.282 112.246 159.415C111.556 159.529 111.106 159.922 111.017 159.839C110.922 159.789 111.334 159.168 112.17 159.023C113.006 158.864 113.607 159.301 113.538 159.383H113.544Z" fill="#46474E" style="fill:#46474E;fill:color(display-p3 0.2745 0.2784 0.3059);fill-opacity:1;"/>
<path d="M113.05 157.291C112.974 157.367 112.486 156.911 111.758 156.892C111.024 156.866 110.511 157.291 110.441 157.208C110.403 157.17 110.479 157.006 110.707 156.828C110.929 156.651 111.315 156.48 111.771 156.493C112.227 156.506 112.6 156.702 112.809 156.898C113.025 157.088 113.088 157.259 113.05 157.297V157.291Z" fill="#46474E" style="fill:#46474E;fill:color(display-p3 0.2745 0.2784 0.3059);fill-opacity:1;"/>
<path d="M112.65 154.558C112.561 154.621 112.169 154.159 111.517 154.045C110.864 153.924 110.339 154.228 110.275 154.133C110.244 154.095 110.339 153.95 110.567 153.817C110.795 153.684 111.168 153.576 111.586 153.652C111.998 153.728 112.314 153.95 112.485 154.152C112.656 154.355 112.694 154.52 112.65 154.551V154.558Z" fill="#46474E" style="fill:#46474E;fill:color(display-p3 0.2745 0.2784 0.3059);fill-opacity:1;"/>
<path d="M114.681 152.05C114.58 152.107 114.244 151.638 113.636 151.372C113.035 151.087 112.465 151.144 112.44 151.037C112.395 150.942 113.054 150.669 113.801 151.011C114.548 151.347 114.789 152.018 114.681 152.05Z" fill="#46474E" style="fill:#46474E;fill:color(display-p3 0.2745 0.2784 0.3059);fill-opacity:1;"/>
<path d="M115.538 150.031C115.5 150.069 115.145 149.759 114.607 149.227C114.303 148.917 113.993 148.6 113.676 148.283C113.511 148.094 113.303 147.942 113.144 147.631C113.068 147.473 113.043 147.277 113.106 147.08C113.163 146.878 113.397 146.713 113.594 146.713C113.993 146.707 114.24 146.871 114.499 147.004C114.746 147.156 114.962 147.34 115.145 147.53C115.506 147.923 115.715 148.359 115.823 148.739C116.038 149.512 115.861 150.006 115.823 149.987C115.753 149.987 115.823 149.506 115.557 148.828C115.424 148.492 115.209 148.119 114.879 147.783C114.715 147.619 114.518 147.467 114.303 147.34C114.094 147.22 113.822 147.093 113.632 147.106C113.543 147.118 113.505 147.15 113.48 147.213C113.454 147.283 113.461 147.384 113.499 147.467C113.581 147.65 113.784 147.84 113.948 148.03C114.246 148.372 114.531 148.701 114.816 149.031C115.304 149.607 115.582 149.987 115.544 150.025L115.538 150.031Z" fill="#46474E" style="fill:#46474E;fill:color(display-p3 0.2745 0.2784 0.3059);fill-opacity:1;"/>
<path d="M115.905 150.241C115.86 150.241 115.816 149.772 116.209 149.158C116.595 148.575 117.532 147.86 118.767 148.246C118.862 148.303 118.944 148.417 118.957 148.544C118.969 148.67 118.938 148.765 118.893 148.841C118.811 149 118.704 149.082 118.621 149.177C118.438 149.354 118.248 149.513 118.051 149.639C117.665 149.899 117.272 150.064 116.937 150.158C116.259 150.348 115.816 150.285 115.822 150.241C115.822 150.177 116.24 150.14 116.848 149.893C117.152 149.772 117.5 149.595 117.842 149.335C118.013 149.209 118.184 149.063 118.349 148.898C118.431 148.81 118.514 148.727 118.545 148.658C118.577 148.575 118.571 148.594 118.545 148.575C118.514 148.55 118.387 148.531 118.273 148.525C118.159 148.518 118.045 148.518 117.937 148.525C117.716 148.544 117.507 148.601 117.31 148.677C116.924 148.829 116.633 149.076 116.43 149.323C116.025 149.823 115.962 150.253 115.898 150.241H115.905Z" fill="#46474E" style="fill:#46474E;fill:color(display-p3 0.2745 0.2784 0.3059);fill-opacity:1;"/>
<path d="M107.192 151.515C107.287 152.098 106.894 152.649 106.311 152.75C105.729 152.845 105.178 152.453 105.077 151.87C104.982 151.287 105.374 150.737 105.957 150.635C106.539 150.54 107.09 150.933 107.192 151.515Z" fill="#D7D7D7" style="fill:#D7D7D7;fill:color(display-p3 0.8417 0.8417 0.8417);fill-opacity:1;"/>
<path d="M141.913 147.12L144.768 165.661L167.856 162.229C167.394 160.044 154.786 157.391 154.786 157.391L153.444 145.436L141.906 147.12H141.913Z" fill="#65666D" style="fill:#65666D;fill:color(display-p3 0.3961 0.4000 0.4275);fill-opacity:1;"/>
<path d="M147.503 157.452C147.073 157.642 146.838 158.186 147.009 158.623C147.18 159.06 147.738 159.301 148.168 159.123C148.599 158.94 148.903 158.294 148.681 157.876C148.459 157.458 147.795 157.211 147.421 157.49" fill="#D7D7D7" style="fill:#D7D7D7;fill:color(display-p3 0.8417 0.8417 0.8417);fill-opacity:1;"/>
<path d="M144.768 165.662L144.553 163.781L166.773 161.191C166.773 161.191 167.868 161.483 167.862 162.23L144.774 165.662H144.768Z" fill="#D7D7D7" style="fill:#D7D7D7;fill:color(display-p3 0.8417 0.8417 0.8417);fill-opacity:1;"/>
<path d="M155.147 157.219C155.16 157.333 154.603 157.466 154.102 157.915C153.589 158.346 153.374 158.878 153.266 158.846C153.159 158.84 153.228 158.143 153.843 157.611C154.451 157.079 155.153 157.111 155.147 157.219Z" fill="#46474E" style="fill:#46474E;fill:color(display-p3 0.2745 0.2784 0.3059);fill-opacity:1;"/>
<path d="M157.717 157.86C157.761 157.968 157.299 158.228 156.989 158.766C156.659 159.291 156.64 159.823 156.526 159.83C156.425 159.861 156.248 159.215 156.647 158.557C157.039 157.898 157.698 157.753 157.717 157.86Z" fill="#46474E" style="fill:#46474E;fill:color(display-p3 0.2745 0.2784 0.3059);fill-opacity:1;"/>
<path d="M159.523 160.551C159.421 160.589 159.181 160.051 159.383 159.392C159.573 158.727 160.074 158.404 160.131 158.493C160.207 158.575 159.915 158.955 159.763 159.506C159.599 160.044 159.637 160.526 159.523 160.557V160.551Z" fill="#46474E" style="fill:#46474E;fill:color(display-p3 0.2745 0.2784 0.3059);fill-opacity:1;"/>
<path d="M154.54 154.529C154.508 154.637 153.97 154.561 153.337 154.7C152.703 154.827 152.241 155.112 152.165 155.023C152.089 154.953 152.507 154.459 153.254 154.307C153.995 154.149 154.578 154.428 154.54 154.529Z" fill="#46474E" style="fill:#46474E;fill:color(display-p3 0.2745 0.2784 0.3059);fill-opacity:1;"/>
<path d="M153.583 151.871C153.59 151.916 153.159 152.055 152.425 152.036C152.064 152.03 151.627 151.973 151.158 151.846C150.924 151.783 150.683 151.7 150.443 151.593C150.329 151.542 150.189 151.491 150.05 151.371C149.911 151.27 149.79 150.985 149.911 150.782C150.006 150.586 150.202 150.478 150.367 150.453C150.538 150.421 150.677 150.434 150.81 150.453C151.076 150.478 151.329 150.529 151.563 150.592C152.032 150.725 152.431 150.928 152.735 151.13C153.343 151.548 153.59 151.941 153.552 151.966C153.507 152.011 153.191 151.694 152.589 151.371C152.285 151.206 151.905 151.048 151.468 150.94C151.247 150.89 151.019 150.852 150.772 150.833C150.519 150.807 150.31 150.833 150.265 150.953C150.246 150.997 150.246 151.016 150.31 151.08C150.373 151.137 150.481 151.187 150.595 151.238C150.816 151.339 151.044 151.428 151.259 151.498C151.69 151.637 152.095 151.719 152.444 151.757C153.134 151.846 153.571 151.808 153.577 151.871H153.583Z" fill="#46474E" style="fill:#46474E;fill:color(display-p3 0.2745 0.2784 0.3059);fill-opacity:1;"/>
<path d="M153.455 152.056C153.417 152.081 153.132 151.707 152.987 150.986C152.911 150.625 152.885 150.181 152.955 149.694C152.993 149.453 153.05 149.2 153.145 148.947C153.246 148.7 153.367 148.37 153.797 148.25C154.025 148.206 154.24 148.358 154.329 148.503C154.43 148.649 154.462 148.782 154.513 148.909C154.595 149.175 154.627 149.434 154.627 149.687C154.627 150.188 154.487 150.631 154.31 150.954C153.949 151.619 153.499 151.821 153.48 151.79C153.436 151.739 153.797 151.46 154.057 150.834C154.183 150.523 154.278 150.131 154.259 149.694C154.253 149.478 154.215 149.25 154.139 149.029C154.069 148.788 153.943 148.605 153.854 148.643C153.74 148.655 153.569 148.871 153.506 149.08C153.417 149.301 153.354 149.529 153.31 149.751C153.227 150.188 153.221 150.599 153.259 150.935C153.328 151.619 153.512 152.024 153.455 152.049V152.056Z" fill="#46474E" style="fill:#46474E;fill:color(display-p3 0.2745 0.2784 0.3059);fill-opacity:1;"/>
<path d="M123.745 103.569L103.938 146.717L117.02 154.569L144.394 102.65" fill="#46474E" style="fill:#46474E;fill:color(display-p3 0.2745 0.2784 0.3059);fill-opacity:1;"/>
<path d="M156.393 155.542L142.184 157.822L133.679 107.075L91.6649 110.121C90.5504 110.191 89.4296 110.096 88.3531 109.798C76.5498 106.562 78.1518 91.5232 79.2853 89.1106L137.422 87.4389C143.729 87.2553 149.162 91.8462 150.036 98.0961L156.387 155.536L156.393 155.542Z" fill="#46474E" style="fill:#46474E;fill:color(display-p3 0.2745 0.2784 0.3059);fill-opacity:1;"/>
<path d="M78.7151 91.5019L78.924 70.0482C78.924 70.0482 76.1569 56.0982 75.3337 50.6145C74.0609 42.0976 72.3195 38.0576 86.2631 32.004L89.309 30.8262L94.0265 30.8895C99.6559 31.3138 105.583 36.3986 105.716 39.7737L111.143 88.1205L78.7024 91.5082L78.7151 91.5019Z" fill="#FBD97E" style="fill:#FBD97E;fill:color(display-p3 0.9843 0.8510 0.4941);fill-opacity:1;"/>
<path d="M79.5887 36.9961C79.5887 36.9961 75.6564 45.4687 76.4416 53.1877L91.1134 67.2706C94.4062 70.9307 98.5158 72.4884 103.778 72.805L134.135 76.1231L134.977 68.1825L106.096 60.0012C104.949 59.7922 104.373 58.5891 103.493 57.8229L79.5887 37.0024" fill="#FBD97E" style="fill:#FBD97E;fill:color(display-p3 0.9843 0.8510 0.4941);fill-opacity:1;"/>
<path d="M77.2212 39.4367C77.2212 39.4367 77.3858 39.253 77.8037 39.0441C78.2217 38.8414 78.8802 38.6325 79.7667 38.4932C80.6469 38.3665 81.7614 38.2715 83.0469 38.4995C83.3635 38.5755 83.6991 38.6515 84.0093 38.8288C84.3133 39.0061 84.6046 39.215 84.9022 39.4367C85.4911 39.8926 86.08 40.4118 86.6752 40.9881C87.891 42.1215 89.0435 43.559 90.3923 45.0154C91.7347 46.4781 93.2165 48.0359 94.8249 49.6759C96.4269 51.316 98.1556 53.032 100.011 54.8051C100.942 55.6852 101.898 56.5844 102.911 57.4646C103.424 57.8889 103.931 58.3828 104.418 58.845C104.912 59.301 105.476 59.7252 106.122 59.8455H106.128H106.134C114.721 62.2771 124.574 65.057 135.016 68.0141L135.149 68.0521L135.136 68.1915C135.079 68.755 135.009 69.3629 134.946 69.9708C134.724 72.0795 134.503 74.1691 134.294 76.1321L134.275 76.2967L134.11 76.2777C129.697 75.7902 125.397 75.3216 121.262 74.8657C119.191 74.6377 117.165 74.4161 115.183 74.1944C113.195 73.9918 111.257 73.7955 109.364 73.6055C107.47 73.3966 105.634 73.1813 103.855 72.9216C102.075 72.662 100.347 72.3328 98.7572 71.7375C97.1615 71.155 95.7367 70.3191 94.4576 69.4326C93.1721 68.5397 92.007 67.6089 90.9115 66.6907C86.5739 62.9863 83.3888 59.6809 81.1788 57.4266C80.0833 56.2931 79.2412 55.4003 78.6776 54.7924C78.4053 54.4948 78.1963 54.2605 78.0444 54.0958C77.9051 53.9375 77.8354 53.8489 77.8354 53.8489C77.8354 53.8489 77.9177 53.9185 78.0634 54.0705C78.2217 54.2288 78.437 54.4568 78.7219 54.7481C79.3108 55.3496 80.1657 56.2235 81.2611 57.3443C83.4964 59.5733 86.7069 62.8534 91.0508 66.5261C92.1463 67.4316 93.3178 68.3561 94.5969 69.2363C95.8697 70.1165 97.2754 70.9333 98.8458 71.4969C100.416 72.0795 102.12 72.3961 103.899 72.6494C105.672 72.9027 107.508 73.118 109.402 73.3206C111.295 73.5106 113.233 73.7005 115.221 73.8968C117.203 74.1121 119.236 74.3337 121.3 74.5554C125.435 75.005 129.735 75.4736 134.155 75.9548L133.971 76.1004C134.18 74.1374 134.401 72.0478 134.623 69.9392C134.686 69.3313 134.75 68.7234 134.813 68.1598L134.933 68.3371C124.491 65.3736 114.645 62.5747 106.058 60.1368H106.071C105.324 59.9975 104.729 59.5289 104.222 59.0667C103.709 58.5791 103.247 58.1232 102.721 57.6862C101.708 56.7997 100.746 55.8942 99.8147 55.0077C97.9657 53.2283 96.2433 51.4996 94.6412 49.8532C93.0455 48.2068 91.5701 46.6428 90.2276 45.1674C88.8789 43.6983 87.7454 42.2609 86.5486 41.1274C85.9597 40.5511 85.3771 40.0319 84.8009 39.576C84.5096 39.3543 84.2246 39.139 83.9334 38.9681C83.6484 38.7971 83.3191 38.7211 83.0152 38.6451C81.7614 38.4045 80.6469 38.4868 79.7731 38.5945C78.8929 38.7148 78.2343 38.9047 77.8164 39.0947C77.3985 39.2847 77.2275 39.4557 77.2148 39.443L77.2212 39.4367Z" fill="#46474E" style="fill:#46474E;fill:color(display-p3 0.2745 0.2784 0.3059);fill-opacity:1;"/>
<path d="M84.7926 12.2185L86.268 33.1023C86.5086 36.5091 89.3455 39.1559 92.7649 39.1559C96.5263 39.1559 99.5088 35.9708 99.2618 32.2158C99.1288 30.2274 99.0148 28.6001 99.0148 28.6001C99.0148 28.6001 104.068 27.8149 104.131 22.7617C104.169 19.8425 103.663 13.219 103.232 8.14053C102.941 4.70844 100.066 2.07422 96.6212 2.07422H93.5691C88.307 2.3845 84.343 6.96906 84.7926 12.2185Z" fill="#FFBE9D" style="fill:#FFBE9D;fill:color(display-p3 1.0000 0.7451 0.6157);fill-opacity:1;"/>
<path d="M99.0216 28.5287C99.0216 28.5287 95.8238 28.7883 92.4297 26.6543C92.4297 26.6543 93.9874 30.2953 99.0342 29.8394L99.0216 28.5287Z" fill="#FFA469" style="fill:#FFA469;fill:color(display-p3 1.0000 0.6431 0.4118);fill-opacity:1;"/>
<path d="M102.093 14.6453C102.105 15.0252 101.795 15.3545 101.396 15.3735C100.997 15.3925 100.668 15.1012 100.649 14.7213C100.636 14.3413 100.946 14.0121 101.345 13.9931C101.744 13.9741 102.08 14.2654 102.093 14.6453Z" fill="#46474E" style="fill:#46474E;fill:color(display-p3 0.2745 0.2784 0.3059);fill-opacity:1;"/>
<path d="M102.358 13.2169C102.269 13.3119 101.724 12.9066 100.946 12.9066C100.167 12.9003 99.5968 13.2992 99.5144 13.2042C99.4701 13.1599 99.5651 12.9953 99.8121 12.8116C100.059 12.6343 100.471 12.457 100.958 12.457C101.439 12.457 101.851 12.6407 102.085 12.818C102.326 13.0016 102.408 13.1726 102.364 13.2106L102.358 13.2169Z" fill="#46474E" style="fill:#46474E;fill:color(display-p3 0.2745 0.2784 0.3059);fill-opacity:1;"/>
<path d="M94.7957 14.6336C94.8084 15.0135 94.4981 15.3428 94.0991 15.3618C93.7002 15.3808 93.3709 15.0895 93.3519 14.7096C93.3393 14.3296 93.6496 14.0003 94.0485 13.9813C94.4474 13.9624 94.7767 14.2536 94.7957 14.6336Z" fill="#46474E" style="fill:#46474E;fill:color(display-p3 0.2745 0.2784 0.3059);fill-opacity:1;"/>
<path d="M94.7208 13.3575C94.6321 13.4525 94.0812 13.0472 93.3087 13.0472C92.5298 13.0409 91.9599 13.4398 91.8776 13.3449C91.8396 13.3005 91.9282 13.1359 92.1752 12.9523C92.4222 12.775 92.8338 12.5977 93.3213 12.5977C93.8026 12.5977 94.2142 12.7813 94.4485 12.9586C94.6891 13.1422 94.7651 13.3132 94.7271 13.3512L94.7208 13.3575Z" fill="#46474E" style="fill:#46474E;fill:color(display-p3 0.2745 0.2784 0.3059);fill-opacity:1;"/>
<path d="M97.5377 19.1229C97.5377 19.0785 98.019 18.9962 98.7979 18.8949C98.9942 18.8759 99.1841 18.8379 99.2158 18.6986C99.2601 18.553 99.1778 18.344 99.0828 18.1097C98.8992 17.6284 98.7029 17.1282 98.4939 16.5963C97.677 14.4433 97.0881 12.6766 97.1768 12.645C97.2655 12.6133 97.9937 14.3293 98.8105 16.4823C99.0068 17.0142 99.1968 17.5208 99.3741 18.0021C99.4501 18.23 99.5767 18.4833 99.4754 18.7809C99.4248 18.9266 99.2791 19.0342 99.1525 19.0722C99.0258 19.1102 98.9118 19.1102 98.8169 19.1165C98.0317 19.1609 97.5377 19.1609 97.5377 19.1165V19.1229Z" fill="#46474E" style="fill:#46474E;fill:color(display-p3 0.2745 0.2784 0.3059);fill-opacity:1;"/>
<path d="M95.2516 19.6642C95.3783 19.6579 95.3783 20.5001 96.1001 21.1016C96.822 21.7032 97.7212 21.6082 97.7275 21.7222C97.7402 21.7728 97.5249 21.8868 97.145 21.8995C96.7714 21.9122 96.2268 21.7918 95.7899 21.4246C95.3466 21.0573 95.163 20.5697 95.1313 20.2214C95.0996 19.8668 95.1946 19.6579 95.2516 19.6642Z" fill="#46474E" style="fill:#46474E;fill:color(display-p3 0.2745 0.2784 0.3059);fill-opacity:1;"/>
<path d="M94.9228 10.3143C94.8468 10.5232 94.0679 10.4282 93.1624 10.5359C92.2506 10.6245 91.516 10.8968 91.3957 10.7069C91.3387 10.6182 91.4717 10.4156 91.7693 10.2129C92.0606 10.0103 92.5355 9.81401 93.0801 9.75068C93.6247 9.69369 94.1313 9.77602 94.4605 9.91532C94.7961 10.0483 94.9608 10.2129 94.9291 10.3143H94.9228Z" fill="#46474E" style="fill:#46474E;fill:color(display-p3 0.2745 0.2784 0.3059);fill-opacity:1;"/>
<path d="M102.07 10.9647C101.931 11.142 101.399 10.9584 100.753 10.952C100.107 10.9204 99.5628 11.0723 99.4425 10.8887C99.3855 10.8 99.4742 10.6227 99.7085 10.4581C99.9428 10.2935 100.335 10.1542 100.779 10.1668C101.222 10.1795 101.602 10.3378 101.83 10.5214C102.058 10.7051 102.134 10.8824 102.07 10.971V10.9647Z" fill="#46474E" style="fill:#46474E;fill:color(display-p3 0.2745 0.2784 0.3059);fill-opacity:1;"/>
<path d="M86.4939 16.0145C86.4052 15.9765 83.0238 14.9886 83.1314 18.4461C83.2391 21.9035 86.6901 21.0803 86.6901 20.979C86.6901 20.8776 86.4939 16.0145 86.4939 16.0145Z" fill="#FFBE9D" style="fill:#FFBE9D;fill:color(display-p3 1.0000 0.7451 0.6157);fill-opacity:1;"/>
<path d="M85.5944 19.702C85.5944 19.702 85.5375 19.7463 85.4361 19.797C85.3412 19.8476 85.1702 19.8793 84.9866 19.8223C84.6193 19.702 84.29 19.1321 84.252 18.5052C84.233 18.1886 84.29 17.891 84.3913 17.6377C84.4863 17.3844 84.6446 17.2008 84.8283 17.1628C85.0119 17.1121 85.1449 17.2198 85.1892 17.3147C85.2399 17.4097 85.2208 17.4794 85.2398 17.4857C85.2525 17.4921 85.3095 17.4224 85.2778 17.2831C85.2588 17.2134 85.2208 17.1374 85.1322 17.0678C85.0499 17.0045 84.9232 16.9728 84.7966 16.9918C84.5306 17.0171 84.2963 17.2704 84.1823 17.549C84.0557 17.8277 83.986 18.1633 84.005 18.5179C84.0494 19.2144 84.4293 19.854 84.9296 19.9806C85.1765 20.0376 85.3728 19.9553 85.4741 19.873C85.5755 19.7843 85.5945 19.7083 85.5818 19.702H85.5944Z" fill="#FFA469" style="fill:#FFA469;fill:color(display-p3 1.0000 0.6431 0.4118);fill-opacity:1;"/>
<path d="M84.576 15.9034C85.1016 15.7768 86.0134 16.2644 86.2414 16.7583C86.4693 17.2522 86.5137 17.8094 86.7416 18.3034C86.9632 18.7973 87.4698 19.2405 88.0017 19.1202C88.3627 19.0316 88.6286 18.696 88.7236 18.3287C88.8186 17.9677 88.7806 17.5878 88.7363 17.2142C88.5336 15.5995 88.1917 13.9974 88.1284 12.3764C88.0651 10.749 88.293 9.06459 89.1479 7.67783C90.0027 6.29106 91.5668 5.27156 93.1879 5.40454C94.2643 5.49319 95.2458 6.05043 96.316 6.20241C97.5824 6.37971 98.9186 5.93012 99.8241 5.03094C99.9381 4.91696 100.483 4.56236 100.483 4.56236C100.483 4.48004 100.407 3.75816 100.122 3.4922C98.0067 1.53553 94.1884 0.990956 91.3958 1.69384C88.597 2.39672 85.9754 4.37239 84.7723 6.99394C83.5692 9.6155 83.9238 13.2565 84.5887 15.9098" fill="#46474E" style="fill:#46474E;fill:color(display-p3 0.2745 0.2784 0.3059);fill-opacity:1;"/>
<path d="M103.289 7.36699C103.289 7.36699 90.0294 3.09905 84.2924 14.5731C84.2924 14.5731 83.4375 11.7046 83.4375 10.1659C83.4375 9.14003 84.0517 3.01673 90.3523 1.09173C90.3523 1.09173 99.8444 -2.53033 103.295 7.37333L103.289 7.36699Z" fill="#FFA469" style="fill:#FFA469;fill:color(display-p3 1.0000 0.6431 0.4118);fill-opacity:1;"/>
<path d="M91.892 7.66213C92.3605 8.422 93.1964 8.93491 94.0829 9.01723C94.9694 9.09955 95.8876 8.73861 96.4828 8.08005C96.7425 8.73228 97.4454 9.18187 98.1482 9.14387C98.8511 9.10588 99.5033 8.58664 99.6933 7.90908C100.08 8.28269 100.478 8.66895 100.985 8.85259C101.492 9.03623 102.125 8.96657 102.461 8.54231C102.796 8.11172 102.701 7.45949 102.372 7.02257C102.043 6.58564 101.53 6.32602 101.029 6.11705C99.4527 5.4585 97.7176 5.12922 96.0269 5.35718C94.3362 5.58515 92.6962 6.40834 91.6387 7.74444" fill="#46474E" style="fill:#46474E;fill:color(display-p3 0.2745 0.2784 0.3059);fill-opacity:1;"/>
<path d="M84.8438 13.2283C86.8131 10.2205 89.5233 7.73192 92.5691 5.82591C95.6149 3.9199 100.655 2.03922 104.132 1.11471C105.177 0.83609 106.259 0.595465 107.323 0.7791C108.387 0.962736 109.426 1.67195 109.692 2.71677C110.021 4.02755 107.697 6.04754 106.608 6.83907C105.519 7.63694 103.29 8.80207 103.29 8.80207C103.29 8.80207 103.321 6.37049 99.4333 5.87024C94.1458 5.18635 84.8501 13.222 84.8501 13.222L84.8438 13.2283Z" fill="#FFA469" style="fill:#FFA469;fill:color(display-p3 1.0000 0.6431 0.4118);fill-opacity:1;"/>
<path d="M106.614 80.3447C106.614 80.3447 106.525 80.636 106.266 81.1172C106.012 81.5985 105.576 82.2634 104.923 82.9916C103.632 84.4607 101.339 86.0501 98.4834 86.9302C95.6276 87.8104 92.9174 87.9687 90.986 88.051C90.0172 88.089 89.232 88.0954 88.6938 88.0954C88.1492 88.0954 87.8516 88.0827 87.8516 88.0574C87.8516 88.032 88.1492 88.0067 88.6874 87.9687C89.2953 87.9307 90.0615 87.8801 90.9734 87.8231C92.892 87.6838 95.5769 87.4811 98.3885 86.62C101.194 85.7524 103.454 84.2327 104.759 82.8333C106.088 81.4402 106.557 80.3067 106.62 80.3447H106.614Z" fill="#46474E" style="fill:#46474E;fill:color(display-p3 0.2745 0.2784 0.3059);fill-opacity:1;"/>
<path d="M142.442 159.336C142.442 159.336 142.417 159.273 142.392 159.14C142.36 158.988 142.322 158.798 142.278 158.557C142.183 158.025 142.043 157.272 141.872 156.309C141.53 154.333 141.036 151.516 140.435 148.039C139.251 141.036 137.617 131.392 135.812 120.741C135.008 115.922 134.242 111.306 133.539 107.095L133.704 107.221C126.327 107.76 120.013 108.222 115.524 108.551C113.307 108.703 111.541 108.823 110.306 108.906C109.717 108.937 109.255 108.969 108.913 108.988C108.767 108.988 108.647 109.001 108.552 109.001C108.47 109.001 108.432 109.001 108.432 109.001C108.432 109.001 108.47 108.988 108.552 108.975C108.647 108.963 108.767 108.95 108.907 108.937C109.242 108.906 109.704 108.861 110.293 108.804C111.528 108.697 113.295 108.551 115.505 108.361C119.988 108.007 126.295 107.5 133.672 106.911L133.811 106.898L133.837 107.038C134.546 111.242 135.325 115.859 136.135 120.677C137.902 131.335 139.504 140.985 140.663 147.995C141.226 151.478 141.682 154.302 141.999 156.277C142.145 157.24 142.265 157.993 142.347 158.532C142.379 158.779 142.411 158.969 142.43 159.121C142.449 159.254 142.455 159.323 142.449 159.323L142.442 159.336Z" fill="#65666D" style="fill:#65666D;fill:color(display-p3 0.3961 0.4000 0.4275);fill-opacity:1;"/>
<path d="M137.947 102.555C138.004 102.631 136.902 103.58 135.642 104.86C134.382 106.132 133.451 107.259 133.375 107.196C133.306 107.145 134.129 105.917 135.408 104.625C136.681 103.327 137.896 102.485 137.947 102.548V102.555Z" fill="#65666D" style="fill:#65666D;fill:color(display-p3 0.3961 0.4000 0.4275);fill-opacity:1;"/>
<path d="M99.1394 32.6695C99.1394 32.6695 99.1774 32.7392 99.2154 32.8785C99.2597 33.0178 99.2977 33.2268 99.3357 33.499C99.3991 34.0436 99.3674 34.8668 99.0255 35.804C98.6835 36.7285 98.0186 37.767 96.9421 38.5459C95.872 39.3247 94.3902 39.73 92.8768 39.6287C91.3571 39.5274 89.964 38.9575 88.9318 38.1533C87.887 37.3554 87.1715 36.3929 86.6902 35.538C86.2153 34.6705 85.962 33.917 85.8353 33.3851C85.772 33.1191 85.7277 32.9102 85.7087 32.7708C85.6897 32.6315 85.6834 32.5555 85.696 32.5492C85.7657 32.5239 85.924 33.7587 86.8992 35.4241C87.3931 36.2409 88.1086 37.1591 89.1218 37.9126C90.1223 38.6725 91.4584 39.2044 92.9085 39.3057C94.3522 39.4007 95.7517 39.0208 96.7775 38.2989C97.8097 37.5834 98.4619 36.6019 98.8228 35.7217C99.1711 34.8352 99.2471 34.0436 99.2218 33.5117C99.2028 32.9735 99.1204 32.6822 99.1521 32.6759L99.1394 32.6695Z" fill="#46474E" style="fill:#46474E;fill:color(display-p3 0.2745 0.2784 0.3059);fill-opacity:1;"/>
<path d="M108.067 60.3226C108.067 60.3226 107.998 60.0883 107.935 59.664C107.865 59.1637 107.776 58.5622 107.681 57.853C107.472 56.2383 107.2 54.1613 106.902 51.869C106.617 49.526 106.389 47.4047 106.25 45.866C106.18 45.0935 106.13 44.4729 106.104 44.0423C106.079 43.6117 106.073 43.3711 106.098 43.3711C106.123 43.3711 106.168 43.6054 106.231 44.0297C106.301 44.5299 106.383 45.1315 106.478 45.8407C106.681 47.4554 106.94 49.5324 107.225 51.831C107.51 54.1676 107.757 56.2889 107.909 57.8276C107.985 58.6002 108.036 59.2207 108.061 59.6513C108.086 60.0819 108.093 60.3226 108.067 60.3226Z" fill="#46474E" style="fill:#46474E;fill:color(display-p3 0.2745 0.2784 0.3059);fill-opacity:1;"/>
</svg>
