<svg width="362" height="335" viewBox="0 0 362 335" fill="none" xmlns="http://www.w3.org/2000/svg">
<g clip-path="url(#clip0_2045_1502)">
<path d="M206.458 189.083C181.55 188.887 159.009 188.713 142.669 188.582C134.517 188.552 127.923 188.526 123.338 188.504C121.069 188.508 119.303 188.513 118.083 188.513C117.496 188.517 117.039 188.526 116.717 188.526C116.411 188.53 116.25 188.539 116.25 188.547C116.25 188.556 116.406 188.565 116.717 188.574C117.044 188.578 117.496 188.587 118.083 188.6C119.303 188.613 121.069 188.63 123.338 188.652C127.917 188.674 134.517 188.7 142.669 188.739C159.009 188.748 181.55 188.761 206.458 188.774C231.355 188.774 253.901 188.8 270.22 188.896C278.383 188.944 284.988 189.009 289.552 189.079C291.831 189.114 293.607 189.153 294.806 189.192C296.006 189.232 296.639 189.271 296.639 189.306C296.639 189.341 296.006 189.375 294.806 189.402C293.607 189.428 291.831 189.454 289.552 189.467C284.988 189.502 278.383 189.51 270.22 189.489C253.901 189.449 231.355 189.288 206.458 189.079V189.083Z" fill="#FFA469" style="fill:#FFA469;fill:color(display-p3 1.0000 0.6431 0.4118);fill-opacity:1;"/>
<path d="M213.223 197.247C183.742 192.047 157.058 187.341 137.716 183.926C128.063 182.277 120.243 180.938 114.815 180.012C112.123 179.572 110.029 179.234 108.583 178.997C107.885 178.889 107.343 178.808 106.957 178.754C106.589 178.7 106.402 178.686 106.402 178.693C106.402 178.707 106.583 178.747 106.951 178.821C107.337 178.896 107.867 178.997 108.565 179.133C110.01 179.389 112.098 179.768 114.784 180.248C120.211 181.181 128.026 182.527 137.678 184.183C157.046 187.409 183.767 191.858 213.298 196.773C242.817 201.662 269.538 206.138 288.868 209.499C298.533 211.176 306.347 212.575 311.744 213.583C314.442 214.09 316.536 214.496 317.95 214.786C319.365 215.077 320.106 215.266 320.094 215.321C320.088 215.375 319.327 215.307 317.9 215.111C316.467 214.922 314.361 214.604 311.65 214.185C306.229 213.339 298.396 212.055 288.731 210.418C269.388 207.153 242.698 202.467 213.236 197.24L213.223 197.247Z" fill="#FFA469" style="fill:#FFA469;fill:color(display-p3 1.0000 0.6431 0.4118);fill-opacity:1;"/>
<path d="M204.66 201.137C181.092 192.765 159.767 185.188 144.309 179.699C136.583 177.003 130.333 174.814 125.991 173.302C123.835 172.568 122.156 171.999 120.995 171.604C120.435 171.417 120 171.276 119.689 171.181C119.394 171.09 119.243 171.045 119.238 171.056C119.238 171.068 119.383 171.13 119.668 171.243C119.974 171.355 120.399 171.513 120.954 171.722C122.104 172.134 123.778 172.738 125.918 173.505C130.261 175.028 136.51 177.217 144.232 179.919C159.736 185.262 181.128 192.624 204.769 200.764C228.404 208.883 249.791 216.267 265.244 221.717C272.97 224.442 279.215 226.676 283.521 228.25C285.672 229.04 287.34 229.666 288.465 230.106C289.589 230.546 290.175 230.8 290.159 230.845C290.144 230.89 289.532 230.726 288.382 230.371C287.231 230.016 285.537 229.463 283.366 228.741C279.018 227.296 272.748 225.147 265.011 222.462C249.532 217.091 228.197 209.531 204.65 201.142L204.66 201.137Z" fill="#FFA469" style="fill:#FFA469;fill:color(display-p3 1.0000 0.6431 0.4118);fill-opacity:1;"/>
<path d="M208.924 210.732C182.434 196.12 158.461 182.901 141.087 173.32C132.394 168.587 125.359 164.753 120.48 162.089C118.049 160.791 116.161 159.777 114.853 159.08C114.217 158.749 113.731 158.499 113.382 158.316C113.052 158.147 112.877 158.066 112.871 158.08C112.871 158.093 113.027 158.195 113.351 158.384C113.694 158.58 114.173 158.85 114.79 159.209C116.087 159.925 117.962 160.974 120.368 162.312C125.253 164.976 132.282 168.817 140.969 173.557C158.43 182.976 182.515 195.965 209.13 210.32C235.744 224.647 259.823 237.657 277.203 247.19C285.896 251.951 292.906 255.845 297.742 258.57C300.16 259.936 302.023 261.004 303.282 261.748C304.54 262.492 305.189 262.911 305.164 262.958C305.139 263.013 304.441 262.695 303.138 262.039C301.836 261.383 299.923 260.396 297.474 259.104C292.57 256.521 285.509 252.735 276.798 248.009C259.381 238.563 235.389 225.357 208.924 210.732Z" fill="#FFA469" style="fill:#FFA469;fill:color(display-p3 1.0000 0.6431 0.4118);fill-opacity:1;"/>
<path d="M205.327 216.788C181.33 197.991 159.613 180.979 143.866 168.653C135.983 162.54 129.602 157.597 125.171 154.162C122.965 152.479 121.245 151.167 120.061 150.261C119.482 149.828 119.039 149.497 118.721 149.26C118.416 149.037 118.26 148.929 118.254 148.943C118.248 148.949 118.391 149.078 118.684 149.321C118.996 149.571 119.426 149.923 119.986 150.376C121.158 151.302 122.859 152.641 125.04 154.359C129.471 157.793 135.846 162.75 143.722 168.862C159.569 181.04 181.436 197.842 205.595 216.41C229.755 234.943 251.609 251.766 267.362 264.045C275.239 270.185 281.595 275.181 285.957 278.67C288.138 280.415 289.827 281.781 290.961 282.727C292.095 283.667 292.675 284.188 292.637 284.235C292.606 284.282 291.964 283.856 290.774 282.991C289.584 282.132 287.845 280.841 285.614 279.164C281.153 275.81 274.74 270.901 266.839 264.796C251.036 252.591 229.3 235.599 205.327 216.788Z" fill="#FFA469" style="fill:#FFA469;fill:color(display-p3 1.0000 0.6431 0.4118);fill-opacity:1;"/>
<path d="M200.873 222.146C179.935 199.644 160.992 179.278 147.264 164.517C140.378 157.188 134.807 151.258 130.937 147.14C129.005 145.112 127.503 143.536 126.463 142.448C125.958 141.927 125.565 141.528 125.285 141.244C125.017 140.974 124.874 140.845 124.867 140.852C124.861 140.859 124.986 141.014 125.235 141.298C125.503 141.596 125.877 142.008 126.369 142.549C127.391 143.651 128.868 145.254 130.775 147.309C134.645 151.434 140.209 157.37 147.089 164.7C160.948 179.332 180.066 199.515 201.197 221.815C222.329 244.088 241.441 264.291 255.187 279.005C262.061 286.361 267.601 292.338 271.402 296.504C273.302 298.586 274.767 300.216 275.745 301.331C276.724 302.447 277.222 303.055 277.178 303.096C277.141 303.137 276.568 302.609 275.521 301.561C274.474 300.52 272.941 298.958 270.991 296.929C267.083 292.879 261.469 286.983 254.564 279.654C240.749 265.008 221.786 244.656 200.88 222.146H200.873Z" fill="#FFA469" style="fill:#FFA469;fill:color(display-p3 1.0000 0.6431 0.4118);fill-opacity:1;"/>
<path d="M195.685 226.728C178.324 201.061 162.614 177.842 151.223 161.005C145.503 152.635 140.873 145.859 137.657 141.16C136.049 138.841 134.797 137.036 133.931 135.791C133.507 135.196 133.183 134.737 132.946 134.405C132.722 134.094 132.603 133.939 132.591 133.946C132.578 133.952 132.684 134.121 132.89 134.446C133.114 134.784 133.42 135.257 133.825 135.866C134.672 137.123 135.894 138.949 137.47 141.295C140.679 146.001 145.309 152.777 151.024 161.154C162.558 177.876 178.467 200.953 196.046 226.451C213.638 251.922 229.535 275.012 240.945 291.801C246.653 300.193 251.239 307.008 254.38 311.748C255.95 314.115 257.153 315.961 257.957 317.225C258.761 318.489 259.159 319.172 259.116 319.206C259.072 319.24 258.586 318.625 257.701 317.421C256.816 316.217 255.539 314.426 253.906 312.106C250.641 307.468 245.967 300.72 240.228 292.349C228.743 275.614 213.015 252.402 195.679 226.735L195.685 226.728Z" fill="#FFA469" style="fill:#FFA469;fill:color(display-p3 1.0000 0.6431 0.4118);fill-opacity:1;"/>
<path d="M189.882 230.41C176.54 202.201 164.469 176.669 155.714 158.163C151.302 148.954 147.738 141.502 145.258 136.323C144.011 133.767 143.045 131.779 142.372 130.407C142.042 129.751 141.787 129.244 141.606 128.878C141.431 128.534 141.332 128.365 141.326 128.371C141.313 128.371 141.388 128.561 141.544 128.912C141.712 129.284 141.949 129.798 142.254 130.474C142.902 131.86 143.843 133.862 145.052 136.438C147.526 141.617 151.09 149.075 155.496 158.285C164.407 176.703 176.702 202.12 190.287 230.201C203.884 258.255 216.166 283.685 224.946 302.151C229.34 311.38 232.86 318.872 235.26 324.065C236.456 326.661 237.378 328.69 237.983 330.069C238.587 331.449 238.88 332.192 238.83 332.213C238.78 332.24 238.394 331.55 237.696 330.218C237.004 328.886 236.001 326.905 234.736 324.342C232.2 319.224 228.579 311.786 224.155 302.57C215.294 284.145 203.198 258.626 189.882 230.417V230.41Z" fill="#FFA469" style="fill:#FFA469;fill:color(display-p3 1.0000 0.6431 0.4118);fill-opacity:1;"/>
<path d="M183.607 233.067C174.64 202.992 166.527 175.776 160.644 156.053C157.665 146.228 155.254 138.277 153.577 132.752C152.73 130.021 152.069 127.898 151.608 126.43C151.378 125.727 151.203 125.179 151.079 124.794C150.954 124.429 150.885 124.24 150.873 124.246C150.861 124.246 150.91 124.442 151.01 124.821C151.122 125.213 151.278 125.768 151.477 126.478C151.914 127.952 152.543 130.088 153.347 132.827C155.017 138.351 157.422 146.309 160.401 156.134C166.452 175.803 174.802 202.938 184.031 232.925C193.279 262.886 201.61 290.034 207.524 309.73C210.484 319.575 212.846 327.554 214.441 333.085C215.238 335.85 215.843 338 216.229 339.467C216.622 340.935 216.803 341.712 216.746 341.726C216.697 341.746 216.41 341.002 215.924 339.569C215.438 338.135 214.746 336.012 213.874 333.274C212.129 327.797 209.667 319.852 206.67 310.021C200.669 290.358 192.531 263.143 183.595 233.081L183.607 233.067Z" fill="#FFA469" style="fill:#FFA469;fill:color(display-p3 1.0000 0.6431 0.4118);fill-opacity:1;"/>
<path d="M177.006 234.672C172.638 203.487 168.687 175.264 165.82 154.804C164.344 144.607 163.147 136.352 162.318 130.618C161.888 127.778 161.552 125.574 161.321 124.052C161.203 123.315 161.109 122.754 161.041 122.348C160.972 121.963 160.935 121.767 160.922 121.774C160.91 121.774 160.922 121.976 160.972 122.362C161.022 122.768 161.097 123.336 161.19 124.079C161.402 125.607 161.701 127.818 162.094 130.665C162.923 136.399 164.113 144.655 165.577 154.851C168.618 175.278 172.818 203.46 177.455 234.604C182.116 265.728 186.291 293.917 189.195 314.35C190.653 324.567 191.793 332.836 192.541 338.557C192.915 341.417 193.189 343.641 193.358 345.156C193.526 346.671 193.588 347.469 193.532 347.475C193.476 347.482 193.314 346.704 193.046 345.21C192.778 343.716 192.417 341.505 191.962 338.658C191.058 332.958 189.812 324.702 188.316 314.499C185.319 294.086 181.349 265.863 177.006 234.685V234.672Z" fill="#FFA469" style="fill:#FFA469;fill:color(display-p3 1.0000 0.6431 0.4118);fill-opacity:1;"/>
<path d="M170.265 235.139C170.533 203.617 170.776 175.089 170.957 154.413C171 144.094 171.031 135.744 171.056 129.949C171.05 127.076 171.044 124.844 171.038 123.296C171.025 122.552 171.019 121.977 171.013 121.565C171.006 121.173 170.994 120.977 170.981 120.977C170.969 120.977 170.957 121.173 170.944 121.565C170.938 121.977 170.925 122.552 170.907 123.296C170.888 124.837 170.863 127.076 170.832 129.949C170.807 135.751 170.77 144.101 170.72 154.413C170.72 175.089 170.72 203.617 170.72 235.146C170.738 266.655 170.72 295.189 170.583 315.845C170.52 326.17 170.433 334.534 170.327 340.309C170.277 343.196 170.221 345.441 170.165 346.962C170.109 348.483 170.053 349.281 170.003 349.281C169.947 349.281 169.897 348.483 169.86 346.962C169.816 345.441 169.785 343.196 169.754 340.309C169.704 334.534 169.685 326.17 169.71 315.845C169.754 295.189 169.978 266.655 170.265 235.146V235.139Z" fill="#FFA469" style="fill:#FFA469;fill:color(display-p3 1.0000 0.6431 0.4118);fill-opacity:1;"/>
<path d="M163.509 234.525C168.42 203.428 172.869 175.287 176.091 154.887C177.648 144.704 178.913 136.462 179.792 130.734C180.21 127.895 180.527 125.684 180.752 124.162C180.851 123.425 180.926 122.857 180.982 122.452C181.032 122.066 181.051 121.863 181.038 121.863C181.026 121.863 180.982 122.059 180.914 122.438C180.845 122.844 180.746 123.405 180.621 124.142C180.378 125.663 180.023 127.868 179.562 130.701C178.683 136.428 177.412 144.67 175.848 154.853C172.8 175.28 168.6 203.462 163.958 234.606C159.34 265.736 155.115 293.919 151.943 314.305C150.361 324.494 149.039 332.737 148.086 338.43C147.612 341.277 147.226 343.481 146.946 344.975C146.665 346.47 146.491 347.247 146.441 347.24C146.385 347.234 146.453 346.436 146.634 344.921C146.815 343.413 147.114 341.189 147.513 338.329C148.31 332.615 149.526 324.352 151.071 314.156C154.156 293.756 158.586 265.608 163.515 234.532L163.509 234.525Z" fill="#FFA469" style="fill:#FFA469;fill:color(display-p3 1.0000 0.6431 0.4118);fill-opacity:1;"/>
<path d="M156.94 232.801C166.437 202.908 175.03 175.861 181.262 156.253C184.322 146.455 186.802 138.524 188.522 133.013C189.357 130.275 190.005 128.152 190.447 126.678C190.653 125.968 190.815 125.42 190.933 125.021C191.039 124.649 191.089 124.453 191.077 124.453C191.064 124.453 190.996 124.636 190.871 125.001C190.74 125.386 190.559 125.927 190.329 126.63C189.861 128.091 189.176 130.207 188.304 132.932C186.577 138.436 184.097 146.367 181.025 156.165C174.968 175.834 166.612 202.969 157.376 232.949C148.166 262.924 139.791 290.058 133.609 309.66C130.519 319.464 127.989 327.382 126.194 332.838C125.297 335.57 124.586 337.686 124.088 339.113C123.589 340.54 123.302 341.284 123.246 341.263C123.197 341.243 123.377 340.472 123.782 339.005C124.187 337.544 124.81 335.401 125.633 332.642C127.272 327.132 129.708 319.173 132.756 309.362C138.85 289.733 147.425 262.667 156.94 232.801Z" fill="#FFA469" style="fill:#FFA469;fill:color(display-p3 1.0000 0.6431 0.4118);fill-opacity:1;"/>
<path d="M150.727 229.991C164.561 202.045 177.086 176.757 186.159 158.426C190.646 149.258 194.273 141.84 196.796 136.681C198.03 134.119 198.984 132.124 199.644 130.745C199.956 130.075 200.199 129.561 200.367 129.189C200.529 128.838 200.604 128.655 200.591 128.648C200.579 128.648 200.486 128.817 200.305 129.156C200.118 129.514 199.862 130.021 199.526 130.677C198.847 132.043 197.856 134.024 196.591 136.566C194.067 141.719 190.428 149.136 185.941 158.298C177.024 176.717 164.723 202.12 151.126 230.201C137.559 258.275 125.234 283.678 116.204 302.009C111.692 311.177 108.01 318.575 105.423 323.673C104.134 326.222 103.118 328.19 102.414 329.522C101.71 330.847 101.317 331.53 101.267 331.509C101.217 331.482 101.516 330.745 102.139 329.373C102.756 328 103.691 325.985 104.919 323.396C107.362 318.223 110.951 310.772 115.431 301.583C124.38 283.205 136.886 257.903 150.733 229.984L150.727 229.991Z" fill="#FFA469" style="fill:#FFA469;fill:color(display-p3 1.0000 0.6431 0.4118);fill-opacity:1;"/>
<path d="M144.997 226.195C162.807 200.873 178.922 177.965 190.606 161.352C196.395 153.035 201.081 146.307 204.334 141.628C205.929 139.302 207.169 137.49 208.029 136.239C208.434 135.63 208.752 135.164 208.977 134.826C209.188 134.501 209.288 134.339 209.282 134.332C209.269 134.325 209.151 134.481 208.92 134.785C208.684 135.11 208.353 135.57 207.923 136.158C207.045 137.395 205.78 139.187 204.147 141.486C200.888 146.158 196.202 152.886 190.407 161.196C178.866 177.917 162.95 200.981 145.359 226.472C127.798 251.964 111.858 275.021 100.224 291.64C94.4098 299.95 89.6738 306.651 86.3649 311.263C84.7135 313.568 83.4174 315.347 82.52 316.543C81.6289 317.74 81.1366 318.349 81.093 318.315C81.0494 318.281 81.4545 317.605 82.2708 316.347C83.0871 315.09 84.3085 313.257 85.8975 310.904C89.0756 306.198 93.7306 299.43 99.5134 291.093C111.073 274.419 127.175 251.49 144.997 226.195Z" fill="#FFA469" style="fill:#FFA469;fill:color(display-p3 1.0000 0.6431 0.4118);fill-opacity:1;"/>
<path d="M139.88 221.511C161.204 199.421 180.503 179.427 194.493 164.937C201.435 157.675 207.062 151.792 210.963 147.708C212.882 145.673 214.378 144.084 215.406 142.989C215.898 142.454 216.279 142.042 216.547 141.744C216.802 141.46 216.927 141.312 216.92 141.305C216.914 141.298 216.771 141.427 216.497 141.697C216.216 141.981 215.824 142.38 215.313 142.894C214.266 143.969 212.745 145.531 210.801 147.539C206.894 151.623 201.267 157.499 194.319 164.754C180.454 179.379 161.329 199.556 140.192 221.849C119.085 244.149 99.936 264.312 85.996 278.822C79.0229 286.077 73.3585 291.926 69.4139 295.929C67.4385 297.93 65.8993 299.479 64.84 300.513C63.7806 301.548 63.2073 302.068 63.1699 302.028C63.1325 301.987 63.6311 301.385 64.6219 300.277C65.6127 299.168 67.0896 297.558 69.0089 295.496C72.8413 291.372 78.4372 285.448 85.3791 278.159C99.2567 263.581 118.55 243.574 139.88 221.511Z" fill="#FFA469" style="fill:#FFA469;fill:color(display-p3 1.0000 0.6431 0.4118);fill-opacity:1;"/>
<path d="M141.55 211.04C161.847 195.794 180.211 181.999 193.526 171.995C200.144 166.971 205.5 162.904 209.222 160.079C211.058 158.667 212.482 157.565 213.465 156.805C213.938 156.434 214.297 156.147 214.562 155.939C214.806 155.742 214.931 155.635 214.926 155.629C214.921 155.624 214.785 155.708 214.531 155.894C214.265 156.091 213.891 156.361 213.408 156.715C212.409 157.458 210.969 158.532 209.113 159.916C205.39 162.735 200.03 166.797 193.411 171.815C180.185 181.942 161.941 195.917 141.778 211.355C121.637 226.805 103.377 240.763 90.0983 250.789C83.4589 255.801 78.0726 259.83 74.324 262.586C72.4522 263.965 70.9913 265.023 69.9878 265.731C68.9896 266.435 68.4489 266.789 68.4229 266.75C68.3969 266.71 68.8804 266.283 69.8371 265.512C70.7885 264.736 72.2079 263.61 74.0432 262.181C77.7138 259.312 83.0482 255.205 89.6668 250.164C102.899 240.077 121.257 226.265 141.555 211.04H141.55Z" fill="#FFA469" style="fill:#FFA469;fill:color(display-p3 1.0000 0.6431 0.4118);fill-opacity:1;"/>
<path d="M132.07 209.92C158.816 195.836 183.013 183.083 200.555 173.847C209.285 169.195 216.352 165.422 221.256 162.805C223.68 161.487 225.562 160.466 226.864 159.763C227.487 159.411 227.967 159.147 228.316 158.951C228.64 158.762 228.802 158.661 228.802 158.654C228.802 158.64 228.621 158.721 228.285 158.884C227.936 159.06 227.444 159.31 226.808 159.634C225.499 160.317 223.599 161.311 221.156 162.589C216.246 165.199 209.179 168.965 200.449 173.61C182.988 183.023 158.897 195.998 132.276 210.346C105.68 224.708 81.5761 237.67 64.0717 246.94C55.3226 251.578 48.2249 255.297 43.2958 257.826C40.8343 259.09 38.915 260.057 37.6064 260.7C36.2978 261.342 35.5998 261.646 35.5749 261.599C35.55 261.545 36.2043 261.139 37.4693 260.402C38.7343 259.672 40.61 258.617 43.0403 257.278C47.8946 254.601 54.9425 250.78 63.6791 246.101C81.1399 236.743 105.337 223.971 132.076 209.913L132.07 209.92Z" fill="#FFA469" style="fill:#FFA469;fill:color(display-p3 1.0000 0.6431 0.4118);fill-opacity:1;"/>
<path d="M136.121 200.284C159.823 192.42 181.277 185.302 196.825 180.144C204.57 177.528 210.839 175.412 215.191 173.941C217.341 173.194 219.014 172.616 220.175 172.218C220.729 172.016 221.159 171.864 221.465 171.752C221.755 171.645 221.9 171.583 221.9 171.572C221.9 171.561 221.745 171.6 221.449 171.69C221.139 171.785 220.703 171.926 220.144 172.1C218.983 172.482 217.3 173.032 215.139 173.745C210.782 175.21 204.513 177.32 196.768 179.93C181.267 185.241 159.875 192.566 136.24 200.661C112.62 208.772 91.2231 216.08 75.7012 221.273C67.9403 223.872 61.6507 225.943 57.2936 227.341C55.1125 228.037 53.4183 228.57 52.263 228.912C51.1077 229.255 50.4963 229.412 50.4808 229.367C50.4652 229.322 51.0507 229.075 52.1801 228.649C53.3095 228.222 54.9829 227.616 57.1382 226.852C61.4538 225.326 67.7175 223.164 75.4681 220.532C90.9641 215.266 112.418 208.126 136.115 200.29L136.121 200.284Z" fill="#FFA469" style="fill:#FFA469;fill:color(display-p3 1.0000 0.6431 0.4118);fill-opacity:1;"/>
<path d="M128.017 196.36C157.585 191.736 184.35 187.55 203.742 184.514C213.413 182.952 221.24 181.681 226.674 180.802C229.366 180.342 231.454 179.991 232.899 179.747C233.597 179.619 234.133 179.524 234.513 179.45C234.875 179.382 235.062 179.335 235.062 179.321C235.062 179.308 234.869 179.321 234.501 179.375C234.115 179.429 233.572 179.504 232.875 179.605C231.429 179.828 229.329 180.146 226.631 180.559C221.197 181.431 213.364 182.695 203.699 184.25C184.331 187.469 157.604 191.918 128.079 196.827C98.5664 201.756 71.8394 206.185 52.4718 209.262C42.788 210.803 34.9425 212.014 29.5148 212.805C26.8041 213.204 24.6916 213.494 23.2584 213.67C21.8251 213.846 21.0711 213.914 21.0586 213.859C21.0524 213.805 21.794 213.623 23.2085 213.346C24.6293 213.062 26.7231 212.676 29.4213 212.203C34.8241 211.249 42.6509 209.924 52.3284 208.342C71.6836 205.171 98.448 200.965 128.004 196.36H128.017Z" fill="#FFA469" style="fill:#FFA469;fill:color(display-p3 1.0000 0.6431 0.4118);fill-opacity:1;"/>
<path d="M134.678 188.711C159.586 188.811 182.126 188.902 198.466 188.969C206.619 188.982 213.213 188.994 217.798 189.002C220.067 188.997 221.832 188.994 223.053 188.992C223.639 188.987 224.096 188.984 224.418 188.982C224.724 188.979 224.885 188.974 224.885 188.969C224.885 188.964 224.73 188.958 224.418 188.953C224.091 188.951 223.639 188.945 223.053 188.938C221.832 188.93 220.067 188.922 217.798 188.909C213.218 188.899 206.619 188.886 198.466 188.871C182.126 188.876 159.586 188.881 134.678 188.889C109.78 188.904 87.2348 188.902 70.915 188.855C62.7526 188.832 56.1478 188.798 51.5837 188.757C49.2991 188.736 47.5285 188.716 46.329 188.695C45.1244 188.677 44.4961 188.654 44.4961 188.633C44.4961 188.613 45.1296 188.592 46.329 188.574C47.5285 188.556 49.3043 188.543 51.5837 188.53C56.1478 188.507 62.7526 188.499 70.915 188.507C87.2348 188.52 109.78 188.602 134.678 188.711Z" fill="#FFA469" style="fill:#FFA469;fill:color(display-p3 1.0000 0.6431 0.4118);fill-opacity:1;"/>
<path d="M128.131 182.115C157.619 187.274 184.308 191.946 203.651 195.334C213.31 196.97 221.124 198.302 226.558 199.222C229.25 199.654 231.344 199.992 232.796 200.229C233.494 200.331 234.036 200.412 234.422 200.473C234.79 200.52 234.977 200.54 234.977 200.533C234.977 200.52 234.796 200.479 234.428 200.405C234.042 200.331 233.506 200.229 232.814 200.094C231.369 199.837 229.281 199.465 226.595 198.985C221.168 198.059 213.347 196.727 203.695 195.084C184.321 191.885 157.594 187.47 128.062 182.595C98.5375 177.747 71.8105 173.311 52.4803 169.971C42.8152 168.308 34.9946 166.922 29.6043 165.921C26.9061 165.421 24.8123 165.015 23.3977 164.724C21.9831 164.433 21.2416 164.251 21.2541 164.19C21.2603 164.136 22.0205 164.203 23.4476 164.393C24.8808 164.582 26.9871 164.893 29.6978 165.312C35.1192 166.151 42.9522 167.429 52.6236 169.051C71.9662 172.297 98.6621 176.942 128.137 182.128L128.131 182.115Z" fill="#FFA469" style="fill:#FFA469;fill:color(display-p3 1.0000 0.6431 0.4118);fill-opacity:1;"/>
<path d="M136.475 176.59C160.043 184.89 181.368 192.404 196.824 197.851C204.547 200.524 210.799 202.692 215.145 204.197C217.3 204.927 218.978 205.494 220.138 205.882C220.698 206.061 221.133 206.202 221.443 206.303C221.739 206.393 221.889 206.438 221.894 206.426C221.894 206.415 221.749 206.353 221.464 206.247C221.159 206.134 220.734 205.977 220.18 205.769C219.024 205.36 217.357 204.764 215.212 204C210.872 202.495 204.62 200.322 196.897 197.638C181.388 192.342 160.001 185.036 136.361 176.967C112.731 168.919 91.3387 161.597 75.8875 156.194C68.1593 153.493 61.9178 151.281 57.6134 149.714C55.4586 148.933 53.7959 148.31 52.6667 147.872C51.5427 147.434 50.9574 147.181 50.973 147.136C50.9885 147.091 51.5997 147.254 52.7496 147.608C53.8995 147.962 55.5933 148.506 57.7636 149.225C62.1094 150.657 68.3821 152.786 76.1206 155.453C91.5977 160.782 112.933 168.279 136.48 176.596L136.475 176.59Z" fill="#FFA469" style="fill:#FFA469;fill:color(display-p3 1.0000 0.6431 0.4118);fill-opacity:1;"/>
<path d="M132.428 168.64C158.937 183.211 182.922 196.403 200.314 205.964C209.007 210.69 216.049 214.511 220.94 217.168C223.371 218.466 225.265 219.474 226.567 220.17C227.203 220.501 227.689 220.752 228.038 220.934C228.375 221.103 228.543 221.184 228.549 221.171C228.549 221.157 228.393 221.056 228.069 220.867C227.727 220.671 227.247 220.4 226.624 220.042C225.327 219.325 223.452 218.284 221.04 216.945C216.155 214.288 209.119 210.454 200.426 205.727C182.959 196.336 158.856 183.374 132.222 169.059C105.595 154.772 81.4975 141.79 64.1053 132.283C55.4123 127.53 48.3893 123.649 43.5537 120.93C41.1358 119.571 39.2664 118.503 38.0076 117.759C36.7488 117.015 36.1008 116.603 36.1257 116.549C36.1506 116.495 36.8486 116.813 38.1509 117.468C39.4533 118.118 41.3664 119.105 43.8216 120.389C48.7258 122.966 55.7986 126.745 64.5103 131.458C81.9399 140.884 105.944 154.055 132.428 168.64Z" fill="#FFA469" style="fill:#FFA469;fill:color(display-p3 1.0000 0.6431 0.4118);fill-opacity:1;"/>
<path d="M141.764 166.165C161.791 181.742 179.911 195.843 193.049 206.06C199.626 211.123 204.951 215.221 208.645 218.067C210.484 219.464 211.917 220.548 212.91 221.3C213.393 221.654 213.762 221.929 214.027 222.125C214.281 222.31 214.411 222.4 214.421 222.389C214.427 222.383 214.307 222.277 214.063 222.075C213.803 221.867 213.445 221.581 212.977 221.205C212 220.441 210.582 219.33 208.764 217.904C205.07 215.052 199.746 210.949 193.174 205.886C179.947 195.793 161.708 181.871 141.546 166.485C121.384 151.121 103.15 137.183 90.0067 127.006C83.435 121.92 78.131 117.778 74.4893 114.887C72.6658 113.438 71.258 112.305 70.3177 111.524C69.3722 110.744 68.8891 110.312 68.9151 110.272C68.941 110.233 69.4761 110.587 70.4684 111.3C71.4606 112.013 72.9152 113.079 74.775 114.471C78.4946 117.256 83.8506 121.32 90.4431 126.377C103.633 136.493 121.769 150.577 141.769 166.165H141.764Z" fill="#FFA469" style="fill:#FFA469;fill:color(display-p3 1.0000 0.6431 0.4118);fill-opacity:1;"/>
<path d="M140.469 157.198C161.432 179.674 180.401 200.012 194.148 214.759C201.04 222.076 206.623 228.005 210.493 232.116C212.425 234.138 213.933 235.714 214.973 236.802C215.478 237.323 215.871 237.722 216.151 238.006C216.419 238.276 216.562 238.405 216.569 238.398C216.575 238.391 216.45 238.242 216.201 237.952C215.933 237.654 215.553 237.242 215.067 236.701C214.045 235.599 212.562 233.996 210.661 231.941C206.791 227.823 201.214 221.893 194.322 214.57C180.445 199.958 161.301 179.802 140.145 157.529C118.983 135.284 99.8521 115.107 86.0867 100.414C79.2008 93.0712 73.6548 87.094 69.8535 82.9356C67.9529 80.8598 66.4885 79.2303 65.5039 78.1146C64.5256 76.9989 64.0271 76.3904 64.0645 76.3498C64.1018 76.3093 64.6751 76.8367 65.722 77.878C66.7752 78.9192 68.3019 80.4812 70.2586 82.5029C74.172 86.5463 79.7928 92.4356 86.7098 99.7517C100.538 114.377 119.525 134.709 140.463 157.191L140.469 157.198Z" fill="#FFA469" style="fill:#FFA469;fill:color(display-p3 1.0000 0.6431 0.4118);fill-opacity:1;"/>
<path d="M150.042 157.974C164.469 179.373 177.521 198.741 186.986 212.776C191.736 219.751 195.587 225.406 198.26 229.328C199.599 231.264 200.638 232.765 201.356 233.803C201.708 234.3 201.982 234.684 202.173 234.96C202.359 235.22 202.457 235.35 202.467 235.344C202.478 235.338 202.39 235.197 202.219 234.926C202.033 234.644 201.78 234.249 201.444 233.741C200.741 232.692 199.723 231.168 198.415 229.215C195.748 225.293 191.902 219.639 187.151 212.658C177.568 198.713 164.35 179.475 149.737 158.211C135.119 136.975 121.911 117.719 112.426 103.718C107.681 96.7205 103.871 91.0376 101.261 87.0873C99.958 85.1121 98.9552 83.5715 98.2884 82.5162C97.6215 81.4608 97.2907 80.8965 97.3269 80.8683C97.3631 80.8401 97.7663 81.3536 98.5003 82.3581C99.2343 83.3627 100.299 84.8581 101.653 86.7882C104.367 90.6539 108.249 96.286 113.02 103.261C122.563 117.217 135.635 136.574 150.037 157.974H150.042Z" fill="#FFA469" style="fill:#FFA469;fill:color(display-p3 1.0000 0.6431 0.4118);fill-opacity:1;"/>
<path d="M151.43 148.958C164.803 177.154 176.911 202.665 185.685 221.158C190.103 230.361 193.68 237.812 196.166 242.985C197.413 245.541 198.385 247.522 199.058 248.894C199.388 249.55 199.644 250.057 199.824 250.423C199.999 250.767 200.098 250.936 200.105 250.93C200.117 250.93 200.042 250.74 199.887 250.389C199.718 250.017 199.482 249.503 199.176 248.827C198.528 247.441 197.581 245.439 196.372 242.87C193.892 237.697 190.315 230.239 185.903 221.037C176.967 202.632 164.647 177.235 151.025 149.168C137.391 121.128 125.083 95.7175 116.278 77.2651C111.872 68.0423 108.345 60.5573 105.94 55.3644C104.737 52.7679 103.821 50.7462 103.211 49.3668C102.606 47.9875 102.307 47.2505 102.357 47.2234C102.407 47.1964 102.793 47.8861 103.491 49.2181C104.189 50.5501 105.186 52.5313 106.457 55.0871C109 60.2057 112.626 67.6366 117.07 76.8459C125.956 95.2577 138.076 120.762 151.424 148.951L151.43 148.958Z" fill="#FFA469" style="fill:#FFA469;fill:color(display-p3 1.0000 0.6431 0.4118);fill-opacity:1;"/>
<path d="M160.03 152.804C167.559 177.819 174.369 200.454 179.309 216.866C181.81 225.035 183.837 231.652 185.244 236.249C185.958 238.522 186.51 240.288 186.896 241.504C187.088 242.089 187.234 242.545 187.338 242.865C187.443 243.169 187.5 243.327 187.51 243.321C187.521 243.321 187.479 243.158 187.396 242.843C187.302 242.517 187.172 242.055 187.005 241.464C186.64 240.238 186.114 238.466 185.431 236.181C184.03 231.585 182.008 224.968 179.512 216.793C174.432 200.431 167.424 177.864 159.676 152.923C151.917 127.998 144.92 105.419 139.954 89.0409C137.469 80.8546 135.483 74.2155 134.15 69.6188C133.483 67.3176 132.972 65.5284 132.644 64.3131C132.315 63.0922 132.164 62.4452 132.206 62.4339C132.248 62.4171 132.487 63.0359 132.894 64.2287C133.3 65.4215 133.879 67.1826 134.613 69.4612C136.077 74.0186 138.141 80.6239 140.663 88.8046C145.701 105.16 152.532 127.795 160.035 152.804H160.03Z" fill="#FFA469" style="fill:#FFA469;fill:color(display-p3 1.0000 0.6431 0.4118);fill-opacity:1;"/>
<path d="M164.302 144.666C168.708 175.844 172.696 204.067 175.582 224.52C177.071 234.717 178.274 242.966 179.115 248.7C179.551 251.533 179.888 253.744 180.124 255.265C180.243 256.002 180.336 256.564 180.405 256.969C180.473 257.355 180.511 257.551 180.523 257.544C180.536 257.544 180.523 257.341 180.473 256.956C180.423 256.55 180.349 255.982 180.255 255.238C180.043 253.71 179.738 251.499 179.345 248.652C178.51 242.919 177.314 234.669 175.831 224.473C172.765 204.046 168.534 175.871 163.86 144.734C159.161 113.617 154.955 85.4278 152.02 65.0079C150.556 54.7979 149.403 46.5284 148.649 40.8014C148.269 37.9412 147.995 35.7167 147.826 34.2021C147.658 32.6942 147.596 31.8964 147.646 31.8829C147.702 31.8761 147.87 32.6537 148.138 34.148C148.406 35.6423 148.774 37.8533 149.228 40.7C150.138 46.4 151.397 54.6491 152.905 64.8591C155.921 85.2723 159.934 113.488 164.315 144.659L164.302 144.666Z" fill="#FFA469" style="fill:#FFA469;fill:color(display-p3 1.0000 0.6431 0.4118);fill-opacity:1;"/>
<path d="M171.148 151.117C170.945 177.4 170.759 201.185 170.627 218.431C170.599 227.034 170.583 233.996 170.566 238.828C170.577 241.224 170.583 243.084 170.588 244.375C170.599 244.995 170.605 245.474 170.61 245.818C170.621 246.145 170.627 246.309 170.638 246.309C170.649 246.309 170.66 246.14 170.671 245.818C170.676 245.474 170.687 244.995 170.704 244.375C170.72 243.09 170.737 241.224 170.764 238.828C170.781 233.99 170.808 227.028 170.835 218.431C170.814 201.191 170.786 177.405 170.753 151.117C170.704 124.845 170.693 101.054 170.786 83.8314C170.83 75.2227 170.901 68.2489 170.984 63.4343C171.028 61.027 171.072 59.1553 171.116 57.8868C171.165 56.6184 171.214 55.9531 171.264 55.9531C171.313 55.9531 171.357 56.6184 171.396 57.8868C171.434 59.1553 171.467 61.027 171.494 63.4343C171.549 68.2489 171.571 75.2227 171.56 83.8314C171.544 101.054 171.379 124.845 171.154 151.117H171.148Z" fill="#FFA469" style="fill:#FFA469;fill:color(display-p3 1.0000 0.6431 0.4118);fill-opacity:1;"/>
<path d="M177.801 144.793C172.928 175.896 168.516 204.044 165.313 224.444C163.767 234.627 162.515 242.876 161.642 248.603C161.231 251.443 160.913 253.654 160.689 255.182C160.589 255.919 160.514 256.487 160.458 256.893C160.408 257.278 160.39 257.481 160.402 257.481C160.415 257.481 160.458 257.285 160.527 256.907C160.595 256.501 160.695 255.94 160.82 255.203C161.063 253.681 161.418 251.477 161.867 248.644C162.739 242.917 163.998 234.674 165.556 224.491C168.578 204.058 172.747 175.869 177.352 144.725C181.932 113.588 186.12 85.399 189.273 65.0128C190.843 54.8163 192.158 46.574 193.099 40.8807C193.573 38.0341 193.953 35.8298 194.233 34.3355C194.507 32.8412 194.682 32.0636 194.738 32.0704C194.794 32.0771 194.725 32.875 194.545 34.3896C194.364 35.8974 194.071 38.122 193.679 40.9821C192.887 46.7024 191.684 54.9583 190.152 65.1615C187.092 85.5612 182.699 113.716 177.801 144.806V144.793Z" fill="#FFA469" style="fill:#FFA469;fill:color(display-p3 1.0000 0.6431 0.4118);fill-opacity:1;"/>
<path d="M181.965 152.92C174.081 177.724 166.945 200.167 161.773 216.435C159.233 224.567 157.177 231.145 155.748 235.715C155.058 237.987 154.517 239.753 154.149 240.97C153.977 241.559 153.842 242.013 153.749 242.344C153.661 242.652 153.624 242.815 153.629 242.821C153.64 242.821 153.697 242.669 153.801 242.366C153.91 242.047 154.06 241.598 154.253 241.015C154.642 239.804 155.208 238.043 155.93 235.788C157.363 231.218 159.425 224.64 161.97 216.514C166.997 200.195 173.936 177.679 181.601 152.802C189.246 127.931 196.2 105.421 201.331 89.1526C203.897 81.0212 206 74.4487 207.485 69.9175C208.228 67.6519 208.82 65.8966 209.236 64.7133C209.651 63.5301 209.89 62.9132 209.932 62.93C209.973 62.9468 209.822 63.5918 209.485 64.8031C209.147 66.0144 208.633 67.7921 207.953 70.0801C206.592 74.6562 204.572 81.2567 202.043 89.3994C196.984 105.69 189.864 128.144 181.965 152.926V152.92Z" fill="#FFA469" style="fill:#FFA469;fill:color(display-p3 1.0000 0.6431 0.4118);fill-opacity:1;"/>
<path d="M190.603 149.299C176.8 177.265 164.312 202.567 155.258 220.911C150.784 230.086 147.163 237.51 144.646 242.669C143.418 245.232 142.465 247.227 141.804 248.606C141.492 249.276 141.256 249.789 141.081 250.161C140.919 250.513 140.844 250.695 140.857 250.702C140.869 250.702 140.963 250.533 141.143 250.195C141.33 249.83 141.586 249.33 141.922 248.674C142.602 247.308 143.586 245.327 144.851 242.784C147.369 237.632 150.996 230.208 155.476 221.039C164.368 202.614 176.644 177.184 190.204 149.089C203.739 120.995 216.034 95.578 225.039 77.2338C229.538 68.0584 233.214 60.6544 235.788 55.5562C237.078 53.0071 238.087 51.0327 238.792 49.7074C239.496 48.3822 239.888 47.6925 239.938 47.7195C239.988 47.7466 239.689 48.4836 239.072 49.8562C238.455 51.2288 237.52 53.2505 236.305 55.8334C233.869 61.006 230.285 68.4641 225.824 77.6598C216.9 96.0446 204.425 121.367 190.609 149.306L190.603 149.299Z" fill="#FFA469" style="fill:#FFA469;fill:color(display-p3 1.0000 0.6431 0.4118);fill-opacity:1;"/>
<path d="M191.905 158.21C177.158 179.331 163.812 198.446 154.141 212.304C149.35 219.241 145.468 224.854 142.775 228.753C141.452 230.698 140.423 232.208 139.715 233.25C139.379 233.758 139.115 234.152 138.929 234.428C138.754 234.699 138.671 234.834 138.676 234.84C138.686 234.845 138.785 234.716 138.971 234.462C139.167 234.192 139.441 233.808 139.798 233.318C140.521 232.287 141.571 230.793 142.925 228.872C145.623 224.972 149.505 219.359 154.302 212.428C163.854 198.48 177.034 179.235 191.6 157.973C206.14 136.705 219.342 117.472 228.971 103.609C233.789 96.6774 237.707 91.0815 240.446 87.2382C241.816 85.3165 242.886 83.8344 243.63 82.837C244.369 81.8395 244.778 81.3323 244.814 81.3605C244.85 81.3887 244.514 81.9522 243.842 83.0004C243.17 84.0486 242.157 85.5814 240.839 87.5425C238.208 91.4647 234.357 97.1113 229.566 104.065C219.993 117.973 206.657 137.105 191.905 158.204V158.21Z" fill="#FFA469" style="fill:#FFA469;fill:color(display-p3 1.0000 0.6431 0.4118);fill-opacity:1;"/>
<path d="M201.432 157.763C180.132 179.88 160.858 199.901 146.887 214.411C139.951 221.687 134.337 227.576 130.436 231.66C128.516 233.702 127.027 235.291 125.999 236.387C125.507 236.921 125.126 237.333 124.858 237.631C124.603 237.915 124.478 238.064 124.485 238.07C124.491 238.077 124.634 237.949 124.902 237.678C125.183 237.394 125.575 236.995 126.086 236.481C127.133 235.399 128.647 233.838 130.591 231.829C134.492 227.745 140.113 221.856 147.055 214.587C160.902 199.942 180.001 179.745 201.114 157.418C222.195 135.091 241.32 114.901 255.241 100.371C262.201 93.1087 267.86 87.2532 271.804 83.2368C273.773 81.2286 275.313 79.6802 276.372 78.6457C277.431 77.6112 278.005 77.0905 278.042 77.1311C278.079 77.1717 277.581 77.7735 276.59 78.8824C275.599 79.9913 274.122 81.6073 272.209 83.6696C268.377 87.8009 262.793 93.7308 255.858 101.027C241.993 115.618 222.731 135.659 201.425 157.749L201.432 157.763Z" fill="#FFA469" style="fill:#FFA469;fill:color(display-p3 1.0000 0.6431 0.4118);fill-opacity:1;"/>
<path d="M199.846 166.982C179.62 182.23 161.318 196.029 148.047 206.026C141.45 211.046 136.114 215.112 132.406 217.937C130.58 219.353 129.159 220.448 128.174 221.212C127.702 221.582 127.344 221.869 127.085 222.076C126.841 222.273 126.722 222.38 126.727 222.385C126.732 222.391 126.867 222.307 127.121 222.121C127.385 221.925 127.759 221.655 128.241 221.301C129.232 220.56 130.673 219.482 132.52 218.1C136.228 215.281 141.569 211.215 148.171 206.2C161.349 196.074 179.537 182.101 199.628 166.657C219.698 151.207 237.896 137.251 251.131 127.226C257.743 122.211 263.116 118.184 266.85 115.426C268.717 114.05 270.175 112.989 271.17 112.281C272.166 111.574 272.705 111.225 272.731 111.265C272.757 111.304 272.275 111.731 271.326 112.506C270.377 113.281 268.966 114.404 267.135 115.836C263.479 118.706 258.158 122.811 251.567 127.849C238.379 137.936 220.082 151.751 199.856 166.971L199.846 166.982Z" fill="#FFA469" style="fill:#FFA469;fill:color(display-p3 1.0000 0.6431 0.4118);fill-opacity:1;"/>
<path d="M209.282 169.339C182.555 183.463 158.371 196.243 140.842 205.506C132.117 210.172 125.057 213.951 120.153 216.575C117.735 217.893 115.847 218.921 114.551 219.631C113.928 219.983 113.448 220.253 113.105 220.443C112.781 220.632 112.619 220.733 112.625 220.74C112.625 220.754 112.806 220.672 113.136 220.503C113.485 220.328 113.977 220.077 114.613 219.753C115.922 219.063 117.822 218.069 120.259 216.791C125.163 214.175 132.23 210.402 140.954 205.736C158.402 196.304 182.481 183.288 209.083 168.906C235.661 154.51 259.752 141.515 277.244 132.217C285.986 127.565 293.084 123.84 298.007 121.297C300.468 120.026 302.388 119.059 303.696 118.417C305.005 117.775 305.703 117.464 305.728 117.518C305.753 117.572 305.098 117.978 303.84 118.715C302.575 119.452 300.699 120.506 298.275 121.845C293.427 124.53 286.379 128.357 277.649 133.049C260.194 142.427 236.016 155.234 209.295 169.325L209.282 169.339Z" fill="#FFA469" style="fill:#FFA469;fill:color(display-p3 1.0000 0.6431 0.4118);fill-opacity:1;"/>
<path d="M205.021 177.475C181.314 185.411 159.867 192.59 144.313 197.796C136.57 200.435 130.299 202.567 125.945 204.05C123.794 204.8 122.12 205.387 120.964 205.793C120.41 205.996 119.979 206.148 119.674 206.261C119.383 206.368 119.238 206.43 119.238 206.442C119.238 206.453 119.394 206.408 119.689 206.323C120 206.227 120.436 206.086 120.995 205.906C122.156 205.522 123.841 204.964 126.002 204.248C130.356 202.77 136.627 200.638 144.375 198.01C159.877 192.652 181.267 185.264 204.901 177.103C228.52 168.925 249.915 161.548 265.438 156.315C273.196 153.692 279.489 151.605 283.847 150.195C286.024 149.49 287.724 148.955 288.875 148.611C290.031 148.261 290.642 148.103 290.658 148.148C290.673 148.193 290.088 148.441 288.958 148.876C287.828 149.304 286.154 149.919 283.998 150.686C279.68 152.226 273.419 154.408 265.666 157.059C250.169 162.372 228.717 169.568 205.021 177.481V177.475Z" fill="#FFA469" style="fill:#FFA469;fill:color(display-p3 1.0000 0.6431 0.4118);fill-opacity:1;"/>
<path d="M213.347 182.907C183.784 187.573 157.026 191.792 137.634 194.855C127.969 196.43 120.142 197.708 114.708 198.594C112.016 199.054 109.928 199.412 108.483 199.662C107.785 199.791 107.249 199.892 106.869 199.96C106.507 200.034 106.32 200.075 106.32 200.088C106.32 200.102 106.513 200.088 106.875 200.034C107.261 199.98 107.803 199.906 108.501 199.804C109.947 199.581 112.047 199.257 114.745 198.844C120.179 197.965 128.006 196.694 137.677 195.119C157.045 191.873 183.76 187.39 213.285 182.441C242.791 177.471 269.512 173.008 288.879 169.905C298.563 168.349 306.402 167.132 311.83 166.334C314.541 165.936 316.653 165.638 318.086 165.462C319.52 165.28 320.274 165.219 320.286 165.273C320.292 165.327 319.557 165.51 318.136 165.794C316.722 166.078 314.622 166.463 311.923 166.95C306.521 167.91 298.694 169.242 289.022 170.838C269.667 174.036 242.915 178.282 213.359 182.921L213.347 182.907Z" fill="#FFA469" style="fill:#FFA469;fill:color(display-p3 1.0000 0.6431 0.4118);fill-opacity:1;"/>
<path d="M25.1295 308.322L29.5847 310.001L25.7173 311.094C24.4242 311.458 23.4015 312.444 22.9783 313.724L21.5795 317.999L19.8515 313.713C19.4283 312.644 18.5584 311.81 17.4887 311.422L13.5742 310.001L17.8178 308.263C18.8405 307.841 19.6516 307.019 20.0513 305.985L21.5795 302.004L22.6727 305.703C23.0371 306.913 23.9423 307.888 25.1178 308.334L25.1295 308.322Z" fill="#FFA469" style="fill:#FFA469;fill:color(display-p3 1.0000 0.6431 0.4118);fill-opacity:1;"/>
<path d="M322.407 62.4996L324.875 63.4274L322.736 64.0381C322.019 64.2377 321.454 64.7897 321.219 65.4943L320.443 67.8666L319.491 65.4943C319.256 64.9071 318.774 64.4374 318.175 64.226L316 63.4392L318.351 62.4762C318.915 62.2413 319.362 61.7833 319.585 61.2078L320.432 59L321.043 61.0434C321.243 61.7128 321.748 62.253 322.395 62.4996H322.407Z" fill="#FCCD82" style="fill:#FCCD82;fill:color(display-p3 0.9882 0.8039 0.5098);fill-opacity:1;"/>
</g>
<path d="M205.857 9.20716L212.357 11.6499L206.715 13.247C204.834 13.7755 203.341 15.22 202.73 17.0755L200.685 23.3115L198.169 17.0638C197.546 15.5136 196.288 14.304 194.713 13.7285L189 11.6616L195.183 9.12494C196.676 8.51427 197.852 7.30467 198.439 5.80146L200.673 0L202.272 5.39041C202.801 7.15199 204.117 8.573 205.845 9.21891L205.857 9.20716Z" fill="#FFA469" style="fill:#FFA469;fill:color(display-p3 1.0000 0.6431 0.4118);fill-opacity:1;"/>
<path d="M302.407 135.5L304.875 136.427L302.736 137.038C302.019 137.238 301.454 137.79 301.219 138.494L300.443 140.867L299.491 138.494C299.256 137.907 298.774 137.437 298.175 137.226L296 136.439L298.351 135.476C298.915 135.241 299.362 134.783 299.585 134.208L300.432 132L301.043 134.043C301.243 134.713 301.748 135.253 302.395 135.5H302.407Z" fill="#FCCD82" style="fill:#FCCD82;fill:color(display-p3 0.9882 0.8039 0.5098);fill-opacity:1;"/>
<path d="M322.533 305.536L326.612 307.063L323.073 308.061C321.886 308.401 320.958 309.294 320.57 310.468L319.288 314.379L317.713 310.456C317.325 309.482 316.538 308.718 315.55 308.366L311.965 307.063L315.844 305.465C316.784 305.078 317.525 304.326 317.889 303.375L319.288 299.734L320.299 303.117C320.628 304.221 321.463 305.113 322.544 305.524L322.533 305.536Z" fill="#717278" style="fill:#717278;fill:color(display-p3 0.4431 0.4471 0.4706);fill-opacity:1;"/>
<defs>
<clipPath id="clip0_2045_1502">
<rect width="361.51" height="285.88" fill="white" style="fill:white;fill-opacity:1;" transform="translate(0 48.3477)"/>
</clipPath>
</defs>
</svg>
