<svg width="130" height="239" viewBox="0 0 130 239" fill="none" xmlns="http://www.w3.org/2000/svg">
<g clip-path="url(#clip0_2029_209)">
<rect width="101.775" height="152.977" rx="10" transform="matrix(0.985407 -0.170216 0.170469 0.985363 23 17.8516)" fill="#D7D7D7" style="fill:#D7D7D7;fill:color(display-p3 0.8417 0.8417 0.8417);fill-opacity:1;"/>
<rect x="32" width="139" height="157" rx="10" fill="#F3F0F0" style="fill:#F3F0F0;fill:color(display-p3 0.9529 0.9412 0.9412);fill-opacity:1;"/>
<rect x="40" y="8" width="3.59644" height="3.59644" rx="1.79822" fill="#ED695E" style="fill:#ED695E;fill:color(display-p3 0.9294 0.4118 0.3686);fill-opacity:1;"/>
<rect x="45.9922" y="8" width="3.59644" height="3.59644" rx="1.79822" fill="#F5BF4F" style="fill:#F5BF4F;fill:color(display-p3 0.9608 0.7490 0.3098);fill-opacity:1;"/>
<rect x="51.9922" y="8" width="3.59644" height="3.59644" rx="1.79822" fill="#61C454" style="fill:#61C454;fill:color(display-p3 0.3804 0.7686 0.3294);fill-opacity:1;"/>
<path d="M68.9344 95.1367C55.1678 95.1367 44 106.291 44 120.065C44 133.84 55.1566 144.994 68.9344 144.994C82.7122 144.994 93.8688 133.84 93.8688 120.065C93.8688 106.291 82.7122 95.1367 68.9344 95.1367ZM68.9344 133.986C61.239 133.986 55.011 127.748 55.011 120.065C55.011 112.383 61.2502 106.145 68.9344 106.145C76.6186 106.145 82.8578 112.383 82.8578 120.065C82.8578 127.748 76.6186 133.986 68.9344 133.986Z" fill="#FFA469" style="fill:#FFA469;fill:color(display-p3 1.0000 0.6431 0.4118);fill-opacity:1;"/>
<path d="M68.9237 145.004C82.5447 145.004 93.6117 134.074 93.8469 120.512H82.8359C82.6007 127.993 76.4735 133.995 68.9237 133.995C61.3739 133.995 55.2468 127.993 55.0227 120.512H44.0117C44.2469 134.074 55.314 145.004 68.9349 145.004H68.9237Z" fill="#65666D" style="fill:#65666D;fill:color(display-p3 0.3961 0.4000 0.4275);fill-opacity:1;"/>
<path d="M68.9369 95.1474C68.7912 95.1474 68.6456 95.1474 68.5 95.1474V106.156C68.6456 106.156 68.7912 106.133 68.9369 106.133C76.6322 106.133 82.8603 112.371 82.8603 120.054C82.8603 120.199 82.8379 120.345 82.8379 120.49H93.8489C93.8489 120.345 93.8601 120.199 93.8601 120.054C93.8601 106.29 82.6922 95.125 68.9257 95.125L68.9369 95.1474Z" fill="#8F8F92" style="fill:#8F8F92;fill:color(display-p3 0.5608 0.5608 0.5725);fill-opacity:1;"/>
<path d="M93.9917 120.657H82.7006V120.511C82.7006 120.444 82.7118 120.377 82.7118 120.321C82.7118 120.242 82.723 120.164 82.723 120.085C82.723 112.481 76.5398 106.3 68.934 106.3C68.8556 106.3 68.766 106.3 68.6876 106.3C68.6204 106.3 68.5644 106.3 68.4972 106.3H68.3516V95.0112H68.6652C68.7548 95 68.8444 95 68.934 95C82.7566 95 94.0029 106.244 94.0029 120.063C94.0029 120.153 94.0029 120.231 94.0029 120.321C94.0029 120.377 94.0029 120.444 94.0029 120.5V120.634L93.9917 120.657ZM82.9807 120.377H93.7116C93.7116 120.377 93.7116 120.343 93.7116 120.321C93.7116 120.242 93.7116 120.153 93.7116 120.074C93.7116 106.412 82.5886 95.2912 68.9228 95.2912C68.8332 95.2912 68.7548 95.2912 68.6652 95.2912H68.6204V106.02C68.6204 106.02 68.6428 106.02 68.654 106.02C68.7436 106.02 68.8332 106.008 68.9228 106.008C76.6854 106.008 82.9919 112.313 82.9919 120.074C82.9919 120.164 82.9919 120.242 82.9807 120.332C82.9807 120.343 82.9807 120.354 82.9807 120.365V120.377Z" fill="#8F8F92" style="fill:#8F8F92;fill:color(display-p3 0.5608 0.5608 0.5725);fill-opacity:1;"/>
<path d="M82.8425 120.512C82.7192 124.644 80.7926 128.329 77.8242 130.792L84.6795 139.393C90.1794 134.902 93.7191 128.127 93.8423 120.512H82.8425Z" fill="#B9BABD" style="fill:#B9BABD;fill:color(display-p3 0.7255 0.7294 0.7412);fill-opacity:1;"/>
<path d="M105.723 107.512C105.723 108.745 104.726 109.743 103.492 109.743C102.259 109.743 101.262 108.745 101.262 107.512C101.262 106.279 102.259 105.281 103.492 105.281C104.726 105.281 105.723 106.279 105.723 107.512Z" fill="#FFA469" style="fill:#FFA469;fill:color(display-p3 1.0000 0.6431 0.4118);fill-opacity:1;"/>
<path d="M105.723 117.543C105.723 118.776 104.726 119.774 103.492 119.774C102.259 119.774 101.262 118.776 101.262 117.543C101.262 116.31 102.259 115.312 103.492 115.312C104.726 115.312 105.723 116.31 105.723 117.543Z" fill="#8F8F92" style="fill:#8F8F92;fill:color(display-p3 0.5608 0.5608 0.5725);fill-opacity:1;"/>
<path d="M105.723 127.403C105.723 128.636 104.726 129.633 103.492 129.633C102.259 129.633 101.262 128.636 101.262 127.403C101.262 126.17 102.259 125.172 103.492 125.172C104.726 125.172 105.723 126.17 105.723 127.403Z" fill="#65666D" style="fill:#65666D;fill:color(display-p3 0.3961 0.4000 0.4275);fill-opacity:1;"/>
<path d="M105.723 137.11C105.723 138.343 104.726 139.34 103.492 139.34C102.259 139.34 101.262 138.343 101.262 137.11C101.262 135.877 102.259 134.879 103.492 134.879C104.726 134.879 105.723 135.877 105.723 137.11Z" fill="#65666D" style="fill:#65666D;fill:color(display-p3 0.3961 0.4000 0.4275);fill-opacity:1;"/>
<path d="M123.072 108.706H112.153C111.637 108.706 111.223 108.292 111.223 107.776V107.384C111.223 106.868 111.637 106.453 112.153 106.453H123.072C123.587 106.453 124.002 106.868 124.002 107.384V107.776C124.002 108.292 123.587 108.706 123.072 108.706Z" fill="#8F8F92" style="fill:#8F8F92;fill:color(display-p3 0.5608 0.5608 0.5725);fill-opacity:1;"/>
<path d="M123.072 118.574H112.153C111.637 118.574 111.223 118.159 111.223 117.643V117.251C111.223 116.735 111.637 116.321 112.153 116.321H123.072C123.587 116.321 124.002 116.735 124.002 117.251V117.643C124.002 118.159 123.587 118.574 123.072 118.574Z" fill="#8F8F92" style="fill:#8F8F92;fill:color(display-p3 0.5608 0.5608 0.5725);fill-opacity:1;"/>
<path d="M123.072 128.441H112.153C111.637 128.441 111.223 128.026 111.223 127.51V127.118C111.223 126.602 111.637 126.188 112.153 126.188H123.072C123.587 126.188 124.002 126.602 124.002 127.118V127.51C124.002 128.026 123.587 128.441 123.072 128.441Z" fill="#8F8F92" style="fill:#8F8F92;fill:color(display-p3 0.5608 0.5608 0.5725);fill-opacity:1;"/>
<path d="M123.072 138.288H112.153C111.637 138.288 111.223 137.874 111.223 137.358V136.966C111.223 136.45 111.637 136.035 112.153 136.035H123.072C123.587 136.035 124.002 136.45 124.002 136.966V137.358C124.002 137.874 123.587 138.288 123.072 138.288Z" fill="#8F8F92" style="fill:#8F8F92;fill:color(display-p3 0.5608 0.5608 0.5725);fill-opacity:1;"/>
<g clip-path="url(#clip1_2029_209)">
<path d="M49.1225 76.6541V79.9488H48.7795V76.9555H48V76.6541H49.1121H49.1225Z" fill="#65666D" style="fill:#65666D;fill:color(display-p3 0.3961 0.4000 0.4275);fill-opacity:1;"/>
<path d="M74.8241 79.6489V79.9503H72.5167V79.7113L73.8887 78.3705C74.2629 78.0067 74.3356 77.7781 74.3356 77.5598C74.3356 77.1752 74.0654 76.9466 73.5665 76.9466C73.1819 76.9466 72.8805 77.0609 72.6727 77.3103L72.4336 77.1025C72.683 76.8011 73.0988 76.6348 73.5977 76.6348C74.2629 76.6348 74.689 76.9777 74.689 77.5286C74.689 77.8404 74.5851 78.1314 74.1485 78.5576L73.026 79.6593H74.8345L74.8241 79.6489Z" fill="#65666D" style="fill:#65666D;fill:color(display-p3 0.3961 0.4000 0.4275);fill-opacity:1;"/>
<path d="M99.1184 79.0033C99.1184 79.5541 98.7131 79.9803 97.9232 79.9803C97.445 79.9803 96.9877 79.814 96.7383 79.5541L96.9046 79.2839C97.1125 79.5021 97.497 79.6684 97.9232 79.6684C98.4636 79.6684 98.7754 79.419 98.7754 79.0033C98.7754 78.5875 98.4948 78.3485 97.8816 78.3485H97.6425V78.099L98.5572 76.9557H96.8734V76.6543H98.9937V76.8934L98.0583 78.0678C98.765 78.1094 99.1184 78.4732 99.1184 79.0033Z" fill="#65666D" style="fill:#65666D;fill:color(display-p3 0.3961 0.4000 0.4275);fill-opacity:1;"/>
<path d="M124.093 79.0916H123.438V79.9543H123.095V79.0916H121.234V78.8526L122.98 76.6699H123.355L121.671 78.8006H123.105V78.0419H123.438V78.8006H124.093V79.102V79.0916Z" fill="#65666D" style="fill:#65666D;fill:color(display-p3 0.3961 0.4000 0.4275);fill-opacity:1;"/>
<path d="M211.809 67.6581C211.809 67.8348 173.685 67.9803 126.665 67.9803C79.6439 67.9803 41.5098 67.8348 41.5098 67.6581C41.5098 67.4814 79.6232 67.3359 126.665 67.3359C173.685 67.3359 211.809 67.4814 211.809 67.6581Z" fill="#65666D" style="fill:#65666D;fill:color(display-p3 0.3961 0.4000 0.4275);fill-opacity:1;"/>
<path d="M203.053 47.08C203.053 47.2567 164.93 47.4022 117.909 47.4022C70.8881 47.4022 32.7539 47.2567 32.7539 47.08C32.7539 46.9033 70.8673 46.7578 117.909 46.7578C164.95 46.7578 203.053 46.9033 203.053 47.08Z" fill="#65666D" style="fill:#65666D;fill:color(display-p3 0.3961 0.4000 0.4275);fill-opacity:1;"/>
<path d="M51.0538 67.3628C51.0538 67.9656 50.5653 68.4541 49.9624 68.4541C49.3596 68.4541 48.8711 67.9656 48.8711 67.3628C48.8711 66.76 49.3596 66.2715 49.9624 66.2715C50.5653 66.2715 51.0538 66.76 51.0538 67.3628Z" fill="#FFA469" style="fill:#FFA469;fill:color(display-p3 1.0000 0.6431 0.4118);fill-opacity:1;"/>
<path d="M75.5479 67.3628C75.5479 67.9656 75.0594 68.4541 74.4566 68.4541C73.8537 68.4541 73.3652 67.9656 73.3652 67.3628C73.3652 66.76 73.8537 66.2715 74.4566 66.2715C75.0594 66.2715 75.5479 66.76 75.5479 67.3628Z" fill="#FFA469" style="fill:#FFA469;fill:color(display-p3 1.0000 0.6431 0.4118);fill-opacity:1;"/>
<path d="M100.024 67.3628C100.024 67.9656 99.536 68.4541 98.9331 68.4541C98.3303 68.4541 97.8418 67.9656 97.8418 67.3628C97.8418 66.76 98.3303 66.2715 98.9331 66.2715C99.536 66.2715 100.024 66.76 100.024 67.3628Z" fill="#FFA469" style="fill:#FFA469;fill:color(display-p3 1.0000 0.6431 0.4118);fill-opacity:1;"/>
<path d="M124.507 67.3628C124.507 67.9656 124.018 68.4541 123.416 68.4541C122.813 68.4541 122.324 67.9656 122.324 67.3628C122.324 66.76 122.813 66.2715 123.416 66.2715C124.018 66.2715 124.507 66.76 124.507 67.3628Z" fill="#FFA469" style="fill:#FFA469;fill:color(display-p3 1.0000 0.6431 0.4118);fill-opacity:1;"/>
<path d="M62.3093 67.6644C62.3093 68.0594 61.9871 68.3816 61.5922 68.3816C61.1972 68.3816 60.875 68.0594 60.875 67.6644C60.875 67.2695 61.1972 66.9473 61.5922 66.9473C61.9871 66.9473 62.3093 67.2695 62.3093 67.6644Z" fill="#65666D" style="fill:#65666D;fill:color(display-p3 0.3961 0.4000 0.4275);fill-opacity:1;"/>
<path d="M86.8933 67.6644C86.8933 68.0594 86.5711 68.3816 86.1761 68.3816C85.7812 68.3816 85.459 68.0594 85.459 67.6644C85.459 67.2695 85.7812 66.9473 86.1761 66.9473C86.5711 66.9473 86.8933 67.2695 86.8933 67.6644Z" fill="#65666D" style="fill:#65666D;fill:color(display-p3 0.3961 0.4000 0.4275);fill-opacity:1;"/>
<path d="M111.458 67.6644C111.458 68.0594 111.136 68.3816 110.741 68.3816C110.346 68.3816 110.023 68.0594 110.023 67.6644C110.023 67.2695 110.346 66.9473 110.741 66.9473C111.136 66.9473 111.458 67.2695 111.458 67.6644Z" fill="#65666D" style="fill:#65666D;fill:color(display-p3 0.3961 0.4000 0.4275);fill-opacity:1;"/>
<path d="M52.6444 58.5605C52.6444 60.0467 51.4491 61.242 49.9628 61.242C48.4765 61.242 47.2812 60.0467 47.2812 58.5605C47.2812 57.0742 48.4765 55.8789 49.9628 55.8789C51.4387 55.8789 52.6444 57.0742 52.6444 58.5605Z" fill="#FFA469" style="fill:#FFA469;fill:color(display-p3 1.0000 0.6431 0.4118);fill-opacity:1;"/>
<path d="M74.0037 45.9569C74.0037 47.4432 72.8085 48.6385 71.3222 48.6385C69.8359 48.6385 68.6406 47.4432 68.6406 45.9569C68.6406 44.4707 69.8359 43.2754 71.3222 43.2754C72.8085 43.2754 74.0037 44.4707 74.0037 45.9569Z" fill="#FFA469" style="fill:#FFA469;fill:color(display-p3 1.0000 0.6431 0.4118);fill-opacity:1;"/>
<path d="M100.523 47.078C100.523 48.5643 99.328 49.7596 97.8417 49.7596C96.3554 49.7596 95.1602 48.5643 95.1602 47.078C95.1602 45.5918 96.3554 44.3965 97.8417 44.3965C99.328 44.3965 100.523 45.6021 100.523 47.078Z" fill="#FFA469" style="fill:#FFA469;fill:color(display-p3 1.0000 0.6431 0.4118);fill-opacity:1;"/>
<path d="M126.398 24.1601C126.398 25.6463 125.203 26.8416 123.717 26.8416C122.23 26.8416 121.035 25.6463 121.035 24.1601C121.035 22.6738 122.23 21.4785 123.717 21.4785C125.203 21.4785 126.398 22.6738 126.398 24.1601Z" fill="#FFA469" style="fill:#FFA469;fill:color(display-p3 1.0000 0.6431 0.4118);fill-opacity:1;"/>
<path d="M197.961 58.5675C197.961 58.5675 197.743 58.5883 197.327 58.5675C196.911 58.5363 196.298 58.4843 195.498 58.318C193.928 57.9958 191.517 57.3203 189.127 55.2935C187.942 54.2957 186.861 52.903 185.998 51.2296C185.135 49.577 184.096 47.8309 182.724 46.1575C181.342 44.5257 179.564 42.8627 177.184 42.3015C176.02 42.0209 174.742 42.0728 173.526 42.4366C172.299 42.8212 171.156 43.4864 170.127 44.3594C168.038 46.1055 166.51 48.5792 164.483 50.8242C163.465 51.9364 162.29 53.0277 160.804 53.6825C159.328 54.3269 157.613 54.514 155.971 54.0774C154.298 53.6305 153.019 52.2274 152.292 50.6995C151.533 49.1613 151.107 47.4879 150.701 45.8145C150.286 44.1515 149.953 42.4158 149.246 40.8568C148.893 40.0876 148.394 39.3601 147.677 38.9755C146.949 38.5806 146.076 38.487 145.203 38.4974C143.436 38.591 141.659 39.1003 139.819 39.4432C138.894 39.6095 137.948 39.7758 136.982 39.7654C136.015 39.7654 135.007 39.6511 134.092 39.2042C133.147 38.8196 132.419 38.0609 131.795 37.2814C131.245 36.4603 130.766 35.5872 130.392 34.6726C129.613 32.8641 129.103 30.962 128.397 29.1328C128.033 28.2285 127.648 27.3243 127.097 26.5448C126.557 25.7652 125.84 25.1104 124.977 24.7779C124.759 24.7155 124.541 24.6323 124.312 24.5804L123.605 24.518C123.138 24.4972 122.711 24.5804 122.296 24.7882C121.475 25.204 120.851 26.0043 120.331 26.8358C119.313 28.5507 118.647 30.4943 118.055 32.4691C117.473 34.4439 116.974 36.4707 116.506 38.5078C115.727 41.8857 115.031 45.2533 114.157 48.548C113.721 50.1902 113.253 51.822 112.65 53.4123C112.037 54.9817 111.341 56.5719 110.104 57.8295C109.48 58.4324 108.618 58.9105 107.682 58.9001C106.788 58.9001 105.936 58.5779 105.209 58.1517C103.733 57.2683 102.652 55.9587 101.727 54.6283C99.8662 51.9468 98.6814 48.9534 97.5277 46.1055C96.3532 43.2785 95.0332 40.4826 92.8401 38.5598C90.6887 36.6577 87.6122 35.951 84.9722 36.637C83.6418 36.9696 82.3842 37.5724 81.2305 38.2896C80.0664 38.9859 78.9855 39.807 77.9565 40.6489C75.9193 42.3535 74.1005 44.2243 72.4998 46.1367H72.4894V46.1575C69.8806 48.7663 67.1367 50.9802 64.4032 52.8718C61.6593 54.7634 58.8946 56.3121 56.1195 57.3618C53.3548 58.3804 50.5797 58.9936 48.0125 58.713C45.4661 58.4636 43.2314 57.7672 41.2566 57.0812C37.3175 55.6573 34.428 54.119 32.4844 53.0693C31.5178 52.5392 30.7799 52.1131 30.3018 51.8116C29.8133 51.5206 29.5742 51.3439 29.5742 51.3439C29.5742 51.3439 29.8341 51.479 30.333 51.7493C30.863 52.0299 31.601 52.4249 32.5572 52.9342C34.5216 53.9319 37.4318 55.4286 41.3502 56.811C43.3146 57.4762 45.5388 58.1414 48.0333 58.37C50.5173 58.6195 53.2509 58.0166 55.9636 56.9877C58.6867 55.9379 61.4202 54.3893 64.133 52.4976C66.8353 50.606 69.5481 48.3817 72.1153 45.8041V45.8249C73.7263 43.8709 75.5452 41.9793 77.6135 40.2435C78.6425 39.3705 79.7442 38.539 80.9395 37.8218C82.1243 37.0839 83.4235 36.4603 84.8371 36.0965C87.6745 35.3482 90.9173 36.0965 93.2247 38.1233C95.5529 40.1604 96.904 43.0394 98.0889 45.8769C99.253 48.7455 100.427 51.6661 102.236 54.2853C103.13 55.5741 104.19 56.8214 105.52 57.6217C106.186 58.0166 106.924 58.2869 107.682 58.2869C108.42 58.2869 109.096 57.9231 109.657 57.393C110.748 56.2809 111.455 54.7426 112.048 53.2044C112.63 51.6557 113.097 50.0343 113.534 48.4025C114.396 45.1285 115.093 41.761 115.872 38.3831C116.35 36.3355 116.839 34.3088 117.431 32.3132C118.024 30.3176 118.699 28.3429 119.78 26.5344C120.342 25.6509 120.996 24.7675 122.005 24.2478C122.504 23.9983 123.086 23.884 123.626 23.9152L124.426 23.9879C124.686 24.0503 124.946 24.1438 125.206 24.2166C126.224 24.6012 127.035 25.3703 127.628 26.2226C128.22 27.0852 128.615 28.0207 128.989 28.9457C129.706 30.8061 130.216 32.7082 130.974 34.4647C131.712 36.2004 132.679 37.957 134.352 38.6741C135.994 39.464 137.928 39.1834 139.715 38.882C141.524 38.5494 143.312 38.0297 145.193 37.9362C146.128 37.9362 147.105 38.0297 147.968 38.4974C148.851 38.9755 149.402 39.8174 149.776 40.6385C150.525 42.3119 150.847 44.0476 151.263 45.7106C151.658 47.3736 152.073 49.0158 152.791 50.4813C153.487 51.9364 154.63 53.1836 156.127 53.5993C157.613 54.0047 159.235 53.828 160.607 53.246C161.989 52.6431 163.132 51.6142 164.13 50.5228C166.126 48.3298 167.685 45.8353 169.846 44.0372C170.917 43.1434 172.133 42.4366 173.411 42.052C174.7 41.6779 176.051 41.6259 177.288 41.9377C179.793 42.5613 181.612 44.2971 183.005 45.9704C184.387 47.6854 185.426 49.4627 186.279 51.1361C187.11 52.799 188.15 54.1606 189.303 55.1584C191.611 57.1747 193.991 57.8815 195.529 58.2453C196.319 58.4324 196.932 58.5051 197.338 58.5467C197.743 58.5883 197.961 58.5987 197.961 58.6091V58.5675Z" fill="#FFA469" style="fill:#FFA469;fill:color(display-p3 1.0000 0.6431 0.4118);fill-opacity:1;"/>
</g>
</g>
<path opacity="0.7" d="M142.656 115.684C142.656 152.635 112.411 182.594 75.1055 182.594L142.656 115.684Z" fill="white" style="fill:white;fill-opacity:1;"/>
<path opacity="0.7" d="M9.43944 131.364C8.21918 126.338 7.57031 121.081 7.57031 115.68C7.57031 78.7282 37.8057 48.7695 75.1108 48.7695C81.6673 48.7695 88.0107 49.7 94.0152 51.4268L9.43944 131.364Z" fill="white" style="fill:white;fill-opacity:1;"/>
<path opacity="0.7" d="M134.862 84.4536L41.7731 173.888C36.1464 170.713 31.0232 166.77 26.5586 162.185L123.143 68.6445C127.792 73.2971 131.753 78.6116 134.862 84.4536Z" fill="white" style="fill:white;fill-opacity:1;"/>
<path d="M114.94 182.311L86.7352 201.928H65.9301L39.3903 182.679L77.1991 187.709L114.94 182.311Z" fill="#65666D" style="fill:#65666D;fill:color(display-p3 0.3961 0.4000 0.4275);fill-opacity:1;"/>
<path d="M76.5047 41C34.2506 41 0 74.9263 0 116.78C0 145.013 16.2766 169.638 39.3903 182.679C50.5461 188.971 62.7535 192.56 76.4953 192.56C90.2371 192.56 103.139 188.971 114.295 182.679C137.408 169.647 153 145.013 153 116.78C153.009 74.9263 118.759 41 76.5047 41ZM76.5047 181.987C40.1494 181.987 10.6839 152.791 10.6839 116.78C10.6839 80.7692 40.1494 51.5733 76.5047 51.5733C112.86 51.5733 142.335 80.7692 142.335 116.78C142.335 152.791 112.86 181.987 76.5047 181.987Z" fill="url(#paint0_linear_2029_209)" style=""/>
<path d="M86.7588 284.15L86.7304 203.03C86.7283 197.216 82.0147 192.504 76.2007 192.504C70.4049 192.504 65.6988 197.188 65.6712 202.984L65.2856 284.102C65.2574 290.052 70.0725 294.89 76.0222 294.89C81.9533 294.89 86.7608 290.081 86.7588 284.15Z" fill="#263238" style="fill:#263238;fill:color(display-p3 0.1490 0.1961 0.2196);fill-opacity:1;"/>
<path d="M86.7588 284.15L86.7304 203.03C86.7283 197.216 82.0147 192.504 76.2007 192.504C70.4049 192.504 65.6988 197.188 65.6712 202.984L65.2856 284.102C65.2574 290.052 70.0725 294.89 76.0222 294.89C81.9533 294.89 86.7608 290.081 86.7588 284.15Z" fill="#65666D" style="fill:#65666D;fill:color(display-p3 0.3961 0.4000 0.4275);fill-opacity:1;"/>
<path d="M62.043 60.6907C66.4883 59.625 71.1412 59.0547 75.9169 59.0547" stroke="#65666D" style="stroke:#65666D;stroke:color(display-p3 0.3961 0.4000 0.4275);stroke-opacity:1;" stroke-width="1.4023" stroke-miterlimit="10" stroke-linecap="round" stroke-linejoin="round"/>
<path d="M17.1289 117.288C17.1289 93.7014 31.286 73.3867 51.6438 64.2344" stroke="#65666D" style="stroke:#65666D;stroke:color(display-p3 0.3961 0.4000 0.4275);stroke-opacity:1;" stroke-width="1.4023" stroke-miterlimit="10" stroke-linecap="round" stroke-linejoin="round"/>
<defs>
<linearGradient id="paint0_linear_2029_209" x1="76.5" y1="41" x2="76.5" y2="192.56" gradientUnits="userSpaceOnUse">
<stop stop-color="#FFD66B" style="stop-color:#FFD66B;stop-color:color(display-p3 1.0000 0.8392 0.4196);stop-opacity:1;"/>
<stop offset="1" stop-color="#FFA469" style="stop-color:#FFA469;stop-color:color(display-p3 1.0000 0.6431 0.4118);stop-opacity:1;"/>
</linearGradient>
<clipPath id="clip0_2029_209">
<rect width="164" height="169" fill="white" style="fill:white;fill-opacity:1;" transform="translate(23)"/>
</clipPath>
<clipPath id="clip1_2029_209">
<rect x="44" y="21" width="108" height="65.2419" rx="9.20079" fill="white" style="fill:white;fill-opacity:1;"/>
</clipPath>
</defs>
</svg>
