<svg width="177" height="239" viewBox="0 0 177 239" fill="none" xmlns="http://www.w3.org/2000/svg">
<path d="M198.67 117.373C201.199 117.511 203.098 114.53 202.602 112.008C202.107 109.485 199.925 107.616 197.589 106.629C195.253 105.642 190.361 103.002 190.361 103.002C190.361 103.002 187.611 101.076 184.026 94.3508C182.848 92.1418 181.744 90.2877 180.655 87.514C178.041 80.8528 177.882 79.77 177.524 69.4296C177.524 42.458 159.884 21.988 130.049 24.1578C130.049 24.1578 115.478 29.4162 107.865 43.866C121.036 64.282 108.079 104.966 94 124.124L114.694 127.948L115.705 128.006C116.509 130.862 117.654 133.548 119.289 135.921C125.229 144.528 133.312 151.436 142.084 157.024C159.794 168.31 163.822 144.012 184.628 141.888C189.023 141.443 193.476 140.594 197.318 138.385C201.161 136.176 204.34 132.392 204.919 127.948C205.498 123.504 202.93 118.569 198.67 117.373Z" fill="#B6866A" style="fill:#B6866A;fill:color(display-p3 0.7126 0.5262 0.4154);fill-opacity:1;"/>
<path d="M159.257 72.3137C159.257 72.3137 147.697 75.9081 141.16 47.3832C138.922 37.6269 129.883 29.7271 129.883 29.7271L133.55 28.6211C133.55 28.6211 156.341 35.0397 156.729 35.3294C157.111 35.619 162.483 47.1199 162.483 47.1199L159.264 72.3071L159.257 72.3137Z" fill="#B6866A" style="fill:#B6866A;fill:color(display-p3 0.7126 0.5262 0.4154);fill-opacity:1;"/>
<path d="M108.363 39.5415C109.242 36.3648 110.965 33.2557 113.804 31.5997C115.156 30.8112 116.688 30.3944 118.062 29.6396C119.718 28.7384 121.081 27.3979 122.636 26.3277C126.443 23.6917 131.411 22.7905 135.906 23.9283C140.4 25.0661 144.343 28.2203 146.439 32.3545C149.638 29.91 155.18 30.9464 158.965 32.3094C162.75 33.6725 165.916 38.1785 166.828 42.0987L149.075 47.4721C145.526 51.3472 141.572 54.952 136.942 57.4529C132.312 59.9537 126.939 61.3055 121.746 60.5282C116.541 59.7396 111.585 56.6305 109.23 51.9218C107.338 48.1367 107.248 43.6195 108.374 39.5415H108.363Z" fill="#B6866A" style="fill:#B6866A;fill:color(display-p3 0.7126 0.5262 0.4154);fill-opacity:1;"/>
<path d="M160.068 54.1035L160.699 49.406L133.021 40.7658C124.403 38.8395 113.448 47.1231 111.882 55.8196C111.452 58.2119 111.429 60.1549 110.741 62.7572C108.986 69.3967 108.216 79.5484 108.461 85.107C109.089 99.2988 121.16 101.448 121.16 101.448C120.72 104.888 120.18 107.495 119.74 110.935C118.602 119.857 124.91 128.002 133.832 129.151C142.732 130.289 150.865 124.014 152.036 115.126L160.068 54.1148V54.1035Z" fill="#EBD4B0" style="fill:#EBD4B0;fill:color(display-p3 0.9216 0.8314 0.6902);fill-opacity:1;"/>
<path d="M113.978 65.62C113.831 66.6 114.541 67.5463 115.566 67.7152C116.591 67.8842 117.538 67.2309 117.684 66.2508C117.83 65.2707 117.121 64.3245 116.096 64.1555C115.071 63.9865 114.113 64.6399 113.967 65.62H113.978Z" fill="#46474E" style="fill:#46474E;fill:color(display-p3 0.2745 0.2784 0.3059);fill-opacity:1;"/>
<path d="M114.457 61.2528C114.659 61.5232 116.203 60.6332 118.219 60.8698C120.236 61.0726 121.587 62.2892 121.835 62.0639C121.959 61.9625 121.768 61.5006 121.182 60.9599C120.607 60.4192 119.571 59.8447 118.32 59.6982C117.07 59.5631 115.955 59.901 115.29 60.3066C114.614 60.7121 114.355 61.1289 114.457 61.2528Z" fill="#46474E" style="fill:#46474E;fill:color(display-p3 0.2745 0.2784 0.3059);fill-opacity:1;"/>
<path d="M132.777 68.1825C132.63 69.1625 133.34 70.1088 134.365 70.2777C135.39 70.4467 136.336 69.7933 136.494 68.8133C136.652 67.8332 135.931 66.887 134.906 66.718C133.88 66.549 132.923 67.2024 132.777 68.1825Z" fill="#46474E" style="fill:#46474E;fill:color(display-p3 0.2745 0.2784 0.3059);fill-opacity:1;"/>
<path d="M134.218 63.8934C134.421 64.1638 135.964 63.2739 137.981 63.5104C139.997 63.7132 141.36 64.9298 141.597 64.7045C141.721 64.6031 141.529 64.1413 140.944 63.6005C140.369 63.0598 139.333 62.4853 138.082 62.3389C136.821 62.2037 135.717 62.5416 135.052 62.9472C134.376 63.3527 134.117 63.7695 134.218 63.8934Z" fill="#46474E" style="fill:#46474E;fill:color(display-p3 0.2745 0.2784 0.3059);fill-opacity:1;"/>
<path d="M124.868 78.2473C124.891 78.1346 121.854 77.1543 121.854 77.1543C121.854 77.1543 121.135 76.8238 121.09 76.4634C121.011 76.0803 121.145 75.4899 121.46 74.9154C122.091 73.7213 122.744 72.4822 123.432 71.1755C126.191 65.8359 128.242 61.4313 128.028 61.3186C127.814 61.206 125.403 65.4416 122.654 70.7812C121.99 72.0992 121.161 73.2968 120.553 74.5021C120.294 75.0654 120.063 75.7378 120.244 76.5376C120.334 76.9319 120.697 77.2192 120.998 77.3825C121.219 77.5024 121.607 77.6557 121.854 77.7008C123.82 78.1507 124.857 78.3599 124.868 78.2473Z" fill="#46474E" style="fill:#46474E;fill:color(display-p3 0.2745 0.2784 0.3059);fill-opacity:1;"/>
<path d="M121.138 101.451C121.138 101.451 130.11 102.865 139.211 99.1289C139.211 99.1289 133.867 106.753 120.773 104.324L121.128 101.451H121.138Z" fill="#CDAF8B" style="fill:#CDAF8B;fill:color(display-p3 0.8054 0.6874 0.5464);fill-opacity:1;"/>
<path d="M125.477 82.9495C126.311 82.0709 127.64 81.6991 128.891 81.9695C129.758 82.161 130.592 82.6905 131.042 83.4565C131.493 84.2338 131.482 85.2589 130.93 85.8784C130.299 86.5769 129.138 86.6219 128.215 86.2389C127.28 85.8559 126.525 85.1237 125.815 84.4027C125.612 84.2 125.421 83.9972 125.308 83.7381C125.196 83.479 125.207 83.1636 125.398 82.9946" fill="#EBD4B0" style="fill:#EBD4B0;fill:color(display-p3 0.9216 0.8314 0.6902);fill-opacity:1;"/>
<path d="M131.148 79.6104C130.821 79.5541 130.562 81.7395 128.512 83.0801C126.461 84.4206 124.163 83.9137 124.107 84.2178C124.062 84.353 124.58 84.7022 125.56 84.8374C126.518 84.9838 127.971 84.8374 129.221 84.0151C130.472 83.1927 131.114 81.9761 131.283 81.0862C131.474 80.185 131.283 79.6104 131.136 79.6104H131.148Z" fill="#46474E" style="fill:#46474E;fill:color(display-p3 0.2745 0.2784 0.3059);fill-opacity:1;"/>
<path d="M134.601 55.9413C134.736 56.5158 136.775 56.482 139.107 57.0452C141.45 57.5522 143.275 58.4646 143.647 58.014C143.816 57.8 143.545 57.2367 142.835 56.6172C142.137 55.9976 140.977 55.3555 139.569 55.0401C138.172 54.7247 136.843 54.8035 135.941 55.0401C135.029 55.2879 134.544 55.6709 134.601 55.9413Z" fill="#46474E" style="fill:#46474E;fill:color(display-p3 0.2745 0.2784 0.3059);fill-opacity:1;"/>
<path d="M115.862 55.4947C116.166 55.9904 117.608 55.675 119.275 55.8439C120.953 55.9566 122.316 56.5086 122.699 56.0692C122.868 55.8552 122.699 55.3708 122.125 54.8639C121.562 54.357 120.593 53.8951 119.444 53.7937C118.295 53.7036 117.247 53.9965 116.616 54.402C115.974 54.8076 115.726 55.2582 115.85 55.4947H115.862Z" fill="#46474E" style="fill:#46474E;fill:color(display-p3 0.2745 0.2784 0.3059);fill-opacity:1;"/>
<path d="M128.262 68.2368C128.33 68.2368 128.296 67.5046 128.634 66.2429C128.961 65.015 129.707 62.8538 131.416 61.6229C132.642 60.7399 133.562 60.4763 135.066 60.3401C136.66 60.1957 137.604 60.4831 139.103 61.0429C140.785 61.671 142.324 62.326 143.447 63.7268C144.661 65.241 144.702 66.4249 144.54 68.2255C144.377 70.0442 143.447 71.5997 142.629 72.493C141.68 73.5296 140.585 74.5637 138.923 75.2867C138.079 75.6539 136.811 75.7498 135.45 75.6539C133.708 75.5312 132.097 75.0253 131.173 74.3494C129.314 72.9638 128.972 71.4473 128.645 70.2082C128.307 68.9578 128.341 68.2143 128.274 68.2143C128.251 68.2143 128.24 68.3945 128.24 68.7437C128.24 69.093 128.274 69.6111 128.42 70.2645C128.69 71.5487 129.01 73.1666 130.925 74.6761C131.872 75.4083 133.546 75.9605 135.36 76.1271C136.822 76.2612 138.188 76.1271 139.103 75.7936C140.926 75.1298 141.952 73.9795 143.091 72.8309C143.909 72.0058 144.964 70.1779 145.126 68.2143C145.286 66.2732 145.214 64.9987 143.909 63.3776C142.703 61.8792 141.093 61.1774 139.284 60.5247C137.682 59.9471 136.668 59.6661 134.976 59.8557C133.398 60.0326 132.432 60.3227 131.169 61.2849C129.426 62.6122 128.69 64.8911 128.42 66.1753C128.274 66.8287 128.228 67.3469 128.24 67.6961C128.24 68.0453 128.251 68.2255 128.274 68.2255L128.262 68.2368Z" fill="#46474E" style="fill:#46474E;fill:color(display-p3 0.2745 0.2784 0.3059);fill-opacity:1;"/>
<path d="M108.182 64.1861C108.25 64.1861 108.216 63.4539 108.554 62.1922C108.881 60.9643 109.214 59.1097 111.073 57.7128C111.921 57.0755 113.015 56.7936 114.355 56.6227C116.456 56.3546 118.855 57.1292 119.793 57.5888C120.732 58.0484 122.118 58.6381 122.972 59.9185C123.971 61.4154 123.955 62.6647 123.778 64.4554C123.585 66.4013 122.828 67.7644 121.837 69.0712C120.879 70.4004 119.976 71.515 118.568 72.0219C117.16 72.5626 115.869 72.4898 114.551 72.2758C113.222 72.0505 111.997 71.4465 111.073 70.7706C109.214 69.385 108.892 67.3966 108.565 66.1575C108.227 64.907 108.261 64.1636 108.194 64.1636C108.171 64.1636 108.16 64.3438 108.16 64.693C108.16 65.0422 108.194 65.5604 108.34 66.2138C108.61 67.498 108.91 69.5878 110.825 71.0973C111.772 71.8295 113.064 72.4898 114.461 72.7489C115.858 72.9967 117.239 73.0921 118.748 72.5288C120.258 71.9994 121.262 70.8172 122.299 69.4091C123.358 68.0123 124.173 66.5354 124.364 64.4441C124.539 62.514 124.538 61.1624 123.434 59.5693C122.483 58.1961 120.629 57.4959 119.923 57.1256C119.217 56.7554 116.657 55.8338 114.461 56.1577C113.049 56.3659 112.095 56.4228 110.825 57.3749C109.15 58.6306 108.61 60.8404 108.34 62.1246C108.194 62.778 108.149 63.2962 108.16 63.6454C108.16 63.9946 108.171 64.1748 108.194 64.1748L108.182 64.1861Z" fill="#46474E" style="fill:#46474E;fill:color(display-p3 0.2745 0.2784 0.3059);fill-opacity:1;"/>
<path d="M129.506 63.6939C129.574 63.6826 129.585 63.2996 129.315 62.7589C129.044 62.2295 128.436 61.5536 127.524 61.2719C126.611 60.9903 125.721 61.1931 125.203 61.4747C124.674 61.7676 124.46 62.083 124.505 62.1393C124.561 62.2069 124.854 62.0154 125.361 61.8577C125.856 61.7 126.6 61.5986 127.343 61.8239C128.087 62.0605 128.639 62.5561 128.954 62.9729C129.281 63.3897 129.416 63.7164 129.495 63.6939H129.506Z" fill="#46474E" style="fill:#46474E;fill:color(display-p3 0.2745 0.2784 0.3059);fill-opacity:1;"/>
<path d="M145.103 70.2162C145.047 70.3626 146.477 70.9822 148.291 71.5905C150.105 72.1988 151.614 72.5705 151.659 72.4128C151.704 72.2551 150.274 71.6355 148.471 71.0385C146.669 70.4302 145.159 70.0697 145.103 70.2162Z" fill="#46474E" style="fill:#46474E;fill:color(display-p3 0.2745 0.2784 0.3059);fill-opacity:1;"/>
<path d="M1.62115 95.434C-0.800823 94.499 0.20175 91.9757 0.20175 91.9757L9.20247 94.6905C9.20247 94.6905 4.42613 92.753 1.98163 90.7478C-0.462866 88.7426 0.753756 87.0078 0.753756 87.0078L10.0248 90.5901L15.263 93.6767L28.3867 113.717C28.3867 113.717 18.1243 118.73 16.3107 117.288C13.1227 114.742 11.3766 109.065 10.6669 106.181C9.38271 105.809 5.32733 104.604 4.23463 103.871C2.92789 103.004 2.30829 101.697 2.30829 101.697L9.4503 103.06C8.41392 102.756 1.79011 100.492 1.26066 99.6809C0.336931 98.2503 0.922724 97.6194 0.922724 97.6194L9.90091 99.0163L8.97717 98.3404C8.97717 98.3404 3.953 96.3352 1.62115 95.434Z" fill="#EBD4B0" style="fill:#EBD4B0;fill:color(display-p3 0.9216 0.8314 0.6902);fill-opacity:1;"/>
<path d="M34.6767 116.292L64.8781 143.948C68.6294 143.08 114.613 115.594 114.613 115.594L121.879 150.966C121.879 150.966 74.8138 172.606 61.8591 169.981C59.7413 169.553 56.8131 169.981 54.0863 166.478C43.7225 153.162 21.7445 120.212 21.7445 120.212L34.6655 116.292H34.6767Z" fill="#EBD4B0" style="fill:#EBD4B0;fill:color(display-p3 0.9216 0.8314 0.6902);fill-opacity:1;"/>
<path d="M14.1595 114.911L19.6118 112.275L15.6803 105.144L12.5937 98.6107L7.8061 89.7227L15.0945 92.46C15.9619 92.8318 16.7167 93.4063 17.2912 94.1385L29.2884 110.709L34.6055 116.128L29.4686 129.939L23.4306 120.521L19.9047 119.699C16.3787 118.876 14.1483 114.889 14.1483 114.889L14.1595 114.911Z" fill="#EBD4B0" style="fill:#EBD4B0;fill:color(display-p3 0.9216 0.8314 0.6902);fill-opacity:1;"/>
<path d="M22.9335 103.696C20.4214 102.435 17.8079 101.421 15.1043 100.644C14.2257 100.385 13.3019 100.159 12.4007 100.294C11.4995 100.43 10.5984 101.004 10.3505 101.894C10.0802 102.897 10.7335 103.967 11.6009 104.53C12.4683 105.093 13.5272 105.296 14.5298 105.555C15.5324 105.814 16.5801 106.197 17.2447 106.986C17.8755 107.741 18.0783 108.743 18.405 109.667C19.4864 112.675 22.2238 115.018 25.3555 115.626" fill="#EBD4B0" style="fill:#EBD4B0;fill:color(display-p3 0.9216 0.8314 0.6902);fill-opacity:1;"/>
<path d="M25.3672 115.626C25.3672 115.626 24.8828 115.48 24.0492 115.142C23.2268 114.804 22.0553 114.207 20.9063 113.091C20.343 112.54 19.7798 111.864 19.3179 111.064C18.8335 110.253 18.5406 109.34 18.2139 108.293C18.0337 107.774 17.8084 107.234 17.4029 106.772C16.9973 106.31 16.4679 105.972 15.9159 105.735C14.8006 105.24 13.5615 105.127 12.4688 104.677C11.9168 104.451 11.4437 104.147 11.0832 103.719C10.734 103.302 10.5087 102.773 10.5425 102.277C10.5988 101.241 11.6915 100.576 12.649 100.52C13.6516 100.441 14.6317 100.756 15.5441 101.015C16.4566 101.286 17.2902 101.556 18.0562 101.815C19.577 102.345 20.7824 102.84 21.616 103.201C22.4496 103.55 22.9114 103.753 22.9227 103.719C22.934 103.685 22.5059 103.426 21.7061 103.021C20.895 102.604 19.7009 102.052 18.1914 101.477C17.4366 101.184 16.5918 100.892 15.6793 100.61C14.7781 100.34 13.7755 99.9791 12.6265 100.058C12.052 100.092 11.4662 100.283 10.9705 100.655C10.4749 101.015 10.0693 101.612 10.0356 102.288C9.97923 103.663 11.0832 104.767 12.2773 105.217C13.4714 105.702 14.688 105.814 15.7131 106.265C16.22 106.479 16.6819 106.772 17.0199 107.155C17.3578 107.538 17.5718 108.022 17.7521 108.507C18.0788 109.498 18.4167 110.523 18.9349 111.345C19.4306 112.179 20.0389 112.866 20.6472 113.429C21.8638 114.545 23.1029 115.119 23.9703 115.401C24.4097 115.536 24.7476 115.626 24.9842 115.66C25.2207 115.694 25.3447 115.705 25.3559 115.682L25.3672 115.626Z" fill="#EBD4B0" style="fill:#EBD4B0;fill:color(display-p3 0.9216 0.8314 0.6902);fill-opacity:1;"/>
<path d="M118.026 215.148H179.927C179.927 215.148 189.063 226.65 195.09 238.636L150.229 241.92H105.45C103.715 239.081 118.026 215.148 118.026 215.148Z" fill="#65666D" style="fill:#65666D;fill:color(display-p3 0.3961 0.4000 0.4275);fill-opacity:1;"/>
<path d="M99.7257 158.87C101.821 131.158 108.693 113.754 108.693 113.754L119.417 110.453C121.039 117.539 132.574 119.871 139.153 116.773L146.104 113.134C168.42 109.788 167.259 111.636 172.419 114.734C176.902 117.426 176.485 137.534 176.485 137.534C176.485 137.534 187.604 189.916 186.995 198.32C186.387 206.724 179.91 215.161 179.91 215.161H118.009C111.779 215.161 109.999 201.069 110.427 195.954C110.855 190.84 99.016 167.983 99.7031 158.881L99.7257 158.87Z" fill="#46474E" style="fill:#46474E;fill:color(display-p3 0.2745 0.2784 0.3059);fill-opacity:1;"/>
<g clip-path="url(#clip0_272_3244)">
<path d="M136.555 147.936L134.9 149.304L134.333 152.701L131.538 152.234L133.562 140.106L136.357 140.572L135.567 145.308L140.369 141.242L143.674 141.793L138.77 146.039L141.861 153.95L138.588 153.404L136.55 147.928L136.555 147.936Z" fill="#E8E8E8" style="fill:#E8E8E8;fill:color(display-p3 0.9083 0.9083 0.9083);fill-opacity:1;"/>
<path d="M150.65 154.578C150.282 154.746 149.894 154.871 149.494 154.955C149.121 155.037 148.735 155.071 148.355 155.073C147.432 155.076 146.522 154.879 145.692 154.485C145.168 154.247 144.692 153.925 144.28 153.528C143.874 153.14 143.567 152.663 143.367 152.138C143.156 151.559 143.109 150.935 143.223 150.332L143.978 145.807C144.067 145.199 144.307 144.624 144.682 144.136C145.031 143.696 145.478 143.332 145.979 143.075C146.494 142.814 147.052 142.645 147.625 142.583C148.207 142.51 148.8 142.524 149.386 142.622C150.112 142.743 150.82 142.972 151.487 143.287C152.121 143.569 152.684 143.997 153.132 144.531L151.414 146.471C151.104 146.092 150.704 145.783 150.253 145.583C149.857 145.406 149.447 145.278 149.026 145.208C148.791 145.169 148.549 145.168 148.308 145.2C148.06 145.23 147.826 145.303 147.604 145.416C147.375 145.535 147.176 145.705 147.023 145.916C146.843 146.174 146.729 146.463 146.69 146.777L146.118 150.206C146.054 150.51 146.066 150.826 146.147 151.128C146.218 151.369 146.337 151.598 146.509 151.784C146.669 151.962 146.861 152.105 147.078 152.214C147.29 152.321 147.519 152.398 147.754 152.438C147.977 152.475 148.206 152.48 148.432 152.459C148.678 152.435 148.92 152.357 149.13 152.235L149.403 150.597L147.735 150.319L148.129 147.96L152.592 148.705L151.726 153.9C151.409 154.187 151.043 154.421 150.654 154.592L150.65 154.578Z" fill="#E8E8E8" style="fill:#E8E8E8;fill:color(display-p3 0.9083 0.9083 0.9083);fill-opacity:1;"/>
<path d="M150.626 159.546L130.828 156.242L130.384 158.904L150.182 162.208L150.626 159.546Z" fill="#E8E8E8" style="fill:#E8E8E8;fill:color(display-p3 0.9083 0.9083 0.9083);fill-opacity:1;"/>
</g>
<path d="M200.273 157.581L169.081 172.203C169.081 172.203 156.363 144.074 155.27 140.233C154.177 136.392 150.741 130.297 154.256 122.277C157.771 114.256 167.199 111.316 172.415 114.729C184.086 122.378 200.262 157.581 200.262 157.581H200.273Z" fill="#46474E" style="fill:#46474E;fill:color(display-p3 0.2745 0.2784 0.3059);fill-opacity:1;"/>
<path d="M102.2 159.076C100.747 159.076 90 165.5 90 165.5C74.5 171 68 139.802 68 139.802C82.2164 130.328 100.386 115.976 108.711 113.734L104.34 139.802L102.2 159.065V159.076Z" fill="#46474E" style="fill:#46474E;fill:color(display-p3 0.2745 0.2784 0.3059);fill-opacity:1;"/>
<path d="M200.273 157.576C200.273 157.576 200.048 157.632 199.654 157.79C199.203 157.982 198.629 158.229 197.93 158.522C196.364 159.221 194.235 160.167 191.622 161.316C186.26 163.761 178.971 167.084 170.917 170.756C170.05 171.15 169.193 171.545 168.394 171.916L168.788 172.052C165.183 164.628 162.029 157.993 159.798 153.205C158.717 150.862 157.838 148.947 157.185 147.539C156.903 146.919 156.667 146.412 156.486 146.007C156.318 145.658 156.227 145.478 156.205 145.489C156.182 145.489 156.25 145.692 156.374 146.052C156.509 146.413 156.701 146.953 156.982 147.629C157.523 148.992 158.356 150.952 159.427 153.374C161.567 158.218 164.654 164.887 168.247 172.311L168.371 172.57L168.641 172.446C169.441 172.074 170.309 171.68 171.165 171.286C179.185 167.557 186.451 164.177 191.791 161.688C194.359 160.46 196.466 159.457 198.02 158.714C198.696 158.376 199.26 158.094 199.699 157.88C200.082 157.689 200.273 157.576 200.262 157.554L200.273 157.576Z" fill="#8F8F92" style="fill:#8F8F92;fill:color(display-p3 0.5608 0.5608 0.5725);fill-opacity:1;"/>
<path d="M105.064 133.171C105.064 133.171 104.805 133.859 104.422 135.109C104.005 136.461 103.453 138.252 102.777 140.437C101.425 144.921 99.4541 151.24 99.364 158.518C99.4203 162.156 100.164 165.558 101.031 168.555C101.899 171.562 102.901 174.187 103.757 176.384C104.625 178.581 105.357 180.327 105.864 181.543C106.371 182.76 106.664 183.424 106.697 183.413C106.72 183.413 106.675 183.233 106.562 182.895C106.427 182.501 106.269 182.028 106.067 181.464C105.582 180.146 104.929 178.378 104.129 176.237C103.329 174.029 102.36 171.405 101.538 168.408C100.705 165.423 99.9948 162.077 99.9385 158.518C100.029 151.364 101.91 145.067 103.16 140.55C103.802 138.286 104.309 136.45 104.625 135.165C104.794 134.523 104.895 134.028 104.974 133.69C105.042 133.352 105.075 133.171 105.053 133.16L105.064 133.171Z" fill="#8F8F92" style="fill:#8F8F92;fill:color(display-p3 0.5608 0.5608 0.5725);fill-opacity:1;"/>
<path d="M172.14 170.214C178.043 179.925 182.166 185.501 182.166 185.501L129.186 217.764L135.36 232.104L204.065 203.829C204.065 203.829 210.835 196.856 208.447 189.095L197.497 158.859L172.14 170.214Z" fill="#EBD4B0" style="fill:#EBD4B0;fill:color(display-p3 0.9216 0.8314 0.6902);fill-opacity:1;"/>
<path d="M88.0881 227.577L101.302 221.257L127.087 219.207L129.194 217.754L135.367 232.094C135.367 232.094 128.608 235.327 125.071 235.609L103.386 234.956L92.0534 236.15L88.0881 227.577Z" fill="#EBD4B0" style="fill:#EBD4B0;fill:color(display-p3 0.9216 0.8314 0.6902);fill-opacity:1;"/>
<path d="M13.7366 176.691L88.0742 177.3C90.4849 177.3 92.7942 178.46 93.1547 180.848L101.277 235.033H139.566C140.794 235.033 141.797 236.035 141.797 237.263C141.797 238.491 140.794 239.494 139.566 239.494H17.2738L8.91524 182.313C8.46465 179.361 10.7514 176.703 13.7366 176.703V176.691Z" fill="#D7D7D7" style="fill:#D7D7D7;fill:color(display-p3 0.8417 0.8417 0.8417);fill-opacity:1;"/>
<path d="M54.0546 212.059C51.4851 212.059 49.4022 209.976 49.4022 207.406C49.4022 204.837 51.4851 202.754 54.0546 202.754C56.6241 202.754 58.707 204.837 58.707 207.406C58.707 209.976 56.6241 212.059 54.0546 212.059Z" fill="#F3F0F0" style="fill:#F3F0F0;fill:color(display-p3 0.9529 0.9412 0.9412);fill-opacity:1;"/>
<path d="M160.787 36.5036C163.659 37.4499 170.098 46.0899 169.253 48.985C168.408 51.8801 181.538 112.808 181.539 117.772C181.539 121.318 168.065 128.41 153.652 117.772C139.239 107.135 155.514 77.3165 152.231 66.0046C145.782 43.7784 131.892 41.4107 130.957 40.4753C130.248 39.7661 123.865 40.4753 121.029 46.8576C117.881 53.9397 103.3 48.985 115.265 34.0929L126.699 30.5472L136.627 29.1289L147.264 30.5472L160.787 36.5036Z" fill="#B6866A" style="fill:#B6866A;fill:color(display-p3 0.7126 0.5262 0.4154);fill-opacity:1;"/>
<path fill-rule="evenodd" clip-rule="evenodd" d="M57.3672 27.4141C48.5352 27.4141 41.3672 34.5821 41.3672 43.4141C41.3672 52.2461 48.5352 59.4141 57.3672 59.4141C66.1992 59.4141 73.3672 52.2461 73.3672 43.4141C73.3672 34.5821 66.1992 27.4141 57.3672 27.4141ZM57.3625 32.2188C60.0185 32.2188 62.1625 34.3628 62.1625 37.0188C62.1625 39.6748 60.0185 41.8188 57.3625 41.8188C54.7065 41.8188 52.5625 39.6748 52.5625 37.0188C52.5625 34.3628 54.7065 32.2188 57.3625 32.2188ZM57.3617 54.9316C53.3617 54.9316 49.8257 52.8836 47.7617 49.7796C47.8097 46.5956 54.1617 44.8516 57.3617 44.8516C60.5457 44.8516 66.9137 46.5956 66.9617 49.7796C64.8977 52.8836 61.3617 54.9316 57.3617 54.9316Z" fill="#D7D7D7" style="fill:#D7D7D7;fill:color(display-p3 0.8417 0.8417 0.8417);fill-opacity:1;"/>
<path fill-rule="evenodd" clip-rule="evenodd" d="M57.3672 27.4141C48.5352 27.4141 41.3672 34.5821 41.3672 43.4141C41.3672 52.2461 48.5352 59.4141 57.3672 59.4141C66.1992 59.4141 73.3672 52.2461 73.3672 43.4141C73.3672 34.5821 66.1992 27.4141 57.3672 27.4141ZM57.3625 32.2188C60.0185 32.2188 62.1625 34.3628 62.1625 37.0188C62.1625 39.6748 60.0185 41.8188 57.3625 41.8188C54.7065 41.8188 52.5625 39.6748 52.5625 37.0188C52.5625 34.3628 54.7065 32.2188 57.3625 32.2188ZM57.3617 54.9316C53.3617 54.9316 49.8257 52.8836 47.7617 49.7796C47.8097 46.5956 54.1617 44.8516 57.3617 44.8516C60.5457 44.8516 66.9137 46.5956 66.9617 49.7796C64.8977 52.8836 61.3617 54.9316 57.3617 54.9316Z" fill="url(#paint0_linear_272_3244)" style=""/>
<path d="M35.5974 75.9492H30.8645V69.4058H35.5974V70.6714H32.5432V71.8008H35.3777V73.0664H32.5432V74.6836H35.5974V75.9492ZM42 75.9492H40.418V72.1172H39.1128C39.104 72.3369 39.0967 72.5083 39.0909 72.6313C39.0879 72.7515 39.0835 72.8921 39.0777 73.0532C39.0572 73.5249 39.0176 73.9087 38.959 74.2046C38.9004 74.5005 38.8257 74.7422 38.7349 74.9297C38.647 75.1201 38.5518 75.271 38.4493 75.3823C38.3496 75.4937 38.2486 75.5903 38.146 75.6724C38.0288 75.7661 37.875 75.8408 37.6846 75.8965C37.4971 75.9521 37.3155 75.98 37.1397 75.98C37.002 75.98 36.8628 75.9741 36.7222 75.9624C36.5816 75.9536 36.4981 75.9492 36.4717 75.9492V74.6836H36.5201C36.5318 74.6836 36.5523 74.6851 36.5816 74.688C36.6109 74.6909 36.6402 74.6924 36.6695 74.6924C36.7456 74.6924 36.8233 74.6851 36.9024 74.6704C36.9844 74.6558 37.0518 74.6235 37.1045 74.5737C37.3008 74.3862 37.4312 74.1519 37.4956 73.8706C37.563 73.5864 37.6114 73.1675 37.6407 72.6138C37.6524 72.4087 37.6641 72.1743 37.6758 71.9106C37.6875 71.647 37.6978 71.3481 37.7066 71.0142H42V75.9492ZM48.6664 75.9492H47.1327V72.9302L44.9881 75.9492H43.6786V71.0142H45.2123V73.7168L47.1986 71.0142H48.6664V75.9492ZM54.4846 74.5518C54.4846 74.833 54.4157 75.0747 54.278 75.2769C54.1403 75.4761 53.9543 75.6357 53.7199 75.7559C53.4826 75.876 53.2189 75.9609 52.9289 76.0107C52.6388 76.0605 52.3298 76.0854 52.0016 76.0854C51.571 76.0854 51.1887 76.0488 50.8547 75.9756C50.5236 75.9023 50.1999 75.8115 49.8835 75.7031V74.5034H50.0593C50.2907 74.6323 50.55 74.7451 50.8371 74.8418C51.1242 74.9355 51.4172 74.9824 51.716 74.9824C51.8273 74.9824 51.9592 74.9751 52.1115 74.9604C52.2668 74.9458 52.3898 74.9209 52.4806 74.8857C52.6037 74.8389 52.696 74.7847 52.7575 74.7231C52.822 74.6616 52.8542 74.5635 52.8542 74.4287C52.8542 74.3027 52.8249 74.2046 52.7663 74.1343C52.7106 74.064 52.633 74.0127 52.5334 73.9805C52.4484 73.9512 52.34 73.9321 52.2082 73.9233C52.0793 73.9146 51.9152 73.9102 51.716 73.9102H50.9601V72.9082H51.5666C51.6838 72.9082 51.8229 72.9067 51.9841 72.9038C52.1481 72.9009 52.277 72.8877 52.3708 72.8643C52.5085 72.832 52.6066 72.7808 52.6652 72.7104C52.7267 72.6401 52.7575 72.5493 52.7575 72.438C52.7575 72.3472 52.7267 72.271 52.6652 72.2095C52.6037 72.1479 52.5231 72.0996 52.4235 72.0645C52.3386 72.0352 52.2389 72.0132 52.1247 71.9985C52.0104 71.9839 51.8903 71.9766 51.7643 71.9766C51.5563 71.9766 51.3132 72.0132 51.0348 72.0864C50.7595 72.1597 50.5148 72.2505 50.301 72.3589H50.1296V71.1768C50.3112 71.1211 50.5807 71.0566 50.9382 70.9834C51.2985 70.9102 51.6662 70.8735 52.0412 70.8735C52.3693 70.8735 52.6681 70.8984 52.9377 70.9482C53.2072 70.998 53.446 71.0728 53.654 71.1724C53.8737 71.2808 54.051 71.4214 54.1857 71.5942C54.3205 71.7671 54.3879 71.9824 54.3879 72.2402C54.3879 72.5039 54.2971 72.7397 54.1154 72.9478C53.9367 73.1558 53.7214 73.2949 53.4694 73.3652V73.4048C53.7595 73.481 54.0012 73.6143 54.1945 73.8047C54.3879 73.9922 54.4846 74.2412 54.4846 74.5518ZM58.8042 74.6616V73.6333C58.5903 73.6509 58.3589 73.6758 58.1099 73.708C57.8608 73.7373 57.6719 73.7725 57.543 73.8135C57.3848 73.8633 57.2632 73.9365 57.1782 74.0332C57.0962 74.127 57.0552 74.2515 57.0552 74.4067C57.0552 74.5093 57.064 74.5928 57.0815 74.6572C57.0991 74.7217 57.1431 74.7832 57.2134 74.8418C57.2808 74.9004 57.3613 74.9443 57.4551 74.9736C57.5488 75 57.6953 75.0132 57.8945 75.0132C58.0527 75.0132 58.2124 74.981 58.3735 74.9165C58.5376 74.8521 58.6812 74.7671 58.8042 74.6616ZM58.8042 75.4263C58.7192 75.4907 58.6138 75.5684 58.4878 75.6592C58.3618 75.75 58.2432 75.8218 58.1318 75.8745C57.9766 75.9448 57.8154 75.9961 57.6484 76.0283C57.4814 76.0635 57.2983 76.0811 57.0991 76.0811C56.6304 76.0811 56.2378 75.936 55.9214 75.646C55.605 75.356 55.4468 74.9854 55.4468 74.5342C55.4468 74.1738 55.5273 73.8794 55.6885 73.6509C55.8496 73.4224 56.0781 73.2422 56.374 73.1104C56.667 72.9785 57.0303 72.8848 57.4639 72.8291C57.8975 72.7734 58.3472 72.7324 58.813 72.7061V72.6797C58.813 72.4072 58.7017 72.2197 58.479 72.1172C58.2563 72.0117 57.9282 71.959 57.4946 71.959C57.2339 71.959 56.9556 72.0059 56.6597 72.0996C56.3638 72.1904 56.1514 72.2607 56.0225 72.3105H55.8774V71.1196C56.0444 71.0757 56.3154 71.0244 56.6904 70.9658C57.0684 70.9043 57.4463 70.8735 57.8242 70.8735C58.7236 70.8735 59.3726 71.0127 59.771 71.291C60.1724 71.5664 60.373 72 60.373 72.5918V75.9492H58.8042V75.4263ZM66.9559 74.4595C66.9559 74.6968 66.9075 74.9077 66.8109 75.0923C66.7171 75.2769 66.5911 75.4307 66.4329 75.5537C66.2337 75.709 66.0228 75.8145 65.8001 75.8701C65.5804 75.9229 65.3182 75.9492 65.0135 75.9492H62.0076V71.0142H64.8861C65.2464 71.0142 65.5115 71.0259 65.6815 71.0493C65.8514 71.0728 66.0184 71.1299 66.1824 71.2207C66.3553 71.3145 66.4842 71.439 66.5692 71.5942C66.6571 71.7495 66.701 71.9341 66.701 72.1479C66.701 72.3911 66.6307 72.605 66.4901 72.7896C66.3524 72.9712 66.1854 73.1104 65.9891 73.207V73.2554C66.2615 73.3228 66.4901 73.459 66.6746 73.6641C66.8621 73.8662 66.9559 74.1313 66.9559 74.4595ZM65.1058 72.4995C65.1058 72.3179 65.0501 72.189 64.9388 72.1128C64.8304 72.0366 64.6546 71.9985 64.4114 71.9985H63.5765V72.9829H64.4378C64.6517 72.9829 64.8157 72.9404 64.93 72.8555C65.0472 72.7676 65.1058 72.6489 65.1058 72.4995ZM65.3255 74.4111C65.3255 74.1973 65.264 74.0479 65.1409 73.9629C65.0208 73.875 64.8421 73.8311 64.6048 73.8311H63.5765V74.9604H64.6312C64.848 74.9604 65.0179 74.9121 65.1409 74.8154C65.264 74.7158 65.3255 74.5811 65.3255 74.4111ZM73.1476 73.7739H69.5265C69.5499 74.1606 69.6964 74.4565 69.966 74.6616C70.2384 74.8667 70.6383 74.9692 71.1657 74.9692C71.4996 74.9692 71.8234 74.9092 72.1369 74.7891C72.4503 74.6689 72.6979 74.54 72.8795 74.4023H73.0553V75.6724C72.6979 75.8159 72.361 75.9199 72.0446 75.9844C71.7282 76.0488 71.3781 76.0811 70.9943 76.0811C70.004 76.0811 69.2453 75.8584 68.7179 75.4131C68.1906 74.9678 67.9269 74.3335 67.9269 73.5103C67.9269 72.6958 68.1759 72.0513 68.674 71.5767C69.1749 71.0991 69.8605 70.8604 70.7306 70.8604C71.5333 70.8604 72.1369 71.064 72.5412 71.4712C72.9454 71.8755 73.1476 72.4585 73.1476 73.2202V73.7739ZM71.5744 72.8467C71.5656 72.5156 71.4835 72.2666 71.3283 72.0996C71.173 71.9326 70.9313 71.8491 70.6032 71.8491C70.2985 71.8491 70.048 71.9282 69.8517 72.0864C69.6554 72.2446 69.5455 72.498 69.5221 72.8467H71.5744ZM78.4692 72.0864H76.896V75.9492H75.3139V72.0864H73.7407V71.0142H78.4692V72.0864ZM82.4285 74.6616V73.6333C82.2146 73.6509 81.9832 73.6758 81.7342 73.708C81.4851 73.7373 81.2962 73.7725 81.1673 73.8135C81.0091 73.8633 80.8875 73.9365 80.8025 74.0332C80.7205 74.127 80.6795 74.2515 80.6795 74.4067C80.6795 74.5093 80.6883 74.5928 80.7058 74.6572C80.7234 74.7217 80.7674 74.7832 80.8377 74.8418C80.9051 74.9004 80.9856 74.9443 81.0794 74.9736C81.1731 75 81.3196 75.0132 81.5188 75.0132C81.677 75.0132 81.8367 74.981 81.9978 74.9165C82.1619 74.8521 82.3055 74.7671 82.4285 74.6616ZM82.4285 75.4263C82.3435 75.4907 82.2381 75.5684 82.1121 75.6592C81.9861 75.75 81.8675 75.8218 81.7561 75.8745C81.6009 75.9448 81.4397 75.9961 81.2727 76.0283C81.1057 76.0635 80.9226 76.0811 80.7234 76.0811C80.2547 76.0811 79.8621 75.936 79.5457 75.646C79.2293 75.356 79.0711 74.9854 79.0711 74.5342C79.0711 74.1738 79.1516 73.8794 79.3128 73.6509C79.4739 73.4224 79.7024 73.2422 79.9983 73.1104C80.2913 72.9785 80.6546 72.8848 81.0882 72.8291C81.5218 72.7734 81.9715 72.7324 82.4373 72.7061V72.6797C82.4373 72.4072 82.326 72.2197 82.1033 72.1172C81.8806 72.0117 81.5525 71.959 81.1189 71.959C80.8582 71.959 80.5799 72.0059 80.284 72.0996C79.9881 72.1904 79.7757 72.2607 79.6468 72.3105H79.5017V71.1196C79.6687 71.0757 79.9397 71.0244 80.3147 70.9658C80.6927 70.9043 81.0706 70.8735 81.4485 70.8735C82.3479 70.8735 82.9969 71.0127 83.3953 71.291C83.7967 71.5664 83.9973 72 83.9973 72.5918V75.9492H82.4285V75.4263ZM43.2437 82.7656C43.4488 82.9707 43.604 83.2197 43.7095 83.5127C43.815 83.8027 43.8677 84.144 43.8677 84.5366C43.8677 85.269 43.648 85.877 43.2085 86.3604C42.7691 86.8438 42.2286 87.0854 41.587 87.0854C41.2705 87.0854 40.979 87.0327 40.7124 86.9272C40.4458 86.8188 40.2188 86.6533 40.0313 86.4307C39.7969 86.1523 39.6211 85.8022 39.5039 85.3804C39.3897 84.9556 39.3326 84.4385 39.3326 83.8291C39.3326 83.6094 39.3428 83.3867 39.3633 83.1611C39.3838 82.9326 39.4307 82.6602 39.5039 82.3438C39.5625 82.0713 39.6475 81.8091 39.7588 81.5571C39.8731 81.3052 40.0079 81.1016 40.1631 80.9463C40.3741 80.7324 40.6509 80.561 40.9937 80.4321C41.3394 80.3003 41.7964 80.2095 42.3648 80.1597C42.5962 80.1392 42.8116 80.123 43.0108 80.1113C43.21 80.0967 43.3887 80.0835 43.5469 80.0718V80.832C43.3536 80.8438 43.1617 80.8555 42.9712 80.8672C42.7837 80.8789 42.5962 80.8936 42.4087 80.9111C42.0337 80.9434 41.6939 81.0049 41.3892 81.0957C41.0874 81.1865 40.8662 81.3037 40.7256 81.4473C40.5704 81.6025 40.4532 81.8062 40.3741 82.0581C40.2979 82.3071 40.2481 82.5444 40.2246 82.77C40.4444 82.6118 40.6846 82.48 40.9454 82.3745C41.209 82.2661 41.4888 82.2119 41.7847 82.2119C42.0601 82.2119 42.3252 82.2573 42.5801 82.3481C42.835 82.439 43.0562 82.5781 43.2437 82.7656ZM43.0284 84.585C43.0284 84.043 42.898 83.6387 42.6372 83.3721C42.3765 83.1025 42.0323 82.9678 41.6045 82.9678C41.3496 82.9678 41.105 83.0088 40.8706 83.0908C40.6363 83.1699 40.4136 83.2769 40.2027 83.4116C40.1968 83.4849 40.191 83.5713 40.1851 83.6709C40.1822 83.7676 40.1807 83.8569 40.1807 83.939C40.1807 84.4487 40.2232 84.8618 40.3081 85.1782C40.3931 85.4946 40.5132 85.7466 40.6685 85.9341C40.8033 86.0923 40.9497 86.2051 41.1079 86.2725C41.2662 86.3369 41.4361 86.3691 41.6177 86.3691C42.0601 86.3691 42.4058 86.2095 42.6548 85.8901C42.9038 85.5708 43.0284 85.1357 43.0284 84.585ZM49.4794 86.9492H48.662V83.2622L46.0912 86.9492H45.3441V82.0405H46.1615V85.6748L48.7059 82.0405H49.4794V86.9492ZM54.7043 85.5737C54.7043 85.8491 54.6398 86.082 54.5109 86.2725C54.3849 86.4629 54.2223 86.6167 54.0231 86.7339C53.8239 86.8481 53.6042 86.9316 53.3639 86.9844C53.1237 87.0371 52.8835 87.0635 52.6432 87.0635C52.3034 87.0635 51.9797 87.0312 51.6721 86.9668C51.3644 86.9023 51.0612 86.8027 50.7624 86.668V85.7627H50.8195C51.0334 85.9502 51.3058 86.0952 51.6369 86.1978C51.9679 86.3003 52.2887 86.3516 52.5993 86.3516C52.7458 86.3516 52.8967 86.3384 53.0519 86.312C53.2072 86.2827 53.342 86.2373 53.4562 86.1758C53.5793 86.1055 53.6774 86.022 53.7507 85.9253C53.8239 85.8257 53.8605 85.6909 53.8605 85.521C53.8605 85.3452 53.8239 85.2046 53.7507 85.0991C53.6804 84.9937 53.5837 84.9146 53.4606 84.8618C53.3405 84.8091 53.1955 84.7769 53.0256 84.7651C52.8556 84.7534 52.7004 84.7476 52.5597 84.7476H51.8434V84.0356H52.34C52.4572 84.0356 52.6096 84.0312 52.7971 84.0225C52.9875 84.0137 53.1413 83.9902 53.2585 83.9521C53.4108 83.9023 53.5309 83.832 53.6188 83.7412C53.7096 83.6504 53.7551 83.5054 53.7551 83.3062C53.7551 83.1685 53.7199 83.0557 53.6496 82.9678C53.5793 82.877 53.4914 82.8066 53.3859 82.7568C53.2775 82.707 53.1559 82.6733 53.0212 82.6558C52.8893 82.6382 52.7721 82.6294 52.6696 82.6294C52.3708 82.6294 52.0763 82.6704 51.7863 82.7524C51.4992 82.8315 51.2575 82.9473 51.0612 83.0996H51.0041V82.1899C51.2472 82.1108 51.508 82.0464 51.7863 81.9966C52.0646 81.9468 52.3429 81.9219 52.6213 81.9219C52.8498 81.9219 53.0768 81.9424 53.3024 81.9834C53.5309 82.0244 53.7433 82.0947 53.9396 82.1943C54.133 82.2939 54.2912 82.4302 54.4142 82.603C54.5373 82.7729 54.5988 82.9839 54.5988 83.2358C54.5988 83.4937 54.5182 83.7207 54.3571 83.917C54.1989 84.1104 53.985 84.2495 53.7155 84.3345V84.3652C54.0173 84.4385 54.2575 84.5762 54.4362 84.7783C54.6149 84.9775 54.7043 85.2427 54.7043 85.5737ZM60.2983 86.9492H59.4722V84.7388H57.0156V86.9492H56.1895V82.0405H57.0156V84.0269H59.4722V82.0405H60.2983V86.9492ZM66.2176 84.5806H62.6009C62.6009 84.8823 62.6463 85.146 62.7371 85.3716C62.8279 85.5942 62.9525 85.7773 63.1107 85.9209C63.263 86.0615 63.4432 86.167 63.6512 86.2373C63.8621 86.3076 64.0936 86.3428 64.3455 86.3428C64.6795 86.3428 65.015 86.2769 65.3519 86.145C65.6917 86.0103 65.9334 85.8784 66.077 85.7495H66.1209V86.6504C65.8426 86.7676 65.5584 86.8657 65.2684 86.9448C64.9783 87.0239 64.6737 87.0635 64.3543 87.0635C63.5399 87.0635 62.9041 86.8438 62.4471 86.4043C61.9901 85.9619 61.7615 85.335 61.7615 84.5234C61.7615 83.7207 61.9798 83.0835 62.4163 82.6118C62.8558 82.1401 63.4329 81.9043 64.1478 81.9043C64.8099 81.9043 65.3196 82.0977 65.6771 82.4844C66.0374 82.8711 66.2176 83.4204 66.2176 84.1323V84.5806ZM65.4134 83.9478C65.4105 83.5142 65.3006 83.1787 65.0838 82.9414C64.8699 82.7041 64.5433 82.5854 64.1038 82.5854C63.6614 82.5854 63.3084 82.7158 63.0447 82.9766C62.784 83.2373 62.6361 83.561 62.6009 83.9478H65.4134ZM71.3239 86.6416C70.987 86.7998 70.6969 86.9082 70.4538 86.9668C70.2135 87.0283 69.9733 87.0591 69.733 87.0591C69.3756 87.0591 69.0475 87.0078 68.7487 86.9053C68.4498 86.7998 68.1935 86.6416 67.9796 86.4307C67.7658 86.2197 67.5988 85.9531 67.4787 85.6309C67.3615 85.3086 67.3029 84.9321 67.3029 84.5015C67.3029 83.7192 67.5197 83.0952 67.9533 82.6294C68.3869 82.1606 68.9801 81.9263 69.733 81.9263C70.0172 81.9263 70.2955 81.9658 70.568 82.0449C70.8434 82.124 71.0954 82.2207 71.3239 82.335V83.2534H71.2755C71.0031 83.0454 70.7335 82.8916 70.4669 82.792C70.2033 82.6924 69.9469 82.6426 69.6979 82.6426C69.2086 82.6426 68.8292 82.8066 68.5597 83.1348C68.2931 83.4629 68.1598 83.9185 68.1598 84.5015C68.1598 85.0845 68.2931 85.5371 68.5597 85.8594C68.8263 86.1816 69.2057 86.3428 69.6979 86.3428C69.8707 86.3428 70.0421 86.3208 70.2121 86.2769C70.3849 86.2329 70.5416 86.1758 70.6823 86.1055C70.7936 86.0498 70.9079 85.9839 71.025 85.9077C71.1452 85.8286 71.2287 85.77 71.2755 85.7319H71.3239V86.6416ZM75.2392 84.4839H72.497V83.6885H75.2392V84.4839ZM39.6337 97.9492H38.8119V97.4263C38.7387 97.4761 38.639 97.5464 38.5131 97.6372C38.39 97.7251 38.2699 97.7954 38.1527 97.8481C38.015 97.9155 37.8568 97.9712 37.6781 98.0151C37.4994 98.062 37.2899 98.0854 37.0497 98.0854C36.6073 98.0854 36.2323 97.939 35.9247 97.646C35.6171 97.353 35.4633 96.9795 35.4633 96.5254C35.4633 96.1533 35.5424 95.853 35.7006 95.6245C35.8617 95.3931 36.0902 95.2114 36.3861 95.0796C36.6849 94.9478 37.0438 94.8584 37.4628 94.8115C37.8817 94.7646 38.3314 94.7295 38.8119 94.7061V94.5786C38.8119 94.3911 38.7782 94.2358 38.7108 94.1128C38.6464 93.9897 38.5526 93.8931 38.4296 93.8228C38.3124 93.7554 38.1718 93.71 38.0077 93.6865C37.8436 93.6631 37.6722 93.6514 37.4935 93.6514C37.2767 93.6514 37.035 93.6807 36.7684 93.7393C36.5018 93.7949 36.2264 93.877 35.9423 93.9854H35.8983V93.146C36.0595 93.1021 36.2924 93.0537 36.5971 93.001C36.9017 92.9482 37.202 92.9219 37.4979 92.9219C37.8436 92.9219 38.1439 92.9512 38.3988 93.0098C38.6566 93.0654 38.8793 93.1621 39.0668 93.2998C39.2513 93.4346 39.392 93.6089 39.4887 93.8228C39.5853 94.0366 39.6337 94.3018 39.6337 94.6182V97.9492ZM38.8119 96.7407V95.374C38.5599 95.3887 38.2626 95.4106 37.9198 95.4399C37.58 95.4692 37.3104 95.5117 37.1112 95.5674C36.8739 95.6348 36.682 95.7402 36.5355 95.8838C36.389 96.0244 36.3158 96.2192 36.3158 96.4683C36.3158 96.7495 36.4008 96.9619 36.5707 97.1055C36.7406 97.2461 36.9999 97.3164 37.3485 97.3164C37.6386 97.3164 37.9037 97.2607 38.1439 97.1494C38.3842 97.0352 38.6068 96.8989 38.8119 96.7407ZM45.5134 97.9492H44.6872V95.7388H42.2307V97.9492H41.4045V93.0405H42.2307V95.0269H44.6872V93.0405H45.5134V97.9492ZM51.1382 97.9492H50.3164V97.4263C50.2432 97.4761 50.1436 97.5464 50.0176 97.6372C49.8946 97.7251 49.7744 97.7954 49.6572 97.8481C49.5196 97.9155 49.3613 97.9712 49.1826 98.0151C49.0039 98.062 48.7945 98.0854 48.5542 98.0854C48.1118 98.0854 47.7368 97.939 47.4292 97.646C47.1216 97.353 46.9678 96.9795 46.9678 96.5254C46.9678 96.1533 47.0469 95.853 47.2051 95.6245C47.3662 95.3931 47.5947 95.2114 47.8906 95.0796C48.1895 94.9478 48.5484 94.8584 48.9673 94.8115C49.3862 94.7646 49.836 94.7295 50.3164 94.7061V94.5786C50.3164 94.3911 50.2827 94.2358 50.2154 94.1128C50.1509 93.9897 50.0571 93.8931 49.9341 93.8228C49.8169 93.7554 49.6763 93.71 49.5122 93.6865C49.3482 93.6631 49.1768 93.6514 48.9981 93.6514C48.7813 93.6514 48.5396 93.6807 48.273 93.7393C48.0064 93.7949 47.731 93.877 47.4468 93.9854H47.4029V93.146C47.564 93.1021 47.7969 93.0537 48.1016 93.001C48.4063 92.9482 48.7066 92.9219 49.0025 92.9219C49.3482 92.9219 49.6485 92.9512 49.9033 93.0098C50.1612 93.0654 50.3838 93.1621 50.5713 93.2998C50.7559 93.4346 50.8965 93.6089 50.9932 93.8228C51.0899 94.0366 51.1382 94.3018 51.1382 94.6182V97.9492ZM50.3164 96.7407V95.374C50.0645 95.3887 49.7671 95.4106 49.4243 95.4399C49.0845 95.4692 48.815 95.5117 48.6157 95.5674C48.3784 95.6348 48.1865 95.7402 48.0401 95.8838C47.8936 96.0244 47.8203 96.2192 47.8203 96.4683C47.8203 96.7495 47.9053 96.9619 48.0752 97.1055C48.2451 97.2461 48.5044 97.3164 48.853 97.3164C49.1431 97.3164 49.4082 97.2607 49.6485 97.1494C49.8887 97.0352 50.1113 96.8989 50.3164 96.7407ZM56.8685 97.9492H56.0423V93.7349H54.2098C54.201 93.978 54.1922 94.2124 54.1834 94.438C54.1747 94.6636 54.1659 94.8672 54.1571 95.0488C54.1366 95.5381 54.1029 95.9292 54.056 96.2222C54.0091 96.5122 53.9476 96.7539 53.8714 96.9473C53.8011 97.1289 53.722 97.2769 53.6341 97.3911C53.5492 97.5024 53.4569 97.6035 53.3573 97.6943C53.2577 97.7822 53.1463 97.8481 53.0233 97.8921C52.9032 97.936 52.7713 97.958 52.6278 97.958C52.578 97.958 52.5047 97.9565 52.408 97.9536C52.3143 97.9507 52.2528 97.9492 52.2235 97.9492V97.2285H52.2674C52.2909 97.2285 52.3246 97.23 52.3685 97.2329C52.4124 97.2358 52.4491 97.2373 52.4784 97.2373C52.5487 97.2373 52.6205 97.2271 52.6937 97.2065C52.7699 97.186 52.8343 97.1479 52.8871 97.0923C53.0365 96.9458 53.1566 96.6982 53.2474 96.3496C53.3382 96.001 53.3983 95.4971 53.4276 94.8379C53.4393 94.5977 53.4496 94.3135 53.4583 93.9854C53.4701 93.6543 53.4803 93.3394 53.4891 93.0405H56.8685V97.9492ZM62.8141 97.9492H61.9967V94.2622L59.4259 97.9492H58.6789V93.0405H59.4963V96.6748L62.0407 93.0405H62.8141V97.9492ZM68.2324 93.7656H66.457V97.9492H65.6308V93.7656H63.8554V93.0405H68.2324V93.7656ZM73.4046 97.9492H72.5872V94.2622L70.0164 97.9492H69.2693V93.0405H70.0867V96.6748L72.6312 93.0405H73.4046V97.9492ZM79.6446 97.9492H78.5636L76.5245 95.6992H76.0763V97.9492H75.2501V93.0405H76.0763V95.1587C76.3487 95.1587 76.5685 95.1104 76.7355 95.0137C76.9025 94.9141 77.0445 94.7559 77.1617 94.5391C77.2028 94.46 77.2423 94.3765 77.2804 94.2886C77.3214 94.1978 77.361 94.1113 77.399 94.0293C77.5514 93.6982 77.7418 93.4507 77.9703 93.2866C78.1988 93.1226 78.527 93.0405 78.9547 93.0405H79.3326V93.7524H78.9679C78.7364 93.7524 78.5548 93.8022 78.423 93.9019C78.2941 93.9985 78.1769 94.1699 78.0714 94.416C77.9542 94.6914 77.8297 94.8979 77.6979 95.0356C77.569 95.1704 77.4313 95.2729 77.2848 95.3433L79.6446 97.9492Z" fill="#65666D" style="fill:#65666D;fill:color(display-p3 0.3961 0.4000 0.4275);fill-opacity:1;"/>
<g clip-path="url(#clip1_272_3244)">
<path d="M48.3791 0.175781C45.2711 0.175781 43.0511 2.63379 43.0198 5.69298C42.9886 8.72065 45.3849 11.278 48.4014 11.2514C51.3242 11.2514 53.7606 8.72792 53.7204 5.68571C53.6803 2.66046 51.4737 0.178205 48.3791 0.178205V0.175781ZM48.3924 9.28546C46.3956 9.25637 45.0457 7.38256 45.068 5.65177C45.0881 4.02521 46.3799 2.14413 48.3657 2.14171C50.2599 2.13928 51.7124 3.9234 51.6655 5.71479C51.786 7.23227 50.3402 9.31697 48.3902 9.28788L48.3924 9.28546Z" fill="#295BF6" style="fill:#295BF6;fill:color(display-p3 0.1608 0.3569 0.9647);fill-opacity:1;"/>
<path d="M48.3791 0.175781C45.2711 0.175781 43.0511 2.63379 43.0198 5.69298C42.9886 8.72065 45.3849 11.278 48.4014 11.2514C51.3242 11.2514 53.7606 8.72792 53.7204 5.68571C53.6803 2.66046 51.4737 0.178205 48.3791 0.178205V0.175781ZM48.3924 9.28546C46.3956 9.25637 45.0457 7.38256 45.068 5.65177C45.0881 4.02521 46.3799 2.14413 48.3657 2.14171C50.2599 2.13928 51.7124 3.9234 51.6655 5.71479C51.786 7.23227 50.3402 9.31697 48.3902 9.28788L48.3924 9.28546Z" fill="#65666D" style="fill:#65666D;fill:color(display-p3 0.3961 0.4000 0.4275);fill-opacity:1;"/>
<path d="M60.5587 0.179688C57.4508 0.179688 55.2308 2.6377 55.1995 5.69688C55.1683 8.72456 57.5645 11.282 60.5811 11.2553C63.5039 11.2553 65.9403 8.73183 65.9001 5.68961C65.86 2.66437 63.6533 0.182112 60.5587 0.182112V0.179688ZM60.5721 9.28936C58.5753 9.26027 57.2254 7.38647 57.2477 5.65567C57.2678 4.02912 58.5596 2.14804 60.5454 2.14561C62.4396 2.14319 63.8921 3.92731 63.8452 5.7187C63.9657 7.23617 62.5199 9.32088 60.5699 9.29179L60.5721 9.28936Z" fill="#295BF6" style="fill:#295BF6;fill:color(display-p3 0.1608 0.3569 0.9647);fill-opacity:1;"/>
<path d="M60.5587 0.179688C57.4508 0.179688 55.2308 2.6377 55.1995 5.69688C55.1683 8.72456 57.5645 11.282 60.5811 11.2553C63.5039 11.2553 65.9403 8.73183 65.9001 5.68961C65.86 2.66437 63.6533 0.182112 60.5587 0.182112V0.179688ZM60.5721 9.28936C58.5753 9.26027 57.2254 7.38647 57.2477 5.65567C57.2678 4.02912 58.5596 2.14804 60.5454 2.14561C62.4396 2.14319 63.8921 3.92731 63.8452 5.7187C63.9657 7.23617 62.5199 9.32088 60.5699 9.29179L60.5721 9.28936Z" fill="#65666D" style="fill:#65666D;fill:color(display-p3 0.3961 0.4000 0.4275);fill-opacity:1;"/>
<path d="M67.3498 7.62745C67.3498 8.39588 67.3498 9.16189 67.3498 9.93032C67.3498 10.3691 67.3498 10.8078 67.3498 11.249C67.3498 11.3872 67.3967 11.4429 67.5261 11.4211C67.6778 11.3945 67.8295 11.3751 67.9746 11.3193C68.8447 10.9848 69.407 10.1242 69.407 9.11826C69.407 7.57897 69.4226 6.03726 69.4003 4.49797C69.3869 3.62288 69.9915 2.41326 71.1272 2.27024C71.8121 2.18298 72.4034 2.40114 72.8675 2.9708C73.2445 3.4338 73.4074 3.97437 73.4029 4.59736C73.3896 6.14634 73.3985 7.69775 73.3985 9.24916C73.3985 9.38491 73.3918 9.52308 73.4253 9.6564C73.664 10.6066 74.3043 11.3072 75.2526 11.4211C75.4043 11.4405 75.4333 11.4139 75.4333 11.2442C75.4333 10.7133 75.4333 10.1849 75.4333 9.65398C75.4333 7.92804 75.4333 6.19967 75.4333 4.47373C75.4333 3.56955 76.0669 2.50538 77.0263 2.29448C78.3784 1.99632 79.4538 3.23503 79.436 4.4107C79.4159 5.95484 79.4449 7.5014 79.4248 9.04554C79.4159 9.69034 79.5989 10.2358 79.9848 10.7085C80.3441 11.1472 80.8059 11.3751 81.3414 11.4236C81.4351 11.4332 81.4864 11.3896 81.4775 11.2854C81.4596 11.1036 81.4842 10.9218 81.4842 10.74C81.4842 8.72071 81.4864 6.69903 81.4842 4.67977C81.4842 4.39131 81.4909 4.10042 81.4462 3.81923C81.2655 2.66779 80.7479 1.70543 79.9224 0.975787C79.0634 0.214627 78.0638 -0.105351 76.9416 0.0473658C75.9777 0.178266 75.1767 0.636416 74.4984 1.37576C74.4315 1.44848 74.3936 1.45333 74.3311 1.37818C74.0768 1.07033 73.7711 0.83519 73.4453 0.624296C72.4815 0.00130833 71.4485 -0.151408 70.373 0.161297C69.5007 0.413401 68.7733 0.929729 68.2334 1.73452C67.6778 2.56356 67.3164 3.45319 67.3454 4.51009C67.3722 5.55002 67.3521 6.58995 67.3521 7.62987L67.3498 7.62745Z" fill="#295BF6" style="fill:#295BF6;fill:color(display-p3 0.1608 0.3569 0.9647);fill-opacity:1;"/>
<path d="M67.3498 7.62745C67.3498 8.39588 67.3498 9.16189 67.3498 9.93032C67.3498 10.3691 67.3498 10.8078 67.3498 11.249C67.3498 11.3872 67.3967 11.4429 67.5261 11.4211C67.6778 11.3945 67.8295 11.3751 67.9746 11.3193C68.8447 10.9848 69.407 10.1242 69.407 9.11826C69.407 7.57897 69.4226 6.03726 69.4003 4.49797C69.3869 3.62288 69.9915 2.41326 71.1272 2.27024C71.8121 2.18298 72.4034 2.40114 72.8675 2.9708C73.2445 3.4338 73.4074 3.97437 73.4029 4.59736C73.3896 6.14634 73.3985 7.69775 73.3985 9.24916C73.3985 9.38491 73.3918 9.52308 73.4253 9.6564C73.664 10.6066 74.3043 11.3072 75.2526 11.4211C75.4043 11.4405 75.4333 11.4139 75.4333 11.2442C75.4333 10.7133 75.4333 10.1849 75.4333 9.65398C75.4333 7.92804 75.4333 6.19967 75.4333 4.47373C75.4333 3.56955 76.0669 2.50538 77.0263 2.29448C78.3784 1.99632 79.4538 3.23503 79.436 4.4107C79.4159 5.95484 79.4449 7.5014 79.4248 9.04554C79.4159 9.69034 79.5989 10.2358 79.9848 10.7085C80.3441 11.1472 80.8059 11.3751 81.3414 11.4236C81.4351 11.4332 81.4864 11.3896 81.4775 11.2854C81.4596 11.1036 81.4842 10.9218 81.4842 10.74C81.4842 8.72071 81.4864 6.69903 81.4842 4.67977C81.4842 4.39131 81.4909 4.10042 81.4462 3.81923C81.2655 2.66779 80.7479 1.70543 79.9224 0.975787C79.0634 0.214627 78.0638 -0.105351 76.9416 0.0473658C75.9777 0.178266 75.1767 0.636416 74.4984 1.37576C74.4315 1.44848 74.3936 1.45333 74.3311 1.37818C74.0768 1.07033 73.7711 0.83519 73.4453 0.624296C72.4815 0.00130833 71.4485 -0.151408 70.373 0.161297C69.5007 0.413401 68.7733 0.929729 68.2334 1.73452C67.6778 2.56356 67.3164 3.45319 67.3454 4.51009C67.3722 5.55002 67.3521 6.58995 67.3521 7.62987L67.3498 7.62745Z" fill="#65666D" style="fill:#65666D;fill:color(display-p3 0.3961 0.4000 0.4275);fill-opacity:1;"/>
<path d="M38.7658 11.2924C39.9014 11.2706 41.2825 11.3239 42.6636 11.2682C42.8644 11.2609 42.8934 11.2294 42.8577 11.0137C42.7439 10.3228 42.4293 9.77495 41.8804 9.39195C41.4811 9.11318 41.0304 9.03803 40.573 9.03561C39.1361 9.02591 37.7015 9.03318 36.2646 9.03318C36.2089 9.03318 36.1531 9.03318 36.0973 9.03318C36.0661 9.03318 36.0281 9.04046 36.0125 8.99682C35.9991 8.95561 36.0281 8.92895 36.0527 8.90713C36.1977 8.78108 36.316 8.62109 36.4454 8.47807C38.1678 6.60184 39.8925 4.7256 41.6172 2.84937C41.7533 2.7015 41.876 2.54393 41.9786 2.3694C42.3869 1.67369 42.2508 0.849504 41.6506 0.345296C41.3405 0.0834959 40.9835 0.00107737 40.6042 0.00107737C38.1321 -0.00134671 35.66 0.00107737 33.1879 0.00107737C33.0161 0.00107737 32.9826 0.0325903 33.0072 0.211972C33.0964 0.854352 33.3775 1.38038 33.8528 1.7755C34.2655 2.11972 34.7497 2.2288 35.2562 2.23123C36.5301 2.23607 37.8019 2.23123 39.0759 2.23365C39.1272 2.23365 39.2031 2.20214 39.2276 2.27001C39.2477 2.32577 39.183 2.36213 39.1473 2.40091C38.2615 3.36569 37.3735 4.32805 36.4855 5.29283C35.5127 6.34973 34.54 7.4042 33.5672 8.46352C33.2682 8.78835 33.0317 9.15924 33.0049 9.63193C32.9625 10.3567 33.4266 11.0209 34.0803 11.2052C34.3146 11.2706 34.5556 11.2948 34.7988 11.2948C36.0393 11.2948 37.2798 11.2948 38.7635 11.2948L38.7658 11.2924Z" fill="#295BF6" style="fill:#295BF6;fill:color(display-p3 0.1608 0.3569 0.9647);fill-opacity:1;"/>
<path d="M38.7658 11.2924C39.9014 11.2706 41.2825 11.3239 42.6636 11.2682C42.8644 11.2609 42.8934 11.2294 42.8577 11.0137C42.7439 10.3228 42.4293 9.77495 41.8804 9.39195C41.4811 9.11318 41.0304 9.03803 40.573 9.03561C39.1361 9.02591 37.7015 9.03318 36.2646 9.03318C36.2089 9.03318 36.1531 9.03318 36.0973 9.03318C36.0661 9.03318 36.0281 9.04046 36.0125 8.99682C35.9991 8.95561 36.0281 8.92895 36.0527 8.90713C36.1977 8.78108 36.316 8.62109 36.4454 8.47807C38.1678 6.60184 39.8925 4.7256 41.6172 2.84937C41.7533 2.7015 41.876 2.54393 41.9786 2.3694C42.3869 1.67369 42.2508 0.849504 41.6506 0.345296C41.3405 0.0834959 40.9835 0.00107737 40.6042 0.00107737C38.1321 -0.00134671 35.66 0.00107737 33.1879 0.00107737C33.0161 0.00107737 32.9826 0.0325903 33.0072 0.211972C33.0964 0.854352 33.3775 1.38038 33.8528 1.7755C34.2655 2.11972 34.7497 2.2288 35.2562 2.23123C36.5301 2.23607 37.8019 2.23123 39.0759 2.23365C39.1272 2.23365 39.2031 2.20214 39.2276 2.27001C39.2477 2.32577 39.183 2.36213 39.1473 2.40091C38.2615 3.36569 37.3735 4.32805 36.4855 5.29283C35.5127 6.34973 34.54 7.4042 33.5672 8.46352C33.2682 8.78835 33.0317 9.15924 33.0049 9.63193C32.9625 10.3567 33.4266 11.0209 34.0803 11.2052C34.3146 11.2706 34.5556 11.2948 34.7988 11.2948C36.0393 11.2948 37.2798 11.2948 38.7635 11.2948L38.7658 11.2924Z" fill="#65666D" style="fill:#65666D;fill:color(display-p3 0.3961 0.4000 0.4275);fill-opacity:1;"/>
</g>
<defs>
<linearGradient id="paint0_linear_272_3244" x1="57.3672" y1="27.4141" x2="57.3672" y2="59.4141" gradientUnits="userSpaceOnUse">
<stop stop-color="#FFD66B" style="stop-color:#FFD66B;stop-color:color(display-p3 1.0000 0.8392 0.4196);stop-opacity:1;"/>
<stop offset="1" stop-color="#FFA469" style="stop-color:#FFA469;stop-color:color(display-p3 1.0000 0.6431 0.4118);stop-opacity:1;"/>
</linearGradient>
<clipPath id="clip0_272_3244">
<rect width="20.141" height="19.1716" fill="white" style="fill:white;fill-opacity:1;" transform="translate(133.539 139.977) rotate(9.47379)"/>
</clipPath>
<clipPath id="clip1_272_3244">
<rect width="48.2375" height="11.4247" fill="white" style="fill:white;fill-opacity:1;" transform="translate(33.25)"/>
</clipPath>
</defs>
</svg>
