<svg width="131" height="184" viewBox="0 0 131 184" fill="none" xmlns="http://www.w3.org/2000/svg">
<rect width="132.366" height="156.035" rx="10" transform="matrix(0.985407 -0.170216 0.170469 0.985363 21 29.5742)" fill="#D7D7D7" style="fill:#D7D7D7;fill:color(display-p3 0.8417 0.8417 0.8417);fill-opacity:1;"/>
<path d="M32.0156 8C32.0156 3.58172 35.5973 0 40.0156 0H281.016C285.434 0 289.016 3.58172 289.016 8V15H32.0156V8Z" fill="#F3F0F0" style="fill:#F3F0F0;fill:color(display-p3 0.9529 0.9412 0.9412);fill-opacity:1;"/>
<rect x="40.0117" y="7.99219" width="3.59644" height="3.59644" rx="1.79822" fill="#ED695E" style="fill:#ED695E;fill:color(display-p3 0.9294 0.4118 0.3686);fill-opacity:1;"/>
<rect x="46.0039" y="7.99219" width="3.59644" height="3.59644" rx="1.79822" fill="#F5BF4F" style="fill:#F5BF4F;fill:color(display-p3 0.9608 0.7490 0.3098);fill-opacity:1;"/>
<rect x="52.0039" y="7.99219" width="3.59644" height="3.59644" rx="1.79822" fill="#61C454" style="fill:#61C454;fill:color(display-p3 0.3804 0.7686 0.3294);fill-opacity:1;"/>
<path d="M32.0156 14H290.016V161C290.016 167.075 285.091 172 279.016 172H43.0156C36.9405 172 32.0156 167.075 32.0156 161V14Z" fill="#F3F0F0" style="fill:#F3F0F0;fill:color(display-p3 0.9529 0.9412 0.9412);fill-opacity:1;"/>
<g clip-path="url(#clip0_272_3316)">
<rect x="35.0156" y="14" width="251" height="155" rx="8" fill="#F3F0F0" style="fill:#F3F0F0;fill:color(display-p3 0.9529 0.9412 0.9412);fill-opacity:1;"/>
<rect x="47.4336" y="46.3477" width="57.3384" height="50.8472" rx="5" fill="white" style="fill:white;fill-opacity:1;"/>
<path fill-rule="evenodd" clip-rule="evenodd" d="M55.2773 71.4074C55.2773 70.3971 56.0964 69.5781 57.1067 69.5781H95.4243C96.4346 69.5781 97.2536 70.3971 97.2536 71.4074C97.2536 72.4177 96.4346 73.2368 95.4243 73.2368H57.1067C56.0964 73.2368 55.2773 72.4177 55.2773 71.4074Z" fill="#F3F0F0" style="fill:#F3F0F0;fill:color(display-p3 0.9529 0.9412 0.9412);fill-opacity:1;"/>
<path fill-rule="evenodd" clip-rule="evenodd" d="M55.2773 76.6301C55.2773 75.6198 56.0964 74.8008 57.1067 74.8008H92.7676C93.7779 74.8008 94.5969 75.6198 94.5969 76.6301C94.5969 77.6404 93.7779 78.4594 92.7676 78.4594H57.1067C56.0964 78.4594 55.2773 77.6404 55.2773 76.6301Z" fill="#F3F0F0" style="fill:#F3F0F0;fill:color(display-p3 0.9529 0.9412 0.9412);fill-opacity:1;"/>
<path fill-rule="evenodd" clip-rule="evenodd" d="M55.2773 82.384C55.2773 81.3737 56.0964 80.5547 57.1067 80.5547H94.893C95.9033 80.5547 96.7223 81.3737 96.7223 82.384C96.7223 83.3943 95.9033 84.2133 94.893 84.2133H57.1067C56.0964 84.2133 55.2773 83.3943 55.2773 82.384Z" fill="#F3F0F0" style="fill:#F3F0F0;fill:color(display-p3 0.9529 0.9412 0.9412);fill-opacity:1;"/>
<path fill-rule="evenodd" clip-rule="evenodd" d="M55.2773 88.1301C55.2773 87.1198 56.0964 86.3008 57.1067 86.3008H91.7049C92.7152 86.3008 93.5342 87.1198 93.5342 88.1301C93.5342 89.1404 92.7152 89.9594 91.7049 89.9594H57.1067C56.0964 89.9594 55.2773 89.1404 55.2773 88.1301Z" fill="#F3F0F0" style="fill:#F3F0F0;fill:color(display-p3 0.9529 0.9412 0.9412);fill-opacity:1;"/>
<path fill-rule="evenodd" clip-rule="evenodd" d="M55.2773 55.2043C55.2773 54.194 56.0964 53.375 57.1067 53.375H90.6422C91.6525 53.375 92.4715 54.194 92.4715 55.2043C92.4715 56.2146 91.6525 57.0336 90.6422 57.0336H57.1067C56.0964 57.0336 55.2773 56.2146 55.2773 55.2043Z" fill="#FFA469" style="fill:#FFA469;fill:color(display-p3 1.0000 0.6431 0.4118);fill-opacity:1;"/>
<path fill-rule="evenodd" clip-rule="evenodd" d="M55.2773 60.9543C55.2773 59.944 56.0964 59.125 57.1067 59.125H81.078C82.0883 59.125 82.9073 59.944 82.9073 60.9543C82.9073 61.9646 82.0883 62.7836 81.078 62.7836H57.1067C56.0964 62.7836 55.2773 61.9646 55.2773 60.9543Z" fill="#FFA469" style="fill:#FFA469;fill:color(display-p3 1.0000 0.6431 0.4118);fill-opacity:1;"/>
<rect x="111.414" y="46.3477" width="57.3384" height="50.8472" rx="5" fill="white" style="fill:white;fill-opacity:1;"/>
<path fill-rule="evenodd" clip-rule="evenodd" d="M119.262 71.4074C119.262 70.3971 120.081 69.5781 121.091 69.5781H159.409C160.419 69.5781 161.238 70.3971 161.238 71.4074C161.238 72.4177 160.419 73.2368 159.409 73.2368H121.091C120.081 73.2368 119.262 72.4177 119.262 71.4074Z" fill="#F3F0F0" style="fill:#F3F0F0;fill:color(display-p3 0.9529 0.9412 0.9412);fill-opacity:1;"/>
<path fill-rule="evenodd" clip-rule="evenodd" d="M119.262 76.6301C119.262 75.6198 120.081 74.8008 121.091 74.8008H156.752C157.762 74.8008 158.581 75.6198 158.581 76.6301C158.581 77.6404 157.762 78.4594 156.752 78.4594H121.091C120.081 78.4594 119.262 77.6404 119.262 76.6301Z" fill="#F3F0F0" style="fill:#F3F0F0;fill:color(display-p3 0.9529 0.9412 0.9412);fill-opacity:1;"/>
<path fill-rule="evenodd" clip-rule="evenodd" d="M119.262 82.384C119.262 81.3737 120.081 80.5547 121.091 80.5547H158.877C159.888 80.5547 160.707 81.3737 160.707 82.384C160.707 83.3943 159.888 84.2133 158.877 84.2133H121.091C120.081 84.2133 119.262 83.3943 119.262 82.384Z" fill="#F3F0F0" style="fill:#F3F0F0;fill:color(display-p3 0.9529 0.9412 0.9412);fill-opacity:1;"/>
<path fill-rule="evenodd" clip-rule="evenodd" d="M119.262 88.1301C119.262 87.1198 120.081 86.3008 121.091 86.3008H155.689C156.7 86.3008 157.519 87.1198 157.519 88.1301C157.519 89.1404 156.7 89.9594 155.689 89.9594H121.091C120.081 89.9594 119.262 89.1404 119.262 88.1301Z" fill="#F3F0F0" style="fill:#F3F0F0;fill:color(display-p3 0.9529 0.9412 0.9412);fill-opacity:1;"/>
<path fill-rule="evenodd" clip-rule="evenodd" d="M119.262 55.2043C119.262 54.194 120.081 53.375 121.091 53.375H154.627C155.637 53.375 156.456 54.194 156.456 55.2043C156.456 56.2146 155.637 57.0336 154.627 57.0336H121.091C120.081 57.0336 119.262 56.2146 119.262 55.2043Z" fill="#FCCD82" style="fill:#FCCD82;fill:color(display-p3 0.9882 0.8039 0.5098);fill-opacity:1;"/>
<path fill-rule="evenodd" clip-rule="evenodd" d="M119.262 60.9543C119.262 59.944 120.081 59.125 121.091 59.125H145.062C146.073 59.125 146.892 59.944 146.892 60.9543C146.892 61.9646 146.073 62.7836 145.062 62.7836H121.091C120.081 62.7836 119.262 61.9646 119.262 60.9543Z" fill="#FCCD82" style="fill:#FCCD82;fill:color(display-p3 0.9882 0.8039 0.5098);fill-opacity:1;"/>
<path d="M71.8324 97.3672C71.8324 98.5622 72.8011 99.5309 73.9961 99.5309C75.1911 99.5309 76.1598 98.5622 76.1598 97.3672C76.1598 96.1722 75.1911 95.2035 73.9961 95.2035C72.8011 95.2035 71.8324 96.1722 71.8324 97.3672ZM139.878 97.0803C139.72 96.9219 139.463 96.9219 139.304 97.0803L136.723 99.6622C136.564 99.8206 136.564 100.077 136.723 100.236C136.881 100.394 137.138 100.394 137.296 100.236L139.591 97.9409L141.886 100.236C142.045 100.394 142.301 100.394 142.46 100.236C142.618 100.077 142.618 99.8206 142.46 99.6622L139.878 97.0803ZM73.5904 97.3672V100.528H74.4018V97.3672H73.5904ZM81.2958 108.234H132.292V107.422H81.2958V108.234ZM139.997 100.528V97.3672H139.186V100.528H139.997ZM132.292 108.234C136.547 108.234 139.997 104.784 139.997 100.528H139.186C139.186 104.336 136.099 107.422 132.292 107.422V108.234ZM73.5904 100.528C73.5904 104.784 77.0402 108.234 81.2958 108.234V107.422C77.4883 107.422 74.4018 104.336 74.4018 100.528H73.5904Z" fill="#FFA469" style="fill:#FFA469;fill:color(display-p3 1.0000 0.6431 0.4118);fill-opacity:1;"/>
<path fill-rule="evenodd" clip-rule="evenodd" d="M107.858 114.314C111.443 114.314 114.349 111.408 114.349 107.823C114.349 104.238 111.443 101.332 107.858 101.332C104.273 101.332 101.367 104.238 101.367 107.823C101.367 111.408 104.273 114.314 107.858 114.314Z" fill="#FFA469" style="fill:#FFA469;fill:color(display-p3 1.0000 0.6431 0.4118);fill-opacity:1;"/>
<path fill-rule="evenodd" clip-rule="evenodd" d="M105.76 107.615C105.488 107.343 105.046 107.343 104.774 107.615C104.502 107.887 104.502 108.328 104.774 108.6L106.681 110.463C106.985 110.767 107.488 110.726 107.739 110.377L110.993 106.053C111.218 105.74 111.147 105.305 110.834 105.08C110.522 104.856 110.087 104.927 109.862 105.239L107.086 108.898L105.76 107.615Z" fill="white" style="fill:white;fill-opacity:1;"/>
<rect x="47.4336" y="140.93" width="57.3384" height="50.8472" rx="5" fill="white" style="fill:white;fill-opacity:1;"/>
<path fill-rule="evenodd" clip-rule="evenodd" d="M55.2773 165.997C55.2773 164.987 56.0964 164.168 57.1067 164.168H95.4243C96.4346 164.168 97.2536 164.987 97.2536 165.997C97.2536 167.008 96.4346 167.827 95.4243 167.827H57.1067C56.0964 167.827 55.2773 167.008 55.2773 165.997Z" fill="#F3F0F0" style="fill:#F3F0F0;fill:color(display-p3 0.9529 0.9412 0.9412);fill-opacity:1;"/>
<path fill-rule="evenodd" clip-rule="evenodd" d="M55.2773 149.794C55.2773 148.784 56.0964 147.965 57.1067 147.965H90.6422C91.6525 147.965 92.4715 148.784 92.4715 149.794C92.4715 150.804 91.6525 151.623 90.6422 151.623H57.1067C56.0964 151.623 55.2773 150.804 55.2773 149.794Z" fill="#FFA469" style="fill:#FFA469;fill:color(display-p3 1.0000 0.6431 0.4118);fill-opacity:1;"/>
<path fill-rule="evenodd" clip-rule="evenodd" d="M55.2773 155.54C55.2773 154.53 56.0964 153.711 57.1067 153.711H81.078C82.0883 153.711 82.9073 154.53 82.9073 155.54C82.9073 156.551 82.0883 157.37 81.078 157.37H57.1067C56.0964 157.37 55.2773 156.551 55.2773 155.54Z" fill="#FFA469" style="fill:#FFA469;fill:color(display-p3 1.0000 0.6431 0.4118);fill-opacity:1;"/>
<rect x="111.414" y="140.93" width="57.3384" height="50.8472" rx="5" fill="white" style="fill:white;fill-opacity:1;"/>
<path fill-rule="evenodd" clip-rule="evenodd" d="M119.262 165.997C119.262 164.987 120.081 164.168 121.091 164.168H159.409C160.419 164.168 161.238 164.987 161.238 165.997C161.238 167.008 160.419 167.827 159.409 167.827H121.091C120.081 167.827 119.262 167.008 119.262 165.997Z" fill="#F3F0F0" style="fill:#F3F0F0;fill:color(display-p3 0.9529 0.9412 0.9412);fill-opacity:1;"/>
<path fill-rule="evenodd" clip-rule="evenodd" d="M119.262 149.794C119.262 148.784 120.081 147.965 121.091 147.965H154.627C155.637 147.965 156.456 148.784 156.456 149.794C156.456 150.804 155.637 151.623 154.627 151.623H121.091C120.081 151.623 119.262 150.804 119.262 149.794Z" fill="#FCCD82" style="fill:#FCCD82;fill:color(display-p3 0.9882 0.8039 0.5098);fill-opacity:1;"/>
<path fill-rule="evenodd" clip-rule="evenodd" d="M119.262 155.54C119.262 154.53 120.081 153.711 121.091 153.711H145.062C146.073 153.711 146.892 154.53 146.892 155.54C146.892 156.551 146.073 157.37 145.062 157.37H121.091C120.081 157.37 119.262 156.551 119.262 155.54Z" fill="#FCCD82" style="fill:#FCCD82;fill:color(display-p3 0.9882 0.8039 0.5098);fill-opacity:1;"/>
<path d="M51.8009 27.6367V22.9487H49.4889V27.6367H48.5769V22.1247H52.7289V27.6367H51.8009ZM54.3918 25.9327V26.1327C54.3918 26.2714 54.4158 26.3914 54.4638 26.4927C54.5118 26.5887 54.5731 26.6687 54.6478 26.7327C54.7278 26.7914 54.8184 26.8367 54.9198 26.8687C55.0264 26.8954 55.1358 26.9087 55.2478 26.9087C55.3704 26.9087 55.5171 26.8874 55.6878 26.8447C55.8638 26.8021 56.0371 26.7034 56.2078 26.5487C56.2931 26.6501 56.3758 26.7487 56.4558 26.8447C56.5411 26.9354 56.6238 27.0314 56.7038 27.1327C56.4798 27.3514 56.2424 27.4981 55.9918 27.5727C55.7464 27.6421 55.4984 27.6767 55.2478 27.6767C55.0184 27.6767 54.7998 27.6474 54.5918 27.5887C54.3891 27.5301 54.2078 27.4421 54.0478 27.3247C53.8931 27.2021 53.7704 27.0501 53.6798 26.8687C53.5891 26.6874 53.5438 26.4741 53.5438 26.2287V25.1887C53.5438 24.9487 53.5838 24.7327 53.6638 24.5407C53.7491 24.3487 53.8664 24.1861 54.0158 24.0527C54.1651 23.9194 54.3384 23.8181 54.5358 23.7487C54.7331 23.6741 54.9491 23.6367 55.1838 23.6367C55.4238 23.6367 55.6451 23.6714 55.8478 23.7407C56.0504 23.8101 56.2238 23.9114 56.3678 24.0447C56.5171 24.1727 56.6318 24.3301 56.7118 24.5167C56.7918 24.7034 56.8318 24.9167 56.8318 25.1567V25.9327H54.3918ZM55.9758 25.2047C55.9758 24.9274 55.8984 24.7274 55.7438 24.6047C55.5891 24.4767 55.4051 24.4127 55.1918 24.4127C54.9784 24.4127 54.7918 24.4794 54.6318 24.6127C54.4771 24.7407 54.3998 24.9354 54.3998 25.1967V25.3247H55.9758V25.2047ZM60.9047 26.2607C60.9047 26.7034 60.7821 27.0527 60.5367 27.3087C60.2967 27.5594 59.9554 27.6847 59.5127 27.6847C59.3741 27.6847 59.2087 27.6714 59.0167 27.6447C58.8247 27.6181 58.6141 27.5514 58.3847 27.4447V29.2207H57.5367V23.6767H58.3047L58.3847 24.0687C58.6567 23.9034 58.8887 23.7914 59.0807 23.7327C59.2727 23.6687 59.4381 23.6367 59.5767 23.6367C59.9874 23.6367 60.3101 23.7541 60.5447 23.9887C60.7847 24.2181 60.9047 24.5781 60.9047 25.0687V26.2607ZM60.0487 25.1407C60.0487 24.8741 59.9901 24.6927 59.8727 24.5967C59.7607 24.4954 59.6167 24.4447 59.4407 24.4447C59.3714 24.4447 59.2914 24.4554 59.2007 24.4767C59.1154 24.4981 59.0247 24.5274 58.9287 24.5647C58.8327 24.6021 58.7367 24.6447 58.6407 24.6927C58.5501 24.7407 58.4647 24.7914 58.3847 24.8447V26.6527C58.5981 26.7434 58.7794 26.8047 58.9287 26.8367C59.0834 26.8687 59.2327 26.8847 59.3767 26.8847C59.4674 26.8847 59.5527 26.8741 59.6327 26.8527C59.7181 26.8314 59.7901 26.7941 59.8487 26.7407C59.9127 26.6821 59.9607 26.6074 59.9927 26.5167C60.0301 26.4261 60.0487 26.3141 60.0487 26.1807V25.1407ZM64.8941 26.4447C64.8941 26.5994 64.8674 26.7487 64.8141 26.8927C64.7608 27.0367 64.6808 27.1647 64.5741 27.2767C64.4674 27.3834 64.3341 27.4714 64.1741 27.5407C64.0141 27.6047 63.8274 27.6367 63.6141 27.6367H61.6061V23.6767H63.5981C63.8061 23.6767 63.9874 23.7061 64.1421 23.7647C64.2968 23.8234 64.4221 23.9034 64.5181 24.0047C64.6194 24.1007 64.6941 24.2154 64.7421 24.3487C64.7954 24.4767 64.8221 24.6127 64.8221 24.7567C64.8221 24.9114 64.7768 25.0661 64.6861 25.2207C64.6008 25.3754 64.4808 25.4901 64.3261 25.5647C64.5128 25.6501 64.6541 25.7727 64.7501 25.9327C64.8461 26.0927 64.8941 26.2634 64.8941 26.4447ZM64.0301 26.4207C64.0301 26.2714 63.9768 26.1541 63.8701 26.0687C63.7634 25.9834 63.6354 25.9407 63.4861 25.9407H62.4621V26.9247H63.4381C63.6408 26.9247 63.7901 26.8794 63.8861 26.7887C63.9821 26.6981 64.0301 26.5754 64.0301 26.4207ZM63.9741 24.8207C63.9741 24.6767 63.9208 24.5727 63.8141 24.5087C63.7128 24.4394 63.5928 24.4047 63.4541 24.4047H62.4621V25.2287H63.4781C63.6328 25.2287 63.7528 25.1941 63.8381 25.1247C63.9288 25.0501 63.9741 24.9487 63.9741 24.8207ZM68.1187 25.0287L67.4867 26.0207L66.3827 27.6367H65.6227V23.6767H66.4787V26.2767H66.5107L67.0947 25.4047L68.2467 23.6767H69.0147V27.6367H68.1587V25.0287H68.1187ZM70.482 23.6687V24.8287C70.482 25.0901 70.5433 25.2741 70.666 25.3807C70.794 25.4874 70.9593 25.5407 71.162 25.5407C71.306 25.5407 71.466 25.5114 71.642 25.4527C71.8233 25.3941 71.9993 25.3114 72.17 25.2047V23.6687H73.01V27.6367H72.17V25.9647C71.914 26.1034 71.69 26.1941 71.498 26.2367C71.3113 26.2794 71.1433 26.3007 70.994 26.3007C70.5726 26.3007 70.2393 26.1861 69.994 25.9567C69.754 25.7274 69.634 25.3861 69.634 24.9327V23.6687H70.482ZM76.2989 27.6367V25.9967H74.6269V27.6367H73.7869V23.6767H74.6269V25.2607H76.2989V23.6767H77.1549V27.6367H76.2989ZM81.5666 27.6367V23.6767H82.3986V27.6367H81.5666ZM78.7986 26.9167H79.7346C79.9373 26.9167 80.0919 26.8714 80.1986 26.7807C80.3053 26.6847 80.3586 26.5541 80.3586 26.3887C80.3586 26.2607 80.3106 26.1434 80.2146 26.0367C80.1186 25.9301 79.9586 25.8767 79.7346 25.8767H78.7986V26.9167ZM77.9586 27.6367V23.6687H78.7986V25.1647H79.7906C80.2439 25.1647 80.5906 25.2794 80.8306 25.5087C81.0706 25.7327 81.1906 26.0261 81.1906 26.3887C81.1906 26.5594 81.1613 26.7221 81.1026 26.8767C81.0493 27.0261 80.9639 27.1567 80.8466 27.2687C80.7293 27.3807 80.5826 27.4714 80.4066 27.5407C80.2359 27.6047 80.0333 27.6367 79.7986 27.6367H77.9586ZM84.0324 25.9327V26.1327C84.0324 26.2714 84.0564 26.3914 84.1044 26.4927C84.1524 26.5887 84.2137 26.6687 84.2884 26.7327C84.3684 26.7914 84.4591 26.8367 84.5604 26.8687C84.6671 26.8954 84.7764 26.9087 84.8884 26.9087C85.0111 26.9087 85.1577 26.8874 85.3284 26.8447C85.5044 26.8021 85.6777 26.7034 85.8484 26.5487C85.9337 26.6501 86.0164 26.7487 86.0964 26.8447C86.1817 26.9354 86.2644 27.0314 86.3444 27.1327C86.1204 27.3514 85.8831 27.4981 85.6324 27.5727C85.3871 27.6421 85.1391 27.6767 84.8884 27.6767C84.6591 27.6767 84.4404 27.6474 84.2324 27.5887C84.0297 27.5301 83.8484 27.4421 83.6884 27.3247C83.5337 27.2021 83.4111 27.0501 83.3204 26.8687C83.2297 26.6874 83.1844 26.4741 83.1844 26.2287V25.1887C83.1844 24.9487 83.2244 24.7327 83.3044 24.5407C83.3897 24.3487 83.5071 24.1861 83.6564 24.0527C83.8057 23.9194 83.9791 23.8181 84.1764 23.7487C84.3737 23.6741 84.5897 23.6367 84.8244 23.6367C85.0644 23.6367 85.2857 23.6714 85.4884 23.7407C85.6911 23.8101 85.8644 23.9114 86.0084 24.0447C86.1577 24.1727 86.2724 24.3301 86.3524 24.5167C86.4324 24.7034 86.4724 24.9167 86.4724 25.1567V25.9327H84.0324ZM85.6164 25.2047C85.6164 24.9274 85.5391 24.7274 85.3844 24.6047C85.2297 24.4767 85.0457 24.4127 84.8324 24.4127C84.6191 24.4127 84.4324 24.4794 84.2724 24.6127C84.1177 24.7407 84.0404 24.9354 84.0404 25.1967V25.3247H85.6164V25.2047ZM51.0329 35.6367V32.4207H49.3689V35.6367H48.5209V31.6767H51.8889V35.6367H51.0329ZM56.0297 34.2607C56.0297 34.7034 55.9071 35.0527 55.6617 35.3087C55.4217 35.5594 55.0804 35.6847 54.6377 35.6847C54.4991 35.6847 54.3337 35.6714 54.1417 35.6447C53.9497 35.6181 53.7391 35.5514 53.5097 35.4447V37.2207H52.6617V31.6767H53.4297L53.5097 32.0687C53.7817 31.9034 54.0137 31.7914 54.2057 31.7327C54.3977 31.6687 54.5631 31.6367 54.7017 31.6367C55.1124 31.6367 55.4351 31.7541 55.6697 31.9887C55.9097 32.2181 56.0297 32.5781 56.0297 33.0687V34.2607ZM55.1737 33.1407C55.1737 32.8741 55.1151 32.6927 54.9977 32.5967C54.8857 32.4954 54.7417 32.4447 54.5657 32.4447C54.4964 32.4447 54.4164 32.4554 54.3257 32.4767C54.2404 32.4981 54.1497 32.5274 54.0537 32.5647C53.9577 32.6021 53.8617 32.6447 53.7657 32.6927C53.6751 32.7407 53.5897 32.7914 53.5097 32.8447V34.6527C53.7231 34.7434 53.9044 34.8047 54.0537 34.8367C54.2084 34.8687 54.3577 34.8847 54.5017 34.8847C54.5924 34.8847 54.6777 34.8741 54.7577 34.8527C54.8431 34.8314 54.9151 34.7941 54.9737 34.7407C55.0377 34.6821 55.0857 34.6074 55.1177 34.5167C55.1551 34.4261 55.1737 34.3141 55.1737 34.1807V33.1407ZM60.0991 34.2367C60.0991 34.4714 60.0511 34.6794 59.9551 34.8607C59.8644 35.0421 59.7391 35.1941 59.5791 35.3167C59.4244 35.4341 59.2458 35.5247 59.0431 35.5887C58.8404 35.6474 58.6298 35.6767 58.4111 35.6767C58.1871 35.6767 57.9711 35.6474 57.7631 35.5887C57.5604 35.5247 57.3818 35.4341 57.2271 35.3167C57.0778 35.1941 56.9578 35.0421 56.8671 34.8607C56.7764 34.6794 56.7311 34.4714 56.7311 34.2367V33.0847C56.7311 32.8501 56.7764 32.6421 56.8671 32.4607C56.9631 32.2794 57.0884 32.1274 57.2431 32.0047C57.3978 31.8821 57.5764 31.7887 57.7791 31.7247C57.9818 31.6607 58.1951 31.6287 58.4191 31.6287C58.6591 31.6287 58.8804 31.6607 59.0831 31.7247C59.2858 31.7887 59.4618 31.8847 59.6111 32.0127C59.7658 32.1354 59.8858 32.2874 59.9711 32.4687C60.0564 32.6501 60.0991 32.8581 60.0991 33.0927V34.2367ZM59.2591 33.2367C59.2591 33.0874 59.2324 32.9621 59.1791 32.8607C59.1311 32.7541 59.0671 32.6687 58.9871 32.6047C58.9071 32.5407 58.8164 32.4954 58.7151 32.4687C58.6138 32.4367 58.5151 32.4207 58.4191 32.4207C58.3231 32.4207 58.2244 32.4367 58.1231 32.4687C58.0218 32.4954 57.9311 32.5407 57.8511 32.6047C57.7711 32.6687 57.7044 32.7541 57.6511 32.8607C57.6031 32.9621 57.5791 33.0874 57.5791 33.2367V34.0767C57.5791 34.3754 57.6618 34.5861 57.8271 34.7087C57.9924 34.8314 58.1898 34.8927 58.4191 34.8927C58.5151 34.8927 58.6138 34.8794 58.7151 34.8527C58.8164 34.8207 58.9071 34.7727 58.9871 34.7087C59.0671 34.6447 59.1311 34.5621 59.1791 34.4607C59.2324 34.3541 59.2591 34.2261 59.2591 34.0767V33.2367ZM62.2488 32.4047L62.2008 33.3167C62.1795 33.6634 62.1475 33.9674 62.1048 34.2287C62.0675 34.4901 61.9928 34.7141 61.8808 34.9007H63.6328V32.4047H62.2488ZM60.5608 34.9167C60.6088 34.9167 60.6568 34.9167 60.7048 34.9167C60.7582 34.9167 60.8062 34.9141 60.8488 34.9087C61.0355 34.7754 61.1688 34.5887 61.2488 34.3487C61.3288 34.1034 61.3822 33.7674 61.4088 33.3407L61.5128 31.6767H64.4728V34.9007C64.5315 34.9007 64.5902 34.9034 64.6488 34.9087C64.7075 34.9087 64.7662 34.9087 64.8248 34.9087V36.6607H64.0488V35.6367H61.3368V36.6607H60.5608V34.9167ZM67.9062 35.2767C67.6236 35.4367 67.3836 35.5434 67.1862 35.5967C66.9942 35.6447 66.8156 35.6687 66.6502 35.6687C66.2556 35.6687 65.9462 35.5621 65.7222 35.3487C65.4982 35.1354 65.3862 34.8421 65.3862 34.4687C65.3862 34.2501 65.4342 34.0661 65.5302 33.9167C65.6262 33.7674 65.7462 33.6474 65.8902 33.5567C66.0342 33.4607 66.1889 33.3914 66.3542 33.3487C66.5249 33.3061 66.6822 33.2847 66.8262 33.2847H67.9222V33.0447C67.9222 32.8101 67.8556 32.6421 67.7222 32.5407C67.5889 32.4394 67.3836 32.3887 67.1062 32.3887C66.9729 32.3887 66.8076 32.4101 66.6102 32.4527C66.4182 32.4901 66.2236 32.5887 66.0262 32.7487L65.6342 32.1167C65.9009 31.9141 66.1676 31.7834 66.4342 31.7247C66.7062 31.6607 66.9569 31.6287 67.1862 31.6287C67.7302 31.6287 68.1302 31.7487 68.3862 31.9887C68.6422 32.2287 68.7702 32.5941 68.7702 33.0847V35.6367H68.0022L67.9302 35.2927L67.9062 35.2767ZM67.9222 33.9407H66.9702C66.8956 33.9407 66.8182 33.9461 66.7382 33.9567C66.6582 33.9674 66.5836 33.9914 66.5142 34.0287C66.4502 34.0607 66.3942 34.1087 66.3462 34.1727C66.3036 34.2367 66.2822 34.3247 66.2822 34.4367C66.2822 34.5861 66.3356 34.7034 66.4422 34.7887C66.5489 34.8687 66.6902 34.9087 66.8662 34.9087C66.9622 34.9087 67.0582 34.8981 67.1542 34.8767C67.2502 34.8501 67.3436 34.8207 67.4342 34.7887C67.5302 34.7514 67.6182 34.7114 67.6982 34.6687C67.7836 34.6261 67.8582 34.5861 67.9222 34.5487V33.9407ZM71.5923 35.6367V33.9967H71.2643C71.1737 33.9967 71.0883 34.0021 71.0083 34.0127C70.9337 34.0234 70.8643 34.0501 70.8003 34.0927C70.7417 34.1301 70.6883 34.1861 70.6403 34.2607C70.5923 34.3354 70.5523 34.4367 70.5203 34.5647L70.2083 35.6367H69.2803L69.6963 34.3487C69.7603 34.1514 69.835 33.9861 69.9203 33.8527C70.0057 33.7141 70.1443 33.6181 70.3363 33.5647C70.1817 33.5114 70.059 33.4234 69.9683 33.3007C69.8777 33.1727 69.8003 33.0127 69.7363 32.8207L69.3523 31.6687H70.2483L70.5923 32.7087C70.6723 32.9434 70.7737 33.0927 70.8963 33.1567C71.019 33.2207 71.1577 33.2527 71.3123 33.2527H71.5923V31.6687H72.4403V33.2527H72.7203C72.8803 33.2527 73.0217 33.2207 73.1443 33.1567C73.267 33.0927 73.3657 32.9434 73.4403 32.7087L73.7843 31.6687H74.6803L74.2963 32.8207C74.2323 33.0127 74.155 33.1727 74.0643 33.3007C73.9737 33.4234 73.851 33.5114 73.6963 33.5647C73.8883 33.6181 74.027 33.7141 74.1123 33.8527C74.1977 33.9861 74.2723 34.1514 74.3363 34.3487L74.7523 35.6367H73.8243L73.5203 34.5647C73.483 34.4367 73.4403 34.3354 73.3923 34.2607C73.3443 34.1861 73.2883 34.1301 73.2243 34.0927C73.1657 34.0501 73.099 34.0234 73.0243 34.0127C72.9497 34.0021 72.8643 33.9967 72.7683 33.9967H72.4403V35.6367H71.5923ZM77.7905 33.0287L77.1585 34.0207L76.0545 35.6367H75.2945V31.6767H76.1505V34.2767H76.1825L76.7665 33.4047L77.9185 31.6767H78.6865V35.6367H77.8305V33.0287H77.7905Z" fill="#46474E" style="fill:#46474E;fill:color(display-p3 0.2745 0.2784 0.3059);fill-opacity:1;"/>
<path d="M50.4169 121.276L49.2329 123.34H48.1929L49.9209 120.516L48.2969 117.828H49.3449L50.4169 119.756L51.4969 117.828H52.5369L50.9209 120.516L52.6489 123.34H51.6089L50.4169 121.276ZM56.435 121.94C56.435 122.175 56.387 122.383 56.291 122.564C56.2004 122.745 56.075 122.897 55.915 123.02C55.7604 123.137 55.5817 123.228 55.379 123.292C55.1764 123.351 54.9657 123.38 54.747 123.38C54.523 123.38 54.307 123.351 54.099 123.292C53.8964 123.228 53.7177 123.137 53.563 123.02C53.4137 122.897 53.2937 122.745 53.203 122.564C53.1124 122.383 53.067 122.175 53.067 121.94V120.788C53.067 120.553 53.1124 120.345 53.203 120.164C53.299 119.983 53.4244 119.831 53.579 119.708C53.7337 119.585 53.9124 119.492 54.115 119.428C54.3177 119.364 54.531 119.332 54.755 119.332C54.995 119.332 55.2164 119.364 55.419 119.428C55.6217 119.492 55.7977 119.588 55.947 119.716C56.1017 119.839 56.2217 119.991 56.307 120.172C56.3924 120.353 56.435 120.561 56.435 120.796V121.94ZM55.595 120.94C55.595 120.791 55.5684 120.665 55.515 120.564C55.467 120.457 55.403 120.372 55.323 120.308C55.243 120.244 55.1524 120.199 55.051 120.172C54.9497 120.14 54.851 120.124 54.755 120.124C54.659 120.124 54.5604 120.14 54.459 120.172C54.3577 120.199 54.267 120.244 54.187 120.308C54.107 120.372 54.0404 120.457 53.987 120.564C53.939 120.665 53.915 120.791 53.915 120.94V121.78C53.915 122.079 53.9977 122.289 54.163 122.412C54.3284 122.535 54.5257 122.596 54.755 122.596C54.851 122.596 54.9497 122.583 55.051 122.556C55.1524 122.524 55.243 122.476 55.323 122.412C55.403 122.348 55.467 122.265 55.515 122.164C55.5684 122.057 55.595 121.929 55.595 121.78V120.94ZM58.4808 121.084C58.4808 121.468 58.4488 121.796 58.3848 122.068C58.3261 122.34 58.2354 122.569 58.1128 122.756C57.9954 122.937 57.8488 123.084 57.6728 123.196C57.4968 123.308 57.2941 123.393 57.0648 123.452L56.8168 122.772C56.9661 122.713 57.0941 122.649 57.2008 122.58C57.3074 122.511 57.3928 122.415 57.4568 122.292C57.5261 122.169 57.5741 122.012 57.6008 121.82C57.6328 121.628 57.6488 121.38 57.6488 121.076V119.38H60.5128V123.34H59.6648V120.108H58.4808V121.084ZM64.7007 121.94C64.7007 122.175 64.6527 122.383 64.5567 122.564C64.466 122.745 64.3407 122.897 64.1807 123.02C64.026 123.137 63.8473 123.228 63.6447 123.292C63.442 123.351 63.2313 123.38 63.0127 123.38C62.7887 123.38 62.5727 123.351 62.3647 123.292C62.162 123.228 61.9833 123.137 61.8287 123.02C61.6793 122.897 61.5593 122.745 61.4687 122.564C61.378 122.383 61.3327 122.175 61.3327 121.94V120.788C61.3327 120.553 61.378 120.345 61.4687 120.164C61.5647 119.983 61.69 119.831 61.8447 119.708C61.9993 119.585 62.178 119.492 62.3807 119.428C62.5833 119.364 62.7967 119.332 63.0207 119.332C63.2607 119.332 63.482 119.364 63.6847 119.428C63.8873 119.492 64.0633 119.588 64.2127 119.716C64.3673 119.839 64.4873 119.991 64.5727 120.172C64.658 120.353 64.7007 120.561 64.7007 120.796V121.94ZM63.8607 120.94C63.8607 120.791 63.834 120.665 63.7807 120.564C63.7327 120.457 63.6687 120.372 63.5887 120.308C63.5087 120.244 63.418 120.199 63.3167 120.172C63.2153 120.14 63.1167 120.124 63.0207 120.124C62.9247 120.124 62.826 120.14 62.7247 120.172C62.6233 120.199 62.5327 120.244 62.4527 120.308C62.3727 120.372 62.306 120.457 62.2527 120.564C62.2047 120.665 62.1807 120.791 62.1807 120.94V121.78C62.1807 122.079 62.2633 122.289 62.4287 122.412C62.594 122.535 62.7913 122.596 63.0207 122.596C63.1167 122.596 63.2153 122.583 63.3167 122.556C63.418 122.524 63.5087 122.476 63.5887 122.412C63.6687 122.348 63.7327 122.265 63.7807 122.164C63.834 122.057 63.8607 121.929 63.8607 121.78V120.94ZM66.8504 120.108L66.8024 121.02C66.7811 121.367 66.7491 121.671 66.7064 121.932C66.6691 122.193 66.5944 122.417 66.4824 122.604H68.2344V120.108H66.8504ZM65.1624 122.62C65.2104 122.62 65.2584 122.62 65.3064 122.62C65.3597 122.62 65.4077 122.617 65.4504 122.612C65.6371 122.479 65.7704 122.292 65.8504 122.052C65.9304 121.807 65.9837 121.471 66.0104 121.044L66.1144 119.38H69.0744V122.604C69.1331 122.604 69.1917 122.607 69.2504 122.612C69.3091 122.612 69.3677 122.612 69.4264 122.612V124.364H68.6504V123.34H65.9384V124.364H65.1624V122.62ZM72.5958 123.34V121.7H70.9238V123.34H70.0838V119.38H70.9238V120.964H72.5958V119.38H73.4518V123.34H72.5958ZM77.8635 123.34V119.38H78.6955V123.34H77.8635ZM75.0955 122.62H76.0315C76.2341 122.62 76.3888 122.575 76.4955 122.484C76.6021 122.388 76.6555 122.257 76.6555 122.092C76.6555 121.964 76.6075 121.847 76.5115 121.74C76.4155 121.633 76.2555 121.58 76.0315 121.58H75.0955V122.62ZM74.2555 123.34V119.372H75.0955V120.868H76.0875C76.5408 120.868 76.8875 120.983 77.1275 121.212C77.3675 121.436 77.4875 121.729 77.4875 122.092C77.4875 122.263 77.4581 122.425 77.3995 122.58C77.3461 122.729 77.2608 122.86 77.1435 122.972C77.0261 123.084 76.8795 123.175 76.7035 123.244C76.5328 123.308 76.3301 123.34 76.0955 123.34H74.2555ZM80.3293 121.636V121.836C80.3293 121.975 80.3533 122.095 80.4013 122.196C80.4493 122.292 80.5106 122.372 80.5853 122.436C80.6653 122.495 80.7559 122.54 80.8573 122.572C80.9639 122.599 81.0733 122.612 81.1853 122.612C81.3079 122.612 81.4546 122.591 81.6253 122.548C81.8013 122.505 81.9746 122.407 82.1453 122.252C82.2306 122.353 82.3133 122.452 82.3933 122.548C82.4786 122.639 82.5613 122.735 82.6413 122.836C82.4173 123.055 82.1799 123.201 81.9293 123.276C81.6839 123.345 81.4359 123.38 81.1853 123.38C80.9559 123.38 80.7373 123.351 80.5293 123.292C80.3266 123.233 80.1453 123.145 79.9853 123.028C79.8306 122.905 79.7079 122.753 79.6173 122.572C79.5266 122.391 79.4813 122.177 79.4813 121.932V120.892C79.4813 120.652 79.5213 120.436 79.6013 120.244C79.6866 120.052 79.8039 119.889 79.9533 119.756C80.1026 119.623 80.2759 119.521 80.4733 119.452C80.6706 119.377 80.8866 119.34 81.1213 119.34C81.3613 119.34 81.5826 119.375 81.7853 119.444C81.9879 119.513 82.1613 119.615 82.3053 119.748C82.4546 119.876 82.5693 120.033 82.6493 120.22C82.7293 120.407 82.7693 120.62 82.7693 120.86V121.636H80.3293ZM81.9133 120.908C81.9133 120.631 81.8359 120.431 81.6813 120.308C81.5266 120.18 81.3426 120.116 81.1293 120.116C80.9159 120.116 80.7293 120.183 80.5693 120.316C80.4146 120.444 80.3373 120.639 80.3373 120.9V121.028H81.9133V120.908ZM49.9049 127.332C50.3369 127.332 50.6782 127.433 50.9289 127.636C51.1849 127.839 51.3129 128.111 51.3129 128.452C51.3129 128.521 51.3049 128.596 51.2889 128.676C51.2729 128.751 51.2436 128.825 51.2009 128.9C51.1582 128.975 51.1022 129.047 51.0329 129.116C50.9636 129.18 50.8756 129.236 50.7689 129.284C50.8809 129.332 50.9742 129.391 51.0489 129.46C51.1236 129.529 51.1822 129.604 51.2249 129.684C51.2729 129.764 51.3049 129.844 51.3209 129.924C51.3422 130.004 51.3529 130.079 51.3529 130.148C51.3529 130.532 51.2142 130.833 50.9369 131.052C50.6596 131.271 50.2729 131.38 49.7769 131.38C49.5156 131.38 49.2489 131.343 48.9769 131.268C48.7102 131.193 48.4729 131.071 48.2649 130.9L48.7209 130.316C48.8596 130.428 49.0249 130.513 49.2169 130.572C49.4089 130.631 49.5742 130.66 49.7129 130.66C50.0116 130.66 50.2196 130.609 50.3369 130.508C50.4596 130.401 50.5209 130.281 50.5209 130.148C50.5209 129.983 50.4596 129.86 50.3369 129.78C50.2196 129.695 50.0596 129.652 49.8569 129.652H49.2969V128.988H49.8569C50.0489 128.988 50.1982 128.945 50.3049 128.86C50.4169 128.769 50.4729 128.655 50.4729 128.516C50.4729 128.361 50.4062 128.249 50.2729 128.18C50.1396 128.111 49.9876 128.076 49.8169 128.076C49.6782 128.076 49.5236 128.1 49.3529 128.148C49.1822 128.191 49.0276 128.271 48.8889 128.388L48.4329 127.804C48.6249 127.633 48.8516 127.513 49.1129 127.444C49.3796 127.369 49.6436 127.332 49.9049 127.332ZM55.3003 130.148C55.3003 130.303 55.2737 130.452 55.2203 130.596C55.167 130.74 55.087 130.868 54.9803 130.98C54.8737 131.087 54.7403 131.175 54.5803 131.244C54.4203 131.308 54.2337 131.34 54.0203 131.34H52.0123V127.38H54.0043C54.2123 127.38 54.3937 127.409 54.5483 127.468C54.703 127.527 54.8283 127.607 54.9243 127.708C55.0257 127.804 55.1003 127.919 55.1483 128.052C55.2017 128.18 55.2283 128.316 55.2283 128.46C55.2283 128.615 55.183 128.769 55.0923 128.924C55.007 129.079 54.887 129.193 54.7323 129.268C54.919 129.353 55.0603 129.476 55.1563 129.636C55.2523 129.796 55.3003 129.967 55.3003 130.148ZM54.4363 130.124C54.4363 129.975 54.383 129.857 54.2763 129.772C54.1697 129.687 54.0417 129.644 53.8923 129.644H52.8683V130.628H53.8443C54.047 130.628 54.1963 130.583 54.2923 130.492C54.3883 130.401 54.4363 130.279 54.4363 130.124ZM54.3803 128.524C54.3803 128.38 54.327 128.276 54.2203 128.212C54.119 128.143 53.999 128.108 53.8603 128.108H52.8683V128.932H53.8843C54.039 128.932 54.159 128.897 54.2443 128.828C54.335 128.753 54.3803 128.652 54.3803 128.524ZM59.3569 129.94C59.3569 130.175 59.3089 130.383 59.2129 130.564C59.1222 130.745 58.9969 130.897 58.8369 131.02C58.6822 131.137 58.5036 131.228 58.3009 131.292C58.0982 131.351 57.8876 131.38 57.6689 131.38C57.4449 131.38 57.2289 131.351 57.0209 131.292C56.8182 131.228 56.6396 131.137 56.4849 131.02C56.3356 130.897 56.2156 130.745 56.1249 130.564C56.0342 130.383 55.9889 130.175 55.9889 129.94V128.788C55.9889 128.553 56.0342 128.345 56.1249 128.164C56.2209 127.983 56.3462 127.831 56.5009 127.708C56.6556 127.585 56.8342 127.492 57.0369 127.428C57.2396 127.364 57.4529 127.332 57.6769 127.332C57.9169 127.332 58.1382 127.364 58.3409 127.428C58.5436 127.492 58.7196 127.588 58.8689 127.716C59.0236 127.839 59.1436 127.991 59.2289 128.172C59.3142 128.353 59.3569 128.561 59.3569 128.796V129.94ZM58.5169 128.94C58.5169 128.791 58.4902 128.665 58.4369 128.564C58.3889 128.457 58.3249 128.372 58.2449 128.308C58.1649 128.244 58.0742 128.199 57.9729 128.172C57.8716 128.14 57.7729 128.124 57.6769 128.124C57.5809 128.124 57.4822 128.14 57.3809 128.172C57.2796 128.199 57.1889 128.244 57.1089 128.308C57.0289 128.372 56.9622 128.457 56.9089 128.564C56.8609 128.665 56.8369 128.791 56.8369 128.94V129.78C56.8369 130.079 56.9196 130.289 57.0849 130.412C57.2502 130.535 57.4476 130.596 57.6769 130.596C57.7729 130.596 57.8716 130.583 57.9729 130.556C58.0742 130.524 58.1649 130.476 58.2449 130.412C58.3249 130.348 58.3889 130.265 58.4369 130.164C58.4902 130.057 58.5169 129.929 58.5169 129.78V128.94ZM62.6427 131.34V129.7H60.9707V131.34H60.1307V127.38H60.9707V128.964H62.6427V127.38H63.4987V131.34H62.6427ZM64.3023 131.34V127.372H65.1503V128.956H65.6543C65.8143 128.956 65.9583 128.924 66.0863 128.86C66.2143 128.796 66.321 128.647 66.4063 128.412L66.7663 127.372H67.6623L67.2543 128.524C67.1903 128.716 67.113 128.876 67.0223 129.004C66.937 129.127 66.817 129.215 66.6623 129.268C66.849 129.321 66.985 129.417 67.0703 129.556C67.1557 129.689 67.2303 129.855 67.2943 130.052L67.7343 131.34H66.8063L66.4783 130.268C66.441 130.145 66.3957 130.047 66.3423 129.972C66.2943 129.897 66.2383 129.841 66.1743 129.804C66.1103 129.761 66.0383 129.735 65.9583 129.724C65.8837 129.708 65.7983 129.7 65.7023 129.7H65.1503V131.34H64.3023ZM70.8296 128.732L70.1976 129.724L69.0936 131.34H68.3336V127.38H69.1896V129.98H69.2216L69.8056 129.108L70.9576 127.38H71.7256V131.34H70.8696V128.732H70.8296Z" fill="#46474E" style="fill:#46474E;fill:color(display-p3 0.2745 0.2784 0.3059);fill-opacity:1;"/>
</g>
<g clip-path="url(#clip1_272_3316)">
<path d="M34.0412 60.1227L50.185 76.1632V113.758C50.185 115.733 48.5791 117.334 46.6004 117.334H3.58465C1.60592 117.334 0 115.733 0 113.758V60.1211L34.0412 60.1227Z" fill="#FCCD82" style="fill:#FCCD82;fill:color(display-p3 0.9882 0.8039 0.5098);fill-opacity:1;"/>
<path d="M34.0412 60.1227L50.185 76.1632V113.758C50.185 115.733 48.5791 117.334 46.6004 117.334H3.58465C1.60592 117.334 0 115.733 0 113.758V60.1211L34.0412 60.1227Z" fill="url(#paint0_linear_272_3316)" style=""/>
<path fill-rule="evenodd" clip-rule="evenodd" d="M25.2853 108.386L23.4832 107.967V100.885L25.2853 100.55V108.386ZM37.8904 106.717C36.5834 106.721 35.5239 105.691 35.5152 104.415V104.403C35.5152 103.148 36.5703 102.118 37.886 102.118C39.2016 102.118 40.2568 103.148 40.2568 104.403C40.2612 105.678 39.2016 106.712 37.899 106.717H37.8904ZM41.9763 104.403C41.9763 106.606 40.1482 108.391 37.8904 108.391C35.6325 108.391 33.8045 106.606 33.8045 104.403C33.8045 102.199 35.6368 100.444 37.8947 100.444C40.1527 100.444 41.9763 102.229 41.9763 104.403ZM18.7939 107.971L20.5655 108.331V103.563C20.5655 101.275 18.7374 100.47 17.4782 100.47C16.6489 100.47 15.9629 100.665 15.3637 101.25C14.734 100.665 13.9916 100.44 13.3923 100.44C12.5066 100.44 11.764 100.8 11.2473 101.415V100.605L9.44531 100.94V107.967L11.2473 108.327V103.508C11.2473 102.729 11.8205 102.199 12.702 102.199C13.5314 102.199 14.1306 102.729 14.1306 103.508V107.971L15.9021 108.331V103.508C15.9021 102.728 16.5014 102.199 17.361 102.199C18.2207 102.199 18.7896 102.728 18.7896 103.508L18.794 107.971L18.7939 107.971ZM32.4584 100.444L31.399 100.584C29.4276 101.029 28.1424 101.644 28.1424 103.763V107.971L29.9445 108.306V104.013C29.9445 103.038 30.5176 102.589 31.4034 102.423L32.4628 102.258L32.4584 100.444V100.444ZM23.5702 97.5413C23.1403 97.9693 23.1403 98.6474 23.5702 99.0754C24.0087 99.5162 24.7339 99.5204 25.1811 99.0924L25.1985 99.0754C25.6284 98.6517 25.6284 97.965 25.1985 97.5413C24.7383 97.1217 24.0261 97.1217 23.5702 97.5413Z" fill="#46474E" style="fill:#46474E;fill:color(display-p3 0.2745 0.2784 0.3059);fill-opacity:1;"/>
<path d="M20.0064 80.8555H28.3214C30.0757 80.8555 31.5 82.2455 31.5 83.9576V92.0733C31.5 93.7854 30.0757 95.1755 28.3216 95.1755H20.0065C18.2523 95.1755 16.8281 93.7854 16.8281 92.0733V83.9576C16.828 82.2455 18.2522 80.8555 20.0064 80.8555Z" fill="white" style="fill:white;fill-opacity:1;"/>
<path d="M27.0273 82.6445H25.4163L26.758 84.9458L23.8054 82.6445H22.1945L23.6708 85.4585L20.5836 82.6445H18.9727L20.5836 86.2256L18.9727 93.3878H20.5836L23.6708 85.7128L22.1945 93.3878H23.8054L26.758 85.2043L25.4163 93.3878H27.0273L29.9799 84.4329L27.0273 82.6445Z" fill="#46474E" style="fill:#46474E;fill:color(display-p3 0.2745 0.2784 0.3059);fill-opacity:1;"/>
<path d="M49.9497 76.1558H37.5011C35.5297 76.1558 33.9297 74.5598 33.9297 72.5933V60.1602L49.949 76.1558H49.9497Z" fill="#EAB560" style="fill:#EAB560;fill:color(display-p3 0.9167 0.7092 0.3781);fill-opacity:1;"/>
<path d="M49.9497 76.1558H37.5011C35.5297 76.1558 33.9297 74.5598 33.9297 72.5933V60.1602L49.949 76.1558H49.9497Z" fill="#FFE5A0" style="fill:#FFE5A0;fill:color(display-p3 1.0000 0.8962 0.6280);fill-opacity:1;"/>
</g>
<defs>
<linearGradient id="paint0_linear_272_3316" x1="25.0925" y1="60.1211" x2="25.0925" y2="117.334" gradientUnits="userSpaceOnUse">
<stop stop-color="#FFD66B" style="stop-color:#FFD66B;stop-color:color(display-p3 1.0000 0.8392 0.4196);stop-opacity:1;"/>
<stop offset="1" stop-color="#FFA469" style="stop-color:#FFA469;stop-color:color(display-p3 1.0000 0.6431 0.4118);stop-opacity:1;"/>
</linearGradient>
<clipPath id="clip0_272_3316">
<rect x="35.0156" y="14" width="251" height="155" rx="8" fill="white" style="fill:white;fill-opacity:1;"/>
</clipPath>
<clipPath id="clip1_272_3316">
<rect y="60.1211" width="50" height="57" rx="8.39508" fill="white" style="fill:white;fill-opacity:1;"/>
</clipPath>
</defs>
</svg>
