<svg width="135" height="190" viewBox="0 0 135 190" fill="none" xmlns="http://www.w3.org/2000/svg">
<rect width="65.7831" height="156.035" rx="10" transform="matrix(0.948816 -0.315831 0.316075 0.948734 15.0977 37.3906)" fill="#B9BABD" style="fill:#B9BABD;fill:color(display-p3 0.7255 0.7294 0.7412);fill-opacity:1;"/>
<path fill-rule="evenodd" clip-rule="evenodd" d="M42.0365 82.4778C41.6129 81.2064 42.3003 79.8327 43.5718 79.4094L79.1681 67.5606C80.4396 67.1373 81.8137 67.8249 82.2372 69.0962C82.6608 70.3676 81.9734 71.7414 80.7019 72.1646L45.1056 84.0135C43.8341 84.4367 42.46 83.7492 42.0365 82.4778Z" fill="#D7D7D7" style="fill:#D7D7D7;fill:color(display-p3 0.8417 0.8417 0.8417);fill-opacity:1;"/>
<path fill-rule="evenodd" clip-rule="evenodd" d="M44.9661 91.2747C44.5426 90.0033 45.23 88.6296 46.5014 88.2063L79.5534 77.2044C80.8249 76.7811 82.199 77.4687 82.6226 78.7401C83.0461 80.0114 82.3588 81.3852 81.0873 81.8084L48.0353 92.8104C46.7638 93.2336 45.3897 92.5461 44.9661 91.2747Z" fill="#D7D7D7" style="fill:#D7D7D7;fill:color(display-p3 0.8417 0.8417 0.8417);fill-opacity:1;"/>
<path fill-rule="evenodd" clip-rule="evenodd" d="M48.1849 100.927C47.7613 99.6557 48.4487 98.2819 49.7202 97.8587L84.8077 86.1792C86.0791 85.7559 87.4532 86.4435 87.8768 87.7149C88.3004 88.9862 87.613 90.36 86.3415 90.7832L51.2541 102.463C49.9826 102.886 48.6085 102.198 48.1849 100.927Z" fill="#D7D7D7" style="fill:#D7D7D7;fill:color(display-p3 0.8417 0.8417 0.8417);fill-opacity:1;"/>
<path fill-rule="evenodd" clip-rule="evenodd" d="M51.3958 110.583C50.9723 109.312 51.6596 107.938 52.9311 107.515L84.9654 96.8517C86.2369 96.4285 87.611 97.116 88.0345 98.3874C88.4581 99.6588 87.7707 101.033 86.4992 101.456L54.465 112.119C53.1935 112.542 51.8194 111.855 51.3958 110.583Z" fill="#D7D7D7" style="fill:#D7D7D7;fill:color(display-p3 0.8417 0.8417 0.8417);fill-opacity:1;"/>
<path fill-rule="evenodd" clip-rule="evenodd" d="M54.3177 119.361C53.8941 118.089 54.5815 116.715 55.853 116.292L89.9227 104.952C91.1942 104.528 92.5683 105.216 92.9919 106.487C93.4154 107.759 92.7281 109.132 91.4566 109.556L57.3869 120.896C56.1154 121.32 54.7413 120.632 54.3177 119.361Z" fill="#D7D7D7" style="fill:#D7D7D7;fill:color(display-p3 0.8417 0.8417 0.8417);fill-opacity:1;"/>
<path fill-rule="evenodd" clip-rule="evenodd" d="M32.9701 55.2747C32.5465 54.0033 33.2339 52.6296 34.5054 52.2063L65.5218 41.8819C66.7933 41.4587 68.1674 42.1462 68.591 43.4176C69.0146 44.689 68.3272 46.0627 67.0557 46.486L36.0392 56.8104C34.7677 57.2336 33.3936 56.5461 32.9701 55.2747Z" fill="#FFA469" style="fill:#FFA469;fill:color(display-p3 1.0000 0.6431 0.4118);fill-opacity:1;"/>
<path fill-rule="evenodd" clip-rule="evenodd" d="M36.1927 64.9231C35.7691 63.6517 36.4565 62.278 37.728 61.8548L59.5848 54.5793C60.8563 54.1561 62.2304 54.8436 62.654 56.115C63.0775 57.3864 62.3902 58.7601 61.1187 59.1834L39.2619 66.4588C37.9904 66.8821 36.6163 66.1945 36.1927 64.9231Z" fill="#FFA469" style="fill:#FFA469;fill:color(display-p3 1.0000 0.6431 0.4118);fill-opacity:1;"/>
<rect width="77.278" height="156.035" rx="10" transform="matrix(0.985407 -0.170216 0.170469 0.985363 24.084 24.8477)" fill="#D7D7D7" style="fill:#D7D7D7;fill:color(display-p3 0.8417 0.8417 0.8417);fill-opacity:1;"/>
<path fill-rule="evenodd" clip-rule="evenodd" d="M45.9117 73.1253C45.6832 71.8048 46.5685 70.5495 47.8891 70.3214L92.1538 62.6752C93.4743 62.4471 94.73 63.3327 94.9584 64.6531C95.1868 65.9736 94.3015 67.2289 92.981 67.457L48.7163 75.1032C47.3958 75.3313 46.1401 74.4457 45.9117 73.1253Z" fill="#D7D7D7" style="fill:#D7D7D7;fill:color(display-p3 0.8417 0.8417 0.8417);fill-opacity:1;"/>
<path fill-rule="evenodd" clip-rule="evenodd" d="M47.4937 82.262C47.2653 80.9415 48.1506 79.6862 49.4711 79.4581L90.6316 72.3482C91.9521 72.1201 93.2078 73.0056 93.4362 74.3261C93.6646 75.6465 92.7793 76.9019 91.4588 77.13L50.2983 84.2399C48.9778 84.468 47.7222 83.5825 47.4937 82.262Z" fill="#D7D7D7" style="fill:#D7D7D7;fill:color(display-p3 0.8417 0.8417 0.8417);fill-opacity:1;"/>
<path fill-rule="evenodd" clip-rule="evenodd" d="M49.2242 92.2854C48.9957 90.965 49.881 89.7096 51.2016 89.4815L94.8454 81.9426C96.1659 81.7145 97.4216 82.6001 97.6501 83.9205C97.8785 85.241 96.9932 86.4963 95.6727 86.7244L52.0288 94.2633C50.7083 94.4914 49.4526 93.6059 49.2242 92.2854Z" fill="#D7D7D7" style="fill:#D7D7D7;fill:color(display-p3 0.8417 0.8417 0.8417);fill-opacity:1;"/>
<path fill-rule="evenodd" clip-rule="evenodd" d="M50.9586 102.325C50.7301 101.004 51.6154 99.7487 52.9359 99.5206L92.8547 92.6251C94.1752 92.397 95.4309 93.2826 95.6594 94.603C95.8878 95.9235 95.0025 97.1789 93.682 97.407L53.7632 104.302C52.4427 104.53 51.187 103.645 50.9586 102.325Z" fill="#D7D7D7" style="fill:#D7D7D7;fill:color(display-p3 0.8417 0.8417 0.8417);fill-opacity:1;"/>
<path fill-rule="evenodd" clip-rule="evenodd" d="M52.5328 111.434C52.3043 110.113 53.1896 108.858 54.5102 108.63L96.9123 101.306C98.2328 101.077 99.4885 101.963 99.7169 103.283C99.9454 104.604 99.0601 105.859 97.7396 106.087L55.3374 113.412C54.0169 113.64 52.7612 112.754 52.5328 111.434Z" fill="#D7D7D7" style="fill:#D7D7D7;fill:color(display-p3 0.8417 0.8417 0.8417);fill-opacity:1;"/>
<path fill-rule="evenodd" clip-rule="evenodd" d="M41.0211 44.8753C40.7926 43.5548 41.6779 42.2995 42.9984 42.0714L81.6755 35.3904C82.996 35.1623 84.2517 36.0478 84.4802 37.3683C84.7086 38.6888 83.8233 39.9441 82.5028 40.1722L43.8257 46.8532C42.5052 47.0813 41.2495 46.1957 41.0211 44.8753Z" fill="#FFA469" style="fill:#FFA469;fill:color(display-p3 1.0000 0.6431 0.4118);fill-opacity:1;"/>
<path fill-rule="evenodd" clip-rule="evenodd" d="M42.7593 54.8948C42.5309 53.5744 43.4162 52.319 44.7367 52.0909L72.2386 47.3403C73.5591 47.1122 74.8148 47.9977 75.0432 49.3182C75.2717 50.6387 74.3864 51.894 73.0659 52.1221L45.564 56.8727C44.2435 57.1008 42.9878 56.2153 42.7593 54.8948Z" fill="#FFA469" style="fill:#FFA469;fill:color(display-p3 1.0000 0.6431 0.4118);fill-opacity:1;"/>
<rect x="36.0586" y="0.929688" width="141.236" height="166.497" rx="10" transform="rotate(0.0335059 36.0586 0.929688)" fill="#F3F0F0" style="fill:#F3F0F0;fill:color(display-p3 0.9529 0.9412 0.9412);fill-opacity:1;"/>
<path fill-rule="evenodd" clip-rule="evenodd" d="M60.7834 88.1955C60.7844 86.5278 62.1371 85.1766 63.8049 85.1775L148.733 85.2272C150.4 85.2282 151.752 86.5809 151.751 88.2487C151.75 89.9164 150.397 91.2676 148.729 91.2666L63.8013 91.217C62.1336 91.216 60.7824 89.8632 60.7834 88.1955Z" fill="#D7D7D7" style="fill:#D7D7D7;fill:color(display-p3 0.8417 0.8417 0.8417);fill-opacity:1;"/>
<path fill-rule="evenodd" clip-rule="evenodd" d="M60.76 99.7307C60.7609 98.0629 62.1137 96.7117 63.7814 96.7127L142.952 96.759C144.62 96.76 145.971 98.1127 145.97 99.7805C145.969 101.448 144.616 102.799 142.948 102.798L63.7779 102.752C62.1102 102.751 60.759 101.398 60.76 99.7307Z" fill="#D7D7D7" style="fill:#D7D7D7;fill:color(display-p3 0.8417 0.8417 0.8417);fill-opacity:1;"/>
<path fill-rule="evenodd" clip-rule="evenodd" d="M60.76 112.387C60.7609 110.719 62.1137 109.368 63.7814 109.369L147.558 109.418C149.226 109.419 150.577 110.772 150.576 112.439C150.575 114.107 149.222 115.458 147.554 115.457L63.7779 115.408C62.1102 115.407 60.759 114.055 60.76 112.387Z" fill="#D7D7D7" style="fill:#D7D7D7;fill:color(display-p3 0.8417 0.8417 0.8417);fill-opacity:1;"/>
<path fill-rule="evenodd" clip-rule="evenodd" d="M60.7482 125.063C60.7492 123.395 62.102 122.044 63.7697 122.045L140.637 122.09C142.305 122.091 143.656 123.443 143.655 125.111C143.654 126.779 142.301 128.13 140.634 128.129L63.7662 128.084C62.0984 128.083 60.7473 126.73 60.7482 125.063Z" fill="#D7D7D7" style="fill:#D7D7D7;fill:color(display-p3 0.8417 0.8417 0.8417);fill-opacity:1;"/>
<path fill-rule="evenodd" clip-rule="evenodd" d="M60.7404 136.582C60.7414 134.914 62.0942 133.563 63.7619 133.564L145.235 133.612C146.903 133.613 148.254 134.966 148.253 136.633C148.252 138.301 146.899 139.652 145.232 139.651L63.7584 139.604C62.0906 139.603 60.7394 138.25 60.7404 136.582Z" fill="#D7D7D7" style="fill:#D7D7D7;fill:color(display-p3 0.8417 0.8417 0.8417);fill-opacity:1;"/>
<path fill-rule="evenodd" clip-rule="evenodd" d="M60.7951 52.5119C60.7961 50.8442 62.1488 49.493 63.8166 49.494L138.381 49.5376C140.049 49.5385 141.4 50.8913 141.399 52.559C141.398 54.2268 140.045 55.578 138.378 55.577L63.8131 55.5334C62.1453 55.5324 60.7941 54.1796 60.7951 52.5119Z" fill="#FFA469" style="fill:#FFA469;fill:color(display-p3 1.0000 0.6431 0.4118);fill-opacity:1;"/>
<path fill-rule="evenodd" clip-rule="evenodd" d="M60.799 65.1682C60.8 63.5004 62.1528 62.1492 63.8205 62.1502L117.658 62.1817C119.326 62.1827 120.677 63.5354 120.676 65.2032C120.675 66.8709 119.322 68.2221 117.655 68.2211L63.817 68.1896C62.1492 68.1887 60.798 66.8359 60.799 65.1682Z" fill="#FFA469" style="fill:#FFA469;fill:color(display-p3 1.0000 0.6431 0.4118);fill-opacity:1;"/>
<path d="M87.4034 36.3267C87.0863 36.3261 86.7543 36.265 86.4223 36.1285L84.9438 35.5519L83.463 36.1379C82.6622 36.4534 81.847 36.3764 81.2439 35.9373C80.6408 35.4983 80.3252 34.7428 80.3721 33.8823L80.4658 32.2971L79.4565 31.0722C78.9143 30.3917 78.7346 29.6062 78.9776 28.8819C79.2054 28.1727 79.8255 27.6304 80.6563 27.4206L82.1972 27.031L83.0604 25.6889C83.9842 24.2412 85.9621 24.245 86.8803 25.6962L87.7383 27.0417L89.2776 27.4372C90.1076 27.6502 90.7256 28.1949 90.9507 28.905C91.1758 29.6151 90.9931 30.4149 90.4483 31.0782L89.4343 32.2992L89.5219 33.8848C89.5655 34.7455 89.247 35.4847 88.6422 35.9365C88.2794 36.1925 87.8563 36.3275 87.4034 36.3267Z" fill="#FFA469" style="fill:#FFA469;fill:color(display-p3 1.0000 0.6431 0.4118);fill-opacity:1;"/>
<path d="M104.005 36.3579C103.688 36.3573 103.356 36.2963 103.024 36.1597L101.545 35.5832L100.065 36.1691C99.2637 36.4847 98.4486 36.4076 97.8455 35.9686C97.2424 35.5296 96.9267 34.774 96.9737 33.9135L97.0673 32.3283L96.0581 31.1034C95.5159 30.4229 95.3362 29.6375 95.5792 28.9132C95.807 28.204 96.4271 27.6616 97.2579 27.4519L98.7987 27.0623L99.6619 25.7201C100.586 24.2725 102.564 24.2763 103.482 25.7275L104.34 27.0729L105.879 27.4685C106.709 27.6814 107.327 28.2262 107.552 28.9362C107.777 29.6463 107.595 30.4462 107.05 31.1095L106.036 32.3305L106.123 33.916C106.167 34.7767 105.849 35.5159 105.244 35.9677C104.881 36.2237 104.458 36.3588 104.005 36.3579Z" fill="#FFA469" style="fill:#FFA469;fill:color(display-p3 1.0000 0.6431 0.4118);fill-opacity:1;"/>
<path d="M70.7823 36.2954C70.4652 36.2948 70.1332 36.2338 69.8013 36.0972L68.3227 35.5207L66.8419 36.1066C66.0411 36.4222 65.2259 36.3451 64.6228 35.9061C64.0197 35.4671 63.7041 34.7115 63.751 33.851L63.8447 32.2658L62.8354 31.0409C62.2932 30.3604 62.1135 29.575 62.3565 28.8507C62.5843 28.1415 63.2044 27.5991 64.0353 27.3894L65.5761 26.9998L66.4393 25.6576C67.3631 24.21 69.341 24.2138 70.2592 25.665L71.1172 27.0104L72.6565 27.406C73.4865 27.6189 74.1045 28.1637 74.3296 28.8737C74.5548 29.5838 74.372 30.3837 73.8272 31.047L72.8132 32.268L72.9008 33.8535C72.9444 34.7142 72.6259 35.4534 72.0211 35.9052C71.6583 36.1612 71.2352 36.2963 70.7823 36.2954Z" fill="#FFA469" style="fill:#FFA469;fill:color(display-p3 1.0000 0.6431 0.4118);fill-opacity:1;"/>
<path d="M36.348 123.224C34.4649 123.224 32.7013 122.506 31.386 121.161L26.8426 116.618C26.4839 116.259 25.5274 115.871 25.0491 115.871H18.5926C14.7067 115.871 11.5681 112.732 11.5681 108.846V102.39C11.5681 101.911 11.1795 100.955 10.8208 100.596L6.27735 96.0526C4.96213 94.7374 4.21484 92.9737 4.21484 91.0905C4.21484 89.2074 4.93224 87.4437 6.27735 86.1285L10.8208 81.5849C11.1795 81.2262 11.5681 80.2698 11.5681 79.7915V73.3353C11.5681 69.4494 14.7067 66.3105 18.5926 66.3105H25.0491C25.5274 66.3105 26.4839 65.9219 26.8426 65.5632L31.386 61.0197C34.0165 58.3893 38.6796 58.3893 41.31 61.0197L45.8534 65.5632C46.2121 65.9219 47.1687 66.3105 47.6469 66.3105H54.1035C57.9893 66.3105 61.1279 69.4494 61.1279 73.3353V79.7915C61.1279 80.2698 61.5165 81.2262 61.8752 81.5849L66.4187 86.1285C67.7339 87.4437 68.4812 89.2074 68.4812 91.0905C68.4812 92.9737 67.7638 94.7374 66.4187 96.0526L61.8752 100.596C61.5165 100.955 61.1279 101.911 61.1279 102.39V108.846C61.1279 112.732 57.9893 115.871 54.1035 115.871H47.6469C47.1687 115.871 46.2121 116.259 45.8534 116.618L41.31 121.161C39.9948 122.506 38.2312 123.224 36.348 123.224Z" fill="url(#paint0_linear_272_3199)" style=""/>
<path d="M32.1077 101.804C31.5099 101.804 30.9419 101.564 30.5234 101.146L22.0642 92.6867C21.1974 91.8198 21.1974 90.385 22.0642 89.5182C22.931 88.6513 24.3658 88.6513 25.2327 89.5182L32.1077 96.3932L47.4718 81.029C48.3387 80.1622 49.7735 80.1622 50.6403 81.029C51.5072 81.8959 51.5072 83.3307 50.6403 84.1975L33.6919 101.146C33.2734 101.564 32.7055 101.804 32.1077 101.804Z" fill="white" style="fill:white;fill-opacity:1;"/>
<defs>
<linearGradient id="paint0_linear_272_3199" x1="36.348" y1="59.0469" x2="36.348" y2="123.224" gradientUnits="userSpaceOnUse">
<stop stop-color="#FFD66B" style="stop-color:#FFD66B;stop-color:color(display-p3 1.0000 0.8392 0.4196);stop-opacity:1;"/>
<stop offset="1" stop-color="#FFA469" style="stop-color:#FFA469;stop-color:color(display-p3 1.0000 0.6431 0.4118);stop-opacity:1;"/>
</linearGradient>
</defs>
</svg>
