<svg width="106" height="239" viewBox="0 0 106 239" fill="none" xmlns="http://www.w3.org/2000/svg">
<path d="M12.3619 64.9387C4.29224 77.7053 4.82017 95.4088 13.639 107.665C19.5165 115.833 28.3303 121.311 35.3341 128.534C42.3329 135.752 47.6523 146.395 43.9568 155.772C40.196 165.317 29.18 169.202 20.9344 175.246C11.9496 181.832 5.6397 192.004 3.70399 203.015C1.76827 214.027 4.23694 225.762 10.4363 235.043H96.1206C96.1206 235.043 111.174 206.187 91.8218 184.189C72.4697 162.196 62.0772 161.837 62.7911 147.416C63.5101 132.996 73.5406 128.307 79.2774 122.9C85.0142 117.493 112.964 104.872 96.4776 64.9336H12.3619V64.9387Z" fill="white" style="fill:white;fill-opacity:1;"/>
<path d="M11.8513 64.9504C11.8513 64.9504 12.3491 64.9403 13.3245 64.9403C14.3049 64.9403 15.763 64.9352 17.6685 64.9302C21.4947 64.9251 27.1309 64.915 34.3911 64.9049C48.9266 64.8948 69.958 64.8796 95.962 64.8594H96.0223L96.0475 64.915C97.2189 67.9044 98.4005 70.9848 99.2401 74.2472C100.105 77.4946 100.809 80.8835 101.06 84.3888C101.322 87.889 101.211 91.5055 100.517 95.0968C99.8033 98.678 98.5262 102.224 96.6458 105.506C95.7106 107.15 94.6095 108.713 93.4179 110.216C92.2162 111.713 90.8788 113.119 89.471 114.464C88.0582 115.805 86.5549 117.069 84.9912 118.278C83.4326 119.492 81.8036 120.64 80.2148 121.849C79.4204 122.451 78.6914 123.129 77.9322 123.812C77.1679 124.479 76.3836 125.122 75.5942 125.754C74.0105 127.029 72.4116 128.303 70.9033 129.694C67.8564 132.436 65.2821 135.86 63.8643 139.851C63.1755 141.839 62.6827 143.923 62.5218 146.057C62.4816 146.588 62.4062 147.125 62.3861 147.656C62.376 148.192 62.3459 148.728 62.371 149.264C62.376 150.337 62.4967 151.414 62.6928 152.471C63.095 154.59 63.9799 156.619 65.262 158.374C66.529 160.149 68.0877 161.712 69.7066 163.215C72.9596 166.209 76.4087 169.062 79.717 172.147C83.0405 175.212 86.2633 178.45 89.3705 181.854C90.914 183.563 92.4777 185.278 93.8252 187.185C95.2179 189.056 96.3894 191.095 97.415 193.209C99.4412 197.458 100.693 202.117 101.105 206.876C101.548 211.641 101.211 216.497 100.271 221.246C99.8083 223.624 99.1899 225.981 98.4307 228.297C97.6715 230.614 96.7966 232.9 95.7106 235.106L95.6754 235.176H93.3877C64.1358 235.176 35.9145 235.176 9.90555 235.171H9.84018L9.80499 235.116C5.72239 228.95 3.29897 221.868 2.63027 214.767C1.92134 207.665 3.00735 200.548 5.59669 194.226C8.15083 187.883 12.1228 182.319 16.9244 177.949C19.3177 175.743 21.9874 173.943 24.6572 172.274C27.332 170.604 30.032 169.057 32.5811 167.367C35.1201 165.673 37.5687 163.867 39.5547 161.662C41.5507 159.471 43.0742 156.902 43.8686 154.135C44.668 151.368 44.6781 148.465 44.2105 145.734C43.7328 142.992 42.7775 140.397 41.5608 138.01C40.3441 135.617 38.8659 133.422 37.2469 131.419C35.633 129.411 33.833 127.626 32.028 125.941C28.403 122.583 24.6874 119.644 21.3489 116.624C19.6746 115.117 18.0909 113.599 16.6328 112.036C15.1848 110.463 13.8574 108.855 12.7211 107.186C10.4284 103.857 8.85473 100.347 7.81899 96.9633C6.78326 93.5743 6.27042 90.2967 6.14975 87.282C6.07936 86.5284 6.1045 85.7899 6.10953 85.0716C6.11959 84.3483 6.09947 83.6452 6.16986 82.9624C6.22014 82.2795 6.27545 81.6119 6.3207 80.9594C6.39612 80.3119 6.50673 79.6847 6.5922 79.0777C7.34638 74.1967 8.80948 70.6256 9.9508 68.3444C10.2223 67.7627 10.4636 67.2519 10.7251 66.8422C10.9714 66.4223 11.1776 66.0683 11.3385 65.785C11.6703 65.2236 11.8413 64.9403 11.8413 64.9403C11.8061 65.001 11.6653 65.2489 11.3536 65.8052C11.1927 66.0885 10.9916 66.4426 10.7502 66.8624C10.4938 67.2721 10.2575 67.783 9.98599 68.3647C8.85976 70.6509 7.41174 74.2169 6.66762 79.0929C6.58215 79.6999 6.47656 80.3271 6.40114 80.9695C6.35087 81.6169 6.30562 82.2846 6.25534 82.9674C6.18495 83.6503 6.20506 84.3534 6.20003 85.0716C6.20003 85.7899 6.17489 86.5284 6.24528 87.277C6.37098 90.2865 6.88884 93.549 7.92961 96.9279C8.96534 100.302 10.5391 103.792 12.8317 107.105C13.968 108.764 15.2904 110.367 16.7384 111.935C18.1964 113.493 19.7802 115.006 21.4545 116.508C24.793 119.517 28.5085 122.451 32.1487 125.815C33.9587 127.499 35.7637 129.29 37.3927 131.308C39.0217 133.321 40.505 135.521 41.7317 137.929C42.9535 140.332 43.9239 142.942 44.4066 145.703C44.8842 148.46 44.8792 151.394 44.0697 154.196C43.2652 156.993 41.7217 159.598 39.7156 161.808C37.7095 164.039 35.2509 165.855 32.7068 167.554C30.1476 169.254 27.4527 170.802 24.7829 172.471C22.1131 174.14 19.4635 175.936 17.0853 178.126C12.3139 182.476 8.362 188.014 5.82294 194.322C3.24869 200.609 2.17273 207.686 2.88166 214.747C3.55036 221.808 5.96372 228.849 10.0212 234.979L9.9156 234.923C35.9246 234.923 64.1458 234.923 93.3978 234.918H95.605L95.4894 234.989C96.5653 232.809 97.4402 230.523 98.1943 228.221C98.9485 225.915 99.5619 223.568 100.024 221.201C100.96 216.471 101.297 211.641 100.854 206.907C100.447 202.172 99.1999 197.544 97.1888 193.325C96.1681 191.226 95.0067 189.198 93.619 187.342C92.2816 185.45 90.723 183.74 89.1794 182.036C86.0773 178.637 82.8594 175.405 79.5411 172.339C76.2378 169.259 72.7987 166.406 69.5357 163.402C67.9167 161.894 66.343 160.321 65.0609 158.521C63.7587 156.74 62.8587 154.666 62.4515 152.517C62.2554 151.439 62.1347 150.352 62.1247 149.269C62.0995 148.728 62.1297 148.187 62.1397 147.646C62.1598 147.104 62.2302 146.568 62.2755 146.032C62.4364 143.882 62.9341 141.778 63.633 139.765C65.0659 135.739 67.6704 132.274 70.7373 129.517C72.2557 128.116 73.8596 126.842 75.4434 125.567C76.2378 124.93 77.0171 124.292 77.7763 123.63C78.5204 122.962 79.2696 122.269 80.069 121.662C81.6678 120.448 83.2918 119.305 84.8454 118.091C86.4041 116.887 87.9024 115.628 89.3102 114.292C90.7129 112.957 92.0403 111.556 93.2419 110.069C94.4235 108.572 95.5195 107.024 96.4547 105.39C98.3301 102.133 99.5971 98.6071 100.311 95.0513C101.005 91.4853 101.116 87.8839 100.859 84.3989C100.613 80.9037 99.9088 77.53 99.0541 74.2928C98.2195 71.0404 97.043 67.9651 95.8765 64.9808L95.962 65.0364C69.9731 65.0162 48.9517 65.001 34.4263 64.9909C27.1611 64.9808 21.5198 64.9707 17.6937 64.9656C15.7831 64.9605 14.32 64.9555 13.3396 64.9555C12.3591 64.9555 11.8513 64.9454 11.8513 64.9454V64.9504Z" fill="#585960" style="fill:#585960;fill:color(display-p3 0.3451 0.3490 0.3765);fill-opacity:1;"/>
<path d="M92.5515 88.358C105.171 90.447 85.2712 112.93 74.0088 121.802C67.4877 126.941 60.484 132.51 57.3868 140.239C53.8723 149.01 56.4768 158.863 54.7723 167.685C54.4908 169.146 52.3389 168.919 52.359 167.427C52.4444 161.635 52.2886 155.849 51.3333 150.148C49.9808 142.065 46.8887 134.068 41.2575 128.14C36.6621 123.305 30.6337 120.093 25.7265 115.571C18.5669 108.97 11.2112 100.457 10.4922 90.71C10.4922 90.71 24.2383 79.5721 31.8705 80.9782C40.7899 82.6221 49.5685 96.4662 63.385 94.8779C73.0334 93.7702 77.9004 85.9301 92.5414 88.353L92.5515 88.358Z" fill="url(#paint0_linear_272_3473)" style=""/>
<path d="M93.6659 208.724C93.3492 205.547 92.5045 201.956 89.704 200.459C88.0046 199.554 85.9432 199.655 84.0829 200.145C82.2226 200.636 80.4779 201.486 78.6377 202.037C75.0126 203.12 71.0407 202.993 67.491 201.683C64.067 200.419 61.1258 198.132 57.9482 196.332C54.7706 194.536 51.045 193.196 47.5054 194.081C41.4016 195.608 38.224 203.003 32.1906 204.789C29.5057 205.583 26.6298 205.138 23.8997 204.516C21.1746 203.893 18.4344 203.094 15.644 203.201C13.4569 203.281 11.1793 204.045 9.64074 205.553L9.65582 205.532C9.65582 205.532 9.62565 205.563 9.61057 205.583C9.35918 205.836 9.1279 206.104 8.91673 206.397C7.04638 208.906 6.74471 212.285 7.32291 215.35C7.96647 218.785 9.56029 221.956 11.2698 224.996C13.2859 228.577 15.5736 232.143 18.902 234.53C23.0097 237.474 28.1784 235.441 33.2062 235.841C44.9361 236.771 57.561 237.409 69.291 236.493C75.4903 236.007 81.2974 236.685 86.2147 232.861C89.6738 230.17 91.9263 226.114 93.0123 221.85C94.0983 217.586 94.0933 213.109 93.6508 208.734L93.6659 208.724Z" fill="url(#paint1_linear_272_3473)" style=""/>
<path d="M3.62668 238.969C3.62668 238.969 3.39037 235.014 8.51877 232.809H98.6427C98.6427 232.809 103.344 235.201 103.922 238.883L3.62668 238.964V238.969Z" fill="#65666D" style="fill:#65666D;fill:color(display-p3 0.3961 0.4000 0.4275);fill-opacity:1;"/>
<path d="M96.7432 65.4294C96.6979 65.4497 96.6477 65.475 96.6024 65.4952L11.8582 64.9489C11.8582 64.9489 11.5566 64.7567 11.1091 64.4026C8.69071 62.5008 10.0432 58.5959 13.1102 58.6212L95.3605 59.2889C98.7543 59.3142 99.8102 63.9676 96.7432 65.4294Z" fill="#65666D" style="fill:#65666D;fill:color(display-p3 0.3961 0.4000 0.4275);fill-opacity:1;"/>
<path d="M52.4304 178.262C53.3605 177.933 54.4717 178.874 54.3108 179.85C54.1449 180.827 52.7873 181.353 52.0181 180.731C51.2488 180.113 51.4499 178.667 52.36 178.287" fill="#FBD97E" style="fill:#FBD97E;fill:color(display-p3 0.9843 0.8510 0.4941);fill-opacity:1;"/>
<path d="M22.1057 112.059C22.1057 112.059 21.9951 111.958 21.804 111.755C21.6029 111.533 21.3264 111.229 20.9845 110.85C20.6376 110.45 20.1801 109.985 19.7125 109.393C19.2398 108.801 18.7019 108.129 18.1136 107.39C17.5656 106.611 16.9472 105.777 16.3237 104.846C16.0271 104.37 15.7204 103.88 15.4036 103.374C15.2477 103.121 15.0818 102.868 14.931 102.6C14.7852 102.332 14.6394 102.059 14.4885 101.781C13.2517 99.5904 12.1506 97.0209 11.3663 94.2187C10.5819 91.4115 10.2149 88.6396 10.1797 86.1156C10.1797 85.4833 10.2099 84.8713 10.2249 84.2745C10.24 83.976 10.235 83.6826 10.2652 83.3943C10.2953 83.106 10.3255 82.8228 10.3557 82.5446C10.421 81.9882 10.4612 81.447 10.5367 80.931C10.6272 80.4202 10.7177 79.9295 10.8031 79.4591C10.9489 78.5133 11.1953 77.6888 11.3713 76.9503C11.4668 76.5861 11.5422 76.2422 11.6378 75.9336C11.7383 75.6301 11.8288 75.3469 11.9093 75.094C12.0702 74.6084 12.2009 74.2189 12.2964 73.9306C12.3869 73.6676 12.4422 73.531 12.4472 73.531C12.4523 73.531 12.4221 73.6777 12.3467 73.9458C12.2612 74.2391 12.1506 74.6286 12.0048 75.1193C11.9294 75.3772 11.8439 75.6605 11.7534 75.964C11.6629 76.2725 11.5975 76.6215 11.507 76.9857C11.3461 77.7242 11.1098 78.5487 10.9791 79.4895C10.8987 79.9599 10.8182 80.4455 10.7327 80.9563C10.6624 81.4672 10.6272 82.0084 10.5668 82.5597C10.5417 82.8379 10.5115 83.1212 10.4864 83.4045C10.4612 83.6928 10.4663 83.9861 10.4562 84.2795C10.4462 84.8713 10.416 85.4833 10.421 86.1105C10.4663 88.6143 10.8383 91.3609 11.6176 94.1428C12.3919 96.9248 13.483 99.4741 14.6997 101.659C14.8455 101.937 14.9913 102.211 15.1371 102.479C15.2829 102.747 15.4489 102.995 15.6047 103.253C15.9164 103.758 16.2181 104.249 16.5097 104.724C17.1231 105.655 17.7315 106.495 18.2644 107.274C18.8426 108.022 19.3655 108.695 19.8281 109.297C20.2806 109.899 20.7281 110.369 21.0599 110.784C21.3867 111.179 21.6482 111.487 21.8443 111.72C22.0202 111.937 22.1107 112.054 22.1057 112.059Z" fill="#585960" style="fill:#585960;fill:color(display-p3 0.3451 0.3490 0.3765);fill-opacity:1;"/>
<path d="M17.332 187.197C17.332 187.197 17.3622 187.137 17.4276 187.03C17.503 186.914 17.6035 186.752 17.7292 186.555C17.865 186.342 18.0309 186.084 18.222 185.786C18.3225 185.634 18.4281 185.472 18.5387 185.295C18.6644 185.128 18.8052 184.962 18.951 184.779C19.2476 184.415 19.5795 184.011 19.9365 183.566C20.3236 183.146 20.766 182.711 21.2336 182.235C22.1889 181.305 23.3453 180.313 24.6878 179.312C27.3575 177.278 30.8016 175.255 34.5323 172.893C36.3825 171.694 38.3333 170.43 40.1785 168.892C42.0237 167.364 43.8036 165.604 45.2416 163.505C48.0823 159.256 49.2387 154.335 49.3392 149.934C49.4549 145.498 48.5147 141.553 47.4136 138.407C46.2974 135.25 45.0153 132.843 44.0851 131.219C43.6176 130.405 43.2354 129.788 42.974 129.373C42.8483 129.171 42.7528 129.014 42.6774 128.897C42.612 128.791 42.5818 128.73 42.5818 128.73C42.5818 128.73 42.6271 128.781 42.6975 128.882C42.7779 128.999 42.8835 129.15 43.0142 129.343C43.2908 129.752 43.6879 130.359 44.1706 131.168C45.1309 132.777 46.4432 135.175 47.5896 138.341C48.7208 141.497 49.6862 145.468 49.5856 149.939C49.5655 151.052 49.48 152.195 49.3091 153.348C49.1482 154.507 48.9068 155.675 48.575 156.843C47.9264 159.18 46.8907 161.507 45.4678 163.652C44.0097 165.781 42.2098 167.557 40.3495 169.089C38.4892 170.637 36.5333 171.896 34.673 173.095C30.9273 175.447 27.4832 177.45 24.8084 179.458C23.466 180.445 22.3046 181.426 21.3493 182.336C20.8817 182.807 20.4342 183.232 20.0471 183.646C19.68 184.081 19.3482 184.481 19.0465 184.84C18.8957 185.022 18.7499 185.184 18.6242 185.351C18.5085 185.523 18.3979 185.68 18.2974 185.832C18.0963 186.125 17.9253 186.378 17.7845 186.585C17.6488 186.777 17.5432 186.929 17.4628 187.046C17.3873 187.147 17.3471 187.197 17.3471 187.197H17.332Z" fill="#585960" style="fill:#585960;fill:color(display-p3 0.3451 0.3490 0.3765);fill-opacity:1;"/>
<path d="M12.6665 196.145C12.6665 196.145 12.6363 196.231 12.5559 196.377C12.4603 196.549 12.3397 196.762 12.1989 197.02C12.038 197.293 11.8469 197.637 11.6509 198.046C11.4548 198.456 11.2034 198.906 10.9922 199.437C10.8766 199.7 10.7609 199.974 10.6403 200.262C10.5196 200.55 10.419 200.859 10.3034 201.172C10.057 201.794 9.86598 202.487 9.64978 203.211C9.26264 204.667 8.94086 206.296 8.76991 208.031C8.61908 209.766 8.64422 211.43 8.75986 212.932C8.84533 213.681 8.90566 214.399 9.03136 215.057C9.09169 215.386 9.13192 215.709 9.19728 216.013C9.26767 216.316 9.33303 216.605 9.39839 216.888C9.509 217.449 9.67492 217.94 9.79559 218.375C9.91123 218.815 10.042 219.184 10.1475 219.483C10.2431 219.761 10.3185 219.994 10.3838 220.181C10.4341 220.343 10.4593 220.429 10.4492 220.434C10.4392 220.434 10.3989 220.358 10.3336 220.201C10.2582 220.019 10.1626 219.791 10.052 219.518C9.92631 219.22 9.78553 218.855 9.65481 218.42C9.51906 217.985 9.34308 217.495 9.21739 216.933C9.147 216.655 9.07661 216.362 9.00119 216.058C8.92577 215.755 8.88052 215.431 8.81516 215.097C8.67438 214.435 8.60399 213.716 8.51349 212.958C8.38277 211.44 8.3526 209.761 8.50344 208.011C8.67438 206.261 9.00622 204.617 9.40845 203.15C9.6347 202.422 9.83581 201.729 10.0922 201.101C10.2129 200.788 10.3185 200.479 10.4492 200.191C10.5799 199.908 10.7006 199.63 10.8213 199.372C11.0475 198.841 11.309 198.395 11.5201 197.991C11.7263 197.586 11.9324 197.252 12.1084 196.984C12.2693 196.736 12.4 196.534 12.5106 196.362C12.6062 196.22 12.6564 196.15 12.6665 196.155V196.145Z" fill="#585960" style="fill:#585960;fill:color(display-p3 0.3451 0.3490 0.3765);fill-opacity:1;"/>
<path d="M74.8301 208.294C74.8301 208.294 74.7999 208.324 74.7295 208.37C74.6441 208.42 74.5435 208.486 74.4178 208.567C74.1212 208.749 73.7139 208.992 73.1961 209.305C72.9296 209.467 72.6329 209.639 72.3112 209.831C71.9844 210.014 71.6123 210.185 71.2201 210.388C70.4308 210.772 69.5509 211.263 68.5151 211.652C68.0023 211.865 67.4694 212.087 66.9062 212.315C66.3481 212.543 65.7398 212.715 65.1264 212.927C63.9046 213.377 62.5471 213.696 61.1293 214.07C58.2734 214.707 55.0808 215.178 51.7021 215.284C48.3234 215.355 45.1055 215.051 42.2196 214.566C40.7866 214.267 39.4191 214.02 38.1722 213.635C37.5487 213.453 36.9353 213.311 36.3621 213.114C35.794 212.912 35.246 212.72 34.7231 212.537C33.6672 212.199 32.7672 211.759 31.9578 211.415C31.5555 211.238 31.1784 211.081 30.8366 210.919C30.5047 210.742 30.203 210.585 29.9265 210.438C29.3936 210.155 28.9763 209.928 28.6696 209.766C28.5388 209.695 28.4332 209.634 28.3478 209.584C28.2774 209.543 28.2422 209.518 28.2422 209.513C28.2422 209.513 28.2824 209.523 28.3629 209.558C28.4534 209.599 28.564 209.649 28.6997 209.715C29.0114 209.867 29.4388 210.079 29.9768 210.342C30.2533 210.479 30.56 210.636 30.8969 210.803C31.2388 210.959 31.6159 211.106 32.0231 211.278C32.8376 211.607 33.7376 212.032 34.7935 212.36C35.3164 212.538 35.8594 212.725 36.4325 212.922C37.0007 213.114 37.6141 213.251 38.2375 213.423C39.4794 213.797 40.8419 214.035 42.2698 214.323C45.1407 214.793 48.3384 215.087 51.7021 215.021C55.0607 214.915 58.2383 214.455 61.084 213.832C62.4918 213.468 63.8443 213.16 65.0661 212.72C65.6794 212.512 66.2828 212.34 66.8409 212.123C67.399 211.9 67.9319 211.683 68.4448 211.48C69.4805 211.101 70.3604 210.626 71.1548 210.256C71.5469 210.064 71.919 209.897 72.2508 209.72C72.5776 209.538 72.8743 209.366 73.1458 209.214C73.6687 208.921 74.086 208.688 74.3877 208.521C74.5184 208.451 74.629 208.395 74.7145 208.344C74.7899 208.309 74.8301 208.289 74.8301 208.294Z" fill="#585960" style="fill:#585960;fill:color(display-p3 0.3451 0.3490 0.3765);fill-opacity:1;"/>
<path d="M80.0658 101.244C80.0658 101.244 80.0306 101.28 79.9602 101.346C79.8747 101.416 79.7641 101.508 79.6284 101.619C79.3217 101.867 78.8893 102.211 78.3463 102.651C77.2251 103.541 75.6111 104.831 73.5648 106.368C71.5185 107.896 69.0347 109.676 66.0884 111.34C64.6002 112.14 63.0114 112.959 61.2717 113.571C59.5371 114.188 57.6668 114.659 55.711 114.815C51.7842 115.084 48.0586 114.082 45.0318 112.58C43.5185 111.816 42.1509 110.961 40.904 110.111C39.6772 109.241 38.556 108.397 37.5655 107.587C35.5745 105.979 34.0158 104.618 32.9298 103.688C32.4019 103.227 31.9846 102.868 31.688 102.605C31.5572 102.489 31.4517 102.393 31.3712 102.317C31.3008 102.251 31.2656 102.216 31.2656 102.211C31.2656 102.211 31.3109 102.236 31.3863 102.292C31.4718 102.362 31.5824 102.448 31.7232 102.56C32.0299 102.807 32.4572 103.156 32.9952 103.602C34.1013 104.512 35.675 105.847 37.6761 107.436C38.6716 108.235 39.7979 109.064 41.0247 109.924C42.2665 110.759 43.6291 111.604 45.1324 112.352C48.139 113.824 51.8144 114.805 55.6908 114.542C57.6165 114.391 59.4617 113.925 61.1812 113.318C62.9058 112.716 64.4845 111.907 65.9677 111.118C68.909 109.474 71.3928 107.714 73.4542 106.207C75.5106 104.689 77.1446 103.425 78.2809 102.56C78.839 102.14 79.2764 101.806 79.5932 101.568C79.734 101.462 79.8496 101.381 79.9401 101.315C80.0205 101.26 80.0608 101.234 80.0608 101.234L80.0658 101.244Z" fill="#585960" style="fill:#585960;fill:color(display-p3 0.3451 0.3490 0.3765);fill-opacity:1;"/>
<path d="M45.3561 5.49199C46.2831 6.02845 47.4221 5.98781 48.3836 5.51602C48.6516 5.38451 48.9224 5.26064 49.1957 5.14441C50.181 4.72534 50.955 3.8888 51.1526 2.83648C51.4007 1.51523 52.5301 0.541501 53.8735 0.490558L55.9628 0.411328C57.306 0.360392 58.5053 1.24673 58.8508 2.54571C59.1273 3.5853 59.9684 4.36344 60.9873 4.70852C61.2662 4.80295 61.5431 4.90523 61.8179 5.01524C62.8108 5.41274 63.9477 5.36699 64.8305 4.76318C65.9415 4.00319 67.4306 4.11295 68.4182 5.02764L69.9476 6.44407C70.9375 7.3609 71.1609 8.84085 70.4858 10.0091C69.9497 10.9368 69.9903 12.0763 70.4618 13.0386C70.5926 13.3055 70.7158 13.5752 70.8315 13.8474C71.2515 14.8356 72.0905 15.6119 73.146 15.8097C74.4706 16.0579 75.447 17.19 75.498 18.5367L75.5767 20.6159C75.6278 21.9644 74.7382 23.1685 73.4342 23.5159C72.3998 23.7914 71.6228 24.6236 71.2804 25.6378C71.1853 25.9195 71.0824 26.1993 70.9714 26.4769C70.5726 27.4744 70.6135 28.6177 71.2194 29.5048C71.976 30.6125 71.8667 32.096 70.9559 33.0808L69.5338 34.6185C68.6183 35.6084 67.139 35.8318 65.972 35.1564C65.0451 34.62 63.906 34.6606 62.9445 35.1324C62.6765 35.2639 62.4057 35.3878 62.1324 35.504C61.1471 35.9231 60.3732 36.7596 60.1755 37.812C59.9274 39.1332 58.798 40.1069 57.4546 40.1579L55.3653 40.2371C54.0221 40.288 52.8228 39.4017 52.4773 38.1027C52.2008 37.0631 51.3597 36.285 50.3408 35.9399C50.062 35.8455 49.785 35.7432 49.5102 35.6332C48.5173 35.2357 47.3804 35.2814 46.4977 35.8853C45.3866 36.6452 43.8975 36.5355 42.9099 35.6208L41.3805 34.2044C40.3906 33.2875 40.1672 31.8076 40.8423 30.6394C41.3784 29.7116 41.3378 28.5721 40.8663 27.6099C40.7355 27.3429 40.6123 27.0732 40.4966 26.8011C40.0766 25.8128 39.2376 25.0366 38.1821 24.8388C36.8575 24.5905 35.8811 23.4585 35.8301 22.1117L35.7514 20.0325C35.7003 18.684 36.5899 17.4799 37.894 17.1326C38.9283 16.857 39.7053 16.0248 40.0477 15.0106C40.1428 14.7289 40.2457 14.4491 40.3567 14.1716C40.7555 13.1741 40.7146 12.0307 40.1087 11.1436C39.3521 10.036 39.4614 8.55244 40.3722 7.56766L41.7944 6.02992C42.7099 5.04002 44.1891 4.81661 45.3561 5.49199Z" fill="url(#paint2_linear_272_3473)" style=""/>
<path d="M51.0205 16.1172C51.5105 16.1172 51.9824 16.2079 52.4362 16.3894C52.9081 16.5709 53.3437 16.816 53.743 17.1245C54.1423 17.4149 54.5053 17.7416 54.832 18.1046C55.1587 18.4676 55.44 18.8306 55.6759 19.1936C56.0026 18.7761 56.3384 18.3859 56.6833 18.0229C57.0281 17.6418 57.3911 17.3151 57.7722 17.0428C58.1715 16.7524 58.5981 16.5256 59.0518 16.3622C59.5056 16.1989 60.0047 16.1172 60.5492 16.1172C61.1118 16.1172 61.6382 16.2261 62.1282 16.4439C62.6183 16.6435 63.0448 16.9339 63.4078 17.3151C63.7708 17.6781 64.0521 18.1137 64.2517 18.6219C64.4514 19.1301 64.5512 19.6927 64.5512 20.3098C64.5512 20.8724 64.4423 21.4079 64.2245 21.9161C64.0067 22.4243 63.7072 22.878 63.3261 23.2773C62.945 23.6585 62.4912 23.967 61.9649 24.2029C61.4567 24.4207 60.9031 24.5296 60.3042 24.5296C59.8323 24.5296 59.3785 24.4389 58.9429 24.2574C58.5255 24.0759 58.1171 23.8399 57.7178 23.5496C57.3367 23.2592 56.9737 22.9325 56.6288 22.5695C56.284 22.2065 55.9663 21.8435 55.6759 21.4805C55.3492 21.8798 55.0135 22.2609 54.6686 22.6239C54.3238 22.9869 53.9517 23.3136 53.5524 23.604C53.1713 23.8762 52.7538 24.1031 52.3001 24.2846C51.8463 24.448 51.3472 24.5296 50.8027 24.5296C50.2401 24.5296 49.7137 24.4298 49.2237 24.2302C48.7336 24.0124 48.3071 23.722 47.9441 23.359C47.5811 22.9778 47.2907 22.5332 47.0729 22.025C46.8733 21.4986 46.7734 20.9269 46.7734 20.3098C46.7734 19.7472 46.8823 19.2117 47.1001 18.7035C47.3361 18.1953 47.6446 17.7507 48.0258 17.3695C48.4069 16.9884 48.8516 16.6889 49.3598 16.4711C49.8861 16.2352 50.4397 16.1172 51.0205 16.1172ZM51.0205 17.8051C50.6938 17.8051 50.3762 17.8777 50.0676 18.0229C49.7591 18.15 49.4868 18.3315 49.2509 18.5674C49.0149 18.7852 48.8244 19.0484 48.6792 19.3569C48.534 19.6473 48.4614 19.965 48.4614 20.3098C48.4614 21.0358 48.7064 21.6438 49.1964 22.1339C49.7046 22.6058 50.2945 22.8417 50.9661 22.8417C51.7283 22.8417 52.418 22.5967 53.0351 22.1066C53.6522 21.6166 54.1604 21.0267 54.5597 20.337C54.3964 20.0466 54.1877 19.7562 53.9336 19.4658C53.6795 19.1573 53.3981 18.885 53.0896 18.6491C52.781 18.395 52.4543 18.1953 52.1095 18.0501C51.7646 17.8868 51.4016 17.8051 51.0205 17.8051ZM60.4403 17.8051C59.678 17.8051 58.9974 18.0501 58.3984 18.5402C57.8176 19.0121 57.2641 19.602 56.7377 20.3098C57.01 20.6365 57.2731 20.9541 57.5272 21.2627C57.7995 21.5712 58.0808 21.8435 58.3712 22.0794C58.6616 22.2972 58.9701 22.4787 59.2968 22.6239C59.6235 22.7691 59.9775 22.8417 60.3586 22.8417C60.6853 22.8417 61.0029 22.7782 61.3115 22.6511C61.62 22.5059 61.8832 22.3244 62.101 22.1066C62.3369 21.8707 62.5184 21.5984 62.6455 21.2899C62.7907 20.9813 62.8633 20.6546 62.8633 20.3098C62.8633 19.5838 62.6183 18.9849 62.1282 18.513C61.6563 18.0411 61.0937 17.8051 60.4403 17.8051Z" fill="#46474E" style="fill:#46474E;fill:color(display-p3 0.2745 0.2784 0.3059);fill-opacity:1;"/>
<path d="M51.0205 16.1172C51.5105 16.1172 51.9824 16.2079 52.4362 16.3894C52.9081 16.5709 53.3437 16.816 53.743 17.1245C54.1423 17.4149 54.5053 17.7416 54.832 18.1046C55.1587 18.4676 55.44 18.8306 55.6759 19.1936C56.0026 18.7761 56.3384 18.3859 56.6833 18.0229C57.0281 17.6418 57.3911 17.3151 57.7722 17.0428C58.1715 16.7524 58.5981 16.5256 59.0518 16.3622C59.5056 16.1989 60.0047 16.1172 60.5492 16.1172C61.1118 16.1172 61.6382 16.2261 62.1282 16.4439C62.6183 16.6435 63.0448 16.9339 63.4078 17.3151C63.7708 17.6781 64.0521 18.1137 64.2517 18.6219C64.4514 19.1301 64.5512 19.6927 64.5512 20.3098C64.5512 20.8724 64.4423 21.4079 64.2245 21.9161C64.0067 22.4243 63.7072 22.878 63.3261 23.2773C62.945 23.6585 62.4912 23.967 61.9649 24.2029C61.4567 24.4207 60.9031 24.5296 60.3042 24.5296C59.8323 24.5296 59.3785 24.4389 58.9429 24.2574C58.5255 24.0759 58.1171 23.8399 57.7178 23.5496C57.3367 23.2592 56.9737 22.9325 56.6288 22.5695C56.284 22.2065 55.9663 21.8435 55.6759 21.4805C55.3492 21.8798 55.0135 22.2609 54.6686 22.6239C54.3238 22.9869 53.9517 23.3136 53.5524 23.604C53.1713 23.8762 52.7538 24.1031 52.3001 24.2846C51.8463 24.448 51.3472 24.5296 50.8027 24.5296C50.2401 24.5296 49.7137 24.4298 49.2237 24.2302C48.7336 24.0124 48.3071 23.722 47.9441 23.359C47.5811 22.9778 47.2907 22.5332 47.0729 22.025C46.8733 21.4986 46.7734 20.9269 46.7734 20.3098C46.7734 19.7472 46.8823 19.2117 47.1001 18.7035C47.3361 18.1953 47.6446 17.7507 48.0258 17.3695C48.4069 16.9884 48.8516 16.6889 49.3598 16.4711C49.8861 16.2352 50.4397 16.1172 51.0205 16.1172ZM51.0205 17.8051C50.6938 17.8051 50.3762 17.8777 50.0676 18.0229C49.7591 18.15 49.4868 18.3315 49.2509 18.5674C49.0149 18.7852 48.8244 19.0484 48.6792 19.3569C48.534 19.6473 48.4614 19.965 48.4614 20.3098C48.4614 21.0358 48.7064 21.6438 49.1964 22.1339C49.7046 22.6058 50.2945 22.8417 50.9661 22.8417C51.7283 22.8417 52.418 22.5967 53.0351 22.1066C53.6522 21.6166 54.1604 21.0267 54.5597 20.337C54.3964 20.0466 54.1877 19.7562 53.9336 19.4658C53.6795 19.1573 53.3981 18.885 53.0896 18.6491C52.781 18.395 52.4543 18.1953 52.1095 18.0501C51.7646 17.8868 51.4016 17.8051 51.0205 17.8051ZM60.4403 17.8051C59.678 17.8051 58.9974 18.0501 58.3984 18.5402C57.8176 19.0121 57.2641 19.602 56.7377 20.3098C57.01 20.6365 57.2731 20.9541 57.5272 21.2627C57.7995 21.5712 58.0808 21.8435 58.3712 22.0794C58.6616 22.2972 58.9701 22.4787 59.2968 22.6239C59.6235 22.7691 59.9775 22.8417 60.3586 22.8417C60.6853 22.8417 61.0029 22.7782 61.3115 22.6511C61.62 22.5059 61.8832 22.3244 62.101 22.1066C62.3369 21.8707 62.5184 21.5984 62.6455 21.2899C62.7907 20.9813 62.8633 20.6546 62.8633 20.3098C62.8633 19.5838 62.6183 18.9849 62.1282 18.513C61.6563 18.0411 61.0937 17.8051 60.4403 17.8051Z" fill="white" style="fill:white;fill-opacity:1;"/>
<path d="M51.0205 16.1172C51.5105 16.1172 51.9824 16.2079 52.4362 16.3894C52.9081 16.5709 53.3437 16.816 53.743 17.1245C54.1423 17.4149 54.5053 17.7416 54.832 18.1046C55.1587 18.4676 55.44 18.8306 55.6759 19.1936C56.0026 18.7761 56.3384 18.3859 56.6833 18.0229C57.0281 17.6418 57.3911 17.3151 57.7722 17.0428C58.1715 16.7524 58.5981 16.5256 59.0518 16.3622C59.5056 16.1989 60.0047 16.1172 60.5492 16.1172C61.1118 16.1172 61.6382 16.2261 62.1282 16.4439C62.6183 16.6435 63.0448 16.9339 63.4078 17.3151C63.7708 17.6781 64.0521 18.1137 64.2517 18.6219C64.4514 19.1301 64.5512 19.6927 64.5512 20.3098C64.5512 20.8724 64.4423 21.4079 64.2245 21.9161C64.0067 22.4243 63.7072 22.878 63.3261 23.2773C62.945 23.6585 62.4912 23.967 61.9649 24.2029C61.4567 24.4207 60.9031 24.5296 60.3042 24.5296C59.8323 24.5296 59.3785 24.4389 58.9429 24.2574C58.5255 24.0759 58.1171 23.8399 57.7178 23.5496C57.3367 23.2592 56.9737 22.9325 56.6288 22.5695C56.284 22.2065 55.9663 21.8435 55.6759 21.4805C55.3492 21.8798 55.0135 22.2609 54.6686 22.6239C54.3238 22.9869 53.9517 23.3136 53.5524 23.604C53.1713 23.8762 52.7538 24.1031 52.3001 24.2846C51.8463 24.448 51.3472 24.5296 50.8027 24.5296C50.2401 24.5296 49.7137 24.4298 49.2237 24.2302C48.7336 24.0124 48.3071 23.722 47.9441 23.359C47.5811 22.9778 47.2907 22.5332 47.0729 22.025C46.8733 21.4986 46.7734 20.9269 46.7734 20.3098C46.7734 19.7472 46.8823 19.2117 47.1001 18.7035C47.3361 18.1953 47.6446 17.7507 48.0258 17.3695C48.4069 16.9884 48.8516 16.6889 49.3598 16.4711C49.8861 16.2352 50.4397 16.1172 51.0205 16.1172ZM51.0205 17.8051C50.6938 17.8051 50.3762 17.8777 50.0676 18.0229C49.7591 18.15 49.4868 18.3315 49.2509 18.5674C49.0149 18.7852 48.8244 19.0484 48.6792 19.3569C48.534 19.6473 48.4614 19.965 48.4614 20.3098C48.4614 21.0358 48.7064 21.6438 49.1964 22.1339C49.7046 22.6058 50.2945 22.8417 50.9661 22.8417C51.7283 22.8417 52.418 22.5967 53.0351 22.1066C53.6522 21.6166 54.1604 21.0267 54.5597 20.337C54.3964 20.0466 54.1877 19.7562 53.9336 19.4658C53.6795 19.1573 53.3981 18.885 53.0896 18.6491C52.781 18.395 52.4543 18.1953 52.1095 18.0501C51.7646 17.8868 51.4016 17.8051 51.0205 17.8051ZM60.4403 17.8051C59.678 17.8051 58.9974 18.0501 58.3984 18.5402C57.8176 19.0121 57.2641 19.602 56.7377 20.3098C57.01 20.6365 57.2731 20.9541 57.5272 21.2627C57.7995 21.5712 58.0808 21.8435 58.3712 22.0794C58.6616 22.2972 58.9701 22.4787 59.2968 22.6239C59.6235 22.7691 59.9775 22.8417 60.3586 22.8417C60.6853 22.8417 61.0029 22.7782 61.3115 22.6511C61.62 22.5059 61.8832 22.3244 62.101 22.1066C62.3369 21.8707 62.5184 21.5984 62.6455 21.2899C62.7907 20.9813 62.8633 20.6546 62.8633 20.3098C62.8633 19.5838 62.6183 18.9849 62.1282 18.513C61.6563 18.0411 61.0937 17.8051 60.4403 17.8051Z" stroke="white" style="stroke:white;stroke-opacity:1;"/>
<defs>
<linearGradient id="paint0_linear_272_3473" x1="53.546" y1="80.8555" x2="53.546" y2="168.671" gradientUnits="userSpaceOnUse">
<stop stop-color="#FFD66B" style="stop-color:#FFD66B;stop-color:color(display-p3 1.0000 0.8392 0.4196);stop-opacity:1;"/>
<stop offset="1" stop-color="#FFA469" style="stop-color:#FFA469;stop-color:color(display-p3 1.0000 0.6431 0.4118);stop-opacity:1;"/>
</linearGradient>
<linearGradient id="paint1_linear_272_3473" x1="50.4944" y1="193.801" x2="50.4944" y2="236.938" gradientUnits="userSpaceOnUse">
<stop stop-color="#FFD66B" style="stop-color:#FFD66B;stop-color:color(display-p3 1.0000 0.8392 0.4196);stop-opacity:1;"/>
<stop offset="1" stop-color="#FFA469" style="stop-color:#FFA469;stop-color:color(display-p3 1.0000 0.6431 0.4118);stop-opacity:1;"/>
</linearGradient>
<linearGradient id="paint2_linear_272_3473" x1="55.6641" y1="0.324219" x2="55.6641" y2="40.3242" gradientUnits="userSpaceOnUse">
<stop stop-color="#FFD66B" style="stop-color:#FFD66B;stop-color:color(display-p3 1.0000 0.8392 0.4196);stop-opacity:1;"/>
<stop offset="1" stop-color="#FFA469" style="stop-color:#FFA469;stop-color:color(display-p3 1.0000 0.6431 0.4118);stop-opacity:1;"/>
</linearGradient>
</defs>
</svg>
