<svg width="176" height="270" viewBox="0 0 176 270" fill="none" xmlns="http://www.w3.org/2000/svg">
<g clip-path="url(#clip0_272_3606)">
<rect x="229.013" y="234.122" width="194.015" height="194.015" rx="97.0077" transform="rotate(-178.274 229.013 234.122)" fill="#F3F0F0" fill-opacity="0.01" stroke="url(#paint0_linear_272_3606)" style="fill:#F3F0F0;fill:color(display-p3 0.9529 0.9412 0.9412);fill-opacity:0.01;" stroke-width="4"/>
<rect x="99.3148" y="48.529" width="131.268" height="131.268" rx="65.634" transform="rotate(22.4119 99.3148 48.529)" fill="white" stroke="url(#paint1_linear_272_3606)" style="fill:white;fill-opacity:1;" stroke-width="1.50434"/>
<path d="M175.682 200.947C175.341 200.873 174.989 200.874 174.627 200.95C174.257 201.031 173.944 201.142 173.69 201.285C173.409 201.443 173.191 201.6 173.036 201.756C172.877 201.926 172.765 202.086 172.7 202.238C172.631 202.404 172.602 202.558 172.614 202.702C172.63 202.855 172.673 202.993 172.742 203.116C172.914 203.423 173.163 203.589 173.489 203.614C173.806 203.645 174.14 203.561 174.491 203.364L175.387 202.862L175.912 203.797L174.989 204.314C174.638 204.511 174.413 204.748 174.313 205.023C174.218 205.307 174.242 205.576 174.385 205.831C174.547 206.121 174.793 206.26 175.122 206.249C175.455 206.247 175.784 206.155 176.109 205.973C176.364 205.83 176.61 205.64 176.847 205.403C177.08 205.18 177.254 204.904 177.369 204.574L178.503 204.96C178.358 205.422 178.114 205.83 177.77 206.185C177.426 206.539 177.047 206.832 176.634 207.064C176.257 207.275 175.9 207.412 175.565 207.473C175.221 207.539 174.91 207.54 174.632 207.476C174.345 207.418 174.092 207.306 173.872 207.14C173.657 206.984 173.481 206.782 173.343 206.536C173.289 206.44 173.233 206.32 173.177 206.179C173.126 206.046 173.098 205.894 173.095 205.723C173.082 205.557 173.103 205.378 173.157 205.186C173.207 205.007 173.311 204.822 173.469 204.63C173.223 204.664 172.999 204.657 172.799 204.607C172.598 204.558 172.423 204.483 172.274 204.382C172.116 204.286 171.987 204.179 171.887 204.062C171.787 203.945 171.709 203.838 171.655 203.742C171.493 203.452 171.395 203.154 171.363 202.849C171.335 202.553 171.375 202.254 171.483 201.951C171.595 201.657 171.78 201.369 172.037 201.086C172.299 200.812 172.641 200.557 173.062 200.321C173.484 200.084 173.938 199.905 174.423 199.783C174.905 199.674 175.408 199.675 175.932 199.786L175.682 200.947Z" fill="#46474E" style="fill:#46474E;fill:color(display-p3 0.2745 0.2784 0.3059);fill-opacity:1;"/>
<path d="M163.397 205.091L164.618 208.036L167.911 206.67L166.69 203.726L167.89 203.228L170.755 210.135L169.555 210.633L168.363 207.758L165.07 209.124L166.262 211.998L165.048 212.502L162.183 205.595L163.397 205.091Z" fill="#46474E" style="fill:#46474E;fill:color(display-p3 0.2745 0.2784 0.3059);fill-opacity:1;"/>
<path d="M159.322 210.074L159.187 209.594C159.104 209.304 158.986 209.07 158.832 208.894C158.68 208.728 158.503 208.6 158.3 208.511C158.09 208.434 157.87 208.397 157.64 208.399C157.401 208.403 157.165 208.439 156.932 208.504C156.69 208.573 156.423 208.701 156.13 208.888C155.838 209.075 155.581 209.352 155.36 209.718L154.333 209.082C154.594 208.6 154.932 208.222 155.347 207.948C155.754 207.686 156.186 207.491 156.641 207.362C157.048 207.247 157.451 207.191 157.849 207.194C158.25 207.206 158.622 207.279 158.963 207.413C159.297 207.559 159.593 207.774 159.851 208.057C160.099 208.342 160.285 208.703 160.408 209.139L160.946 211.044C161.066 211.47 161.103 211.878 161.056 212.268C161.01 212.658 160.894 213.01 160.711 213.323C160.518 213.64 160.264 213.91 159.951 214.135C159.631 214.372 159.257 214.55 158.831 214.671C158.405 214.791 157.994 214.839 157.6 214.814C157.206 214.79 156.85 214.697 156.532 214.535C156.205 214.376 155.926 214.147 155.694 213.846C155.456 213.557 155.278 213.205 155.16 212.788L154.757 211.363L159.322 210.074ZM156.388 212.3C156.473 212.6 156.589 212.845 156.736 213.033C156.884 213.222 157.054 213.362 157.247 213.454C157.434 213.558 157.637 213.611 157.857 213.612C158.07 213.625 158.288 213.6 158.511 213.537C158.734 213.474 158.932 213.381 159.107 213.258C159.282 213.136 159.427 212.985 159.544 212.805C159.661 212.626 159.733 212.417 159.76 212.179C159.79 211.951 159.765 211.697 159.685 211.416L159.595 211.096L156.31 212.024L156.388 212.3Z" fill="#46474E" style="fill:#46474E;fill:color(display-p3 0.2745 0.2784 0.3059);fill-opacity:1;"/>
<path d="M146.224 209.736L146.724 212.884L150.245 212.325L149.745 209.177L151.028 208.973L152.201 216.358L150.918 216.562L150.43 213.488L146.909 214.048L147.397 217.121L146.099 217.327L144.926 209.942L146.224 209.736Z" fill="#46474E" style="fill:#46474E;fill:color(display-p3 0.2745 0.2784 0.3059);fill-opacity:1;"/>
<path d="M137.354 210.511L137.48 213.696L141.043 213.555L140.916 210.37L142.214 210.318L142.511 217.79L141.213 217.841L141.089 214.732L137.527 214.873L137.651 217.983L136.338 218.035L136.041 210.563L137.354 210.511Z" fill="#46474E" style="fill:#46474E;fill:color(display-p3 0.2745 0.2784 0.3059);fill-opacity:1;"/>
<path d="M126.962 212.772C126.995 212.34 127.111 211.96 127.308 211.632C127.495 211.314 127.743 211.05 128.052 210.842C128.351 210.633 128.691 210.483 129.072 210.392C129.453 210.3 129.854 210.271 130.276 210.304C130.708 210.338 131.105 210.429 131.467 210.579C131.829 210.729 132.141 210.93 132.404 211.183C132.657 211.435 132.851 211.733 132.986 212.077C133.12 212.431 133.17 212.824 133.136 213.255L132.966 215.424C132.933 215.856 132.822 216.231 132.636 216.55C132.438 216.878 132.195 217.146 131.906 217.356C131.606 217.575 131.266 217.73 130.885 217.822C130.493 217.922 130.086 217.956 129.665 217.923C129.213 217.888 128.806 217.79 128.445 217.631C128.073 217.48 127.761 217.274 127.509 217.012C127.246 216.759 127.052 216.456 126.928 216.103C126.804 215.76 126.758 215.372 126.792 214.941L126.962 212.772ZM128.09 214.815C128.064 215.136 128.098 215.411 128.192 215.641C128.284 215.881 128.415 216.078 128.585 216.232C128.744 216.386 128.927 216.502 129.133 216.578C129.34 216.655 129.543 216.701 129.744 216.717C129.955 216.734 130.168 216.72 130.383 216.676C130.599 216.633 130.803 216.547 130.994 216.421C131.176 216.294 131.331 216.119 131.46 215.897C131.587 215.685 131.664 215.418 131.689 215.097L131.821 213.41C131.846 213.089 131.823 212.809 131.75 212.571C131.667 212.342 131.551 212.151 131.401 211.998C131.252 211.845 131.069 211.73 130.852 211.652C130.636 211.575 130.403 211.526 130.152 211.506C129.951 211.491 129.743 211.505 129.527 211.548C129.312 211.592 129.113 211.678 128.931 211.805C128.74 211.931 128.58 212.101 128.452 212.313C128.324 212.535 128.247 212.807 128.222 213.128L128.09 214.815Z" fill="#46474E" style="fill:#46474E;fill:color(display-p3 0.2745 0.2784 0.3059);fill-opacity:1;"/>
<path d="M120.366 219.795C120.375 219.694 120.366 219.584 120.339 219.466C120.311 219.347 120.262 219.23 120.193 219.114C120.122 219.007 120.028 218.911 119.911 218.827C119.794 218.742 119.657 218.684 119.499 218.652C119.321 218.617 119.162 218.616 119.022 218.65C118.872 218.682 118.744 218.734 118.637 218.805C118.529 218.886 118.444 218.977 118.383 219.078C118.312 219.177 118.267 219.275 118.247 219.374L117.195 219.165C117.254 218.972 117.341 218.768 117.455 218.555C117.567 218.351 117.726 218.172 117.931 218.018C118.126 217.862 118.37 217.746 118.662 217.67C118.944 217.593 119.288 217.594 119.693 217.675C120.098 217.755 120.426 217.887 120.677 218.07C120.918 218.251 121.104 218.453 121.235 218.674C121.356 218.893 121.434 219.119 121.47 219.352C121.494 219.593 121.487 219.812 121.447 220.009L120.366 219.795ZM122.676 211.644L121.248 213.101L118.085 216.231L116.885 215.993L118.341 208.659L119.645 208.917L118.592 214.222L118.666 214.237L120.115 212.753L123.26 209.635L124.431 209.867L122.975 217.202L121.686 216.946L122.736 211.656L122.676 211.644Z" fill="#46474E" style="fill:#46474E;fill:color(display-p3 0.2745 0.2784 0.3059);fill-opacity:1;"/>
<path d="M102.344 210.007L104.992 204.258L106.186 204.808L103.052 211.613L98.2081 209.383L98.6946 208.326L102.344 210.007Z" fill="#46474E" style="fill:#46474E;fill:color(display-p3 0.2745 0.2784 0.3059);fill-opacity:1;"/>
<path d="M94.4313 199.469C95.1116 199.496 95.6412 199.566 96.0201 199.68C96.3852 199.797 96.6966 199.935 96.9543 200.093C97.5727 200.471 97.9614 200.945 98.1204 201.515C98.2794 202.085 98.1775 202.666 97.8146 203.258C97.5991 203.611 97.3404 203.86 97.0385 204.005C96.7281 204.146 96.4123 204.218 96.091 204.222C95.7558 204.23 95.4367 204.182 95.1337 204.079C94.8168 203.98 94.551 203.864 94.3362 203.733L92.4682 202.589L92.1685 203.079C91.895 203.525 91.8303 203.911 91.9742 204.235C92.1128 204.568 92.4141 204.876 92.8779 205.16C93.1012 205.297 93.397 205.431 93.7655 205.562C94.1201 205.696 94.5421 205.73 95.0314 205.664L95.0599 206.832C94.4531 206.898 93.9103 206.849 93.4316 206.686C92.9529 206.523 92.5332 206.331 92.1725 206.11C91.3394 205.6 90.8383 205.039 90.6693 204.428C90.4865 203.82 90.6264 203.138 91.0892 202.382L93.6762 198.157L94.6424 198.748L94.4084 199.42L94.4313 199.469ZM93.0282 201.674L94.7159 202.707C94.8533 202.792 95.0115 202.871 95.1904 202.945C95.3556 203.022 95.5279 203.069 95.7073 203.084C95.8816 203.108 96.058 203.08 96.2366 203.001C96.4014 202.925 96.5495 202.779 96.6809 202.564C96.8702 202.255 96.9091 201.96 96.7976 201.679C96.6776 201.393 96.4543 201.15 96.128 200.951C95.9648 200.851 95.7841 200.77 95.5861 200.707C95.3742 200.649 95.1656 200.603 94.9603 200.572C94.7465 200.536 94.5386 200.509 94.3367 200.492C94.1295 200.483 93.9405 200.473 93.7696 200.463L93.0282 201.674Z" fill="#46474E" style="fill:#46474E;fill:color(display-p3 0.2745 0.2784 0.3059);fill-opacity:1;"/>
<path d="M86.0432 201.966L86.4106 201.255C85.7258 201.165 85.2106 201.054 84.8652 200.923C84.5118 200.785 84.2284 200.632 84.0148 200.464C83.4373 200.009 83.1005 199.469 83.0045 198.842C82.9007 198.209 83.1323 197.532 83.6993 196.812L85.1201 195.008C85.6497 194.336 86.2438 193.964 86.9022 193.893C87.5528 193.816 88.1985 194.03 88.8393 194.534C89.0529 194.703 89.2834 194.923 89.5308 195.195C89.7845 195.458 90.0467 195.825 90.3177 196.295L92.4021 193.649L93.4107 194.443L86.9333 202.667L86.0432 201.966ZM89.5606 197.256C89.315 196.819 89.0844 196.477 88.8686 196.23C88.6529 195.984 88.4224 195.764 88.1771 195.57C88.0189 195.446 87.8601 195.346 87.7007 195.272C87.5271 195.199 87.3546 195.166 87.1832 195.172C87.0056 195.186 86.8299 195.246 86.6561 195.353C86.4682 195.461 86.2839 195.63 86.1032 195.86L84.7759 197.545C84.4207 197.996 84.2727 198.379 84.3317 198.695C84.3844 199.018 84.5691 199.305 84.8855 199.554C84.9963 199.641 85.1424 199.724 85.3238 199.803C85.5053 199.882 85.704 199.955 85.92 200.023C86.1281 200.084 86.3455 200.134 86.5723 200.171C86.7928 200.217 87.0007 200.246 87.1958 200.259L89.5606 197.256Z" fill="#46474E" style="fill:#46474E;fill:color(display-p3 0.2745 0.2784 0.3059);fill-opacity:1;"/>
<path d="M80.4738 188.161C81.129 188.345 81.6276 188.537 81.9695 188.737C82.2971 188.936 82.5678 189.142 82.7815 189.356C83.2944 189.868 83.5617 190.42 83.5833 191.011C83.6049 191.602 83.3701 192.144 82.879 192.635C82.5871 192.927 82.2774 193.109 81.9499 193.18C81.6152 193.244 81.2912 193.241 80.9779 193.17C80.6503 193.099 80.3512 192.978 80.0805 192.807C79.7956 192.636 79.5641 192.462 79.386 192.284L77.8366 190.736L77.4308 191.142C77.0607 191.512 76.9077 191.872 76.972 192.221C77.0291 192.577 77.25 192.947 77.6347 193.332C77.8199 193.517 78.0763 193.716 78.404 193.929C78.7174 194.143 79.1198 194.274 79.6111 194.324L79.3659 195.467C78.7606 195.389 78.2443 195.215 77.8169 194.944C77.3895 194.674 77.0262 194.389 76.727 194.09C76.036 193.4 75.6797 192.738 75.6581 192.104C75.6222 191.47 75.9175 190.84 76.5439 190.213L80.046 186.708L80.8474 187.509L80.4631 188.107L80.4738 188.161ZM78.5946 189.977L79.9945 191.376C80.1085 191.49 80.2438 191.604 80.4005 191.718C80.543 191.831 80.6997 191.917 80.8706 191.974C81.0344 192.038 81.2124 192.052 81.4047 192.016C81.5827 191.98 81.7607 191.874 81.9386 191.696C82.1949 191.439 82.3016 191.161 82.2587 190.862C82.2088 190.556 82.0484 190.268 81.7777 189.997C81.6424 189.862 81.4856 189.741 81.3076 189.634C81.1153 189.528 80.923 189.435 80.7307 189.357C80.5313 189.271 80.3354 189.197 80.1431 189.133C79.9437 189.076 79.7621 189.022 79.5983 188.973L78.5946 189.977Z" fill="#46474E" style="fill:#46474E;fill:color(display-p3 0.2745 0.2784 0.3059);fill-opacity:1;"/>
<path d="M75.2939 181.067L72.7916 183.041L74.9998 185.84L77.5021 183.866L78.3067 184.886L72.4365 189.517L71.6318 188.497L74.0748 186.57L71.8666 183.771L69.4236 185.699L68.6096 184.667L74.4798 180.035L75.2939 181.067Z" fill="#46474E" style="fill:#46474E;fill:color(display-p3 0.2745 0.2784 0.3059);fill-opacity:1;"/>
<path d="M65.6216 178.215L71.0169 174.906L71.7198 176.052L66.3245 179.361L67.5329 181.332L66.5414 181.94L63.4138 176.841L64.4053 176.232L65.6216 178.215Z" fill="#46474E" style="fill:#46474E;fill:color(display-p3 0.2745 0.2784 0.3059);fill-opacity:1;"/>
<path d="M65.7448 169.855L63.7266 169.556L59.3355 168.837L58.8228 167.726L65.612 164.593L66.169 165.8L61.2588 168.066L61.2905 168.135L63.3425 168.435L67.7135 169.146L68.2136 170.23L61.4244 173.363L60.8737 172.17L65.7702 169.91L65.7448 169.855Z" fill="#46474E" style="fill:#46474E;fill:color(display-p3 0.2745 0.2784 0.3059);fill-opacity:1;"/>
<path d="M61.036 161.936L61.5101 161.782C61.7974 161.688 62.026 161.561 62.1959 161.4C62.3563 161.242 62.477 161.059 62.5581 160.853C62.6265 160.64 62.6552 160.419 62.6441 160.19C62.6298 159.951 62.5853 159.716 62.5106 159.486C62.4327 159.247 62.2944 158.985 62.0958 158.7C61.8972 158.415 61.6108 158.169 61.2364 157.963L61.8315 156.911C62.3234 157.154 62.7144 157.477 63.0045 157.88C63.2819 158.277 63.4939 158.7 63.6403 159.15C63.7712 159.553 63.8432 159.953 63.8563 160.351C63.8598 160.752 63.8014 161.126 63.681 161.472C63.548 161.812 63.3452 162.116 63.0726 162.385C62.7969 162.644 62.4435 162.844 62.0126 162.984L60.1309 163.597C59.7095 163.734 59.3031 163.787 58.9116 163.755C58.5201 163.724 58.1641 163.622 57.8437 163.451C57.5202 163.271 57.2401 163.028 57.0034 162.724C56.754 162.413 56.5608 162.047 56.4237 161.626C56.2866 161.205 56.2226 160.796 56.2318 160.402C56.241 160.007 56.32 159.647 56.4688 159.324C56.6145 158.99 56.8331 158.702 57.1247 158.459C57.4035 158.209 57.7488 158.018 58.1606 157.884L59.5683 157.426L61.036 161.936ZM58.6966 159.091C58.3997 159.188 58.1599 159.313 57.9773 159.468C57.7947 159.623 57.6613 159.799 57.577 159.996C57.4801 160.186 57.4357 160.391 57.4437 160.611C57.4389 160.824 57.4724 161.041 57.5441 161.261C57.6158 161.482 57.7163 161.677 57.8456 161.846C57.975 162.016 58.1316 162.156 58.3156 162.265C58.4995 162.375 58.7108 162.438 58.9495 162.456C59.1787 162.477 59.4321 162.442 59.7098 162.352L60.0259 162.249L58.9695 159.002L58.6966 159.091Z" fill="#46474E" style="fill:#46474E;fill:color(display-p3 0.2745 0.2784 0.3059);fill-opacity:1;"/>
<path d="M51.0852 153.664C51.182 153.634 51.2798 153.584 51.3786 153.513C51.4774 153.442 51.5673 153.352 51.6483 153.243C51.7195 153.137 51.7719 153.013 51.8056 152.873C51.8392 152.733 51.8403 152.584 51.8088 152.426C51.7734 152.248 51.7132 152.101 51.6284 151.984C51.5416 151.858 51.4449 151.759 51.3383 151.688C51.2218 151.619 51.1053 151.575 50.9888 151.557C50.8703 151.53 50.7617 151.526 50.6629 151.545L50.4532 150.493C50.6547 150.474 50.8759 150.476 51.1168 150.5C51.3479 150.526 51.574 150.604 51.7951 150.734C52.0142 150.855 52.2146 151.036 52.3961 151.277C52.5757 151.508 52.7059 151.826 52.7866 152.231C52.8673 152.636 52.871 152.989 52.7978 153.292C52.7225 153.584 52.6078 153.833 52.4536 154.038C52.2975 154.233 52.1187 154.392 51.9171 154.515C51.7038 154.629 51.4983 154.706 51.3008 154.745L51.0852 153.664ZM59.4993 152.68L57.6068 151.917L53.5048 150.193L53.2656 148.993L60.5987 147.531L60.8585 148.835L55.555 149.892L55.5698 149.966L57.4949 150.738L61.5791 152.45L61.8124 153.62L54.4793 155.082L54.2224 153.793L59.5111 152.739L59.4993 152.68Z" fill="#46474E" style="fill:#46474E;fill:color(display-p3 0.2745 0.2784 0.3059);fill-opacity:1;"/>
<path d="M59.4844 135.566L51.9975 135.276L52.0474 133.993L55.2323 134.116L55.2816 132.848C55.2871 132.707 55.2875 132.566 55.2829 132.425C55.2683 132.283 55.2281 132.151 55.1623 132.027C55.0966 131.904 55.0002 131.789 54.8733 131.684C54.7367 131.567 54.5493 131.464 54.3109 131.374L52.1805 130.566L52.2321 129.238L54.377 130.062C54.7346 130.197 55.0358 130.355 55.2808 130.535C55.516 130.706 55.6684 130.933 55.738 131.218C55.8318 130.879 56.0176 130.635 56.2956 130.484C56.5635 130.333 56.8859 130.205 57.263 130.098L59.7243 129.393L59.6715 130.751L57.5783 131.32C57.3337 131.391 57.139 131.474 56.9942 131.569C56.8397 131.654 56.7249 131.756 56.6498 131.874C56.5646 131.991 56.5092 132.12 56.4836 132.26C56.4479 132.4 56.4268 132.555 56.4201 132.726L56.3644 134.16L59.5342 134.283L59.4844 135.566Z" fill="#46474E" style="fill:#46474E;fill:color(display-p3 0.2745 0.2784 0.3059);fill-opacity:1;"/>
<path d="M58.2154 120.548C58.6431 120.615 59.0127 120.76 59.3242 120.983C59.6273 121.194 59.8705 121.462 60.0537 121.786C60.2385 122.101 60.3615 122.452 60.4227 122.839C60.484 123.226 60.4816 123.628 60.4156 124.046C60.348 124.473 60.2255 124.862 60.048 125.211C59.8705 125.56 59.6453 125.856 59.3726 126.098C59.1013 126.331 58.789 126.501 58.4356 126.608C58.0723 126.714 57.6768 126.733 57.249 126.665L55.1004 126.326C54.6727 126.258 54.3073 126.119 54.0042 125.908C53.6927 125.686 53.4437 125.422 53.2574 125.117C53.0626 124.801 52.9346 124.449 52.8734 124.062C52.8038 123.664 52.802 123.256 52.868 122.838C52.9387 122.391 53.0678 121.993 53.2552 121.645C53.4343 121.286 53.6644 120.991 53.9456 120.76C54.2184 120.518 54.5356 120.349 54.8974 120.253C55.2492 120.156 55.639 120.141 56.0668 120.208L58.2154 120.548ZM56.0902 121.512C55.7719 121.462 55.4947 121.474 55.2586 121.549C55.0125 121.622 54.8057 121.737 54.6382 121.894C54.4722 122.041 54.3429 122.215 54.2502 122.414C54.1575 122.614 54.0954 122.813 54.064 123.012C54.031 123.221 54.0279 123.434 54.0546 123.653C54.0812 123.871 54.1501 124.081 54.2611 124.282C54.3736 124.473 54.5356 124.641 54.7471 124.787C54.9487 124.931 55.2086 125.028 55.5269 125.078L57.1981 125.342C57.5164 125.392 57.797 125.391 58.0399 125.337C58.2745 125.272 58.474 125.171 58.6384 125.034C58.8028 124.897 58.9321 124.724 59.0263 124.514C59.1206 124.305 59.1873 124.076 59.2266 123.827C59.2581 123.628 59.2604 123.42 59.2337 123.201C59.2071 122.983 59.1374 122.778 59.0249 122.587C58.9139 122.386 58.7576 122.214 58.5561 122.07C58.3446 121.924 58.0797 121.826 57.7614 121.776L56.0902 121.512Z" fill="#46474E" style="fill:#46474E;fill:color(display-p3 0.2745 0.2784 0.3059);fill-opacity:1;"/>
<path d="M54.4214 115.129L55.2185 115.196C55.0402 114.529 54.9456 114.01 54.9345 113.641C54.9261 113.262 54.9588 112.942 55.0325 112.68C55.2318 111.972 55.6026 111.454 56.145 111.126C56.6901 110.787 57.4037 110.743 58.2858 110.991L60.496 111.613C61.3199 111.845 61.8907 112.252 62.2083 112.833C62.5286 113.405 62.5783 114.083 62.3572 114.868C62.2835 115.13 62.1684 115.427 62.012 115.759C61.8652 116.095 61.6267 116.478 61.2963 116.908L64.5388 117.821L64.1908 119.057L54.1143 116.219L54.4214 115.129ZM60.1186 116.576C60.4283 116.182 60.6559 115.838 60.8014 115.544C60.947 115.25 61.062 114.953 61.1466 114.653C61.2012 114.459 61.2323 114.274 61.24 114.098C61.2406 113.91 61.2054 113.738 61.1343 113.582C61.0534 113.423 60.9305 113.284 60.7654 113.164C60.5934 113.032 60.3668 112.927 60.0857 112.847L58.0209 112.266C57.4684 112.11 57.0576 112.12 56.7885 112.296C56.5098 112.468 56.3158 112.748 56.2066 113.136C56.1684 113.272 56.1476 113.439 56.1442 113.636C56.1408 113.834 56.1492 114.046 56.1694 114.271C56.1924 114.487 56.2299 114.707 56.2819 114.931C56.3243 115.152 56.3769 115.355 56.4399 115.54L60.1186 116.576Z" fill="#46474E" style="fill:#46474E;fill:color(display-p3 0.2745 0.2784 0.3059);fill-opacity:1;"/>
<path d="M57.3055 105.773L58.089 105.933C57.9905 105.25 57.9574 104.724 57.9898 104.356C58.026 103.978 58.0961 103.664 58.2001 103.413C58.4811 102.733 58.9102 102.263 59.4875 102C60.0686 101.728 60.7825 101.767 61.6293 102.118L63.751 102.996C64.542 103.323 65.061 103.794 65.3081 104.408C65.5591 105.013 65.5287 105.693 65.2168 106.446C65.1129 106.698 64.9637 106.979 64.7693 107.291C64.5841 107.607 64.3023 107.959 63.9237 108.347L67.0364 109.635L66.5455 110.822L56.8723 106.82L57.3055 105.773ZM62.793 107.88C63.1469 107.525 63.4134 107.21 63.5924 106.935C63.7715 106.66 63.9206 106.379 64.04 106.09C64.117 105.904 64.1696 105.724 64.1978 105.551C64.2206 105.364 64.2058 105.189 64.1535 105.026C64.0919 104.859 63.9861 104.706 63.8363 104.568C63.681 104.416 63.4684 104.285 63.1985 104.173L61.2164 103.353C60.686 103.133 60.2769 103.095 59.9891 103.237C59.692 103.376 59.4664 103.632 59.3124 104.004C59.2585 104.134 59.2182 104.297 59.1916 104.493C59.165 104.689 59.1485 104.9 59.1421 105.127C59.1395 105.344 59.1509 105.566 59.1763 105.795C59.1924 106.019 59.2208 106.227 59.2615 106.418L62.793 107.88Z" fill="#46474E" style="fill:#46474E;fill:color(display-p3 0.2745 0.2784 0.3059);fill-opacity:1;"/>
<path d="M64.9981 98.7627L65.4331 99.0061C65.6968 99.1536 65.9455 99.235 66.1792 99.2504C66.4041 99.2608 66.6199 99.2258 66.8265 99.1452C67.0293 99.0509 67.2111 98.9219 67.372 98.758C67.5379 98.5854 67.6798 98.3936 67.7978 98.1827C67.9207 97.963 68.0194 97.6835 68.0937 97.3443C68.1681 97.0051 68.1541 96.628 68.0516 96.213L69.2277 95.9363C69.3836 96.462 69.4119 96.9683 69.3127 97.4551C69.2095 97.9282 69.0424 98.3713 68.8113 98.7844C68.6048 99.1535 68.3598 99.478 68.0762 99.7579C67.7839 100.033 67.4698 100.244 67.1339 100.39C66.794 100.523 66.4329 100.581 66.0505 100.563C65.6731 100.537 65.2866 100.413 64.8911 100.191L63.1641 99.2252C62.7774 99.0089 62.4628 98.7463 62.2201 98.4374C61.9775 98.1286 61.8103 97.7984 61.7184 97.447C61.6314 97.0868 61.6193 96.7165 61.6821 96.3362C61.741 95.9422 61.8786 95.5519 62.095 95.1652C62.3113 94.7785 62.5676 94.4545 62.8638 94.1932C63.1599 93.932 63.4774 93.7461 63.8162 93.6356C64.1599 93.5163 64.5199 93.4812 64.8964 93.5303C65.2689 93.5656 65.6442 93.689 66.0221 93.9004L67.314 94.6233L64.9981 98.7627ZM65.4991 95.1137C65.2266 94.9613 64.9716 94.8706 64.734 94.8415C64.4964 94.8124 64.2767 94.8337 64.075 94.9055C63.8694 94.9636 63.6886 95.0702 63.5327 95.2252C63.3728 95.3666 63.2363 95.5383 63.1232 95.7405C63.0101 95.9426 62.9352 96.1488 62.8984 96.3589C62.8615 96.5691 62.8653 96.779 62.9097 96.9884C62.954 97.1979 63.0508 97.3962 63.1999 97.5835C63.3402 97.7659 63.5378 97.9283 63.7926 98.0709L64.0826 98.2332L65.7495 95.2539L65.4991 95.1137Z" fill="#46474E" style="fill:#46474E;fill:color(display-p3 0.2745 0.2784 0.3059);fill-opacity:1;"/>
<path d="M71.8743 93.3732L65.8109 88.9718L66.5652 87.9327L69.1445 89.8051L69.8899 88.7782C69.9728 88.6641 70.0515 88.5471 70.1262 88.4271C70.1927 88.3011 70.2329 88.1686 70.2469 88.0294C70.2608 87.8901 70.2444 87.7413 70.1976 87.5829C70.1486 87.4105 70.05 87.2206 69.9017 87.0135L68.5795 85.1577L69.3604 84.082L70.6859 85.9588C70.9083 86.2696 71.0711 86.5682 71.1743 86.8546C71.2752 87.127 71.2755 87.4009 71.175 87.6765C71.4414 87.4467 71.7319 87.3465 72.0466 87.3758C72.3531 87.3992 72.6927 87.4715 73.0652 87.5926L75.5037 88.3734L74.705 89.4736L72.6487 88.7835C72.4058 88.7067 72.1977 88.6677 72.0244 88.6664C71.8489 88.651 71.6972 88.6715 71.5691 88.7278C71.4329 88.7783 71.3153 88.8547 71.2162 88.9569C71.1089 89.0533 71.005 89.1707 70.9044 89.3093L70.0614 90.4706L72.6286 92.3341L71.8743 93.3732Z" fill="#46474E" style="fill:#46474E;fill:color(display-p3 0.2745 0.2784 0.3059);fill-opacity:1;"/>
<path d="M74.6222 79.6717L79.2718 83.9662L78.3596 84.9538L73.7101 80.6593L72.1419 82.3571L71.2875 81.5679L75.3462 77.1736L76.2006 77.9628L74.6222 79.6717Z" fill="#46474E" style="fill:#46474E;fill:color(display-p3 0.2745 0.2784 0.3059);fill-opacity:1;"/>
<path d="M86.7182 76.8262L84.6472 74.4034L81.9373 76.7198L84.0083 79.1426L83.0208 79.9867L78.1623 74.3028L79.1498 73.4587L81.1717 75.8241L83.8816 73.5077L81.8596 71.1424L82.8586 70.2884L87.7171 75.9723L86.7182 76.8262Z" fill="#46474E" style="fill:#46474E;fill:color(display-p3 0.2745 0.2784 0.3059);fill-opacity:1;"/>
<path d="M93.4808 68.6104C93.7215 68.9704 93.8659 69.3403 93.914 69.7201C93.9648 70.0859 93.9332 70.4462 93.8192 70.8011C93.7135 71.1504 93.5394 71.4788 93.2969 71.7864C93.0543 72.094 92.7573 72.3654 92.4057 72.6005C92.0457 72.8412 91.6773 73.0149 91.3004 73.1216C90.9235 73.2283 90.5534 73.2637 90.1903 73.228C89.8355 73.1866 89.4988 73.0725 89.1801 72.8859C88.8558 72.6908 88.5733 72.4133 88.3326 72.0534L87.1234 70.2452C86.8826 69.8852 86.7369 69.5224 86.6861 69.1565C86.638 68.7768 86.6626 68.415 86.7599 68.0713C86.8599 67.7137 87.0312 67.381 87.2738 67.0735C87.5191 66.7519 87.8176 66.4736 88.1692 66.2384C88.5459 65.9865 88.9255 65.8114 89.308 65.7131C89.6932 65.6008 90.0661 65.5695 90.4265 65.6193C90.7896 65.6551 91.1291 65.7733 91.445 65.9739C91.7554 66.1662 92.0309 66.4423 92.2716 66.8023L93.4808 68.6104ZM91.3302 67.7044C91.1511 67.4365 90.9539 67.2413 90.7387 67.1187C90.5178 66.9878 90.2929 66.9141 90.0638 66.8976C89.8431 66.8756 89.6281 66.8983 89.4187 66.9656C89.2093 67.0329 89.0209 67.1226 88.8535 67.2346C88.6777 67.3521 88.5187 67.4948 88.3765 67.6626C88.2343 67.8304 88.127 68.0233 88.0547 68.2412C87.9908 68.4536 87.9772 68.6868 88.0139 68.941C88.0449 69.1867 88.1501 69.4435 88.3292 69.7114L89.2697 71.1177C89.4488 71.3856 89.6405 71.5906 89.8446 71.7328C90.0514 71.8609 90.261 71.9389 90.4734 71.9665C90.6857 71.9941 90.9007 71.9714 91.1185 71.8985C91.3362 71.8256 91.5497 71.7191 91.759 71.5792C91.9264 71.4672 92.0812 71.3273 92.2234 71.1595C92.3656 70.9917 92.4687 70.8017 92.5326 70.5893C92.6049 70.3713 92.6256 70.1395 92.5945 69.8937C92.5578 69.6396 92.4499 69.3786 92.2707 69.1108L91.3302 67.7044Z" fill="#46474E" style="fill:#46474E;fill:color(display-p3 0.2745 0.2784 0.3059);fill-opacity:1;"/>
<path d="M94.3132 59.003C94.368 59.0881 94.4429 59.1686 94.5381 59.2444C94.6333 59.3202 94.7441 59.3823 94.8706 59.4309C94.9926 59.4704 95.1256 59.4874 95.2696 59.4817C95.4137 59.4761 95.5575 59.4366 95.7011 59.3634C95.8625 59.2811 95.9879 59.1832 96.077 59.0699C96.1752 58.952 96.244 58.8321 96.2836 58.7102C96.3186 58.5793 96.3288 58.4554 96.3144 58.3384C96.3089 58.2168 96.2833 58.1112 96.2375 58.0215L97.193 57.5342C97.2665 57.7228 97.3245 57.9362 97.367 58.1746C97.4048 58.404 97.391 58.6428 97.3254 58.891C97.2688 59.1347 97.1491 59.3766 96.9664 59.6168C96.7926 59.8524 96.5219 60.064 96.154 60.2516C95.7862 60.4392 95.447 60.5387 95.1363 60.5502C94.8346 60.5571 94.564 60.5142 94.3246 60.4216C94.0941 60.3243 93.8927 60.1953 93.7202 60.0346C93.5522 59.8603 93.4224 59.6834 93.3309 59.504L94.3132 59.003ZM97.5443 66.8341L97.7646 64.8056L98.3102 60.3897L99.4002 59.8338L102.798 66.4948L101.613 67.0988L99.1563 62.2813L99.089 62.3156L98.8691 64.3779L98.33 68.7734L97.2669 69.3156L93.8696 62.6546L95.0403 62.0575L97.4905 66.8615L97.5443 66.8341Z" fill="#46474E" style="fill:#46474E;fill:color(display-p3 0.2745 0.2784 0.3059);fill-opacity:1;"/>
<path d="M112.975 54.7365L113.306 55.4649C113.801 54.9833 114.207 54.6474 114.524 54.4572C114.85 54.2647 115.146 54.1367 115.41 54.0731C116.125 53.9012 116.758 53.9716 117.31 54.2843C117.871 54.5946 118.259 55.1953 118.473 56.0863L119.01 58.3187C119.211 59.151 119.135 59.8477 118.783 60.4088C118.441 60.9675 117.873 61.3422 117.08 61.533C116.816 61.5966 116.5 61.6414 116.134 61.6674C115.769 61.7032 115.319 61.6821 114.782 61.604L115.57 64.8792L114.322 65.1795L111.873 55.0014L112.975 54.7365ZM114.496 60.4144C114.991 60.4921 115.403 60.5227 115.73 60.506C116.057 60.4894 116.373 60.4446 116.676 60.3716C116.872 60.3245 117.049 60.2614 117.206 60.1822C117.37 60.0908 117.503 59.976 117.604 59.8377C117.704 59.6895 117.765 59.5142 117.789 59.3117C117.82 59.097 117.801 58.8477 117.733 58.5638L117.232 56.4782C117.097 55.9201 116.888 55.5665 116.603 55.4174C116.317 55.2585 115.977 55.2262 115.586 55.3204C115.449 55.3534 115.293 55.4167 115.119 55.5104C114.945 55.6041 114.764 55.7149 114.577 55.8426C114.4 55.9681 114.227 56.1082 114.057 56.263C113.885 56.408 113.733 56.5532 113.602 56.6986L114.496 60.4144Z" fill="#46474E" style="fill:#46474E;fill:color(display-p3 0.2745 0.2784 0.3059);fill-opacity:1;"/>
<path d="M127.266 58.9229C126.715 59.323 126.256 59.5956 125.887 59.7407C125.528 59.8747 125.198 59.9594 124.898 59.9951C124.178 60.0806 123.58 59.9489 123.102 59.5999C122.625 59.251 122.345 58.7315 122.263 58.0415C122.214 57.6315 122.263 57.2758 122.41 56.9744C122.567 56.6718 122.77 56.4195 123.02 56.2174C123.278 56.0042 123.559 55.8441 123.86 55.7373C124.171 55.6193 124.451 55.5455 124.701 55.5158L126.876 55.2574L126.808 54.6874C126.747 54.1674 126.559 53.8246 126.245 53.6591C125.93 53.4835 125.503 53.4278 124.963 53.4919C124.703 53.5228 124.387 53.6008 124.017 53.7259C123.655 53.8399 123.303 54.0744 122.96 54.4296L122.214 53.5294C122.65 53.1024 123.106 52.8047 123.583 52.6365C124.06 52.4683 124.509 52.3593 124.929 52.3094C125.899 52.1942 126.639 52.3243 127.15 52.6997C127.67 53.0639 127.982 53.686 128.087 54.566L128.671 59.4861L127.546 59.6197L127.314 58.9475L127.266 58.9229ZM127.003 56.3225L125.038 56.5559C124.878 56.5749 124.704 56.6106 124.518 56.6632C124.34 56.7046 124.176 56.7748 124.026 56.8738C123.874 56.9628 123.753 57.0938 123.662 57.2669C123.579 57.4288 123.553 57.6347 123.583 57.8847C123.626 58.2447 123.778 58.5005 124.039 58.652C124.311 58.8023 124.636 58.8549 125.016 58.8098C125.206 58.7872 125.398 58.739 125.592 58.6653C125.795 58.5803 125.987 58.4866 126.167 58.384C126.358 58.2802 126.538 58.1727 126.707 58.0613C126.875 57.9399 127.03 57.8303 127.17 57.7325L127.003 56.3225Z" fill="#46474E" style="fill:#46474E;fill:color(display-p3 0.2745 0.2784 0.3059);fill-opacity:1;"/>
<path d="M132.584 52.776C132.715 52.645 132.866 52.5342 133.037 52.4434C133.208 52.3527 133.38 52.2822 133.551 52.2317C133.722 52.1713 133.883 52.1309 134.034 52.1107C134.195 52.0905 134.331 52.0804 134.442 52.0803C135.389 52.0799 136.104 52.3213 136.587 52.8045C137.081 53.2877 137.328 53.9623 137.328 54.8283L137.329 56.5202C137.329 56.9532 137.244 57.346 137.073 57.6986C136.912 58.041 136.685 58.3332 136.393 58.575C136.112 58.8168 135.784 59.0032 135.412 59.1343C135.039 59.2553 134.641 59.3159 134.218 59.3161C133.252 59.3165 132.496 59.0701 131.952 58.5769C131.408 58.0836 131.136 57.399 131.136 56.5228L131.135 54.3778C131.135 53.9448 131.155 53.5067 131.195 53.0636C131.245 52.6104 131.335 52.1823 131.466 51.7795C131.597 51.3665 131.783 50.9837 132.024 50.6312C132.266 50.2786 132.583 49.9814 132.976 49.7395C133.298 49.538 133.65 49.3616 134.033 49.2104C134.416 49.0592 134.783 48.913 135.135 48.7718C135.256 48.7214 135.357 48.6811 135.438 48.6509C135.528 48.6105 135.619 48.5702 135.709 48.5299C135.8 48.4896 135.896 48.4442 135.996 48.3938C136.107 48.3434 136.243 48.2829 136.404 48.2124L136.873 49.2998C136.571 49.4308 136.329 49.5367 136.148 49.6173C135.967 49.6879 135.811 49.7484 135.68 49.7988C135.559 49.8492 135.448 49.8946 135.347 49.9349C135.247 49.9652 135.131 50.0105 135 50.071C134.577 50.2524 134.225 50.4188 133.943 50.5699C133.661 50.7211 133.424 50.8924 133.233 51.0838C133.042 51.2753 132.896 51.5019 132.795 51.7638C132.695 52.0156 132.614 52.3329 132.554 52.7156L132.584 52.776ZM136.044 55.0555C136.044 54.4009 135.883 53.9427 135.561 53.6811C135.238 53.4194 134.8 53.2886 134.246 53.2889C134.035 53.2889 133.823 53.3243 133.612 53.3949C133.4 53.4655 133.204 53.5763 133.023 53.7274C132.852 53.8685 132.711 54.0549 132.6 54.2865C132.489 54.5182 132.434 54.7952 132.434 55.1174L132.435 56.341C132.435 56.6633 132.48 56.9402 132.571 57.1718C132.672 57.3933 132.803 57.5745 132.964 57.7154C133.125 57.8563 133.317 57.957 133.538 58.0173C133.76 58.0776 133.996 58.1077 134.248 58.1076C134.48 58.1075 134.701 58.0772 134.913 58.0167C135.134 57.9562 135.326 57.8554 135.487 57.7143C135.658 57.5733 135.794 57.392 135.894 57.1704C135.995 56.9387 136.045 56.6617 136.045 56.3395L136.044 55.0555Z" fill="#46474E" style="fill:#46474E;fill:color(display-p3 0.2745 0.2784 0.3059);fill-opacity:1;"/>
<path d="M146.521 57.3847C146.47 57.8147 146.34 58.1897 146.13 58.5097C145.931 58.8209 145.673 59.0744 145.356 59.2702C145.048 59.4672 144.703 59.6039 144.318 59.6802C143.934 59.7566 143.532 59.77 143.112 59.7205C142.682 59.6698 142.289 59.5626 141.933 59.3989C141.577 59.2352 141.273 59.0219 141.02 58.7588C140.777 58.4969 140.595 58.1915 140.474 57.8426C140.354 57.4837 140.32 57.0892 140.37 56.6592L140.625 54.4989C140.676 54.0689 140.801 53.6983 141 53.3871C141.21 53.0671 141.463 52.808 141.76 52.6098C142.069 52.4028 142.415 52.2612 142.799 52.1848C143.195 52.0996 143.602 52.0818 144.022 52.1313C144.473 52.1844 144.875 52.2978 145.23 52.4714C145.595 52.6363 145.899 52.8546 146.141 53.1265C146.394 53.3896 146.575 53.7 146.685 54.0577C146.796 54.4054 146.827 54.7943 146.776 55.2244L146.521 57.3847ZM145.474 55.299C145.512 54.979 145.489 54.7025 145.405 54.4695C145.322 54.2264 145.199 54.0243 145.035 53.8631C144.882 53.703 144.703 53.5806 144.5 53.4958C144.297 53.411 144.096 53.3568 143.896 53.3332C143.686 53.3085 143.472 53.3137 143.255 53.3489C143.038 53.3842 142.831 53.4612 142.635 53.58C142.448 53.6999 142.286 53.8684 142.149 54.0855C142.013 54.2925 141.926 54.5561 141.889 54.8761L141.69 56.5563C141.653 56.8764 141.665 57.1567 141.728 57.3973C141.802 57.6292 141.911 57.8245 142.055 57.9834C142.198 58.1423 142.376 58.2647 142.589 58.3507C142.802 58.4367 143.034 58.4944 143.284 58.5239C143.484 58.5475 143.692 58.5416 143.909 58.5064C144.126 58.4712 144.328 58.3936 144.515 58.2736C144.711 58.1548 144.878 57.9919 145.014 57.7849C145.151 57.5678 145.238 57.2993 145.276 56.9792L145.474 55.299Z" fill="#46474E" style="fill:#46474E;fill:color(display-p3 0.2745 0.2784 0.3059);fill-opacity:1;"/>
<path d="M153.779 55.0339L152.304 61.189L150.997 60.8756L152.472 54.7206L150.224 54.182L150.495 53.0508L156.312 54.4449L156.041 55.576L153.779 55.0339Z" fill="#46474E" style="fill:#46474E;fill:color(display-p3 0.2745 0.2784 0.3059);fill-opacity:1;"/>
<path d="M162.692 64.3915L165.277 57.3752L166.454 57.8087L163.869 64.8249L162.692 64.3915ZM161.592 61.523C161.689 61.2584 161.679 60.9809 161.56 60.6904C161.446 60.3905 161.161 60.157 160.708 59.9899L158.879 59.3162L158.085 61.4707L159.914 62.1444C160.32 62.2941 160.665 62.3192 160.949 62.2198C161.245 62.1143 161.459 61.8821 161.592 61.523ZM159.285 58.2583L161.142 58.9425C161.539 59.0887 161.868 59.2742 162.128 59.499C162.402 59.7179 162.603 59.9584 162.732 60.2205C162.87 60.486 162.942 60.7703 162.949 61.0732C162.959 61.3666 162.908 61.6645 162.797 61.9669C162.556 62.6189 162.151 63.065 161.579 63.3052C161.017 63.5489 160.339 63.5245 159.545 63.2321L156.484 62.104L159.074 55.0735L160.293 55.5227L159.285 58.2583Z" fill="#46474E" style="fill:#46474E;fill:color(display-p3 0.2745 0.2784 0.3059);fill-opacity:1;"/>
<path d="M109.122 143.357C109.332 143.693 109.48 144.061 109.566 144.461C109.661 144.856 109.677 145.256 109.615 145.66C109.555 146.05 109.409 146.432 109.175 146.805C108.941 147.178 108.607 147.5 108.171 147.772L104.128 150.296L98.2737 140.917L102.167 138.487C102.593 138.221 103.012 138.054 103.424 137.986C103.845 137.913 104.239 137.918 104.608 138.004C104.976 138.089 105.313 138.244 105.618 138.47C105.923 138.696 106.177 138.972 106.381 139.299C106.613 139.671 106.757 140.092 106.811 140.563C106.859 141.025 106.744 141.506 106.465 142.009C107.066 141.961 107.595 142.072 108.053 142.341C108.511 142.61 108.868 142.949 109.122 143.357ZM105.159 140.099C104.853 139.609 104.477 139.359 104.029 139.349C103.59 139.333 103.125 139.478 102.635 139.784L100.253 141.271L101.978 144.034L104.469 142.479C104.678 142.348 104.861 142.197 105.017 142.023C105.168 141.841 105.275 141.648 105.337 141.445C105.409 141.236 105.432 141.02 105.406 140.797C105.383 140.559 105.301 140.326 105.159 140.099ZM107.884 144.13C107.725 143.876 107.537 143.685 107.318 143.557C107.102 143.414 106.871 143.325 106.622 143.291C106.383 143.251 106.136 143.26 105.882 143.318C105.637 143.37 105.406 143.464 105.188 143.6L102.684 145.163L104.689 148.376L107.221 146.795C107.774 146.45 108.104 146.049 108.21 145.592C108.315 145.135 108.207 144.648 107.884 144.13ZM116.498 142.574L114.705 139.702L111.493 141.707L113.286 144.579L112.115 145.31L107.909 138.572L109.08 137.841L110.83 140.645L114.043 138.64L112.292 135.836L113.476 135.097L117.683 141.834L116.498 142.574ZM118.335 137.341L118.615 137.79C118.785 138.063 118.975 138.266 119.185 138.4C119.389 138.525 119.608 138.602 119.841 138.633C120.078 138.649 120.313 138.622 120.547 138.552C120.79 138.476 121.02 138.37 121.238 138.234C121.465 138.092 121.7 137.883 121.942 137.605C122.185 137.327 122.365 136.969 122.482 136.53L123.718 136.875C123.595 137.444 123.362 137.93 123.02 138.332C122.682 138.72 122.3 139.047 121.873 139.313C121.492 139.551 121.098 139.727 120.691 139.843C120.278 139.949 119.878 139.985 119.49 139.949C119.106 139.899 118.74 139.768 118.393 139.556C118.055 139.338 117.759 139.025 117.504 138.616L116.391 136.833C116.142 136.434 115.983 136.029 115.915 135.617C115.848 135.205 115.861 134.812 115.955 134.438C116.059 134.058 116.237 133.708 116.49 133.386C116.746 133.049 117.074 132.756 117.473 132.507C117.873 132.258 118.277 132.087 118.686 131.996C119.096 131.904 119.486 131.893 119.858 131.964C120.239 132.029 120.592 132.18 120.918 132.418C121.246 132.642 121.533 132.949 121.776 133.339L122.609 134.673L118.335 137.341ZM120.668 134.201C120.493 133.92 120.302 133.705 120.096 133.556C119.889 133.407 119.674 133.315 119.449 133.278C119.228 133.227 119.005 133.234 118.781 133.298C118.56 133.348 118.345 133.438 118.136 133.569C117.927 133.699 117.752 133.852 117.61 134.029C117.468 134.206 117.365 134.403 117.299 134.621C117.233 134.839 117.221 135.073 117.264 135.323C117.302 135.565 117.402 135.817 117.567 136.08L117.754 136.38L120.83 134.46L120.668 134.201ZM124.238 129.816L125.269 131.65C125.675 132.381 125.981 133.003 126.189 133.517C126.399 134.016 126.501 134.482 126.494 134.915L129.842 132.825L126.919 128.142L124.238 129.816ZM124.964 135.889C125.06 135.678 125.121 135.463 125.148 135.244C125.17 135.016 125.154 134.768 125.099 134.499C125.04 134.221 124.936 133.914 124.789 133.577C124.636 133.231 124.437 132.832 124.192 132.379L122.571 129.419L127.444 126.377L131.013 132.094L131.58 131.759L133.288 134.495L132.185 135.183L131.106 133.455L126.233 136.497L127.312 138.225L126.21 138.914L124.519 136.205L124.964 135.889ZM130.198 124.658L130.776 125.281C131.113 124.629 131.409 124.154 131.665 123.856C131.929 123.552 132.184 123.324 132.429 123.171C133.091 122.757 133.753 122.615 134.414 122.745C135.084 122.869 135.677 123.344 136.192 124.169L137.484 126.238C137.965 127.01 138.123 127.737 137.957 128.421C137.8 129.099 137.354 129.667 136.619 130.126C136.374 130.279 136.072 130.43 135.711 130.58C135.356 130.738 134.895 130.869 134.328 130.97L136.223 134.006L135.066 134.728L129.177 125.295L130.198 124.658ZM133.64 129.868C134.165 129.78 134.589 129.672 134.914 129.545C135.238 129.418 135.541 129.267 135.822 129.092C136.004 128.978 136.16 128.855 136.292 128.723C136.427 128.575 136.522 128.415 136.578 128.242C136.628 128.059 136.631 127.862 136.587 127.65C136.546 127.423 136.444 127.178 136.279 126.915L135.073 124.982C134.75 124.465 134.42 124.179 134.083 124.124C133.741 124.06 133.388 124.142 133.025 124.368C132.898 124.448 132.762 124.564 132.618 124.717C132.474 124.87 132.33 125.042 132.184 125.234C132.048 125.42 131.92 125.619 131.801 125.832C131.676 126.036 131.573 126.234 131.49 126.424L133.64 129.868ZM139.523 124.114L139.804 124.563C139.974 124.835 140.164 125.038 140.373 125.172C140.577 125.297 140.796 125.375 141.03 125.406C141.267 125.422 141.502 125.395 141.736 125.324C141.978 125.249 142.209 125.143 142.426 125.007C142.653 124.865 142.888 124.655 143.131 124.378C143.374 124.1 143.554 123.742 143.671 123.303L144.907 123.647C144.783 124.216 144.55 124.702 144.209 125.105C143.871 125.492 143.488 125.819 143.062 126.085C142.681 126.323 142.287 126.5 141.879 126.615C141.467 126.722 141.066 126.757 140.679 126.722C140.294 126.672 139.929 126.541 139.582 126.328C139.244 126.111 138.948 125.797 138.693 125.389L137.579 123.606C137.33 123.207 137.172 122.801 137.104 122.39C137.036 121.978 137.049 121.585 137.144 121.211C137.247 120.831 137.425 120.48 137.678 120.158C137.935 119.822 138.263 119.529 138.662 119.279C139.061 119.03 139.465 118.86 139.875 118.768C140.284 118.677 140.675 118.666 141.047 118.736C141.428 118.801 141.781 118.953 142.106 119.191C142.435 119.415 142.721 119.722 142.965 120.112L143.797 121.446L139.523 124.114ZM141.857 120.974C141.681 120.692 141.49 120.477 141.284 120.329C141.078 120.18 140.862 120.087 140.638 120.051C140.417 120 140.194 120.007 139.969 120.071C139.748 120.121 139.533 120.211 139.325 120.341C139.116 120.471 138.941 120.625 138.799 120.802C138.657 120.979 138.553 121.176 138.487 121.394C138.421 121.611 138.41 121.845 138.453 122.096C138.49 122.338 138.591 122.59 138.755 122.853L138.942 123.153L142.018 121.232L141.857 120.974ZM151.205 120.907L149.413 118.035L146.2 120.04L147.993 122.912L146.822 123.643L142.616 116.905L143.787 116.175L145.537 118.979L148.75 116.973L146.999 114.169L148.183 113.43L152.39 120.168L151.205 120.907ZM153.814 116.668L153.861 114.501L154.033 109.778L155.136 109.09L159.342 115.828L158.144 116.575L155.102 111.702L155.034 111.745L154.99 113.948L154.823 118.649L153.748 119.32L149.541 112.582L150.726 111.843L153.759 116.702L153.814 116.668ZM159.994 111.335L160.274 111.784C160.444 112.056 160.634 112.259 160.844 112.393C161.048 112.518 161.267 112.596 161.5 112.626C161.737 112.642 161.973 112.615 162.206 112.545C162.449 112.469 162.679 112.363 162.897 112.227C163.124 112.086 163.359 111.876 163.602 111.598C163.844 111.321 164.024 110.963 164.141 110.524L165.378 110.868C165.254 111.437 165.021 111.923 164.68 112.325C164.341 112.713 163.959 113.04 163.533 113.306C163.151 113.544 162.757 113.721 162.35 113.836C161.937 113.943 161.537 113.978 161.149 113.943C160.765 113.893 160.399 113.761 160.052 113.549C159.715 113.331 159.418 113.018 159.163 112.61L158.05 110.827C157.801 110.427 157.642 110.022 157.575 109.61C157.507 109.199 157.52 108.806 157.614 108.432C157.718 108.052 157.896 107.701 158.149 107.379C158.405 107.042 158.733 106.749 159.133 106.5C159.532 106.251 159.936 106.081 160.346 105.989C160.755 105.897 161.146 105.887 161.517 105.957C161.898 106.022 162.252 106.174 162.577 106.412C162.906 106.635 163.192 106.942 163.435 107.333L164.268 108.666L159.994 111.335ZM162.328 108.194C162.152 107.913 161.961 107.698 161.755 107.549C161.548 107.401 161.333 107.308 161.109 107.272C160.887 107.221 160.665 107.227 160.44 107.292C160.219 107.342 160.004 107.432 159.795 107.562C159.587 107.692 159.411 107.846 159.269 108.023C159.128 108.199 159.024 108.397 158.958 108.614C158.892 108.832 158.881 109.066 158.924 109.317C158.961 109.558 159.062 109.811 159.226 110.074L159.413 110.373L162.489 108.453L162.328 108.194ZM110.534 164.906L110.581 162.739L110.754 158.016L111.856 157.328L116.062 164.065L114.864 164.813L111.822 159.94L111.754 159.983L111.711 162.185L111.543 166.887L110.468 167.558L106.262 160.82L107.446 160.081L110.479 164.94L110.534 164.906ZM125.087 158.432L123.294 155.56L120.081 157.565L121.874 160.437L120.704 161.168L116.497 154.43L117.668 153.699L119.418 156.503L122.631 154.498L120.88 151.694L122.065 150.955L126.271 157.693L125.087 158.432ZM131.44 153.557C131.092 154.191 130.774 154.661 130.486 154.967C130.201 155.258 129.922 155.489 129.65 155.659C128.997 156.067 128.362 156.211 127.745 156.091C127.128 155.972 126.624 155.599 126.233 154.973C126.001 154.601 125.887 154.237 125.892 153.881C125.906 153.519 125.987 153.185 126.136 152.878C126.288 152.556 126.485 152.275 126.726 152.036C126.971 151.782 127.207 151.584 127.434 151.443L129.408 150.211L129.085 149.693C128.79 149.221 128.455 148.977 128.078 148.96C127.696 148.933 127.26 149.073 126.77 149.379C126.534 149.526 126.267 149.744 125.967 150.032C125.671 150.305 125.438 150.69 125.269 151.186L124.145 150.658C124.371 150.051 124.675 149.558 125.058 149.181C125.44 148.803 125.822 148.496 126.203 148.258C127.083 147.708 127.854 147.498 128.515 147.628C129.179 147.743 129.761 148.2 130.259 148.998L133.046 153.463L132.025 154.1L131.498 153.559L131.44 153.557ZM130.011 151.177L128.228 152.29C128.083 152.381 127.933 152.493 127.777 152.628C127.625 152.748 127.499 152.89 127.399 153.053C127.294 153.208 127.236 153.388 127.227 153.596C127.222 153.789 127.289 153.998 127.431 154.225C127.635 154.552 127.897 154.729 128.217 154.756C128.545 154.778 128.882 154.681 129.227 154.466C129.4 154.358 129.562 154.225 129.715 154.067C129.872 153.893 130.014 153.716 130.141 153.536C130.277 153.35 130.401 153.166 130.514 152.982C130.62 152.789 130.719 152.614 130.81 152.456L130.011 151.177ZM132.751 144.17C133.141 143.926 133.57 143.734 134.037 143.594C134.508 143.439 135.01 143.435 135.543 143.581L135.401 144.899C134.926 144.805 134.537 144.808 134.234 144.909C133.935 144.995 133.685 145.1 133.485 145.225C133.313 145.332 133.149 145.473 132.992 145.646C132.845 145.814 132.733 146.01 132.658 146.233C132.592 146.451 132.575 146.695 132.605 146.966C132.639 147.222 132.747 147.496 132.928 147.786L133.88 149.311C134.061 149.601 134.262 149.822 134.483 149.974C134.699 150.117 134.918 150.207 135.143 150.243C135.367 150.28 135.587 150.269 135.803 150.21C136.027 150.145 136.235 150.053 136.426 149.934C136.625 149.81 136.84 149.619 137.071 149.362C137.31 149.099 137.469 148.798 137.547 148.459L138.779 148.825C138.659 149.341 138.441 149.78 138.125 150.141C137.817 150.497 137.468 150.797 137.078 151.04C136.679 151.29 136.279 151.457 135.879 151.543C135.478 151.629 135.091 151.644 134.715 151.589C134.349 151.527 134.007 151.394 133.69 151.188C133.376 150.968 133.108 150.681 132.888 150.327L131.638 148.326C131.4 147.945 131.258 147.555 131.21 147.156C131.163 146.757 131.194 146.372 131.303 146.001C131.412 145.63 131.591 145.291 131.841 144.984C132.094 144.662 132.397 144.391 132.751 144.17ZM139.42 141.558L142.98 147.261L141.769 148.018L138.208 142.314L136.126 143.614L135.471 142.566L140.862 139.201L141.516 140.25L139.42 141.558ZM142.708 138.068L143.285 138.691C143.623 138.039 143.919 137.564 144.174 137.266C144.438 136.962 144.693 136.734 144.938 136.581C145.601 136.167 146.262 136.025 146.923 136.155C147.593 136.279 148.186 136.754 148.702 137.58L149.993 139.649C150.475 140.42 150.633 141.147 150.467 141.831C150.31 142.509 149.864 143.077 149.129 143.536C148.884 143.689 148.581 143.841 148.22 143.99C147.865 144.149 147.404 144.279 146.837 144.38L148.732 147.416L147.575 148.138L141.687 138.705L142.708 138.068ZM146.149 143.278C146.674 143.19 147.099 143.082 147.423 142.955C147.748 142.829 148.05 142.677 148.332 142.502C148.513 142.388 148.67 142.266 148.801 142.133C148.936 141.986 149.032 141.825 149.087 141.652C149.137 141.469 149.14 141.272 149.096 141.06C149.056 140.833 148.953 140.588 148.789 140.325L147.582 138.392C147.259 137.875 146.929 137.589 146.593 137.534C146.25 137.471 145.898 137.552 145.535 137.779C145.408 137.858 145.272 137.974 145.128 138.127C144.984 138.28 144.839 138.452 144.694 138.644C144.558 138.83 144.43 139.029 144.311 139.242C144.186 139.446 144.082 139.644 143.999 139.834L146.149 143.278ZM156.805 135.32C157.049 135.711 157.19 136.108 157.228 136.513C157.27 136.903 157.224 137.285 157.091 137.658C156.968 138.025 156.772 138.368 156.504 138.686C156.236 139.005 155.912 139.283 155.531 139.521C155.14 139.765 154.743 139.937 154.34 140.038C153.936 140.138 153.542 140.164 153.158 140.113C152.782 140.058 152.429 139.925 152.096 139.717C151.759 139.499 151.468 139.195 151.224 138.804L150.001 136.844C149.757 136.454 149.614 136.064 149.573 135.674C149.534 135.269 149.572 134.886 149.687 134.524C149.805 134.148 149.998 133.8 150.266 133.482C150.537 133.149 150.863 132.863 151.245 132.625C151.653 132.37 152.062 132.197 152.471 132.105C152.884 131.999 153.281 131.978 153.662 132.043C154.046 132.093 154.403 132.23 154.731 132.453C155.055 132.668 155.338 132.97 155.581 133.36L156.805 135.32ZM154.552 134.287C154.371 133.996 154.168 133.783 153.943 133.645C153.713 133.499 153.477 133.413 153.234 133.388C153.001 133.357 152.772 133.374 152.547 133.439C152.322 133.503 152.119 133.592 151.938 133.705C151.747 133.824 151.574 133.971 151.417 134.144C151.261 134.317 151.14 134.519 151.056 134.748C150.981 134.971 150.959 135.218 150.99 135.489C151.014 135.751 151.117 136.027 151.299 136.318L152.25 137.842C152.432 138.133 152.628 138.357 152.84 138.514C153.056 138.657 153.276 138.747 153.5 138.783C153.725 138.82 153.954 138.803 154.187 138.733C154.421 138.663 154.651 138.557 154.878 138.415C155.06 138.302 155.229 138.158 155.385 137.985C155.542 137.812 155.657 137.613 155.732 137.39C155.816 137.161 155.846 136.915 155.821 136.653C155.791 136.382 155.685 136.102 155.504 135.811L154.552 134.287ZM155.539 126.236C155.605 126.321 155.692 126.4 155.799 126.471C155.907 126.543 156.03 126.598 156.168 126.638C156.301 126.669 156.443 126.674 156.595 126.655C156.747 126.636 156.896 126.581 157.041 126.491C157.204 126.389 157.328 126.274 157.412 126.145C157.505 126.012 157.567 125.878 157.598 125.746C157.623 125.604 157.622 125.472 157.596 125.35C157.579 125.221 157.542 125.112 157.486 125.021L158.452 124.418C158.547 124.611 158.628 124.831 158.695 125.08C158.756 125.319 158.763 125.573 158.717 125.842C158.679 126.105 158.575 126.372 158.403 126.643C158.241 126.908 157.974 127.157 157.602 127.389C157.23 127.621 156.88 127.758 156.552 127.798C156.234 127.833 155.943 127.813 155.681 127.737C155.429 127.655 155.204 127.537 155.006 127.382C154.813 127.213 154.659 127.038 154.546 126.857L155.539 126.236ZM159.677 134.228L159.724 132.061L159.897 127.337L160.999 126.649L165.205 133.387L164.007 134.135L160.965 129.262L160.897 129.304L160.854 131.507L160.686 136.208L159.611 136.879L155.405 130.142L156.589 129.402L159.622 134.262L159.677 134.228ZM166.563 132.539L162.348 125.788L163.505 125.066L165.298 127.938L166.442 127.224C166.569 127.145 166.693 127.061 166.814 126.972C166.93 126.875 167.022 126.76 167.092 126.629C167.161 126.497 167.204 126.344 167.221 126.17C167.242 125.98 167.22 125.754 167.157 125.491L166.595 123.137L167.793 122.389L168.35 124.765C168.445 125.16 168.486 125.519 168.473 125.842C168.464 126.151 168.355 126.42 168.146 126.652C168.5 126.532 168.826 126.549 169.124 126.703C169.417 126.848 169.722 127.055 170.041 127.323L172.13 129.064L170.905 129.829L169.156 128.329C168.947 128.157 168.758 128.035 168.588 127.965C168.421 127.88 168.263 127.839 168.115 127.844C167.961 127.839 167.814 127.868 167.676 127.929C167.532 127.981 167.383 128.055 167.229 128.151L165.935 128.959L167.72 131.817L166.563 132.539ZM176.968 125.136C176.619 125.77 176.301 126.239 176.013 126.545C175.728 126.837 175.45 127.067 175.177 127.237C174.524 127.645 173.889 127.789 173.272 127.67C172.655 127.551 172.151 127.178 171.761 126.552C171.528 126.18 171.415 125.816 171.419 125.46C171.433 125.098 171.514 124.763 171.663 124.456C171.815 124.134 172.012 123.854 172.254 123.614C172.499 123.361 172.735 123.163 172.962 123.021L174.935 121.789L174.612 121.272C174.318 120.8 173.982 120.555 173.606 120.538C173.224 120.512 172.788 120.652 172.298 120.958C172.062 121.105 171.794 121.323 171.494 121.61C171.198 121.884 170.966 122.268 170.796 122.765L169.672 122.237C169.898 121.629 170.203 121.137 170.585 120.759C170.967 120.382 171.349 120.074 171.73 119.836C172.61 119.287 173.381 119.077 174.042 119.207C174.706 119.322 175.288 119.778 175.786 120.577L178.574 125.041L177.553 125.679L177.026 125.138L176.968 125.136ZM175.539 122.756L173.755 123.869C173.61 123.959 173.46 124.072 173.305 124.207C173.153 124.327 173.027 124.469 172.927 124.632C172.821 124.786 172.764 124.967 172.755 125.174C172.749 125.367 172.817 125.577 172.958 125.804C173.162 126.131 173.424 126.308 173.744 126.335C174.073 126.357 174.41 126.26 174.754 126.045C174.927 125.937 175.09 125.804 175.243 125.645C175.399 125.472 175.541 125.295 175.668 125.115C175.805 124.929 175.929 124.744 176.041 124.56C176.148 124.368 176.247 124.193 176.337 124.035L175.539 122.756ZM129.521 173.024C129.73 173.36 129.885 173.73 129.986 174.134C130.081 174.528 130.102 174.925 130.048 175.324C129.995 175.723 129.851 176.109 129.617 176.482C129.393 176.85 129.053 177.175 128.6 177.458L124.707 179.888L118.852 170.51L124.46 167.009L125.182 168.166L120.827 170.885L122.518 173.594L125.117 171.971C125.562 171.693 126.003 171.531 126.441 171.485C126.873 171.43 127.285 171.463 127.676 171.584C128.061 171.697 128.41 171.882 128.723 172.141C129.045 172.394 129.311 172.689 129.521 173.024ZM128.282 173.798C128.123 173.544 127.939 173.35 127.729 173.216C127.523 173.067 127.3 172.973 127.061 172.933C126.822 172.893 126.578 172.907 126.33 172.973C126.076 173.031 125.826 173.136 125.581 173.289L123.24 174.751L125.245 177.963L127.627 176.476C128.117 176.17 128.426 175.776 128.553 175.293C128.69 174.804 128.599 174.306 128.282 173.798ZM132.388 172.483L132.435 170.316L132.608 165.592L133.71 164.904L137.917 171.642L136.719 172.39L133.677 167.517L133.609 167.559L133.565 169.762L133.397 174.463L132.322 175.134L128.116 168.397L129.3 167.657L132.334 172.517L132.388 172.483ZM138.477 163.366L142.037 169.069L140.826 169.826L137.266 164.122L135.183 165.422L134.529 164.374L139.919 161.009L140.573 162.057L138.477 163.366ZM141.765 159.876L142.343 160.499C142.68 159.847 142.976 159.372 143.231 159.074C143.496 158.77 143.751 158.542 143.996 158.389C144.658 157.975 145.32 157.833 145.981 157.963C146.651 158.087 147.244 158.562 147.759 159.388L149.051 161.456C149.532 162.228 149.69 162.955 149.524 163.639C149.367 164.317 148.921 164.885 148.186 165.344C147.941 165.497 147.638 165.648 147.278 165.798C146.923 165.957 146.462 166.087 145.895 166.188L147.79 169.224L146.633 169.946L140.744 160.513L141.765 159.876ZM145.206 165.086C145.732 164.998 146.156 164.89 146.481 164.763C146.805 164.637 147.108 164.485 147.389 164.31C147.571 164.196 147.727 164.073 147.859 163.941C147.994 163.794 148.089 163.633 148.145 163.46C148.195 163.277 148.198 163.08 148.154 162.868C148.113 162.641 148.01 162.396 147.846 162.133L146.639 160.2C146.317 159.683 145.987 159.397 145.65 159.342C145.308 159.279 144.955 159.36 144.592 159.587C144.465 159.666 144.329 159.782 144.185 159.935C144.041 160.088 143.896 160.26 143.751 160.452C143.615 160.638 143.487 160.837 143.368 161.05C143.243 161.254 143.14 161.452 143.057 161.642L145.206 165.086ZM151.862 160.326L151.909 158.159L152.082 153.436L153.184 152.747L157.39 159.485L156.192 160.233L153.15 155.36L153.082 155.402L153.039 157.605L152.871 162.306L151.796 162.977L147.59 156.24L148.774 155.5L151.807 160.36L151.862 160.326ZM158.748 158.637L154.533 151.886L155.69 151.164L157.483 154.036L158.627 153.322C158.754 153.243 158.878 153.159 158.999 153.071C159.115 152.973 159.207 152.859 159.277 152.727C159.346 152.596 159.389 152.443 159.406 152.268C159.427 152.079 159.405 151.852 159.342 151.589L158.78 149.235L159.978 148.487L160.535 150.864C160.63 151.258 160.671 151.617 160.658 151.94C160.649 152.249 160.54 152.519 160.331 152.75C160.685 152.63 161.011 152.647 161.309 152.801C161.602 152.947 161.907 153.153 162.226 153.421L164.315 155.162L163.09 155.927L161.341 154.427C161.132 154.255 160.943 154.133 160.773 154.063C160.606 153.978 160.449 153.938 160.3 153.942C160.146 153.937 159.999 153.966 159.861 154.027C159.717 154.079 159.568 154.153 159.414 154.249L158.121 155.057L159.905 157.915L158.748 158.637ZM163.711 146.062C164.101 145.819 164.53 145.627 164.997 145.486C165.468 145.331 165.97 145.327 166.502 145.473L166.361 146.791C165.886 146.697 165.497 146.7 165.194 146.801C164.894 146.887 164.645 146.992 164.445 147.117C164.273 147.225 164.108 147.365 163.952 147.539C163.804 147.706 163.693 147.902 163.618 148.125C163.552 148.343 163.534 148.587 163.565 148.858C163.599 149.115 163.706 149.388 163.888 149.678L164.839 151.203C165.021 151.493 165.222 151.714 165.443 151.866C165.658 152.009 165.878 152.099 166.103 152.136C166.327 152.172 166.547 152.161 166.763 152.102C166.987 152.037 167.195 151.946 167.385 151.827C167.585 151.702 167.8 151.511 168.03 151.254C168.27 150.991 168.429 150.69 168.507 150.351L169.738 150.717C169.619 151.233 169.401 151.672 169.084 152.033C168.777 152.389 168.428 152.689 168.038 152.933C167.639 153.182 167.239 153.349 166.838 153.435C166.438 153.521 166.05 153.537 165.675 153.481C165.309 153.419 164.967 153.286 164.65 153.081C164.336 152.86 164.068 152.573 163.847 152.219L162.598 150.219C162.36 149.837 162.218 149.447 162.17 149.048C162.123 148.649 162.154 148.264 162.263 147.893C162.372 147.522 162.551 147.184 162.801 146.876C163.054 146.554 163.357 146.283 163.711 146.062ZM172.354 140.402C172.569 140.747 172.69 141.132 172.716 141.557C172.751 141.976 172.729 142.406 172.65 142.846C172.575 143.271 172.463 143.688 172.315 144.096C172.175 144.498 172.034 144.858 171.891 145.174C171.792 145.4 171.68 145.665 171.555 145.97C171.439 146.269 171.339 146.584 171.255 146.914C171.18 147.238 171.144 147.564 171.146 147.89C171.157 148.211 171.248 148.508 171.418 148.78L171.638 149.134L176.049 146.381L176.703 147.429L171.068 150.947L170.379 149.844C170.141 149.463 169.984 149.069 169.907 148.663C169.83 148.257 169.813 147.846 169.855 147.429C169.897 147.011 169.985 146.597 170.119 146.185C170.248 145.765 170.401 145.354 170.579 144.952C170.74 144.625 170.884 144.289 171.01 143.946C171.145 143.596 171.25 143.26 171.325 142.935C171.395 142.602 171.42 142.29 171.402 141.998C171.384 141.707 171.305 141.448 171.163 141.221C171.01 140.976 170.825 140.801 170.609 140.697C170.396 140.578 170.169 140.517 169.928 140.516C169.682 140.506 169.433 140.541 169.182 140.623C168.939 140.699 168.709 140.805 168.491 140.941C168.11 141.178 167.798 141.467 167.557 141.808C167.309 142.138 167.128 142.485 167.014 142.846L165.849 142.344C165.993 141.888 166.222 141.437 166.535 140.989C166.848 140.541 167.268 140.153 167.794 139.824C168.175 139.586 168.576 139.4 168.995 139.264C169.415 139.128 169.828 139.072 170.234 139.096C170.634 139.111 171.019 139.223 171.39 139.433C171.755 139.634 172.076 139.957 172.354 140.402ZM182.036 142.094L182.937 143.537L181.739 144.285L180.839 142.842L176.755 145.391L176.126 144.384C175.93 142.917 175.727 141.442 175.52 139.958C175.321 138.468 175.12 136.985 174.918 135.51L176.17 134.728L177.413 143.505L180.176 141.78L178.425 138.976L179.623 138.228L181.374 141.032L182.177 140.531L182.839 141.593L182.036 142.094Z" fill="#46474E" style="fill:#46474E;fill:color(display-p3 0.2745 0.2784 0.3059);fill-opacity:1;"/>
<path d="M126.165 109.178C125.808 109.401 125.278 109.572 124.494 109.593L121.732 109.658C121.447 109.667 121.043 109.92 120.916 110.168L119.638 112.624C118.887 114.078 118.008 114.232 117.548 114.201C117.095 114.165 116.243 113.882 115.718 112.335L114.904 109.966C114.823 109.716 114.484 109.412 114.221 109.352L111.504 108.723C110.146 108.409 109.767 107.652 109.663 107.23C109.559 106.807 109.535 105.96 110.573 105.04L112.502 103.339C112.683 103.179 112.838 102.783 112.812 102.546L112.52 99.4199C112.381 97.9972 112.989 97.3933 113.359 97.1617C113.73 96.9302 114.54 96.65 115.757 97.399L118.426 99.0319C118.634 99.1551 119.059 99.1898 119.282 99.0973L121.657 98.1117C122.945 97.5789 123.697 97.972 124.024 98.2553C124.351 98.5387 124.864 99.2114 124.557 100.566L123.933 103.289C123.872 103.552 123.998 103.979 124.184 104.172L125.956 105.944C127.108 107.099 126.995 107.985 126.828 108.408C126.735 108.634 126.55 108.938 126.165 109.178Z" fill="#FFBA6B" style="fill:#FFBA6B;fill:color(display-p3 1.0000 0.7294 0.4196);fill-opacity:1;"/>
<path d="M126.165 109.178C125.808 109.401 125.278 109.572 124.494 109.593L121.732 109.658C121.447 109.667 121.043 109.92 120.916 110.168L119.638 112.624C118.887 114.078 118.008 114.232 117.548 114.201C117.095 114.165 116.243 113.882 115.718 112.335L114.904 109.966C114.823 109.716 114.484 109.412 114.221 109.352L111.504 108.723C110.146 108.409 109.767 107.652 109.663 107.23C109.559 106.807 109.535 105.96 110.573 105.04L112.502 103.339C112.683 103.179 112.838 102.783 112.812 102.546L112.52 99.4199C112.381 97.9972 112.989 97.3933 113.359 97.1617C113.73 96.9302 114.54 96.65 115.757 97.399L118.426 99.0319C118.634 99.1551 119.059 99.1898 119.282 99.0973L121.657 98.1117C122.945 97.5789 123.697 97.972 124.024 98.2553C124.351 98.5387 124.864 99.2114 124.557 100.566L123.933 103.289C123.872 103.552 123.998 103.979 124.184 104.172L125.956 105.944C127.108 107.099 126.995 107.985 126.828 108.408C126.735 108.634 126.55 108.938 126.165 109.178Z" fill="url(#paint2_linear_272_3606)" style=""/>
<path d="M141.815 99.6363C141.517 99.8222 141.075 99.9653 140.422 99.9825L138.121 100.037C137.883 100.044 137.546 100.255 137.441 100.461L136.376 102.509C135.749 103.72 135.017 103.849 134.634 103.822C134.256 103.793 133.546 103.556 133.109 102.267L132.431 100.293C132.363 100.085 132.08 99.832 131.861 99.7814L129.597 99.2577C128.465 98.9958 128.15 98.365 128.063 98.0131C127.976 97.6612 127.957 96.9547 128.822 96.1883L130.428 94.7712C130.58 94.6378 130.709 94.3071 130.687 94.1098L130.444 91.5049C130.328 90.3193 130.834 89.8161 131.143 89.6231C131.452 89.4301 132.127 89.1966 133.141 89.8208L135.365 91.1816C135.539 91.2842 135.893 91.3132 136.079 91.236L138.058 90.4147C139.132 89.9707 139.758 90.2983 140.03 90.5344C140.303 90.7705 140.731 91.3312 140.474 92.4596L139.954 94.7291C139.904 94.9482 140.009 95.3043 140.164 95.4652L141.64 96.9415C142.6 97.9042 142.506 98.6422 142.367 98.9947C142.29 99.1836 142.135 99.4363 141.815 99.6363Z" fill="#FFBA6B" style="fill:#FFBA6B;fill:color(display-p3 1.0000 0.7294 0.4196);fill-opacity:1;"/>
<path d="M141.815 99.6363C141.517 99.8222 141.075 99.9653 140.422 99.9825L138.121 100.037C137.883 100.044 137.546 100.255 137.441 100.461L136.376 102.509C135.749 103.72 135.017 103.849 134.634 103.822C134.256 103.793 133.546 103.556 133.109 102.267L132.431 100.293C132.363 100.085 132.08 99.832 131.861 99.7814L129.597 99.2577C128.465 98.9958 128.15 98.365 128.063 98.0131C127.976 97.6612 127.957 96.9547 128.822 96.1883L130.428 94.7712C130.58 94.6378 130.709 94.3071 130.687 94.1098L130.444 91.5049C130.328 90.3193 130.834 89.8161 131.143 89.6231C131.452 89.4301 132.127 89.1966 133.141 89.8208L135.365 91.1816C135.539 91.2842 135.893 91.3132 136.079 91.236L138.058 90.4147C139.132 89.9707 139.758 90.2983 140.03 90.5344C140.303 90.7705 140.731 91.3312 140.474 92.4596L139.954 94.7291C139.904 94.9482 140.009 95.3043 140.164 95.4652L141.64 96.9415C142.6 97.9042 142.506 98.6422 142.367 98.9947C142.29 99.1836 142.135 99.4363 141.815 99.6363Z" fill="url(#paint3_linear_272_3606)" style=""/>
<path d="M109.44 119.843C109.142 120.029 108.7 120.172 108.047 120.19L105.746 120.244C105.508 120.251 105.171 120.462 105.066 120.668L104.001 122.716C103.374 123.927 102.642 124.056 102.259 124.029C101.881 124 101.171 123.763 100.734 122.474L100.056 120.5C99.9883 120.292 99.7054 120.039 99.4863 119.988L97.2224 119.465C96.0905 119.203 95.7748 118.572 95.6879 118.22C95.601 117.868 95.5817 117.162 96.4466 116.395L98.0535 114.978C98.2045 114.845 98.3339 114.514 98.3122 114.317L98.0685 111.712C97.9533 110.526 98.4592 110.023 98.7683 109.83C99.0774 109.637 99.7517 109.404 100.766 110.028L102.99 111.389C103.164 111.491 103.518 111.52 103.704 111.443L105.683 110.622C106.757 110.178 107.383 110.505 107.655 110.741C107.928 110.978 108.356 111.538 108.099 112.667L107.579 114.936C107.529 115.155 107.634 115.511 107.789 115.672L109.265 117.149C110.225 118.111 110.131 118.849 109.992 119.202C109.915 119.391 109.76 119.643 109.44 119.843Z" fill="#FFBA6B" style="fill:#FFBA6B;fill:color(display-p3 1.0000 0.7294 0.4196);fill-opacity:1;"/>
<path d="M109.44 119.843C109.142 120.029 108.7 120.172 108.047 120.19L105.746 120.244C105.508 120.251 105.171 120.462 105.066 120.668L104.001 122.716C103.374 123.927 102.642 124.056 102.259 124.029C101.881 124 101.171 123.763 100.734 122.474L100.056 120.5C99.9883 120.292 99.7054 120.039 99.4863 119.988L97.2224 119.465C96.0905 119.203 95.7748 118.572 95.6879 118.22C95.601 117.868 95.5817 117.162 96.4466 116.395L98.0535 114.978C98.2045 114.845 98.3339 114.514 98.3122 114.317L98.0685 111.712C97.9533 110.526 98.4592 110.023 98.7683 109.83C99.0774 109.637 99.7517 109.404 100.766 110.028L102.99 111.389C103.164 111.491 103.518 111.52 103.704 111.443L105.683 110.622C106.757 110.178 107.383 110.505 107.655 110.741C107.928 110.978 108.356 111.538 108.099 112.667L107.579 114.936C107.529 115.155 107.634 115.511 107.789 115.672L109.265 117.149C110.225 118.111 110.131 118.849 109.992 119.202C109.915 119.391 109.76 119.643 109.44 119.843Z" fill="url(#paint4_linear_272_3606)" style=""/>
</g>
<defs>
<linearGradient id="paint0_linear_272_3606" x1="322.082" y1="232.062" x2="322.082" y2="422.078" gradientUnits="userSpaceOnUse">
<stop stop-color="#FFD66B" style="stop-color:#FFD66B;stop-color:color(display-p3 1.0000 0.8392 0.4196);stop-opacity:1;"/>
<stop offset="1" stop-color="#FFA469" style="stop-color:#FFA469;stop-color:color(display-p3 1.0000 0.6431 0.4118);stop-opacity:1;"/>
</linearGradient>
<linearGradient id="paint1_linear_272_3606" x1="165.292" y1="47.5469" x2="165.292" y2="180.319" gradientUnits="userSpaceOnUse">
<stop stop-color="#FFD66B" style="stop-color:#FFD66B;stop-color:color(display-p3 1.0000 0.8392 0.4196);stop-opacity:1;"/>
<stop offset="1" stop-color="#FFA469" style="stop-color:#FFA469;stop-color:color(display-p3 1.0000 0.6431 0.4118);stop-opacity:1;"/>
</linearGradient>
<linearGradient id="paint2_linear_272_3606" x1="113.357" y1="97.1631" x2="122.346" y2="111.562" gradientUnits="userSpaceOnUse">
<stop stop-color="#FFD66B" style="stop-color:#FFD66B;stop-color:color(display-p3 1.0000 0.8392 0.4196);stop-opacity:1;"/>
<stop offset="1" stop-color="#FFA469" style="stop-color:#FFA469;stop-color:color(display-p3 1.0000 0.6431 0.4118);stop-opacity:1;"/>
</linearGradient>
<linearGradient id="paint3_linear_272_3606" x1="131.141" y1="89.6242" x2="138.632" y2="101.623" gradientUnits="userSpaceOnUse">
<stop stop-color="#FFD66B" style="stop-color:#FFD66B;stop-color:color(display-p3 1.0000 0.8392 0.4196);stop-opacity:1;"/>
<stop offset="1" stop-color="#FFA469" style="stop-color:#FFA469;stop-color:color(display-p3 1.0000 0.6431 0.4118);stop-opacity:1;"/>
</linearGradient>
<linearGradient id="paint4_linear_272_3606" x1="98.7665" y1="109.831" x2="106.257" y2="121.83" gradientUnits="userSpaceOnUse">
<stop stop-color="#FFD66B" style="stop-color:#FFD66B;stop-color:color(display-p3 1.0000 0.8392 0.4196);stop-opacity:1;"/>
<stop offset="1" stop-color="#FFA469" style="stop-color:#FFA469;stop-color:color(display-p3 1.0000 0.6431 0.4118);stop-opacity:1;"/>
</linearGradient>
<clipPath id="clip0_272_3606">
<rect width="204.131" height="206.451" fill="white" style="fill:white;fill-opacity:1;" transform="translate(267.77 190.613) rotate(157.412)"/>
</clipPath>
</defs>
</svg>
