<svg width="187" height="140" viewBox="0 0 187 140" fill="none" xmlns="http://www.w3.org/2000/svg">
<g clip-path="url(#clip0_272_4067)">
<path d="M21.2891 46.9412C21.2891 46.9412 24.1772 58.77 37.1049 56.0621C37.1049 56.0621 33.3573 44.0812 21.2891 46.9412Z" fill="#717278" style="fill:#717278;fill:color(display-p3 0.4431 0.4471 0.4706);fill-opacity:1;"/>
<path d="M27.5352 64.8479C27.5352 64.8479 33.4693 73.6955 43.2749 67.5782C43.2749 67.5782 36.5885 58.8658 27.5352 64.8479Z" fill="#717278" style="fill:#717278;fill:color(display-p3 0.4431 0.4471 0.4706);fill-opacity:1;"/>
<path d="M36.9922 78.3502C36.9922 78.3502 45.651 85.7157 53.9436 76.5892C53.9436 76.5892 44.5521 69.5815 36.9922 78.3502Z" fill="#717278" style="fill:#717278;fill:color(display-p3 0.4431 0.4471 0.4706);fill-opacity:1;"/>
<path d="M45.9451 49.9531C45.9451 49.9531 36.3423 54.5685 41.0028 65.1434C41.6875 64.7602 50.4845 59.5644 45.9451 49.9531Z" fill="#717278" style="fill:#717278;fill:color(display-p3 0.4431 0.4471 0.4706);fill-opacity:1;"/>
<path d="M48.0262 62.7109C48.0262 62.7109 43.2361 69.1776 50.3734 74.7313C50.8186 74.0382 55.0001 67.8617 48.0262 62.7109Z" fill="#717278" style="fill:#717278;fill:color(display-p3 0.4431 0.4471 0.4706);fill-opacity:1;"/>
<path d="M25.8112 33.3281C25.8112 33.3281 24.7095 42.9168 35.0674 44.4525C35.0674 44.4525 35.5718 34.5172 25.8112 33.3281Z" fill="#717278" style="fill:#717278;fill:color(display-p3 0.4431 0.4471 0.4706);fill-opacity:1;"/>
<path d="M40.6705 23.625C40.6705 23.625 32.2935 27.1246 35.9311 36.9415C35.9311 36.9415 44.3251 32.7516 40.6705 23.625Z" fill="#717278" style="fill:#717278;fill:color(display-p3 0.4431 0.4471 0.4706);fill-opacity:1;"/>
<path d="M45.7232 37.625C45.7232 37.625 34.6327 38.8902 35.6076 50.9613C35.6076 50.9613 46.9348 48.9325 45.7232 37.625Z" fill="#717278" style="fill:#717278;fill:color(display-p3 0.4431 0.4471 0.4706);fill-opacity:1;"/>
<path d="M61.5034 79.7665C61.5034 79.7665 61.4555 79.7496 61.3625 79.7242C61.2639 79.6988 61.1258 79.6622 60.9483 79.6143C60.582 79.5185 60.041 79.3917 59.3591 79.1663C57.9897 78.7465 56.0314 78.0336 53.7744 76.8163C51.5174 75.6075 48.9956 73.8464 46.5413 71.5134C45.3128 70.3468 44.1124 69.0338 42.9685 67.5883C42.6923 67.2192 42.4162 66.8472 42.1372 66.4697C41.9963 66.2809 41.8583 66.0921 41.7174 65.9033C41.5821 65.7117 41.4582 65.5088 41.3257 65.3116C41.0665 64.9143 40.8044 64.5113 40.5424 64.1084C40.3029 63.6886 40.0634 63.2687 39.8182 62.8433C39.6971 62.6319 39.5787 62.4178 39.4576 62.2065C39.3505 61.9895 39.2434 61.7725 39.1364 61.5556C38.925 61.1216 38.7081 60.6962 38.5024 60.265C38.3164 59.8283 38.1333 59.3916 37.9501 58.9604C37.8599 58.7435 37.7641 58.5322 37.6796 58.3152C37.6007 58.0954 37.5218 57.8784 37.4457 57.6615C37.2908 57.2275 37.1358 56.7993 36.9836 56.371C36.854 55.937 36.7272 55.5087 36.6032 55.0833C36.5412 54.8719 36.4793 54.6606 36.4144 54.4493C36.3525 54.2408 36.3102 54.0238 36.2567 53.8153C36.158 53.3926 36.0594 52.9756 35.9636 52.5642C35.2366 49.2534 35.076 46.1821 35.138 43.6264C35.1972 41.0623 35.5691 39.011 35.8115 37.6021C35.9636 36.9005 36.096 36.3624 36.1778 35.9932C36.2172 35.8129 36.2482 35.672 36.2707 35.5734C36.2905 35.4776 36.2989 35.4297 36.2989 35.4297C36.2989 35.4297 36.282 35.4776 36.2595 35.5706C36.2341 35.6692 36.2003 35.8073 36.1524 35.9876C36.0622 36.3539 35.9213 36.8949 35.7636 37.5937C35.5043 39.0026 35.1183 41.0539 35.0479 43.6264C34.9746 46.1906 35.1267 49.2703 35.8481 52.5924C35.9439 53.0066 36.0425 53.4236 36.1411 53.8491C36.1947 54.0604 36.2341 54.2746 36.2961 54.4859C36.3581 54.6972 36.4201 54.9086 36.4821 55.1227C36.606 55.5482 36.7357 55.9793 36.8625 56.416C37.0146 56.8443 37.1696 57.2755 37.3246 57.7094C37.4035 57.9263 37.4795 58.1461 37.5584 58.3659C37.643 58.5829 37.7388 58.797 37.8289 59.014C38.0121 59.4479 38.1981 59.8847 38.384 60.3242C38.5897 60.7553 38.8067 61.1836 39.018 61.6204C39.1251 61.8373 39.2322 62.0543 39.3392 62.2741C39.4604 62.4854 39.5787 62.6996 39.6999 62.9109C39.9422 63.3364 40.1846 63.759 40.4241 64.1789C40.6889 64.5846 40.951 64.9875 41.2102 65.3877C41.3426 65.5877 41.4666 65.7906 41.6019 65.9822C41.7427 66.1738 41.8836 66.3626 42.0245 66.5514C42.3063 66.929 42.5852 67.3009 42.8614 67.6728C44.011 69.1211 45.2198 70.437 46.4512 71.6035C48.9167 73.9423 51.4554 75.6977 53.7237 76.9009C55.9919 78.1125 57.9615 78.8141 59.3338 79.2198C60.0185 79.4368 60.5623 79.5551 60.9314 79.6453C61.1117 79.6876 61.2498 79.7214 61.3512 79.7439C61.447 79.7665 61.4949 79.7749 61.4949 79.7749L61.5034 79.7665Z" fill="#717278" style="fill:#717278;fill:color(display-p3 0.4431 0.4471 0.4706);fill-opacity:1;"/>
<path d="M49.0675 67.9197C49.0675 67.9197 49.0619 68.0183 49.076 68.1902C49.0901 68.3649 49.1154 68.6157 49.1521 68.9228C49.2281 69.5399 49.3549 70.3908 49.5381 71.3235C49.7212 72.2562 49.9213 73.093 50.0847 73.6932C50.1664 73.9947 50.2369 74.2342 50.2876 74.4004C50.3411 74.5667 50.3721 74.6569 50.3806 74.654C50.389 74.6512 50.3721 74.5554 50.3355 74.3864C50.2904 74.1891 50.2369 73.9496 50.1692 73.6678C50.0284 73.062 49.8424 72.2252 49.6592 71.2953C49.4789 70.3655 49.3352 69.5202 49.2394 68.9059C49.1943 68.6213 49.1549 68.379 49.1239 68.1789C49.0957 68.007 49.076 67.9141 49.0675 67.9141V67.9197Z" fill="#717278" style="fill:#717278;fill:color(display-p3 0.4431 0.4471 0.4706);fill-opacity:1;"/>
<path d="M46.7031 77.5309C46.7031 77.5309 46.8017 77.5309 46.9764 77.5055C47.1765 77.4774 47.4216 77.4407 47.7119 77.3985C48.3318 77.3055 49.1912 77.1843 50.1407 77.0716C51.0931 76.9617 51.9553 76.88 52.5809 76.8265C52.8711 76.8011 53.1191 76.7786 53.3219 76.7617C53.4966 76.7447 53.5924 76.7307 53.5924 76.7222C53.5924 76.7138 53.4938 76.7109 53.3191 76.7109C53.1444 76.7109 52.888 76.7222 52.5752 76.7363C51.9469 76.7673 51.0819 76.8321 50.1266 76.9448C49.1743 77.0575 48.3149 77.1928 47.6978 77.3083C47.3878 77.3646 47.1399 77.4154 46.968 77.4548C46.7961 77.4943 46.7031 77.5196 46.7031 77.5281V77.5309Z" fill="#717278" style="fill:#717278;fill:color(display-p3 0.4431 0.4471 0.4706);fill-opacity:1;"/>
<path d="M35.0312 65.7918C35.0312 65.7918 35.144 65.8285 35.3525 65.8679C35.5835 65.913 35.8794 65.9722 36.2288 66.0398C36.9698 66.1863 37.9899 66.4005 39.1085 66.671C40.2271 66.9415 41.233 67.2204 41.9572 67.4289C42.301 67.5276 42.5912 67.6121 42.8166 67.6769C43.0195 67.7361 43.1322 67.7614 43.135 67.7558C43.1378 67.7473 43.0279 67.7051 42.8307 67.6318C42.6306 67.5585 42.3432 67.4599 41.9826 67.3444C41.2612 67.1133 40.2581 66.8203 39.1367 66.5498C38.0152 66.2793 36.9896 66.0792 36.2429 65.9553C35.8709 65.8933 35.5666 65.8482 35.3581 65.82C35.1496 65.7947 35.0312 65.7834 35.0312 65.7918Z" fill="#717278" style="fill:#717278;fill:color(display-p3 0.4431 0.4471 0.4706);fill-opacity:1;"/>
<path d="M43.5096 56.7266C43.5096 56.7266 43.4335 56.828 43.3123 57.0196C43.1912 57.2112 43.0277 57.4986 42.8418 57.8621C42.467 58.5834 42.0162 59.6232 41.6724 60.8179C41.3286 62.0154 41.1596 63.134 41.0948 63.9456C41.061 64.3513 41.0469 64.681 41.0469 64.9092C41.0469 65.1374 41.0469 65.2614 41.0581 65.2642C41.0694 65.2671 41.0807 65.1403 41.0948 64.912C41.1089 64.6866 41.137 64.3598 41.1821 63.9568C41.2695 63.151 41.4526 62.0436 41.7936 60.8545C42.1373 59.6683 42.5684 58.6313 42.9235 57.9015C43.0982 57.5381 43.2503 57.245 43.3574 57.045C43.4645 56.8449 43.518 56.7322 43.5124 56.7266H43.5096Z" fill="#717278" style="fill:#717278;fill:color(display-p3 0.4431 0.4471 0.4706);fill-opacity:1;"/>
<path d="M30.6445 51.204C30.6445 51.204 30.7319 51.2745 30.9009 51.3844C31.0897 51.5083 31.3292 51.6633 31.611 51.8493C32.2084 52.2438 33.017 52.8158 33.8652 53.5005C34.7133 54.188 35.4375 54.8614 35.9503 55.363C36.1898 55.6025 36.3927 55.8025 36.5505 55.9632C36.6914 56.1069 36.7731 56.1801 36.7787 56.1745C36.7843 56.1689 36.7167 56.0815 36.5871 55.9293C36.4575 55.7772 36.2631 55.5602 36.0123 55.301C35.5164 54.7825 34.7978 54.095 33.9441 53.4019C33.0903 52.7115 32.2704 52.1508 31.6589 51.7732C31.3546 51.5844 31.1038 51.4379 30.9263 51.3421C30.7488 51.2463 30.6502 51.1956 30.6445 51.204Z" fill="#717278" style="fill:#717278;fill:color(display-p3 0.4431 0.4471 0.4706);fill-opacity:1;"/>
<path d="M42.7522 42.4531C42.7522 42.4531 42.7184 42.4728 42.662 42.5236C42.5944 42.5827 42.5155 42.656 42.4169 42.7405C42.2056 42.9321 41.9069 43.2139 41.5462 43.5718C40.8221 44.2846 39.85 45.3018 38.844 46.4825C37.8381 47.6631 36.9872 48.7845 36.3983 49.6129C36.1052 50.0271 35.8713 50.3681 35.7164 50.6048C35.6459 50.7147 35.5868 50.8048 35.5389 50.8809C35.4994 50.9457 35.4797 50.9795 35.4853 50.9824C35.4881 50.9824 35.5135 50.9542 35.5614 50.895C35.6149 50.8217 35.6797 50.7372 35.7558 50.633C35.9362 50.3878 36.1757 50.061 36.4687 49.6665C37.0745 48.8522 37.9339 47.7448 38.937 46.5642C39.9401 45.3864 40.8982 44.3635 41.6054 43.6366C41.9492 43.2844 42.2338 42.9969 42.4479 42.78C42.5381 42.687 42.6141 42.6109 42.6761 42.5461C42.7269 42.4926 42.7522 42.4616 42.7494 42.4588L42.7522 42.4531Z" fill="#717278" style="fill:#717278;fill:color(display-p3 0.4431 0.4471 0.4706);fill-opacity:1;"/>
<path d="M29.3984 36.4512C29.3984 36.4512 29.4773 36.5639 29.6379 36.7499C29.8098 36.9556 30.0381 37.2232 30.3114 37.5445C30.8749 38.2179 31.6329 39.1675 32.4134 40.2551C33.1911 41.3456 33.8448 42.3712 34.3013 43.1207C34.5182 43.4842 34.6986 43.7829 34.8366 44.0139C34.9606 44.2253 35.0339 44.3408 35.0423 44.3352C35.0508 44.3323 34.9916 44.2084 34.8789 43.9886C34.7662 43.7688 34.5971 43.456 34.3773 43.0728C33.9406 42.3092 33.2982 41.2723 32.5148 40.179C31.7315 39.0857 30.9595 38.1418 30.379 37.4825C30.0888 37.1528 29.8465 36.8907 29.6746 36.7132C29.5027 36.5357 29.4069 36.4399 29.3984 36.4455V36.4512Z" fill="#717278" style="fill:#717278;fill:color(display-p3 0.4431 0.4471 0.4706);fill-opacity:1;"/>
<path d="M39.4206 27.3416C39.4206 27.3416 39.3502 27.4627 39.2459 27.6938C39.1417 27.922 38.9952 28.2573 38.8205 28.6715C38.4683 29.5028 38.0033 30.658 37.5243 31.9485C37.0481 33.2391 36.648 34.4197 36.3747 35.2791C36.2366 35.7074 36.1324 36.0568 36.0619 36.2991C35.9915 36.5414 35.9577 36.6767 35.9661 36.6795C35.9746 36.6823 36.0253 36.5527 36.1098 36.3132C36.2 36.054 36.3183 35.7158 36.462 35.3044C36.7579 34.4535 37.1693 33.2785 37.6455 31.988C38.1217 30.7003 38.5753 29.5394 38.905 28.6997C39.0628 28.2968 39.1952 27.9615 39.2938 27.7051C39.384 27.4712 39.4319 27.3388 39.4235 27.3359L39.4206 27.3416Z" fill="#717278" style="fill:#717278;fill:color(display-p3 0.4431 0.4471 0.4706);fill-opacity:1;"/>
<path d="M173.121 46.9412C173.121 46.9412 170.232 58.77 157.305 56.0621C157.305 56.0621 161.052 44.0812 173.121 46.9412Z" fill="#717278" style="fill:#717278;fill:color(display-p3 0.4431 0.4471 0.4706);fill-opacity:1;"/>
<path d="M166.865 64.8479C166.865 64.8479 160.931 73.6955 151.125 67.5782C151.125 67.5782 157.811 58.8658 166.865 64.8479Z" fill="#717278" style="fill:#717278;fill:color(display-p3 0.4431 0.4471 0.4706);fill-opacity:1;"/>
<path d="M157.412 78.3502C157.412 78.3502 148.753 85.7157 140.461 76.5892C140.461 76.5892 149.852 69.5815 157.412 78.3502Z" fill="#717278" style="fill:#717278;fill:color(display-p3 0.4431 0.4471 0.4706);fill-opacity:1;"/>
<path d="M148.463 49.9531C148.463 49.9531 158.066 54.5685 153.405 65.1434C152.721 64.7602 143.924 59.5644 148.463 49.9531Z" fill="#717278" style="fill:#717278;fill:color(display-p3 0.4431 0.4471 0.4706);fill-opacity:1;"/>
<path d="M146.374 62.7109C146.374 62.7109 151.164 69.1776 144.027 74.7341C143.582 74.041 139.4 67.8645 146.374 62.7109Z" fill="#717278" style="fill:#717278;fill:color(display-p3 0.4431 0.4471 0.4706);fill-opacity:1;"/>
<path d="M168.589 33.3281C168.589 33.3281 169.69 42.9168 159.333 44.4525C159.333 44.4525 158.828 34.5172 168.589 33.3281Z" fill="#717278" style="fill:#717278;fill:color(display-p3 0.4431 0.4471 0.4706);fill-opacity:1;"/>
<path d="M153.738 23.625C153.738 23.625 162.115 27.1246 158.477 36.9415C158.477 36.9415 150.083 32.7516 153.738 23.625Z" fill="#717278" style="fill:#717278;fill:color(display-p3 0.4431 0.4471 0.4706);fill-opacity:1;"/>
<path d="M148.681 37.625C148.681 37.625 159.771 38.8902 158.796 50.9613C158.796 50.9613 147.469 48.9325 148.681 37.625Z" fill="#717278" style="fill:#717278;fill:color(display-p3 0.4431 0.4471 0.4706);fill-opacity:1;"/>
<path d="M132.898 79.7665C132.898 79.7665 132.946 79.7496 133.039 79.7242C133.138 79.6988 133.276 79.6622 133.454 79.6143C133.82 79.5185 134.361 79.3917 135.043 79.1663C136.412 78.7465 138.37 78.0336 140.627 76.8163C142.884 75.6075 145.406 73.8464 147.861 71.5134C149.089 70.3468 150.289 69.0338 151.433 67.5883C151.71 67.2192 151.986 66.8472 152.265 66.4697C152.403 66.2809 152.544 66.0921 152.684 65.9033C152.82 65.7117 152.944 65.5088 153.076 65.3116C153.335 64.9143 153.597 64.5113 153.859 64.1084C154.099 63.6886 154.338 63.2687 154.584 62.8433C154.705 62.6319 154.823 62.4178 154.944 62.2065C155.051 61.9895 155.158 61.7725 155.265 61.5556C155.477 61.1216 155.694 60.6962 155.899 60.265C156.085 59.8283 156.269 59.3916 156.452 58.9604C156.542 58.7435 156.638 58.5322 156.722 58.3152C156.801 58.0954 156.877 57.8784 156.956 57.6615C157.111 57.2276 157.266 56.7964 157.418 56.371C157.545 55.937 157.675 55.5087 157.799 55.0833C157.861 54.8719 157.925 54.6606 157.987 54.4493C158.052 54.2408 158.092 54.0238 158.142 53.8153C158.241 53.3926 158.34 52.9756 158.438 52.5642C159.165 49.2534 159.326 46.1821 159.264 43.6264C159.205 41.0623 158.833 39.011 158.59 37.6021C158.438 36.9005 158.306 36.3624 158.224 35.9932C158.185 35.8129 158.154 35.672 158.131 35.5734C158.111 35.4776 158.103 35.4297 158.103 35.4297C158.103 35.4297 158.12 35.4776 158.142 35.5706C158.168 35.6692 158.202 35.8073 158.249 35.9876C158.34 36.3539 158.48 36.8949 158.638 37.5937C158.898 39.0026 159.284 41.0539 159.354 43.6264C159.427 46.1905 159.278 49.2703 158.554 52.5924C158.458 53.0066 158.359 53.4236 158.261 53.8491C158.207 54.0604 158.168 54.2746 158.106 54.4859C158.044 54.6972 157.982 54.9086 157.92 55.1227C157.793 55.5482 157.666 55.9793 157.539 56.416C157.387 56.8443 157.232 57.2755 157.077 57.7094C156.998 57.9263 156.922 58.1461 156.843 58.3659C156.759 58.5829 156.663 58.797 156.573 59.014C156.39 59.4479 156.204 59.8847 156.018 60.3242C155.812 60.7553 155.595 61.1836 155.384 61.6204C155.277 61.8373 155.17 62.0543 155.063 62.2741C154.941 62.4854 154.823 62.6996 154.702 62.9109C154.46 63.3364 154.217 63.759 153.978 64.1789C153.713 64.5846 153.451 64.9875 153.189 65.3877C153.056 65.5877 152.932 65.7906 152.797 65.9822C152.656 66.1738 152.515 66.3626 152.374 66.5514C152.093 66.929 151.814 67.3009 151.538 67.6728C150.388 69.1211 149.179 70.437 147.948 71.6064C145.482 73.9451 142.944 75.7005 140.675 76.9037C138.407 78.1153 136.437 78.8169 135.065 79.2227C134.381 79.4396 133.837 79.558 133.468 79.6481C133.287 79.6904 133.149 79.7242 133.051 79.7467C132.955 79.7693 132.907 79.7749 132.907 79.7749L132.898 79.7665Z" fill="#717278" style="fill:#717278;fill:color(display-p3 0.4431 0.4471 0.4706);fill-opacity:1;"/>
<path d="M145.343 67.9119C145.343 67.9119 145.348 68.0105 145.334 68.1824C145.32 68.3571 145.295 68.6079 145.258 68.915C145.182 69.5321 145.055 70.383 144.872 71.3157C144.689 72.2484 144.489 73.0852 144.325 73.6854C144.244 73.9869 144.173 74.2264 144.122 74.3926C144.069 74.5589 144.038 74.649 144.029 74.6462C144.021 74.6434 144.038 74.5476 144.077 74.3785C144.122 74.1813 144.179 73.9418 144.241 73.66C144.382 73.0542 144.568 72.2174 144.751 71.2875C144.931 70.3577 145.072 69.5123 145.171 68.8981C145.216 68.6135 145.255 68.3712 145.289 68.1711C145.317 67.9992 145.337 67.9062 145.345 67.9062L145.343 67.9119Z" fill="#717278" style="fill:#717278;fill:color(display-p3 0.4431 0.4471 0.4706);fill-opacity:1;"/>
<path d="M147.698 77.5309C147.698 77.5309 147.599 77.5309 147.425 77.5055C147.225 77.4774 146.979 77.4407 146.689 77.3985C146.069 77.3055 145.21 77.1843 144.26 77.0716C143.308 76.9617 142.446 76.88 141.82 76.8265C141.53 76.8011 141.282 76.7786 141.079 76.7617C140.904 76.7448 140.809 76.7307 140.809 76.7222C140.809 76.7138 140.907 76.7109 141.082 76.7109C141.257 76.7109 141.513 76.7222 141.826 76.7363C142.454 76.7673 143.319 76.8321 144.274 76.9448C145.227 77.0575 146.086 77.1928 146.703 77.3083C147.013 77.3647 147.261 77.4154 147.433 77.4548C147.605 77.4943 147.698 77.5196 147.698 77.5281V77.5309Z" fill="#717278" style="fill:#717278;fill:color(display-p3 0.4431 0.4471 0.4706);fill-opacity:1;"/>
<path d="M159.376 65.784C159.376 65.784 159.263 65.8207 159.055 65.8601C158.824 65.9052 158.528 65.9644 158.179 66.032C157.438 66.1785 156.418 66.3927 155.299 66.6632C154.18 66.9337 153.174 67.2126 152.45 67.4211C152.106 67.5197 151.819 67.6043 151.591 67.6691C151.388 67.7283 151.275 67.7536 151.27 67.748C151.267 67.7395 151.377 67.6973 151.574 67.624C151.771 67.5507 152.061 67.4521 152.422 67.3366C153.143 67.1055 154.146 66.8125 155.268 66.542C156.389 66.2715 157.415 66.0714 158.162 65.9475C158.534 65.8855 158.838 65.8404 159.046 65.8122C159.255 65.7868 159.373 65.7756 159.373 65.784H159.376Z" fill="#717278" style="fill:#717278;fill:color(display-p3 0.4431 0.4471 0.4706);fill-opacity:1;"/>
<path d="M150.897 56.7109C150.897 56.7109 150.973 56.8124 151.094 57.004C151.215 57.1956 151.378 57.483 151.564 57.8465C151.939 58.5678 152.39 59.6076 152.734 60.8023C153.078 61.9998 153.247 63.1184 153.311 63.9299C153.345 64.3357 153.359 64.6654 153.359 64.8936C153.359 65.1218 153.359 65.2458 153.348 65.2486C153.337 65.2514 153.326 65.1246 153.309 64.8964C153.295 64.671 153.266 64.3441 153.221 63.9412C153.134 63.1353 152.951 62.028 152.61 60.8389C152.266 59.6526 151.835 58.6157 151.48 57.8859C151.305 57.5224 151.153 57.2294 151.046 57.0293C150.939 56.8293 150.885 56.7166 150.891 56.7109H150.897Z" fill="#717278" style="fill:#717278;fill:color(display-p3 0.4431 0.4471 0.4706);fill-opacity:1;"/>
<path d="M163.767 51.199C163.767 51.199 163.68 51.2695 163.511 51.3794C163.322 51.5034 163.083 51.6583 162.801 51.8443C162.203 52.2388 161.395 52.8108 160.547 53.4955C159.699 54.183 158.974 54.8564 158.462 55.358C158.222 55.5975 158.019 55.7976 157.861 55.9553C157.72 56.0991 157.639 56.1723 157.633 56.1667C157.628 56.161 157.695 56.0737 157.825 55.9215C157.954 55.7694 158.149 55.5524 158.4 55.2932C158.895 54.7747 159.614 54.0872 160.468 53.394C161.322 52.7037 162.141 52.143 162.753 51.7654C163.057 51.5766 163.311 51.4301 163.486 51.3343C163.663 51.2385 163.762 51.1878 163.767 51.1962V51.199Z" fill="#717278" style="fill:#717278;fill:color(display-p3 0.4431 0.4471 0.4706);fill-opacity:1;"/>
<path d="M151.654 42.4453C151.654 42.4453 151.688 42.465 151.744 42.5158C151.812 42.5749 151.891 42.6482 151.99 42.7327C152.201 42.9243 152.5 43.2061 152.86 43.5639C153.584 44.2768 154.557 45.294 155.562 46.4746C156.568 47.6553 157.419 48.7767 158.005 49.6051C158.301 50.0193 158.532 50.3603 158.687 50.597C158.758 50.7069 158.814 50.797 158.865 50.8731C158.904 50.9379 158.924 50.9717 158.918 50.9745C158.916 50.9745 158.89 50.9464 158.842 50.8872C158.789 50.8139 158.724 50.7294 158.645 50.6251C158.465 50.38 158.225 50.0531 157.932 49.6587C157.326 48.8443 156.467 47.737 155.464 46.5564C154.461 45.3786 153.503 44.3557 152.793 43.6288C152.449 43.2765 152.164 42.9891 151.95 42.7722C151.86 42.6792 151.784 42.6031 151.722 42.5383C151.671 42.4848 151.646 42.4538 151.649 42.4509L151.654 42.4453Z" fill="#717278" style="fill:#717278;fill:color(display-p3 0.4431 0.4471 0.4706);fill-opacity:1;"/>
<path d="M165.012 36.4512C165.012 36.4512 164.933 36.5639 164.772 36.7499C164.6 36.9556 164.372 37.2232 164.099 37.5445C163.535 38.2179 162.777 39.1675 161.997 40.2551C161.216 41.3456 160.566 42.3712 160.109 43.1207C159.892 43.4842 159.712 43.7829 159.574 44.0139C159.447 44.2253 159.376 44.3408 159.368 44.3352C159.36 44.3323 159.419 44.2084 159.531 43.9886C159.644 43.7688 159.813 43.456 160.033 43.0728C160.47 42.3092 161.112 41.2723 161.895 40.179C162.679 39.0857 163.451 38.1418 164.031 37.4825C164.322 37.1528 164.564 36.8907 164.736 36.7132C164.908 36.5357 165.003 36.4399 165.009 36.4455L165.012 36.4512Z" fill="#717278" style="fill:#717278;fill:color(display-p3 0.4431 0.4471 0.4706);fill-opacity:1;"/>
<path d="M154.978 27.3338C154.978 27.3338 155.048 27.4549 155.152 27.686C155.256 27.9142 155.403 28.2495 155.581 28.6637C155.933 29.4949 156.398 30.6502 156.877 31.9407C157.356 33.2312 157.753 34.4119 158.026 35.2713C158.164 35.6996 158.269 36.049 158.339 36.2913C158.409 36.5336 158.443 36.6689 158.435 36.6717C158.426 36.6717 158.376 36.5449 158.291 36.3054C158.201 36.0461 158.083 35.708 157.939 35.2966C157.643 34.4457 157.232 33.2707 156.755 31.9802C156.279 30.6925 155.826 29.5316 155.496 28.6919C155.338 28.289 155.206 27.9537 155.107 27.6972C155.017 27.4634 154.969 27.3309 154.978 27.3281V27.3338Z" fill="#717278" style="fill:#717278;fill:color(display-p3 0.4431 0.4471 0.4706);fill-opacity:1;"/>
<path d="M102.483 71.1916L97.6653 70.0755L97.671 70.0124L97.541 70.043L97.4167 70.0105L97.411 70.0736L92.6026 71.1849C92.6026 71.1849 91.9755 88.3157 88.3435 95.153L97.4193 95.1503L97.6736 95.1522L106.749 95.1495C103.118 88.3205 102.474 71.1802 102.474 71.1802L102.483 71.1916Z" fill="#FFA469" style="fill:#FFA469;fill:color(display-p3 1.0000 0.6431 0.4118);fill-opacity:1;"/>
<path d="M117.627 102.162L78.3236 102.165C78.3231 96.8003 82.6742 92.4351 88.0486 92.4461L107.917 92.4482C113.282 92.4477 117.626 96.7969 117.636 102.173L117.627 102.162Z" fill="#FFA469" style="fill:#FFA469;fill:color(display-p3 1.0000 0.6431 0.4118);fill-opacity:1;"/>
<path d="M117.627 102.162L78.3236 102.165C78.3231 96.8003 82.6742 92.4351 88.0486 92.4461L107.917 92.4482C113.282 92.4477 117.626 96.7969 117.636 102.173L117.627 102.162Z" fill="url(#paint0_linear_272_4067)" style=""/>
<path d="M117.627 102.162L78.3236 102.165C78.3231 96.8003 82.6742 92.4351 88.0486 92.4461L107.917 92.4482C113.282 92.4477 117.626 96.7969 117.636 102.173L117.627 102.162Z" fill="url(#paint1_linear_272_4067)" style=""/>
<path d="M69.1521 21.1647C66.1944 21.1611 63.2214 21.0925 60.256 21.1731C57.6635 21.2345 55.2164 22.2633 53.5475 24.2958C51.7581 26.487 51.4658 29.005 51.728 31.7218C52.5222 40.1379 54.8842 49.269 61.2437 55.2431C65.6395 59.3743 71.3811 61.1786 77.3367 61.2106C79.7419 61.2276 79.7415 57.4956 77.3364 57.4786C72.8549 57.4426 68.3962 56.338 64.8723 53.4628C61.9106 51.0521 59.7632 47.7294 58.3443 44.2078C56.9865 40.8296 56.1373 37.222 55.6705 33.6066C55.4524 31.9222 55.0144 29.8574 55.5553 28.2208C56.2415 26.1521 58.1208 24.955 60.2468 24.8937C63.2122 24.8131 66.1737 24.8912 69.1429 24.8852C71.55 24.8812 71.5496 21.1492 69.1426 21.1532L69.1521 21.1647Z" fill="#FFA469" style="fill:#FFA469;fill:color(display-p3 1.0000 0.6431 0.4118);fill-opacity:1;"/>
<path d="M69.1521 21.1647C66.1944 21.1611 63.2214 21.0925 60.256 21.1731C57.6635 21.2345 55.2164 22.2633 53.5475 24.2958C51.7581 26.487 51.4658 29.005 51.728 31.7218C52.5222 40.1379 54.8842 49.269 61.2437 55.2431C65.6395 59.3743 71.3811 61.1786 77.3367 61.2106C79.7419 61.2276 79.7415 57.4956 77.3364 57.4786C72.8549 57.4426 68.3962 56.338 64.8723 53.4628C61.9106 51.0521 59.7632 47.7294 58.3443 44.2078C56.9865 40.8296 56.1373 37.222 55.6705 33.6066C55.4524 31.9222 55.0144 29.8574 55.5553 28.2208C56.2415 26.1521 58.1208 24.955 60.2468 24.8937C63.2122 24.8131 66.1737 24.8912 69.1429 24.8852C71.55 24.8812 71.5496 21.1492 69.1426 21.1532L69.1521 21.1647Z" fill="#FFA469" style="fill:#FFA469;fill:color(display-p3 1.0000 0.6431 0.4118);fill-opacity:1;"/>
<path d="M125.693 24.5867C128.492 24.5864 131.281 24.5747 134.069 24.584C135.732 24.5972 137.288 24.9718 138.397 26.3024C139.803 27.9886 139.543 30.0324 139.327 32.0591C138.57 39.2211 136.46 47.0448 131.096 52.1768C127.416 55.6912 122.545 57.1466 117.537 57.1795C115.14 57.1951 115.129 60.9366 117.538 60.9116C122.874 60.8767 128.04 59.448 132.267 56.0999C135.887 53.2375 138.369 49.2644 140.068 45.0293C141.655 41.1022 142.511 36.9284 142.998 32.7317C143.281 30.3189 143.504 27.9749 142.427 25.7036C141.225 23.1877 138.781 21.3754 136.041 20.957C132.695 20.441 129.086 20.8448 125.715 20.8355C123.308 20.8395 123.308 24.5716 125.715 24.5675L125.693 24.5867Z" fill="#FFA469" style="fill:#FFA469;fill:color(display-p3 1.0000 0.6431 0.4118);fill-opacity:1;"/>
<path d="M125.693 24.5867C128.492 24.5864 131.281 24.5747 134.069 24.584C135.732 24.5972 137.288 24.9718 138.397 26.3024C139.803 27.9886 139.543 30.0324 139.327 32.0591C138.57 39.2211 136.46 47.0448 131.096 52.1768C127.416 55.6912 122.545 57.1466 117.537 57.1795C115.14 57.1951 115.129 60.9366 117.538 60.9116C122.874 60.8767 128.04 59.448 132.267 56.0999C135.887 53.2375 138.369 49.2644 140.068 45.0293C141.655 41.1022 142.511 36.9284 142.998 32.7317C143.281 30.3189 143.504 27.9749 142.427 25.7036C141.225 23.1877 138.781 21.3754 136.041 20.957C132.695 20.441 129.086 20.8448 125.715 20.8355C123.308 20.8395 123.308 24.5716 125.715 24.5675L125.693 24.5867Z" fill="#FFA469" style="fill:#FFA469;fill:color(display-p3 1.0000 0.6431 0.4118);fill-opacity:1;"/>
<path d="M129.555 18.4541C129.319 15.1552 126.574 12.5997 123.266 12.5998L97.6258 12.6005L95.951 12.5968L73.0507 12.6048C68.9541 12.6062 65.9784 15.3524 66.0359 19.4486C66.2635 35.659 69.8847 74.9751 97.6255 74.1255L97.7001 74.1216C131.173 75.1296 129.734 22.788 129.583 18.9255C129.576 18.7608 129.567 18.6185 129.555 18.4541Z" fill="#FFA469" style="fill:#FFA469;fill:color(display-p3 1.0000 0.6431 0.4118);fill-opacity:1;"/>
<path d="M129.555 18.4541C129.319 15.1552 126.574 12.5997 123.266 12.5998L97.6258 12.6005L95.951 12.5968L73.0507 12.6048C68.9541 12.6062 65.9784 15.3524 66.0359 19.4486C66.2635 35.659 69.8847 74.9751 97.6255 74.1255L97.7001 74.1216C131.173 75.1296 129.734 22.788 129.583 18.9255C129.576 18.7608 129.567 18.6185 129.555 18.4541Z" fill="url(#paint2_linear_272_4067)" style=""/>
<path d="M69.2795 20.9919L69.5032 27.6901C69.7397 23.9246 70.954 15.875 82.4059 15.875H74.0859C70.9659 15.875 69.084 17.3492 69.2795 20.9919Z" fill="#FFEB94" style="fill:#FFEB94;fill:color(display-p3 1.0000 0.9229 0.5785);fill-opacity:1;"/>
<path d="M96.5492 32.1355C97.2104 30.7961 99.1199 30.7948 99.7829 32.1332L102.044 36.6978C102.307 37.2291 102.815 37.5971 103.401 37.6822L108.425 38.4111C109.904 38.6256 110.496 40.4425 109.427 41.4866L105.784 45.0437C105.359 45.4583 105.166 46.0554 105.266 46.6403L106.13 51.6549C106.384 53.1287 104.837 54.2534 103.513 53.5575L99.0084 51.1893C98.4832 50.9132 97.8558 50.913 97.3305 51.1889L92.832 53.551C91.5085 54.2459 89.9626 53.1218 90.2158 51.6485L91.0775 46.6345C91.1782 46.0482 90.9834 45.4499 90.5566 45.0353L86.917 41.4994C85.844 40.4571 86.4331 38.6369 87.9134 38.4209L92.9386 37.6876C93.5256 37.602 94.033 37.2332 94.2956 36.7012L96.5492 32.1355Z" fill="#F3F0F0" style="fill:#F3F0F0;fill:color(display-p3 0.9529 0.9412 0.9412);fill-opacity:1;"/>
<path d="M96.5492 32.1355C97.2104 30.7961 99.1199 30.7948 99.7829 32.1332L102.044 36.6978C102.307 37.2291 102.815 37.5971 103.401 37.6822L108.425 38.4111C109.904 38.6256 110.496 40.4425 109.427 41.4866L105.784 45.0437C105.359 45.4583 105.166 46.0554 105.266 46.6403L106.13 51.6549C106.384 53.1287 104.837 54.2534 103.513 53.5575L99.0084 51.1893C98.4832 50.9132 97.8558 50.913 97.3305 51.1889L92.832 53.551C91.5085 54.2459 89.9626 53.1218 90.2158 51.6485L91.0775 46.6345C91.1782 46.0482 90.9834 45.4499 90.5566 45.0353L86.917 41.4994C85.844 40.4571 86.4331 38.6369 87.9134 38.4209L92.9386 37.6876C93.5256 37.602 94.033 37.2332 94.2956 36.7012L96.5492 32.1355Z" fill="url(#paint3_linear_272_4067)" style=""/>
<path d="M64.4111 77.0687L65.2691 76.6044L65.1997 77.5854C65.1552 78.369 65.3245 79.1572 65.7036 79.8298L66.1862 80.6858L65.2052 80.6165C64.4216 80.572 63.6334 80.7412 62.9507 81.1122L62.0927 81.5765L62.162 80.5954C62.2065 79.8118 62.0373 79.0237 61.6581 78.3511L61.1755 77.495L62.1464 77.5562C62.9218 77.6109 63.71 77.4417 64.4009 77.0605L64.4111 77.0687Z" fill="#FFD66B" style="fill:#FFD66B;fill:color(display-p3 1.0000 0.8378 0.4208);fill-opacity:1;"/>
<path d="M126.07 86.1645L126.301 85.2165L126.978 85.9231C127.519 86.4813 128.221 86.8804 128.981 87.0686L129.929 87.2995L129.222 87.9768C128.664 88.5171 128.265 89.2199 128.076 89.9791L127.846 90.9272L127.168 90.2205C126.628 89.6624 125.925 89.2633 125.166 89.075L124.218 88.8442L124.925 88.1668C125.483 87.6265 125.893 86.9308 126.07 86.1645Z" fill="#FFA469" style="fill:#FFA469;fill:color(display-p3 1.0000 0.6431 0.4118);fill-opacity:1;"/>
</g>
<path d="M148.138 15.3719L148.69 15.2001L148.536 15.7686C148.421 16.2203 148.425 16.6921 148.56 17.1388L148.732 17.6906L148.163 17.5373C147.711 17.4223 147.24 17.4257 146.793 17.5607L146.241 17.7325L146.394 17.164C146.509 16.7123 146.506 16.2405 146.371 15.7938L146.199 15.242L146.768 15.3953C147.219 15.5103 147.691 15.5069 148.138 15.3719Z" fill="#FFD66B" style="fill:#FFD66B;fill:color(display-p3 1.0000 0.8378 0.4208);fill-opacity:1;"/>
<g clip-path="url(#clip1_272_4067)">
<path d="M124.174 101.586L71.764 101.586C70.5848 101.586 69.6289 102.542 69.6289 103.721L69.6289 137.773C69.6289 138.952 70.5848 139.908 71.764 139.908L124.174 139.908C125.353 139.908 126.309 138.952 126.309 137.773L126.309 103.721C126.309 102.542 125.353 101.586 124.174 101.586Z" fill="#F2CB30" style="fill:#F2CB30;fill:color(display-p3 0.9490 0.7961 0.1882);fill-opacity:1;"/>
<path d="M124.174 101.586L71.764 101.586C70.5848 101.586 69.6289 102.542 69.6289 103.721L69.6289 137.773C69.6289 138.952 70.5848 139.908 71.764 139.908L124.174 139.908C125.353 139.908 126.309 138.952 126.309 137.773L126.309 103.721C126.309 102.542 125.353 101.586 124.174 101.586Z" fill="#393A3F" style="fill:#393A3F;fill:color(display-p3 0.2235 0.2275 0.2471);fill-opacity:1;"/>
<rect x="70" y="102" width="56" height="38" rx="6" fill="url(#paint4_linear_272_4067)" style=""/>
<rect x="70" y="102" width="56" height="38" rx="6" fill="url(#paint5_linear_272_4067)" fill-opacity="0.5" style=""/>
<path d="M79.4263 110.242L81.3393 110.336L79.9931 111.232C79.544 111.53 79.2742 112.036 79.2706 112.575L79.2608 114.388L78.0722 112.957C77.7776 112.602 77.3452 112.39 76.883 112.371L75.2085 112.31L76.6173 111.121C76.9576 110.834 77.1639 110.417 77.1911 109.972L77.287 108.257L78.1624 109.54C78.4502 109.959 78.9159 110.222 79.4242 110.246L79.4263 110.242Z" fill="#FFA469" style="fill:#FFA469;fill:color(display-p3 1.0000 0.6431 0.4118);fill-opacity:1;"/>
<path d="M117.701 130.543L118.394 131.173L117.607 131.093C117.345 131.066 117.086 131.173 116.916 131.376L116.349 132.057L116.345 131.147C116.344 130.921 116.247 130.707 116.078 130.556L115.465 130.012L116.367 130.001C116.584 129.999 116.792 129.905 116.941 129.746L117.51 129.128L117.442 129.885C117.42 130.132 117.514 130.377 117.699 130.544L117.701 130.543Z" fill="#FFD66B" style="fill:#FFD66B;fill:color(display-p3 1.0000 0.8378 0.4208);fill-opacity:1;"/>
<mask id="path-50-outside-1_272_4067" maskUnits="userSpaceOnUse" x="83.9727" y="112.414" width="27" height="16" fill="black">
<rect fill="white" x="83.9727" y="112.414" width="27" height="16"/>
<path d="M96.5814 121.33H101.853V122.917H96.5814V121.33ZM88.2117 119.8V127.414H85.2077V114.397H87.9094L90.5923 118.912L92.3493 122.011H92.406V114.397H95.3911V127.414H92.7083L90.0066 122.823L88.3062 119.8H88.2117ZM102.136 117.93C102.136 118.736 101.859 119.366 101.305 119.819C100.763 120.26 100.051 120.48 99.1698 120.48C98.7416 120.48 98.3448 120.424 97.9795 120.31C97.6268 120.197 97.3183 120.033 97.0538 119.819C96.7892 119.592 96.5814 119.321 96.4303 119.007C96.2917 118.692 96.2225 118.333 96.2225 117.93V116.72C96.2225 116.317 96.298 115.958 96.4492 115.644C96.6129 115.329 96.827 115.064 97.0915 114.85C97.3686 114.623 97.6835 114.453 98.0362 114.34C98.4015 114.214 98.7793 114.151 99.1698 114.151C100.039 114.151 100.751 114.384 101.305 114.85C101.859 115.316 102.136 115.952 102.136 116.758V117.93ZM100.02 116.853C100.02 116.576 99.9318 116.368 99.7555 116.229C99.5792 116.091 99.3839 116.021 99.1698 116.021C98.9557 116.021 98.7604 116.091 98.5841 116.229C98.4078 116.368 98.3196 116.576 98.3196 116.853V117.779C98.3196 118.068 98.4078 118.282 98.5841 118.421C98.7604 118.559 98.9557 118.629 99.1698 118.629C99.3839 118.629 99.5792 118.559 99.7555 118.421C99.9318 118.282 100.02 118.068 100.02 117.779V116.853ZM106.932 127.414V118.062L105.855 118.988L104.286 116.985L107.196 114.397H109.709V127.414H106.932Z"/>
</mask>
<path d="M96.5814 121.33V120.543H95.7942V121.33H96.5814ZM101.853 121.33H102.64V120.543H101.853V121.33ZM101.853 122.917V123.705H102.64V122.917H101.853ZM96.5814 122.917H95.7942V123.705H96.5814V122.917ZM88.2117 119.8V119.013H87.4245V119.8H88.2117ZM88.2117 127.414V128.201H88.9989V127.414H88.2117ZM85.2077 127.414H84.4205V128.201H85.2077V127.414ZM85.2077 114.397V113.609H84.4205V114.397H85.2077ZM87.9094 114.397L88.5862 113.995L88.3574 113.609H87.9094V114.397ZM90.5923 118.912L91.277 118.524L91.2731 118.517L91.269 118.51L90.5923 118.912ZM92.3493 122.011L91.6646 122.399L91.8908 122.798H92.3493V122.011ZM92.406 122.011V122.798H93.1932V122.011H92.406ZM92.406 114.397V113.609H91.6188V114.397H92.406ZM95.3911 114.397H96.1784V113.609H95.3911V114.397ZM95.3911 127.414V128.201H96.1784V127.414H95.3911ZM92.7083 127.414L92.0298 127.813L92.2582 128.201H92.7083V127.414ZM90.0066 122.823L89.3204 123.209L89.3242 123.216L89.3281 123.222L90.0066 122.823ZM88.3062 119.8L88.9923 119.414L88.7666 119.013H88.3062V119.8ZM101.305 119.819L101.802 120.43L101.803 120.428L101.305 119.819ZM97.9795 120.31L97.7386 121.06L97.7462 121.062L97.9795 120.31ZM97.0538 119.819L96.5414 120.417L96.5498 120.424L96.5584 120.431L97.0538 119.819ZM96.4303 119.007L95.7097 119.324L95.715 119.336L95.7206 119.347L96.4303 119.007ZM96.4492 115.644L95.7507 115.28L95.7449 115.292L95.7395 115.303L96.4492 115.644ZM97.0915 114.85L97.5869 115.462L97.59 115.459L97.0915 114.85ZM98.0362 114.34L98.2771 115.089L98.285 115.087L98.2928 115.084L98.0362 114.34ZM99.7555 116.229L99.2691 116.848L99.2691 116.848L99.7555 116.229ZM98.5841 116.229L99.0705 116.848L99.0705 116.848L98.5841 116.229ZM98.5841 118.421L98.0977 119.04L98.0977 119.04L98.5841 118.421ZM99.7555 118.421L100.242 119.04L100.242 119.04L99.7555 118.421ZM96.5814 122.118H101.853V120.543H96.5814V122.118ZM101.065 121.33V122.917H102.64V121.33H101.065ZM101.853 122.13H96.5814V123.705H101.853V122.13ZM97.3686 122.917V121.33H95.7942V122.917H97.3686ZM87.4245 119.8V127.414H88.9989V119.8H87.4245ZM88.2117 126.627H85.2077V128.201H88.2117V126.627ZM85.9949 127.414V114.397H84.4205V127.414H85.9949ZM85.2077 115.184H87.9094V113.609H85.2077V115.184ZM87.2326 114.799L89.9155 119.314L91.269 118.51L88.5862 113.995L87.2326 114.799ZM89.9075 119.3L91.6646 122.399L93.0341 121.622L91.277 118.524L89.9075 119.3ZM92.3493 122.798H92.406V121.223H92.3493V122.798ZM93.1932 122.011V114.397H91.6188V122.011H93.1932ZM92.406 115.184H95.3911V113.609H92.406V115.184ZM94.6039 114.397V127.414H96.1784V114.397H94.6039ZM95.3911 126.627H92.7083V128.201H95.3911V126.627ZM93.3868 127.015L90.685 122.424L89.3281 123.222L92.0298 127.813L93.3868 127.015ZM90.6927 122.437L88.9923 119.414L87.6201 120.186L89.3204 123.209L90.6927 122.437ZM88.3062 119.013H88.2117V120.587H88.3062V119.013ZM101.349 117.93C101.349 118.533 101.153 118.926 100.806 119.21L101.803 120.428C102.565 119.805 102.923 118.938 102.923 117.93H101.349ZM100.808 119.208C100.44 119.508 99.919 119.693 99.1698 119.693V121.267C100.184 121.267 101.086 121.012 101.802 120.43L100.808 119.208ZM99.1698 119.693C98.8113 119.693 98.4941 119.646 98.2129 119.558L97.7462 121.062C98.1955 121.201 98.6718 121.267 99.1698 121.267V119.693ZM98.2204 119.561C97.9521 119.474 97.7316 119.355 97.5491 119.207L96.5584 120.431C96.905 120.711 97.3016 120.919 97.7386 121.06L98.2204 119.561ZM97.5661 119.221C97.3847 119.066 97.244 118.883 97.14 118.666L95.7206 119.347C95.9189 119.76 96.1938 120.119 96.5414 120.417L97.5661 119.221ZM97.1508 118.69C97.0631 118.49 97.0097 118.242 97.0097 117.93H95.4352C95.4352 118.423 95.5203 118.893 95.7097 119.324L97.1508 118.69ZM97.0097 117.93V116.72H95.4352V117.93H97.0097ZM97.0097 116.72C97.0097 116.417 97.0661 116.178 97.1589 115.984L95.7395 115.303C95.53 115.739 95.4352 116.218 95.4352 116.72H97.0097ZM97.1476 116.007C97.2636 115.784 97.41 115.605 97.5869 115.462L96.5962 114.238C96.244 114.523 95.9622 114.874 95.7507 115.28L97.1476 116.007ZM97.59 115.459C97.7882 115.297 98.015 115.174 98.2771 115.089L97.7953 113.59C97.3521 113.733 96.9491 113.949 96.593 114.241L97.59 115.459ZM98.2928 115.084C98.5746 114.987 98.8657 114.938 99.1698 114.938V113.364C98.6929 113.364 98.2283 113.441 97.7796 113.596L98.2928 115.084ZM99.1698 114.938C99.8923 114.938 100.413 115.129 100.798 115.453L101.811 114.248C101.088 113.639 100.186 113.364 99.1698 113.364V114.938ZM100.798 115.453C101.153 115.751 101.349 116.155 101.349 116.758H102.923C102.923 115.749 102.565 114.881 101.811 114.248L100.798 115.453ZM101.349 116.758V117.93H102.923V116.758H101.349ZM100.807 116.853C100.807 116.397 100.653 115.933 100.242 115.61L99.2691 116.848C99.2625 116.843 99.2539 116.835 99.2456 116.824C99.2372 116.813 99.2319 116.803 99.2292 116.796C99.2238 116.784 99.2328 116.796 99.2328 116.853H100.807ZM100.242 115.61C99.9339 115.368 99.5691 115.234 99.1698 115.234V116.809C99.1988 116.809 99.2244 116.813 99.2691 116.848L100.242 115.61ZM99.1698 115.234C98.7705 115.234 98.4057 115.368 98.0977 115.61L99.0705 116.848C99.1152 116.813 99.1408 116.809 99.1698 116.809V115.234ZM98.0977 115.61C97.687 115.933 97.5324 116.397 97.5324 116.853H99.1068C99.1068 116.796 99.1158 116.784 99.1104 116.796C99.1076 116.803 99.1024 116.813 99.094 116.824C99.0857 116.835 99.0771 116.843 99.0705 116.848L98.0977 115.61ZM97.5324 116.853V117.779H99.1068V116.853H97.5324ZM97.5324 117.779C97.5324 118.233 97.6784 118.71 98.0977 119.04L99.0705 117.802C99.0794 117.809 99.0893 117.819 99.0982 117.83C99.1069 117.842 99.1117 117.852 99.1137 117.857C99.1172 117.865 99.1068 117.845 99.1068 117.779H97.5324ZM98.0977 119.04C98.4057 119.282 98.7705 119.416 99.1698 119.416V117.841C99.1408 117.841 99.1152 117.837 99.0705 117.802L98.0977 119.04ZM99.1698 119.416C99.5691 119.416 99.9339 119.282 100.242 119.04L99.2691 117.802C99.2244 117.837 99.1988 117.841 99.1698 117.841V119.416ZM100.242 119.04C100.661 118.71 100.807 118.233 100.807 117.779H99.2328C99.2328 117.845 99.2224 117.865 99.2259 117.857C99.2279 117.852 99.2327 117.842 99.2414 117.83C99.2503 117.819 99.2602 117.809 99.2691 117.802L100.242 119.04ZM100.807 117.779V116.853H99.2328V117.779H100.807ZM106.932 127.414H106.144V128.201H106.932V127.414ZM106.932 118.062H107.719V116.347L106.418 117.465L106.932 118.062ZM105.855 118.988L105.235 119.473L105.743 120.122L106.368 119.585L105.855 118.988ZM104.286 116.985L103.763 116.397L103.211 116.888L103.667 117.47L104.286 116.985ZM107.196 114.397V113.609H106.897L106.673 113.808L107.196 114.397ZM109.709 114.397H110.496V113.609H109.709V114.397ZM109.709 127.414V128.201H110.496V127.414H109.709ZM107.719 127.414V118.062H106.144V127.414H107.719ZM106.418 117.465L105.341 118.391L106.368 119.585L107.445 118.659L106.418 117.465ZM106.474 118.502L104.906 116.5L103.667 117.47L105.235 119.473L106.474 118.502ZM104.81 117.573L107.719 114.985L106.673 113.808L103.763 116.397L104.81 117.573ZM107.196 115.184H109.709V113.609H107.196V115.184ZM108.922 114.397V127.414H110.496V114.397H108.922ZM109.709 126.627H106.932V128.201H109.709V126.627Z" fill="#FFA469" style="fill:#FFA469;fill:color(display-p3 1.0000 0.6431 0.4118);fill-opacity:1;" mask="url(#path-50-outside-1_272_4067)"/>
</g>
<defs>
<linearGradient id="paint0_linear_272_4067" x1="110.187" y1="89.7167" x2="85.263" y2="110.491" gradientUnits="userSpaceOnUse">
<stop stop-color="#FFD66B" style="stop-color:#FFD66B;stop-color:color(display-p3 1.0000 0.8392 0.4196);stop-opacity:1;"/>
<stop offset="1" stop-color="#FFA469" style="stop-color:#FFA469;stop-color:color(display-p3 1.0000 0.6431 0.4118);stop-opacity:1;"/>
</linearGradient>
<linearGradient id="paint1_linear_272_4067" x1="98.3528" y1="87.2145" x2="100.728" y2="104.933" gradientUnits="userSpaceOnUse">
<stop stop-color="#FFD66B" style="stop-color:#FFD66B;stop-color:color(display-p3 1.0000 0.8392 0.4196);stop-opacity:1;"/>
<stop offset="1" stop-color="#FFA469" style="stop-color:#FFA469;stop-color:color(display-p3 1.0000 0.6431 0.4118);stop-opacity:1;"/>
</linearGradient>
<linearGradient id="paint2_linear_272_4067" x1="88.5194" y1="7.98478" x2="116.466" y2="60.3348" gradientUnits="userSpaceOnUse">
<stop stop-color="#FFD66B" style="stop-color:#FFD66B;stop-color:color(display-p3 1.0000 0.8392 0.4196);stop-opacity:1;"/>
<stop offset="1" stop-color="#FFA469" style="stop-color:#FFA469;stop-color:color(display-p3 1.0000 0.6431 0.4118);stop-opacity:1;"/>
</linearGradient>
<linearGradient id="paint3_linear_272_4067" x1="98.849" y1="31.8565" x2="99.7878" y2="55.2673" gradientUnits="userSpaceOnUse">
<stop stop-color="#4F5058" style="stop-color:#4F5058;stop-color:color(display-p3 0.3098 0.3137 0.3451);stop-opacity:1;"/>
<stop offset="1" stop-color="#C27B4C" style="stop-color:#C27B4C;stop-color:color(display-p3 0.7592 0.4808 0.2983);stop-opacity:1;"/>
</linearGradient>
<linearGradient id="paint4_linear_272_4067" x1="48.4926" y1="83.934" x2="135.385" y2="144.766" gradientUnits="userSpaceOnUse">
<stop stop-color="white" style="stop-color:white;stop-opacity:1;"/>
<stop offset="0.12" stop-color="#51535C" style="stop-color:#51535C;stop-color:color(display-p3 0.3187 0.3238 0.3593);stop-opacity:1;"/>
<stop offset="0.440655" stop-color="white" stop-opacity="0.14" style="stop-color:white;stop-opacity:0.14;"/>
<stop offset="0.440755" stop-color="#46474E" style="stop-color:#46474E;stop-color:color(display-p3 0.2745 0.2784 0.3059);stop-opacity:1;"/>
<stop offset="0.755" stop-color="#393A3F" style="stop-color:#393A3F;stop-color:color(display-p3 0.2235 0.2275 0.2471);stop-opacity:1;"/>
</linearGradient>
<linearGradient id="paint5_linear_272_4067" x1="126" y1="95.0134" x2="126.435" y2="157.194" gradientUnits="userSpaceOnUse">
<stop stop-color="#FFA469" stop-opacity="0" style="stop-color:none;stop-opacity:0;"/>
<stop offset="0.149619" stop-color="#FFD66B" stop-opacity="0.48" style="stop-color:#FFD66B;stop-color:color(display-p3 1.0000 0.8392 0.4196);stop-opacity:0.48;"/>
<stop offset="0.74054" stop-color="#FFA469" stop-opacity="0" style="stop-color:none;stop-opacity:0;"/>
</linearGradient>
<clipPath id="clip0_272_4067">
<rect width="185.784" height="109.423" fill="white" style="fill:white;fill-opacity:1;" transform="translate(0.746094)"/>
</clipPath>
<clipPath id="clip1_272_4067">
<rect x="70" y="102" width="56" height="38" rx="6" fill="white" style="fill:white;fill-opacity:1;"/>
</clipPath>
</defs>
</svg>
