<svg width="98" height="136" viewBox="0 0 98 136" fill="none" xmlns="http://www.w3.org/2000/svg">
<path d="M48.9775 74.7491C56.9134 74.7491 63.3693 81.205 63.3693 89.1409L63.3693 107.323L68.8672 107.323L68.8672 89.1409C68.8684 78.1734 59.9462 69.25 48.9787 69.25L48.9775 74.7491Z" fill="#65666D" style="fill:#65666D;fill:color(display-p3 0.3961 0.4000 0.4275);fill-opacity:1;"/>
<path d="M82.0355 71.2279C83.4142 69.1714 81.9361 65.5327 82.9062 63.1925C83.8471 60.9207 87.4795 59.4055 87.9815 56.9017C88.4836 54.398 85.7155 51.6007 85.7211 49.1409C85.7274 46.6078 88.4925 43.8174 88.0109 41.3877C87.5218 38.9152 83.8927 37.3901 82.9407 35.0903C81.9826 32.7725 83.4696 29.1332 82.0833 27.0519C80.697 24.9707 76.7646 24.9434 74.9949 23.1651C73.2377 21.401 73.2281 17.4642 71.1344 16.0618C69.0779 14.6831 65.4391 16.1612 63.0989 15.1911C60.8272 14.2502 59.3119 10.6179 56.8082 10.1158C54.3045 9.61376 51.5071 12.3819 49.0474 12.3762C46.5143 12.37 43.7239 9.60482 41.2942 10.0864C38.8217 10.5756 37.2966 14.2046 34.9967 15.1567C32.679 16.1147 29.0397 14.6278 26.9584 16.014C24.8771 17.4003 24.8499 21.3327 23.0716 23.1024C21.3075 24.8596 17.3706 24.8693 15.9683 26.963C14.5896 29.0194 16.0677 32.6582 15.0976 34.9984C14.1567 37.2702 10.5244 38.7854 10.0223 41.2891C9.52024 43.7929 12.2884 46.5902 12.2827 49.05C12.2765 51.5831 9.51131 54.3734 9.9929 56.8031C10.4821 59.2757 14.1111 60.8008 15.0631 63.1006C16.0212 65.4184 14.5342 69.0576 15.9205 71.1389C17.3068 73.2202 21.2392 73.2474 23.0089 75.0258C24.7661 76.7899 24.7758 80.7267 26.8695 82.129C28.9259 83.5077 32.5647 82.0296 34.9049 82.9997C37.1767 83.9406 38.6919 87.573 41.1956 88.075C43.6994 88.5771 46.4967 85.809 48.9564 85.8146C51.4896 85.8209 54.2799 88.5861 56.7096 88.1045C59.1822 87.6153 60.7073 83.9862 63.0071 83.0342C65.3249 82.0761 68.9641 83.5631 71.0454 82.1768C73.1267 80.7905 73.1539 76.8581 74.9323 75.0884C76.6964 73.3313 80.6332 73.3216 82.0355 71.2279Z" fill="#717278" style="fill:#717278;fill:color(display-p3 0.4431 0.4471 0.4706);fill-opacity:1;"/>
<path d="M82.0355 71.2279C83.4142 69.1714 81.9361 65.5327 82.9062 63.1925C83.8471 60.9207 87.4795 59.4055 87.9815 56.9017C88.4836 54.398 85.7155 51.6007 85.7211 49.1409C85.7274 46.6078 88.4925 43.8174 88.0109 41.3877C87.5218 38.9152 83.8927 37.3901 82.9407 35.0903C81.9826 32.7725 83.4696 29.1332 82.0833 27.0519C80.697 24.9707 76.7646 24.9434 74.9949 23.1651C73.2377 21.401 73.2281 17.4642 71.1344 16.0618C69.0779 14.6831 65.4391 16.1612 63.0989 15.1911C60.8272 14.2502 59.3119 10.6179 56.8082 10.1158C54.3045 9.61376 51.5071 12.3819 49.0474 12.3762C46.5143 12.37 43.7239 9.60482 41.2942 10.0864C38.8217 10.5756 37.2966 14.2046 34.9967 15.1567C32.679 16.1147 29.0397 14.6278 26.9584 16.014C24.8771 17.4003 24.8499 21.3327 23.0716 23.1024C21.3075 24.8596 17.3706 24.8693 15.9683 26.963C14.5896 29.0194 16.0677 32.6582 15.0976 34.9984C14.1567 37.2702 10.5244 38.7854 10.0223 41.2891C9.52024 43.7929 12.2884 46.5902 12.2827 49.05C12.2765 51.5831 9.51131 54.3734 9.9929 56.8031C10.4821 59.2757 14.1111 60.8008 15.0631 63.1006C16.0212 65.4184 14.5342 69.0576 15.9205 71.1389C17.3068 73.2202 21.2392 73.2474 23.0089 75.0258C24.7661 76.7899 24.7758 80.7267 26.8695 82.129C28.9259 83.5077 32.5647 82.0296 34.9049 82.9997C37.1767 83.9406 38.6919 87.573 41.1956 88.075C43.6994 88.5771 46.4967 85.809 48.9564 85.8146C51.4896 85.8209 54.2799 88.5861 56.7096 88.1045C59.1822 87.6153 60.7073 83.9862 63.0071 83.0342C65.3249 82.0761 68.9641 83.5631 71.0454 82.1768C73.1267 80.7905 73.1539 76.8581 74.9323 75.0884C76.6964 73.3313 80.6332 73.3216 82.0355 71.2279Z" fill="url(#paint0_linear_272_4201)" style=""/>
<path d="M67.5291 21.3715C66.6026 20.7503 65.2923 20.8219 63.9743 20.8938C62.8434 20.9556 61.7067 21.0176 60.8019 20.6426C59.9365 20.2841 59.2021 19.459 58.4613 18.6266C57.5741 17.6299 56.6776 16.6226 55.5354 16.3936C54.3929 16.1645 53.1773 16.7488 51.9743 17.327C50.9702 17.8097 49.9749 18.2881 49.0381 18.286C48.0591 18.2835 47.0342 17.7889 46.0143 17.2967C44.8249 16.7226 43.6423 16.1519 42.5472 16.3689C41.4245 16.5911 40.5352 17.5864 39.6491 18.5781C38.9015 19.4148 38.1562 20.2489 37.2751 20.6137C36.3829 20.9825 35.2569 20.9186 34.1313 20.8546C32.8087 20.7796 31.4868 20.7045 30.5454 21.3315C29.6044 21.9583 29.1649 23.2069 28.7252 24.4562C28.3508 25.52 27.9761 26.5844 27.2914 27.2658C26.6154 27.9392 25.5583 28.306 24.498 28.674C23.2419 29.1099 21.9813 29.5473 21.3446 30.4978C20.7234 31.4244 20.795 32.7346 20.8669 34.0526C20.9287 35.1836 20.9908 36.3202 20.6157 37.225C20.2572 38.0905 19.4322 38.8248 18.5998 39.5657C17.603 40.4528 16.5957 41.3493 16.3667 42.4916C16.1376 43.6341 16.7219 44.8497 17.3002 46.0527C17.7828 47.0567 18.2612 48.052 18.2591 48.9888C18.2567 49.9678 17.762 50.9927 17.2698 52.0126C16.6958 53.202 16.125 54.3846 16.3421 55.4797C16.5642 56.6024 17.5595 57.4918 18.5512 58.3779C19.388 59.1255 20.2221 59.8708 20.5868 60.7519C20.9556 61.644 20.8917 62.7701 20.8278 63.8956C20.7527 65.2182 20.6776 66.5402 21.3046 67.4815C21.9314 68.4226 23.18 68.862 24.4293 69.3017C25.4932 69.6762 26.5575 70.0508 27.2389 70.7356C27.9123 71.4116 28.2791 72.4687 28.6471 73.5289C29.083 74.7851 29.5204 76.0457 30.471 76.6823C31.3975 77.3035 32.7078 77.232 34.0257 77.16C35.1567 77.0983 36.2933 77.0362 37.1981 77.4113C38.0636 77.7697 38.798 78.5948 39.5388 79.4272C40.426 80.424 41.3224 81.4312 42.4647 81.6603C43.6072 81.8894 44.8228 81.3051 46.0258 80.7268C47.0298 80.2442 48.0252 79.7657 48.962 79.7679C49.941 79.7703 50.9659 80.2649 51.9857 80.7572C53.1751 81.3312 54.3578 81.902 55.4528 81.6849C56.5755 81.4628 57.4649 80.4674 58.351 79.4757C59.0986 78.639 59.8439 77.8049 60.725 77.4401C61.6172 77.0714 62.7432 77.1353 63.8688 77.1992C65.1913 77.2743 66.5133 77.3493 67.4546 76.7223C68.3957 76.0955 68.8352 74.847 69.2749 73.5977C69.6493 72.5338 70.0239 71.4694 70.7087 70.788C71.3847 70.1147 72.4418 69.7478 73.5021 69.3799C74.7582 68.944 76.0188 68.5065 76.6554 67.556C77.2766 66.6294 77.2051 65.3192 77.1331 64.0012C77.0714 62.8703 77.0093 61.7336 77.3844 60.8288C77.7429 59.9633 78.5679 59.229 79.4003 58.4881C80.3971 57.601 81.4043 56.7045 81.6334 55.5623C81.8625 54.4197 81.2782 53.2042 80.6999 52.0012C80.2173 50.9971 79.7389 50.0018 79.741 49.065C79.7434 48.086 80.2381 47.0611 80.7303 46.0412C81.3043 44.8518 81.8751 43.6692 81.658 42.5741C81.4359 41.4514 80.4405 40.562 79.4489 39.676C78.6121 38.9283 77.778 38.183 77.4133 37.3019C77.0445 36.4098 77.1084 35.2838 77.1723 34.1582C77.2474 32.8356 77.3225 31.5136 76.6955 30.5723C76.0686 29.6313 74.8201 29.1918 73.5708 28.7521C72.5069 28.3776 71.4425 28.003 70.7611 27.3183C70.0878 26.6423 69.7209 25.5852 69.353 24.5249C68.9171 23.2687 68.4796 22.0081 67.5291 21.3715Z" fill="#585960" style="fill:#585960;fill:color(display-p3 0.3451 0.3490 0.3765);fill-opacity:1;"/>
<path d="M67.5291 21.3715C66.6026 20.7503 65.2923 20.8219 63.9743 20.8938C62.8434 20.9556 61.7067 21.0176 60.8019 20.6426C59.9365 20.2841 59.2021 19.459 58.4613 18.6266C57.5741 17.6299 56.6776 16.6226 55.5354 16.3936C54.3929 16.1645 53.1773 16.7488 51.9743 17.327C50.9702 17.8097 49.9749 18.2881 49.0381 18.286C48.0591 18.2835 47.0342 17.7889 46.0143 17.2967C44.8249 16.7226 43.6423 16.1519 42.5472 16.3689C41.4245 16.5911 40.5352 17.5864 39.6491 18.5781C38.9015 19.4148 38.1562 20.2489 37.2751 20.6137C36.3829 20.9825 35.2569 20.9186 34.1313 20.8546C32.8087 20.7796 31.4868 20.7045 30.5454 21.3315C29.6044 21.9583 29.1649 23.2069 28.7252 24.4562C28.3508 25.52 27.9761 26.5844 27.2914 27.2658C26.6154 27.9392 25.5583 28.306 24.498 28.674C23.2419 29.1099 21.9813 29.5473 21.3446 30.4978C20.7234 31.4244 20.795 32.7346 20.8669 34.0526C20.9287 35.1836 20.9908 36.3202 20.6157 37.225C20.2572 38.0905 19.4322 38.8248 18.5998 39.5657C17.603 40.4528 16.5957 41.3493 16.3667 42.4916C16.1376 43.6341 16.7219 44.8497 17.3002 46.0527C17.7828 47.0567 18.2612 48.052 18.2591 48.9888C18.2567 49.9678 17.762 50.9927 17.2698 52.0126C16.6958 53.202 16.125 54.3846 16.3421 55.4797C16.5642 56.6024 17.5595 57.4918 18.5512 58.3779C19.388 59.1255 20.2221 59.8708 20.5868 60.7519C20.9556 61.644 20.8917 62.7701 20.8278 63.8956C20.7527 65.2182 20.6776 66.5402 21.3046 67.4815C21.9314 68.4226 23.18 68.862 24.4293 69.3017C25.4932 69.6762 26.5575 70.0508 27.2389 70.7356C27.9123 71.4116 28.2791 72.4687 28.6471 73.5289C29.083 74.7851 29.5204 76.0457 30.471 76.6823C31.3975 77.3035 32.7078 77.232 34.0257 77.16C35.1567 77.0983 36.2933 77.0362 37.1981 77.4113C38.0636 77.7697 38.798 78.5948 39.5388 79.4272C40.426 80.424 41.3224 81.4312 42.4647 81.6603C43.6072 81.8894 44.8228 81.3051 46.0258 80.7268C47.0298 80.2442 48.0252 79.7657 48.962 79.7679C49.941 79.7703 50.9659 80.2649 51.9857 80.7572C53.1751 81.3312 54.3578 81.902 55.4528 81.6849C56.5755 81.4628 57.4649 80.4674 58.351 79.4757C59.0986 78.639 59.8439 77.8049 60.725 77.4401C61.6172 77.0714 62.7432 77.1353 63.8688 77.1992C65.1913 77.2743 66.5133 77.3493 67.4546 76.7223C68.3957 76.0955 68.8352 74.847 69.2749 73.5977C69.6493 72.5338 70.0239 71.4694 70.7087 70.788C71.3847 70.1147 72.4418 69.7478 73.5021 69.3799C74.7582 68.944 76.0188 68.5065 76.6554 67.556C77.2766 66.6294 77.2051 65.3192 77.1331 64.0012C77.0714 62.8703 77.0093 61.7336 77.3844 60.8288C77.7429 59.9633 78.5679 59.229 79.4003 58.4881C80.3971 57.601 81.4043 56.7045 81.6334 55.5623C81.8625 54.4197 81.2782 53.2042 80.6999 52.0012C80.2173 50.9971 79.7389 50.0018 79.741 49.065C79.7434 48.086 80.2381 47.0611 80.7303 46.0412C81.3043 44.8518 81.8751 43.6692 81.658 42.5741C81.4359 41.4514 80.4405 40.562 79.4489 39.676C78.6121 38.9283 77.778 38.183 77.4133 37.3019C77.0445 36.4098 77.1084 35.2838 77.1723 34.1582C77.2474 32.8356 77.3225 31.5136 76.6955 30.5723C76.0686 29.6313 74.8201 29.1918 73.5708 28.7521C72.5069 28.3776 71.4425 28.003 70.7611 27.3183C70.0878 26.6423 69.7209 25.5852 69.353 24.5249C68.9171 23.2687 68.4796 22.0081 67.5291 21.3715Z" fill="url(#paint1_linear_272_4201)" style=""/>
<path d="M67.5291 21.3715C66.6026 20.7503 65.2923 20.8219 63.9743 20.8938C62.8434 20.9556 61.7067 21.0176 60.8019 20.6426C59.9365 20.2841 59.2021 19.459 58.4613 18.6266C57.5741 17.6299 56.6776 16.6226 55.5354 16.3936C54.3929 16.1645 53.1773 16.7488 51.9743 17.327C50.9702 17.8097 49.9749 18.2881 49.0381 18.286C48.0591 18.2835 47.0342 17.7889 46.0143 17.2967C44.8249 16.7226 43.6423 16.1519 42.5472 16.3689C41.4245 16.5911 40.5352 17.5864 39.6491 18.5781C38.9015 19.4148 38.1562 20.2489 37.2751 20.6137C36.3829 20.9825 35.2569 20.9186 34.1313 20.8546C32.8087 20.7796 31.4868 20.7045 30.5454 21.3315C29.6044 21.9583 29.1649 23.2069 28.7252 24.4562C28.3508 25.52 27.9761 26.5844 27.2914 27.2658C26.6154 27.9392 25.5583 28.306 24.498 28.674C23.2419 29.1099 21.9813 29.5473 21.3446 30.4978C20.7234 31.4244 20.795 32.7346 20.8669 34.0526C20.9287 35.1836 20.9908 36.3202 20.6157 37.225C20.2572 38.0905 19.4322 38.8248 18.5998 39.5657C17.603 40.4528 16.5957 41.3493 16.3667 42.4916C16.1376 43.6341 16.7219 44.8497 17.3002 46.0527C17.7828 47.0567 18.2612 48.052 18.2591 48.9888C18.2567 49.9678 17.762 50.9927 17.2698 52.0126C16.6958 53.202 16.125 54.3846 16.3421 55.4797C16.5642 56.6024 17.5595 57.4918 18.5512 58.3779C19.388 59.1255 20.2221 59.8708 20.5868 60.7519C20.9556 61.644 20.8917 62.7701 20.8278 63.8956C20.7527 65.2182 20.6776 66.5402 21.3046 67.4815C21.9314 68.4226 23.18 68.862 24.4293 69.3017C25.4932 69.6762 26.5575 70.0508 27.2389 70.7356C27.9123 71.4116 28.2791 72.4687 28.6471 73.5289C29.083 74.7851 29.5204 76.0457 30.471 76.6823C31.3975 77.3035 32.7078 77.232 34.0257 77.16C35.1567 77.0983 36.2933 77.0362 37.1981 77.4113C38.0636 77.7697 38.798 78.5948 39.5388 79.4272C40.426 80.424 41.3224 81.4312 42.4647 81.6603C43.6072 81.8894 44.8228 81.3051 46.0258 80.7268C47.0298 80.2442 48.0252 79.7657 48.962 79.7679C49.941 79.7703 50.9659 80.2649 51.9857 80.7572C53.1751 81.3312 54.3578 81.902 55.4528 81.6849C56.5755 81.4628 57.4649 80.4674 58.351 79.4757C59.0986 78.639 59.8439 77.8049 60.725 77.4401C61.6172 77.0714 62.7432 77.1353 63.8688 77.1992C65.1913 77.2743 66.5133 77.3493 67.4546 76.7223C68.3957 76.0955 68.8352 74.847 69.2749 73.5977C69.6493 72.5338 70.0239 71.4694 70.7087 70.788C71.3847 70.1147 72.4418 69.7478 73.5021 69.3799C74.7582 68.944 76.0188 68.5065 76.6554 67.556C77.2766 66.6294 77.2051 65.3192 77.1331 64.0012C77.0714 62.8703 77.0093 61.7336 77.3844 60.8288C77.7429 59.9633 78.5679 59.229 79.4003 58.4881C80.3971 57.601 81.4043 56.7045 81.6334 55.5623C81.8625 54.4197 81.2782 53.2042 80.6999 52.0012C80.2173 50.9971 79.7389 50.0018 79.741 49.065C79.7434 48.086 80.2381 47.0611 80.7303 46.0412C81.3043 44.8518 81.8751 43.6692 81.658 42.5741C81.4359 41.4514 80.4405 40.562 79.4489 39.676C78.6121 38.9283 77.778 38.183 77.4133 37.3019C77.0445 36.4098 77.1084 35.2838 77.1723 34.1582C77.2474 32.8356 77.3225 31.5136 76.6955 30.5723C76.0686 29.6313 74.8201 29.1918 73.5708 28.7521C72.5069 28.3776 71.4425 28.003 70.7611 27.3183C70.0878 26.6423 69.7209 25.5852 69.353 24.5249C68.9171 23.2687 68.4796 22.0081 67.5291 21.3715Z" stroke="#3A3B40" style="stroke:#3A3B40;stroke:color(display-p3 0.2275 0.2314 0.2510);stroke-opacity:1;"/>
<path d="M43.7776 57.0772C42.4855 57.0782 41.4373 56.0315 41.4363 54.7394L41.4201 32.6115C41.4192 31.3194 42.4658 30.2712 43.7578 30.2703L49.7824 30.2656C53.1573 30.263 55.6156 30.962 57.1574 32.3625C58.7236 33.7629 59.5076 35.6896 59.5094 38.1426C59.5104 39.5943 59.1935 40.9587 58.5586 42.2357C57.9237 43.5127 56.8606 44.5397 55.3693 45.3168C53.9026 46.0938 51.8974 46.4833 49.354 46.4853L49.309 46.4853C48.017 46.4863 46.9703 47.5345 46.9713 48.8265L46.9756 54.7353C46.9766 56.0274 45.9299 57.0755 44.6379 57.0765L43.7776 57.0772ZM40.3214 53.0626C39.3157 53.0633 38.4998 52.2487 38.4991 51.243C38.4983 50.2373 39.3129 49.4215 40.3186 49.4207L50.8001 49.4127C51.8058 49.4119 52.6216 50.2266 52.6224 51.2323C52.6231 52.2379 51.8085 53.0537 50.8029 53.0545L40.3214 53.0626ZM40.8234 46.4918C39.5378 46.4928 38.4948 45.4514 38.4939 44.1658C38.4929 42.8802 39.5343 41.8373 40.8199 41.8363L46.9127 41.8316C48.1983 41.8306 49.2413 42.8721 49.2423 44.1577C49.2432 45.4432 48.2018 46.4862 46.9163 46.4872L40.8234 46.4918ZM48.8004 41.8302C49.852 41.8294 50.7568 41.716 51.5147 41.4902C52.2727 41.2393 52.8593 40.8509 53.2747 40.3249C53.6901 39.799 53.8975 39.1356 53.8969 38.3346C53.896 37.1832 53.5408 36.3325 52.8312 35.7824C52.1215 35.2072 51.0086 34.9202 49.4923 34.9214L49.3005 34.9216C48.0085 34.9225 46.9619 35.9707 46.9628 37.2628L46.9648 39.9974C46.9656 41.0104 47.7874 41.8309 48.8004 41.8302Z" fill="#46474E" style="fill:#46474E;fill:color(display-p3 0.2745 0.2784 0.3059);fill-opacity:1;"/>
<path d="M43.7776 57.0772C42.4855 57.0782 41.4373 56.0315 41.4363 54.7394L41.4201 32.6115C41.4192 31.3194 42.4658 30.2712 43.7578 30.2703L49.7824 30.2656C53.1573 30.263 55.6156 30.962 57.1574 32.3625C58.7236 33.7629 59.5076 35.6896 59.5094 38.1426C59.5104 39.5943 59.1935 40.9587 58.5586 42.2357C57.9237 43.5127 56.8606 44.5397 55.3693 45.3168C53.9026 46.0938 51.8974 46.4833 49.354 46.4853L49.309 46.4853C48.017 46.4863 46.9703 47.5345 46.9713 48.8265L46.9756 54.7353C46.9766 56.0274 45.9299 57.0755 44.6379 57.0765L43.7776 57.0772ZM40.3214 53.0626C39.3157 53.0633 38.4998 52.2487 38.4991 51.243C38.4983 50.2373 39.3129 49.4215 40.3186 49.4207L50.8001 49.4127C51.8058 49.4119 52.6216 50.2266 52.6224 51.2323C52.6231 52.2379 51.8085 53.0537 50.8029 53.0545L40.3214 53.0626ZM40.8234 46.4918C39.5378 46.4928 38.4948 45.4514 38.4939 44.1658C38.4929 42.8802 39.5343 41.8373 40.8199 41.8363L46.9127 41.8316C48.1983 41.8306 49.2413 42.8721 49.2423 44.1577C49.2432 45.4432 48.2018 46.4862 46.9163 46.4872L40.8234 46.4918ZM48.8004 41.8302C49.852 41.8294 50.7568 41.716 51.5147 41.4902C52.2727 41.2393 52.8593 40.8509 53.2747 40.3249C53.6901 39.799 53.8975 39.1356 53.8969 38.3346C53.896 37.1832 53.5408 36.3325 52.8312 35.7824C52.1215 35.2072 51.0086 34.9202 49.4923 34.9214L49.3005 34.9216C48.0085 34.9225 46.9619 35.9707 46.9628 37.2628L46.9648 39.9974C46.9656 41.0104 47.7874 41.8309 48.8004 41.8302Z" fill="url(#paint2_linear_272_4201)" style=""/>
<rect x="44.2812" y="66.4377" width="9.43589" height="9.43589" rx="4.71794" transform="rotate(-0.0429595 44.2812 66.4377)" fill="#D9D9D9" style="fill:#D9D9D9;fill:color(display-p3 0.8510 0.8510 0.8510);fill-opacity:1;"/>
<rect x="44.2812" y="66.4377" width="9.43589" height="9.43589" rx="4.71794" transform="rotate(-0.0429595 44.2812 66.4377)" fill="url(#paint3_linear_272_4201)" style=""/>
<rect x="44.2812" y="66.4377" width="9.43589" height="9.43589" rx="4.71794" transform="rotate(-0.0429595 44.2812 66.4377)" fill="#393A3F" style="fill:#393A3F;fill:color(display-p3 0.2235 0.2275 0.2471);fill-opacity:1;"/>
<path d="M52.0269 74.7799C50.8236 74.4525 49.5078 74.265 48.2022 74.265C40.2663 74.265 33.8104 80.7209 33.8104 88.6568L33.8104 106.839L28.3125 106.839L28.3125 88.6568C28.3113 77.6893 37.2335 68.7659 48.2009 68.7659C49.9991 68.7659 51.7632 69.017 53.4211 69.4664C54.597 72.7179 52.0969 74.7799 52.0269 74.7799Z" fill="#65666D" style="fill:#65666D;fill:color(display-p3 0.3961 0.4000 0.4275);fill-opacity:1;"/>
<path d="M52.0269 74.7799C50.8236 74.4525 49.5078 74.265 48.2022 74.265C40.2663 74.265 33.8104 80.7209 33.8104 88.6568L33.8104 106.839L28.3125 106.839L28.3125 88.6568C28.3113 77.6893 37.2335 68.7659 48.2009 68.7659C49.9991 68.7659 51.7632 69.017 53.4211 69.4664C54.597 72.7179 52.0969 74.7799 52.0269 74.7799Z" fill="url(#paint4_linear_272_4201)" style=""/>
<g clip-path="url(#clip0_272_4201)">
<path d="M73.8905 98.0002L22.1095 98.0002C20.9444 98.0002 20 98.9481 20 100.117L20 133.883C20 135.052 20.9444 136 22.1095 136L73.8905 136C75.0555 136 76 135.052 76 133.883L76 100.117C76 98.9481 75.0555 98.0002 73.8905 98.0002Z" fill="#F2CB30" style="fill:#F2CB30;fill:color(display-p3 0.9490 0.7961 0.1882);fill-opacity:1;"/>
<path d="M73.8905 98.0002L22.1095 98.0002C20.9444 98.0002 20 98.9481 20 100.117L20 133.883C20 135.052 20.9444 136 22.1095 136L73.8905 136C75.0555 136 76 135.052 76 133.883L76 100.117C76 98.9481 75.0555 98.0002 73.8905 98.0002Z" fill="url(#paint5_linear_272_4201)" style=""/>
</g>
<path d="M52.877 112.757C52.8774 112.757 52.8776 112.757 52.8776 112.757C52.8773 110.174 50.7829 108.078 48.1986 108.078C45.614 108.078 43.5195 110.173 43.5195 112.757C43.5195 113.962 43.9764 115.057 44.7248 115.885C45.1112 116.313 45.3658 116.868 45.2855 117.439L44.1795 125.299C44.0462 126.246 44.7818 127.093 45.7386 127.093L50.6573 127.093C51.6141 127.093 52.3497 126.246 52.2164 125.299L51.1105 117.44C51.0302 116.868 51.2852 116.313 51.6718 115.885C52.4197 115.057 52.8763 113.962 52.8764 112.758C52.8764 112.758 52.8767 112.757 52.877 112.757Z" fill="#58595A" style="fill:#58595A;fill:color(display-p3 0.3451 0.3490 0.3529);fill-opacity:1;"/>
<path d="M52.877 112.757C52.8774 112.757 52.8776 112.757 52.8776 112.757C52.8773 110.174 50.7829 108.078 48.1986 108.078C45.614 108.078 43.5195 110.173 43.5195 112.757C43.5195 113.962 43.9764 115.057 44.7248 115.885C45.1112 116.313 45.3658 116.868 45.2855 117.439L44.1795 125.299C44.0462 126.246 44.7818 127.093 45.7386 127.093L50.6573 127.093C51.6141 127.093 52.3497 126.246 52.2164 125.299L51.1105 117.44C51.0302 116.868 51.2852 116.313 51.6718 115.885C52.4197 115.057 52.8763 113.962 52.8764 112.758C52.8764 112.758 52.8767 112.757 52.877 112.757Z" fill="url(#paint6_linear_272_4201)" style=""/>
<path d="M21.9648 105.647L21.9648 112.4C22.2011 108.638 24.0306 100.453 35.4694 100.453L27.1589 100.453C24.0425 100.453 21.9648 102.012 21.9648 105.647Z" fill="#FFEB94" style="fill:#FFEB94;fill:color(display-p3 1.0000 0.9229 0.5785);fill-opacity:1;"/>
<defs>
<linearGradient id="paint0_linear_272_4201" x1="59.7013" y1="10.8527" x2="39.0794" y2="87.4824" gradientUnits="userSpaceOnUse">
<stop stop-color="#FFD66B" style="stop-color:#FFD66B;stop-color:color(display-p3 1.0000 0.8392 0.4196);stop-opacity:1;"/>
<stop offset="1" stop-color="#FFA469" style="stop-color:#FFA469;stop-color:color(display-p3 1.0000 0.6431 0.4118);stop-opacity:1;"/>
</linearGradient>
<linearGradient id="paint1_linear_272_4201" x1="60.0432" y1="17.5894" x2="66.1876" y2="79.4432" gradientUnits="userSpaceOnUse">
<stop stop-color="#4F5058" style="stop-color:#4F5058;stop-color:color(display-p3 0.3098 0.3137 0.3451);stop-opacity:1;"/>
<stop offset="1" stop-color="#C27B4C" style="stop-color:#C27B4C;stop-color:color(display-p3 0.7592 0.4808 0.2983);stop-opacity:1;"/>
</linearGradient>
<linearGradient id="paint2_linear_272_4201" x1="49.1158" y1="31.3359" x2="49.1168" y2="57.4222" gradientUnits="userSpaceOnUse">
<stop stop-color="#FFD66B" style="stop-color:#FFD66B;stop-color:color(display-p3 1.0000 0.8392 0.4196);stop-opacity:1;"/>
<stop offset="1" stop-color="#FFA469" style="stop-color:#FFA469;stop-color:color(display-p3 1.0000 0.6431 0.4118);stop-opacity:1;"/>
</linearGradient>
<linearGradient id="paint3_linear_272_4201" x1="49.2607" y1="66.327" x2="52.409" y2="74.6894" gradientUnits="userSpaceOnUse">
<stop stop-color="#505159" style="stop-color:#505159;stop-color:color(display-p3 0.3137 0.3176 0.3490);stop-opacity:1;"/>
<stop offset="1" stop-color="#E48F57" style="stop-color:#E48F57;stop-color:color(display-p3 0.8944 0.5621 0.3406);stop-opacity:1;"/>
</linearGradient>
<linearGradient id="paint4_linear_272_4201" x1="44.8894" y1="72.4843" x2="53.7351" y2="72.4843" gradientUnits="userSpaceOnUse">
<stop stop-color="#65666D" style="stop-color:#65666D;stop-color:color(display-p3 0.3961 0.4000 0.4275);stop-opacity:1;"/>
<stop offset="1" stop-color="#505159" style="stop-color:#505159;stop-color:color(display-p3 0.3137 0.3176 0.3490);stop-opacity:1;"/>
</linearGradient>
<linearGradient id="paint5_linear_272_4201" x1="35.8502" y1="109.97" x2="58.3897" y2="137.317" gradientUnits="userSpaceOnUse">
<stop stop-color="#FFD66B" style="stop-color:#FFD66B;stop-color:color(display-p3 1.0000 0.8392 0.4196);stop-opacity:1;"/>
<stop offset="1" stop-color="#FFA469" style="stop-color:#FFA469;stop-color:color(display-p3 1.0000 0.6431 0.4118);stop-opacity:1;"/>
</linearGradient>
<linearGradient id="paint6_linear_272_4201" x1="48.458" y1="107.855" x2="57.7375" y2="119.959" gradientUnits="userSpaceOnUse">
<stop stop-color="#4F5058" style="stop-color:#4F5058;stop-color:color(display-p3 0.3098 0.3137 0.3451);stop-opacity:1;"/>
<stop offset="1" stop-color="#C27B4C" style="stop-color:#C27B4C;stop-color:color(display-p3 0.7592 0.4808 0.2983);stop-opacity:1;"/>
</linearGradient>
<clipPath id="clip0_272_4201">
<rect x="20" y="98.0002" width="56" height="38" rx="6" fill="white" style="fill:white;fill-opacity:1;"/>
</clipPath>
</defs>
</svg>
