<svg width="130" height="130" viewBox="0 0 130 130" fill="none" xmlns="http://www.w3.org/2000/svg">
<rect x="46.9783" y="150.488" width="124.414" height="124.414" rx="62.2069" transform="rotate(-123.5 46.9783 150.488)" fill="#F3F0F0" fill-opacity="0.01" stroke="url(#paint0_linear_272_4132)" style="fill:#F3F0F0;fill:color(display-p3 0.9529 0.9412 0.9412);fill-opacity:0.01;" stroke-width="2.56503"/>
<rect x="96.2304" y="13.9015" width="84.1765" height="84.1765" rx="42.0882" transform="rotate(77.1857 96.2304 13.9015)" stroke="url(#paint1_linear_272_4132)" style="" stroke-width="0.964668"/>
<path d="M78.6072 116.394C78.339 116.466 78.0576 116.501 77.7631 116.5C77.464 116.506 77.1735 116.42 76.8917 116.242L77.2059 115.506C77.4636 115.644 77.6887 115.71 77.8813 115.706C78.0693 115.709 78.232 115.692 78.3692 115.655C78.4877 115.623 78.6074 115.571 78.7284 115.499C78.8431 115.428 78.9418 115.335 79.0245 115.219C79.1009 115.105 79.1542 114.967 79.1843 114.805C79.2099 114.651 79.196 114.474 79.1425 114.275L78.8617 113.227C78.8083 113.027 78.7311 112.864 78.6303 112.737C78.5311 112.617 78.42 112.526 78.2968 112.466C78.1736 112.405 78.0446 112.373 77.9098 112.369C77.7688 112.366 77.6327 112.383 77.5018 112.418C77.3645 112.455 77.2067 112.527 77.0284 112.635C76.8438 112.744 76.6991 112.89 76.594 113.072L75.9477 112.644C76.1075 112.367 76.3107 112.152 76.5572 111.999C76.7974 111.848 77.0517 111.736 77.3199 111.664C77.5944 111.591 77.8547 111.564 78.101 111.585C78.3473 111.606 78.5739 111.666 78.7808 111.764C78.9814 111.864 79.1552 112.001 79.3023 112.176C79.4447 112.358 79.5486 112.571 79.6138 112.815L79.9823 114.19C80.0525 114.452 80.0661 114.702 80.0231 114.941C79.9801 115.18 79.8945 115.397 79.7662 115.592C79.6379 115.787 79.4746 115.951 79.2763 116.084C79.0735 116.225 78.8504 116.329 78.6072 116.394Z" fill="#D7D7D7" style="fill:#D7D7D7;fill:color(display-p3 0.8417 0.8417 0.8417);fill-opacity:1;"/>
<path d="M65.0066 113.484L65.1129 117.541L67.4078 117.481L67.3016 113.423L68.1247 113.402L68.2502 118.195L64.2994 118.299L64.1738 113.505L65.0066 113.484Z" fill="#D7D7D7" style="fill:#D7D7D7;fill:color(display-p3 0.8417 0.8417 0.8417);fill-opacity:1;"/>
<path d="M58.2761 114.847C58.3015 114.57 58.3789 114.328 58.5083 114.119C58.6307 113.917 58.7919 113.75 58.992 113.619C59.1856 113.488 59.405 113.394 59.65 113.339C59.895 113.284 60.1526 113.268 60.4227 113.293C60.6992 113.319 60.9529 113.381 61.1837 113.48C61.4146 113.579 61.6132 113.711 61.7797 113.875C61.9397 114.039 62.0615 114.232 62.1449 114.453C62.2277 114.681 62.2564 114.934 62.231 115.21L62.1033 116.599C62.0779 116.876 62.004 117.116 61.8817 117.318C61.7523 117.527 61.5939 117.697 61.4067 117.829C61.2125 117.967 60.9929 118.063 60.7478 118.119C60.4958 118.18 60.2347 118.198 59.9646 118.173C59.6752 118.147 59.4154 118.081 59.1852 117.975C58.9479 117.876 58.7495 117.741 58.5901 117.57C58.4236 117.406 58.3022 117.21 58.2258 116.982C58.1488 116.761 58.123 116.513 58.1484 116.236L58.2761 114.847ZM58.9817 116.167C58.9628 116.372 58.9822 116.549 59.0399 116.697C59.0971 116.852 59.1794 116.979 59.2869 117.08C59.3879 117.18 59.5042 117.256 59.6357 117.307C59.7672 117.357 59.8972 117.389 60.0259 117.401C60.1609 117.413 60.2977 117.406 60.4363 117.38C60.5749 117.354 60.7062 117.301 60.8302 117.222C60.9478 117.142 61.0488 117.031 61.1331 116.89C61.2169 116.755 61.2682 116.584 61.2871 116.378L61.3863 115.298C61.4052 115.092 61.3925 114.913 61.3483 114.76C61.2969 114.612 61.224 114.489 61.1294 114.389C61.0347 114.29 60.9185 114.214 60.7805 114.163C60.6426 114.111 60.4932 114.078 60.3325 114.063C60.2039 114.051 60.0703 114.059 59.9317 114.085C59.7931 114.111 59.665 114.164 59.5474 114.244C59.4234 114.323 59.3195 114.431 59.2358 114.566C59.1514 114.707 59.0998 114.881 59.0809 115.086L58.9817 116.167Z" fill="#D7D7D7" style="fill:#D7D7D7;fill:color(display-p3 0.8417 0.8417 0.8417);fill-opacity:1;"/>
<path d="M55.1825 112.652L54.7595 114.642L55.3091 114.759C55.4165 114.782 55.5195 114.794 55.6183 114.795C55.7094 114.801 55.7983 114.787 55.8848 114.752C55.97 114.724 56.0543 114.67 56.1376 114.588C56.2132 114.512 56.2893 114.403 56.3657 114.26L57.0111 113.041L57.8639 113.222L57.0754 114.649C57.0133 114.755 56.9526 114.854 56.8932 114.947C56.8338 115.04 56.767 115.121 56.6927 115.191C56.6184 115.262 56.5373 115.317 56.4494 115.358C56.3552 115.397 56.2517 115.418 56.1389 115.42C56.3051 115.509 56.4257 115.64 56.5009 115.814C56.5747 115.995 56.6222 116.206 56.6433 116.449L56.7797 117.904L55.9459 117.726L55.817 116.283C55.805 116.122 55.7768 115.99 55.7324 115.889C55.6804 115.792 55.6212 115.713 55.5548 115.653C55.4821 115.591 55.4028 115.545 55.3171 115.513C55.23 115.488 55.1422 115.466 55.0538 115.447L54.6085 115.353L54.1835 117.352L53.3782 117.181L53.8031 115.181L53.3578 115.087C53.2693 115.068 53.1802 115.052 53.0905 115.04C52.9993 115.034 52.9112 115.045 52.826 115.073C52.7345 115.099 52.6484 115.147 52.5678 115.216C52.4858 115.291 52.4034 115.399 52.3207 115.54L51.6158 116.806L50.782 116.629L51.4984 115.355C51.6162 115.142 51.7456 114.969 51.8865 114.833C52.0261 114.705 52.1897 114.634 52.3774 114.621C52.1733 114.525 52.0389 114.381 51.9741 114.189C51.9016 114.001 51.8555 113.784 51.8357 113.535L51.6956 111.911L52.5484 112.092L52.642 113.469C52.654 113.63 52.6822 113.761 52.7265 113.863C52.7633 113.97 52.8148 114.054 52.8812 114.114C52.9463 114.181 53.0248 114.23 53.1169 114.263C53.2013 114.301 53.2972 114.331 53.4046 114.354L53.9541 114.471L54.3771 112.481L55.1825 112.652Z" fill="#D7D7D7" style="fill:#D7D7D7;fill:color(display-p3 0.8417 0.8417 0.8417);fill-opacity:1;"/>
<path d="M49.7468 112.712L48.7162 113.518L46.443 115.243L45.7 114.991L47.2412 110.45L48.0484 110.724L46.9337 114.008L46.9796 114.024L48.0256 113.202L50.2865 111.484L51.0111 111.73L49.47 116.27L48.6719 115.999L49.7835 112.725L49.7468 112.712Z" fill="#D7D7D7" style="fill:#D7D7D7;fill:color(display-p3 0.8417 0.8417 0.8417);fill-opacity:1;"/>
<path d="M44.4895 110.582C44.4019 110.376 44.2714 110.192 44.098 110.03C43.9188 109.866 43.7446 109.744 43.5756 109.663C43.3891 109.574 43.2263 109.518 43.0872 109.495C42.9395 109.474 42.8139 109.475 42.7103 109.497C42.5981 109.522 42.5065 109.565 42.4353 109.624C42.3614 109.689 42.305 109.762 42.2661 109.843C42.1688 110.047 42.1738 110.239 42.2811 110.419C42.3826 110.597 42.55 110.741 42.7831 110.852L43.3776 111.136L43.0815 111.756L42.4695 111.464C42.2364 111.353 42.0293 111.322 41.8482 111.372C41.6644 111.427 41.5322 111.54 41.4515 111.709C41.3598 111.901 41.3776 112.081 41.5049 112.249C41.6294 112.423 41.7996 112.562 42.0152 112.664C42.1842 112.745 42.3745 112.804 42.5861 112.84C42.789 112.88 42.9982 112.869 43.2137 112.807L43.431 113.544C43.1353 113.639 42.831 113.662 42.5181 113.613C42.2052 113.564 41.9118 113.474 41.6379 113.343C41.3872 113.223 41.1839 113.087 41.028 112.934C40.8663 112.778 40.7506 112.616 40.681 112.447C40.6056 112.275 40.5706 112.101 40.576 111.924C40.5786 111.754 40.6188 111.587 40.6967 111.424C40.7273 111.36 40.7692 111.287 40.8226 111.205C40.8732 111.129 40.9426 111.058 41.031 110.993C41.1135 110.925 41.215 110.87 41.3355 110.827C41.4474 110.787 41.5829 110.773 41.742 110.785C41.633 110.668 41.5542 110.548 41.5057 110.425C41.4572 110.302 41.4319 110.182 41.4297 110.067C41.4217 109.949 41.4299 109.842 41.4541 109.746C41.4783 109.65 41.5057 109.57 41.5363 109.506C41.628 109.314 41.7478 109.153 41.8956 109.023C42.0406 108.899 42.2122 108.809 42.4105 108.753C42.606 108.703 42.8253 108.694 43.0685 108.724C43.309 108.76 43.5691 108.844 43.8488 108.978C44.1286 109.111 44.3903 109.283 44.6339 109.492C44.869 109.704 45.0544 109.968 45.1902 110.283L44.4895 110.582Z" fill="#D7D7D7" style="fill:#D7D7D7;fill:color(display-p3 0.8417 0.8417 0.8417);fill-opacity:1;"/>
<path d="M37.7444 105.662L36.6537 107.39L38.5871 108.61L39.6778 106.881L40.3823 107.326L37.8237 111.381L37.1192 110.937L38.184 109.249L36.2506 108.029L35.1858 109.717L34.473 109.267L37.0316 105.212L37.7444 105.662Z" fill="#D7D7D7" style="fill:#D7D7D7;fill:color(display-p3 0.8417 0.8417 0.8417);fill-opacity:1;"/>
<path d="M33.5878 105.344L33.7889 105.096C33.9109 104.945 33.9894 104.797 34.0246 104.651C34.0557 104.51 34.057 104.37 34.0286 104.23C33.9911 104.092 33.9293 103.963 33.8433 103.844C33.7523 103.72 33.6465 103.609 33.5261 103.512C33.4006 103.41 33.2347 103.317 33.0285 103.234C32.8222 103.15 32.5824 103.117 32.3089 103.137L32.2621 102.364C32.6113 102.322 32.9343 102.36 33.2312 102.475C33.5189 102.592 33.7807 102.746 34.0166 102.937C34.2274 103.108 34.4058 103.298 34.5518 103.507C34.6937 103.722 34.7928 103.943 34.8489 104.172C34.8959 104.401 34.893 104.635 34.8402 104.875C34.7823 105.111 34.6619 105.342 34.479 105.567L33.6804 106.554C33.5016 106.774 33.3014 106.945 33.0798 107.064C32.8582 107.184 32.6314 107.254 32.3993 107.274C32.1622 107.289 31.9269 107.257 31.6934 107.176C31.4508 107.095 31.2191 106.966 30.9983 106.787C30.7775 106.608 30.6006 106.411 30.4678 106.196C30.3349 105.98 30.252 105.759 30.2191 105.533C30.1811 105.303 30.1981 105.071 30.2701 104.839C30.333 104.607 30.4518 104.384 30.6266 104.168L31.224 103.43L33.5878 105.344ZM31.3364 104.63C31.2104 104.786 31.1253 104.937 31.081 105.084C31.0368 105.231 31.0264 105.372 31.0498 105.508C31.0641 105.644 31.1117 105.77 31.1928 105.885C31.2647 106.002 31.3584 106.107 31.4738 106.2C31.5892 106.293 31.7113 106.363 31.8402 106.409C31.969 106.456 32.102 106.476 32.2392 106.471C32.3764 106.466 32.5123 106.426 32.6468 106.352C32.7773 106.283 32.9015 106.176 33.0194 106.031L33.1535 105.865L31.4522 104.487L31.3364 104.63Z" fill="#D7D7D7" style="fill:#D7D7D7;fill:color(display-p3 0.8417 0.8417 0.8417);fill-opacity:1;"/>
<path d="M28.8849 98.3374L27.4209 99.7636L29.0161 101.401L30.4801 99.9749L31.0614 100.572L27.6268 103.917L27.0455 103.321L28.4749 101.928L26.8797 100.291L25.4503 101.683L24.8623 101.08L28.2969 97.7337L28.8849 98.3374Z" fill="#D7D7D7" style="fill:#D7D7D7;fill:color(display-p3 0.8417 0.8417 0.8417);fill-opacity:1;"/>
<path d="M25.1745 93.943L23.553 95.1873L24.9447 97.0009L26.5662 95.7567L27.0733 96.4176L23.2693 99.3366L22.7622 98.6757L24.3453 97.4609L22.9536 95.6473L21.3705 96.8621L20.8574 96.1935L24.6615 93.2744L25.1745 93.943Z" fill="#D7D7D7" style="fill:#D7D7D7;fill:color(display-p3 0.8417 0.8417 0.8417);fill-opacity:1;"/>
<path d="M20.1266 89.3074C20.3652 89.1654 20.607 89.0854 20.8518 89.0675C21.0878 89.0473 21.3174 89.0798 21.5408 89.1648C21.7609 89.2442 21.9654 89.3668 22.1541 89.5325C22.3429 89.6983 22.5066 89.8977 22.6453 90.1308C22.7873 90.3694 22.8861 90.6112 22.9416 90.8562C22.9972 91.1011 23.0074 91.3393 22.9722 91.5706C22.9337 91.7964 22.8493 92.0082 22.719 92.206C22.5831 92.407 22.3959 92.5785 22.1572 92.7205L20.9584 93.4337C20.7198 93.5757 20.4825 93.6568 20.2465 93.6769C20.0017 93.6949 19.7709 93.6669 19.5541 93.593C19.3284 93.5168 19.1212 93.3959 18.9325 93.2301C18.7348 93.0622 18.5667 92.8616 18.428 92.6285C18.2794 92.3788 18.1801 92.1298 18.1301 91.8815C18.0712 91.631 18.0638 91.3912 18.1079 91.1621C18.1431 90.9308 18.2302 90.7173 18.3694 90.5218C18.503 90.3296 18.6892 90.1625 18.9278 90.0206L20.1266 89.3074ZM19.4737 90.6539C19.2961 90.7595 19.1644 90.8792 19.0786 91.0129C18.9873 91.1499 18.9325 91.2914 18.9142 91.4376C18.8927 91.5781 18.8999 91.7166 18.9359 91.853C18.972 91.9893 19.023 92.113 19.089 92.224C19.1584 92.3405 19.2444 92.4472 19.347 92.5439C19.4496 92.6407 19.5695 92.7159 19.7067 92.7695C19.8405 92.8177 19.9894 92.8343 20.1534 92.8194C20.3118 92.8078 20.4798 92.7492 20.6574 92.6435L21.5898 92.0888C21.7674 91.9831 21.9051 91.8674 22.003 91.7415C22.0921 91.6133 22.1491 91.4817 22.174 91.3467C22.1988 91.2117 22.1916 91.0732 22.1523 90.9313C22.1129 90.7894 22.052 90.6491 21.9694 90.5103C21.9034 90.3993 21.8191 90.2955 21.7164 90.1987C21.6138 90.102 21.4955 90.0296 21.3617 89.9814C21.2246 89.9278 21.0768 89.9067 20.9184 89.9183C20.7544 89.9332 20.5836 89.9935 20.406 90.0992L19.4737 90.6539Z" fill="#D7D7D7" style="fill:#D7D7D7;fill:color(display-p3 0.8417 0.8417 0.8417);fill-opacity:1;"/>
<path d="M13.9896 88.4166C14.046 88.3844 14.1 88.3391 14.1518 88.2808C14.2036 88.2224 14.2471 88.1535 14.2825 88.0741C14.3119 87.9974 14.3273 87.9128 14.3285 87.8203C14.3298 87.7279 14.3094 87.6345 14.2674 87.5401C14.2201 87.4339 14.1617 87.3503 14.0921 87.2894C14.02 87.2226 13.9455 87.1744 13.8688 87.145C13.7861 87.1181 13.7071 87.1074 13.6317 87.1127C13.5537 87.1121 13.4852 87.1249 13.4262 87.1512L13.1464 86.5229C13.2697 86.4821 13.4083 86.4522 13.5624 86.4331C13.7106 86.4166 13.863 86.4335 14.0198 86.4839C14.1739 86.5284 14.3248 86.6132 14.4724 86.7384C14.6174 86.8576 14.7437 87.0382 14.8514 87.28C14.9591 87.5219 15.0114 87.7425 15.0082 87.9418C15.0025 88.1353 14.9659 88.3071 14.8984 88.4573C14.8284 88.6016 14.7389 88.7262 14.6302 88.8312C14.5129 88.9329 14.3952 89.0101 14.2772 89.0626L13.9896 88.4166ZM19.1136 86.6123L17.8221 86.4027L15.0128 85.904L14.6936 85.1872L19.074 83.2368L19.4207 84.0156L16.2527 85.4261L16.2724 85.4704L17.5856 85.6809L20.3821 86.1748L20.6934 86.8739L16.313 88.8242L15.9702 88.0543L19.1294 86.6477L19.1136 86.6123Z" fill="#D7D7D7" style="fill:#D7D7D7;fill:color(display-p3 0.8417 0.8417 0.8417);fill-opacity:1;"/>
<path d="M12.4296 75.2768L16.4204 74.5372L16.5739 75.3658L11.8498 76.2413L11.2267 72.8792L11.9601 72.7432L12.4296 75.2768Z" fill="#D7D7D7" style="fill:#D7D7D7;fill:color(display-p3 0.8417 0.8417 0.8417);fill-opacity:1;"/>
<path d="M15.0212 67.1914C15.2588 67.5576 15.4178 67.8611 15.4983 68.1017C15.572 68.3363 15.6151 68.5503 15.6278 68.7436C15.6582 69.2076 15.5536 69.5866 15.314 69.8806C15.0744 70.1746 14.7323 70.3361 14.2877 70.3653C14.0235 70.3826 13.7974 70.3392 13.6093 70.235C13.4209 70.1244 13.2662 69.9857 13.1452 69.8189C13.0174 69.6461 12.9244 69.4613 12.8662 69.2645C12.8011 69.0616 12.7633 68.8797 12.7527 68.7186L12.6608 67.317L12.2935 67.3411C11.9584 67.363 11.7326 67.4717 11.616 67.667C11.4929 67.8628 11.4428 68.1346 11.4656 68.4826C11.4766 68.6501 11.5158 68.8547 11.5835 69.0962C11.6442 69.3316 11.7825 69.5652 11.9983 69.797L11.3966 70.2442C11.1379 69.9505 10.9628 69.6481 10.8712 69.337C10.7796 69.0259 10.7249 68.735 10.7072 68.4644C10.6662 67.8393 10.7745 67.3695 11.0322 67.0549C11.283 66.7343 11.6919 66.5554 12.259 66.5182L15.4294 66.3104L15.477 67.0353L15.0387 67.1611L15.0212 67.1914ZM13.3471 67.272L13.4301 68.5382C13.4369 68.6414 13.454 68.7535 13.4813 68.8747C13.5018 68.9898 13.5412 69.0972 13.5995 69.197C13.6514 69.2971 13.7312 69.3792 13.8389 69.4434C13.9398 69.5015 14.0708 69.5252 14.2319 69.5147C14.4639 69.4995 14.6328 69.4107 14.7387 69.2485C14.8441 69.0798 14.8888 68.873 14.8727 68.6281C14.8647 68.5057 14.8404 68.3811 14.7997 68.2543C14.7522 68.1215 14.6986 67.9956 14.639 67.8765C14.579 67.751 14.5162 67.6322 14.4506 67.52C14.3786 67.4082 14.3136 67.3057 14.2557 67.2124L13.3471 67.272Z" fill="#D7D7D7" style="fill:#D7D7D7;fill:color(display-p3 0.8417 0.8417 0.8417);fill-opacity:1;"/>
<path d="M10.6078 63.689L11.1159 63.6187C10.9101 63.2263 10.7777 62.9155 10.7186 62.686C10.6598 62.4502 10.635 62.2452 10.6441 62.071C10.6688 61.6003 10.8275 61.2238 11.1204 60.9417C11.4136 60.6531 11.8536 60.5242 12.4405 60.555L13.9108 60.632C14.459 60.6608 14.8734 60.8344 15.1542 61.1531C15.4353 61.4653 15.5622 61.8826 15.5348 62.4049C15.5257 62.5791 15.4957 62.7812 15.4448 63.0113C15.4004 63.2418 15.3053 63.5149 15.1594 63.8306L17.3166 63.9436L17.2735 64.7659L10.5698 64.4145L10.6078 63.689ZM14.3758 63.7895C14.5139 63.4993 14.6077 63.252 14.6572 63.0477C14.7067 62.8433 14.7367 62.6412 14.7472 62.4413C14.754 62.3123 14.7473 62.1923 14.7273 62.0813C14.7011 61.9636 14.6548 61.8609 14.5882 61.7733C14.5152 61.6854 14.4186 61.6157 14.2985 61.5641C14.1722 61.5058 14.0155 61.4717 13.8285 61.4619L12.4549 61.3899C12.0873 61.3707 11.8317 61.4349 11.6882 61.5826C11.5382 61.7299 11.4565 61.9325 11.4429 62.1905C11.4382 62.2808 11.4488 62.388 11.4746 62.5123C11.5004 62.6365 11.5356 62.7677 11.5801 62.9058C11.6249 63.0375 11.6794 63.1697 11.7436 63.3024C11.8013 63.4347 11.8629 63.5543 11.9285 63.6612L14.3758 63.7895Z" fill="#D7D7D7" style="fill:#D7D7D7;fill:color(display-p3 0.8417 0.8417 0.8417);fill-opacity:1;"/>
<path d="M15.7824 55.6166C15.9279 56.0282 16.0117 56.3604 16.0338 56.6132C16.0506 56.8586 16.0426 57.0767 16.0098 57.2676C15.931 57.7259 15.7409 58.07 15.4393 58.2999C15.1376 58.5298 14.7673 58.607 14.3281 58.5316C14.0672 58.4867 13.8574 58.3917 13.6989 58.2465C13.5415 58.095 13.4234 57.924 13.3448 57.7336C13.2608 57.5357 13.2135 57.3342 13.2029 57.1293C13.187 56.9169 13.1927 56.7311 13.22 56.572L13.4579 55.1877L13.0951 55.1254C12.7642 55.0685 12.5192 55.1214 12.3602 55.2841C12.1948 55.4457 12.0826 55.6984 12.0235 56.042C11.9951 56.2075 11.9856 56.4156 11.9949 56.6662C11.999 56.9093 12.0789 57.1687 12.2347 57.4445L11.5452 57.7388C11.3622 57.3929 11.2625 57.0579 11.2461 56.734C11.2297 56.4102 11.2444 56.1146 11.2904 55.8472C11.3965 55.2299 11.6115 54.7983 11.9355 54.5526C12.2542 54.2994 12.6936 54.2209 13.2537 54.3172L16.385 54.8553L16.262 55.5713L15.8064 55.5913L15.7824 55.6166ZM14.1357 55.3042L13.9208 56.5548C13.9033 56.6566 13.8937 56.7697 13.892 56.8939C13.8851 57.0106 13.8983 57.1243 13.9317 57.2349C13.9588 57.3444 14.0172 57.4429 14.107 57.5304C14.1915 57.6104 14.3134 57.6641 14.4725 57.6915C14.7016 57.7308 14.8866 57.684 15.0274 57.5509C15.1693 57.4115 15.261 57.2209 15.3026 56.979C15.3234 56.8581 15.3288 56.7312 15.3188 56.5985C15.3036 56.4583 15.2809 56.3233 15.2508 56.1936C15.2218 56.0576 15.1884 55.9274 15.1508 55.803C15.1069 55.6775 15.0676 55.5626 15.0331 55.4584L14.1357 55.3042Z" fill="#D7D7D7" style="fill:#D7D7D7;fill:color(display-p3 0.8417 0.8417 0.8417);fill-opacity:1;"/>
<path d="M17.5874 50.2492L15.6277 49.6687L14.9784 51.8606L16.9381 52.4411L16.7015 53.2399L12.104 51.878L12.3406 51.0793L14.2539 51.646L14.9032 49.4541L12.9899 48.8874L13.2293 48.0793L17.8267 49.4412L17.5874 50.2492Z" fill="#D7D7D7" style="fill:#D7D7D7;fill:color(display-p3 0.8417 0.8417 0.8417);fill-opacity:1;"/>
<path d="M15.53 44.0853L19.2591 45.6875L18.9188 46.4796L15.1897 44.8774L14.6047 46.2391L13.9194 45.9447L15.4336 42.4203L16.1189 42.7147L15.53 44.0853Z" fill="#D7D7D7" style="fill:#D7D7D7;fill:color(display-p3 0.8417 0.8417 0.8417);fill-opacity:1;"/>
<path d="M19.9574 41.0237L19.3678 39.8556L18.12 37.2897L18.5124 36.6102L22.6649 39.0076L22.2387 39.7458L19.2354 38.012L19.2112 38.0539L19.8127 39.24L21.0569 41.7928L20.6743 42.4555L16.5218 40.0581L16.9431 39.3282L19.938 41.0573L19.9574 41.0237Z" fill="#D7D7D7" style="fill:#D7D7D7;fill:color(display-p3 0.8417 0.8417 0.8417);fill-opacity:1;"/>
<path d="M22.4029 35.5922L22.659 35.7834C22.8142 35.8993 22.9655 35.972 23.1128 36.0014C23.2549 36.0269 23.3951 36.0227 23.5332 35.9889C23.67 35.946 23.7964 35.8792 23.9125 35.7885C24.0324 35.6927 24.1387 35.5827 24.2314 35.4585C24.328 35.3291 24.4142 35.1598 24.49 34.9504C24.5657 34.741 24.5885 34.5001 24.5582 34.2276L25.3291 34.1504C25.3841 34.4977 25.3596 34.822 25.2556 35.1231C25.1503 35.4152 25.0069 35.6829 24.8253 35.9261C24.663 36.1434 24.48 36.3291 24.2762 36.4833C24.0673 36.6335 23.8499 36.7412 23.624 36.8062C23.3968 36.8623 23.1624 36.8686 22.9208 36.8252C22.6831 36.7766 22.4478 36.6654 22.2149 36.4915L21.1981 35.7323C20.9705 35.5623 20.7925 35.3689 20.6641 35.1522C20.5358 34.9355 20.4572 34.7116 20.4283 34.4804C20.4033 34.2441 20.4267 34.0077 20.4985 33.7712C20.569 33.5257 20.6893 33.289 20.8593 33.0614C21.0293 32.8337 21.2194 32.6493 21.4296 32.508C21.6398 32.3668 21.8573 32.2753 22.0819 32.2335C22.3104 32.1865 22.5423 32.1944 22.7775 32.2572C23.0114 32.311 23.2396 32.4209 23.4621 32.587L24.2227 33.155L22.4029 35.5922ZM23.0277 33.3145C22.8673 33.1947 22.7128 33.1156 22.5642 33.0771C22.4156 33.0387 22.2741 33.0338 22.1399 33.0625C22.0043 33.0822 21.8804 33.1348 21.7682 33.2203C21.6547 33.2967 21.5535 33.3944 21.4647 33.5134C21.3758 33.6324 21.3109 33.7572 21.2698 33.8878C21.2287 34.0183 21.2135 34.152 21.2241 34.2889C21.2348 34.4258 21.2796 34.56 21.3587 34.6916C21.4326 34.8193 21.5445 34.9392 21.6946 35.0512L21.8653 35.1787L23.1752 33.4246L23.0277 33.3145Z" fill="#D7D7D7" style="fill:#D7D7D7;fill:color(display-p3 0.8417 0.8417 0.8417);fill-opacity:1;"/>
<path d="M23.0793 27.2868C23.1306 27.3265 23.1932 27.3591 23.2669 27.3846C23.3407 27.4101 23.421 27.424 23.5078 27.4263C23.59 27.4241 23.674 27.4059 23.7599 27.3717C23.8458 27.3375 23.9243 27.2829 23.9954 27.2079C24.0755 27.1236 24.1303 27.0377 24.16 26.9501C24.1941 26.8579 24.2101 26.7707 24.2079 26.6885C24.2011 26.6019 24.1808 26.5248 24.1471 26.4571C24.1178 26.3848 24.0797 26.3264 24.0329 26.282L24.5063 25.7831C24.5911 25.8814 24.6718 25.998 24.7484 26.133C24.8203 26.2636 24.863 26.411 24.8765 26.5751C24.8943 26.7345 24.8737 26.9063 24.8146 27.0906C24.7599 27.2702 24.6414 27.456 24.4592 27.648C24.2769 27.8401 24.0931 27.9728 23.9078 28.0462C23.7268 28.1149 23.5541 28.1468 23.3895 28.142C23.2294 28.1325 23.08 28.0975 22.9414 28.0372C22.8026 27.9678 22.6863 27.8886 22.5926 27.7997L23.0793 27.2868ZM26.7071 31.3303L26.4065 30.0569L25.7923 27.2705L26.3324 26.7014L29.8105 30.002L29.2237 30.6203L26.7082 28.2332L26.6749 28.2683L26.9828 29.5621L27.5968 32.3348L27.07 32.8899L23.5919 29.5893L24.172 28.978L26.6804 31.3584L26.7071 31.3303Z" fill="#D7D7D7" style="fill:#D7D7D7;fill:color(display-p3 0.8417 0.8417 0.8417);fill-opacity:1;"/>
<path d="M35.7204 24.9455L33.1036 20.9161L33.7941 20.4676L34.9073 22.1817L35.5898 21.7386C35.6656 21.6893 35.7396 21.6374 35.8119 21.5827C35.8807 21.5226 35.9353 21.4526 35.9757 21.3724C36.0161 21.2923 36.0405 21.1995 36.0489 21.0939C36.0592 20.9794 36.0438 20.8431 36.0028 20.6849L35.6383 19.27L36.3532 18.8057L36.7148 20.2341C36.7764 20.4712 36.8052 20.6874 36.801 20.8826C36.7988 21.0689 36.7359 21.2329 36.6124 21.3747C36.8247 21.2985 37.0217 21.3053 37.2033 21.3953C37.3814 21.4798 37.568 21.6012 37.7631 21.7593L39.0431 22.7877L38.312 23.2625L37.2398 22.3764C37.1121 22.2745 36.9965 22.2033 36.8931 22.1626C36.7916 22.1131 36.6961 22.0904 36.6065 22.0947C36.5133 22.0936 36.4253 22.1122 36.3425 22.1506C36.2561 22.1836 36.1669 22.23 36.0748 22.2898L35.303 22.791L36.411 24.497L35.7204 24.9455Z" fill="#D7D7D7" style="fill:#D7D7D7;fill:color(display-p3 0.8417 0.8417 0.8417);fill-opacity:1;"/>
<path d="M43.1464 18.708C43.2693 18.9571 43.33 19.2044 43.3286 19.4498C43.3302 19.6867 43.2799 19.9131 43.1776 20.1291C43.0811 20.3423 42.9429 20.5365 42.7629 20.7117C42.5828 20.8869 42.3712 21.0344 42.1279 21.1544C41.8789 21.2772 41.6301 21.3567 41.3815 21.3929C41.1329 21.4291 40.8947 21.4205 40.6669 21.3673C40.4448 21.3112 40.2403 21.2104 40.0534 21.065C39.8636 20.9138 39.7073 20.7137 39.5845 20.4646L38.9675 19.2136C38.8447 18.9645 38.7825 18.7216 38.7809 18.4848C38.7823 18.2393 38.8283 18.0114 38.919 17.801C39.0126 17.5821 39.1494 17.385 39.3294 17.2098C39.5124 17.026 39.7255 16.8741 39.9688 16.7541C40.2294 16.6256 40.4854 16.5461 40.7369 16.5157C40.9912 16.4767 41.2309 16.4881 41.4558 16.55C41.6837 16.6033 41.8896 16.7069 42.0736 16.861C42.2547 17.0093 42.4067 17.208 42.5295 17.457L43.1464 18.708ZM41.8553 17.9515C41.7639 17.7661 41.6549 17.6255 41.5284 17.5295C41.399 17.4277 41.2622 17.3619 41.1179 17.3323C40.9795 17.2997 40.8409 17.2961 40.7021 17.3213C40.5633 17.3466 40.436 17.3877 40.3202 17.4449C40.1986 17.5048 40.0855 17.5822 39.981 17.6769C39.8765 17.7717 39.7921 17.8853 39.7279 18.0178C39.6694 18.1474 39.6412 18.2945 39.6431 18.4592C39.6423 18.618 39.6875 18.7901 39.7789 18.9754L40.2588 19.9485C40.3502 20.1338 40.4548 20.2802 40.5726 20.3877C40.6934 20.4866 40.8201 20.5537 40.9527 20.5891C41.0854 20.6245 41.224 20.6281 41.3685 20.6001C41.5131 20.572 41.6578 20.5222 41.8026 20.4508C41.9184 20.3937 42.0286 20.3178 42.1331 20.223C42.2376 20.1283 42.319 20.0161 42.3775 19.8865C42.4418 19.754 42.4743 19.6083 42.4752 19.4495C42.4732 19.2848 42.4265 19.1099 42.3351 18.9245L41.8553 17.9515Z" fill="#D7D7D7" style="fill:#D7D7D7;fill:color(display-p3 0.8417 0.8417 0.8417);fill-opacity:1;"/>
<path d="M44.6292 14.6952L44.8886 15.1377C45.1724 14.7974 45.4089 14.5561 45.5982 14.4137C45.7937 14.2692 45.9736 14.1678 46.1379 14.1096C46.5823 13.9522 46.9909 13.9548 47.3636 14.1174C47.7424 14.2779 48.0299 14.6351 48.226 15.189L48.7175 16.577C48.9007 17.0944 48.8988 17.5438 48.7119 17.9251C48.531 18.3043 48.1941 18.5812 47.701 18.7558C47.5366 18.814 47.3384 18.8636 47.1063 18.9047C46.8764 18.9519 46.5877 18.9685 46.2402 18.9545L46.9612 20.9907L46.1851 21.2656L43.9444 14.9377L44.6292 14.6952ZM45.9783 18.2149C46.2993 18.2314 46.5636 18.2234 46.7714 18.191C46.9791 18.1585 47.1773 18.1089 47.366 18.042C47.4878 17.9989 47.5961 17.9469 47.6909 17.8859C47.7897 17.8166 47.8668 17.7345 47.9223 17.6395C47.9755 17.5385 48.003 17.4226 48.0047 17.2918C48.0102 17.1528 47.9818 16.9951 47.9193 16.8185L47.4601 15.5219C47.3373 15.1749 47.1801 14.9634 46.9888 14.8873C46.7953 14.8051 46.5768 14.8071 46.3333 14.8933C46.248 14.9235 46.153 14.9743 46.0481 15.0457C45.9432 15.1171 45.8355 15.1998 45.7249 15.2937C45.6204 15.3855 45.5191 15.4865 45.4211 15.5965C45.3209 15.7005 45.2339 15.8033 45.1603 15.9047L45.9783 18.2149Z" fill="#D7D7D7" style="fill:#D7D7D7;fill:color(display-p3 0.8417 0.8417 0.8417);fill-opacity:1;"/>
<path d="M50.6227 12.7377L50.8284 13.2076C51.1501 12.9031 51.4134 12.6912 51.6181 12.572C51.8292 12.4515 52.0198 12.3719 52.1898 12.3334C52.6496 12.2294 53.055 12.28 53.4061 12.4853C53.7634 12.6891 54.0069 13.0776 54.1366 13.6508L54.4616 15.0869C54.5827 15.6223 54.528 16.0683 54.2976 16.425C54.0734 16.7803 53.7062 17.0157 53.196 17.1311C53.026 17.1696 52.8233 17.1956 52.588 17.2091C52.3541 17.229 52.0655 17.2115 51.722 17.1568L52.1988 19.2637L51.3957 19.4454L49.9142 12.898L50.6227 12.7377ZM51.5489 16.3915C51.8657 16.4456 52.1291 16.4688 52.3393 16.461C52.5494 16.4532 52.752 16.4272 52.9473 16.383C53.0733 16.3545 53.1869 16.3155 53.2883 16.2661C53.3946 16.2089 53.4808 16.1364 53.547 16.0486C53.6118 15.9545 53.6527 15.8426 53.6697 15.713C53.6916 15.5756 53.6818 15.4156 53.6405 15.2329L53.3369 13.8914C53.2557 13.5323 53.1245 13.3038 52.9434 13.2057C52.7609 13.1014 52.5436 13.0777 52.2917 13.1347C52.2035 13.1547 52.1032 13.1939 51.9906 13.2525C51.8781 13.3111 51.7614 13.3805 51.6405 13.4608C51.5259 13.5397 51.4135 13.6281 51.3032 13.7259C51.1915 13.8174 51.0931 13.9091 51.008 14.0012L51.5489 16.3915Z" fill="#D7D7D7" style="fill:#D7D7D7;fill:color(display-p3 0.8417 0.8417 0.8417);fill-opacity:1;"/>
<path d="M57.1878 14.1664L57.2213 14.4843C57.2415 14.677 57.2908 14.8374 57.3692 14.9655C57.447 15.0872 57.5451 15.1873 57.6638 15.2657C57.7882 15.3371 57.923 15.3846 58.0684 15.4083C58.2201 15.4313 58.3731 15.4347 58.5272 15.4185C58.6878 15.4016 58.8706 15.3499 59.0758 15.2634C59.281 15.1769 59.4734 15.0301 59.6529 14.8229L60.2329 15.3366C60.0151 15.6127 59.7604 15.8148 59.4687 15.9429C59.1827 16.0639 58.8888 16.1402 58.5869 16.1719C58.3172 16.2003 58.0566 16.192 57.8051 16.147C57.5529 16.0955 57.3263 16.009 57.1252 15.8873C56.9299 15.7584 56.7661 15.5906 56.634 15.3837C56.5083 15.1761 56.4302 14.9279 56.3999 14.6388L56.2672 13.3768C56.2375 13.0943 56.2587 12.8323 56.3307 12.591C56.4028 12.3496 56.5138 12.1399 56.6639 11.9618C56.8205 11.783 57.0099 11.6397 57.2324 11.5319C57.4606 11.417 57.7159 11.3447 57.9985 11.315C58.2811 11.2853 58.5456 11.2997 58.792 11.3583C59.0384 11.4168 59.2532 11.5143 59.4364 11.6509C59.626 11.7868 59.7776 11.9625 59.8911 12.1778C60.0104 12.386 60.0846 12.6282 60.1136 12.9044L60.2128 13.8485L57.1878 14.1664ZM59.2846 13.0792C59.2636 12.8801 59.2169 12.7129 59.1442 12.5777C59.0716 12.4425 58.9791 12.3353 58.8669 12.2562C58.7605 12.17 58.6378 12.1147 58.4988 12.0904C58.3657 12.0589 58.2252 12.0509 58.0775 12.0665C57.9298 12.082 57.7941 12.119 57.6703 12.1774C57.5466 12.2359 57.4381 12.3155 57.3448 12.4162C57.2515 12.5169 57.1834 12.641 57.1404 12.7883C57.0968 12.9293 57.0848 13.0929 57.1043 13.2791L57.1266 13.4911L59.3038 13.2622L59.2846 13.0792Z" fill="#D7D7D7" style="fill:#D7D7D7;fill:color(display-p3 0.8417 0.8417 0.8417);fill-opacity:1;"/>
<path d="M62.5866 15.7752L62.6495 10.971L63.4728 10.9818L63.4461 13.0255L64.2597 13.0361C64.3501 13.0373 64.4405 13.0353 64.531 13.03C64.6216 13.0183 64.7059 12.9903 64.784 12.9461C64.8621 12.9019 64.9339 12.8383 64.9996 12.7552C65.0718 12.6657 65.1348 12.5438 65.1885 12.3895L65.6715 11.0105L66.5239 11.0217L66.031 12.4102C65.9505 12.6417 65.8543 12.8374 65.7424 12.9974C65.637 13.151 65.4936 13.2525 65.3121 13.3018C65.531 13.3563 65.691 13.4714 65.792 13.6471C65.8931 13.8164 65.9809 14.0209 66.0552 14.2609L66.5482 15.827L65.6764 15.8156L65.2773 14.4832C65.2277 14.3276 65.1712 14.2041 65.1078 14.1129C65.0509 14.0152 64.9841 13.9433 64.9072 13.8971C64.8304 13.8444 64.7468 13.811 64.6566 13.797C64.5665 13.7764 64.4665 13.7654 64.3567 13.764L63.4366 13.7519L63.4099 15.786L62.5866 15.7752Z" fill="#D7D7D7" style="fill:#D7D7D7;fill:color(display-p3 0.8417 0.8417 0.8417);fill-opacity:1;"/>
<path d="M70.8176 12.1493L70.2878 16.1733L69.4331 16.0608L69.9629 12.0368L68.4935 11.8433L68.5909 11.1038L72.394 11.6046L72.2966 12.3441L70.8176 12.1493Z" fill="#D7D7D7" style="fill:#D7D7D7;fill:color(display-p3 0.8417 0.8417 0.8417);fill-opacity:1;"/>
<path d="M76.8296 17.444L77.3327 15.463L75.117 14.9003L74.6139 16.8813L73.8065 16.6762L74.9867 12.0288L75.7942 12.2339L75.303 14.168L77.5187 14.7307L78.0099 12.7966L78.8267 13.0041L77.6464 17.6515L76.8296 17.444Z" fill="#D7D7D7" style="fill:#D7D7D7;fill:color(display-p3 0.8417 0.8417 0.8417);fill-opacity:1;"/>
<path d="M83.6714 17.9526C83.5718 18.2118 83.4315 18.4242 83.2503 18.5899C83.0775 18.7518 82.877 18.8685 82.649 18.9401C82.4269 19.0139 82.1905 19.0442 81.9396 19.0309C81.6888 19.0177 81.4368 18.9624 81.1836 18.8652C80.9243 18.7657 80.6971 18.6369 80.5018 18.479C80.3065 18.321 80.151 18.1403 80.0355 17.9368C79.9259 17.7357 79.8611 17.5171 79.841 17.2811C79.8232 17.0391 79.8641 16.7885 79.9636 16.5292L80.4635 15.227C80.563 14.9678 80.6992 14.7572 80.872 14.5952C81.0532 14.4296 81.2518 14.3087 81.4678 14.2325C81.6922 14.1526 81.9298 14.1193 82.1806 14.1326C82.4398 14.1422 82.696 14.1956 82.9492 14.2928C83.2205 14.3969 83.4526 14.531 83.6456 14.695C83.8469 14.8553 84.0012 15.039 84.1085 15.2462C84.224 15.4497 84.2877 15.6713 84.2994 15.911C84.3135 16.1446 84.2708 16.3911 84.1713 16.6503L83.6714 17.9526ZM83.3505 16.4909C83.4246 16.298 83.4539 16.1225 83.4385 15.9644C83.4254 15.8002 83.3808 15.6552 83.3047 15.5291C83.2346 15.4053 83.1432 15.3011 83.0305 15.2163C82.9178 15.1315 82.8011 15.066 82.6805 15.0197C82.5539 14.9711 82.4204 14.9406 82.2799 14.9282C82.1394 14.9157 81.9987 14.9309 81.8578 14.9736C81.7229 15.0187 81.5956 15.0978 81.4761 15.211C81.3589 15.3182 81.2632 15.4683 81.1892 15.6612L80.8004 16.674C80.7263 16.867 80.6898 17.0432 80.6908 17.2027C80.7002 17.3584 80.7369 17.4971 80.801 17.6185C80.865 17.7399 80.9564 17.8442 81.0752 17.9313C81.1939 18.0184 81.3287 18.0908 81.4794 18.1487C81.6 18.195 81.7305 18.2243 81.871 18.2368C82.0115 18.2492 82.1492 18.2329 82.2841 18.1878C82.425 18.1451 82.5541 18.0701 82.6713 17.9629C82.7908 17.8497 82.8876 17.6967 82.9617 17.5037L83.3505 16.4909Z" fill="#D7D7D7" style="fill:#D7D7D7;fill:color(display-p3 0.8417 0.8417 0.8417);fill-opacity:1;"/>
<path d="M89.0484 14.8539C89.024 14.914 89.0096 14.983 89.0051 15.0609C89.0006 15.1388 89.009 15.2199 89.0304 15.3041C89.0548 15.3826 89.0951 15.4585 89.1514 15.5319C89.2076 15.6053 89.2815 15.6661 89.3729 15.7142C89.4758 15.7683 89.5734 15.7977 89.6657 15.8025C89.7638 15.8104 89.852 15.8021 89.9305 15.7777C90.012 15.7476 90.0808 15.7071 90.1367 15.6563C90.1983 15.6085 90.2442 15.556 90.2743 15.4988L90.8829 15.8191C90.8114 15.9274 90.721 16.0367 90.6118 16.1471C90.5057 16.2518 90.3755 16.3329 90.2212 16.3903C90.0726 16.4508 89.9016 16.4776 89.7082 16.4707C89.5205 16.4668 89.3095 16.4032 89.0752 16.28C88.8409 16.1567 88.6633 16.0158 88.5423 15.8573C88.4271 15.7018 88.3495 15.5442 88.3095 15.3845C88.2752 15.2278 88.2682 15.0746 88.2887 14.9248C88.3178 14.7723 88.3625 14.6389 88.4226 14.5246L89.0484 14.8539ZM86.1414 19.443L87.2854 18.808L89.8004 17.4605L90.4948 17.8259L88.2622 22.0693L87.5078 21.6724L89.1225 18.6034L89.0796 18.5808L87.918 19.2284L85.4161 20.5719L84.7388 20.2155L86.9714 15.9721L87.7173 16.3645L86.1071 19.4249L86.1414 19.443Z" fill="#D7D7D7" style="fill:#D7D7D7;fill:color(display-p3 0.8417 0.8417 0.8417);fill-opacity:1;"/>
<path d="M98.2463 23.0987L97.9871 23.5413C98.4225 23.6226 98.7487 23.711 98.9654 23.8066C99.1871 23.9065 99.3634 24.0139 99.4945 24.1289C99.849 24.4397 100.046 24.7974 100.087 25.2021C100.132 25.611 99.9605 26.0363 99.573 26.4782L98.6022 27.5852C98.2403 27.9979 97.8473 28.2158 97.4232 28.2391C97.004 28.2665 96.5978 28.1078 96.2045 27.7629C96.0734 27.648 95.9333 27.4993 95.784 27.3169C95.6305 27.1393 95.475 26.8955 95.3174 26.5855L93.8931 28.2096L93.274 27.6667L97.7001 22.6197L98.2463 23.0987ZM95.8347 25.9956C95.9771 26.2837 96.1133 26.5105 96.2431 26.6759C96.3729 26.8412 96.5131 26.9899 96.6636 27.1219C96.7607 27.2071 96.859 27.2761 96.9586 27.3291C97.0673 27.3815 97.1766 27.4086 97.2866 27.4106C97.4008 27.4077 97.5153 27.375 97.6302 27.3125C97.7542 27.2495 97.8779 27.1476 98.0014 27.0068L98.9084 25.9726C99.1511 25.6959 99.2589 25.4554 99.2317 25.2513C99.2089 25.0422 99.1004 24.8526 98.9062 24.6823C98.8382 24.6227 98.7474 24.5645 98.6339 24.5079C98.5203 24.4513 98.3956 24.3977 98.2595 24.3471C98.1284 24.3008 97.9908 24.2618 97.8469 24.23C97.7072 24.1934 97.5751 24.1678 97.4506 24.153L95.8347 25.9956Z" fill="#D7D7D7" style="fill:#D7D7D7;fill:color(display-p3 0.8417 0.8417 0.8417);fill-opacity:1;"/>
<path d="M101.37 32.1568C100.957 32.0163 100.644 31.8764 100.432 31.7373C100.229 31.5986 100.063 31.4573 99.9331 31.3133C99.622 30.9678 99.4695 30.6054 99.4757 30.2262C99.4818 29.847 99.6505 29.5083 99.9816 29.2101C100.178 29.033 100.383 28.9271 100.595 28.8925C100.811 28.8627 101.019 28.8758 101.217 28.932C101.424 28.9886 101.612 29.0761 101.779 29.1946C101.956 29.3136 102.098 29.4331 102.207 29.5531L103.146 30.5969L103.42 30.3506C103.669 30.1259 103.78 29.9008 103.75 29.6752C103.726 29.4453 103.597 29.2007 103.363 28.9416C103.251 28.8168 103.094 28.6805 102.891 28.5327C102.698 28.3854 102.444 28.2875 102.131 28.2391L102.327 27.5155C102.712 27.5859 103.037 27.715 103.301 27.9026C103.566 28.0902 103.789 28.2848 103.97 28.4864C104.389 28.9519 104.595 29.388 104.588 29.7945C104.589 30.2016 104.379 30.5952 103.956 30.9755L101.595 33.1014L101.109 32.5615L101.375 32.1914L101.37 32.1568ZM102.635 31.0571L101.786 30.1141C101.717 30.0373 101.634 29.9598 101.538 29.8816C101.45 29.8038 101.353 29.7439 101.245 29.7016C101.143 29.6551 101.029 29.64 100.905 29.6564C100.79 29.6732 100.672 29.7356 100.552 29.8436C100.379 29.9992 100.302 30.1734 100.319 30.3664C100.34 30.5642 100.433 30.7542 100.598 30.9366C100.68 31.0278 100.776 31.1106 100.886 31.1849C101.006 31.2598 101.126 31.3255 101.246 31.3821C101.371 31.4436 101.494 31.498 101.615 31.5455C101.741 31.5887 101.855 31.629 101.959 31.6664L102.635 31.0571Z" fill="#D7D7D7" style="fill:#D7D7D7;fill:color(display-p3 0.8417 0.8417 0.8417);fill-opacity:1;"/>
<path d="M106.58 32.7073C106.697 32.7274 106.81 32.7655 106.921 32.8216C107.032 32.8777 107.132 32.9413 107.222 33.0123C107.317 33.0796 107.398 33.149 107.464 33.2207C107.535 33.2976 107.59 33.3651 107.631 33.4231C107.981 33.9188 108.12 34.3827 108.045 34.8147C107.975 35.252 107.713 35.631 107.259 35.9515L106.373 36.5777C106.146 36.7379 105.909 36.8385 105.661 36.8793C105.422 36.9216 105.185 36.911 104.951 36.8476C104.72 36.7893 104.501 36.6869 104.295 36.5402C104.094 36.3898 103.915 36.2039 103.758 35.9824C103.4 35.4761 103.25 34.9893 103.307 34.5219C103.364 34.0544 103.622 33.6586 104.081 33.3344L105.204 32.5405C105.431 32.3802 105.668 32.2286 105.915 32.0857C106.171 31.9444 106.429 31.8334 106.688 31.7529C106.953 31.6686 107.222 31.6246 107.496 31.6207C107.77 31.6168 108.043 31.673 108.315 31.7892C108.54 31.8834 108.762 32.0028 108.983 32.1473C109.204 32.2918 109.416 32.4302 109.621 32.5626C109.692 32.6072 109.75 32.6451 109.796 32.6761C109.85 32.7086 109.905 32.7412 109.96 32.7737C110.014 32.8063 110.073 32.8396 110.137 32.8737C110.204 32.9131 110.286 32.9619 110.383 33.0202L109.987 33.668C109.806 33.5582 109.662 33.4708 109.552 33.4057C109.448 33.3368 109.359 33.2775 109.284 33.2275C109.213 33.1829 109.148 33.1417 109.09 33.1038C109.037 33.0623 108.97 33.0184 108.89 32.9722C108.639 32.8178 108.421 32.6947 108.238 32.603C108.054 32.5112 107.877 32.4506 107.706 32.4213C107.535 32.3919 107.362 32.3993 107.188 32.4434C107.019 32.4839 106.823 32.5591 106.6 32.6691L106.58 32.7073ZM106.665 35.363C107.008 35.1207 107.188 34.8667 107.206 34.6011C107.224 34.3354 107.131 34.0576 106.926 33.7675C106.847 33.6568 106.751 33.5591 106.635 33.4744C106.52 33.3897 106.39 33.3279 106.243 33.2889C106.106 33.2514 105.956 33.2465 105.794 33.2742C105.632 33.302 105.466 33.3755 105.298 33.4947L104.657 33.9476C104.488 34.0668 104.36 34.1931 104.272 34.3263C104.193 34.461 104.147 34.5966 104.133 34.7332C104.118 34.8698 104.136 35.0072 104.187 35.1456C104.237 35.284 104.309 35.4191 104.402 35.5509C104.488 35.6722 104.586 35.7771 104.696 35.8655C104.809 35.9591 104.933 36.022 105.066 36.0542C105.203 36.0917 105.349 36.0958 105.502 36.0666C105.661 36.0336 105.824 35.9575 105.993 35.8382L106.665 35.363Z" fill="#D7D7D7" style="fill:#D7D7D7;fill:color(display-p3 0.8417 0.8417 0.8417);fill-opacity:1;"/>
<path d="M109.346 41.7471C109.102 41.8796 108.857 41.95 108.612 41.9583C108.375 41.9691 108.147 41.9277 107.927 41.834C107.71 41.746 107.511 41.6155 107.328 41.4424C107.146 41.2694 106.991 41.0638 106.861 40.8254C106.729 40.5814 106.639 40.3359 106.594 40.0889C106.548 39.8419 106.547 39.6036 106.591 39.3738C106.638 39.1497 106.731 38.9414 106.869 38.7489C107.013 38.5533 107.207 38.3893 107.451 38.2568L108.676 37.5912C108.92 37.4587 109.161 37.387 109.397 37.3762C109.643 37.3679 109.872 37.4049 110.086 37.4873C110.308 37.5722 110.511 37.7012 110.693 37.8742C110.884 38.0498 111.044 38.2568 111.173 38.4952C111.312 38.7506 111.401 39.0033 111.442 39.2533C111.491 39.506 111.489 39.7459 111.436 39.973C111.391 40.2028 111.296 40.4127 111.149 40.6026C111.008 40.7894 110.815 40.949 110.571 41.0815L109.346 41.7471ZM110.051 40.4273C110.232 40.3287 110.369 40.2142 110.46 40.084C110.556 39.9507 110.617 39.8114 110.641 39.6661C110.668 39.5265 110.666 39.3879 110.635 39.2502C110.605 39.1125 110.558 38.987 110.497 38.8734C110.432 38.7543 110.35 38.6443 110.252 38.5436C110.153 38.4429 110.036 38.3631 109.901 38.3041C109.769 38.2507 109.621 38.2283 109.457 38.2367C109.298 38.2421 109.128 38.2941 108.946 38.3927L107.993 38.9103C107.811 39.0089 107.669 39.1192 107.566 39.2412C107.472 39.3657 107.41 39.4949 107.38 39.6289C107.35 39.7628 107.352 39.9015 107.385 40.0448C107.419 40.1882 107.474 40.3308 107.551 40.4727C107.613 40.5862 107.693 40.6933 107.792 40.794C107.891 40.8946 108.006 40.9717 108.138 41.025C108.273 41.084 108.42 41.1108 108.578 41.1055C108.743 41.097 108.916 41.0435 109.097 40.9449L110.051 40.4273Z" fill="#D7D7D7" style="fill:#D7D7D7;fill:color(display-p3 0.8417 0.8417 0.8417);fill-opacity:1;"/>
<path d="M113.279 44.7172L109.509 46.2212L109.189 45.4204L112.959 43.9165L112.41 42.5399L113.103 42.2635L114.524 45.8264L113.831 46.1028L113.279 44.7172Z" fill="#D7D7D7" style="fill:#D7D7D7;fill:color(display-p3 0.8417 0.8417 0.8417);fill-opacity:1;"/>
<path d="M111.68 52.8788L116.311 51.6378L116.519 52.4144L111.888 53.6554L111.68 52.8788ZM112.775 51.2414C112.95 51.1946 113.091 51.0865 113.2 50.917C113.314 50.7459 113.332 50.5107 113.251 50.2113L112.928 49.0042L111.506 49.3853L111.829 50.5923C111.901 50.8606 112.015 51.0505 112.172 51.1622C112.337 51.2785 112.538 51.3049 112.775 51.2414ZM113.632 48.8256L113.961 50.0513C114.031 50.3133 114.055 50.5541 114.034 50.7738C114.02 50.998 113.969 51.1923 113.879 51.3568C113.791 51.5274 113.669 51.6704 113.513 51.7859C113.363 51.8996 113.188 51.9832 112.988 52.0367C112.558 52.152 112.174 52.1044 111.837 51.8939C111.501 51.6897 111.263 51.3256 111.123 50.8016L110.582 48.7805L115.222 47.537L115.438 48.3417L113.632 48.8256Z" fill="#D7D7D7" style="fill:#D7D7D7;fill:color(display-p3 0.8417 0.8417 0.8417);fill-opacity:1;"/>
<path d="M50.2056 54.0494C50.1072 54.2833 49.9691 54.4969 49.7912 54.69C49.6196 54.8858 49.4162 55.0421 49.1811 55.1591C48.9549 55.2723 48.7008 55.3367 48.419 55.3522C48.1372 55.3677 47.8445 55.3116 47.5409 55.184L44.7236 53.9998L47.4708 47.464L50.1838 48.6044C50.481 48.7293 50.7235 48.8871 50.9113 49.0776C51.1054 49.2708 51.2483 49.4797 51.3399 49.7043C51.4316 49.9288 51.4747 50.1627 51.4691 50.4059C51.4636 50.6492 51.413 50.8846 51.3173 51.1123C51.2084 51.3716 51.0406 51.6025 50.8141 51.8049C50.5903 52.001 50.2952 52.1188 49.9289 52.1583C50.176 52.4557 50.3138 52.774 50.3423 53.1134C50.3708 53.4528 50.3252 53.7648 50.2056 54.0494ZM50.4462 50.7684C50.5897 50.427 50.5814 50.137 50.4212 49.8985C50.2673 49.6627 50.0196 49.473 49.6781 49.3294L48.0181 48.6317L47.2087 50.5573L48.9446 51.287C49.09 51.3481 49.2371 51.3876 49.3859 51.4055C49.5373 51.417 49.6777 51.4016 49.8071 51.3593C49.9429 51.3196 50.0645 51.2517 50.1719 51.1554C50.2883 51.0555 50.3797 50.9265 50.4462 50.7684ZM49.3424 53.6865C49.4168 53.5095 49.4471 53.3399 49.4334 53.1779C49.4286 53.0122 49.3893 52.8579 49.3153 52.7152C49.2477 52.5752 49.1518 52.4493 49.0276 52.3376C48.9097 52.2285 48.7749 52.1421 48.6231 52.0783L46.8777 51.3446L45.9368 53.5833L47.7011 54.3249C48.0869 54.4871 48.419 54.5113 48.6974 54.3977C48.9759 54.284 49.1909 54.047 49.3424 53.6865ZM53.3442 57.6233L54.1855 55.6218L51.9468 54.6808L51.1055 56.6823L50.2897 56.3394L52.2634 51.6439L53.0792 51.9868L52.2578 53.9409L54.4965 54.8819L55.3178 52.9278L56.1431 53.2747L54.1694 57.9702L53.3442 57.6233ZM56.7644 56.6499L56.6328 56.963C56.553 57.1527 56.5169 57.3272 56.5243 57.4866C56.5344 57.6397 56.5746 57.7831 56.6448 57.9168C56.7241 58.0469 56.8253 58.1601 56.9485 58.2565C57.078 58.3556 57.2187 58.437 57.3704 58.5008C57.5285 58.5673 57.7252 58.6128 57.9605 58.6372C58.1958 58.6617 58.45 58.6235 58.7231 58.5225L59.0001 59.2974C58.6561 59.4431 58.3156 59.5008 57.9785 59.4708C57.6504 59.437 57.3377 59.3577 57.0405 59.2328C56.7749 59.1211 56.5365 58.98 56.3255 58.8094C56.117 58.6325 55.9504 58.436 55.8255 58.2198C55.7095 57.9999 55.643 57.7599 55.6259 57.4997C55.6151 57.2421 55.6695 56.9711 55.7891 56.6865L56.3114 55.4438C56.4284 55.1656 56.5821 54.9326 56.7727 54.7448C56.9632 54.557 57.1739 54.4186 57.4048 54.3296C57.642 54.2433 57.8917 54.2068 58.1539 54.2203C58.4251 54.2301 58.6999 54.2935 58.9781 54.4105C59.2564 54.5274 59.4952 54.6762 59.6946 54.8568C59.8941 55.0373 60.0441 55.2381 60.1447 55.4589C60.2517 55.6825 60.3029 55.9235 60.2984 56.1821C60.3029 56.437 60.248 56.7004 60.1337 56.9723L59.7429 57.9019L56.7644 56.6499ZM59.2725 56.7108C59.3549 56.5148 59.3969 56.3352 59.3985 56.1722C59.4 56.0091 59.3688 55.862 59.3049 55.731C59.2499 55.5963 59.164 55.482 59.0471 55.3882C58.9392 55.2908 58.8126 55.2115 58.6671 55.1504C58.5217 55.0893 58.3764 55.0542 58.2313 55.0453C58.0862 55.0364 57.9445 55.055 57.8061 55.101C57.6677 55.147 57.5408 55.2276 57.4254 55.3428C57.3127 55.4517 57.2178 55.5978 57.1407 55.7812L57.0529 55.9899L59.1968 56.891L59.2725 56.7108ZM62.8896 56.9587L62.3104 58.1775C62.0778 58.6601 61.8652 59.0507 61.6727 59.3493C61.4892 59.6442 61.2827 59.87 61.0532 60.0265L63.3868 61.0074L64.7584 57.7442L62.8896 56.9587ZM59.9773 59.5854C60.1231 59.5574 60.2583 59.5101 60.383 59.4434C60.5104 59.3705 60.6345 59.2701 60.7552 59.1422C60.8786 59.0081 61.0013 58.8401 61.1233 58.6384C61.2479 58.4303 61.3835 58.1785 61.5301 57.883L62.4812 55.9388L65.8772 57.3662L64.2025 61.3503L64.5875 61.5232L63.7861 63.4299L63.0177 63.1069L63.5241 61.9022L60.1281 60.4748L59.6217 61.6795L58.8534 61.3565L59.6468 59.4688L59.9773 59.5854ZM67.7963 58.1728L67.6838 58.706C68.15 58.6415 68.5083 58.621 68.7589 58.6444C69.0158 58.6706 69.2296 58.7195 69.4004 58.7913C69.862 58.9853 70.1811 59.2794 70.3577 59.6736C70.5407 60.0705 70.5112 60.5567 70.2693 61.1322L69.6632 62.574C69.4373 63.1115 69.1146 63.4633 68.6951 63.6293C68.2819 63.7979 67.8192 63.7745 67.307 63.5592C67.1362 63.4875 66.945 63.3848 66.7333 63.2511C66.5189 63.1238 66.2802 62.9305 66.0172 62.6711L65.128 64.7864L64.3217 64.4475L67.0848 57.8738L67.7963 58.1728ZM66.3401 61.9027C66.5805 62.1452 66.7939 62.3279 66.9803 62.4509C67.1668 62.5739 67.358 62.6766 67.554 62.759C67.6805 62.8121 67.8028 62.8487 67.921 62.8686C68.0481 62.8848 68.1674 62.8754 68.2788 62.8404C68.3929 62.7991 68.4974 62.7276 68.5921 62.6261C68.6959 62.5209 68.7863 62.3766 68.8634 62.1932L69.4296 60.8462C69.5811 60.4857 69.6089 60.2072 69.5129 60.0106C69.4196 59.8077 69.2465 59.653 68.9935 59.5467C68.905 59.5095 68.794 59.4814 68.6606 59.4626C68.5271 59.4437 68.3834 59.4316 68.2293 59.4264C68.0816 59.4238 67.9298 59.4307 67.7741 59.4471C67.621 59.4572 67.4793 59.4758 67.3489 59.5028L66.3401 61.9027ZM71.5305 62.8566L71.3989 63.1696C71.3192 63.3593 71.283 63.5339 71.2904 63.6933C71.3005 63.8463 71.3407 63.9897 71.411 64.1234C71.4902 64.2535 71.5915 64.3667 71.7146 64.4632C71.8441 64.5622 71.9848 64.6437 72.1366 64.7075C72.2947 64.7739 72.4913 64.8194 72.7266 64.8439C72.9619 64.8684 73.2161 64.8301 73.4892 64.7291L73.7662 65.5041C73.4222 65.6497 73.0817 65.7075 72.7446 65.6774C72.4165 65.6437 72.1038 65.5643 71.8066 65.4394C71.541 65.3278 71.3026 65.1867 71.0916 65.0161C70.8832 64.8392 70.7165 64.6426 70.5916 64.4264C70.4757 64.2065 70.4091 63.9665 70.392 63.7063C70.3812 63.4488 70.4356 63.1777 70.5552 62.8931L71.0775 61.6505C71.1945 61.3722 71.3482 61.1392 71.5388 60.9514C71.7293 60.7636 71.9401 60.6252 72.1709 60.5362C72.4081 60.4499 72.6578 60.4135 72.9201 60.427C73.1913 60.4368 73.466 60.5002 73.7442 60.6171C74.0225 60.7341 74.2613 60.8828 74.4608 61.0634C74.6602 61.244 74.8102 61.4447 74.9108 61.6656C75.0178 61.8891 75.069 62.1302 75.0645 62.3887C75.069 62.6436 75.0141 62.907 74.8998 63.1789L74.509 64.1086L71.5305 62.8566ZM74.0386 62.9174C74.121 62.7214 74.163 62.5418 74.1646 62.3788C74.1661 62.2157 74.1349 62.0687 74.071 61.9376C74.016 61.8029 73.9301 61.6886 73.8132 61.5949C73.7053 61.4974 73.5787 61.4182 73.4332 61.357C73.2878 61.2959 73.1425 61.2609 72.9974 61.252C72.8523 61.2431 72.7106 61.2616 72.5722 61.3076C72.4338 61.3536 72.3069 61.4343 72.1915 61.5495C72.0788 61.6583 71.9839 61.8045 71.9068 61.9879L71.8191 62.1966L73.9629 63.0977L74.0386 62.9174ZM77.5313 67.7899L78.3726 65.7883L76.134 64.8474L75.2927 66.8489L74.4769 66.506L76.4505 61.8105L77.2663 62.1534L76.445 64.1075L78.6836 65.0484L79.505 63.0944L80.3303 63.4412L78.3566 68.1368L77.5313 67.7899ZM80.7164 67.5883L81.8689 66.8115L84.407 65.1548L85.1753 65.4778L83.2017 70.1733L82.3669 69.8224L83.7943 66.4265L83.7469 66.4065L82.5769 67.1984L80.0523 68.8495L79.303 68.5345L81.2766 63.839L82.1019 64.1859L80.6785 67.5724L80.7164 67.5883ZM85.7964 68.853L85.6648 69.166C85.585 69.3557 85.5489 69.5303 85.5563 69.6896C85.5664 69.8427 85.6066 69.9861 85.6769 70.1198C85.7561 70.2499 85.8574 70.3631 85.9805 70.4595C86.11 70.5586 86.2507 70.6401 86.4024 70.7039C86.5605 70.7703 86.7572 70.8158 86.9925 70.8402C87.2278 70.8647 87.482 70.8265 87.7551 70.7255L88.0321 71.5005C87.6881 71.6461 87.3476 71.7039 87.0105 71.6738C86.6824 71.64 86.3697 71.5607 86.0725 71.4358C85.8069 71.3241 85.5685 71.183 85.3575 71.0125C85.149 70.8356 84.9824 70.639 84.8575 70.4228C84.7415 70.2029 84.675 69.9629 84.6579 69.7027C84.6471 69.4451 84.7015 69.1741 84.8211 68.8895L85.3434 67.6468C85.4604 67.3686 85.6141 67.1356 85.8047 66.9478C85.9952 66.76 86.2059 66.6216 86.4368 66.5326C86.674 66.4463 86.9237 66.4099 87.1859 66.4233C87.4571 66.4332 87.7319 66.4965 88.0101 66.6135C88.2884 66.7305 88.5272 66.8792 88.7266 67.0598C88.9261 67.2403 89.0761 67.4411 89.1767 67.662C89.2837 67.8855 89.3349 68.1265 89.3304 68.3851C89.3349 68.64 89.28 68.9034 89.1657 69.1753L88.7749 70.1049L85.7964 68.853ZM88.3045 68.9138C88.3869 68.7178 88.4289 68.5382 88.4305 68.3752C88.432 68.2121 88.4008 68.0651 88.3369 67.934C88.2819 67.7993 88.196 67.685 88.0791 67.5913C87.9712 67.4938 87.8446 67.4145 87.6991 67.3534C87.5537 67.2923 87.4084 67.2573 87.2633 67.2484C87.1182 67.2395 86.9765 67.258 86.8381 67.304C86.6997 67.35 86.5728 67.4306 86.4574 67.5458C86.3447 67.6547 86.2498 67.8008 86.1727 67.9842L86.085 68.1929L88.2288 69.094L88.3045 68.9138ZM39.2624 63.1809L40.4149 62.4041L42.9529 60.7474L43.7213 61.0704L41.7476 65.7659L40.9129 65.415L42.3403 62.0191L42.2929 61.9991L41.1229 62.791L38.5983 64.4421L37.8489 64.1272L39.8226 59.4316L40.6479 59.7785L39.2244 63.165L39.2624 63.1809ZM48.0366 68.4093L48.8779 66.4078L46.6392 65.4668L45.7979 67.4683L44.9821 67.1254L46.9558 62.4299L47.7716 62.7728L46.9502 64.7269L49.1889 65.6679L50.0102 63.7138L50.8355 64.0607L48.8618 68.7562L48.0366 68.4093ZM52.9402 69.9347C52.4794 69.9866 52.1155 69.9936 51.8486 69.9558C51.5907 69.9144 51.3669 69.8538 51.1772 69.7741C50.7219 69.5827 50.4114 69.3034 50.2458 68.9361C50.0802 68.5688 50.0891 68.167 50.2725 67.7307C50.3815 67.4714 50.5301 67.2772 50.7184 67.1479C50.913 67.0214 51.1182 66.9402 51.3341 66.9045C51.5591 66.8651 51.7788 66.8644 51.9935 66.9026C52.2171 66.937 52.408 66.9875 52.5661 67.054L53.9415 67.6321L54.0931 67.2716C54.2313 66.9428 54.2353 66.6766 54.105 66.473C53.9775 66.2631 53.7429 66.0864 53.4014 65.9429C53.237 65.8738 53.024 65.814 52.7624 65.7636C52.5099 65.7095 52.2222 65.73 51.8995 65.825L51.7603 65.041C52.1622 64.9346 52.5327 64.9117 52.8718 64.9724C53.2109 65.0331 53.5132 65.1192 53.7788 65.2309C54.3923 65.4887 54.7873 65.8148 54.9639 66.209C55.1495 66.5995 55.1253 67.073 54.8914 67.6295L53.5836 70.7409L52.8721 70.4418L52.9607 69.9656L52.9402 69.9347ZM53.6584 68.3056L52.4158 67.7833C52.3146 67.7407 52.2 67.7037 52.0718 67.6722C51.9527 67.637 51.8319 67.6234 51.7094 67.6315C51.5896 67.6332 51.4737 67.6701 51.3616 67.742C51.2585 67.8103 51.1737 67.9235 51.1073 68.0816C51.0116 68.3092 51.0157 68.5119 51.1196 68.6895C51.2299 68.8698 51.4052 69.0104 51.6455 69.1114C51.7656 69.1619 51.8956 69.198 52.0353 69.2195C52.1841 69.2374 52.3292 69.2463 52.4706 69.2462C52.6183 69.2488 52.7611 69.2455 52.8988 69.2364C53.0393 69.221 53.1675 69.208 53.2837 69.1973L53.6584 68.3056ZM58.3424 67.1491C58.6144 67.2634 58.8735 67.417 59.1199 67.6098C59.3752 67.799 59.563 68.0603 59.6834 68.3936L58.9404 68.8068C58.8141 68.5231 58.6686 68.3205 58.5038 68.1992C58.348 68.0742 58.2005 67.9824 58.0614 67.9239C57.9413 67.8734 57.8068 67.8392 57.6581 67.8214C57.5156 67.8061 57.3721 67.8202 57.2273 67.8635C57.0889 67.9096 56.9544 67.9907 56.8237 68.1069C56.702 68.2194 56.5986 68.3769 56.5135 68.5792L56.067 69.6417C55.9819 69.844 55.9404 70.0312 55.9425 70.2033C55.9473 70.369 55.9816 70.5173 56.0456 70.6484C56.1096 70.7795 56.1968 70.8906 56.3074 70.9817C56.4242 71.0754 56.549 71.1502 56.6818 71.206C56.821 71.2645 57.0005 71.3065 57.2205 71.332C57.4468 71.3601 57.6632 71.3321 57.8698 71.2477L58.1333 72.0282C57.8189 72.1565 57.5085 72.2046 57.202 72.1725C56.9019 72.1431 56.6158 72.0712 56.3439 71.9569C56.0656 71.84 55.83 71.6926 55.6369 71.5146C55.4438 71.3367 55.2924 71.1392 55.1828 70.922C55.0795 70.7074 55.023 70.479 55.0132 70.2368C55.0123 69.9909 55.0638 69.7446 55.1674 69.498L55.7536 68.1035C55.8652 67.8379 56.0168 67.6189 56.2084 67.4464C56.3999 67.2739 56.613 67.1477 56.8475 67.0677C57.082 66.9877 57.3259 66.9562 57.5792 66.9734C57.8414 66.9869 58.0958 67.0454 58.3424 67.1491ZM62.1771 69.6762L60.5064 73.6508L59.6622 73.2959L61.3328 69.3213L59.8815 68.7113L60.1885 67.9809L63.9449 69.5598L63.6379 70.2902L62.1771 69.6762ZM65.2214 70.1075L65.109 70.6407C65.5751 70.5762 65.9335 70.5556 66.184 70.5791C66.4409 70.6052 66.6548 70.6542 66.8255 70.726C67.2872 70.92 67.6063 71.2141 67.7829 71.6083C67.9658 72.0052 67.9363 72.4914 67.6944 73.0668L67.0884 74.5087C66.8624 75.0462 66.5397 75.398 66.1202 75.5639C65.707 75.7326 65.2443 75.7092 64.7321 75.4939C64.5614 75.4221 64.3701 75.3194 64.1584 75.1858C63.944 75.0585 63.7053 74.8651 63.4423 74.6058L62.5532 76.7211L61.7469 76.3822L64.51 69.8085L65.2214 70.1075ZM63.7653 73.8374C64.0057 74.0798 64.2191 74.2625 64.4055 74.3856C64.5919 74.5086 64.7831 74.6113 64.9792 74.6937C65.1057 74.7468 65.228 74.7834 65.3461 74.8032C65.4732 74.8195 65.5925 74.8101 65.704 74.7751C65.8181 74.7337 65.9225 74.6623 66.0173 74.5608C66.121 74.4555 66.2115 74.3112 66.2885 74.1278L66.8547 72.7808C67.0062 72.4204 67.034 72.1419 66.9381 71.9453C66.8448 71.7423 66.6716 71.5877 66.4187 71.4814C66.3302 71.4442 66.2192 71.4161 66.0857 71.3972C65.9523 71.3784 65.8085 71.3663 65.6544 71.3611C65.5067 71.3585 65.355 71.3654 65.1993 71.3818C65.0462 71.3919 64.9045 71.4104 64.774 71.4375L63.7653 73.8374ZM71.8751 76.476C71.7608 76.748 71.6047 76.9688 71.4068 77.1387C71.2179 77.3048 71.0012 77.4221 70.7566 77.4904C70.5184 77.5615 70.2664 77.5857 70.0005 77.5633C69.7346 77.5408 69.4689 77.4738 69.2033 77.3621C68.9313 77.2478 68.6943 77.1036 68.4923 76.9293C68.2902 76.7551 68.1312 76.558 68.0152 76.3381C67.9056 76.1209 67.8441 75.8867 67.8306 75.6355C67.8198 75.3779 67.8716 75.1132 67.9859 74.8413L68.56 73.4753C68.6743 73.2034 68.8259 72.9843 69.0148 72.8182C69.2127 72.6483 69.4276 72.5266 69.6595 72.4529C69.9003 72.3756 70.1537 72.3481 70.4196 72.3706C70.6944 72.3894 70.9647 72.4546 71.2303 72.5662C71.5149 72.6859 71.7569 72.836 71.9563 73.0165C72.1647 73.1934 72.3224 73.3936 72.4293 73.6172C72.5453 73.8371 72.6055 74.0744 72.61 74.3293C72.6171 74.5779 72.5635 74.8381 72.4492 75.1101L71.8751 76.476ZM71.5831 74.9134C71.6682 74.7111 71.7052 74.5257 71.6941 74.3573C71.6857 74.1826 71.6431 74.0271 71.5665 73.8907C71.4962 73.757 71.4026 73.6433 71.2858 73.5495C71.1689 73.4557 71.0473 73.3823 70.9208 73.3291C70.788 73.2733 70.6472 73.2364 70.4985 73.2186C70.3497 73.2007 70.1998 73.2121 70.0488 73.2528C69.904 73.2961 69.7663 73.3759 69.6356 73.4921C69.5076 73.602 69.401 73.7581 69.316 73.9605L68.8694 75.0229C68.7844 75.2253 68.7397 75.4111 68.7355 75.5805C68.7403 75.7462 68.7746 75.8946 68.8386 76.0257C68.9026 76.1567 68.9961 76.2705 69.1193 76.3669C69.2425 76.4633 69.3831 76.5448 69.5412 76.6112C69.6677 76.6644 69.8053 76.6999 69.9541 76.7178C70.1028 76.7357 70.2496 76.7229 70.3943 76.6796C70.5453 76.6389 70.6849 76.5636 70.8129 76.4537C70.9436 76.3375 71.0515 76.1782 71.1365 75.9759L71.5831 74.9134ZM76.1655 72.4529C76.1452 72.5188 76.1363 72.5932 76.1387 72.6761C76.141 72.7589 76.1574 72.8439 76.1877 72.9311C76.2207 73.0119 76.2704 73.0886 76.3366 73.1611C76.4029 73.2336 76.4866 73.2911 76.5878 73.3336C76.7016 73.3815 76.8076 73.4037 76.9058 73.4003C77.0103 73.3996 77.1029 73.3827 77.1838 73.3497C77.2673 73.3104 77.3363 73.2613 77.3908 73.2024C77.4517 73.1461 77.4954 73.0864 77.522 73.0231L78.1955 73.3062C78.1297 73.4274 78.044 73.5514 77.9386 73.6782C77.8359 73.7987 77.7055 73.8965 77.5475 73.9714C77.3958 74.0491 77.2173 74.0931 77.012 74.1035C76.813 74.1166 76.5839 74.0687 76.3246 73.9597C76.0654 73.8507 75.8645 73.7179 75.7219 73.5613C75.5858 73.4073 75.4892 73.2476 75.4322 73.0823C75.3815 72.9196 75.3601 72.7581 75.368 72.5977C75.3848 72.4336 75.4199 72.2884 75.473 72.1619L76.1655 72.4529ZM73.5098 77.5761L74.6623 76.7993L77.2003 75.1426L77.9687 75.4656L75.995 80.1611L75.1603 79.8102L76.5877 76.4143L76.5403 76.3943L75.3703 77.1862L72.8457 78.8373L72.0963 78.5223L74.07 73.8268L74.8953 74.1737L73.4718 77.5602L73.5098 77.5761ZM76.9412 80.5588L78.9188 75.8538L79.7251 76.1927L78.8838 78.1942L79.6806 78.5291C79.7692 78.5664 79.859 78.6004 79.9502 78.6313C80.0441 78.6559 80.1383 78.662 80.2327 78.6496C80.3272 78.6372 80.4234 78.6032 80.5212 78.5476C80.628 78.4883 80.7385 78.3934 80.8529 78.2629L81.8784 77.0978L82.7132 77.4487L81.6742 78.6193C81.5026 78.815 81.3299 78.9694 81.1559 79.0823C80.9909 79.1915 80.8093 79.2342 80.6109 79.2104C80.8047 79.3513 80.9163 79.5285 80.9457 79.7417C80.9777 79.9487 80.9825 80.1851 80.9601 80.451L80.8209 82.1895L79.9672 81.8307L80.1055 80.3597C80.1187 80.1866 80.1123 80.0426 80.0863 79.9274C80.0692 79.8087 80.0321 79.7112 79.9748 79.635C79.9202 79.5525 79.8513 79.4864 79.768 79.4365C79.6875 79.3803 79.5934 79.3296 79.4859 79.2844L78.5848 78.9057L77.7475 80.8977L76.9412 80.5588ZM84.6679 83.2708C84.2071 83.3226 83.8432 83.3297 83.5763 83.2919C83.3184 83.2505 83.0946 83.1899 82.9049 83.1102C82.4496 82.9188 82.1391 82.6394 81.9735 82.2722C81.8079 81.9049 81.8168 81.5031 82.0002 81.0668C82.1092 80.8075 82.2578 80.6132 82.4461 80.484C82.6407 80.3575 82.8459 80.2763 83.0618 80.2406C83.2868 80.2012 83.5065 80.2005 83.7212 80.2387C83.9448 80.2731 84.1357 80.3236 84.2938 80.39L85.6692 80.9682L85.8208 80.6077C85.959 80.2789 85.963 80.0127 85.8327 79.8091C85.7052 79.5992 85.4706 79.4225 85.1291 79.279C84.9647 79.2099 84.7517 79.1501 84.4902 79.0997C84.2376 79.0456 83.9499 79.0661 83.6272 79.1611L83.488 78.3771C83.8899 78.2707 84.2604 78.2478 84.5995 78.3085C84.9386 78.3692 85.2409 78.4553 85.5065 78.567C86.12 78.8248 86.515 79.1508 86.6916 79.545C86.8772 79.9356 86.853 80.4091 86.6191 80.9656L85.3113 84.077L84.5998 83.7779L84.6884 83.3017L84.6679 83.2708ZM85.3862 81.6417L84.1435 81.1194C84.0423 81.0768 83.9277 81.0398 83.7995 81.0083C83.6804 80.9731 83.5596 80.9595 83.4371 80.9676C83.3173 80.9693 83.2014 81.0061 83.0893 81.0781C82.9862 81.1464 82.9014 81.2596 82.835 81.4177C82.7393 81.6453 82.7434 81.848 82.8473 82.0256C82.9576 82.2059 83.1329 82.3465 83.3732 82.4475C83.4933 82.498 83.6233 82.5341 83.763 82.5556C83.9118 82.5735 84.0569 82.5824 84.1983 82.5823C84.346 82.5849 84.4888 82.5816 84.6265 82.5725C84.767 82.5571 84.8952 82.5441 85.0114 82.5334L85.3862 81.6417ZM41.8553 76.5511C41.757 76.7851 41.6207 77.0031 41.4465 77.2052C41.2749 77.401 41.0747 77.5587 40.8458 77.6783C40.6169 77.7979 40.3616 77.8654 40.0798 77.8809C39.8042 77.899 39.5084 77.8416 39.1922 77.7087L36.4792 76.5684L39.2264 70.0326L43.1346 71.6753L42.7957 72.4816L39.7602 71.2057L38.9668 73.0934L40.7786 73.855C41.0884 73.9852 41.3364 74.1565 41.5226 74.3686C41.7114 74.5745 41.8463 74.8023 41.9273 75.0522C42.011 75.2957 42.0429 75.5473 42.0231 75.8068C42.0096 76.069 41.9537 76.3171 41.8553 76.5511ZM40.9921 76.1883C41.0665 76.0112 41.1001 75.843 41.0926 75.6836C41.0942 75.5206 41.0612 75.369 40.9935 75.229C40.9259 75.0889 40.8287 74.9662 40.7018 74.8608C40.5776 74.7491 40.4302 74.6573 40.2594 74.5855L38.6278 73.8997L37.6869 76.1384L39.3469 76.8362C39.6884 76.9797 40.0092 76.9955 40.3092 76.8835C40.6156 76.7742 40.8433 76.5424 40.9921 76.1883ZM43.1998 77.8529L44.3523 77.0761L46.8904 75.4194L47.6587 75.7424L45.6851 80.4379L44.8503 80.087L46.2777 76.6911L46.2303 76.6711L45.0603 77.463L42.5358 79.1141L41.7864 78.7991L43.76 74.1036L44.5853 74.4505L43.1619 77.837L43.1998 77.8529ZM50.2275 77.6704L48.5568 81.645L47.7126 81.2901L49.3832 77.3155L47.9319 76.7055L48.2389 75.9751L51.9953 77.554L51.6883 78.2844L50.2275 77.6704ZM53.2719 78.1017L53.1594 78.6349C53.6255 78.5704 53.9839 78.5498 54.2345 78.5733C54.4914 78.5994 54.7052 78.6484 54.8759 78.7202C55.3376 78.9142 55.6567 79.2083 55.8333 79.6025C56.0162 79.9994 55.9868 80.4856 55.7449 81.061L55.1388 82.5029C54.9129 83.0404 54.5901 83.3922 54.1706 83.5581C53.7575 83.7268 53.2948 83.7034 52.7825 83.4881C52.6118 83.4164 52.4206 83.3137 52.2088 83.18C51.9945 83.0527 51.7558 82.8594 51.4927 82.6L50.6036 84.7153L49.7973 84.3764L52.5604 77.8027L53.2719 78.1017ZM51.8157 81.8316C52.0561 82.074 52.2695 82.2568 52.4559 82.3798C52.6423 82.5028 52.8336 82.6055 53.0296 82.6879C53.1561 82.741 53.2784 82.7776 53.3965 82.7975C53.5237 82.8137 53.6429 82.8043 53.7544 82.7693C53.8685 82.7279 53.9729 82.6565 54.0677 82.555C54.1715 82.4497 54.2619 82.3054 54.339 82.1221L54.9052 80.7751C55.0567 80.4146 55.0844 80.1361 54.9885 79.9395C54.8952 79.7365 54.7221 79.5819 54.4691 79.4756C54.3806 79.4384 54.2696 79.4103 54.1361 79.3914C54.0027 79.3726 53.8589 79.3605 53.7049 79.3553C53.5571 79.3527 53.4054 79.3596 53.2497 79.376C53.0966 79.3861 52.9549 79.4046 52.8245 79.4317L51.8157 81.8316ZM56.7709 83.5573L57.9234 82.7804L60.4615 81.1237L61.2298 81.4467L59.2562 86.1422L58.4214 85.7913L59.8488 82.3954L59.8014 82.3755L58.6314 83.1673L56.1069 84.8185L55.3575 84.5035L57.3311 79.808L58.1564 80.1549L56.733 83.5413L56.7709 83.5573ZM60.2023 86.5399L62.18 81.8349L62.9863 82.1738L62.145 84.1753L62.9418 84.5103C63.0303 84.5475 63.1202 84.5815 63.2114 84.6124C63.3052 84.637 63.3994 84.6431 63.4939 84.6307C63.5884 84.6184 63.6845 84.5844 63.7823 84.5287C63.8891 84.4694 63.9997 84.3745 64.1141 84.244L65.1396 83.0789L65.9743 83.4298L64.9354 84.6004C64.7638 84.7962 64.591 84.9505 64.4171 85.0634C64.2521 85.1726 64.0704 85.2153 63.8721 85.1915C64.0658 85.3325 64.1774 85.5096 64.2068 85.7229C64.2389 85.9298 64.2437 86.1662 64.2212 86.4321L64.0821 88.1707L63.2283 87.8118L63.3667 86.3408C63.3799 86.1678 63.3735 86.0237 63.3474 85.9086C63.3304 85.7898 63.2932 85.6923 63.236 85.6162C63.1813 85.5337 63.1124 85.4675 63.0292 85.4176C62.9486 85.3614 62.8546 85.3108 62.7471 85.2656L61.8459 84.8868L61.0086 86.8788L60.2023 86.5399ZM68.6254 84.4883C68.8974 84.6026 69.1565 84.7562 69.4028 84.949C69.6582 85.1382 69.846 85.3995 69.9663 85.7328L69.2234 86.1461C69.0971 85.8623 68.9516 85.6597 68.7868 85.5384C68.631 85.4134 68.4835 85.3216 68.3444 85.2631C68.2242 85.2126 68.0898 85.1784 67.941 85.1606C67.7986 85.1453 67.655 85.1594 67.5103 85.2028C67.3719 85.2488 67.2374 85.3299 67.1067 85.4461C66.9849 85.5586 66.8816 85.7161 66.7965 85.9184L66.3499 86.9809C66.2649 87.1832 66.2234 87.3704 66.2255 87.5425C66.2303 87.7082 66.2646 87.8566 66.3286 87.9876C66.3926 88.1187 66.4798 88.2298 66.5903 88.3209C66.7072 88.4146 66.832 88.4894 66.9648 88.5453C67.1039 88.6037 67.2835 88.6457 67.5035 88.6712C67.7297 88.6993 67.9462 88.6713 68.1528 88.587L68.4163 89.3674C68.1019 89.4957 67.7915 89.5438 67.485 89.5117C67.1848 89.4823 66.8988 89.4105 66.6269 89.2962C66.3486 89.1792 66.1129 89.0318 65.9198 88.8539C65.7267 88.676 65.5754 88.4784 65.4658 88.2612C65.3625 88.0466 65.3059 87.8182 65.2961 87.576C65.2953 87.3301 65.3467 87.0838 65.4504 86.8372L66.0365 85.4427C66.1482 85.1771 66.2998 84.9581 66.4913 84.7856C66.6829 84.6131 66.8959 84.4869 67.1305 84.4069C67.365 84.3269 67.6089 84.2954 67.8621 84.3126C68.1244 84.3261 68.3788 84.3846 68.6254 84.4883ZM74.7874 86.9221C74.6864 87.1624 74.5293 87.368 74.3161 87.5388C74.1092 87.7123 73.8761 87.8599 73.6166 87.9815C73.3661 88.0994 73.1065 88.1949 72.8376 88.268C72.5752 88.3437 72.3346 88.4025 72.116 88.4446C71.9613 88.4763 71.781 88.5159 71.575 88.5632C71.3754 88.6133 71.1736 88.6773 70.9697 88.7553C70.7721 88.8359 70.5882 88.9372 70.4179 89.0591C70.2539 89.1836 70.132 89.3408 70.0523 89.5305L69.9486 89.7771L73.022 91.069L72.715 91.7994L68.7879 90.1487L69.1108 89.3803C69.2225 89.1147 69.3704 88.8867 69.5546 88.6962C69.7389 88.5058 69.9481 88.3444 70.1822 88.2122C70.4164 88.08 70.6661 87.9728 70.9312 87.8908C71.1991 87.8025 71.471 87.7307 71.7472 87.6757C71.9784 87.6389 72.2073 87.59 72.4339 87.529C72.6668 87.4706 72.882 87.4011 73.0796 87.3205C73.2799 87.2335 73.453 87.1314 73.599 87.0142C73.7451 86.897 73.8513 86.7593 73.9177 86.6012C73.9895 86.4305 74.0127 86.2691 73.9873 86.117C73.9709 85.9613 73.9186 85.8202 73.8303 85.6939C73.7447 85.5611 73.634 85.4439 73.4982 85.3422C73.3687 85.2431 73.2281 85.1617 73.0763 85.0979C72.8107 84.9862 72.5441 84.93 72.2766 84.9291C72.0117 84.922 71.7633 84.9552 71.5314 85.0289L71.3637 84.2329C71.6558 84.1399 71.9771 84.0926 72.3275 84.0911C72.6779 84.0895 73.0364 84.1658 73.4032 84.32C73.6688 84.4317 73.9148 84.5723 74.1412 84.7418C74.3676 84.9114 74.5495 85.1069 74.6871 85.3285C74.8273 85.5437 74.911 85.7872 74.9381 86.059C74.9679 86.3246 74.9177 86.6122 74.7874 86.9221ZM77.4822 92.62L77.0596 93.6255L76.2248 93.2746L76.6475 92.2691L73.8017 91.073L74.0967 90.371C74.7921 89.7257 75.4902 89.0741 76.1909 88.4161C76.8979 87.7609 77.6004 87.1074 78.2985 86.4558L79.1712 86.8226L75.0328 90.7198L76.9585 91.5292L77.7798 89.5751L78.6146 89.926L77.7932 91.8801L78.3529 92.1154L78.0419 92.8553L77.4822 92.62Z" fill="#D7D7D7" style="fill:#D7D7D7;fill:color(display-p3 0.8417 0.8417 0.8417);fill-opacity:1;"/>
<path d="M74.3953 50.4013C74.1462 50.2966 73.8602 50.0824 73.5595 49.6794L72.5039 48.2569C72.3937 48.111 72.1117 47.9925 71.9352 48.0178L70.1755 48.257C69.1362 48.4009 68.7304 47.998 68.5766 47.7454C68.4276 47.4947 68.2611 46.9436 68.8771 46.0964L69.8173 44.7938C69.9181 44.6592 69.9515 44.3691 69.8862 44.2089L69.2105 42.5534C68.8727 41.7256 69.1291 41.2472 69.3117 41.0363C69.4943 40.8255 69.9299 40.4998 70.7956 40.7033L72.3996 41.0844C72.5504 41.1202 72.8157 41.0547 72.9302 40.9535L74.4594 39.6441C75.1535 39.0454 75.6944 39.1401 75.9529 39.2487C76.2114 39.3574 76.6575 39.6776 76.7154 40.5923L76.8472 42.5944C76.8597 42.749 76.9986 42.9843 77.1297 43.0671L78.5243 43.9464C79.2801 44.4245 79.3521 44.9635 79.3246 45.2395C79.2971 45.5155 79.1347 46.0335 78.3116 46.3733L76.6541 47.0537C76.4939 47.119 76.3167 47.3432 76.2844 47.5121L76.0116 49.0953C75.8327 50.1262 75.3272 50.3948 75.0438 50.4637C74.8907 50.4989 74.6632 50.5139 74.3953 50.4013Z" fill="#FFBA6B" style="fill:#FFBA6B;fill:color(display-p3 1.0000 0.7294 0.4196);fill-opacity:1;"/>
<path d="M74.3953 50.4013C74.1462 50.2966 73.8602 50.0824 73.5595 49.6794L72.5039 48.2569C72.3937 48.111 72.1117 47.9925 71.9352 48.0178L70.1755 48.257C69.1362 48.4009 68.7304 47.998 68.5766 47.7454C68.4276 47.4947 68.2611 46.9436 68.8771 46.0964L69.8173 44.7938C69.9181 44.6592 69.9515 44.3691 69.8862 44.2089L69.2105 42.5534C68.8727 41.7256 69.1291 41.2472 69.3117 41.0363C69.4943 40.8255 69.9299 40.4998 70.7956 40.7033L72.3996 41.0844C72.5504 41.1202 72.8157 41.0547 72.9302 40.9535L74.4594 39.6441C75.1535 39.0454 75.6944 39.1401 75.9529 39.2487C76.2114 39.3574 76.6575 39.6776 76.7154 40.5923L76.8472 42.5944C76.8597 42.749 76.9986 42.9843 77.1297 43.0671L78.5243 43.9464C79.2801 44.4245 79.3521 44.9635 79.3246 45.2395C79.2971 45.5155 79.1347 46.0335 78.3116 46.3733L76.6541 47.0537C76.4939 47.119 76.3167 47.3432 76.2844 47.5121L76.0116 49.0953C75.8327 50.1262 75.3272 50.3948 75.0438 50.4637C74.8907 50.4989 74.6632 50.5139 74.3953 50.4013Z" fill="url(#paint2_linear_272_4132)" style=""/>
<path d="M85.1878 55.0597C84.9802 54.9724 84.7419 54.7939 84.4913 54.4581L83.6116 53.2726C83.5198 53.1511 83.2848 53.0523 83.1377 53.0734L81.6713 53.2728C80.8052 53.3927 80.467 53.0569 80.3389 52.8464C80.2147 52.6375 80.076 52.1782 80.5893 51.4723L81.3728 50.3868C81.4568 50.2746 81.4847 50.0328 81.4302 49.8993L80.8671 48.5197C80.5856 47.8299 80.7993 47.4312 80.9515 47.2555C81.1037 47.0799 81.4666 46.8084 82.188 46.978L83.5247 47.2956C83.6504 47.3254 83.8715 47.2709 83.9669 47.1865L85.2413 46.0953C85.8196 45.5965 86.2704 45.6753 86.4858 45.7659C86.7012 45.8564 87.073 46.1233 87.1212 46.8855L87.2311 48.5539C87.2415 48.6827 87.3572 48.8789 87.4665 48.9478L88.6286 49.6806C89.2585 50.079 89.3185 50.5282 89.2956 50.7582C89.2726 50.9882 89.1373 51.4198 88.4514 51.703L87.0702 52.27C86.9366 52.3245 86.789 52.5113 86.7621 52.652L86.5348 53.9713C86.3857 54.8304 85.9644 55.0542 85.7282 55.1117C85.6007 55.141 85.4111 55.1535 85.1878 55.0597Z" fill="#FFBA6B" style="fill:#FFBA6B;fill:color(display-p3 1.0000 0.7294 0.4196);fill-opacity:1;"/>
<path d="M85.1878 55.0597C84.9802 54.9724 84.7419 54.7939 84.4913 54.4581L83.6116 53.2726C83.5198 53.1511 83.2848 53.0523 83.1377 53.0734L81.6713 53.2728C80.8052 53.3927 80.467 53.0569 80.3389 52.8464C80.2147 52.6375 80.076 52.1782 80.5893 51.4723L81.3728 50.3868C81.4568 50.2746 81.4847 50.0328 81.4302 49.8993L80.8671 48.5197C80.5856 47.8299 80.7993 47.4312 80.9515 47.2555C81.1037 47.0799 81.4666 46.8084 82.188 46.978L83.5247 47.2956C83.6504 47.3254 83.8715 47.2709 83.9669 47.1865L85.2413 46.0953C85.8196 45.5965 86.2704 45.6753 86.4858 45.7659C86.7012 45.8564 87.073 46.1233 87.1212 46.8855L87.2311 48.5539C87.2415 48.6827 87.3572 48.8789 87.4665 48.9478L88.6286 49.6806C89.2585 50.079 89.3185 50.5282 89.2956 50.7582C89.2726 50.9882 89.1373 51.4198 88.4514 51.703L87.0702 52.27C86.9366 52.3245 86.789 52.5113 86.7621 52.652L86.5348 53.9713C86.3857 54.8304 85.9644 55.0542 85.7282 55.1117C85.6007 55.141 85.4111 55.1535 85.1878 55.0597Z" fill="url(#paint3_linear_272_4132)" style=""/>
<path d="M62.6175 45.5987C62.4099 45.5115 62.1716 45.3329 61.921 44.9972L61.0413 43.8117C60.9495 43.6902 60.7145 43.5914 60.5674 43.6125L59.101 43.8119C58.2349 43.9317 57.8967 43.596 57.7686 43.3855C57.6444 43.1766 57.5057 42.7173 58.019 42.0113L58.8025 40.9258C58.8865 40.8137 58.9144 40.5719 58.8599 40.4384L58.2968 39.0588C58.0153 38.369 58.229 37.9703 58.3812 37.7946C58.5334 37.6189 58.8963 37.3475 59.6177 37.5171L60.9544 37.8347C61.0801 37.8645 61.3012 37.8099 61.3966 37.7256L62.671 36.6344C63.2493 36.1355 63.7001 36.2144 63.9155 36.3049C64.1309 36.3955 64.5027 36.6623 64.5509 37.4246L64.6608 39.093C64.6712 39.2218 64.7869 39.4179 64.8962 39.4869L66.0583 40.2196C66.6881 40.618 66.7482 41.0673 66.7253 41.2973C66.7023 41.5273 66.567 41.9589 65.8811 42.2421L64.4998 42.809C64.3663 42.8635 64.2187 43.0503 64.1918 43.1911L63.9644 44.5104C63.8154 45.3694 63.394 45.5933 63.1579 45.6507C63.0304 45.6801 62.8408 45.6926 62.6175 45.5987Z" fill="#FFBA6B" style="fill:#FFBA6B;fill:color(display-p3 1.0000 0.7294 0.4196);fill-opacity:1;"/>
<path d="M62.6175 45.5987C62.4099 45.5115 62.1716 45.3329 61.921 44.9972L61.0413 43.8117C60.9495 43.6902 60.7145 43.5914 60.5674 43.6125L59.101 43.8119C58.2349 43.9317 57.8967 43.596 57.7686 43.3855C57.6444 43.1766 57.5057 42.7173 58.019 42.0113L58.8025 40.9258C58.8865 40.8137 58.9144 40.5719 58.8599 40.4384L58.2968 39.0588C58.0153 38.369 58.229 37.9703 58.3812 37.7946C58.5334 37.6189 58.8963 37.3475 59.6177 37.5171L60.9544 37.8347C61.0801 37.8645 61.3012 37.8099 61.3966 37.7256L62.671 36.6344C63.2493 36.1355 63.7001 36.2144 63.9155 36.3049C64.1309 36.3955 64.5027 36.6623 64.5509 37.4246L64.6608 39.093C64.6712 39.2218 64.7869 39.4179 64.8962 39.4869L66.0583 40.2196C66.6881 40.618 66.7482 41.0673 66.7253 41.2973C66.7023 41.5273 66.567 41.9589 65.8811 42.2421L64.4998 42.809C64.3663 42.8635 64.2187 43.0503 64.1918 43.1911L63.9644 44.5104C63.8154 45.3694 63.394 45.5933 63.1579 45.6507C63.0304 45.6801 62.8408 45.6926 62.6175 45.5987Z" fill="url(#paint4_linear_272_4132)" style=""/>
<defs>
<linearGradient id="paint0_linear_272_4132" x1="108.264" y1="148.711" x2="108.264" y2="270.56" gradientUnits="userSpaceOnUse">
<stop stop-color="#FFD66B" style="stop-color:#FFD66B;stop-color:color(display-p3 1.0000 0.8392 0.4196);stop-opacity:1;"/>
<stop offset="1" stop-color="#FFA469" style="stop-color:#FFA469;stop-color:color(display-p3 1.0000 0.6431 0.4118);stop-opacity:1;"/>
</linearGradient>
<linearGradient id="paint1_linear_272_4132" x1="139.164" y1="13.3242" x2="139.164" y2="98.4654" gradientUnits="userSpaceOnUse">
<stop stop-color="#FFD66B" style="stop-color:#FFD66B;stop-color:color(display-p3 1.0000 0.8392 0.4196);stop-opacity:1;"/>
<stop offset="1" stop-color="#FFA469" style="stop-color:#FFA469;stop-color:color(display-p3 1.0000 0.6431 0.4118);stop-opacity:1;"/>
</linearGradient>
<linearGradient id="paint2_linear_272_4132" x1="75.9514" y1="39.2481" x2="71.7336" y2="49.2825" gradientUnits="userSpaceOnUse">
<stop stop-color="#FFD66B" style="stop-color:#FFD66B;stop-color:color(display-p3 1.0000 0.8392 0.4196);stop-opacity:1;"/>
<stop offset="1" stop-color="#FFA469" style="stop-color:#FFA469;stop-color:color(display-p3 1.0000 0.6431 0.4118);stop-opacity:1;"/>
</linearGradient>
<linearGradient id="paint3_linear_272_4132" x1="86.4846" y1="45.7653" x2="82.9698" y2="54.1273" gradientUnits="userSpaceOnUse">
<stop stop-color="#FFD66B" style="stop-color:#FFD66B;stop-color:color(display-p3 1.0000 0.8392 0.4196);stop-opacity:1;"/>
<stop offset="1" stop-color="#FFA469" style="stop-color:#FFA469;stop-color:color(display-p3 1.0000 0.6431 0.4118);stop-opacity:1;"/>
</linearGradient>
<linearGradient id="paint4_linear_272_4132" x1="63.9142" y1="36.3044" x2="60.3994" y2="44.6664" gradientUnits="userSpaceOnUse">
<stop stop-color="#FFD66B" style="stop-color:#FFD66B;stop-color:color(display-p3 1.0000 0.8392 0.4196);stop-opacity:1;"/>
<stop offset="1" stop-color="#FFA469" style="stop-color:#FFA469;stop-color:color(display-p3 1.0000 0.6431 0.4118);stop-opacity:1;"/>
</linearGradient>
</defs>
</svg>
