<svg width="99" height="131" viewBox="0 0 99 131" fill="none" xmlns="http://www.w3.org/2000/svg">
<rect width="87.6677" height="103.344" rx="6.8866" transform="matrix(0.948816 -0.315831 0.316075 0.948734 10.1094 30.1797)" fill="#B9BABD" style="fill:#B9BABD;fill:color(display-p3 0.7255 0.7294 0.7412);fill-opacity:1;"/>
<path fill-rule="evenodd" clip-rule="evenodd" d="M35.1408 57.6497C34.8602 56.8076 35.3155 55.8978 36.1576 55.6174L86.6827 38.7992C87.5248 38.5189 88.4349 38.9743 88.7155 39.8164C88.996 40.6584 88.5407 41.5683 87.6986 41.8486L37.1735 58.6668C36.3314 58.9471 35.4213 58.4917 35.1408 57.6497Z" fill="#D7D7D7" style="fill:#D7D7D7;fill:color(display-p3 0.8417 0.8417 0.8417);fill-opacity:1;"/>
<path fill-rule="evenodd" clip-rule="evenodd" d="M37.0783 63.4778C36.7977 62.6357 37.253 61.7259 38.0951 61.4456L85.2294 45.7561C86.0715 45.4757 86.9816 45.9311 87.2622 46.7732C87.5427 47.6152 87.0874 48.5251 86.2453 48.8054L39.111 64.4949C38.2689 64.7752 37.3588 64.3198 37.0783 63.4778Z" fill="#D7D7D7" style="fill:#D7D7D7;fill:color(display-p3 0.8417 0.8417 0.8417);fill-opacity:1;"/>
<path fill-rule="evenodd" clip-rule="evenodd" d="M39.2111 69.8684C38.9305 69.0264 39.3858 68.1165 40.2279 67.8362L90.0749 51.2437C90.917 50.9634 91.8271 51.4188 92.1076 52.2608C92.3881 53.1029 91.9329 54.0127 91.0908 54.2931L41.2438 70.8855C40.4017 71.1658 39.4916 70.7105 39.2111 69.8684Z" fill="#D7D7D7" style="fill:#D7D7D7;fill:color(display-p3 0.8417 0.8417 0.8417);fill-opacity:1;"/>
<path fill-rule="evenodd" clip-rule="evenodd" d="M41.34 76.2669C41.0594 75.4248 41.5147 74.5149 42.3568 74.2346L88.1348 58.9966C88.9769 58.7163 89.887 59.1716 90.1676 60.0137C90.4481 60.8558 89.9928 61.7656 89.1507 62.0459L43.3727 77.284C42.5306 77.5643 41.6205 77.1089 41.34 76.2669Z" fill="#D7D7D7" style="fill:#D7D7D7;fill:color(display-p3 0.8417 0.8417 0.8417);fill-opacity:1;"/>
<path fill-rule="evenodd" clip-rule="evenodd" d="M43.2736 82.0794C42.993 81.2373 43.4483 80.3274 44.2904 80.0471L92.781 63.9061C93.6232 63.6258 94.5333 64.0812 94.8138 64.9233C95.0943 65.7653 94.6391 66.6752 93.7969 66.9555L45.3063 83.0965C44.4642 83.3768 43.5541 82.9214 43.2736 82.0794Z" fill="#D7D7D7" style="fill:#D7D7D7;fill:color(display-p3 0.8417 0.8417 0.8417);fill-opacity:1;"/>
<path fill-rule="evenodd" clip-rule="evenodd" d="M29.1329 39.634C28.8524 38.792 29.3077 37.8821 30.1498 37.6018L74.5714 22.8153C75.4136 22.5349 76.3237 22.9903 76.6042 23.8324C76.8847 24.6744 76.4295 25.5843 75.5873 25.8646L31.1657 40.6512C30.3236 40.9315 29.4135 40.4761 29.1329 39.634Z" fill="#FFA469" style="fill:#FFA469;fill:color(display-p3 1.0000 0.6431 0.4118);fill-opacity:1;"/>
<path fill-rule="evenodd" clip-rule="evenodd" d="M31.2736 46.0208C30.993 45.1787 31.4483 44.2689 32.2904 43.9885L64.5052 33.2653C65.3473 32.9849 66.2574 33.4403 66.5379 34.2824C66.8185 35.1244 66.3632 36.0343 65.5211 36.3146L33.3063 47.0379C32.4642 47.3182 31.5541 46.8628 31.2736 46.0208Z" fill="#FFA469" style="fill:#FFA469;fill:color(display-p3 1.0000 0.6431 0.4118);fill-opacity:1;"/>
<rect width="87.6677" height="103.344" rx="6.8866" transform="matrix(0.985407 -0.170216 0.170469 0.985363 16.0537 21.9062)" fill="#D7D7D7" style="fill:#D7D7D7;fill:color(display-p3 0.8417 0.8417 0.8417);fill-opacity:1;"/>
<path fill-rule="evenodd" clip-rule="evenodd" d="M36.6909 52.814C36.5396 51.9394 37.126 51.108 38.0006 50.9569L90.4742 41.8928C91.3488 41.7417 92.1805 42.3282 92.3318 43.2028C92.4831 44.0774 91.8967 44.9088 91.0221 45.0599L38.5485 54.124C37.6739 54.2751 36.8422 53.6886 36.6909 52.814Z" fill="#D7D7D7" style="fill:#D7D7D7;fill:color(display-p3 0.8417 0.8417 0.8417);fill-opacity:1;"/>
<path fill-rule="evenodd" clip-rule="evenodd" d="M37.7339 58.8648C37.5826 57.9902 38.169 57.1588 39.0436 57.0077L87.9956 48.5519C88.8702 48.4008 89.7019 48.9873 89.8532 49.8619C90.0045 50.7364 89.4181 51.5679 88.5435 51.719L39.5915 60.1748C38.7169 60.3258 37.8852 59.7393 37.7339 58.8648Z" fill="#D7D7D7" style="fill:#D7D7D7;fill:color(display-p3 0.8417 0.8417 0.8417);fill-opacity:1;"/>
<path fill-rule="evenodd" clip-rule="evenodd" d="M38.8863 65.5015C38.735 64.6269 39.3213 63.7955 40.1959 63.6444L91.9652 54.702C92.8398 54.5509 93.6715 55.1374 93.8228 56.012C93.9741 56.8865 93.3877 57.718 92.5131 57.869L40.7438 66.8115C39.8692 66.9626 39.0376 66.3761 38.8863 65.5015Z" fill="#D7D7D7" style="fill:#D7D7D7;fill:color(display-p3 0.8417 0.8417 0.8417);fill-opacity:1;"/>
<path fill-rule="evenodd" clip-rule="evenodd" d="M40.0308 72.1499C39.8795 71.2754 40.4658 70.4439 41.3404 70.2929L88.8839 62.0804C89.7585 61.9293 90.5901 62.5158 90.7414 63.3904C90.8927 64.2649 90.3064 65.0964 89.4318 65.2474L41.8883 73.4599C41.0137 73.611 40.1821 73.0245 40.0308 72.1499Z" fill="#D7D7D7" style="fill:#D7D7D7;fill:color(display-p3 0.8417 0.8417 0.8417);fill-opacity:1;"/>
<path fill-rule="evenodd" clip-rule="evenodd" d="M41.0738 78.1851C40.9225 77.3105 41.5088 76.4791 42.3834 76.328L92.7441 67.6289C93.6187 67.4778 94.4503 68.0643 94.6016 68.9389C94.7529 69.8134 94.1666 70.6449 93.292 70.796L42.9313 79.4951C42.0567 79.6462 41.2251 79.0597 41.0738 78.1851Z" fill="#D7D7D7" style="fill:#D7D7D7;fill:color(display-p3 0.8417 0.8417 0.8417);fill-opacity:1;"/>
<path fill-rule="evenodd" clip-rule="evenodd" d="M33.4488 34.1031C33.2975 33.2285 33.8838 32.3971 34.7584 32.246L80.8932 24.2768C81.7678 24.1257 82.5994 24.7122 82.7507 25.5868C82.902 26.4614 82.3157 27.2928 81.4411 27.4439L35.3063 35.4131C34.4317 35.5641 33.6001 34.9776 33.4488 34.1031Z" fill="#FFA469" style="fill:#FFA469;fill:color(display-p3 1.0000 0.6431 0.4118);fill-opacity:1;"/>
<path fill-rule="evenodd" clip-rule="evenodd" d="M34.605 40.7359C34.4537 39.8613 35.0401 39.0299 35.9147 38.8788L69.3718 33.0995C70.2464 32.9485 71.078 33.535 71.2293 34.4095C71.3806 35.2841 70.7943 36.1155 69.9197 36.2666L36.4626 42.0459C35.588 42.1969 34.7563 41.6104 34.605 40.7359Z" fill="#FFA469" style="fill:#FFA469;fill:color(display-p3 1.0000 0.6431 0.4118);fill-opacity:1;"/>
<rect x="23.9951" y="6.03516" width="93.543" height="110.274" rx="6.8866" transform="rotate(0.0335059 23.9951 6.03516)" fill="#F3F0F0" style="fill:#F3F0F0;fill:color(display-p3 0.9529 0.9412 0.9412);fill-opacity:1;"/>
<path fill-rule="evenodd" clip-rule="evenodd" d="M40.3689 63.832C40.3696 62.7275 41.2655 61.8326 42.3701 61.8332L98.6191 61.8661C99.7236 61.8667 100.619 62.7627 100.618 63.8673C100.617 64.9718 99.7213 65.8667 98.6167 65.8661L42.3678 65.8332C41.2632 65.8326 40.3683 64.9366 40.3689 63.832Z" fill="#D7D7D7" style="fill:#D7D7D7;fill:color(display-p3 0.8417 0.8417 0.8417);fill-opacity:1;"/>
<path fill-rule="evenodd" clip-rule="evenodd" d="M40.3572 71.4727C40.3579 70.3681 41.2538 69.4732 42.3584 69.4738L94.7941 69.5045C95.8987 69.5051 96.7936 70.4011 96.7929 71.5057C96.7923 72.6102 95.8963 73.5051 94.7918 73.5045L42.3561 73.4738C41.2515 73.4732 40.3566 72.5772 40.3572 71.4727Z" fill="#D7D7D7" style="fill:#D7D7D7;fill:color(display-p3 0.8417 0.8417 0.8417);fill-opacity:1;"/>
<path fill-rule="evenodd" clip-rule="evenodd" d="M40.3572 79.8555C40.3579 78.7509 41.2538 77.856 42.3584 77.8566L97.8447 77.8891C98.9493 77.8897 99.8442 78.7857 99.8435 79.8903C99.8429 80.9948 98.9469 81.8897 97.8424 81.8891L42.3561 81.8566C41.2515 81.856 40.3566 80.96 40.3572 79.8555Z" fill="#D7D7D7" style="fill:#D7D7D7;fill:color(display-p3 0.8417 0.8417 0.8417);fill-opacity:1;"/>
<path fill-rule="evenodd" clip-rule="evenodd" d="M40.3494 88.25C40.3501 87.1454 41.246 86.2505 42.3506 86.2512L93.261 86.2809C94.3656 86.2816 95.2605 87.1775 95.2598 88.2821C95.2592 89.3867 94.3632 90.2816 93.2587 90.2809L42.3482 90.2512C41.2437 90.2505 40.3488 89.3546 40.3494 88.25Z" fill="#D7D7D7" style="fill:#D7D7D7;fill:color(display-p3 0.8417 0.8417 0.8417);fill-opacity:1;"/>
<path fill-rule="evenodd" clip-rule="evenodd" d="M40.3416 95.875C40.3422 94.7704 41.2382 93.8755 42.3428 93.8762L96.3038 93.9077C97.4083 93.9084 98.3033 94.8043 98.3026 95.9089C98.302 97.0135 97.406 97.9084 96.3014 97.9077L42.3404 97.8762C41.2359 97.8755 40.341 96.9796 40.3416 95.875Z" fill="#D7D7D7" style="fill:#D7D7D7;fill:color(display-p3 0.8417 0.8417 0.8417);fill-opacity:1;"/>
<path fill-rule="evenodd" clip-rule="evenodd" d="M40.3768 40.1953C40.3774 39.0907 41.2734 38.1958 42.3779 38.1965L91.7631 38.2254C92.8676 38.226 93.7625 39.122 93.7619 40.2265C93.7612 41.3311 92.8653 42.226 91.7607 42.2254L42.3756 42.1965C41.271 42.1958 40.3761 41.2999 40.3768 40.1953Z" fill="#FFA469" style="fill:#FFA469;fill:color(display-p3 1.0000 0.6431 0.4118);fill-opacity:1;"/>
<path fill-rule="evenodd" clip-rule="evenodd" d="M40.3807 48.582C40.3813 47.4775 41.2773 46.5826 42.3818 46.5832L78.0394 46.6041C79.1439 46.6047 80.0388 47.5007 80.0382 48.6052C80.0375 49.7098 79.1416 50.6047 78.037 50.6041L42.3795 50.5832C41.2749 50.5826 40.38 49.6866 40.3807 48.582Z" fill="#FFA469" style="fill:#FFA469;fill:color(display-p3 1.0000 0.6431 0.4118);fill-opacity:1;"/>
<path d="M58.003 29.4779C57.793 29.4775 57.5731 29.4371 57.3532 29.3467L56.374 28.9648L55.3932 29.3529C54.8628 29.5619 54.3229 29.5108 53.9235 29.2201C53.524 28.9293 53.315 28.4289 53.3461 27.8589L53.4081 26.8091L52.7397 25.9978C52.3805 25.5471 52.2615 25.0269 52.4225 24.5472C52.5734 24.0774 52.9841 23.7182 53.5343 23.5793L54.5548 23.3213L55.1265 22.4324C55.7384 21.4735 57.0484 21.4761 57.6565 22.4372L58.2248 23.3283L59.2443 23.5903C59.794 23.7313 60.2034 24.0921 60.3525 24.5624C60.5015 25.0327 60.3805 25.5625 60.0197 26.0018L59.3481 26.8105L59.4061 27.8606C59.435 28.4307 59.2241 28.9203 58.8235 29.2195C58.5832 29.389 58.303 29.4785 58.003 29.4779Z" fill="#FFA469" style="fill:#FFA469;fill:color(display-p3 1.0000 0.6431 0.4118);fill-opacity:1;"/>
<path d="M68.9991 29.5013C68.7891 29.5009 68.5692 29.4605 68.3493 29.3701L67.3701 28.9882L66.3893 29.3763C65.8589 29.5853 65.319 29.5343 64.9196 29.2435C64.5201 28.9527 64.3111 28.4523 64.3422 27.8824L64.4042 26.8325L63.7358 26.0212C63.3766 25.5705 63.2576 25.0503 63.4186 24.5706C63.5695 24.1009 63.9802 23.7417 64.5304 23.6027L65.5509 23.3447L66.1226 22.4558C66.7345 21.497 68.0445 21.4995 68.6526 22.4607L69.2209 23.3518L70.2404 23.6137C70.7901 23.7548 71.1994 24.1156 71.3485 24.5859C71.4976 25.0562 71.3766 25.5859 71.0158 26.0252L70.3442 26.8339L70.4022 27.884C70.4311 28.4541 70.2202 28.9437 69.8196 29.2429C69.5793 29.4125 69.2991 29.5019 68.9991 29.5013Z" fill="#FFA469" style="fill:#FFA469;fill:color(display-p3 1.0000 0.6431 0.4118);fill-opacity:1;"/>
<path d="M46.9991 29.4584C46.7891 29.458 46.5692 29.4176 46.3493 29.3271L45.3701 28.9452L44.3893 29.3334C43.8589 29.5423 43.319 29.4913 42.9196 29.2005C42.5201 28.9098 42.3111 28.4094 42.3422 27.8394L42.4042 26.7895L41.7358 25.9782C41.3766 25.5275 41.2576 25.0073 41.4186 24.5276C41.5695 24.0579 41.9802 23.6987 42.5304 23.5598L43.5509 23.3017L44.1226 22.4128C44.7345 21.454 46.0445 21.4565 46.6526 22.4177L47.2209 23.3088L48.2404 23.5708C48.7901 23.7118 49.1994 24.0726 49.3485 24.5429C49.4976 25.0132 49.3766 25.5429 49.0158 25.9823L48.3442 26.791L48.4022 27.8411C48.4311 28.4111 48.2202 28.9007 47.8196 29.2C47.5793 29.3695 47.2991 29.459 46.9991 29.4584Z" fill="#FFA469" style="fill:#FFA469;fill:color(display-p3 1.0000 0.6431 0.4118);fill-opacity:1;"/>
<path d="M24.1836 87.0326C22.9364 87.0326 21.7683 86.5576 20.8972 85.6667L17.8881 82.6574C17.6505 82.4199 17.017 82.1625 16.7002 82.1625H12.4239C9.85027 82.1625 7.77152 80.0836 7.77152 77.5099V73.2338C7.77152 72.9171 7.51416 72.2836 7.27659 72.046L4.2674 69.0368C3.39631 68.1657 2.90137 66.9976 2.90137 65.7503C2.90137 64.5031 3.37651 63.335 4.2674 62.4639L7.27659 59.4546C7.51416 59.2171 7.77152 58.5836 7.77152 58.2668L7.77152 53.9908C7.77152 51.4171 9.85027 49.3382 12.4239 49.3382H16.7002C17.017 49.3382 17.6505 49.0808 17.8881 48.8432L20.8972 45.834C22.6394 44.0918 25.7278 44.0918 27.47 45.834L30.4792 48.8432C30.7168 49.0808 31.3503 49.3382 31.6671 49.3382H35.9433C38.517 49.3382 40.5957 51.4171 40.5957 53.9908V58.2668C40.5957 58.5836 40.8531 59.2171 41.0907 59.4546L44.0999 62.4639C44.971 63.335 45.4659 64.5031 45.4659 65.7503C45.4659 66.9976 44.9908 68.1657 44.0999 69.0368L41.0907 72.046C40.8531 72.2836 40.5957 72.9171 40.5957 73.2338V77.5099C40.5957 80.0836 38.517 82.1625 35.9433 82.1625H31.6671C31.3503 82.1625 30.7168 82.4199 30.4792 82.6574L27.47 85.6667C26.5989 86.5576 25.4309 87.0326 24.1836 87.0326Z" fill="url(#paint0_linear_252_3474)" style=""/>
<path d="M21.3745 72.8422C20.9786 72.8422 20.6024 72.6838 20.3253 72.4066L14.7226 66.8039C14.1485 66.2298 14.1485 65.2795 14.7226 64.7054C15.2967 64.1313 16.247 64.1313 16.8211 64.7054L21.3745 69.2588L31.5504 59.0829C32.1246 58.5088 33.0748 58.5088 33.649 59.0829C34.2231 59.6571 34.2231 60.6073 33.649 61.1815L22.4238 72.4066C22.1466 72.6838 21.7705 72.8422 21.3745 72.8422Z" fill="white" style="fill:white;fill-opacity:1;"/>
<defs>
<linearGradient id="paint0_linear_252_3474" x1="24.1836" y1="44.5273" x2="24.1836" y2="87.0326" gradientUnits="userSpaceOnUse">
<stop stop-color="#FFD66B" style="stop-color:#FFD66B;stop-color:color(display-p3 1.0000 0.8392 0.4196);stop-opacity:1;"/>
<stop offset="1" stop-color="#FFA469" style="stop-color:#FFA469;stop-color:color(display-p3 1.0000 0.6431 0.4118);stop-opacity:1;"/>
</linearGradient>
</defs>
</svg>
