<svg width="76" height="133" viewBox="0 0 76 133" fill="none" xmlns="http://www.w3.org/2000/svg">
<g clip-path="url(#clip0_252_3559)">
<path d="M7.37766 4.91391C1.39167 14.3841 1.78328 27.5163 8.32498 36.6075C12.6849 42.6671 19.2228 46.7305 24.4182 52.0885C29.6097 57.4427 33.5557 65.337 30.8144 72.2933C28.0247 79.3734 19.8531 82.255 13.7366 86.7387C7.07184 91.6239 2.3912 99.1692 0.955308 107.337C-0.480585 115.506 1.35064 124.21 5.94923 131.095H69.5089C69.5089 131.095 80.6753 109.69 66.3201 93.3723C51.9649 77.0584 44.2559 76.792 44.7855 66.0949C45.3188 55.3978 52.7593 51.9196 57.0148 47.9087C61.2702 43.8977 82.003 34.5364 69.7737 4.91016H7.37766V4.91391Z" fill="white" style="fill:white;fill-opacity:1;"/>
<path d="M7.00145 4.9191C7.00145 4.9191 7.37068 4.9116 8.09422 4.9116C8.82149 4.9116 9.90308 4.90784 11.3166 4.90409C14.1548 4.90034 18.3357 4.89284 23.7212 4.88533C34.5035 4.87783 50.1043 4.86657 69.3938 4.85156H69.4385L69.4572 4.89283C70.3262 7.1103 71.2026 9.3953 71.8255 11.8154C72.4669 14.2242 72.9891 16.7381 73.1756 19.3382C73.3695 21.9347 73.2875 24.6174 72.7728 27.2813C72.2432 29.9378 71.2959 32.568 69.901 35.0031C69.2073 36.2225 68.3905 37.3819 67.5066 38.4962C66.6152 39.6068 65.6231 40.6499 64.5789 41.648C63.5308 42.6423 62.4157 43.5803 61.2558 44.477C60.0996 45.3775 58.8912 46.2292 57.7127 47.126C57.1234 47.5724 56.5826 48.0752 56.0195 48.5818C55.4526 49.077 54.8707 49.5535 54.2852 50.0225C53.1104 50.9681 51.9244 51.9136 50.8055 52.9454C48.5454 54.979 46.6358 57.5191 45.5841 60.4795C45.0731 61.9541 44.7076 63.4999 44.5883 65.0833C44.5584 65.4772 44.5025 65.875 44.4876 66.2689C44.4801 66.6667 44.4577 67.0644 44.4764 67.4621C44.4801 68.2575 44.5696 69.0567 44.7151 69.8409C45.0134 71.413 45.6698 72.9176 46.6209 74.2195C47.5607 75.5365 48.7169 76.6959 49.9178 77.8102C52.3309 80.0315 54.8894 82.1476 57.3435 84.4364C59.8087 86.7101 62.1994 89.1114 64.5043 91.6366C65.6493 92.9048 66.8092 94.1767 67.8087 95.5912C68.8418 96.9795 69.7108 98.4916 70.4716 100.06C71.9746 103.212 72.9033 106.667 73.2091 110.198C73.5373 113.732 73.2875 117.334 72.59 120.858C72.2469 122.621 71.7882 124.369 71.225 126.088C70.6618 127.806 70.0129 129.502 69.2073 131.138L69.1812 131.191H67.4842C45.7855 131.191 24.8513 131.191 5.5581 131.187H5.50962L5.48351 131.146C2.45508 126.572 0.657422 121.319 0.161387 116.051C-0.364486 110.783 0.441106 105.504 2.36184 100.814C4.25648 96.109 7.20285 91.9818 10.7646 88.74C12.5399 87.1041 14.5203 85.7684 16.5007 84.5302C18.4849 83.292 20.4877 82.1439 22.3786 80.8907C24.262 79.6338 26.0783 78.2943 27.5515 76.6584C29.0321 75.0337 30.1622 73.1277 30.7515 71.0753C31.3445 69.0229 31.3519 66.8693 31.0051 64.8432C30.6508 62.8095 29.9422 60.8847 29.0396 59.1138C28.137 57.339 27.0405 55.7107 25.8396 54.2248C24.6424 52.7353 23.3072 51.4108 21.9683 50.1614C19.2793 47.67 16.5231 45.4901 14.0467 43.2501C12.8047 42.132 11.6299 41.0064 10.5483 39.847C9.47417 38.6801 8.48956 37.4869 7.64667 36.2488C5.94598 33.7799 4.77862 31.176 4.01032 28.6658C3.24203 26.152 2.86161 23.7206 2.7721 21.4844C2.71989 20.9254 2.73853 20.3776 2.74226 19.8448C2.74972 19.3082 2.7348 18.7867 2.78702 18.2802C2.82431 17.7736 2.86534 17.2784 2.89891 16.7944C2.95485 16.3141 3.0369 15.8488 3.1003 15.3986C3.65974 11.7779 4.74505 9.1289 5.59167 7.43673C5.79307 7.00524 5.97209 6.62628 6.16603 6.32237C6.34878 6.01095 6.50169 5.7483 6.62104 5.53819C6.86719 5.12171 6.99399 4.9116 6.99399 4.9116C6.96789 4.95662 6.86346 5.14047 6.63223 5.5532C6.51288 5.76331 6.36369 6.02596 6.18467 6.33738C5.99446 6.64129 5.81917 7.02025 5.61778 7.45174C4.78235 9.14766 3.70823 11.7929 3.15625 15.4098C3.09284 15.8601 3.01452 16.3253 2.95858 16.8019C2.92128 17.2821 2.88772 17.7774 2.85042 18.2839C2.79821 18.7904 2.81313 19.312 2.8094 19.8448C2.8094 20.3776 2.79075 20.9254 2.84296 21.4807C2.9362 23.7131 3.32035 26.1332 4.09237 28.6396C4.86067 31.1422 6.02803 33.7311 7.72872 36.1887C8.57161 37.4194 9.55249 38.6088 10.6266 39.7719C11.7082 40.9276 12.883 42.0494 14.125 43.1638C16.6014 45.3963 19.3576 47.5724 22.0578 50.0676C23.4005 51.317 24.7394 52.6452 25.9478 54.1423C27.1562 55.6356 28.2564 57.2678 29.1664 59.0537C30.0727 60.836 30.7925 62.772 31.1505 64.8206C31.5049 66.8655 31.5011 69.0417 30.9007 71.1203C30.3039 73.1952 29.159 75.1275 27.6708 76.7672C26.1827 78.4218 24.359 79.7688 22.4718 81.0295C20.5734 82.2902 18.5744 83.4383 16.594 84.6765C14.6135 85.9147 12.6481 87.2467 10.884 88.8713C7.34458 92.0981 4.41312 96.2066 2.52968 100.885C0.620126 105.549 -0.178006 110.798 0.347866 116.036C0.843902 121.274 2.6341 126.497 5.64388 131.044L5.56556 131.003C24.8587 131.003 45.7929 131.003 67.4917 130.999H69.129L69.0432 131.052C69.8413 129.435 70.4903 127.739 71.0497 126.032C71.6091 124.321 72.0641 122.58 72.4073 120.824C73.101 117.316 73.3509 113.732 73.0227 110.22C72.7206 106.709 71.7956 103.275 70.3038 100.146C69.5467 98.5891 68.6851 97.0845 67.6558 95.7076C66.6637 94.3043 65.5075 93.0361 64.3625 91.7716C62.0614 89.2503 59.6744 86.8527 57.2129 84.579C54.7626 82.294 52.2115 80.1778 49.791 77.9491C48.5901 76.831 47.4227 75.6641 46.4717 74.3283C45.5057 73.0076 44.8381 71.4693 44.536 69.8747C44.3906 69.0755 44.3011 68.2688 44.2936 67.4658C44.275 67.0644 44.2974 66.6629 44.3048 66.2614C44.3197 65.86 44.3719 65.4622 44.4055 65.0645C44.5249 63.4699 44.8941 61.909 45.4125 60.4157C46.4754 57.4291 48.4074 54.8589 50.6824 52.8141C51.8087 51.7747 52.9985 50.8292 54.1733 49.8837C54.7626 49.411 55.3407 48.9382 55.9038 48.4467C56.4558 47.9514 57.0115 47.4374 57.6045 46.9871C58.7905 46.0866 59.9952 45.2387 61.1476 44.3382C62.3038 43.4452 63.4152 42.5109 64.4595 41.5204C65.5001 40.5298 66.4847 39.4905 67.3761 38.3874C68.2525 37.2768 69.0656 36.1287 69.7593 34.9168C71.1504 32.5004 72.0903 29.8853 72.6199 27.2476C73.1345 24.6024 73.2166 21.9309 73.0264 19.3457C72.8436 16.7531 72.3215 14.2505 71.6875 11.8491C71.0683 9.43657 70.1956 7.15532 69.3304 4.94161L69.3938 4.98288C50.1155 4.96788 34.5221 4.95662 23.7473 4.94912C18.3581 4.94161 14.1735 4.93411 11.3352 4.93036C9.91799 4.9266 8.83268 4.92285 8.10541 4.92285C7.37814 4.92285 7.00145 4.91535 7.00145 4.91535V4.9191Z" fill="#585960" style="fill:#585960;fill:color(display-p3 0.3451 0.3490 0.3765);fill-opacity:1;"/>
<path d="M66.8589 22.288C76.2202 23.8376 61.4585 40.5154 53.1042 47.0965C48.2669 50.9086 43.0716 55.0396 40.7742 60.7728C38.1672 67.2788 40.0991 74.5878 38.8348 81.1314C38.6259 82.2158 37.0297 82.0469 37.0446 80.9401C37.108 76.644 36.9924 72.3516 36.2837 68.1231C35.2805 62.1273 32.9868 56.1953 28.8096 51.7979C25.4008 48.2109 20.929 45.8283 17.2889 42.474C11.978 37.5776 6.52161 31.2629 5.98828 24.0327C5.98828 24.0327 16.185 15.7706 21.8465 16.8137C28.4628 18.0331 34.9747 28.3025 45.2236 27.1244C52.3807 26.3027 55.9909 20.487 66.8515 22.2842L66.8589 22.288Z" fill="url(#paint0_linear_252_3559)" style=""/>
<path d="M67.6857 111.57C67.4508 109.214 66.8242 106.55 64.7468 105.439C63.4862 104.767 61.9571 104.842 60.5771 105.206C59.1972 105.57 57.903 106.201 56.538 106.61C53.8489 107.413 50.9026 107.319 48.2695 106.347C45.7296 105.409 43.5478 103.713 41.1907 102.377C38.8336 101.045 36.07 100.051 33.4444 100.708C28.9166 101.841 26.5595 107.326 22.084 108.651C20.0924 109.24 17.9591 108.91 15.9339 108.448C13.9125 107.987 11.8799 107.394 9.80994 107.473C8.18757 107.533 6.49807 108.099 5.35681 109.217L5.368 109.202C5.368 109.202 5.34562 109.225 5.33443 109.24C5.14795 109.427 4.97639 109.626 4.81975 109.844C3.43234 111.705 3.20857 114.211 3.63747 116.485C4.11486 119.033 5.29714 121.385 6.5652 123.64C8.06076 126.297 9.75773 128.942 12.2267 130.713C15.2738 132.897 19.1078 131.388 22.8374 131.685C31.5385 132.375 40.9035 132.848 49.6047 132.169C54.2032 131.808 58.5109 132.311 62.1585 129.475C64.7244 127.479 66.3953 124.469 67.2009 121.306C68.0065 118.143 68.0027 114.823 67.6745 111.577L67.6857 111.57Z" fill="url(#paint1_linear_252_3559)" style=""/>
<path d="M0.899686 134.007C0.899686 134.007 0.724395 131.073 4.52858 129.438H71.3815C71.3815 129.438 74.8686 131.212 75.2975 133.944L0.899686 134.004V134.007Z" fill="#65666D" style="fill:#65666D;fill:color(display-p3 0.3961 0.4000 0.4275);fill-opacity:1;"/>
<path d="M69.971 5.27692C69.9374 5.29193 69.9001 5.31069 69.8665 5.3257L7.00429 4.92047C7.00429 4.92047 6.78051 4.77789 6.44858 4.51525C4.65465 3.10448 5.65791 0.207893 7.93296 0.226653L68.9453 0.721924C71.4628 0.740685 72.246 4.19257 69.971 5.27692Z" fill="#65666D" style="fill:#65666D;fill:color(display-p3 0.3961 0.4000 0.4275);fill-opacity:1;"/>
<path d="M37.0958 88.9714C37.7857 88.7276 38.61 89.4254 38.4906 90.1496C38.3676 90.8737 37.3606 91.264 36.7899 90.8024C36.2193 90.3447 36.3685 89.2716 37.0435 88.9902" fill="#FBD97E" style="fill:#FBD97E;fill:color(display-p3 0.9843 0.8510 0.4941);fill-opacity:1;"/>
<path d="M14.6083 39.8645C14.6083 39.8645 14.5263 39.7895 14.3845 39.6394C14.2353 39.4743 14.0302 39.2492 13.7766 38.9678C13.5193 38.6714 13.1799 38.3262 12.833 37.8872C12.4824 37.4482 12.0834 36.9492 11.647 36.4014C11.2405 35.8236 10.7817 35.2045 10.3193 34.5141C10.0992 34.1614 9.87173 33.7975 9.63676 33.4223C9.52115 33.2347 9.39807 33.0471 9.28618 32.8482C9.17802 32.6493 9.06987 32.4467 8.95798 32.2404C8.0405 30.6157 7.22372 28.7097 6.6419 26.6311C6.06009 24.5487 5.78783 22.4925 5.76172 20.6203C5.76172 20.1513 5.7841 19.6973 5.79529 19.2545C5.80647 19.0331 5.80274 18.8155 5.82512 18.6017C5.8475 18.3878 5.86988 18.1777 5.89225 17.9713C5.94074 17.5586 5.97058 17.1571 6.02652 16.7744C6.09365 16.3955 6.16078 16.0315 6.22419 15.6826C6.33235 14.9809 6.5151 14.3693 6.64563 13.8215C6.71649 13.5514 6.77244 13.2963 6.8433 13.0674C6.91789 12.8423 6.98502 12.6321 7.0447 12.4445C7.16404 12.0843 7.26101 11.7954 7.33188 11.5816C7.39901 11.3865 7.44003 11.2852 7.44376 11.2852C7.44749 11.2852 7.42512 11.394 7.36917 11.5928C7.30577 11.8104 7.22372 12.0994 7.11556 12.4633C7.05962 12.6547 6.99621 12.8648 6.92908 13.0899C6.86195 13.3188 6.81346 13.5777 6.74633 13.8478C6.62698 14.3956 6.45169 15.0072 6.35472 15.7051C6.29505 16.054 6.23538 16.4142 6.17197 16.7932C6.11976 17.1721 6.09365 17.5736 6.0489 17.9826C6.03025 18.1889 6.00787 18.3991 5.98922 18.6092C5.97058 18.823 5.97431 19.0407 5.96685 19.2583C5.95939 19.6973 5.93701 20.1513 5.94074 20.6165C5.97431 22.4738 6.2503 24.5111 6.82838 26.5748C7.40274 28.6384 8.21206 30.5294 9.11462 32.1503C9.22278 32.3567 9.33094 32.5593 9.43909 32.7582C9.54725 32.957 9.67033 33.1409 9.78595 33.3322C10.0172 33.7074 10.241 34.0714 10.4573 34.4241C10.9123 35.1145 11.3636 35.7373 11.7589 36.3151C12.1878 36.8704 12.5757 37.3694 12.9188 37.8159C13.2545 38.2624 13.5864 38.6114 13.8326 38.919C14.075 39.2117 14.2689 39.4406 14.4144 39.6132C14.5449 39.7745 14.612 39.8608 14.6083 39.8645Z" fill="#585960" style="fill:#585960;fill:color(display-p3 0.3451 0.3490 0.3765);fill-opacity:1;"/>
<path d="M11.0664 95.6044C11.0664 95.6044 11.0888 95.5593 11.1373 95.4805C11.1932 95.3942 11.2678 95.2742 11.361 95.1278C11.4617 94.9703 11.5848 94.7789 11.7265 94.5575C11.8011 94.445 11.8795 94.3249 11.9615 94.1936C12.0547 94.0698 12.1592 93.9459 12.2673 93.8109C12.4874 93.5407 12.7335 93.2406 12.9983 92.9104C13.2855 92.599 13.6137 92.2763 13.9606 91.9236C14.6692 91.2332 15.527 90.4978 16.5228 89.7549C18.5032 88.2466 21.058 86.7458 23.8253 84.9935C25.1978 84.1043 26.6449 83.1663 28.0137 82.0257C29.3824 80.8926 30.7027 79.5868 31.7694 78.0297C33.8766 74.878 34.7344 71.2273 34.809 67.963C34.8948 64.6724 34.1973 61.7458 33.3805 59.4121C32.5526 57.0708 31.6015 55.2848 30.9116 54.0804C30.5647 53.4763 30.2813 53.0186 30.0873 52.7109C29.9941 52.5608 29.9232 52.4445 29.8673 52.3582C29.8188 52.2794 29.7964 52.2344 29.7964 52.2344C29.7964 52.2344 29.83 52.2719 29.8822 52.3469C29.9419 52.4332 30.0202 52.5458 30.1172 52.6884C30.3223 52.9923 30.6169 53.4425 30.975 54.0429C31.6873 55.236 32.6607 57.0145 33.5111 59.3633C34.3502 61.7046 35.0663 64.6499 34.9917 67.9667C34.9768 68.7922 34.9134 69.6401 34.7866 70.4956C34.6673 71.3548 34.4882 72.2216 34.2421 73.0883C33.761 74.8217 32.9927 76.5477 31.9372 78.1386C30.8556 79.7182 29.5204 81.0351 28.1405 82.172C26.7605 83.3201 25.3097 84.2544 23.9298 85.1436C21.1512 86.8883 18.5965 88.3742 16.6123 89.8637C15.6165 90.5954 14.755 91.3233 14.0463 91.9986C13.6995 92.3476 13.3676 92.6628 13.0804 92.9704C12.8081 93.2931 12.562 93.5895 12.3382 93.8559C12.2263 93.991 12.1182 94.111 12.0249 94.2349C11.9391 94.3624 11.8571 94.4787 11.7825 94.5913C11.6333 94.8089 11.5065 94.9965 11.4021 95.1504C11.3014 95.2929 11.223 95.4055 11.1634 95.4918C11.1074 95.5668 11.0776 95.6044 11.0776 95.6044H11.0664Z" fill="#585960" style="fill:#585960;fill:color(display-p3 0.3451 0.3490 0.3765);fill-opacity:1;"/>
<path d="M7.6045 102.238C7.6045 102.238 7.58212 102.302 7.52244 102.411C7.45158 102.538 7.36207 102.696 7.25764 102.887C7.1383 103.09 6.99657 103.345 6.85112 103.649C6.70566 103.953 6.51919 104.287 6.36254 104.681C6.27676 104.876 6.19098 105.079 6.10147 105.292C6.01196 105.506 5.93737 105.735 5.85159 105.968C5.66884 106.429 5.52711 106.943 5.36674 107.48C5.07956 108.56 4.84087 109.769 4.71406 111.056C4.60218 112.343 4.62082 113.577 4.7066 114.691C4.77001 115.247 4.81476 115.779 4.908 116.267C4.95276 116.511 4.98259 116.751 5.03108 116.976C5.08329 117.201 5.13178 117.415 5.18026 117.625C5.26231 118.042 5.38539 118.406 5.4749 118.729C5.56068 119.055 5.65765 119.329 5.73597 119.55C5.80683 119.757 5.86278 119.929 5.91126 120.068C5.94856 120.188 5.96721 120.252 5.95975 120.256C5.95229 120.256 5.92245 120.199 5.87397 120.083C5.81802 119.948 5.74716 119.779 5.66511 119.577C5.57187 119.355 5.46744 119.085 5.37047 118.762C5.26977 118.44 5.13924 118.076 5.046 117.659C4.99378 117.453 4.94157 117.235 4.88562 117.01C4.82968 116.785 4.79611 116.545 4.74763 116.297C4.6432 115.806 4.59099 115.273 4.52385 114.71C4.42688 113.584 4.40451 112.339 4.51639 111.041C4.6432 109.742 4.88935 108.523 5.18772 107.435C5.35555 106.895 5.50474 106.381 5.69495 105.915C5.78446 105.683 5.86278 105.454 5.95975 105.24C6.05672 105.03 6.14623 104.823 6.23574 104.632C6.40357 104.238 6.59751 103.908 6.75415 103.608C6.90706 103.308 7.05998 103.06 7.19051 102.861C7.30986 102.677 7.40683 102.527 7.48888 102.4C7.55974 102.295 7.59704 102.242 7.6045 102.246V102.238Z" fill="#585960" style="fill:#585960;fill:color(display-p3 0.3451 0.3490 0.3765);fill-opacity:1;"/>
<path d="M53.7107 111.251C53.7107 111.251 53.6883 111.273 53.6361 111.307C53.5727 111.344 53.4981 111.393 53.4049 111.453C53.1848 111.588 52.8828 111.768 52.4986 112.001C52.3009 112.121 52.0809 112.249 51.8422 112.391C51.5998 112.526 51.3238 112.654 51.0329 112.804C50.4473 113.089 49.7947 113.453 49.0264 113.742C48.6459 113.9 48.2506 114.065 47.8329 114.233C47.4189 114.402 46.9676 114.53 46.5126 114.687C45.6063 115.021 44.5993 115.258 43.5476 115.535C41.4292 116.008 39.0609 116.357 36.5546 116.436C34.0483 116.488 31.6614 116.263 29.5206 115.903C28.4577 115.682 27.4432 115.498 26.5183 115.213C26.0558 115.078 25.6008 114.973 25.1756 114.826C24.7542 114.676 24.3477 114.534 23.9598 114.399C23.1766 114.147 22.509 113.821 21.9085 113.566C21.6101 113.434 21.3304 113.318 21.0768 113.198C20.8307 113.067 20.6069 112.95 20.4018 112.841C20.0064 112.631 19.6969 112.462 19.4694 112.342C19.3724 112.29 19.2941 112.245 19.2307 112.207C19.1785 112.177 19.1523 112.159 19.1523 112.155C19.1523 112.155 19.1822 112.162 19.2419 112.189C19.309 112.219 19.391 112.256 19.4917 112.305C19.723 112.417 20.04 112.575 20.4391 112.77C20.6442 112.871 20.8717 112.988 21.1216 113.112C21.3752 113.228 21.6549 113.337 21.957 113.464C22.5612 113.708 23.2288 114.023 24.012 114.267C24.3999 114.399 24.8027 114.537 25.2278 114.684C25.6493 114.826 26.1043 114.928 26.5668 115.055C27.488 115.333 28.4987 115.509 29.5579 115.723C31.6875 116.072 34.0595 116.29 36.5546 116.241C39.046 116.162 41.4031 115.821 43.514 115.359C44.5583 115.089 45.5616 114.86 46.4679 114.534C46.9229 114.38 47.3704 114.252 47.7844 114.091C48.1984 113.926 48.5937 113.764 48.9741 113.614C49.7424 113.333 50.3951 112.98 50.9844 112.706C51.2753 112.564 51.5513 112.44 51.7974 112.309C52.0399 112.174 52.2599 112.046 52.4613 111.933C52.8492 111.716 53.1587 111.543 53.3825 111.419C53.4795 111.367 53.5615 111.326 53.6249 111.288C53.6809 111.262 53.7107 111.247 53.7107 111.251Z" fill="#585960" style="fill:#585960;fill:color(display-p3 0.3451 0.3490 0.3765);fill-opacity:1;"/>
<path d="M57.5978 31.8434C57.5978 31.8434 57.5717 31.8697 57.5195 31.9185C57.4561 31.971 57.3741 32.0385 57.2734 32.1211C57.0459 32.3049 56.7251 32.5601 56.3223 32.8865C55.4906 33.5469 54.2934 34.5036 52.7755 35.6443C51.2575 36.7774 49.4151 38.0981 47.2296 39.3325C46.1256 39.9254 44.9471 40.5332 43.6566 40.9872C42.3699 41.4449 40.9825 41.7939 39.5317 41.9102C36.6189 42.1091 33.8553 41.3662 31.6101 40.2518C30.4874 39.6852 29.473 39.0511 28.5481 38.4208C27.638 37.7754 26.8063 37.1488 26.0716 36.5485C24.5947 35.3554 23.4385 34.3461 22.6329 33.6557C22.2413 33.3142 21.9318 33.0479 21.7117 32.8527C21.6148 32.7664 21.5364 32.6952 21.4768 32.6389C21.4245 32.5901 21.3984 32.5638 21.3984 32.5601C21.3984 32.5601 21.432 32.5788 21.4879 32.6201C21.5513 32.6726 21.6334 32.7364 21.7378 32.819C21.9653 33.0028 22.2823 33.2617 22.6814 33.5919C23.5019 34.2673 24.6693 35.2578 26.1537 36.436C26.8921 37.0288 27.7276 37.6441 28.6376 38.282C29.5588 38.9011 30.5695 39.5276 31.6846 40.083C33.9149 41.1748 36.6413 41.9027 39.5168 41.7076C40.9452 41.595 42.314 41.2498 43.5895 40.7996C44.8687 40.3531 46.0398 39.7528 47.1401 39.1674C49.3219 37.948 51.1643 36.6423 52.6934 35.5242C54.2188 34.3986 55.4309 33.4606 56.2738 32.819C56.6878 32.5076 57.0123 32.2599 57.2473 32.0836C57.3517 32.0048 57.4375 31.9447 57.5046 31.896C57.5643 31.8547 57.5941 31.8359 57.5941 31.8359L57.5978 31.8434Z" fill="#585960" style="fill:#585960;fill:color(display-p3 0.3451 0.3490 0.3765);fill-opacity:1;"/>
</g>
<defs>
<linearGradient id="paint0_linear_252_3559" x1="37.9251" y1="16.7227" x2="37.9251" y2="81.863" gradientUnits="userSpaceOnUse">
<stop stop-color="#FFD66B" style="stop-color:#FFD66B;stop-color:color(display-p3 1.0000 0.8392 0.4196);stop-opacity:1;"/>
<stop offset="1" stop-color="#FFA469" style="stop-color:#FFA469;stop-color:color(display-p3 1.0000 0.6431 0.4118);stop-opacity:1;"/>
</linearGradient>
<linearGradient id="paint1_linear_252_3559" x1="35.6616" y1="100.5" x2="35.6616" y2="132.499" gradientUnits="userSpaceOnUse">
<stop stop-color="#FFD66B" style="stop-color:#FFD66B;stop-color:color(display-p3 1.0000 0.8392 0.4196);stop-opacity:1;"/>
<stop offset="1" stop-color="#FFA469" style="stop-color:#FFA469;stop-color:color(display-p3 1.0000 0.6431 0.4118);stop-opacity:1;"/>
</linearGradient>
<clipPath id="clip0_252_3559">
<rect width="75.293" height="133.779" fill="white" style="fill:white;fill-opacity:1;" transform="translate(0 0.21875)"/>
</clipPath>
</defs>
</svg>
