<svg width="111" height="139" viewBox="0 0 111 139" fill="none" xmlns="http://www.w3.org/2000/svg">
<path d="M201.489 53.6371L193.666 131.832C193.224 136.211 189.338 139.401 184.96 138.96L60.9284 126.538C56.5672 126.097 53.3769 122.211 53.8181 117.833L61.6412 39.6373C62.0484 35.5646 65.68 32.5949 69.7357 33.0022L194.854 45.5257C198.909 45.933 201.879 49.5644 201.472 53.6201L201.489 53.6371Z" fill="#65666D" style="fill:#65666D;fill:color(display-p3 0.3961 0.4000 0.4275);fill-opacity:1;"/>
<path d="M60.1213 55.3892L58.332 72.793L198.172 87.17L199.961 69.7662L60.1213 55.3892Z" fill="#393A3F" style="fill:#393A3F;fill:color(display-p3 0.2235 0.2275 0.2471);fill-opacity:1;"/>
<path d="M66.9562 79.8095L65.9531 89.5664L187.343 102.047L188.346 92.2896L66.9562 79.8095Z" fill="#F3F0F0" style="fill:#F3F0F0;fill:color(display-p3 0.9529 0.9412 0.9412);fill-opacity:1;"/>
<path d="M158.621 109.309L65.8608 99.7726C65.3341 99.7185 64.8631 100.102 64.809 100.628C64.7548 101.155 65.1379 101.626 65.6647 101.68L158.424 111.217C158.951 111.271 159.422 110.888 159.476 110.361C159.53 109.834 159.147 109.363 158.621 109.309Z" fill="#585960" style="fill:#585960;fill:color(display-p3 0.3451 0.3490 0.3765);fill-opacity:1;"/>
<path d="M162.355 113.422L65.4936 103.464C64.9669 103.41 64.496 103.793 64.4418 104.32C64.3877 104.846 64.7708 105.317 65.2975 105.371L162.159 115.33C162.686 115.384 163.157 115.001 163.211 114.474C163.265 113.947 162.882 113.477 162.355 113.422Z" fill="#585960" style="fill:#585960;fill:color(display-p3 0.3451 0.3490 0.3765);fill-opacity:1;"/>
<path d="M151.562 116.029L65.0991 107.14C64.5723 107.086 64.1014 107.469 64.0473 107.995C63.9931 108.522 64.3762 108.993 64.903 109.047L151.366 117.937C151.893 117.991 152.364 117.608 152.418 117.081C152.472 116.554 152.089 116.083 151.562 116.029Z" fill="#585960" style="fill:#585960;fill:color(display-p3 0.3451 0.3490 0.3765);fill-opacity:1;"/>
<path d="M137.581 118.326L64.7241 110.835C64.1973 110.781 63.7264 111.164 63.6723 111.691C63.6181 112.218 64.0012 112.688 64.528 112.743L137.385 120.233C137.912 120.287 138.383 119.904 138.437 119.377C138.491 118.851 138.108 118.38 137.581 118.326Z" fill="#585960" style="fill:#585960;fill:color(display-p3 0.3451 0.3490 0.3765);fill-opacity:1;"/>
<path d="M138.783 6.19085L151.511 83.7414C152.223 88.0856 149.288 92.1752 144.96 92.8879L21.9636 113.065C17.6364 113.777 13.5467 110.842 12.8339 106.498L0.106631 28.9469C-0.555189 24.9082 2.17693 21.107 6.21573 20.4452L130.298 0.0988166C134.337 -0.562993 138.138 2.1691 138.8 6.20784L138.783 6.19085Z" fill="#8F8F92" style="fill:#8F8F92;fill:color(display-p3 0.5608 0.5608 0.5725);fill-opacity:1;"/>
<path d="M32.7253 48.246L24.6817 49.5697C19.7096 50.3842 15.0261 47.0243 14.2115 42.0522C13.397 37.0801 16.757 32.3966 21.729 31.582L29.7726 30.2584C34.7446 29.4439 39.4282 32.8038 40.2427 37.7759C41.0573 42.7479 37.6973 47.4315 32.7253 48.246Z" fill="url(#paint0_linear_252_3518)" style=""/>
<path d="M125.367 24.7099L113.59 26.6445C110.858 27.0857 108.296 25.253 107.855 22.5209C107.413 19.7888 109.246 17.2264 111.978 16.7852L123.755 14.8507C126.487 14.4095 129.049 16.2422 129.491 18.9742C129.932 21.7063 128.099 24.2687 125.367 24.7099Z" fill="#F3F0F0" style="fill:#F3F0F0;fill:color(display-p3 0.9529 0.9412 0.9412);fill-opacity:1;"/>
<path d="M17.4192 67.6147L16.4519 68.4123C16.4519 68.4123 16.3671 68.4632 16.3331 68.4802C16.2313 68.4802 16.1464 68.4632 16.0786 68.3953C15.9768 68.2765 15.9937 68.1068 16.1125 68.022L17.4192 66.902C17.521 66.8171 17.7076 66.8341 17.7925 66.9359C17.8264 67.0038 17.8604 67.0547 17.8604 67.1226L18.9973 74.0631C19.0143 74.1989 18.9295 74.3346 18.7767 74.3686C18.641 74.3855 18.5052 74.3007 18.4713 74.148L17.4022 67.6147H17.4192Z" fill="#F3F0F0" style="fill:#F3F0F0;fill:color(display-p3 0.9529 0.9412 0.9412);fill-opacity:1;"/>
<path d="M20.8285 73.5374L23.8321 69.7702C24.1885 69.312 24.3242 68.752 24.2394 68.226C24.1715 67.7678 23.9169 67.3266 23.5266 67.0212C23.0854 66.6648 22.5085 66.529 21.9824 66.6139C21.5073 66.6987 21.0661 66.9363 20.7437 67.3266L20.4382 67.7169C20.3534 67.8357 20.1667 67.8526 20.0649 67.7678C19.9461 67.683 19.9291 67.4963 20.014 67.3945L20.3194 66.9872C20.7267 66.4951 21.2867 66.1727 21.8806 66.0709C22.5424 65.969 23.2551 66.1048 23.8321 66.5799C24.3582 66.9872 24.6636 67.5472 24.7485 68.1242C24.8503 68.786 24.6975 69.5157 24.2394 70.0926L21.66 73.3168L25.2236 72.7229C25.3593 72.7059 25.4951 72.7908 25.529 72.9435C25.546 73.0793 25.4612 73.215 25.3084 73.249L21.1 73.9447H21.0661C21.0661 73.9447 20.9133 73.9447 20.8624 73.9108C20.7437 73.809 20.7267 73.6393 20.8115 73.5205L20.8285 73.5374Z" fill="#F3F0F0" style="fill:#F3F0F0;fill:color(display-p3 0.9529 0.9412 0.9412);fill-opacity:1;"/>
<path d="M30.6944 65.1321L29.0654 67.4569C29.5575 67.4739 30.0496 67.6266 30.4738 67.932C31.0508 68.3393 31.4072 68.9672 31.509 69.629C31.6108 70.2908 31.475 70.9865 31.0508 71.5635C30.6435 72.1405 30.0157 72.5138 29.3708 72.6156C28.726 72.7174 28.0302 72.5817 27.4533 72.1574C27.3345 72.0726 27.3005 71.9029 27.3854 71.7841C27.4702 71.6653 27.6399 71.6314 27.7587 71.7162C28.2169 72.0386 28.7599 72.1574 29.286 72.0726C29.812 71.9877 30.2872 71.7162 30.6266 71.2581C30.966 70.7999 31.0678 70.2399 30.9829 69.7308C30.8981 69.2217 30.6266 68.7296 30.1514 68.4072C29.6932 68.0678 29.1502 67.966 28.6242 68.0508C28.5393 68.0508 28.4545 68.0508 28.3866 67.9829C28.2678 67.8981 28.2339 67.7284 28.3187 67.5926L29.8799 65.3527L26.9951 65.8278C26.8424 65.8448 26.7066 65.7599 26.6896 65.6072C26.6727 65.4545 26.7575 65.3187 26.9103 65.3018L30.4399 64.7248C30.5926 64.7078 30.7284 64.7927 30.7453 64.9454C30.7453 64.9793 30.7453 65.0302 30.7453 65.0642C30.7453 65.0981 30.7284 65.1321 30.7114 65.166L30.6944 65.1321Z" fill="#F3F0F0" style="fill:#F3F0F0;fill:color(display-p3 0.9529 0.9412 0.9412);fill-opacity:1;"/>
<path d="M37.9348 69.6164L33.8451 70.2951H33.8281C33.7772 70.2951 33.7094 70.2951 33.6584 70.2612C33.5227 70.1933 33.4888 70.0236 33.5736 69.9049L37.0523 63.7449C37.1372 63.5922 37.2729 63.5583 37.4087 63.6431C37.4596 63.6601 37.4936 63.711 37.5105 63.7619C37.5105 63.7789 37.5105 63.7958 37.5275 63.7958V63.8298L38.376 69.0055L38.885 68.9206C39.0378 68.9037 39.1735 68.9885 39.1905 69.1412C39.2075 69.294 39.1226 69.4127 38.9699 69.4467L38.4608 69.5315L38.6644 70.8212C38.6814 70.957 38.5966 71.0927 38.4438 71.1267C38.3081 71.1436 38.1723 71.0588 38.1384 70.906L37.9348 69.6164ZM37.8499 69.0903L37.1202 64.6613L34.2693 69.6673L37.8329 69.0733L37.8499 69.0903Z" fill="#F3F0F0" style="fill:#F3F0F0;fill:color(display-p3 0.9529 0.9412 0.9412);fill-opacity:1;"/>
<path d="M47.5293 68.8697C47.4105 68.7849 47.3765 68.6152 47.4614 68.4964C47.5462 68.3776 47.7159 68.3437 47.8517 68.4285C48.3098 68.7509 48.8529 68.8697 49.3789 68.7849C49.905 68.7 50.3801 68.4285 50.7025 67.9533C51.0419 67.4952 51.1437 66.9522 51.0589 66.4261C50.9741 65.9 50.7026 65.4079 50.2444 65.0855C49.7862 64.7631 49.2432 64.6443 48.7171 64.7292C48.1911 64.814 47.7159 65.0855 47.3765 65.5607C47.2917 65.6795 47.122 65.7134 47.0032 65.6285C46.9693 65.6285 46.9353 65.5776 46.9184 65.5607V65.5267C46.9184 65.5098 46.9014 65.4758 46.9014 65.4419C46.9014 65.4419 46.9014 65.4079 46.9014 65.391L46.7656 62.2855C46.7656 62.2007 46.7826 62.1328 46.8335 62.0819C46.8674 62.031 46.9353 61.9971 47.0032 61.9971L50.5159 61.4201C50.6686 61.4031 50.8044 61.488 50.8213 61.6407C50.8383 61.8104 50.7535 61.9292 50.6007 61.9462L47.3086 62.4892L47.4105 64.7801C47.7668 64.4916 48.1911 64.3049 48.6323 64.2201C49.2941 64.1182 49.9729 64.2371 50.5498 64.6613C51.1438 65.0686 51.4831 65.6795 51.585 66.3582C51.6868 67.0031 51.568 67.7158 51.1438 68.2928C50.7195 68.8527 50.0916 69.2261 49.4468 69.3279C48.785 69.4297 48.0892 69.2939 47.5123 68.8867L47.5293 68.8697Z" fill="#F3F0F0" style="fill:#F3F0F0;fill:color(display-p3 0.9529 0.9412 0.9412);fill-opacity:1;"/>
<path d="M53.8696 62.5417C54.2429 61.5405 55.0065 60.726 56.2453 60.4714C56.3811 60.4375 56.5168 60.5393 56.5508 60.675C56.5677 60.8278 56.4829 60.9635 56.3302 60.9975C55.278 61.2181 54.7011 61.8629 54.3617 62.7284C54.175 63.2205 54.0902 63.7635 54.0732 64.3235C54.4465 63.7295 55.0574 63.2884 55.8041 63.1696C57.1956 62.949 58.4853 63.8823 58.7229 65.2568C58.9435 66.6313 58.0271 67.938 56.6356 68.1586C55.295 68.3792 54.0053 67.4968 53.7508 66.1562C53.6999 66.0035 53.6829 65.8338 53.649 65.6641C53.4962 64.6629 53.5132 63.5259 53.8866 62.5417H53.8696ZM54.2599 66.0204C54.2599 66.0204 54.2938 66.1222 54.3108 66.1562C54.3108 66.1901 54.3108 66.2071 54.3108 66.241C54.5993 67.1744 55.5496 67.7853 56.5508 67.6325C57.6538 67.4459 58.3835 66.4277 58.2138 65.3417C58.0441 64.2556 57.0089 63.5259 55.9059 63.7126C54.8199 63.8823 54.0902 64.9174 54.2599 66.0035V66.0374V66.0204Z" fill="#F3F0F0" style="fill:#F3F0F0;fill:color(display-p3 0.9529 0.9412 0.9412);fill-opacity:1;"/>
<path d="M61.8085 66.9196L63.5224 59.8434L59.874 60.4373C59.7382 60.4543 59.6025 60.3694 59.5685 60.2167C59.5516 60.081 59.6364 59.9452 59.7891 59.9113L63.777 59.2495C63.777 59.2495 63.8788 59.2155 63.9467 59.2495C64.0146 59.2664 64.0824 59.3343 64.1164 59.3852C64.1164 59.4192 64.1503 59.4361 64.1503 59.47C64.1503 59.521 64.1503 59.5719 64.1333 59.6228L62.3515 67.0554C62.3176 67.1572 62.2328 67.2421 62.1479 67.2591C62.114 67.2591 62.08 67.2591 62.0291 67.2591C61.8934 67.2251 61.7916 67.0724 61.8255 66.9366L61.8085 66.9196Z" fill="#F3F0F0" style="fill:#F3F0F0;fill:color(display-p3 0.9529 0.9412 0.9412);fill-opacity:1;"/>
<path d="M68.0877 58.512C68.9531 58.3762 69.7846 58.9532 69.9204 59.8186C70.0052 60.3447 69.8186 60.8368 69.4792 61.1931C70.4295 61.4137 71.2101 62.1943 71.3798 63.2125C71.6004 64.5701 70.701 65.8428 69.3265 66.0634C67.9859 66.284 66.6962 65.3846 66.4756 64.0101C66.3059 62.9919 66.781 62.0077 67.6125 61.4986C67.1883 61.278 66.8659 60.8538 66.781 60.3277C66.6453 59.4623 67.2053 58.6477 68.0877 58.495V58.512ZM69.2416 65.5543C70.3277 65.3846 71.0234 64.3664 70.8537 63.3143C70.684 62.2622 69.6828 61.5156 68.6137 61.7022C67.5447 61.8719 66.8319 62.8901 67.0016 63.9422C67.1713 65.0113 68.1895 65.741 69.2416 65.5543ZM68.5119 61.1592C69.0889 61.0574 69.4962 60.4974 69.3943 59.9204C69.2925 59.3435 68.7495 58.9532 68.1725 59.055C67.5956 59.1568 67.2053 59.6829 67.3071 60.2768C67.4089 60.8538 67.935 61.261 68.5289 61.1762L68.5119 61.1592Z" fill="#F3F0F0" style="fill:#F3F0F0;fill:color(display-p3 0.9529 0.9412 0.9412);fill-opacity:1;"/>
<path d="M81.518 56.3135C82.8076 56.1098 84.0125 56.8905 84.3688 58.1123C84.3688 58.1292 84.3689 58.1462 84.4028 58.1632C84.4537 58.3668 84.4876 58.5874 84.5216 58.808C84.6913 59.8092 84.6573 60.9631 84.301 61.9304C83.9276 62.9146 83.164 63.7631 81.9252 64.0007C81.7725 64.0346 81.6368 63.9328 81.6198 63.797C81.6028 63.6443 81.6877 63.5085 81.8234 63.4746C82.8586 63.254 83.4695 62.6092 83.7919 61.7437C83.9786 61.2516 84.0804 60.6916 84.0804 60.1486C83.707 60.7425 83.0961 61.1668 82.3325 61.2855C80.958 61.5062 79.6683 60.5898 79.4307 59.1983C79.2101 57.8238 80.1434 56.5341 81.518 56.3135ZM83.8937 58.4686C83.724 57.3826 82.7058 56.6529 81.6028 56.8396C80.5337 57.0092 79.7871 58.0444 79.9568 59.1135C80.1434 60.2165 81.1616 60.9292 82.2477 60.7595C83.3507 60.5898 84.0804 59.5716 83.8937 58.4686Z" fill="#F3F0F0" style="fill:#F3F0F0;fill:color(display-p3 0.9529 0.9412 0.9412);fill-opacity:1;"/>
<path d="M86.5566 59.364C86.3869 58.3458 86.4888 57.3786 86.8451 56.598C87.2015 55.8513 87.7784 55.2744 88.5421 55.1556C89.3057 55.0368 90.0354 55.3932 90.6123 55.9871C91.1893 56.615 91.6135 57.4974 91.7832 58.5155C91.9529 59.5337 91.8172 60.501 91.4778 61.2646C91.1214 62.0282 90.5445 62.5882 89.7809 62.724C89.0172 62.8597 88.2875 62.5034 87.7106 61.8925C87.1336 61.2816 86.7263 60.3992 86.5566 59.381V59.364ZM87.0827 59.2791C87.2354 60.2125 87.6257 60.9931 88.1009 61.5191C88.576 62.0282 89.153 62.2828 89.696 62.1809C90.239 62.0961 90.6802 61.6719 90.9857 61.044C91.2742 60.3991 91.393 59.5167 91.2402 58.6004C91.0875 57.684 90.6972 56.8865 90.2051 56.3604C89.713 55.8344 89.153 55.5968 88.61 55.6986C88.0669 55.7835 87.6087 56.1907 87.3203 56.8356C87.0318 57.4804 86.913 58.3628 87.0657 59.2791H87.0827Z" fill="#F3F0F0" style="fill:#F3F0F0;fill:color(display-p3 0.9529 0.9412 0.9412);fill-opacity:1;"/>
<path d="M94.7825 54.9194L93.8152 55.7169C93.8152 55.7169 93.7303 55.7678 93.6964 55.7848C93.5946 55.7848 93.5097 55.7679 93.4419 55.7C93.34 55.5812 93.357 55.4115 93.4758 55.3267L94.7825 54.2067C94.8843 54.1218 95.0709 54.1388 95.1558 54.2406C95.1897 54.3085 95.2237 54.3594 95.2237 54.4273L96.3606 61.3678C96.3776 61.5035 96.2927 61.6393 96.14 61.6732C96.0043 61.6902 95.8685 61.6054 95.8346 61.4526L94.7655 54.9194H94.7825Z" fill="#F3F0F0" style="fill:#F3F0F0;fill:color(display-p3 0.9529 0.9412 0.9412);fill-opacity:1;"/>
<path d="M98.1918 60.8577L101.195 57.0905C101.552 56.6323 101.688 56.0723 101.603 55.5463C101.535 55.0881 101.28 54.6469 100.89 54.3415C100.449 53.9851 99.8718 53.8493 99.3457 53.9342C98.8706 54.019 98.4293 54.2566 98.1069 54.6469L97.8015 55.0372C97.7166 55.156 97.53 55.173 97.4282 55.0881C97.3094 55.0033 97.2924 54.8166 97.3772 54.7148L97.6827 54.3075C98.09 53.8154 98.65 53.493 99.2439 53.3912C99.9057 53.2893 100.618 53.4251 101.195 53.9002C101.721 54.3075 102.027 54.8675 102.112 55.4445C102.214 56.1063 102.061 56.819 101.603 57.4129L99.0233 60.6371L102.587 60.0432C102.723 60.0262 102.858 60.1111 102.892 60.2638C102.909 60.3995 102.824 60.5353 102.672 60.5693L98.4633 61.265H98.4293C98.4293 61.265 98.2766 61.265 98.2257 61.2311C98.1069 61.1292 98.09 60.9596 98.1748 60.8408L98.1918 60.8577Z" fill="#F3F0F0" style="fill:#F3F0F0;fill:color(display-p3 0.9529 0.9412 0.9412);fill-opacity:1;"/>
<path d="M114.519 51.3977L112.89 53.7225C113.382 53.7395 113.874 53.8922 114.298 54.1977C114.875 54.6049 115.231 55.2328 115.333 55.8946C115.435 56.5564 115.299 57.2522 114.875 57.8291C114.468 58.4061 113.84 58.7794 113.195 58.8812C112.55 58.9831 111.854 58.8473 111.277 58.4231C111.159 58.3382 111.125 58.1685 111.21 58.0497C111.294 57.9309 111.464 57.897 111.583 57.9819C112.041 58.3043 112.584 58.4231 113.11 58.3382C113.619 58.2534 114.111 57.9819 114.451 57.5237C114.79 57.0655 114.892 56.5055 114.807 55.9964C114.722 55.4874 114.451 54.9952 113.976 54.6728C113.517 54.3334 112.974 54.2316 112.448 54.3165C112.364 54.3165 112.279 54.3165 112.211 54.2486C112.092 54.1637 112.058 53.994 112.143 53.8583L113.704 51.6183L110.819 52.0935C110.667 52.1104 110.531 52.0256 110.514 51.8728C110.497 51.7201 110.582 51.5844 110.734 51.5674L114.264 50.9904C114.417 50.9735 114.553 51.0583 114.57 51.211C114.57 51.2619 114.57 51.2959 114.57 51.3298C114.57 51.3638 114.553 51.3977 114.536 51.4316L114.519 51.3977Z" fill="#F3F0F0" style="fill:#F3F0F0;fill:color(display-p3 0.9529 0.9412 0.9412);fill-opacity:1;"/>
<path d="M85.8769 76.6404L23.2487 86.9184C22.3563 87.0649 21.7515 87.9071 21.898 88.7995C22.0445 89.692 22.8867 90.2967 23.7791 90.1503L86.4073 79.8722C87.2997 79.7258 87.9045 78.8835 87.758 77.9911C87.6115 77.0986 86.7693 76.4939 85.8769 76.6404Z" fill="#F3F0F0" style="fill:#F3F0F0;fill:color(display-p3 0.9529 0.9412 0.9412);fill-opacity:1;"/>
<path d="M67.8394 86.9698L24.4519 94.0903C23.5594 94.2367 22.9547 95.0789 23.1011 95.9714C23.2476 96.8639 24.0898 97.4686 24.9823 97.3221L68.3698 90.2017C69.2623 90.0552 69.867 89.213 69.7206 88.3206C69.5741 87.4281 68.7319 86.8234 67.8394 86.9698Z" fill="#F3F0F0" style="fill:#F3F0F0;fill:color(display-p3 0.9529 0.9412 0.9412);fill-opacity:1;"/>
<path d="M100.882 18.5714L71.2761 23.4301C70.3836 23.5766 69.7789 24.4188 69.9254 25.3113C70.0718 26.2037 70.914 26.8085 71.8065 26.662L101.413 21.8033C102.305 21.6568 102.91 20.8146 102.763 19.9222C102.617 19.0297 101.775 18.4249 100.882 18.5714Z" fill="#F3F0F0" style="fill:#F3F0F0;fill:color(display-p3 0.9529 0.9412 0.9412);fill-opacity:1;"/>
<defs>
<linearGradient id="paint0_linear_252_3518" x1="27.2271" y1="30.1367" x2="27.2271" y2="49.6914" gradientUnits="userSpaceOnUse">
<stop stop-color="#FFD66B" style="stop-color:#FFD66B;stop-color:color(display-p3 1.0000 0.8392 0.4196);stop-opacity:1;"/>
<stop offset="1" stop-color="#FFA469" style="stop-color:#FFA469;stop-color:color(display-p3 1.0000 0.6431 0.4118);stop-opacity:1;"/>
</linearGradient>
</defs>
</svg>
