<svg width="137" height="191" viewBox="0 0 137 191" fill="none" xmlns="http://www.w3.org/2000/svg">
<path d="M0.0215412 14.0124C0.0146009 -9.61947 0.0111308 -21.4354 4.07821 -30.6786C8.90985 -41.6593 17.6792 -50.4313 28.6586 -55.2661C37.9005 -59.3359 49.7165 -59.3359 73.3483 -59.3359C93.5339 -59.3359 103.627 -59.3359 111.523 -55.8597C120.903 -51.7299 128.398 -44.2372 132.531 -34.8578C136.01 -26.9626 136.012 -16.8698 136.018 3.31575L136.053 122.664C136.064 160.219 105.629 190.664 68.0734 190.664C30.5181 190.664 0.0644799 160.219 0.0534505 122.664L0.0215412 14.0124Z" fill="#46474E" style="fill:#46474E;fill:color(display-p3 0.2745 0.2784 0.3059);fill-opacity:1;"/>
<path d="M0.0215412 14.0124C0.0146009 -9.61947 0.0111308 -21.4354 4.07821 -30.6786C8.90985 -41.6593 17.6792 -50.4313 28.6586 -55.2661C37.9005 -59.3359 49.7165 -59.3359 73.3483 -59.3359C93.5339 -59.3359 103.627 -59.3359 111.523 -55.8597C120.903 -51.7299 128.398 -44.2372 132.531 -34.8578C136.01 -26.9626 136.012 -16.8698 136.018 3.31575L136.053 122.664C136.064 160.219 105.629 190.664 68.0734 190.664C30.5181 190.664 0.0644799 160.219 0.0534505 122.664L0.0215412 14.0124Z" fill="url(#paint0_linear_272_3974)" style=""/>
<path fill-rule="evenodd" clip-rule="evenodd" d="M24.998 36.1641C24.998 34.7834 26.1173 33.6641 27.498 33.6641H96.498C97.8788 33.6641 98.998 34.7834 98.998 36.1641C98.998 37.5448 97.8788 38.6641 96.498 38.6641H27.498C26.1173 38.6641 24.998 37.5448 24.998 36.1641Z" fill="#FFA469" style="fill:#FFA469;fill:color(display-p3 1.0000 0.6431 0.4118);fill-opacity:1;"/>
<path fill-rule="evenodd" clip-rule="evenodd" d="M25 48.6641C25 47.0072 26.3431 45.6641 28 45.6641H80C81.6568 45.6641 83 47.0072 83 48.6641C83 50.3209 81.6569 51.6641 80 51.6641H28C26.3431 51.6641 25 50.3209 25 48.6641Z" fill="#FFA469" style="fill:#FFA469;fill:color(display-p3 1.0000 0.6431 0.4118);fill-opacity:1;"/>
<path opacity="0.1" fill-rule="evenodd" clip-rule="evenodd" d="M25.001 68.6641C25.001 67.0072 26.3441 65.6641 28.001 65.6641H109.001C110.658 65.6641 112.001 67.0072 112.001 68.6641C112.001 70.3209 110.658 71.6641 109.001 71.6641H28.001C26.3441 71.6641 25.001 70.3209 25.001 68.6641Z" fill="#F3F0F0" style="fill:#F3F0F0;fill:color(display-p3 0.9529 0.9412 0.9412);fill-opacity:1;"/>
<path opacity="0.1" fill-rule="evenodd" clip-rule="evenodd" d="M25.001 81.6641C25.001 80.0072 26.3441 78.6641 28.001 78.6641H109.001C110.658 78.6641 112.001 80.0072 112.001 81.6641C112.001 83.3209 110.658 84.6641 109.001 84.6641H28.001C26.3441 84.6641 25.001 83.3209 25.001 81.6641Z" fill="#F3F0F0" style="fill:#F3F0F0;fill:color(display-p3 0.9529 0.9412 0.9412);fill-opacity:1;"/>
<path opacity="0.1" fill-rule="evenodd" clip-rule="evenodd" d="M25.001 94.6641C25.001 93.0072 26.3441 91.6641 28.001 91.6641H40.001C41.6578 91.6641 43.001 93.0072 43.001 94.6641C43.001 96.3209 41.6578 97.6641 40.001 97.6641H28.001C26.3441 97.6641 25.001 96.3209 25.001 94.6641Z" fill="#F3F0F0" style="fill:#F3F0F0;fill:color(display-p3 0.9529 0.9412 0.9412);fill-opacity:1;"/>
<path opacity="0.1" fill-rule="evenodd" clip-rule="evenodd" d="M25.0049 107.664C25.0049 106.007 26.348 104.664 28.0049 104.664H31.0049C32.6617 104.664 34.0049 106.007 34.0049 107.664C34.0049 109.321 32.6617 110.664 31.0049 110.664H28.0049C26.348 110.664 25.0049 109.321 25.0049 107.664Z" fill="#F3F0F0" style="fill:#F3F0F0;fill:color(display-p3 0.9529 0.9412 0.9412);fill-opacity:1;"/>
<path opacity="0.1" fill-rule="evenodd" clip-rule="evenodd" d="M103.001 107.664C103.001 106.007 104.344 104.664 106.001 104.664H109.001C110.658 104.664 112.001 106.007 112.001 107.664C112.001 109.321 110.658 110.664 109.001 110.664H106.001C104.344 110.664 103.001 109.321 103.001 107.664Z" fill="#F3F0F0" style="fill:#F3F0F0;fill:color(display-p3 0.9529 0.9412 0.9412);fill-opacity:1;"/>
<path opacity="0.1" fill-rule="evenodd" clip-rule="evenodd" d="M94.001 94.6641C94.001 93.0072 95.3441 91.6641 97.001 91.6641H109.001C110.658 91.6641 112.001 93.0072 112.001 94.6641C112.001 96.3209 110.658 97.6641 109.001 97.6641H97.001C95.3441 97.6641 94.001 96.3209 94.001 94.6641Z" fill="#F3F0F0" style="fill:#F3F0F0;fill:color(display-p3 0.9529 0.9412 0.9412);fill-opacity:1;"/>
<path fill-rule="evenodd" clip-rule="evenodd" d="M87.9961 48.6641C87.9961 47.0072 89.3392 45.6641 90.9961 45.6641H108.996C110.653 45.6641 111.996 47.0072 111.996 48.6641C111.996 50.3209 110.653 51.6641 108.996 51.6641H90.9961C89.3392 51.6641 87.9961 50.3209 87.9961 48.6641Z" fill="#FFA469" style="fill:#FFA469;fill:color(display-p3 1.0000 0.6431 0.4118);fill-opacity:1;"/>
<path fill-rule="evenodd" clip-rule="evenodd" d="M103.998 36.1641C103.998 34.7834 105.117 33.6641 106.498 33.6641H109.498C110.879 33.6641 111.998 34.7834 111.998 36.1641C111.998 37.5448 110.879 38.6641 109.498 38.6641H106.498C105.117 38.6641 103.998 37.5448 103.998 36.1641Z" fill="#FFA469" style="fill:#FFA469;fill:color(display-p3 1.0000 0.6431 0.4118);fill-opacity:1;"/>
<rect x="61.9805" y="162.674" width="12" height="12" rx="6" transform="rotate(-0.0429595 61.9805 162.674)" fill="#D9D9D9" style="fill:#D9D9D9;fill:color(display-p3 0.8510 0.8510 0.8510);fill-opacity:1;"/>
<rect x="61.9805" y="162.674" width="12" height="12" rx="6" transform="rotate(-0.0429595 61.9805 162.674)" fill="url(#paint1_linear_272_3974)" style=""/>
<path d="M94.5674 129.717C95.1304 128.063 93.4566 125.854 93.6891 124.081C93.9142 122.361 96.1122 120.663 95.9957 118.865C95.8793 117.067 93.4805 115.667 93.0338 113.99C92.5741 112.262 93.9475 109.854 93.1743 108.287C92.3881 106.691 89.6356 106.317 88.5656 104.924C87.4881 103.519 87.8349 100.767 86.509 99.6025C85.183 98.438 82.4981 99.1397 80.9664 98.2519C79.4458 97.3715 78.7181 94.6903 77.0344 94.1181C75.3804 93.5552 73.1714 95.2289 71.3988 94.9964C69.6783 94.7713 67.9804 92.5734 66.1821 92.6898C64.3839 92.8062 62.9845 95.205 61.3072 95.6517C59.5797 96.1114 57.1716 94.738 55.604 95.5112C54.0085 96.2974 53.6339 99.05 52.2409 100.12C50.8368 101.197 48.0843 100.851 46.9199 102.177C45.7554 103.503 46.457 106.187 45.5692 107.719C44.6888 109.24 42.0077 109.967 41.4355 111.651C40.8725 113.305 42.5463 115.514 42.3138 117.287C42.0887 119.007 39.8908 120.705 40.0072 122.503C40.1236 124.302 42.5224 125.701 42.9691 127.378C43.4288 129.106 42.0554 131.514 42.8286 133.082C43.6148 134.677 46.3673 135.052 47.4374 136.445C48.5148 137.849 48.168 140.601 49.4939 141.766C50.8199 142.93 53.5048 142.228 55.0365 143.116C56.5571 143.997 57.2848 146.678 58.9685 147.25C60.6225 147.813 62.8316 146.139 64.6041 146.372C66.3246 146.597 68.0225 148.795 69.8208 148.678C71.619 148.562 73.0184 146.163 74.6958 145.716C76.4232 145.257 78.8313 146.63 80.3989 145.857C81.9944 145.071 82.369 142.318 83.762 141.248C85.1661 140.171 87.9186 140.518 89.0831 139.192C90.2475 137.866 89.5459 135.181 90.4337 133.649C91.3141 132.128 93.9952 131.401 94.5674 129.717Z" fill="#717278" style="fill:#717278;fill:color(display-p3 0.4431 0.4471 0.4706);fill-opacity:1;"/>
<path d="M94.5674 129.717C95.1304 128.063 93.4566 125.854 93.6891 124.081C93.9142 122.361 96.1122 120.663 95.9957 118.865C95.8793 117.067 93.4805 115.667 93.0338 113.99C92.5741 112.262 93.9475 109.854 93.1743 108.287C92.3881 106.691 89.6356 106.317 88.5656 104.924C87.4881 103.519 87.8349 100.767 86.509 99.6025C85.183 98.438 82.4981 99.1397 80.9664 98.2519C79.4458 97.3715 78.7181 94.6903 77.0344 94.1181C75.3804 93.5552 73.1714 95.2289 71.3988 94.9964C69.6783 94.7713 67.9804 92.5734 66.1821 92.6898C64.3839 92.8062 62.9845 95.205 61.3072 95.6517C59.5797 96.1114 57.1716 94.738 55.604 95.5112C54.0085 96.2974 53.6339 99.05 52.2409 100.12C50.8368 101.197 48.0843 100.851 46.9199 102.177C45.7554 103.503 46.457 106.187 45.5692 107.719C44.6888 109.24 42.0077 109.967 41.4355 111.651C40.8725 113.305 42.5463 115.514 42.3138 117.287C42.0887 119.007 39.8908 120.705 40.0072 122.503C40.1236 124.302 42.5224 125.701 42.9691 127.378C43.4288 129.106 42.0554 131.514 42.8286 133.082C43.6148 134.677 46.3673 135.052 47.4374 136.445C48.5148 137.849 48.168 140.601 49.4939 141.766C50.8199 142.93 53.5048 142.228 55.0365 143.116C56.5571 143.997 57.2848 146.678 58.9685 147.25C60.6225 147.813 62.8316 146.139 64.6041 146.372C66.3246 146.597 68.0225 148.795 69.8208 148.678C71.619 148.562 73.0184 146.163 74.6958 145.716C76.4232 145.257 78.8313 146.63 80.3989 145.857C81.9944 145.071 82.369 142.318 83.762 141.248C85.1661 140.171 87.9186 140.518 89.0831 139.192C90.2475 137.866 89.5459 135.181 90.4337 133.649C91.3141 132.128 93.9952 131.401 94.5674 129.717Z" fill="url(#paint2_linear_272_3974)" style=""/>
<path d="M74.4429 101.695C73.8073 101.478 73.0564 101.724 72.3011 101.971C71.653 102.183 71.0017 102.397 70.417 102.32C69.8578 102.246 69.3022 101.881 68.7416 101.512C68.0704 101.07 67.392 100.624 66.692 100.669C65.9919 100.714 65.376 101.243 64.7665 101.767C64.2578 102.204 63.7535 102.637 63.2083 102.782C62.6386 102.933 61.9655 102.805 61.2956 102.678C60.5145 102.53 59.7378 102.382 59.1347 102.679C58.5164 102.983 58.1543 103.7 57.7935 104.415C57.4891 105.018 57.1856 105.62 56.7301 105.969C56.2687 106.322 55.6039 106.461 54.9393 106.599C54.1584 106.761 53.3779 106.924 52.9282 107.435C52.4786 107.946 52.4176 108.741 52.3565 109.536C52.3045 110.213 52.2525 110.89 51.9605 111.393C51.6723 111.89 51.1147 112.268 50.5554 112.648C49.8928 113.097 49.2278 113.548 49.0057 114.2C48.7888 114.835 49.0346 115.586 49.2818 116.341C49.494 116.99 49.7072 117.641 49.6301 118.226C49.5565 118.785 49.1911 119.34 48.8224 119.901C48.381 120.572 47.9349 121.251 47.9797 121.951C48.0245 122.651 48.5537 123.267 49.0775 123.876C49.5146 124.385 49.948 124.889 50.0927 125.434C50.2439 126.004 50.1159 126.677 49.9886 127.347C49.8401 128.128 49.6924 128.905 49.9893 129.508C50.2934 130.126 51.0109 130.488 51.7257 130.849C52.3288 131.154 52.9301 131.457 53.2795 131.913C53.633 132.374 53.7713 133.039 53.9095 133.703C54.0719 134.484 54.2343 135.265 54.7456 135.714C55.2568 136.164 56.0514 136.225 56.8465 136.286C57.5235 136.338 58.2009 136.39 58.7039 136.682C59.2008 136.97 59.5789 137.528 59.9581 138.087C60.4074 138.75 60.8582 139.415 61.5102 139.637C62.1459 139.854 62.8967 139.608 63.652 139.361C64.3001 139.149 64.9515 138.935 65.5361 139.013C66.0953 139.086 66.6509 139.452 67.2115 139.82C67.8828 140.262 68.5611 140.708 69.2611 140.663C69.9612 140.618 70.5771 140.089 71.1866 139.565C71.6954 139.128 72.1996 138.695 72.7448 138.55C73.3145 138.399 73.9876 138.527 74.6575 138.654C75.4387 138.803 76.2154 138.95 76.8184 138.653C77.4367 138.349 77.7988 137.632 78.1596 136.917C78.464 136.314 78.7675 135.713 79.2231 135.363C79.6844 135.01 80.3493 134.871 81.0138 134.733C81.7947 134.571 82.5752 134.408 83.0249 133.897C83.4745 133.386 83.5356 132.591 83.5966 131.796C83.6486 131.119 83.7006 130.442 83.9926 129.939C84.2808 129.442 84.8385 129.064 85.3977 128.684C86.0603 128.235 86.7253 127.784 86.9474 127.132C87.1643 126.497 86.9185 125.746 86.6713 124.991C86.4591 124.343 86.2459 123.691 86.3231 123.107C86.3967 122.547 86.7621 121.992 87.1307 121.431C87.5721 120.76 88.0182 120.082 87.9735 119.382C87.9287 118.681 87.3994 118.065 86.8756 117.456C86.4385 116.947 86.0052 116.443 85.8604 115.898C85.7093 115.328 85.8372 114.655 85.9646 113.985C86.1131 113.204 86.2607 112.427 85.9638 111.824C85.6597 111.206 84.9422 110.844 84.2274 110.483C83.6243 110.179 83.0231 109.875 82.6737 109.42C82.3202 108.958 82.1819 108.293 82.0436 107.629C81.8812 106.848 81.7188 106.067 81.2075 105.618C80.6963 105.168 79.9017 105.107 79.1067 105.046C78.4296 104.994 77.7522 104.942 77.2492 104.65C76.7523 104.362 76.3742 103.804 75.995 103.245C75.5458 102.582 75.0949 101.917 74.4429 101.695Z" fill="#585960" style="fill:#585960;fill:color(display-p3 0.3451 0.3490 0.3765);fill-opacity:1;"/>
<path d="M74.4429 101.695C73.8073 101.478 73.0564 101.724 72.3011 101.971C71.653 102.183 71.0017 102.397 70.417 102.32C69.8578 102.246 69.3022 101.881 68.7416 101.512C68.0704 101.07 67.392 100.624 66.692 100.669C65.9919 100.714 65.376 101.243 64.7665 101.767C64.2578 102.204 63.7535 102.637 63.2083 102.782C62.6386 102.933 61.9655 102.805 61.2956 102.678C60.5145 102.53 59.7378 102.382 59.1347 102.679C58.5164 102.983 58.1543 103.7 57.7935 104.415C57.4891 105.018 57.1856 105.62 56.7301 105.969C56.2687 106.322 55.6039 106.461 54.9393 106.599C54.1584 106.761 53.3779 106.924 52.9282 107.435C52.4786 107.946 52.4176 108.741 52.3565 109.536C52.3045 110.213 52.2525 110.89 51.9605 111.393C51.6723 111.89 51.1147 112.268 50.5554 112.648C49.8928 113.097 49.2278 113.548 49.0057 114.2C48.7888 114.835 49.0346 115.586 49.2818 116.341C49.494 116.99 49.7072 117.641 49.6301 118.226C49.5565 118.785 49.1911 119.34 48.8224 119.901C48.381 120.572 47.9349 121.251 47.9797 121.951C48.0245 122.651 48.5537 123.267 49.0775 123.876C49.5146 124.385 49.948 124.889 50.0927 125.434C50.2439 126.004 50.1159 126.677 49.9886 127.347C49.8401 128.128 49.6924 128.905 49.9893 129.508C50.2934 130.126 51.0109 130.488 51.7257 130.849C52.3288 131.154 52.9301 131.457 53.2795 131.913C53.633 132.374 53.7713 133.039 53.9095 133.703C54.0719 134.484 54.2343 135.265 54.7456 135.714C55.2568 136.164 56.0514 136.225 56.8465 136.286C57.5235 136.338 58.2009 136.39 58.7039 136.682C59.2008 136.97 59.5789 137.528 59.9581 138.087C60.4074 138.75 60.8582 139.415 61.5102 139.637C62.1459 139.854 62.8967 139.608 63.652 139.361C64.3001 139.149 64.9515 138.935 65.5361 139.013C66.0953 139.086 66.6509 139.452 67.2115 139.82C67.8828 140.262 68.5611 140.708 69.2611 140.663C69.9612 140.618 70.5771 140.089 71.1866 139.565C71.6954 139.128 72.1996 138.695 72.7448 138.55C73.3145 138.399 73.9876 138.527 74.6575 138.654C75.4387 138.803 76.2154 138.95 76.8184 138.653C77.4367 138.349 77.7988 137.632 78.1596 136.917C78.464 136.314 78.7675 135.713 79.2231 135.363C79.6844 135.01 80.3493 134.871 81.0138 134.733C81.7947 134.571 82.5752 134.408 83.0249 133.897C83.4745 133.386 83.5356 132.591 83.5966 131.796C83.6486 131.119 83.7006 130.442 83.9926 129.939C84.2808 129.442 84.8385 129.064 85.3977 128.684C86.0603 128.235 86.7253 127.784 86.9474 127.132C87.1643 126.497 86.9185 125.746 86.6713 124.991C86.4591 124.343 86.2459 123.691 86.3231 123.107C86.3967 122.547 86.7621 121.992 87.1307 121.431C87.5721 120.76 88.0182 120.082 87.9735 119.382C87.9287 118.681 87.3994 118.065 86.8756 117.456C86.4385 116.947 86.0052 116.443 85.8604 115.898C85.7093 115.328 85.8372 114.655 85.9646 113.985C86.1131 113.204 86.2607 112.427 85.9638 111.824C85.6597 111.206 84.9422 110.844 84.2274 110.483C83.6243 110.179 83.0231 109.875 82.6737 109.42C82.3202 108.958 82.1819 108.293 82.0436 107.629C81.8812 106.848 81.7188 106.067 81.2075 105.618C80.6963 105.168 79.9017 105.107 79.1067 105.046C78.4296 104.994 77.7522 104.942 77.2492 104.65C76.7523 104.362 76.3742 103.804 75.995 103.245C75.5458 102.582 75.0949 101.917 74.4429 101.695Z" fill="url(#paint3_linear_272_3974)" style=""/>
<path d="M74.4429 101.695C73.8073 101.478 73.0564 101.724 72.3011 101.971C71.653 102.183 71.0017 102.397 70.417 102.32C69.8578 102.246 69.3022 101.881 68.7416 101.512C68.0704 101.07 67.392 100.624 66.692 100.669C65.9919 100.714 65.376 101.243 64.7665 101.767C64.2578 102.204 63.7535 102.637 63.2083 102.782C62.6386 102.933 61.9655 102.805 61.2956 102.678C60.5145 102.53 59.7378 102.382 59.1347 102.679C58.5164 102.983 58.1543 103.7 57.7935 104.415C57.4891 105.018 57.1856 105.62 56.7301 105.969C56.2687 106.322 55.6039 106.461 54.9393 106.599C54.1584 106.761 53.3779 106.924 52.9282 107.435C52.4786 107.946 52.4176 108.741 52.3565 109.536C52.3045 110.213 52.2525 110.89 51.9605 111.393C51.6723 111.89 51.1147 112.268 50.5554 112.648C49.8928 113.097 49.2278 113.548 49.0057 114.2C48.7888 114.835 49.0346 115.586 49.2818 116.341C49.494 116.99 49.7072 117.641 49.6301 118.226C49.5565 118.785 49.1911 119.34 48.8224 119.901C48.381 120.572 47.9349 121.251 47.9797 121.951C48.0245 122.651 48.5537 123.267 49.0775 123.876C49.5146 124.385 49.948 124.889 50.0927 125.434C50.2439 126.004 50.1159 126.677 49.9886 127.347C49.8401 128.128 49.6924 128.905 49.9893 129.508C50.2934 130.126 51.0109 130.488 51.7257 130.849C52.3288 131.154 52.9301 131.457 53.2795 131.913C53.633 132.374 53.7713 133.039 53.9095 133.703C54.0719 134.484 54.2343 135.265 54.7456 135.714C55.2568 136.164 56.0514 136.225 56.8465 136.286C57.5235 136.338 58.2009 136.39 58.7039 136.682C59.2008 136.97 59.5789 137.528 59.9581 138.087C60.4074 138.75 60.8582 139.415 61.5102 139.637C62.1459 139.854 62.8967 139.608 63.652 139.361C64.3001 139.149 64.9515 138.935 65.5361 139.013C66.0953 139.086 66.6509 139.452 67.2115 139.82C67.8828 140.262 68.5611 140.708 69.2611 140.663C69.9612 140.618 70.5771 140.089 71.1866 139.565C71.6954 139.128 72.1996 138.695 72.7448 138.55C73.3145 138.399 73.9876 138.527 74.6575 138.654C75.4387 138.803 76.2154 138.95 76.8184 138.653C77.4367 138.349 77.7988 137.632 78.1596 136.917C78.464 136.314 78.7675 135.713 79.2231 135.363C79.6844 135.01 80.3493 134.871 81.0138 134.733C81.7947 134.571 82.5752 134.408 83.0249 133.897C83.4745 133.386 83.5356 132.591 83.5966 131.796C83.6486 131.119 83.7006 130.442 83.9926 129.939C84.2808 129.442 84.8385 129.064 85.3977 128.684C86.0603 128.235 86.7253 127.784 86.9474 127.132C87.1643 126.497 86.9185 125.746 86.6713 124.991C86.4591 124.343 86.2459 123.691 86.3231 123.107C86.3967 122.547 86.7621 121.992 87.1307 121.431C87.5721 120.76 88.0182 120.082 87.9735 119.382C87.9287 118.681 87.3994 118.065 86.8756 117.456C86.4385 116.947 86.0052 116.443 85.8604 115.898C85.7093 115.328 85.8372 114.655 85.9646 113.985C86.1131 113.204 86.2607 112.427 85.9638 111.824C85.6597 111.206 84.9422 110.844 84.2274 110.483C83.6243 110.179 83.0231 109.875 82.6737 109.42C82.3202 108.958 82.1819 108.293 82.0436 107.629C81.8812 106.848 81.7188 106.067 81.2075 105.618C80.6963 105.168 79.9017 105.107 79.1067 105.046C78.4296 104.994 77.7522 104.942 77.2492 104.65C76.7523 104.362 76.3742 103.804 75.995 103.245C75.5458 102.582 75.0949 101.917 74.4429 101.695Z" stroke="#3A3B40" style="stroke:#3A3B40;stroke:color(display-p3 0.2275 0.2314 0.2510);stroke-opacity:1;"/>
<path d="M64.5213 132.369C63.4167 132.37 62.5206 131.475 62.5198 130.37L62.5059 111.427C62.5051 110.323 63.3998 109.427 64.5044 109.426L69.6628 109.422C72.5512 109.42 74.6552 110.018 75.9747 111.216C77.3152 112.415 77.9862 114.064 77.9877 116.163C77.9886 117.406 77.7174 118.574 77.174 119.667C76.6306 120.759 75.7207 121.638 74.4444 122.304C73.1891 122.969 71.473 123.302 69.2962 123.304L69.2554 123.304C68.1508 123.304 67.2561 124.201 67.2569 125.305L67.2606 130.367C67.2614 131.471 66.3667 132.367 65.2621 132.368L64.5213 132.369ZM61.5655 128.933C60.7048 128.933 60.0065 128.236 60.0059 127.375C60.0053 126.515 60.7025 125.817 61.5631 125.816L70.5338 125.809C71.3945 125.808 72.0928 126.506 72.0934 127.366C72.0941 128.227 71.3969 128.925 70.5362 128.926L61.5655 128.933ZM61.9952 123.309C60.8949 123.31 60.0023 122.419 60.0015 121.318C60.0006 120.218 60.8919 119.326 61.9922 119.325L67.2068 119.321C68.3071 119.32 69.1997 120.211 69.2005 121.312C69.2013 122.412 68.3101 123.304 67.2098 123.305L61.9952 123.309ZM68.8223 119.319C69.7224 119.319 70.4967 119.222 71.1454 119.029C71.7941 118.814 72.2962 118.481 72.6517 118.031C73.0072 117.581 73.1847 117.013 73.1842 116.328C73.1835 115.342 72.8795 114.614 72.2721 114.143C71.6648 113.651 70.7122 113.406 69.4145 113.407L69.2481 113.407C68.1436 113.408 67.2488 114.304 67.2497 115.408L67.2514 117.751C67.252 118.618 67.9554 119.32 68.8223 119.319Z" fill="#46474E" style="fill:#46474E;fill:color(display-p3 0.2745 0.2784 0.3059);fill-opacity:1;"/>
<path d="M64.5213 132.369C63.4167 132.37 62.5206 131.475 62.5198 130.37L62.5059 111.427C62.5051 110.323 63.3998 109.427 64.5044 109.426L69.6628 109.422C72.5512 109.42 74.6552 110.018 75.9747 111.216C77.3152 112.415 77.9862 114.064 77.9877 116.163C77.9886 117.406 77.7174 118.574 77.174 119.667C76.6306 120.759 75.7207 121.638 74.4444 122.304C73.1891 122.969 71.473 123.302 69.2962 123.304L69.2554 123.304C68.1508 123.304 67.2561 124.201 67.2569 125.305L67.2606 130.367C67.2614 131.471 66.3667 132.367 65.2621 132.368L64.5213 132.369ZM61.5655 128.933C60.7048 128.933 60.0065 128.236 60.0059 127.375C60.0053 126.515 60.7025 125.817 61.5631 125.816L70.5338 125.809C71.3945 125.808 72.0928 126.506 72.0934 127.366C72.0941 128.227 71.3969 128.925 70.5362 128.926L61.5655 128.933ZM61.9952 123.309C60.8949 123.31 60.0023 122.419 60.0015 121.318C60.0006 120.218 60.8919 119.326 61.9922 119.325L67.2068 119.321C68.3071 119.32 69.1997 120.211 69.2005 121.312C69.2013 122.412 68.3101 123.304 67.2098 123.305L61.9952 123.309ZM68.8223 119.319C69.7224 119.319 70.4967 119.222 71.1454 119.029C71.7941 118.814 72.2962 118.481 72.6517 118.031C73.0072 117.581 73.1847 117.013 73.1842 116.328C73.1835 115.342 72.8795 114.614 72.2721 114.143C71.6648 113.651 70.7122 113.406 69.4145 113.407L69.2481 113.407C68.1436 113.408 67.2488 114.304 67.2497 115.408L67.2514 117.751C67.252 118.618 67.9554 119.32 68.8223 119.319Z" fill="url(#paint4_linear_272_3974)" style=""/>
<defs>
<linearGradient id="paint0_linear_272_3974" x1="-17" y1="-59.3359" x2="178.488" y2="30.5135" gradientUnits="userSpaceOnUse">
<stop stop-color="white" style="stop-color:white;stop-opacity:1;"/>
<stop offset="0.12" stop-color="#51535C" style="stop-color:#51535C;stop-color:color(display-p3 0.3187 0.3238 0.3593);stop-opacity:1;"/>
<stop offset="0.440655" stop-color="white" stop-opacity="0.14" style="stop-color:white;stop-opacity:0.14;"/>
<stop offset="0.440755" stop-color="#46474E" style="stop-color:#46474E;stop-color:color(display-p3 0.2745 0.2784 0.3059);stop-opacity:1;"/>
<stop offset="0.755" stop-color="#393A3F" style="stop-color:#393A3F;stop-color:color(display-p3 0.2235 0.2275 0.2471);stop-opacity:1;"/>
</linearGradient>
<linearGradient id="paint1_linear_272_3974" x1="68.3131" y1="162.533" x2="72.3192" y2="173.15" gradientUnits="userSpaceOnUse">
<stop stop-color="#4F5058" style="stop-color:#4F5058;stop-color:color(display-p3 0.3098 0.3137 0.3451);stop-opacity:1;"/>
<stop offset="1" stop-color="#C27B4C" style="stop-color:#C27B4C;stop-color:color(display-p3 0.7592 0.4808 0.2983);stop-opacity:1;"/>
</linearGradient>
<linearGradient id="paint2_linear_272_3974" x1="68.2887" y1="92.6621" x2="68.27" y2="148.662" gradientUnits="userSpaceOnUse">
<stop stop-color="#FFD66B" style="stop-color:#FFD66B;stop-color:color(display-p3 1.0000 0.8392 0.4196);stop-opacity:1;"/>
<stop offset="1" stop-color="#FFA469" style="stop-color:#FFA469;stop-color:color(display-p3 1.0000 0.6431 0.4118);stop-opacity:1;"/>
</linearGradient>
<linearGradient id="paint3_linear_272_3974" x1="69.5" y1="100.662" x2="82.7121" y2="135.677" gradientUnits="userSpaceOnUse">
<stop stop-color="#4F5058" style="stop-color:#4F5058;stop-color:color(display-p3 0.3098 0.3137 0.3451);stop-opacity:1;"/>
<stop offset="1" stop-color="#C27B4C" style="stop-color:#C27B4C;stop-color:color(display-p3 0.7592 0.4808 0.2983);stop-opacity:1;"/>
</linearGradient>
<linearGradient id="paint4_linear_272_3974" x1="69.0923" y1="110.338" x2="69.0931" y2="132.664" gradientUnits="userSpaceOnUse">
<stop stop-color="#FFD66B" style="stop-color:#FFD66B;stop-color:color(display-p3 1.0000 0.8392 0.4196);stop-opacity:1;"/>
<stop offset="1" stop-color="#FFA469" style="stop-color:#FFA469;stop-color:color(display-p3 1.0000 0.6431 0.4118);stop-opacity:1;"/>
</linearGradient>
</defs>
</svg>
