<svg width="137" height="267" viewBox="0 0 137 267" fill="none" xmlns="http://www.w3.org/2000/svg">
<path d="M67.9907 187.658C78.0831 187.658 86.2933 195.868 86.2933 205.96L86.2933 229.083L93.2852 229.083L93.2852 205.96C93.2867 192.012 81.94 180.664 67.9922 180.664L67.9907 187.658Z" fill="#717278" style="fill:#717278;fill:color(display-p3 0.4431 0.4471 0.4706);fill-opacity:1;"/>
<path d="M0.00563873 19.3055C0.00366499 12.5848 0.00267812 9.22452 1.30985 6.65758C2.45966 4.39964 4.29489 2.56387 6.5525 1.41339C9.11905 0.105469 12.4794 0.105469 19.2 0.105469L116.8 0.105469C123.521 0.105469 126.881 0.105469 129.448 1.41339C131.707 2.56387 133.543 4.39964 134.694 6.65758C136.003 9.22452 136.004 12.5848 136.006 19.3055L136.04 137.664C136.051 175.219 105.616 205.664 68.0604 205.664C30.505 205.664 0.0514281 175.219 0.0403987 137.664L0.00563873 19.3055Z" fill="#46474E" style="fill:#46474E;fill:color(display-p3 0.2745 0.2784 0.3059);fill-opacity:1;"/>
<path d="M0.00563873 19.3055C0.00366499 12.5848 0.00267812 9.22452 1.30985 6.65758C2.45966 4.39964 4.29489 2.56387 6.5525 1.41339C9.11905 0.105469 12.4794 0.105469 19.2 0.105469L116.8 0.105469C123.521 0.105469 126.881 0.105469 129.448 1.41339C131.707 2.56387 133.543 4.39964 134.694 6.65758C136.003 9.22452 136.004 12.5848 136.006 19.3055L136.04 137.664C136.051 175.219 105.616 205.664 68.0604 205.664C30.505 205.664 0.0514281 175.219 0.0403987 137.664L0.00563873 19.3055Z" fill="url(#paint0_linear_403_1561)" style=""/>
<path fill-rule="evenodd" clip-rule="evenodd" d="M24.9844 51.1641C24.9844 49.7834 26.1037 48.6641 27.4844 48.6641H96.4844C97.8651 48.6641 98.9844 49.7834 98.9844 51.1641C98.9844 52.5448 97.8651 53.6641 96.4844 53.6641H27.4844C26.1037 53.6641 24.9844 52.5448 24.9844 51.1641Z" fill="#FFA469" style="fill:#FFA469;fill:color(display-p3 1.0000 0.6431 0.4118);fill-opacity:1;"/>
<path fill-rule="evenodd" clip-rule="evenodd" d="M24.9883 63.6641C24.9883 62.0072 26.3314 60.6641 27.9883 60.6641H79.9883C81.6451 60.6641 82.9883 62.0072 82.9883 63.6641C82.9883 65.3209 81.6451 66.6641 79.9883 66.6641H27.9883C26.3314 66.6641 24.9883 65.3209 24.9883 63.6641Z" fill="#FFA469" style="fill:#FFA469;fill:color(display-p3 1.0000 0.6431 0.4118);fill-opacity:1;"/>
<path opacity="0.1" fill-rule="evenodd" clip-rule="evenodd" d="M24.9453 83.6641C24.9453 82.0072 26.2885 80.6641 27.9453 80.6641H108.945C110.602 80.6641 111.945 82.0072 111.945 83.6641C111.945 85.3209 110.602 86.6641 108.945 86.6641H27.9453C26.2885 86.6641 24.9453 85.3209 24.9453 83.6641Z" fill="#F3F0F0" style="fill:#F3F0F0;fill:color(display-p3 0.9529 0.9412 0.9412);fill-opacity:1;"/>
<path opacity="0.1" fill-rule="evenodd" clip-rule="evenodd" d="M24.9453 96.6641C24.9453 95.0072 26.2885 93.6641 27.9453 93.6641H108.945C110.602 93.6641 111.945 95.0072 111.945 96.6641C111.945 98.3209 110.602 99.6641 108.945 99.6641H27.9453C26.2885 99.6641 24.9453 98.3209 24.9453 96.6641Z" fill="#F3F0F0" style="fill:#F3F0F0;fill:color(display-p3 0.9529 0.9412 0.9412);fill-opacity:1;"/>
<path opacity="0.1" fill-rule="evenodd" clip-rule="evenodd" d="M24.9453 109.664C24.9453 108.007 26.2885 106.664 27.9453 106.664H39.9453C41.6022 106.664 42.9453 108.007 42.9453 109.664C42.9453 111.321 41.6022 112.664 39.9453 112.664H27.9453C26.2885 112.664 24.9453 111.321 24.9453 109.664Z" fill="#F3F0F0" style="fill:#F3F0F0;fill:color(display-p3 0.9529 0.9412 0.9412);fill-opacity:1;"/>
<path opacity="0.1" fill-rule="evenodd" clip-rule="evenodd" d="M24.9492 122.664C24.9492 121.007 26.2924 119.664 27.9492 119.664H30.9492C32.6061 119.664 33.9492 121.007 33.9492 122.664C33.9492 124.321 32.6061 125.664 30.9492 125.664H27.9492C26.2924 125.664 24.9492 124.321 24.9492 122.664Z" fill="#F3F0F0" style="fill:#F3F0F0;fill:color(display-p3 0.9529 0.9412 0.9412);fill-opacity:1;"/>
<path opacity="0.1" fill-rule="evenodd" clip-rule="evenodd" d="M102.945 122.664C102.945 121.007 104.288 119.664 105.945 119.664H108.945C110.602 119.664 111.945 121.007 111.945 122.664C111.945 124.321 110.602 125.664 108.945 125.664H105.945C104.288 125.664 102.945 124.321 102.945 122.664Z" fill="#F3F0F0" style="fill:#F3F0F0;fill:color(display-p3 0.9529 0.9412 0.9412);fill-opacity:1;"/>
<path opacity="0.1" fill-rule="evenodd" clip-rule="evenodd" d="M93.9453 109.664C93.9453 108.007 95.2885 106.664 96.9453 106.664H108.945C110.602 106.664 111.945 108.007 111.945 109.664C111.945 111.321 110.602 112.664 108.945 112.664H96.9453C95.2885 112.664 93.9453 111.321 93.9453 109.664Z" fill="#F3F0F0" style="fill:#F3F0F0;fill:color(display-p3 0.9529 0.9412 0.9412);fill-opacity:1;"/>
<path fill-rule="evenodd" clip-rule="evenodd" d="M87.9844 63.6641C87.9844 62.0072 89.3275 60.6641 90.9844 60.6641H108.984C110.641 60.6641 111.984 62.0072 111.984 63.6641C111.984 65.3209 110.641 66.6641 108.984 66.6641H90.9844C89.3275 66.6641 87.9844 65.3209 87.9844 63.6641Z" fill="#FFA469" style="fill:#FFA469;fill:color(display-p3 1.0000 0.6431 0.4118);fill-opacity:1;"/>
<path fill-rule="evenodd" clip-rule="evenodd" d="M103.984 51.1641C103.984 49.7834 105.104 48.6641 106.484 48.6641H109.484C110.865 48.6641 111.984 49.7834 111.984 51.1641C111.984 52.5448 110.865 53.6641 109.484 53.6641H106.484C105.104 53.6641 103.984 52.5448 103.984 51.1641Z" fill="#FFA469" style="fill:#FFA469;fill:color(display-p3 1.0000 0.6431 0.4118);fill-opacity:1;"/>
<rect x="61.9688" y="177.672" width="12" height="12" rx="6" transform="rotate(-0.0429595 61.9688 177.672)" fill="#D9D9D9" style="fill:#D9D9D9;fill:color(display-p3 0.8510 0.8510 0.8510);fill-opacity:1;"/>
<rect x="61.9688" y="177.672" width="12" height="12" rx="6" transform="rotate(-0.0429595 61.9688 177.672)" fill="url(#paint1_linear_403_1561)" style=""/>
<path d="M94.587 146.055C95.1499 144.401 93.4761 142.192 93.7086 140.419C93.9338 138.699 96.1317 137.001 96.0153 135.203C95.8989 133.404 93.5 132.005 93.0534 130.328C92.5937 128.6 93.9671 126.192 93.1939 124.625C92.4076 123.029 89.6551 122.654 88.5851 121.261C87.5076 119.857 87.8545 117.105 86.5285 115.94C85.2026 114.776 82.5177 115.478 80.9859 114.59C79.4653 113.709 78.7376 111.028 77.054 110.456C75.4 109.893 73.1909 111.567 71.4184 111.334C69.6978 111.109 67.9999 108.911 66.2017 109.028C64.4034 109.144 63.004 111.543 61.3267 111.99C59.5992 112.449 57.1911 111.076 55.6235 111.849C54.0281 112.635 53.6534 115.388 52.2605 116.458C50.8564 117.535 48.1039 117.188 46.9394 118.514C45.7749 119.84 46.4766 122.525 45.5888 124.057C44.7084 125.578 42.0272 126.305 41.455 127.989C40.8921 129.643 42.5658 131.852 42.3333 133.625C42.1082 135.345 39.9103 137.043 40.0267 138.841C40.1431 140.64 42.5419 142.039 42.9886 143.716C43.4483 145.444 42.0749 147.852 42.8481 149.419C43.6343 151.015 46.3869 151.39 47.4569 152.783C48.5343 154.187 48.1875 156.939 49.5135 158.104C50.8394 159.268 53.5243 158.566 55.0561 159.454C56.5767 160.335 57.3043 163.016 58.988 163.588C60.642 164.151 62.8511 162.477 64.6236 162.71C66.3442 162.935 68.0421 165.133 69.8403 165.016C71.6386 164.9 73.0379 162.501 74.7153 162.054C76.4428 161.595 78.8508 162.968 80.4185 162.195C82.0139 161.409 82.3886 158.656 83.7815 157.586C85.1856 156.509 87.9381 156.855 89.1026 155.53C90.2671 154.204 89.5654 151.519 90.4532 149.987C91.3336 148.466 94.0148 147.739 94.587 146.055Z" fill="#717278" style="fill:#717278;fill:color(display-p3 0.4431 0.4471 0.4706);fill-opacity:1;"/>
<path d="M94.587 146.055C95.1499 144.401 93.4761 142.192 93.7086 140.419C93.9338 138.699 96.1317 137.001 96.0153 135.203C95.8989 133.404 93.5 132.005 93.0534 130.328C92.5937 128.6 93.9671 126.192 93.1939 124.625C92.4076 123.029 89.6551 122.654 88.5851 121.261C87.5076 119.857 87.8545 117.105 86.5285 115.94C85.2026 114.776 82.5177 115.478 80.9859 114.59C79.4653 113.709 78.7376 111.028 77.054 110.456C75.4 109.893 73.1909 111.567 71.4184 111.334C69.6978 111.109 67.9999 108.911 66.2017 109.028C64.4034 109.144 63.004 111.543 61.3267 111.99C59.5992 112.449 57.1911 111.076 55.6235 111.849C54.0281 112.635 53.6534 115.388 52.2605 116.458C50.8564 117.535 48.1039 117.188 46.9394 118.514C45.7749 119.84 46.4766 122.525 45.5888 124.057C44.7084 125.578 42.0272 126.305 41.455 127.989C40.8921 129.643 42.5658 131.852 42.3333 133.625C42.1082 135.345 39.9103 137.043 40.0267 138.841C40.1431 140.64 42.5419 142.039 42.9886 143.716C43.4483 145.444 42.0749 147.852 42.8481 149.419C43.6343 151.015 46.3869 151.39 47.4569 152.783C48.5343 154.187 48.1875 156.939 49.5135 158.104C50.8394 159.268 53.5243 158.566 55.0561 159.454C56.5767 160.335 57.3043 163.016 58.988 163.588C60.642 164.151 62.8511 162.477 64.6236 162.71C66.3442 162.935 68.0421 165.133 69.8403 165.016C71.6386 164.9 73.0379 162.501 74.7153 162.054C76.4428 161.595 78.8508 162.968 80.4185 162.195C82.0139 161.409 82.3886 158.656 83.7815 157.586C85.1856 156.509 87.9381 156.855 89.1026 155.53C90.2671 154.204 89.5654 151.519 90.4532 149.987C91.3336 148.466 94.0148 147.739 94.587 146.055Z" fill="url(#paint2_linear_403_1561)" style=""/>
<path d="M75.113 114.252C74.4138 113.997 73.5878 114.286 72.757 114.577C72.0441 114.826 71.3276 115.076 70.6845 114.986C70.0694 114.899 69.4582 114.47 68.8416 114.037C68.1032 113.518 67.357 112.994 66.587 113.047C65.8169 113.099 65.1394 113.721 64.4689 114.337C63.9093 114.85 63.3546 115.359 62.7549 115.529C62.1282 115.707 61.3878 115.557 60.651 115.407C59.7917 115.233 58.9373 115.059 58.274 115.408C57.5938 115.765 57.1955 116.608 56.7986 117.448C56.4638 118.157 56.13 118.863 55.6288 119.274C55.1213 119.689 54.39 119.852 53.659 120.014C52.8001 120.205 51.9415 120.396 51.4468 120.997C50.9522 121.597 50.8851 122.531 50.818 123.465C50.7608 124.261 50.7036 125.057 50.3823 125.648C50.0653 126.231 49.4519 126.676 48.8367 127.121C48.1078 127.649 47.3764 128.179 47.1321 128.945C46.8935 129.692 47.1638 130.574 47.4358 131.462C47.6692 132.223 47.9037 132.988 47.8189 133.675C47.7379 134.332 47.336 134.985 46.9305 135.644C46.4449 136.433 45.9542 137.23 46.0034 138.052C46.0527 138.875 46.6349 139.599 47.211 140.315C47.6919 140.913 48.1686 141.505 48.3278 142.146C48.494 142.815 48.3533 143.606 48.2132 144.393C48.0499 145.311 47.8874 146.224 48.214 146.932C48.5486 147.659 49.3378 148.084 50.124 148.508C50.7875 148.866 51.4488 149.222 51.8332 149.758C52.2221 150.3 52.3742 151.081 52.5262 151.862C52.7049 152.779 52.8835 153.696 53.446 154.225C54.0083 154.753 54.8823 154.825 55.7569 154.897C56.5017 154.958 57.2468 155.019 57.8001 155.362C58.3467 155.7 58.7626 156.356 59.1797 157.013C59.6739 157.791 60.1698 158.573 60.887 158.834C61.5862 159.089 62.4122 158.8 63.243 158.509C63.9559 158.26 64.6724 158.009 65.3155 158.1C65.9306 158.187 66.5418 158.616 67.1584 159.049C67.8968 159.568 68.643 160.092 69.413 160.039C70.1831 159.987 70.8606 159.365 71.5311 158.749C72.0907 158.236 72.6454 157.727 73.2451 157.557C73.8718 157.379 74.6122 157.529 75.349 157.679C76.2083 157.853 77.0627 158.027 77.726 157.678C78.4062 157.321 78.8045 156.478 79.2014 155.638C79.5362 154.929 79.87 154.223 80.3712 153.812C80.8787 153.397 81.61 153.234 82.341 153.072C83.1999 152.881 84.0585 152.69 84.5532 152.089C85.0478 151.489 85.1149 150.555 85.182 149.621C85.2392 148.825 85.2964 148.029 85.6177 147.438C85.9347 146.854 86.5481 146.41 87.1633 145.965C87.8922 145.437 88.6236 144.907 88.8679 144.141C89.1065 143.394 88.8362 142.512 88.5642 141.624C88.3308 140.863 88.0963 140.097 88.1811 139.411C88.2621 138.753 88.664 138.101 89.0696 137.442C89.5551 136.653 90.0458 135.856 89.9966 135.034C89.9473 134.211 89.3651 133.487 88.789 132.771C88.3081 132.173 87.8315 131.581 87.6722 130.94C87.506 130.271 87.6467 129.48 87.7868 128.693C87.9501 127.775 88.1126 126.862 87.786 126.154C87.4514 125.427 86.6622 125.002 85.876 124.578C85.2125 124.22 84.5512 123.864 84.1668 123.328C83.7779 122.786 83.6258 122.005 83.4738 121.224C83.2951 120.307 83.1165 119.39 82.5541 118.861C81.9918 118.333 81.1177 118.261 80.2431 118.189C79.4983 118.128 78.7532 118.067 78.1999 117.724C77.6533 117.385 77.2374 116.73 76.8203 116.073C76.3261 115.295 75.8302 114.513 75.113 114.252Z" fill="#585960" style="fill:#585960;fill:color(display-p3 0.3451 0.3490 0.3765);fill-opacity:1;"/>
<path d="M75.113 114.252C74.4138 113.997 73.5878 114.286 72.757 114.577C72.0441 114.826 71.3276 115.076 70.6845 114.986C70.0694 114.899 69.4582 114.47 68.8416 114.037C68.1032 113.518 67.357 112.994 66.587 113.047C65.8169 113.099 65.1394 113.721 64.4689 114.337C63.9093 114.85 63.3546 115.359 62.7549 115.529C62.1282 115.707 61.3878 115.557 60.651 115.407C59.7917 115.233 58.9373 115.059 58.274 115.408C57.5938 115.765 57.1955 116.608 56.7986 117.448C56.4638 118.157 56.13 118.863 55.6288 119.274C55.1213 119.689 54.39 119.852 53.659 120.014C52.8001 120.205 51.9415 120.396 51.4468 120.997C50.9522 121.597 50.8851 122.531 50.818 123.465C50.7608 124.261 50.7036 125.057 50.3823 125.648C50.0653 126.231 49.4519 126.676 48.8367 127.121C48.1078 127.649 47.3764 128.179 47.1321 128.945C46.8935 129.692 47.1638 130.574 47.4358 131.462C47.6692 132.223 47.9037 132.988 47.8189 133.675C47.7379 134.332 47.336 134.985 46.9305 135.644C46.4449 136.433 45.9542 137.23 46.0034 138.052C46.0527 138.875 46.6349 139.599 47.211 140.315C47.6919 140.913 48.1686 141.505 48.3278 142.146C48.494 142.815 48.3533 143.606 48.2132 144.393C48.0499 145.311 47.8874 146.224 48.214 146.932C48.5486 147.659 49.3378 148.084 50.124 148.508C50.7875 148.866 51.4488 149.222 51.8332 149.758C52.2221 150.3 52.3742 151.081 52.5262 151.862C52.7049 152.779 52.8835 153.696 53.446 154.225C54.0083 154.753 54.8823 154.825 55.7569 154.897C56.5017 154.958 57.2468 155.019 57.8001 155.362C58.3467 155.7 58.7626 156.356 59.1797 157.013C59.6739 157.791 60.1698 158.573 60.887 158.834C61.5862 159.089 62.4122 158.8 63.243 158.509C63.9559 158.26 64.6724 158.009 65.3155 158.1C65.9306 158.187 66.5418 158.616 67.1584 159.049C67.8968 159.568 68.643 160.092 69.413 160.039C70.1831 159.987 70.8606 159.365 71.5311 158.749C72.0907 158.236 72.6454 157.727 73.2451 157.557C73.8718 157.379 74.6122 157.529 75.349 157.679C76.2083 157.853 77.0627 158.027 77.726 157.678C78.4062 157.321 78.8045 156.478 79.2014 155.638C79.5362 154.929 79.87 154.223 80.3712 153.812C80.8787 153.397 81.61 153.234 82.341 153.072C83.1999 152.881 84.0585 152.69 84.5532 152.089C85.0478 151.489 85.1149 150.555 85.182 149.621C85.2392 148.825 85.2964 148.029 85.6177 147.438C85.9347 146.854 86.5481 146.41 87.1633 145.965C87.8922 145.437 88.6236 144.907 88.8679 144.141C89.1065 143.394 88.8362 142.512 88.5642 141.624C88.3308 140.863 88.0963 140.097 88.1811 139.411C88.2621 138.753 88.664 138.101 89.0696 137.442C89.5551 136.653 90.0458 135.856 89.9966 135.034C89.9473 134.211 89.3651 133.487 88.789 132.771C88.3081 132.173 87.8315 131.581 87.6722 130.94C87.506 130.271 87.6467 129.48 87.7868 128.693C87.9501 127.775 88.1126 126.862 87.786 126.154C87.4514 125.427 86.6622 125.002 85.876 124.578C85.2125 124.22 84.5512 123.864 84.1668 123.328C83.7779 122.786 83.6258 122.005 83.4738 121.224C83.2951 120.307 83.1165 119.39 82.5541 118.861C81.9918 118.333 81.1177 118.261 80.2431 118.189C79.4983 118.128 78.7532 118.067 78.1999 117.724C77.6533 117.385 77.2374 116.73 76.8203 116.073C76.3261 115.295 75.8302 114.513 75.113 114.252Z" fill="url(#paint3_linear_403_1561)" style=""/>
<path d="M75.113 114.252C74.4138 113.997 73.5878 114.286 72.757 114.577C72.0441 114.826 71.3276 115.076 70.6845 114.986C70.0694 114.899 69.4582 114.47 68.8416 114.037C68.1032 113.518 67.357 112.994 66.587 113.047C65.8169 113.099 65.1394 113.721 64.4689 114.337C63.9093 114.85 63.3546 115.359 62.7549 115.529C62.1282 115.707 61.3878 115.557 60.651 115.407C59.7917 115.233 58.9373 115.059 58.274 115.408C57.5938 115.765 57.1955 116.608 56.7986 117.448C56.4638 118.157 56.13 118.863 55.6288 119.274C55.1213 119.689 54.39 119.852 53.659 120.014C52.8001 120.205 51.9415 120.396 51.4468 120.997C50.9522 121.597 50.8851 122.531 50.818 123.465C50.7608 124.261 50.7036 125.057 50.3823 125.648C50.0653 126.231 49.4519 126.676 48.8367 127.121C48.1078 127.649 47.3764 128.179 47.1321 128.945C46.8935 129.692 47.1638 130.574 47.4358 131.462C47.6692 132.223 47.9037 132.988 47.8189 133.675C47.7379 134.332 47.336 134.985 46.9305 135.644C46.4449 136.433 45.9542 137.23 46.0034 138.052C46.0527 138.875 46.6349 139.599 47.211 140.315C47.6919 140.913 48.1686 141.505 48.3278 142.146C48.494 142.815 48.3533 143.606 48.2132 144.393C48.0499 145.311 47.8874 146.224 48.214 146.932C48.5486 147.659 49.3378 148.084 50.124 148.508C50.7875 148.866 51.4488 149.222 51.8332 149.758C52.2221 150.3 52.3742 151.081 52.5262 151.862C52.7049 152.779 52.8835 153.696 53.446 154.225C54.0083 154.753 54.8823 154.825 55.7569 154.897C56.5017 154.958 57.2468 155.019 57.8001 155.362C58.3467 155.7 58.7626 156.356 59.1797 157.013C59.6739 157.791 60.1698 158.573 60.887 158.834C61.5862 159.089 62.4122 158.8 63.243 158.509C63.9559 158.26 64.6724 158.009 65.3155 158.1C65.9306 158.187 66.5418 158.616 67.1584 159.049C67.8968 159.568 68.643 160.092 69.413 160.039C70.1831 159.987 70.8606 159.365 71.5311 158.749C72.0907 158.236 72.6454 157.727 73.2451 157.557C73.8718 157.379 74.6122 157.529 75.349 157.679C76.2083 157.853 77.0627 158.027 77.726 157.678C78.4062 157.321 78.8045 156.478 79.2014 155.638C79.5362 154.929 79.87 154.223 80.3712 153.812C80.8787 153.397 81.61 153.234 82.341 153.072C83.1999 152.881 84.0585 152.69 84.5532 152.089C85.0478 151.489 85.1149 150.555 85.182 149.621C85.2392 148.825 85.2964 148.029 85.6177 147.438C85.9347 146.854 86.5481 146.41 87.1633 145.965C87.8922 145.437 88.6236 144.907 88.8679 144.141C89.1065 143.394 88.8362 142.512 88.5642 141.624C88.3308 140.863 88.0963 140.097 88.1811 139.411C88.2621 138.753 88.664 138.101 89.0696 137.442C89.5551 136.653 90.0458 135.856 89.9966 135.034C89.9473 134.211 89.3651 133.487 88.789 132.771C88.3081 132.173 87.8315 131.581 87.6722 130.94C87.506 130.271 87.6467 129.48 87.7868 128.693C87.9501 127.775 88.1126 126.862 87.786 126.154C87.4514 125.427 86.6622 125.002 85.876 124.578C85.2125 124.22 84.5512 123.864 84.1668 123.328C83.7779 122.786 83.6258 122.005 83.4738 121.224C83.2951 120.307 83.1165 119.39 82.5541 118.861C81.9918 118.333 81.1177 118.261 80.2431 118.189C79.4983 118.128 78.7532 118.067 78.1999 117.724C77.6533 117.385 77.2374 116.73 76.8203 116.073C76.3261 115.295 75.8302 114.513 75.113 114.252Z" stroke="#3A3B40" style="stroke:#3A3B40;stroke:color(display-p3 0.2275 0.2314 0.2510);stroke-opacity:1;"/>
<path d="M64.5096 148.412C63.405 148.413 62.5089 147.518 62.5081 146.413L62.4942 127.47C62.4934 126.366 63.3881 125.47 64.4927 125.469L69.6511 125.465C72.5395 125.463 74.6435 126.061 75.963 127.259C77.3035 128.458 77.9745 130.107 77.976 132.206C77.9769 133.449 77.7057 134.617 77.1623 135.71C76.6189 136.802 75.709 137.681 74.4327 138.346C73.1774 139.012 71.4613 139.345 69.2845 139.347L69.2436 139.347C68.1391 139.347 67.2444 140.244 67.2452 141.348L67.2489 146.41C67.2497 147.514 66.355 148.41 65.2504 148.411L64.5096 148.412ZM61.5538 144.976C60.6931 144.976 59.9948 144.279 59.9942 143.418C59.9935 142.558 60.6907 141.86 61.5514 141.859L70.5221 141.852C71.3828 141.851 72.0811 142.549 72.0817 143.409C72.0823 144.27 71.3851 144.968 70.5245 144.969L61.5538 144.976ZM61.9835 139.352C60.8832 139.353 59.9905 138.462 59.9897 137.361C59.9889 136.261 60.8802 135.369 61.9805 135.368L67.1951 135.364C68.2954 135.363 69.188 136.254 69.1888 137.354C69.1896 138.455 68.2984 139.347 67.1981 139.348L61.9835 139.352ZM68.8106 135.362C69.7106 135.362 70.485 135.265 71.1337 135.071C71.7824 134.857 72.2845 134.524 72.64 134.074C72.9955 133.624 73.173 133.056 73.1725 132.371C73.1718 131.385 72.8677 130.657 72.2604 130.186C71.6531 129.694 70.7005 129.449 69.4028 129.45L69.2364 129.45C68.1319 129.451 67.2371 130.347 67.2379 131.451L67.2397 133.794C67.2403 134.661 67.9436 135.363 68.8106 135.362Z" fill="#46474E" style="fill:#46474E;fill:color(display-p3 0.2745 0.2784 0.3059);fill-opacity:1;"/>
<path d="M64.5096 148.412C63.405 148.413 62.5089 147.518 62.5081 146.413L62.4942 127.47C62.4934 126.366 63.3881 125.47 64.4927 125.469L69.6511 125.465C72.5395 125.463 74.6435 126.061 75.963 127.259C77.3035 128.458 77.9745 130.107 77.976 132.206C77.9769 133.449 77.7057 134.617 77.1623 135.71C76.6189 136.802 75.709 137.681 74.4327 138.346C73.1774 139.012 71.4613 139.345 69.2845 139.347L69.2436 139.347C68.1391 139.347 67.2444 140.244 67.2452 141.348L67.2489 146.41C67.2497 147.514 66.355 148.41 65.2504 148.411L64.5096 148.412ZM61.5538 144.976C60.6931 144.976 59.9948 144.279 59.9942 143.418C59.9935 142.558 60.6907 141.86 61.5514 141.859L70.5221 141.852C71.3828 141.851 72.0811 142.549 72.0817 143.409C72.0823 144.27 71.3851 144.968 70.5245 144.969L61.5538 144.976ZM61.9835 139.352C60.8832 139.353 59.9905 138.462 59.9897 137.361C59.9889 136.261 60.8802 135.369 61.9805 135.368L67.1951 135.364C68.2954 135.363 69.188 136.254 69.1888 137.354C69.1896 138.455 68.2984 139.347 67.1981 139.348L61.9835 139.352ZM68.8106 135.362C69.7106 135.362 70.485 135.265 71.1337 135.071C71.7824 134.857 72.2845 134.524 72.64 134.074C72.9955 133.624 73.173 133.056 73.1725 132.371C73.1718 131.385 72.8677 130.657 72.2604 130.186C71.6531 129.694 70.7005 129.449 69.4028 129.45L69.2364 129.45C68.1319 129.451 67.2371 130.347 67.2379 131.451L67.2397 133.794C67.2403 134.661 67.9436 135.363 68.8106 135.362Z" fill="url(#paint4_linear_403_1561)" style=""/>
<path d="M71.794 188.296C70.2637 187.88 68.6542 187.658 66.9937 187.658C56.9013 187.658 48.6911 195.868 48.6911 205.96L48.6911 229.083L41.6992 229.083L41.6992 205.96C41.6977 192.012 53.0444 180.664 66.9922 180.664C69.2789 180.664 71.4958 180.969 73.6042 181.541C74.9922 185.664 72.4922 187.664 71.794 188.296Z" fill="#717278" style="fill:#717278;fill:color(display-p3 0.4431 0.4471 0.4706);fill-opacity:1;"/>
<g clip-path="url(#clip0_403_1561)">
<path d="M100.28 218.32L33.7044 218.32C32.2065 218.32 30.9922 219.535 30.9922 221.033L30.9922 264.288C30.9922 265.786 32.2065 267 33.7044 267L100.28 267C101.778 267 102.992 265.786 102.992 264.288L102.992 221.033C102.992 219.535 101.778 218.32 100.28 218.32Z" fill="#F2CB30" style="fill:#F2CB30;fill:color(display-p3 0.9490 0.7961 0.1882);fill-opacity:1;"/>
<path d="M100.28 218.32L33.7044 218.32C32.2065 218.32 30.9922 219.535 30.9922 221.033L30.9922 264.288C30.9922 265.786 32.2065 267 33.7044 267L100.28 267C101.778 267 102.992 265.786 102.992 264.288L102.992 221.033C102.992 219.535 101.778 218.32 100.28 218.32Z" fill="url(#paint5_linear_403_1561)" style=""/>
</g>
<path d="M72.9394 236.615C72.9398 236.615 72.9402 236.614 72.9402 236.614C72.9397 233.329 70.2762 230.664 66.9896 230.664C63.7027 230.664 61.0391 233.328 61.0391 236.615C61.0391 238.147 61.6205 239.54 62.5728 240.594C63.0637 241.137 63.3871 241.842 63.2851 242.567L61.878 252.567C61.7087 253.77 62.6431 254.845 63.8585 254.845L70.1191 254.845C71.3345 254.845 72.269 253.77 72.0996 252.567L70.6927 242.568C70.5906 241.842 70.9146 241.137 71.4058 240.593C72.3574 239.54 72.9384 238.147 72.9386 236.615C72.9386 236.615 72.9389 236.615 72.9394 236.615Z" fill="#58595A" style="fill:#58595A;fill:color(display-p3 0.3451 0.3490 0.3529);fill-opacity:1;"/>
<path d="M72.9394 236.615C72.9398 236.615 72.9402 236.614 72.9402 236.614C72.9397 233.329 70.2762 230.664 66.9896 230.664C63.7027 230.664 61.0391 233.328 61.0391 236.615C61.0391 238.147 61.6205 239.54 62.5728 240.594C63.0637 241.137 63.3871 241.842 63.2851 242.567L61.878 252.567C61.7087 253.77 62.6431 254.845 63.8585 254.845L70.1191 254.845C71.3345 254.845 72.269 253.77 72.0996 252.567L70.6927 242.568C70.5906 241.842 70.9146 241.137 71.4058 240.593C72.3574 239.54 72.9384 238.147 72.9386 236.615C72.9386 236.615 72.9389 236.615 72.9394 236.615Z" fill="url(#paint6_linear_403_1561)" style=""/>
<path d="M33.6328 227.563L33.6328 236.15C33.9332 231.366 36.2599 220.957 50.8071 220.957L40.2383 220.957C36.275 220.957 33.6328 222.939 33.6328 227.563Z" fill="#FFEB94" style="fill:#FFEB94;fill:color(display-p3 1.0000 0.9229 0.5785);fill-opacity:1;"/>
<defs>
<linearGradient id="paint0_linear_403_1561" x1="-70.5117" y1="-13" x2="160.582" y2="108.042" gradientUnits="userSpaceOnUse">
<stop stop-color="white" style="stop-color:white;stop-opacity:1;"/>
<stop offset="0.12" stop-color="#51535C" style="stop-color:#51535C;stop-color:color(display-p3 0.3187 0.3238 0.3593);stop-opacity:1;"/>
<stop offset="0.440655" stop-color="white" stop-opacity="0.14" style="stop-color:white;stop-opacity:0.14;"/>
<stop offset="0.440755" stop-color="#46474E" style="stop-color:#46474E;stop-color:color(display-p3 0.2745 0.2784 0.3059);stop-opacity:1;"/>
<stop offset="0.755" stop-color="#393A3F" style="stop-color:#393A3F;stop-color:color(display-p3 0.2235 0.2275 0.2471);stop-opacity:1;"/>
</linearGradient>
<linearGradient id="paint1_linear_403_1561" x1="68.3013" y1="177.531" x2="72.3075" y2="188.148" gradientUnits="userSpaceOnUse">
<stop stop-color="#4F5058" style="stop-color:#4F5058;stop-color:color(display-p3 0.3098 0.3137 0.3451);stop-opacity:1;"/>
<stop offset="1" stop-color="#C27B4C" style="stop-color:#C27B4C;stop-color:color(display-p3 0.7592 0.4808 0.2983);stop-opacity:1;"/>
</linearGradient>
<linearGradient id="paint2_linear_403_1561" x1="68.3082" y1="109" x2="68.2896" y2="165" gradientUnits="userSpaceOnUse">
<stop stop-color="#FFD66B" style="stop-color:#FFD66B;stop-color:color(display-p3 1.0000 0.8392 0.4196);stop-opacity:1;"/>
<stop offset="1" stop-color="#FFA469" style="stop-color:#FFA469;stop-color:color(display-p3 1.0000 0.6431 0.4118);stop-opacity:1;"/>
</linearGradient>
<linearGradient id="paint3_linear_403_1561" x1="69.6758" y1="113.038" x2="85.972" y2="153.47" gradientUnits="userSpaceOnUse">
<stop stop-color="#4F5058" style="stop-color:#4F5058;stop-color:color(display-p3 0.3098 0.3137 0.3451);stop-opacity:1;"/>
<stop offset="1" stop-color="#C27B4C" style="stop-color:#C27B4C;stop-color:color(display-p3 0.7592 0.4808 0.2983);stop-opacity:1;"/>
</linearGradient>
<linearGradient id="paint4_linear_403_1561" x1="69.0806" y1="126.381" x2="69.0814" y2="148.707" gradientUnits="userSpaceOnUse">
<stop stop-color="#FFD66B" style="stop-color:#FFD66B;stop-color:color(display-p3 1.0000 0.8392 0.4196);stop-opacity:1;"/>
<stop offset="1" stop-color="#FFA469" style="stop-color:#FFA469;stop-color:color(display-p3 1.0000 0.6431 0.4118);stop-opacity:1;"/>
</linearGradient>
<linearGradient id="paint5_linear_403_1561" x1="51.371" y1="233.655" x2="80.2253" y2="268.79" gradientUnits="userSpaceOnUse">
<stop stop-color="#FFD66B" style="stop-color:#FFD66B;stop-color:color(display-p3 1.0000 0.8392 0.4196);stop-opacity:1;"/>
<stop offset="1" stop-color="#FFA469" style="stop-color:#FFA469;stop-color:color(display-p3 1.0000 0.6431 0.4118);stop-opacity:1;"/>
</linearGradient>
<linearGradient id="paint6_linear_403_1561" x1="67.3195" y1="230.38" x2="79.1206" y2="245.773" gradientUnits="userSpaceOnUse">
<stop stop-color="#4F5058" style="stop-color:#4F5058;stop-color:color(display-p3 0.3098 0.3137 0.3451);stop-opacity:1;"/>
<stop offset="1" stop-color="#C27B4C" style="stop-color:#C27B4C;stop-color:color(display-p3 0.7592 0.4808 0.2983);stop-opacity:1;"/>
</linearGradient>
<clipPath id="clip0_403_1561">
<rect x="30.9922" y="218.32" width="72" height="48.6801" rx="7.9266" fill="white" style="fill:white;fill-opacity:1;"/>
</clipPath>
</defs>
</svg>
