<svg width="231" height="26" viewBox="0 0 231 26" fill="none" xmlns="http://www.w3.org/2000/svg">
<g clip-path="url(#clip0_2045_2348)">
<path d="M149.257 25.0404C149.343 24.989 149.411 24.9205 149.471 24.8433C149.54 24.7576 149.591 24.6633 149.626 24.5605C149.668 24.4234 149.703 24.2862 149.72 24.1491C149.746 23.9863 149.763 23.7977 149.771 23.5749L149.857 22.1094H152.342V25.0319H152.625V26.4374H152.06V25.5547H149.566V26.4374H149V25.049L149.24 25.0319L149.257 25.0404ZM150.388 22.6407L150.346 23.5492C150.337 23.8492 150.303 24.1491 150.26 24.4405C150.226 24.6462 150.157 24.8519 150.046 25.0319H151.76V22.6407H150.388Z" fill="#46474E" style="fill:#46474E;fill:color(display-p3 0.2745 0.2784 0.3059);fill-opacity:1;"/>
<path d="M154.268 22.6478V23.582C154.268 23.8819 154.242 24.1819 154.182 24.4733C154.14 24.679 154.062 24.8761 153.951 25.0561C153.857 25.2018 153.737 25.3303 153.6 25.4246C153.463 25.5189 153.308 25.596 153.154 25.6646L152.914 25.1846C153.034 25.1332 153.145 25.0646 153.257 24.9961C153.36 24.9275 153.437 24.8332 153.497 24.7304C153.565 24.5933 153.617 24.439 153.634 24.2847C153.668 24.0448 153.685 23.7962 153.677 23.5563V22.125H156.068V25.5703H155.468V22.6564H154.268V22.6478Z" fill="#46474E" style="fill:#46474E;fill:color(display-p3 0.2745 0.2784 0.3059);fill-opacity:1;"/>
<path d="M156.798 23.1721C156.798 23.0264 156.824 22.8893 156.875 22.7522C156.927 22.6236 156.995 22.5122 157.09 22.4179C157.184 22.3236 157.304 22.2465 157.424 22.1951C157.561 22.1351 157.715 22.1094 157.869 22.1094H159.498V25.5547H158.898V24.132H158.152C158.015 24.132 157.878 24.1663 157.758 24.2348C157.621 24.3377 157.535 24.4834 157.518 24.6462L157.312 25.5547H156.695L156.918 24.6205C156.952 24.4834 157.004 24.3548 157.072 24.2348C157.141 24.1148 157.244 24.0291 157.372 23.9949C157.192 23.9434 157.038 23.832 156.935 23.6778C156.841 23.5321 156.79 23.3521 156.79 23.1807L156.798 23.1721ZM157.372 23.155C157.355 23.3007 157.424 23.4378 157.544 23.5149C157.672 23.5835 157.818 23.6178 157.964 23.6092H158.906V22.6236H157.947C157.801 22.6236 157.664 22.6664 157.552 22.7522C157.432 22.8464 157.364 22.9921 157.372 23.1464V23.155Z" fill="#46474E" style="fill:#46474E;fill:color(display-p3 0.2745 0.2784 0.3059);fill-opacity:1;"/>
<path d="M163.989 25.221C163.774 25.3496 163.552 25.4438 163.32 25.521C163.166 25.5638 163.012 25.581 162.849 25.5895C162.557 25.6067 162.266 25.5038 162.052 25.3067C161.846 25.1096 161.735 24.8354 161.752 24.544C161.752 24.3726 161.795 24.2097 161.88 24.064C161.966 23.9355 162.069 23.8326 162.197 23.7469C162.326 23.6698 162.463 23.6098 162.609 23.5755C162.737 23.5412 162.866 23.5241 163.003 23.5241H164.014V23.2584C164.04 23.0699 163.963 22.8727 163.809 22.7528C163.637 22.6499 163.432 22.5985 163.234 22.6071C163.089 22.6071 162.934 22.6242 162.797 22.6585C162.6 22.7013 162.42 22.7956 162.275 22.9242L161.983 22.4699C162.18 22.3071 162.412 22.1957 162.66 22.1357C162.866 22.0843 163.08 22.0586 163.294 22.0586C163.654 22.0328 164.014 22.1357 164.297 22.3585C164.529 22.5985 164.649 22.9327 164.623 23.267V25.5467H164.091L164.023 25.2296L164.006 25.2124L163.989 25.221ZM164.006 24.0212H163.097C163.02 24.0212 162.934 24.0212 162.857 24.0383C162.772 24.0469 162.694 24.0726 162.617 24.1069C162.54 24.1412 162.48 24.2011 162.437 24.2697C162.386 24.3554 162.36 24.4497 162.36 24.5525C162.352 24.6982 162.412 24.8354 162.532 24.9296C162.66 25.0153 162.814 25.0582 162.969 25.0582C163.063 25.0582 163.157 25.041 163.243 25.0239C163.337 24.9982 163.432 24.9725 163.517 24.9296C163.603 24.8953 163.689 24.8525 163.774 24.8096L164.006 24.6897V24.0383V24.0212Z" fill="#46474E" style="fill:#46474E;fill:color(display-p3 0.2745 0.2784 0.3059);fill-opacity:1;"/>
<path d="M168.019 24.5098C168.019 24.6384 167.993 24.7669 167.95 24.8869C167.908 25.0155 167.839 25.1269 167.745 25.2212C167.65 25.324 167.53 25.4097 167.402 25.4611C167.248 25.5211 167.085 25.5554 166.922 25.5469H165.242V22.1016H166.905C167.068 22.1016 167.222 22.1273 167.368 22.1787C167.488 22.2215 167.599 22.2987 167.693 22.3844C167.779 22.4701 167.848 22.5729 167.882 22.6843C167.925 22.7958 167.942 22.9243 167.942 23.0443C167.942 23.1814 167.908 23.31 167.848 23.43C167.668 23.43 167.522 23.5842 167.522 23.7642C167.522 23.9442 167.676 24.0899 167.856 24.0899C167.873 24.0899 167.882 24.0899 167.899 24.0899C167.968 24.2184 168.002 24.3641 168.01 24.5098H168.019ZM167.35 23.0614C167.359 22.9329 167.299 22.8043 167.179 22.7358C167.068 22.6672 166.939 22.6329 166.811 22.6329H165.842V23.4814H166.845C166.973 23.4814 167.102 23.4471 167.213 23.37C167.308 23.2928 167.359 23.1729 167.35 23.0529V23.0614ZM167.41 24.5098C167.41 24.3727 167.359 24.2356 167.248 24.1499C167.145 24.0642 167.016 24.0213 166.879 24.0213H165.842V25.0241H166.819C166.982 25.0412 167.145 24.9898 167.273 24.8869C167.368 24.7841 167.419 24.647 167.41 24.5098Z" fill="#46474E" style="fill:#46474E;fill:color(display-p3 0.2745 0.2784 0.3059);fill-opacity:1;"/>
<path d="M170.047 22.6407V25.5547H169.43V22.6407H168.367V22.1094H171.127V22.6407H170.056H170.047Z" fill="#46474E" style="fill:#46474E;fill:color(display-p3 0.2745 0.2784 0.3059);fill-opacity:1;"/>
<path d="M174.392 24.3407C174.392 24.5207 174.358 24.7092 174.281 24.8721C174.204 25.0263 174.101 25.1635 173.964 25.2663C173.827 25.3777 173.672 25.4549 173.509 25.5063C173.33 25.5663 173.15 25.592 172.961 25.592C172.772 25.592 172.584 25.5663 172.404 25.5063C172.241 25.4549 172.087 25.3691 171.958 25.2663C171.83 25.1549 171.727 25.0263 171.658 24.8721C171.581 24.7092 171.547 24.5207 171.547 24.3407V23.338C171.547 23.158 171.581 22.9694 171.667 22.8066C171.744 22.6523 171.847 22.5238 171.975 22.4124C172.113 22.301 172.258 22.2152 172.43 22.1638C172.61 22.1038 172.798 22.0781 172.987 22.0781C173.184 22.0781 173.372 22.1038 173.561 22.1638C173.724 22.2152 173.878 22.301 174.015 22.4124C174.144 22.5238 174.247 22.6523 174.315 22.8066C174.384 22.978 174.427 23.158 174.418 23.338V24.3407H174.392ZM173.792 23.4494C173.792 23.3208 173.767 23.1923 173.715 23.0723C173.672 22.9694 173.604 22.8837 173.518 22.8152C173.441 22.7552 173.347 22.7038 173.252 22.678C173.158 22.6523 173.064 22.6352 172.97 22.6352C172.867 22.6352 172.772 22.6523 172.678 22.678C172.584 22.7038 172.49 22.7552 172.412 22.8152C172.327 22.8837 172.258 22.9694 172.215 23.0723C172.164 23.1923 172.138 23.3208 172.138 23.4494V24.2207C172.138 24.3493 172.155 24.4778 172.207 24.5978C172.25 24.6921 172.31 24.7778 172.387 24.8464C172.464 24.9149 172.55 24.9578 172.652 24.9835C172.755 25.0092 172.867 25.0263 172.978 25.0263C173.072 25.0263 173.167 25.0092 173.261 24.9835C173.355 24.9578 173.449 24.9063 173.527 24.8464C173.612 24.7778 173.681 24.6921 173.724 24.5978C173.775 24.4778 173.801 24.3493 173.801 24.2207V23.4494H173.792Z" fill="#46474E" style="fill:#46474E;fill:color(display-p3 0.2745 0.2784 0.3059);fill-opacity:1;"/>
<path d="M177.923 23.3778L177.546 24.0891L176.998 25.0662H176.587L176.132 24.252L175.704 23.4292H175.678V25.5547H175.078V22.1094H175.627L176.321 23.4206L176.801 24.3548L177.289 23.4292L178.009 22.1094H178.549V25.5547H177.949V23.3778H177.915H177.923Z" fill="#46474E" style="fill:#46474E;fill:color(display-p3 0.2745 0.2784 0.3059);fill-opacity:1;"/>
<path d="M181.426 25.221C181.212 25.3496 180.989 25.4438 180.758 25.521C180.603 25.5638 180.449 25.581 180.286 25.5895C179.995 25.6067 179.703 25.5038 179.489 25.3067C179.283 25.1096 179.172 24.8354 179.189 24.544C179.189 24.3726 179.232 24.2097 179.318 24.064C179.403 23.9355 179.506 23.8326 179.635 23.7469C179.763 23.6698 179.901 23.6098 180.046 23.5755C180.175 23.5412 180.303 23.5241 180.44 23.5241H181.452V23.2584C181.478 23.0699 181.4 22.8813 181.246 22.7528C181.075 22.6499 180.869 22.5985 180.672 22.6071C180.526 22.6071 180.372 22.6242 180.226 22.6585C180.029 22.7013 179.849 22.7956 179.703 22.9242L179.412 22.4699C179.609 22.3071 179.841 22.1957 180.089 22.1357C180.295 22.0843 180.509 22.0586 180.723 22.0586C181.083 22.0328 181.443 22.1357 181.726 22.3585C181.957 22.5985 182.077 22.9327 182.052 23.267V25.5467H181.529L181.46 25.2296L181.443 25.2124L181.426 25.221ZM181.443 24.0212H180.535C180.458 24.0212 180.372 24.0212 180.295 24.0383C180.209 24.0469 180.132 24.0726 180.055 24.1069C179.978 24.1412 179.918 24.2011 179.866 24.2697C179.815 24.3554 179.789 24.4497 179.798 24.5525C179.789 24.6982 179.849 24.8354 179.969 24.9296C180.098 25.0153 180.252 25.0582 180.406 25.0582C180.5 25.0582 180.595 25.041 180.68 25.0239C180.775 24.9982 180.869 24.9725 180.955 24.9296C181.04 24.8953 181.126 24.8525 181.212 24.8096L181.443 24.6897V24.0383V24.0212Z" fill="#46474E" style="fill:#46474E;fill:color(display-p3 0.2745 0.2784 0.3059);fill-opacity:1;"/>
<path d="M184.141 22.6407V25.5547H183.524V22.6407H182.461V22.1094H185.221V22.6407H184.149H184.141Z" fill="#46474E" style="fill:#46474E;fill:color(display-p3 0.2745 0.2784 0.3059);fill-opacity:1;"/>
<path d="M186.258 24.5955L186.773 23.8071L187.93 22.1101H188.495V25.5554H187.878V23.0614H187.844L187.321 23.8585L186.181 25.5469H185.633V22.1016H186.233V24.587H186.267L186.258 24.5955Z" fill="#46474E" style="fill:#46474E;fill:color(display-p3 0.2745 0.2784 0.3059);fill-opacity:1;"/>
<path d="M189.293 24.7443C189.421 24.8557 189.567 24.9328 189.721 24.9757C189.867 25.0271 190.021 25.0528 190.167 25.0528C190.295 25.0528 190.415 25.0442 190.544 25.0099C190.63 24.9842 190.715 24.95 190.784 24.89C190.844 24.8471 190.887 24.7871 190.921 24.7186C190.947 24.6586 190.964 24.59 190.964 24.53C190.964 24.3843 190.904 24.2472 190.775 24.1615C190.638 24.0758 190.475 24.0329 190.313 24.0329H189.841V23.5358H190.33C190.484 23.5444 190.638 23.5016 190.758 23.3987C190.861 23.313 190.912 23.193 190.912 23.0645C190.912 22.9188 190.835 22.7902 190.707 22.7302C190.561 22.6617 190.407 22.6188 190.244 22.6274C190.098 22.6274 189.961 22.6445 189.824 22.6874C189.678 22.7302 189.541 22.8074 189.421 22.9102L189.053 22.4988C189.216 22.3446 189.413 22.2332 189.627 22.1646C189.841 22.096 190.064 22.0703 190.278 22.0703C190.458 22.0703 190.638 22.096 190.801 22.1474C190.938 22.1903 191.067 22.2589 191.178 22.3531C191.272 22.4388 191.35 22.5417 191.401 22.6531C191.452 22.7645 191.478 22.8931 191.478 23.0216C191.478 23.0816 191.478 23.1416 191.461 23.2016C191.452 23.2702 191.427 23.3387 191.392 23.4073C191.358 23.4844 191.307 23.5444 191.247 23.6044C191.17 23.673 191.084 23.7244 190.99 23.7587C191.084 23.793 191.178 23.8529 191.255 23.9215C191.375 24.0329 191.461 24.1872 191.495 24.35C191.504 24.41 191.512 24.47 191.512 24.53C191.512 24.6757 191.487 24.8214 191.427 24.95C191.367 25.0785 191.281 25.1899 191.178 25.2842C191.058 25.387 190.912 25.4642 190.758 25.507C190.57 25.567 190.373 25.5927 190.175 25.5842C189.953 25.5842 189.73 25.5499 189.507 25.4899C189.284 25.4213 189.07 25.3099 188.898 25.1471L189.267 24.7357L189.293 24.7443Z" fill="#46474E" style="fill:#46474E;fill:color(display-p3 0.2745 0.2784 0.3059);fill-opacity:1;"/>
<path d="M194.293 25.221C194.079 25.3496 193.856 25.4438 193.625 25.521C193.471 25.5638 193.316 25.581 193.153 25.5895C192.862 25.6067 192.571 25.5038 192.356 25.3067C192.151 25.1096 192.039 24.8354 192.056 24.544C192.056 24.3726 192.099 24.2097 192.185 24.064C192.271 23.9355 192.374 23.824 192.502 23.7469C192.631 23.6698 192.768 23.6098 192.913 23.5755C193.042 23.5412 193.171 23.5241 193.308 23.5241H194.319V23.2584C194.345 23.0699 194.268 22.8727 194.113 22.7528C193.942 22.6499 193.736 22.5985 193.539 22.6071C193.393 22.6071 193.239 22.6242 193.102 22.6585C192.905 22.7013 192.725 22.7956 192.579 22.9242L192.288 22.4699C192.485 22.3071 192.716 22.1957 192.965 22.1357C193.171 22.0843 193.385 22.0586 193.599 22.0586C193.959 22.0328 194.319 22.1357 194.602 22.3585C194.833 22.5985 194.953 22.9327 194.927 23.267V25.5467H194.396L194.328 25.2296L194.302 25.2124L194.293 25.221ZM194.31 24.0212H193.402C193.325 24.0212 193.239 24.0212 193.162 24.0383C193.076 24.0469 192.999 24.0726 192.922 24.1069C192.845 24.1412 192.785 24.2011 192.733 24.2697C192.682 24.3554 192.656 24.4497 192.656 24.5525C192.648 24.6982 192.708 24.8354 192.828 24.9296C192.956 25.0153 193.111 25.0582 193.265 25.0582C193.359 25.0582 193.453 25.041 193.539 25.0239C193.633 24.9982 193.728 24.9639 193.813 24.9296C193.899 24.8953 193.985 24.8525 194.07 24.8096L194.302 24.6897V24.0383L194.31 24.0212Z" fill="#46474E" style="fill:#46474E;fill:color(display-p3 0.2745 0.2784 0.3059);fill-opacity:1;"/>
<path d="M198.109 25.5554H195.641V22.1016H196.223V25.0241H197.809V22.1016H198.383V25.0326H198.666V26.4382H198.1V25.5554H198.109Z" fill="#46474E" style="fill:#46474E;fill:color(display-p3 0.2745 0.2784 0.3059);fill-opacity:1;"/>
<path d="M199.829 24.5955L200.343 23.8071L201.5 22.1101H202.066V25.5554H201.449V23.0614H201.414L200.891 23.8585L199.752 25.5469H199.203V22.1016H199.803V24.587H199.829V24.5955Z" fill="#46474E" style="fill:#46474E;fill:color(display-p3 0.2745 0.2784 0.3059);fill-opacity:1;"/>
<path d="M203.383 24.5955L203.898 23.8071L205.055 22.1101H205.62V25.5554H205.003V23.0614H204.969L204.446 23.8585L203.306 25.5469H202.758V22.1016H203.358V24.587H203.392L203.383 24.5955Z" fill="#46474E" style="fill:#46474E;fill:color(display-p3 0.2745 0.2784 0.3059);fill-opacity:1;"/>
<path d="M208.645 22.5755C208.705 22.5156 208.774 22.4641 208.859 22.4213C208.936 22.3784 209.014 22.3441 209.099 22.3184C209.176 22.2927 209.245 22.2756 209.322 22.267C209.742 22.207 210.171 22.327 210.505 22.5841C210.745 22.8327 210.865 23.1755 210.848 23.5183V24.2982C210.848 24.4867 210.813 24.6667 210.728 24.8381C210.65 24.9924 210.548 25.1381 210.419 25.2495C210.282 25.3609 210.128 25.4466 209.965 25.5066C209.785 25.5666 209.605 25.5923 209.416 25.5923C209.039 25.618 208.662 25.4895 208.371 25.2495C208.114 25.0095 207.976 24.6581 207.994 24.3068V23.3212C207.994 23.1155 208.002 22.9184 208.028 22.7127C208.045 22.5156 208.088 22.3099 208.148 22.1213C208.208 21.9328 208.294 21.7614 208.405 21.5985C208.516 21.4357 208.671 21.29 208.842 21.1871C208.996 21.0929 209.159 21.0072 209.331 20.9472L209.836 20.7415L209.982 20.6815L210.102 20.6301L210.239 20.5701C210.29 20.5444 210.35 20.5187 210.428 20.4844L210.642 20.9815C210.505 21.0414 210.393 21.0929 210.308 21.1272C210.222 21.1614 210.153 21.1871 210.093 21.2129C210.033 21.2386 209.982 21.2557 209.939 21.2728C209.896 21.29 209.836 21.3071 209.776 21.3414C209.579 21.4271 209.416 21.5042 209.288 21.5728C209.168 21.6328 209.056 21.7185 208.962 21.8128C208.876 21.8985 208.808 22.0099 208.756 22.1213C208.705 22.267 208.671 22.4127 208.645 22.5584V22.5841V22.5755ZM210.248 23.6297C210.273 23.3983 210.188 23.1669 210.025 22.9955C209.853 22.8669 209.639 22.7984 209.416 22.8155C209.313 22.8155 209.219 22.8327 209.125 22.8669C209.031 22.9012 208.936 22.9526 208.859 23.0126C208.774 23.0812 208.705 23.1669 208.662 23.2697C208.611 23.3897 208.585 23.5183 208.585 23.6554V24.2125C208.585 24.341 208.602 24.4696 208.654 24.5896C208.696 24.6839 208.756 24.7696 208.834 24.8381C208.911 24.9067 208.996 24.9495 209.099 24.9752C209.202 25.001 209.313 25.0181 209.425 25.0181C209.528 25.0181 209.631 25.001 209.733 24.9752C209.828 24.9495 209.922 24.8981 209.999 24.8381C210.076 24.7696 210.145 24.6839 210.188 24.5896C210.239 24.4696 210.265 24.341 210.256 24.2125V23.6297H210.248Z" fill="#46474E" style="fill:#46474E;fill:color(display-p3 0.2745 0.2784 0.3059);fill-opacity:1;"/>
<path d="M212.141 24.5955L212.655 23.8071L213.812 22.1101H214.378V25.5554H213.761V23.0614H213.727L213.204 23.8585L212.064 25.5469H211.516V22.1016H212.116V24.587H212.15L212.141 24.5955Z" fill="#46474E" style="fill:#46474E;fill:color(display-p3 0.2745 0.2784 0.3059);fill-opacity:1;"/>
<path d="M215.175 24.7443C215.304 24.8557 215.45 24.9328 215.604 24.9757C215.75 25.0271 215.904 25.0528 216.05 25.0528C216.178 25.0528 216.298 25.0442 216.427 25.0099C216.512 24.9842 216.598 24.95 216.667 24.89C216.727 24.8471 216.77 24.7871 216.804 24.7186C216.83 24.6586 216.847 24.59 216.847 24.53C216.847 24.3843 216.787 24.2472 216.658 24.1615C216.521 24.0758 216.358 24.0329 216.195 24.0329H215.724V23.5358H216.213C216.367 23.5444 216.521 23.5016 216.641 23.3987C216.744 23.313 216.795 23.193 216.795 23.0645C216.795 22.9188 216.718 22.7902 216.59 22.7302C216.444 22.6617 216.29 22.6188 216.127 22.6274C215.981 22.6274 215.844 22.6445 215.707 22.6874C215.561 22.7302 215.424 22.8074 215.304 22.9102L214.936 22.4988C215.098 22.3446 215.295 22.2332 215.51 22.1646C215.724 22.096 215.947 22.0703 216.161 22.0703C216.341 22.0703 216.521 22.096 216.684 22.1474C216.821 22.1903 216.95 22.2589 217.061 22.3531C217.155 22.4388 217.232 22.5417 217.284 22.6531C217.335 22.7645 217.361 22.8931 217.361 23.0216C217.361 23.0816 217.361 23.1416 217.344 23.2016C217.335 23.2702 217.31 23.3387 217.275 23.4073C217.241 23.4844 217.19 23.5444 217.13 23.6044C217.052 23.673 216.967 23.7244 216.872 23.7587C216.967 23.793 217.061 23.8529 217.138 23.9215C217.207 23.9815 217.258 24.0501 217.301 24.1272C217.335 24.1958 217.361 24.2643 217.378 24.3415C217.387 24.4015 217.395 24.4614 217.395 24.5214C217.395 24.6671 217.37 24.8128 217.31 24.9414C217.25 25.0699 217.164 25.1814 217.061 25.2756C216.941 25.3785 216.795 25.4556 216.641 25.4985C216.452 25.5585 216.255 25.5842 216.058 25.5756C215.835 25.5756 215.613 25.5413 215.39 25.4813C215.167 25.4128 214.953 25.3013 214.781 25.1385L215.15 24.7357L215.175 24.7443Z" fill="#46474E" style="fill:#46474E;fill:color(display-p3 0.2745 0.2784 0.3059);fill-opacity:1;"/>
<path d="M220.261 25.5547V24.0891H218.616V25.5547H218.016V22.1094H218.616V23.5406H220.261V22.1094H220.861V25.5547H220.261Z" fill="#46474E" style="fill:#46474E;fill:color(display-p3 0.2745 0.2784 0.3059);fill-opacity:1;"/>
<path d="M222.149 24.0564V24.2878C222.149 24.4078 222.166 24.5277 222.217 24.6392C222.26 24.7334 222.329 24.8106 222.406 24.8791C222.491 24.9391 222.586 24.9905 222.68 25.0162C222.783 25.042 222.894 25.0591 223.006 25.0591C223.143 25.0591 223.28 25.0334 223.408 24.9905C223.58 24.9391 223.726 24.8448 223.854 24.7163L224.231 25.1277C224.068 25.2991 223.871 25.4276 223.64 25.5048C223.426 25.5733 223.211 25.6076 222.989 25.6076C222.8 25.6076 222.611 25.5819 222.431 25.5305C222.26 25.479 222.106 25.4019 221.969 25.2905C221.832 25.1877 221.729 25.0505 221.652 24.8963C221.574 24.7249 221.532 24.5363 221.54 24.3478V23.4393C221.54 23.2508 221.574 23.0622 221.643 22.8822C221.703 22.7194 221.806 22.5737 221.934 22.4537C222.063 22.3337 222.209 22.248 222.371 22.188C222.551 22.128 222.74 22.0938 222.929 22.0938C223.117 22.0938 223.314 22.1195 223.494 22.188C223.657 22.2394 223.803 22.3337 223.931 22.4451C224.051 22.5566 224.154 22.6937 224.214 22.8565C224.283 23.0279 224.317 23.2079 224.317 23.3964V24.0735H222.14L222.149 24.0564ZM223.726 23.4393C223.726 23.3107 223.708 23.1908 223.666 23.0708C223.631 22.9765 223.571 22.8822 223.494 22.8137C223.426 22.7451 223.34 22.6937 223.246 22.668C223.151 22.6337 223.049 22.6251 222.946 22.6251C222.843 22.6251 222.74 22.6423 222.646 22.6765C222.551 22.7108 222.466 22.7622 222.397 22.8222C222.32 22.8908 222.26 22.9765 222.226 23.0708C222.183 23.1822 222.157 23.3022 222.166 23.4222V23.5764H223.734V23.4479L223.726 23.4393Z" fill="#46474E" style="fill:#46474E;fill:color(display-p3 0.2745 0.2784 0.3059);fill-opacity:1;"/>
<path d="M226.267 22.0703C226.473 22.0703 226.679 22.096 226.876 22.1474C227.09 22.2074 227.279 22.3274 227.433 22.4988L227.082 22.9531C226.962 22.8331 226.816 22.7388 226.653 22.6874C226.542 22.6531 226.422 22.636 226.302 22.636C226.207 22.636 226.113 22.6531 226.027 22.6788C225.933 22.7045 225.847 22.7559 225.77 22.8159C225.693 22.8845 225.625 22.9702 225.582 23.073C225.53 23.193 225.505 23.3216 225.513 23.4501V24.2215C225.513 24.35 225.53 24.4786 225.582 24.5986C225.625 24.6928 225.685 24.7786 225.762 24.8471C225.839 24.9157 225.925 24.9585 226.019 24.9842C226.113 25.01 226.207 25.0271 226.31 25.0271C226.439 25.0271 226.559 25.0014 226.687 24.9671C226.833 24.9242 226.962 24.8471 227.064 24.7443L227.433 25.1642C227.287 25.3185 227.099 25.4385 226.893 25.507C226.705 25.567 226.499 25.6013 226.302 25.6013C226.113 25.6013 225.925 25.5756 225.745 25.5156C225.582 25.4642 225.436 25.3785 225.308 25.2671C225.188 25.1642 225.085 25.0271 225.025 24.8814C224.956 24.7271 224.922 24.5557 224.922 24.3843V23.3644C224.922 23.0045 225.068 22.6702 225.333 22.4303C225.462 22.3189 225.607 22.2331 225.77 22.1732C225.933 22.1132 226.113 22.0875 226.285 22.0875L226.267 22.0703Z" fill="#46474E" style="fill:#46474E;fill:color(display-p3 0.2745 0.2784 0.3059);fill-opacity:1;"/>
<path d="M230.075 25.221C229.86 25.3496 229.637 25.4438 229.406 25.521C229.252 25.5638 229.098 25.581 228.935 25.5895C228.643 25.6067 228.352 25.5038 228.138 25.3067C227.932 25.1096 227.821 24.8354 227.838 24.544C227.838 24.3726 227.881 24.2097 227.966 24.064C228.052 23.9355 228.155 23.8326 228.283 23.7469C228.412 23.6698 228.549 23.6098 228.695 23.5755C228.823 23.5412 228.952 23.5241 229.089 23.5241H230.1V23.2584C230.126 23.0699 230.049 22.8813 229.895 22.7528C229.723 22.6499 229.517 22.5985 229.32 22.6071C229.175 22.6071 229.02 22.6242 228.875 22.6585C228.678 22.7013 228.498 22.7956 228.352 22.9242L228.06 22.4699C228.258 22.3071 228.489 22.1957 228.738 22.1357C228.943 22.0843 229.158 22.0586 229.372 22.0586C229.732 22.0328 230.092 22.1357 230.374 22.3585C230.614 22.5985 230.734 22.9327 230.7 23.267V25.5467H230.169L230.1 25.2296L230.075 25.2124V25.221ZM230.092 24.0212H229.183C229.106 24.0212 229.02 24.0212 228.943 24.0383C228.858 24.0469 228.78 24.0726 228.703 24.1069C228.626 24.1412 228.566 24.2011 228.515 24.2697C228.463 24.3554 228.438 24.4497 228.438 24.5525C228.429 24.6982 228.489 24.8354 228.609 24.9296C228.738 25.0153 228.892 25.0582 229.046 25.0582C229.14 25.0582 229.235 25.041 229.32 25.0239C229.415 24.9982 229.509 24.9725 229.595 24.9296C229.68 24.8953 229.766 24.8525 229.852 24.8096L230.083 24.6897V24.0383L230.092 24.0212Z" fill="#46474E" style="fill:#46474E;fill:color(display-p3 0.2745 0.2784 0.3059);fill-opacity:1;"/>
<path d="M142 22H0V26H142V22Z" fill="#46474E" style="fill:#46474E;fill:color(display-p3 0.2745 0.2784 0.3059);fill-opacity:1;"/>
<path d="M12.6875 11.1241C12.6875 11.8184 12.5849 12.4654 12.3798 13.0651C12.1747 13.6489 11.8669 14.1618 11.4566 14.6037C11.0621 15.0455 10.565 15.3927 9.96538 15.6452C9.38151 15.8819 8.70294 16.0002 7.9297 16.0002H0V-0.308913H7.62198C8.47413 -0.308913 9.20003 -0.18267 9.79969 0.0698177C10.3993 0.306525 10.8885 0.630025 11.2673 1.04032C11.6618 1.45061 11.9458 1.92403 12.1194 2.46056C12.293 2.9971 12.3798 3.5652 12.3798 4.16486C12.3798 4.44891 12.3325 4.74873 12.2378 5.06434C12.1589 5.37995 12.0326 5.68767 11.859 5.9875C11.7012 6.28733 11.4961 6.56349 11.2436 6.81598C10.9911 7.06847 10.6992 7.27361 10.3678 7.43142C10.7623 7.62078 11.1016 7.86538 11.3856 8.16521C11.6855 8.44926 11.9301 8.76487 12.1194 9.11204C12.3088 9.44343 12.4508 9.7906 12.5455 10.1536C12.6402 10.5007 12.6875 10.8242 12.6875 11.1241ZM8.47413 4.59093C8.47413 4.1333 8.33999 3.76245 8.07172 3.4784C7.80346 3.17858 7.31426 3.02866 6.60414 3.02866H3.76365V5.9875H6.60414C7.26692 5.9875 7.74033 5.86126 8.02438 5.60877C8.32421 5.3405 8.47413 5.00122 8.47413 4.59093ZM8.63982 10.982C8.63982 10.4771 8.48991 10.051 8.19008 9.70381C7.90603 9.35664 7.43261 9.18305 6.76983 9.18305H3.76365V12.6627H6.76983C7.38527 12.6627 7.8508 12.5127 8.16641 12.2129C8.48202 11.8973 8.63982 11.487 8.63982 10.982Z" fill="#46474E" style="fill:#46474E;fill:color(display-p3 0.2745 0.2784 0.3059);fill-opacity:1;"/>
<path d="M24.089 16.0002V9.39609H18.8815V16.0002H15.1178V-0.308913H18.8815V6.01117H24.089V-0.308913H27.9V16.0002H24.089Z" fill="#46474E" style="fill:#46474E;fill:color(display-p3 0.2745 0.2784 0.3059);fill-opacity:1;"/>
<path d="M30.7442 -0.308913H42.1299V3.05233H34.5079V6.10586H41.0173V9.44343H34.5079V12.6627H42.1299V16.0002H30.7442V-0.308913Z" fill="#46474E" style="fill:#46474E;fill:color(display-p3 0.2745 0.2784 0.3059);fill-opacity:1;"/>
<path d="M58.4849 -0.308913V12.71H59.9524V19.7402H56.5912V16.0002H46.8152V19.7402H43.4303V12.71H44.6375C45.0004 12.4417 45.3003 12.1261 45.537 11.7632C45.7894 11.3844 45.9946 10.9505 46.1524 10.4613C46.3102 9.9563 46.4286 9.38031 46.5075 8.73331C46.6021 8.08631 46.6732 7.33674 46.7205 6.48459L47.0756 -0.308913H58.4849ZM54.7922 2.98132H50.4605L50.2711 6.48459C50.2395 6.98957 50.208 7.51821 50.1764 8.07053C50.1449 8.60707 50.0817 9.15149 49.9871 9.70381C49.8924 10.2403 49.7582 10.769 49.5847 11.2898C49.4268 11.7947 49.2059 12.2681 48.9219 12.71H54.7922V2.98132Z" fill="#46474E" style="fill:#46474E;fill:color(display-p3 0.2745 0.2784 0.3059);fill-opacity:1;"/>
<path d="M66.0843 6.69763H68.8538C69.5639 6.69763 70.0688 6.52404 70.3687 6.17687C70.6685 5.81392 70.8184 5.37995 70.8184 4.87498C70.8184 4.37 70.6685 3.94393 70.3687 3.59676C70.0846 3.23381 69.5797 3.05233 68.8538 3.05233H66.0843V6.69763ZM69.4455 -0.308913C70.3608 -0.308913 71.1419 -0.158999 71.7889 0.14083C72.4359 0.424879 72.9646 0.811501 73.3749 1.3007C73.7852 1.78989 74.085 2.34221 74.2744 2.95765C74.4637 3.57309 74.5584 4.2122 74.5584 4.87498C74.5584 5.53776 74.44 6.17687 74.2033 6.79231C73.9824 7.40775 73.6431 7.96006 73.1855 8.44926C72.7436 8.93846 72.1992 9.33297 71.5522 9.6328C70.9052 9.91685 70.1635 10.0589 69.3272 10.0589H66.0843V16.0002H62.3206V-0.308913H69.4455Z" fill="#46474E" style="fill:#46474E;fill:color(display-p3 0.2745 0.2784 0.3059);fill-opacity:1;"/>
<path d="M76.2133 -0.308913H87.5989V3.05233H79.977V6.10586H86.4864V9.44343H79.977V12.6627H87.5989V16.0002H76.2133V-0.308913Z" fill="#46474E" style="fill:#46474E;fill:color(display-p3 0.2745 0.2784 0.3059);fill-opacity:1;"/>
<path d="M99.0541 16.0002V9.39609H93.8465V16.0002H90.0829V-0.308913H93.8465V6.01117H99.0541V-0.308913H102.865V16.0002H99.0541Z" fill="#46474E" style="fill:#46474E;fill:color(display-p3 0.2745 0.2784 0.3059);fill-opacity:1;"/>
<path d="M115.32 6.36624L109.071 16.0002H105.709V-0.308913H109.449V9.4671H109.52L115.817 -0.308913H119.202V16.0002H115.438V6.36624H115.32Z" fill="#46474E" style="fill:#46474E;fill:color(display-p3 0.2745 0.2784 0.3059);fill-opacity:1;"/>
<path d="M122.052 -0.308913H133.438V3.05233H125.816V6.10586H132.325V9.44343H125.816V12.6627H133.438V16.0002H122.052V-0.308913Z" fill="#46474E" style="fill:#46474E;fill:color(display-p3 0.2745 0.2784 0.3059);fill-opacity:1;"/>
<path d="M135.614 11.4554V8.35458H143.804V11.4554H135.614Z" fill="#46474E" style="fill:#46474E;fill:color(display-p3 0.2745 0.2784 0.3059);fill-opacity:1;"/>
<path d="M156.052 4.11751C155.516 3.65988 154.963 3.36005 154.395 3.21803C153.843 3.06022 153.306 2.98132 152.786 2.98132C152.47 2.98132 152.154 3.02866 151.839 3.12334C151.523 3.21803 151.239 3.36794 150.987 3.57309C150.734 3.76245 150.521 4.02283 150.347 4.35422C150.19 4.66983 150.111 5.06434 150.111 5.53776V10.1536C150.111 10.627 150.19 11.0294 150.347 11.3608C150.521 11.6764 150.734 11.9368 150.987 12.1419C151.255 12.3313 151.547 12.4733 151.862 12.568C152.178 12.6627 152.494 12.71 152.809 12.71C153.314 12.71 153.835 12.639 154.372 12.497C154.908 12.3392 155.476 12.0314 156.076 11.5738L157.851 14.509C157.188 15.0613 156.407 15.4795 155.508 15.7635C154.624 16.0318 153.701 16.1659 152.738 16.1659C151.981 16.1659 151.215 16.0634 150.442 15.8582C149.685 15.6531 148.998 15.3374 148.383 14.9114C147.783 14.4853 147.294 13.9488 146.915 13.3018C146.536 12.639 146.347 11.8578 146.347 10.9584V4.80397C146.347 3.90448 146.529 3.13123 146.892 2.48423C147.27 1.82145 147.759 1.27703 148.359 0.850952C148.959 0.409098 149.629 0.085598 150.371 -0.119549C151.129 -0.340475 151.894 -0.450939 152.667 -0.450939C153.63 -0.450939 154.577 -0.316805 155.508 -0.0485359C156.439 0.219733 157.228 0.637916 157.875 1.20601L156.052 4.11751Z" fill="#46474E" style="fill:#46474E;fill:color(display-p3 0.2745 0.2784 0.3059);fill-opacity:1;"/>
<path d="M163.772 6.69763H166.542C167.252 6.69763 167.757 6.52404 168.057 6.17687C168.357 5.81392 168.506 5.37995 168.506 4.87498C168.506 4.37 168.357 3.94393 168.057 3.59676C167.773 3.23381 167.268 3.05233 166.542 3.05233H163.772V6.69763ZM167.134 -0.308913C168.049 -0.308913 168.83 -0.158999 169.477 0.14083C170.124 0.424879 170.653 0.811501 171.063 1.3007C171.473 1.78989 171.773 2.34221 171.962 2.95765C172.152 3.57309 172.246 4.2122 172.246 4.87498C172.246 5.53776 172.128 6.17687 171.891 6.79231C171.67 7.40775 171.331 7.96006 170.874 8.44926C170.432 8.93846 169.887 9.33297 169.24 9.6328C168.593 9.91685 167.852 10.0589 167.015 10.0589H163.772V16.0002H160.009V-0.308913H167.134Z" fill="#46474E" style="fill:#46474E;fill:color(display-p3 0.2745 0.2784 0.3059);fill-opacity:1;"/>
<path d="M186.305 8.40192L184.766 11.3371L183.346 13.8225H180.671L179.227 11.2424L177.76 8.42559H177.665V16.0002H173.901V-0.308913H177.357L180.056 4.99333L181.973 8.87533H182.115L184.103 4.85131L186.684 -0.308913H190.139V16.0002H186.376V8.40192H186.305Z" fill="#46474E" style="fill:#46474E;fill:color(display-p3 0.2745 0.2784 0.3059);fill-opacity:1;"/>
<path d="M195.434 16.1659C194.834 16.1659 194.329 15.9608 193.919 15.5505C193.509 15.1244 193.303 14.6115 193.303 14.0119C193.303 13.7121 193.359 13.4359 193.469 13.1834C193.58 12.9309 193.729 12.71 193.919 12.5206C194.108 12.3313 194.329 12.1892 194.582 12.0946C194.834 11.9841 195.102 11.9289 195.386 11.9289C195.67 11.9289 195.939 11.9841 196.191 12.0946C196.444 12.1892 196.665 12.3313 196.854 12.5206C197.059 12.71 197.217 12.9309 197.327 13.1834C197.438 13.4359 197.493 13.7121 197.493 14.0119C197.493 14.5958 197.304 15.1007 196.925 15.5268C196.562 15.9529 196.065 16.1659 195.434 16.1659Z" fill="#46474E" style="fill:#46474E;fill:color(display-p3 0.2745 0.2784 0.3059);fill-opacity:1;"/>
<path d="M204.387 6.69763H207.157C207.867 6.69763 208.372 6.52404 208.671 6.17687C208.971 5.81392 209.121 5.37995 209.121 4.87498C209.121 4.37 208.971 3.94393 208.671 3.59676C208.387 3.23381 207.882 3.05233 207.157 3.05233H204.387V6.69763ZM207.748 -0.308913C208.664 -0.308913 209.445 -0.158999 210.092 0.14083C210.739 0.424879 211.267 0.811501 211.678 1.3007C212.088 1.78989 212.388 2.34221 212.577 2.95765C212.766 3.57309 212.861 4.2122 212.861 4.87498C212.861 5.53776 212.743 6.17687 212.506 6.79231C212.285 7.40775 211.946 7.96006 211.488 8.44926C211.046 8.93846 210.502 9.33297 209.855 9.6328C209.208 9.91685 208.466 10.0589 207.63 10.0589H204.387V16.0002H200.623V-0.308913H207.748Z" fill="#46474E" style="fill:#46474E;fill:color(display-p3 0.2745 0.2784 0.3059);fill-opacity:1;"/>
<path d="M224.481 0.472221C225.334 0.503781 226.138 0.661586 226.896 0.945635C227.669 1.22968 228.34 1.6242 228.908 2.12917C229.492 2.63415 229.949 3.2417 230.281 3.95182C230.628 4.64616 230.802 5.43519 230.802 6.31889V8.63863C230.802 9.52234 230.636 10.3271 230.304 11.053C229.973 11.7789 229.515 12.4023 228.932 12.923C228.363 13.4438 227.693 13.8541 226.92 14.1539C226.162 14.4537 225.349 14.6115 224.481 14.6273V16.0002H220.718V14.6273C219.803 14.5642 218.958 14.3827 218.185 14.0829C217.412 13.7831 216.741 13.3807 216.173 12.8757C215.621 12.3549 215.187 11.7395 214.871 11.0294C214.556 10.3193 214.398 9.52234 214.398 8.63863V6.31889C214.398 5.43519 214.571 4.63827 214.919 3.92815C215.281 3.21803 215.755 2.61837 216.339 2.12917C216.923 1.6242 217.593 1.22968 218.351 0.945635C219.124 0.661586 219.913 0.503781 220.718 0.472221V-0.474609H224.481V0.472221ZM227.156 6.7213C227.156 5.82181 226.904 5.11958 226.399 4.6146C225.91 4.10962 225.271 3.84136 224.481 3.80979V11.2898C225.223 11.2424 225.854 10.9741 226.375 10.4849C226.896 9.97997 227.156 9.27774 227.156 8.37825V6.7213ZM218.043 8.37825C218.043 8.8201 218.114 9.21461 218.256 9.56179C218.414 9.90896 218.611 10.2088 218.848 10.4613C219.1 10.7138 219.384 10.911 219.7 11.053C220.031 11.1951 220.371 11.274 220.718 11.2898V3.80979C220.371 3.82558 220.031 3.90448 219.7 4.0465C219.384 4.17275 219.1 4.36211 218.848 4.6146C218.611 4.86709 218.414 5.17481 218.256 5.53776C218.114 5.88493 218.043 6.27944 218.043 6.7213V8.37825Z" fill="#46474E" style="fill:#46474E;fill:color(display-p3 0.2745 0.2784 0.3059);fill-opacity:1;"/>
</g>
<defs>
<clipPath id="clip0_2045_2348">
<rect width="231" height="26" fill="white" style="fill:white;fill-opacity:1;"/>
</clipPath>
</defs>
</svg>
