<svg width="252" height="252" viewBox="0 0 252 252" fill="none" xmlns="http://www.w3.org/2000/svg">
<g filter="url(#filter0_b_252_3578)">
<rect x="124.371" y="6.43359" width="170.064" height="170.064" rx="85.0319" transform="rotate(44.2856 124.371 6.43359)" fill="#F3F0F0" fill-opacity="0.01" style="fill:#F3F0F0;fill:color(display-p3 0.9529 0.9412 0.9412);fill-opacity:0.01;"/>
<rect x="124.347" y="4.52967" width="172.757" height="172.757" rx="86.3783" transform="rotate(44.2856 124.347 4.52967)" stroke="#B9BABD" style="stroke:#B9BABD;stroke:color(display-p3 0.7255 0.7294 0.7412);stroke-opacity:1;" stroke-width="2.69277"/>
</g>
<rect x="124.832" y="43.6121" width="117.485" height="117.485" rx="58.7424" transform="rotate(44.2856 124.832 43.6121)" fill="#F3F0F0" stroke="#B9BABD" style="fill:#F3F0F0;fill:color(display-p3 0.9529 0.9412 0.9412);fill-opacity:1;stroke:#B9BABD;stroke:color(display-p3 0.7255 0.7294 0.7412);stroke-opacity:1;" stroke-width="1.34638"/>
<path d="M102.175 126.197C102.237 126.545 102.237 126.9 102.175 127.261C102.122 127.621 102.002 127.958 101.815 128.274C101.636 128.578 101.387 128.846 101.069 129.078C100.75 129.309 100.365 129.466 99.9122 129.546L95.7129 130.294L93.9774 120.553L98.0211 119.832C98.4641 119.753 98.8679 119.754 99.2324 119.835C99.6063 119.915 99.9321 120.051 100.21 120.245C100.487 120.438 100.715 120.68 100.893 120.969C101.071 121.258 101.19 121.573 101.251 121.912C101.32 122.298 101.298 122.696 101.186 123.105C101.073 123.504 100.816 123.866 100.417 124.19C100.932 124.351 101.334 124.62 101.625 124.996C101.916 125.372 102.099 125.772 102.175 126.197ZM99.9691 122.169C99.8785 121.66 99.6489 121.327 99.2803 121.169C98.9212 121.009 98.4872 120.975 97.9782 121.065L95.5039 121.506L96.0152 124.376L98.6026 123.915C98.8194 123.877 99.0218 123.812 99.2096 123.72C99.3958 123.618 99.5487 123.494 99.6682 123.346C99.7972 123.197 99.8882 123.025 99.9411 122.831C100.002 122.626 100.011 122.405 99.9691 122.169ZM100.888 126.426C100.841 126.162 100.748 125.94 100.609 125.761C100.478 125.57 100.315 125.419 100.12 125.308C99.9344 125.195 99.7266 125.12 99.4964 125.084C99.2756 125.045 99.0521 125.046 98.8258 125.086L96.2243 125.55L96.8188 128.887L99.4486 128.418C100.024 128.316 100.431 128.092 100.671 127.748C100.911 127.404 100.984 126.963 100.888 126.426ZM108.562 128.005L108.03 125.022L104.694 125.616L105.225 128.6L104.009 128.816L102.762 121.818L103.978 121.601L104.497 124.514L107.834 123.919L107.315 121.007L108.545 120.787L109.792 127.786L108.562 128.005ZM111.832 124.272L111.915 124.738C111.965 125.021 112.055 125.253 112.185 125.434C112.313 125.606 112.469 125.743 112.652 125.847C112.844 125.939 113.048 125.995 113.266 126.015C113.493 126.033 113.719 126.022 113.945 125.981C114.181 125.939 114.446 125.843 114.74 125.694C115.035 125.544 115.303 125.307 115.547 124.981L116.459 125.679C116.166 126.111 115.811 126.437 115.393 126.657C114.983 126.866 114.557 127.01 114.114 127.089C113.718 127.16 113.331 127.175 112.955 127.135C112.576 127.086 112.232 126.982 111.922 126.823C111.619 126.653 111.359 126.423 111.142 126.131C110.934 125.837 110.792 125.478 110.717 125.054L110.387 123.202C110.313 122.787 110.316 122.397 110.397 122.033C110.478 121.668 110.62 121.346 110.823 121.067C111.036 120.786 111.301 120.554 111.618 120.371C111.944 120.177 112.314 120.043 112.728 119.969C113.143 119.895 113.536 119.889 113.906 119.949C114.277 120.009 114.605 120.131 114.89 120.313C115.185 120.494 115.428 120.738 115.619 121.044C115.817 121.34 115.952 121.69 116.025 122.095L116.272 123.481L111.832 124.272ZM114.817 122.442C114.765 122.149 114.678 121.907 114.557 121.715C114.435 121.523 114.287 121.374 114.112 121.269C113.946 121.153 113.759 121.084 113.55 121.063C113.35 121.03 113.142 121.033 112.925 121.072C112.708 121.111 112.511 121.18 112.335 121.279C112.158 121.379 112.006 121.508 111.878 121.667C111.751 121.826 111.664 122.016 111.616 122.239C111.566 122.452 111.566 122.695 111.614 122.968L111.67 123.279L114.865 122.71L114.817 122.442ZM119.244 119.99L119.489 121.857C119.582 122.599 119.629 123.218 119.63 123.714C119.639 124.199 119.568 124.62 119.418 124.977L122.896 124.357L122.029 119.494L119.244 119.99ZM117.823 125.276C117.972 125.133 118.095 124.975 118.19 124.802C118.284 124.62 118.354 124.408 118.398 124.167C118.441 123.916 118.457 123.626 118.447 123.297C118.436 122.959 118.404 122.561 118.351 122.104L117.992 119.104L123.054 118.203L124.112 124.141L124.694 124.052L125.2 126.894L124.055 127.098L123.735 125.302L118.673 126.204L118.993 127.999L117.848 128.203L117.347 125.39L117.823 125.276ZM125.914 117.693L126.187 118.403C126.684 117.974 127.088 117.678 127.4 117.516C127.721 117.352 128.008 117.247 128.263 117.202C128.951 117.079 129.548 117.182 130.054 117.51C130.569 117.836 130.903 118.428 131.056 119.286L131.439 121.435C131.581 122.236 131.47 122.893 131.104 123.406C130.748 123.917 130.188 124.24 129.424 124.376C129.17 124.421 128.868 124.446 128.518 124.45C128.171 124.463 127.744 124.418 127.24 124.313L127.801 127.466L126.599 127.68L124.854 117.882L125.914 117.693ZM127.036 123.168C127.501 123.27 127.89 123.322 128.201 123.325C128.513 123.328 128.815 123.303 129.107 123.251C129.296 123.217 129.467 123.167 129.62 123.101C129.782 123.024 129.914 122.922 130.018 122.797C130.121 122.662 130.189 122.499 130.223 122.308C130.265 122.106 130.261 121.869 130.213 121.595L129.855 119.587C129.759 119.05 129.581 118.703 129.319 118.545C129.056 118.378 128.736 118.328 128.359 118.395C128.227 118.419 128.076 118.47 127.905 118.549C127.734 118.628 127.557 118.723 127.372 118.834C127.197 118.943 127.024 119.066 126.854 119.203C126.683 119.331 126.531 119.46 126.398 119.591L127.036 123.168ZM133.841 120.351L133.924 120.817C133.975 121.1 134.064 121.332 134.194 121.513C134.322 121.685 134.478 121.822 134.661 121.926C134.853 122.018 135.057 122.074 135.275 122.094C135.502 122.112 135.728 122.1 135.954 122.06C136.19 122.018 136.455 121.922 136.749 121.773C137.044 121.623 137.312 121.385 137.556 121.06L138.468 121.758C138.175 122.19 137.82 122.516 137.402 122.736C136.992 122.945 136.566 123.089 136.123 123.168C135.727 123.239 135.34 123.254 134.964 123.214C134.585 123.165 134.241 123.061 133.931 122.902C133.628 122.732 133.368 122.501 133.151 122.21C132.943 121.916 132.801 121.557 132.726 121.133L132.396 119.281C132.322 118.866 132.325 118.476 132.406 118.112C132.487 117.747 132.629 117.425 132.832 117.146C133.045 116.865 133.31 116.633 133.627 116.45C133.953 116.256 134.323 116.122 134.737 116.048C135.152 115.974 135.545 115.967 135.915 116.028C136.286 116.088 136.614 116.21 136.899 116.392C137.194 116.573 137.437 116.817 137.628 117.123C137.826 117.419 137.962 117.769 138.034 118.174L138.281 119.56L133.841 120.351ZM136.826 118.521C136.774 118.228 136.687 117.986 136.566 117.794C136.444 117.602 136.296 117.453 136.121 117.348C135.955 117.232 135.768 117.163 135.56 117.142C135.359 117.109 135.151 117.112 134.934 117.151C134.717 117.19 134.52 117.259 134.344 117.358C134.167 117.458 134.015 117.587 133.887 117.746C133.76 117.905 133.673 118.095 133.625 118.318C133.575 118.531 133.575 118.774 133.623 119.047L133.679 119.358L136.874 118.789L136.826 118.521ZM144.613 121.582L144.082 118.599L140.745 119.194L141.276 122.177L140.06 122.394L138.814 115.395L140.029 115.178L140.548 118.091L143.885 117.496L143.366 114.584L144.596 114.365L145.843 121.363L144.613 121.582ZM148.193 118.932L148.954 117.148L150.673 113.282L151.818 113.078L153.065 120.077L151.821 120.298L150.919 115.237L150.848 115.249L150.077 117.064L148.371 120.913L147.254 121.112L146.007 114.113L147.237 113.894L148.136 118.942L148.193 118.932ZM155.104 116.562L155.188 117.029C155.238 117.312 155.328 117.544 155.457 117.725C155.585 117.897 155.741 118.034 155.925 118.138C156.116 118.23 156.321 118.286 156.538 118.305C156.765 118.323 156.992 118.312 157.218 118.272C157.453 118.23 157.718 118.134 158.013 117.984C158.307 117.835 158.576 117.597 158.819 117.272L159.731 117.97C159.439 118.401 159.084 118.727 158.666 118.948C158.256 119.157 157.829 119.301 157.386 119.38C156.99 119.45 156.604 119.466 156.227 119.426C155.849 119.376 155.505 119.273 155.194 119.114C154.892 118.944 154.632 118.713 154.414 118.421C154.207 118.128 154.065 117.769 153.989 117.345L153.659 115.492C153.585 115.078 153.589 114.688 153.67 114.324C153.751 113.959 153.893 113.637 154.096 113.358C154.308 113.077 154.573 112.845 154.891 112.662C155.216 112.468 155.586 112.334 156.001 112.26C156.416 112.186 156.808 112.179 157.179 112.24C157.549 112.3 157.877 112.422 158.163 112.604C158.458 112.785 158.7 113.029 158.891 113.335C159.09 113.63 159.225 113.981 159.297 114.386L159.544 115.771L155.104 116.562ZM158.09 114.732C158.038 114.44 157.951 114.198 157.829 114.006C157.707 113.813 157.559 113.665 157.385 113.56C157.218 113.443 157.031 113.375 156.823 113.353C156.623 113.321 156.414 113.324 156.197 113.363C155.981 113.401 155.784 113.47 155.607 113.57C155.43 113.67 155.278 113.799 155.151 113.958C155.024 114.116 154.936 114.307 154.888 114.53C154.839 114.743 154.838 114.986 154.887 115.259L154.942 115.57L158.138 115.001L158.09 114.732ZM96.1422 144.457L96.9038 142.673L98.6221 138.807L99.7673 138.603L101.014 145.602L99.77 145.824L98.8682 140.762L98.7975 140.774L98.0268 142.589L96.3201 146.438L95.2032 146.637L93.9563 139.638L95.1864 139.419L96.0856 144.467L96.1422 144.457ZM110.388 143.932L109.856 140.949L106.52 141.543L107.051 144.526L105.835 144.743L104.588 137.744L105.804 137.528L106.323 140.44L109.66 139.846L109.141 136.933L110.371 136.714L111.618 143.713L110.388 143.932ZM117.291 142.002C116.79 142.412 116.369 142.696 116.028 142.854C115.694 143.001 115.386 143.1 115.103 143.15C114.424 143.271 113.849 143.179 113.376 142.874C112.904 142.569 112.61 142.092 112.494 141.442C112.425 141.055 112.452 140.715 112.574 140.421C112.706 140.125 112.885 139.874 113.111 139.668C113.345 139.452 113.602 139.284 113.883 139.166C114.171 139.037 114.433 138.952 114.668 138.91L116.718 138.544L116.623 138.007C116.535 137.517 116.338 137.202 116.031 137.062C115.723 136.913 115.314 136.884 114.805 136.974C114.56 137.018 114.265 137.109 113.92 137.249C113.583 137.377 113.262 137.619 112.956 137.975L112.198 137.162C112.588 136.732 113.005 136.425 113.449 136.239C113.892 136.053 114.312 135.924 114.707 135.854C115.622 135.691 116.332 135.774 116.838 136.102C117.351 136.419 117.682 136.992 117.83 137.821L118.656 142.459L117.595 142.648L117.338 142.023L117.291 142.002ZM116.897 139.548L115.045 139.878C114.894 139.905 114.732 139.949 114.558 140.009C114.392 140.058 114.24 140.134 114.102 140.236C113.963 140.329 113.855 140.46 113.778 140.629C113.709 140.787 113.696 140.984 113.738 141.22C113.798 141.559 113.957 141.794 114.213 141.923C114.479 142.051 114.791 142.083 115.149 142.019C115.328 141.987 115.508 141.93 115.688 141.85C115.876 141.758 116.053 141.658 116.218 141.551C116.393 141.442 116.558 141.33 116.713 141.215C116.866 141.09 117.006 140.978 117.134 140.877L116.897 139.548ZM121.51 134.642C121.915 134.57 122.335 134.553 122.77 134.593C123.212 134.621 123.631 134.784 124.024 135.084L123.467 136.131C123.104 135.895 122.78 135.768 122.495 135.75C122.217 135.722 121.975 135.726 121.768 135.763C121.588 135.795 121.405 135.857 121.217 135.949C121.039 136.039 120.881 136.164 120.744 136.325C120.617 136.484 120.521 136.681 120.456 136.916C120.399 137.14 120.397 137.403 120.45 137.705L120.733 139.288C120.786 139.59 120.88 139.841 121.013 140.041C121.144 140.231 121.296 140.379 121.471 140.484C121.645 140.589 121.832 140.653 122.03 140.676C122.238 140.697 122.441 140.69 122.639 140.655C122.847 140.618 123.089 140.531 123.366 140.394C123.652 140.256 123.885 140.059 124.063 139.803L124.963 140.518C124.692 140.907 124.365 141.199 123.981 141.393C123.607 141.586 123.218 141.719 122.812 141.791C122.398 141.865 122.01 141.871 121.649 141.809C121.287 141.747 120.96 141.63 120.667 141.459C120.383 141.286 120.144 141.061 119.949 140.784C119.761 140.497 119.635 140.169 119.57 139.802L119.199 137.723C119.129 137.327 119.14 136.956 119.234 136.608C119.328 136.261 119.482 135.952 119.696 135.68C119.91 135.408 120.172 135.187 120.482 135.015C120.799 134.832 121.142 134.708 121.51 134.642ZM127.919 134.696L128.974 140.621L127.716 140.845L126.661 134.921L124.497 135.306L124.303 134.217L129.902 133.22L130.096 134.308L127.919 134.696ZM131.813 132.894L132.086 133.604C132.583 133.175 132.988 132.879 133.299 132.717C133.62 132.553 133.908 132.448 134.162 132.403C134.85 132.28 135.447 132.383 135.953 132.711C136.468 133.037 136.802 133.629 136.955 134.487L137.338 136.636C137.481 137.437 137.369 138.094 137.003 138.607C136.647 139.117 136.087 139.441 135.324 139.577C135.069 139.622 134.767 139.647 134.418 139.651C134.07 139.664 133.644 139.618 133.139 139.514L133.7 142.667L132.499 142.881L130.753 133.083L131.813 132.894ZM132.935 138.369C133.4 138.471 133.789 138.523 134.101 138.526C134.412 138.529 134.714 138.504 135.006 138.452C135.195 138.418 135.366 138.368 135.519 138.302C135.681 138.225 135.813 138.123 135.917 137.998C136.02 137.863 136.088 137.7 136.122 137.509C136.164 137.307 136.161 137.069 136.112 136.796L135.754 134.788C135.658 134.251 135.48 133.904 135.218 133.746C134.955 133.579 134.635 133.529 134.258 133.596C134.126 133.62 133.975 133.671 133.804 133.75C133.633 133.829 133.456 133.924 133.271 134.035C133.096 134.144 132.924 134.267 132.754 134.404C132.582 134.532 132.43 134.661 132.297 134.792L132.935 138.369ZM144.439 135.313C144.511 135.718 144.495 136.095 144.392 136.444C144.297 136.782 144.132 137.084 143.897 137.349C143.672 137.613 143.395 137.833 143.066 138.008C142.738 138.183 142.375 138.306 141.979 138.377C141.574 138.449 141.187 138.459 140.818 138.408C140.449 138.357 140.113 138.247 139.811 138.077C139.518 137.906 139.268 137.678 139.062 137.394C138.854 137.1 138.714 136.751 138.642 136.345L138.279 134.309C138.207 133.904 138.218 133.532 138.314 133.195C138.417 132.846 138.576 132.54 138.792 132.278C139.016 132.005 139.292 131.78 139.621 131.605C139.957 131.419 140.323 131.29 140.719 131.22C141.143 131.144 141.54 131.137 141.911 131.197C142.289 131.246 142.626 131.361 142.921 131.542C143.223 131.712 143.474 131.945 143.672 132.24C143.869 132.526 144.004 132.871 144.076 133.277L144.439 135.313ZM142.912 133.703C142.858 133.401 142.761 133.156 142.62 132.967C142.478 132.769 142.31 132.619 142.117 132.517C141.933 132.414 141.737 132.351 141.529 132.33C141.321 132.309 141.123 132.315 140.935 132.348C140.737 132.384 140.544 132.447 140.356 132.539C140.168 132.631 140.001 132.758 139.855 132.92C139.718 133.081 139.617 133.278 139.552 133.514C139.485 133.74 139.479 134.003 139.533 134.305L139.815 135.888C139.869 136.19 139.957 136.442 140.081 136.643C140.212 136.834 140.365 136.982 140.539 137.087C140.713 137.192 140.909 137.254 141.127 137.274C141.344 137.294 141.571 137.282 141.806 137.24C141.995 137.207 142.183 137.144 142.371 137.052C142.559 136.96 142.721 136.834 142.858 136.674C143.004 136.512 143.11 136.318 143.177 136.092C143.242 135.856 143.248 135.588 143.194 135.286L142.912 133.703ZM146.416 127.346C146.443 127.438 146.489 127.532 146.554 127.627C146.62 127.723 146.703 127.81 146.805 127.889C146.905 127.959 147.021 128.011 147.154 128.046C147.286 128.08 147.428 128.084 147.579 128.057C147.749 128.027 147.89 127.973 148.002 127.895C148.124 127.815 148.22 127.724 148.29 127.625C148.358 127.515 148.401 127.405 148.42 127.295C148.449 127.183 148.455 127.08 148.438 126.985L149.442 126.807C149.457 126.998 149.451 127.209 149.423 127.437C149.394 127.656 149.315 127.87 149.187 128.077C149.068 128.283 148.892 128.47 148.66 128.638C148.436 128.804 148.132 128.922 147.745 128.991C147.359 129.059 147.023 129.056 146.737 128.981C146.461 128.903 146.226 128.79 146.034 128.639C145.851 128.487 145.704 128.314 145.592 128.12C145.487 127.915 145.418 127.718 145.384 127.529L146.416 127.346ZM147.188 135.363L147.95 133.578L149.668 129.713L150.813 129.509L152.06 136.508L150.816 136.729L149.914 131.668L149.844 131.68L149.073 133.495L147.366 137.344L146.249 137.543L145.002 130.544L146.232 130.325L147.132 135.373L147.188 135.363ZM153.47 136.256L152.221 129.244L153.423 129.029L153.954 132.013L155.142 131.801C155.274 131.778 155.405 131.749 155.535 131.716C155.664 131.674 155.779 131.61 155.88 131.524C155.982 131.438 156.069 131.325 156.141 131.186C156.221 131.035 156.279 130.84 156.314 130.6L156.632 128.458L157.877 128.236L157.547 130.395C157.494 130.755 157.408 131.067 157.29 131.331C157.18 131.584 156.999 131.772 156.749 131.894C157.083 131.912 157.348 132.035 157.544 132.263C157.738 132.481 157.923 132.755 158.098 133.083L159.253 135.226L157.981 135.453L157.028 133.624C156.912 133.411 156.795 133.247 156.677 133.132C156.567 133.006 156.45 132.92 156.325 132.874C156.199 132.819 156.068 132.793 155.932 132.798C155.795 132.793 155.647 132.805 155.486 132.834L154.143 133.073L154.672 136.042L153.47 136.256ZM164.581 133.577C164.08 133.987 163.659 134.271 163.318 134.429C162.984 134.576 162.676 134.675 162.393 134.725C161.715 134.846 161.139 134.754 160.667 134.449C160.194 134.144 159.9 133.667 159.784 133.016C159.715 132.63 159.742 132.29 159.865 131.995C159.997 131.7 160.176 131.449 160.402 131.243C160.635 131.027 160.893 130.859 161.173 130.741C161.461 130.612 161.723 130.527 161.959 130.485L164.009 130.119L163.913 129.582C163.826 129.092 163.629 128.777 163.322 128.637C163.013 128.488 162.604 128.459 162.095 128.549C161.85 128.593 161.555 128.684 161.211 128.824C160.874 128.952 160.552 129.194 160.246 129.55L159.488 128.737C159.879 128.307 160.296 128 160.739 127.814C161.182 127.628 161.602 127.499 161.998 127.429C162.912 127.266 163.622 127.348 164.128 127.677C164.642 127.994 164.972 128.567 165.12 129.396L165.946 134.034L164.886 134.223L164.629 133.597L164.581 133.577ZM164.188 131.123L162.336 131.453C162.185 131.48 162.022 131.524 161.848 131.584C161.682 131.633 161.53 131.708 161.393 131.811C161.254 131.904 161.146 132.035 161.069 132.204C161 132.362 160.986 132.559 161.028 132.795C161.089 133.134 161.247 133.368 161.504 133.498C161.769 133.625 162.082 133.657 162.44 133.594C162.619 133.562 162.798 133.505 162.979 133.425C163.166 133.333 163.343 133.233 163.509 133.126C163.684 133.017 163.849 132.905 164.003 132.79C164.156 132.665 164.297 132.553 164.424 132.452L164.188 131.123ZM109.186 157.422C109.248 157.771 109.253 158.13 109.202 158.499C109.15 158.858 109.035 159.195 108.857 159.508C108.679 159.822 108.431 160.095 108.113 160.327C107.804 160.557 107.414 160.714 106.942 160.798L102.899 161.518L101.163 151.776L106.988 150.739L107.202 151.94L102.678 152.746L103.179 155.56L105.88 155.079C106.342 154.997 106.762 155.009 107.141 155.117C107.518 155.215 107.849 155.38 108.134 155.611C108.416 155.833 108.644 156.104 108.818 156.423C109.001 156.74 109.123 157.073 109.186 157.422ZM107.899 157.651C107.852 157.387 107.764 157.165 107.634 156.984C107.512 156.791 107.359 156.639 107.173 156.526C106.988 156.413 106.781 156.343 106.552 156.316C106.322 156.279 106.08 156.283 105.825 156.329L103.393 156.762L103.988 160.099L106.462 159.658C106.971 159.567 107.359 159.342 107.626 158.984C107.902 158.623 107.993 158.179 107.899 157.651ZM111.748 157.928L112.51 156.144L114.228 152.279L115.373 152.075L116.62 159.073L115.376 159.295L114.474 154.233L114.403 154.246L113.633 156.061L111.926 159.91L110.809 160.109L109.562 153.11L110.792 152.891L111.691 157.938L111.748 157.928ZM119.845 152.387L120.9 158.311L119.642 158.535L118.587 152.611L116.423 152.996L116.229 151.908L121.828 150.91L122.022 151.999L119.845 152.387ZM123.74 150.584L124.012 151.294C124.509 150.865 124.914 150.57 125.225 150.407C125.546 150.243 125.834 150.138 126.088 150.093C126.776 149.97 127.373 150.073 127.879 150.401C128.394 150.727 128.728 151.32 128.881 152.177L129.264 154.326C129.407 155.128 129.295 155.784 128.929 156.297C128.573 156.808 128.013 157.131 127.25 157.267C126.995 157.313 126.693 157.337 126.344 157.341C125.996 157.354 125.57 157.309 125.065 157.204L125.627 160.357L124.425 160.571L122.679 150.773L123.74 150.584ZM124.861 156.059C125.326 156.161 125.715 156.213 126.027 156.216C126.338 156.219 126.64 156.194 126.932 156.142C127.121 156.109 127.292 156.059 127.446 155.992C127.607 155.915 127.739 155.814 127.844 155.688C127.946 155.553 128.014 155.39 128.048 155.199C128.09 154.997 128.087 154.76 128.038 154.486L127.68 152.479C127.584 151.942 127.406 151.594 127.144 151.436C126.881 151.269 126.561 151.219 126.184 151.287C126.052 151.31 125.901 151.361 125.73 151.44C125.559 151.519 125.382 151.614 125.197 151.725C125.022 151.834 124.85 151.957 124.68 152.094C124.508 152.222 124.356 152.351 124.224 152.482L124.861 156.059ZM131.976 154.325L132.737 152.541L134.456 148.675L135.601 148.471L136.848 155.47L135.604 155.691L134.702 150.63L134.631 150.642L133.86 152.457L132.154 156.306L131.037 156.505L129.79 149.506L131.02 149.287L131.919 154.335L131.976 154.325ZM138.258 155.219L137.009 148.206L138.211 147.992L138.742 150.975L139.93 150.763C140.062 150.74 140.193 150.712 140.323 150.679C140.452 150.636 140.567 150.572 140.668 150.486C140.769 150.4 140.856 150.287 140.929 150.148C141.009 149.997 141.066 149.802 141.102 149.563L141.42 147.42L142.664 147.198L142.334 149.358C142.282 149.717 142.196 150.029 142.078 150.293C141.967 150.546 141.787 150.734 141.536 150.856C141.87 150.875 142.135 150.998 142.331 151.225C142.526 151.443 142.711 151.717 142.886 152.045L144.041 154.188L142.768 154.415L141.815 152.586C141.7 152.373 141.583 152.21 141.465 152.094C141.355 151.968 141.238 151.882 141.113 151.836C140.986 151.781 140.855 151.756 140.72 151.76C140.583 151.756 140.434 151.767 140.274 151.796L138.931 152.035L139.46 155.004L138.258 155.219ZM146.573 146.429C146.979 146.357 147.399 146.34 147.834 146.379C148.276 146.407 148.695 146.571 149.088 146.871L148.531 147.918C148.168 147.681 147.844 147.554 147.559 147.537C147.281 147.509 147.039 147.513 146.831 147.55C146.652 147.582 146.469 147.644 146.281 147.735C146.103 147.825 145.945 147.951 145.808 148.111C145.681 148.27 145.585 148.467 145.52 148.702C145.462 148.927 145.461 149.19 145.514 149.491L145.796 151.075C145.85 151.376 145.944 151.627 146.076 151.827C146.208 152.018 146.36 152.166 146.535 152.271C146.709 152.376 146.895 152.44 147.094 152.463C147.302 152.484 147.505 152.477 147.703 152.442C147.91 152.405 148.153 152.318 148.43 152.181C148.716 152.042 148.949 151.845 149.127 151.59L150.027 152.305C149.756 152.694 149.429 152.985 149.045 153.18C148.671 153.373 148.282 153.506 147.876 153.578C147.462 153.652 147.074 153.658 146.712 153.596C146.351 153.534 146.024 153.417 145.731 153.245C145.447 153.072 145.208 152.847 145.013 152.571C144.825 152.283 144.699 151.956 144.633 151.588L144.263 149.51C144.193 149.114 144.204 148.742 144.298 148.395C144.392 148.048 144.546 147.738 144.76 147.467C144.974 147.195 145.236 146.973 145.546 146.801C145.863 146.618 146.206 146.494 146.573 146.429ZM155.639 144.609C155.703 144.967 155.675 145.327 155.555 145.689C155.444 146.049 155.282 146.399 155.071 146.738C154.866 147.066 154.635 147.375 154.375 147.665C154.125 147.952 153.887 148.204 153.663 148.419C153.506 148.573 153.325 148.756 153.119 148.968C152.923 149.178 152.735 149.406 152.555 149.652C152.385 149.896 152.246 150.154 152.139 150.426C152.041 150.696 152.018 150.973 152.068 151.256L152.133 151.623L156.714 150.807L156.908 151.896L151.055 152.939L150.851 151.793C150.78 151.398 150.781 151.018 150.852 150.655C150.924 150.292 151.047 149.945 151.221 149.612C151.395 149.28 151.606 148.965 151.855 148.668C152.102 148.361 152.366 148.071 152.648 147.797C152.891 147.579 153.122 147.348 153.342 147.105C153.57 146.86 153.77 146.615 153.94 146.371C154.109 146.117 154.234 145.866 154.317 145.618C154.399 145.37 154.419 145.128 154.377 144.893C154.332 144.638 154.237 144.431 154.091 144.272C153.954 144.102 153.786 143.977 153.587 143.896C153.386 143.805 153.167 143.751 152.931 143.735C152.704 143.717 152.477 143.728 152.251 143.769C151.855 143.839 151.5 143.975 151.186 144.177C150.87 144.37 150.605 144.597 150.389 144.859L149.589 144.053C149.86 143.723 150.201 143.424 150.611 143.157C151.02 142.889 151.498 142.707 152.045 142.609C152.441 142.539 152.835 142.517 153.229 142.544C153.623 142.571 153.985 142.663 154.314 142.818C154.641 142.964 154.924 143.186 155.162 143.484C155.398 143.772 155.557 144.147 155.639 144.609ZM163.117 149.243L163.384 150.742L162.14 150.964L161.873 149.465L157.631 150.221L157.445 149.175C157.77 147.891 158.094 146.598 158.417 145.296C158.748 143.992 159.076 142.694 159.4 141.401L160.701 141.169L158.806 148.874L161.676 148.362L161.157 145.45L162.402 145.228L162.92 148.141L163.755 147.992L163.951 149.095L163.117 149.243Z" fill="#46474E" style="fill:#46474E;fill:color(display-p3 0.2745 0.2784 0.3059);fill-opacity:1;"/>
<path d="M91.1944 59.5923C91.539 59.4151 91.9124 59.2839 92.3146 59.1987C92.7206 59.1014 93.1422 59.1329 93.5794 59.2932L93.3681 60.39C92.9758 60.2776 92.649 60.2531 92.3877 60.3165C92.1303 60.3678 91.9134 60.4388 91.7371 60.5294C91.5848 60.6078 91.4368 60.7142 91.2932 60.8489C91.1576 60.9794 91.0506 61.1358 90.972 61.3181C90.9015 61.4963 90.8695 61.7002 90.8762 61.9299C90.8867 62.1475 90.9579 62.3845 91.0898 62.641L91.7823 63.9876C91.9141 64.2441 92.0676 64.4439 92.2425 64.587C92.4134 64.7221 92.5918 64.8128 92.7777 64.8591C92.9637 64.9054 93.1492 64.9113 93.3342 64.877C93.5273 64.8385 93.7079 64.776 93.8763 64.6895C94.0526 64.5988 94.2465 64.4535 94.4579 64.2536C94.6773 64.0495 94.8317 63.8079 94.9213 63.5288L95.9295 63.9225C95.7932 64.3473 95.5795 64.7004 95.2884 64.9819C95.0054 65.2592 94.6915 65.4864 94.3468 65.6637C93.9942 65.845 93.6467 65.9578 93.3046 66.002C92.9625 66.0462 92.6358 66.0317 92.3246 65.9587C92.0214 65.8815 91.7437 65.7456 91.4916 65.5509C91.2433 65.3441 91.0388 65.0844 90.8781 64.7718L89.9692 63.0044C89.7961 62.6677 89.7036 62.3302 89.6917 61.9917C89.6798 61.6532 89.7326 61.3321 89.8501 61.0285C89.9676 60.7248 90.1419 60.4528 90.373 60.2123C90.608 59.9597 90.8817 59.7531 91.1944 59.5923Z" fill="#46474E" style="fill:#46474E;fill:color(display-p3 0.2745 0.2784 0.3059);fill-opacity:1;"/>
<path d="M110.629 59.5363L109.286 54.033L106.173 54.7927L107.516 60.2959L106.4 60.5684L104.813 54.0669L110.172 52.7592L111.759 59.2607L110.629 59.5363Z" fill="#46474E" style="fill:#46474E;fill:color(display-p3 0.2745 0.2784 0.3059);fill-opacity:1;"/>
<path d="M119.439 55.6827C119.486 56.0674 119.452 56.4212 119.338 56.7439C119.23 57.0567 119.06 57.3318 118.825 57.5692C118.6 57.8056 118.328 57.9977 118.011 58.1455C117.693 58.2933 117.346 58.3901 116.97 58.4361C116.585 58.483 116.221 58.4731 115.877 58.4062C115.533 58.3393 115.223 58.2182 114.947 58.043C114.68 57.8668 114.457 57.6398 114.278 57.362C114.098 57.0753 113.984 56.7396 113.937 56.3549L113.701 54.4224C113.654 54.0377 113.684 53.689 113.791 53.3763C113.906 53.0535 114.072 52.7745 114.288 52.5392C114.513 52.2939 114.784 52.0973 115.102 51.9495C115.427 51.7917 115.778 51.6898 116.154 51.6439C116.556 51.5947 116.93 51.6081 117.276 51.6839C117.629 51.7498 117.939 51.8753 118.207 52.0605C118.483 52.2357 118.706 52.4671 118.877 52.7549C119.048 53.0338 119.156 53.3656 119.203 53.7503L119.439 55.6827ZM118.087 54.0909C118.052 53.8046 117.974 53.5691 117.851 53.3843C117.728 53.1905 117.578 53.0409 117.401 52.9353C117.234 52.8286 117.053 52.7599 116.859 52.7292C116.664 52.6985 116.477 52.694 116.298 52.7159C116.111 52.7388 115.926 52.7886 115.745 52.8653C115.563 52.9419 115.4 53.0527 115.254 53.1976C115.117 53.3414 115.012 53.5222 114.939 53.74C114.865 53.9489 114.845 54.1965 114.88 54.4827L115.064 55.9858C115.098 56.2721 115.169 56.5132 115.274 56.7091C115.388 56.895 115.524 57.0418 115.682 57.1496C115.841 57.2574 116.022 57.3261 116.225 57.3557C116.429 57.3853 116.642 57.3865 116.866 57.3592C117.045 57.3373 117.225 57.2881 117.406 57.2114C117.587 57.1348 117.746 57.0246 117.883 56.8807C118.029 56.7358 118.139 56.5589 118.213 56.3501C118.287 56.1323 118.306 55.8802 118.271 55.5939L118.087 54.0909Z" fill="#46474E" style="fill:#46474E;fill:color(display-p3 0.2745 0.2784 0.3059);fill-opacity:1;"/>
<path d="M124.318 57.7695L124.308 54.9304L123.524 54.9333C123.37 54.9339 123.226 54.9479 123.091 54.9755C122.965 54.994 122.848 55.0395 122.74 55.112C122.632 55.1755 122.534 55.275 122.444 55.4105C122.363 55.537 122.292 55.7086 122.23 55.9251L121.709 57.7793L120.492 57.7838L121.147 55.6047C121.2 55.4422 121.254 55.2888 121.307 55.1444C121.361 55 121.428 54.8691 121.509 54.7516C121.589 54.6341 121.684 54.5346 121.791 54.4531C121.908 54.3715 122.043 54.3124 122.196 54.2758C121.944 54.2047 121.74 54.0612 121.586 53.8455C121.432 53.6207 121.305 53.3463 121.205 53.0222L120.589 51.0776L121.779 51.0732L122.381 53.0043C122.445 53.2203 122.522 53.3913 122.613 53.5171C122.712 53.6339 122.816 53.7237 122.925 53.7864C123.042 53.849 123.164 53.8891 123.29 53.9067C123.416 53.9152 123.542 53.9193 123.669 53.9188L124.304 53.9164L124.293 51.0638L125.443 51.0595L125.453 53.9121L126.089 53.9097C126.215 53.9093 126.341 53.9043 126.467 53.8948C126.593 53.8763 126.71 53.8353 126.818 53.7718C126.935 53.7083 127.038 53.6178 127.128 53.5003C127.218 53.3737 127.298 53.2022 127.37 52.9856L127.957 51.0501L129.147 51.0456L128.546 52.9947C128.448 53.3196 128.323 53.5949 128.17 53.8208C128.018 54.0377 127.816 54.1827 127.564 54.2557C127.87 54.3267 128.096 54.4836 128.241 54.7264C128.395 54.9602 128.523 55.2436 128.623 55.5767L129.294 57.7509L128.077 57.7554L127.543 55.9052C127.479 55.6892 127.402 55.5182 127.311 55.3923C127.229 55.2575 127.134 55.1587 127.026 55.096C126.918 55.0243 126.796 54.9797 126.66 54.9621C126.534 54.9356 126.394 54.9226 126.241 54.9232L125.457 54.9261L125.468 57.7652L124.318 57.7695Z" fill="#46474E" style="fill:#46474E;fill:color(display-p3 0.2745 0.2784 0.3059);fill-opacity:1;"/>
<path d="M131.749 56.0809L132.917 54.677L135.508 51.6535L136.596 51.7781L135.835 58.4269L134.653 58.2915L135.204 53.4829L135.136 53.4752L133.952 54.9045L131.375 57.9161L130.314 57.7945L131.076 51.1457L132.244 51.2796L131.695 56.0748L131.749 56.0809Z" fill="#46474E" style="fill:#46474E;fill:color(display-p3 0.2745 0.2784 0.3059);fill-opacity:1;"/>
<path d="M139.562 57.4384C139.742 57.694 139.975 57.9063 140.259 58.0753C140.552 58.2463 140.825 58.3619 141.08 58.422C141.361 58.4883 141.599 58.5168 141.796 58.5077C142.003 58.4919 142.174 58.4536 142.309 58.3928C142.455 58.3253 142.567 58.2407 142.647 58.1391C142.729 58.0288 142.784 57.9122 142.813 57.7894C142.885 57.4823 142.822 57.2219 142.622 57.0081C142.432 56.7963 142.161 56.649 141.81 56.5662L140.915 56.3549L141.136 55.4207L142.057 55.6382C142.408 55.7211 142.699 55.7019 142.932 55.5808C143.166 55.451 143.313 55.2589 143.373 55.0045C143.442 54.715 143.364 54.4744 143.141 54.2828C142.92 54.0824 142.647 53.9438 142.322 53.8672C142.068 53.8071 141.791 53.7834 141.492 53.7961C141.203 53.802 140.921 53.8789 140.645 54.0268L140.131 53.0859C140.507 52.8689 140.915 52.7477 141.356 52.7222C141.797 52.6968 142.224 52.7327 142.637 52.8301C143.014 52.9192 143.331 53.0451 143.589 53.2079C143.856 53.3727 144.062 53.5602 144.206 53.7704C144.36 53.9826 144.459 54.2098 144.504 54.4519C144.551 54.6852 144.545 54.9246 144.487 55.1703C144.464 55.2667 144.429 55.3787 144.38 55.5061C144.333 55.6248 144.26 55.7416 144.158 55.8567C144.066 55.9737 143.944 56.0792 143.792 56.173C143.651 56.2601 143.47 56.3193 143.25 56.3506C143.433 56.4772 143.576 56.6174 143.678 56.7713C143.781 56.9252 143.851 57.0806 143.888 57.2375C143.934 57.3965 143.954 57.5449 143.949 57.6827C143.945 57.8205 143.931 57.9376 143.908 58.0341C143.84 58.3236 143.724 58.5787 143.561 58.7994C143.399 59.0114 143.192 59.1847 142.938 59.3192C142.686 59.4449 142.39 59.5231 142.049 59.5538C141.71 59.5757 141.331 59.5369 140.909 59.4375C140.488 59.3381 140.081 59.1816 139.687 58.9682C139.303 58.748 138.973 58.443 138.694 58.0531L139.562 57.4384Z" fill="#46474E" style="fill:#46474E;fill:color(display-p3 0.2745 0.2784 0.3059);fill-opacity:1;"/>
<path d="M150.242 62.1635L151.22 59.4835L148.222 58.3904L147.245 61.0704L146.153 60.6721L148.445 54.3848L149.538 54.7832L148.584 57.3997L151.581 58.4928L152.535 55.8763L153.64 56.2793L151.347 62.5665L150.242 62.1635Z" fill="#46474E" style="fill:#46474E;fill:color(display-p3 0.2745 0.2784 0.3059);fill-opacity:1;"/>
<path d="M156.015 61.3746L155.814 61.7729C155.692 62.0143 155.628 62.2398 155.624 62.4493C155.623 62.6509 155.662 62.8425 155.742 63.0242C155.834 63.2019 155.957 63.3596 156.109 63.4972C156.27 63.6389 156.447 63.7585 156.64 63.856C156.841 63.9576 157.095 64.0351 157.401 64.0887C157.707 64.1423 158.044 64.1154 158.411 64.008L158.703 65.0491C158.239 65.2085 157.787 65.2531 157.348 65.1829C156.921 65.1087 156.519 64.9761 156.141 64.7852C155.803 64.6146 155.503 64.4079 155.242 64.165C154.985 63.9141 154.785 63.6412 154.641 63.3464C154.509 63.0476 154.443 62.7269 154.445 62.3843C154.454 62.0458 154.55 61.6955 154.733 61.3334L155.531 59.7524C155.71 59.3983 155.933 59.107 156.2 58.8782C156.467 58.6495 156.755 58.4874 157.066 58.3919C157.385 58.3004 157.716 58.2755 158.058 58.3171C158.413 58.3547 158.767 58.4629 159.121 58.6417C159.475 58.8204 159.774 59.0372 160.019 59.2921C160.264 59.547 160.442 59.8238 160.554 60.1225C160.674 60.4253 160.719 60.7459 160.69 61.0844C160.672 61.4189 160.576 61.7591 160.401 62.1051L159.804 63.2878L156.015 61.3746ZM159.297 61.6836C159.422 61.4342 159.494 61.2027 159.511 60.9891C159.528 60.7755 159.5 60.5799 159.428 60.4023C159.369 60.2207 159.267 60.0631 159.122 59.9295C158.989 59.7919 158.831 59.6765 158.646 59.583C158.461 59.4896 158.273 59.4304 158.084 59.4055C157.895 59.3806 157.707 59.392 157.522 59.4396C157.336 59.4873 157.162 59.5813 157.001 59.7218C156.843 59.8542 156.705 60.037 156.587 60.2704L156.453 60.5359L159.181 61.9129L159.297 61.6836Z" fill="#46474E" style="fill:#46474E;fill:color(display-p3 0.2745 0.2784 0.3059);fill-opacity:1;"/>
<path d="M164.505 69.5643L166.081 67.1865L163.422 65.4238L161.846 67.8016L160.877 67.1593L164.574 61.581L165.543 62.2233L164.004 64.5448L166.664 66.3075L168.203 63.986L169.183 64.6358L165.486 70.2141L164.505 69.5643Z" fill="#46474E" style="fill:#46474E;fill:color(display-p3 0.2745 0.2784 0.3059);fill-opacity:1;"/>
<path d="M170.883 74.4683L172.727 72.2922L170.293 70.2291L168.449 72.4052L167.562 71.6534L171.889 66.5483L172.776 67.3001L170.975 69.4247L173.409 71.4877L175.21 69.3632L176.107 70.1237L171.78 75.2288L170.883 74.4683Z" fill="#46474E" style="fill:#46474E;fill:color(display-p3 0.2745 0.2784 0.3059);fill-opacity:1;"/>
<path d="M179.156 79.3219C178.872 79.5861 178.566 79.7665 178.237 79.8632C177.921 79.9604 177.599 79.984 177.269 79.934C176.945 79.8906 176.63 79.7838 176.324 79.6135C176.017 79.4431 175.735 79.2195 175.477 78.9424C175.213 78.6588 175.007 78.3581 174.858 78.0404C174.71 77.7226 174.626 77.4008 174.606 77.0748C174.592 76.7555 174.644 76.4417 174.764 76.1334C174.89 75.819 175.094 75.5298 175.378 75.2656L176.803 73.9388C177.086 73.6746 177.386 73.494 177.702 73.3968C178.031 73.3 178.354 73.2701 178.671 73.3069C179.002 73.3441 179.32 73.4479 179.626 73.6182C179.946 73.789 180.234 74.0129 180.492 74.2899C180.769 74.5867 180.978 74.8971 181.119 75.221C181.273 75.5453 181.354 75.8702 181.362 76.1957C181.382 76.5217 181.326 76.8386 181.194 77.1464C181.069 77.448 180.864 77.7309 180.58 77.9951L179.156 79.3219ZM179.649 77.2923C179.86 77.0958 180.004 76.8936 180.082 76.6859C180.166 76.4721 180.199 76.2628 180.181 76.0581C180.169 75.86 180.118 75.6732 180.028 75.4979C179.939 75.3225 179.833 75.1689 179.71 75.0369C179.581 74.8984 179.432 74.7784 179.264 74.6767C179.095 74.5751 178.909 74.5079 178.706 74.4752C178.51 74.449 178.302 74.4703 178.082 74.5391C177.87 74.6017 177.658 74.7312 177.447 74.9278L176.339 75.9598C176.128 76.1564 175.974 76.355 175.877 76.5556C175.794 76.7567 175.755 76.953 175.761 77.1446C175.767 77.3361 175.818 77.5228 175.913 77.7048C176.009 77.8868 176.133 78.0602 176.287 78.2251C176.41 78.357 176.555 78.4738 176.724 78.5754C176.893 78.6771 177.075 78.741 177.272 78.7671C177.475 78.7998 177.683 78.7849 177.895 78.7223C178.115 78.6536 178.33 78.5209 178.541 78.3243L179.649 77.2923Z" fill="#46474E" style="fill:#46474E;fill:color(display-p3 0.2745 0.2784 0.3059);fill-opacity:1;"/>
<path d="M187.803 78.7417C187.736 78.8022 187.676 78.8799 187.622 78.9749C187.569 79.0698 187.53 79.1766 187.505 79.2953C187.488 79.4087 187.492 79.5286 187.517 79.6551C187.543 79.7816 187.598 79.903 187.683 80.0193C187.779 80.1502 187.884 80.247 187.996 80.3096C188.115 80.3794 188.23 80.4231 188.344 80.4406C188.464 80.4528 188.575 80.4442 188.677 80.4147C188.783 80.3925 188.873 80.3547 188.946 80.3015L189.513 81.0759C189.357 81.1679 189.176 81.2497 188.972 81.3212C188.775 81.3875 188.562 81.4094 188.333 81.3869C188.11 81.3718 187.879 81.3006 187.64 81.1735C187.407 81.0537 187.182 80.8447 186.963 80.5465C186.745 80.2484 186.609 79.9629 186.554 79.6901C186.505 79.4245 186.504 79.1793 186.552 78.9545C186.605 78.737 186.69 78.5406 186.807 78.3652C186.937 78.1918 187.075 78.0519 187.22 77.9454L187.803 78.7417ZM181.346 82.7159L183.17 82.6205L187.15 82.4713L187.797 83.3548L182.397 87.3087L181.694 86.3488L185.599 83.4892L185.559 83.4347L183.706 83.5352L179.745 83.6873L179.114 82.8256L184.514 78.8717L185.209 79.8207L181.315 82.6723L181.346 82.7159Z" fill="#46474E" style="fill:#46474E;fill:color(display-p3 0.2745 0.2784 0.3059);fill-opacity:1;"/>
<path d="M193.831 96.2343L188.606 98.4216L188.152 97.3366L194.338 94.7474L196.18 99.1497L195.22 99.5517L193.831 96.2343Z" fill="#46474E" style="fill:#46474E;fill:color(display-p3 0.2745 0.2784 0.3059);fill-opacity:1;"/>
<path d="M192.695 108.042C192.263 107.613 191.957 107.246 191.776 106.941C191.606 106.643 191.484 106.364 191.41 106.104C191.231 105.48 191.262 104.932 191.502 104.46C191.742 103.988 192.161 103.667 192.759 103.496C193.114 103.394 193.435 103.387 193.723 103.473C194.012 103.569 194.264 103.712 194.479 103.904C194.704 104.102 194.886 104.327 195.023 104.578C195.172 104.835 195.277 105.072 195.339 105.289L195.878 107.174L196.372 107.032C196.823 106.903 197.099 106.689 197.2 106.388C197.31 106.084 197.298 105.699 197.165 105.231C197.1 105.005 196.986 104.738 196.823 104.429C196.67 104.125 196.413 103.848 196.05 103.595L196.738 102.807C197.178 103.132 197.506 103.492 197.723 103.89C197.94 104.287 198.1 104.668 198.204 105.032C198.445 105.872 198.436 106.545 198.177 107.05C197.93 107.562 197.425 107.927 196.662 108.145L192.399 109.364L192.12 108.39L192.681 108.088L192.695 108.042ZM194.955 107.438L194.468 105.735C194.429 105.596 194.372 105.448 194.299 105.291C194.237 105.14 194.152 105.005 194.043 104.886C193.942 104.765 193.809 104.677 193.643 104.621C193.489 104.572 193.303 104.578 193.086 104.64C192.774 104.729 192.57 104.9 192.474 105.153C192.379 105.414 192.38 105.709 192.474 106.038C192.521 106.203 192.591 106.366 192.684 106.527C192.788 106.694 192.898 106.85 193.015 106.995C193.133 107.148 193.254 107.292 193.377 107.425C193.508 107.556 193.627 107.677 193.734 107.787L194.955 107.438Z" fill="#46474E" style="fill:#46474E;fill:color(display-p3 0.2745 0.2784 0.3059);fill-opacity:1;"/>
<path d="M199.753 111.542L199.081 111.788C199.477 112.262 199.75 112.647 199.898 112.942C200.048 113.247 200.142 113.519 200.181 113.759C200.286 114.409 200.181 114.969 199.865 115.441C199.55 115.921 198.988 116.227 198.178 116.358L196.15 116.687C195.394 116.81 194.777 116.695 194.3 116.343C193.824 116 193.528 115.469 193.411 114.748C193.372 114.508 193.353 114.223 193.355 113.894C193.347 113.567 193.396 113.166 193.502 112.692L190.526 113.175L190.342 112.041L199.59 110.541L199.753 111.542ZM194.583 112.517C194.481 112.954 194.426 113.319 194.418 113.612C194.411 113.906 194.43 114.19 194.475 114.466C194.504 114.644 194.548 114.806 194.608 114.951C194.679 115.104 194.772 115.23 194.889 115.33C195.014 115.428 195.167 115.495 195.346 115.53C195.535 115.572 195.759 115.572 196.017 115.531L197.912 115.223C198.419 115.141 198.749 114.978 198.901 114.734C199.062 114.489 199.114 114.188 199.056 113.832C199.036 113.708 198.99 113.565 198.918 113.403C198.846 113.241 198.759 113.072 198.658 112.897C198.558 112.731 198.444 112.566 198.318 112.404C198.2 112.241 198.08 112.096 197.96 111.969L194.583 112.517Z" fill="#46474E" style="fill:#46474E;fill:color(display-p3 0.2745 0.2784 0.3059);fill-opacity:1;"/>
<path d="M195.071 124.093C194.751 123.574 194.538 123.146 194.434 122.807C194.338 122.478 194.285 122.178 194.273 121.908C194.245 121.259 194.403 120.734 194.747 120.331C195.09 119.928 195.573 119.714 196.194 119.687C196.563 119.671 196.877 119.739 197.136 119.89C197.396 120.05 197.607 120.249 197.771 120.485C197.944 120.73 198.068 120.991 198.143 121.268C198.227 121.553 198.274 121.808 198.284 122.033L198.368 123.991L198.882 123.969C199.35 123.949 199.668 123.805 199.837 123.536C200.015 123.266 200.094 122.889 200.073 122.402C200.063 122.168 200.014 121.882 199.927 121.543C199.85 121.212 199.664 120.882 199.371 120.552L200.224 119.947C200.576 120.365 200.811 120.792 200.929 121.229C201.047 121.666 201.114 122.073 201.13 122.452C201.168 123.325 201.002 123.977 200.633 124.408C200.273 124.848 199.696 125.084 198.904 125.119L194.474 125.309L194.43 124.296L195.046 124.134L195.071 124.093ZM197.409 124.033L197.333 122.263C197.327 122.119 197.307 121.962 197.272 121.792C197.247 121.631 197.196 121.48 197.118 121.339C197.048 121.197 196.939 121.08 196.791 120.987C196.652 120.903 196.47 120.866 196.245 120.876C195.921 120.89 195.682 121.008 195.53 121.231C195.377 121.463 195.308 121.75 195.323 122.093C195.33 122.264 195.361 122.438 195.413 122.616C195.475 122.803 195.546 122.981 195.626 123.149C195.705 123.326 195.789 123.493 195.877 123.652C195.974 123.81 196.062 123.955 196.14 124.087L197.409 124.033Z" fill="#46474E" style="fill:#46474E;fill:color(display-p3 0.2745 0.2784 0.3059);fill-opacity:1;"/>
<path d="M194.193 131.976L197.038 132.189L197.276 129.008L194.431 128.794L194.518 127.635L201.192 128.135L201.105 129.295L198.328 129.086L198.089 132.268L200.866 132.476L200.779 133.649L194.105 133.149L194.193 131.976Z" fill="#46474E" style="fill:#46474E;fill:color(display-p3 0.2745 0.2784 0.3059);fill-opacity:1;"/>
<path d="M198.835 139.785L193.275 138.701L193.506 137.52L199.066 138.604L199.462 136.574L200.483 136.773L199.458 142.028L198.437 141.829L198.835 139.785Z" fill="#46474E" style="fill:#46474E;fill:color(display-p3 0.2745 0.2784 0.3059);fill-opacity:1;"/>
<path d="M193.677 145.295L194.826 146.714L197.286 149.846L196.951 150.888L190.579 148.844L190.942 147.711L195.551 149.19L195.572 149.125L194.401 147.685L191.95 144.57L192.276 143.553L198.649 145.597L198.289 146.717L193.694 145.243L193.677 145.295Z" fill="#46474E" style="fill:#46474E;fill:color(display-p3 0.2745 0.2784 0.3059);fill-opacity:1;"/>
<path d="M191.958 153.441L191.552 153.256C191.306 153.143 191.078 153.089 190.869 153.092C190.667 153.099 190.477 153.146 190.299 153.233C190.125 153.332 189.972 153.461 189.841 153.619C189.705 153.785 189.593 153.966 189.503 154.163C189.409 154.368 189.342 154.625 189.3 154.933C189.259 155.241 189.299 155.576 189.421 155.939L188.392 156.272C188.214 155.814 188.152 155.365 188.205 154.923C188.262 154.493 188.379 154.086 188.555 153.701C188.712 153.356 188.907 153.049 189.139 152.778C189.38 152.512 189.645 152.301 189.934 152.145C190.227 152.002 190.545 151.924 190.887 151.912C191.226 151.908 191.58 151.99 191.949 152.159L193.56 152.894C193.921 153.059 194.221 153.27 194.46 153.528C194.699 153.785 194.872 154.068 194.98 154.374C195.084 154.689 195.121 155.019 195.093 155.362C195.07 155.718 194.975 156.077 194.811 156.437C194.646 156.798 194.441 157.106 194.196 157.361C193.951 157.615 193.681 157.804 193.387 157.928C193.09 158.059 192.771 158.117 192.432 158.101C192.097 158.096 191.753 158.014 191.4 157.853L190.195 157.303L191.958 153.441ZM191.778 156.732C192.032 156.848 192.266 156.911 192.48 156.919C192.694 156.928 192.889 156.893 193.064 156.814C193.243 156.747 193.396 156.639 193.524 156.489C193.656 156.351 193.765 156.188 193.851 155.999C193.937 155.811 193.989 155.621 194.007 155.431C194.024 155.241 194.005 155.054 193.951 154.871C193.896 154.687 193.795 154.517 193.648 154.361C193.51 154.209 193.321 154.078 193.084 153.97L192.813 153.846L191.544 156.626L191.778 156.732Z" fill="#46474E" style="fill:#46474E;fill:color(display-p3 0.2745 0.2784 0.3059);fill-opacity:1;"/>
<path d="M193.472 164.983C193.39 164.943 193.295 164.917 193.187 164.904C193.079 164.891 192.965 164.896 192.846 164.919C192.735 164.946 192.625 164.996 192.518 165.068C192.411 165.14 192.32 165.237 192.245 165.361C192.161 165.499 192.112 165.633 192.097 165.761C192.078 165.897 192.082 166.02 192.109 166.132C192.144 166.248 192.194 166.347 192.26 166.43C192.321 166.52 192.391 166.588 192.468 166.635L191.969 167.455C191.824 167.346 191.68 167.211 191.536 167.049C191.399 166.892 191.297 166.704 191.23 166.484C191.159 166.272 191.136 166.031 191.163 165.763C191.184 165.501 191.291 165.213 191.483 164.897C191.675 164.581 191.886 164.346 192.117 164.191C192.344 164.044 192.57 163.95 192.796 163.908C193.017 163.873 193.231 163.877 193.438 163.918C193.648 163.972 193.83 164.045 193.984 164.139L193.472 164.983ZM187.329 160.538L188.115 162.186L189.776 165.806L189.207 166.742L183.488 163.266L184.106 162.25L188.242 164.763L188.277 164.705L187.475 163.031L185.819 159.43L186.373 158.518L192.093 161.993L191.482 162.998L187.357 160.492L187.329 160.538Z" fill="#46474E" style="fill:#46474E;fill:color(display-p3 0.2745 0.2784 0.3059);fill-opacity:1;"/>
<path d="M176.888 171.942L181.648 176.666L180.838 177.481L178.814 175.472L178.014 176.278C177.925 176.367 177.839 176.46 177.757 176.556C177.68 176.658 177.627 176.77 177.595 176.891C177.564 177.012 177.558 177.146 177.578 177.293C177.597 177.452 177.659 177.633 177.761 177.837L178.676 179.66L177.838 180.504L176.923 178.662C176.769 178.357 176.666 178.071 176.614 177.803C176.562 177.548 176.599 177.306 176.726 177.076C176.459 177.243 176.188 177.292 175.914 177.223C175.646 177.16 175.356 177.049 175.043 176.891L172.993 175.866L173.85 175.003L175.574 175.895C175.779 175.996 175.957 176.059 176.11 176.084C176.264 176.122 176.401 176.125 176.522 176.092C176.649 176.066 176.763 176.015 176.865 175.938C176.973 175.867 177.081 175.778 177.189 175.669L178.094 174.757L176.079 172.757L176.888 171.942Z" fill="#46474E" style="fill:#46474E;fill:color(display-p3 0.2745 0.2784 0.3059);fill-opacity:1;"/>
<path d="M168.578 182.661C168.337 182.358 168.181 182.039 168.11 181.703C168.038 181.381 168.04 181.057 168.116 180.732C168.184 180.413 168.316 180.107 168.51 179.815C168.703 179.523 168.949 179.259 169.245 179.024C169.548 178.783 169.864 178.601 170.193 178.478C170.521 178.355 170.849 178.296 171.175 178.302C171.495 178.313 171.803 178.39 172.101 178.533C172.405 178.683 172.677 178.91 172.918 179.214L174.129 180.738C174.37 181.041 174.527 181.354 174.599 181.677C174.67 182.012 174.674 182.337 174.612 182.65C174.549 182.977 174.421 183.286 174.227 183.578C174.032 183.883 173.786 184.153 173.49 184.388C173.172 184.641 172.846 184.825 172.512 184.94C172.177 185.069 171.846 185.124 171.521 185.106C171.195 185.101 170.883 185.02 170.587 184.864C170.296 184.715 170.03 184.489 169.789 184.186L168.578 182.661ZM170.563 183.312C170.742 183.538 170.932 183.698 171.133 183.791C171.34 183.892 171.546 183.941 171.751 183.939C171.95 183.943 172.14 183.907 172.322 183.831C172.504 183.756 172.665 183.662 172.806 183.55C172.954 183.432 173.086 183.293 173.2 183.133C173.315 182.973 173.396 182.793 173.445 182.594C173.487 182.4 173.482 182.19 173.43 181.966C173.385 181.75 173.272 181.528 173.093 181.302L172.151 180.117C171.971 179.891 171.785 179.722 171.593 179.61C171.399 179.511 171.206 179.457 171.015 179.448C170.824 179.439 170.633 179.475 170.445 179.556C170.256 179.637 170.073 179.747 169.897 179.887C169.755 179.999 169.628 180.136 169.513 180.296C169.398 180.456 169.32 180.633 169.279 180.827C169.23 181.027 169.229 181.235 169.275 181.452C169.326 181.676 169.441 181.901 169.621 182.127L170.563 183.312Z" fill="#46474E" style="fill:#46474E;fill:color(display-p3 0.2745 0.2784 0.3059);fill-opacity:1;"/>
<path d="M167.739 188.575L167.255 188.048C166.968 188.596 166.717 188.995 166.501 189.245C166.277 189.5 166.061 189.692 165.854 189.82C165.294 190.166 164.736 190.283 164.18 190.171C163.616 190.064 163.118 189.662 162.687 188.964L161.607 187.216C161.204 186.564 161.074 185.95 161.216 185.375C161.351 184.804 161.729 184.327 162.35 183.943C162.557 183.815 162.813 183.689 163.117 183.565C163.417 183.432 163.806 183.325 164.284 183.241L162.699 180.676L163.677 180.072L168.602 188.042L167.739 188.575ZM164.86 184.173C164.417 184.245 164.059 184.334 163.785 184.439C163.511 184.545 163.255 184.671 163.018 184.818C162.864 184.913 162.732 185.016 162.621 185.127C162.506 185.251 162.425 185.385 162.378 185.531C162.335 185.685 162.332 185.851 162.368 186.03C162.402 186.221 162.487 186.428 162.624 186.65L163.634 188.284C163.904 188.721 164.18 188.963 164.464 189.01C164.752 189.065 165.05 188.998 165.356 188.808C165.464 188.742 165.578 188.645 165.7 188.516C165.822 188.388 165.945 188.243 166.068 188.082C166.183 187.926 166.292 187.759 166.393 187.58C166.499 187.408 166.587 187.242 166.658 187.082L164.86 184.173Z" fill="#46474E" style="fill:#46474E;fill:color(display-p3 0.2745 0.2784 0.3059);fill-opacity:1;"/>
<path d="M160.107 193.035L159.688 192.454C159.339 192.965 159.042 193.331 158.798 193.554C158.546 193.781 158.309 193.946 158.089 194.049C157.492 194.326 156.924 194.377 156.385 194.201C155.837 194.028 155.39 193.57 155.044 192.827L154.177 190.964C153.853 190.269 153.796 189.644 154.005 189.09C154.206 188.539 154.637 188.109 155.299 187.801C155.52 187.699 155.789 187.603 156.106 187.515C156.419 187.419 156.818 187.358 157.302 187.331L156.03 184.598L157.072 184.113L161.026 192.607L160.107 193.035ZM157.765 188.324C157.316 188.344 156.95 188.39 156.666 188.462C156.382 188.535 156.113 188.631 155.86 188.748C155.696 188.825 155.553 188.911 155.429 189.009C155.301 189.118 155.205 189.242 155.14 189.382C155.08 189.529 155.057 189.694 155.072 189.876C155.083 190.07 155.143 190.285 155.254 190.522L156.064 192.262C156.281 192.728 156.527 193.001 156.803 193.081C157.083 193.17 157.386 193.138 157.713 192.986C157.827 192.933 157.953 192.849 158.089 192.736C158.225 192.623 158.364 192.494 158.505 192.349C158.638 192.207 158.765 192.054 158.887 191.888C159.012 191.73 159.119 191.575 159.208 191.425L157.765 188.324Z" fill="#46474E" style="fill:#46474E;fill:color(display-p3 0.2745 0.2784 0.3059);fill-opacity:1;"/>
<path d="M150.727 193.024L150.588 192.6C150.503 192.343 150.389 192.139 150.244 191.987C150.102 191.844 149.939 191.737 149.754 191.665C149.563 191.604 149.365 191.579 149.16 191.59C148.946 191.603 148.736 191.644 148.531 191.711C148.317 191.782 148.082 191.906 147.828 192.085C147.574 192.263 147.355 192.521 147.171 192.856L146.228 192.327C146.444 191.886 146.731 191.535 147.092 191.274C147.446 191.025 147.824 190.834 148.227 190.701C148.586 190.583 148.944 190.517 149.301 190.504C149.66 190.5 149.994 190.551 150.305 190.658C150.609 190.776 150.882 190.957 151.124 191.2C151.356 191.446 151.536 191.761 151.663 192.147L152.216 193.829C152.34 194.206 152.389 194.569 152.362 194.92C152.335 195.27 152.245 195.589 152.093 195.876C151.932 196.167 151.716 196.418 151.445 196.631C151.167 196.855 150.84 197.029 150.464 197.153C150.087 197.277 149.722 197.335 149.368 197.328C149.015 197.321 148.693 197.251 148.403 197.119C148.104 196.99 147.846 196.795 147.627 196.535C147.403 196.286 147.23 195.977 147.109 195.609L146.695 194.351L150.727 193.024ZM148.188 195.126C148.276 195.391 148.389 195.606 148.528 195.769C148.667 195.932 148.825 196.051 149.001 196.125C149.172 196.212 149.355 196.251 149.552 196.243C149.743 196.247 149.937 196.216 150.134 196.151C150.331 196.086 150.505 195.996 150.657 195.879C150.808 195.763 150.933 195.623 151.03 195.458C151.128 195.293 151.184 195.103 151.199 194.89C151.217 194.685 151.185 194.458 151.103 194.21L151.01 193.927L148.108 194.882L148.188 195.126Z" fill="#46474E" style="fill:#46474E;fill:color(display-p3 0.2745 0.2784 0.3059);fill-opacity:1;"/>
<path d="M142.858 192.432L144.191 199.004L143.065 199.232L142.498 196.437L141.385 196.662C141.261 196.687 141.138 196.717 141.016 196.751C140.896 196.794 140.79 196.857 140.696 196.94C140.603 197.023 140.523 197.131 140.458 197.264C140.386 197.407 140.336 197.592 140.309 197.819L140.057 199.842L138.891 200.079L139.153 198.039C139.195 197.7 139.268 197.404 139.374 197.153C139.472 196.912 139.638 196.732 139.871 196.611C139.556 196.601 139.304 196.491 139.114 196.281C138.926 196.08 138.746 195.827 138.574 195.522L137.439 193.531L138.631 193.289L139.569 194.989C139.683 195.187 139.797 195.338 139.91 195.444C140.016 195.56 140.129 195.639 140.247 195.679C140.368 195.728 140.491 195.749 140.619 195.742C140.748 195.743 140.887 195.729 141.038 195.698L142.296 195.443L141.732 192.66L142.858 192.432Z" fill="#46474E" style="fill:#46474E;fill:color(display-p3 0.2745 0.2784 0.3059);fill-opacity:1;"/>
<path d="M132.676 199.812L132.211 194.166L133.41 194.067L133.875 199.713L135.937 199.543L136.022 200.58L130.687 201.02L130.601 199.983L132.676 199.812Z" fill="#46474E" style="fill:#46474E;fill:color(display-p3 0.2745 0.2784 0.3059);fill-opacity:1;"/>
<path d="M122.906 194.371L122.804 197.222L125.993 197.335L126.094 194.484L127.256 194.525L127.019 201.213L125.857 201.172L125.956 198.389L122.767 198.275L122.668 201.059L121.493 201.017L121.73 194.329L122.906 194.371Z" fill="#46474E" style="fill:#46474E;fill:color(display-p3 0.2745 0.2784 0.3059);fill-opacity:1;"/>
<path d="M113.403 195.682C113.462 195.299 113.591 194.967 113.789 194.688C113.977 194.416 114.216 194.198 114.506 194.033C114.787 193.866 115.1 193.755 115.446 193.699C115.793 193.643 116.153 193.644 116.527 193.702C116.91 193.761 117.258 193.87 117.571 194.028C117.884 194.185 118.149 194.386 118.367 194.629C118.576 194.871 118.729 195.15 118.826 195.466C118.922 195.791 118.94 196.145 118.881 196.528L118.583 198.452C118.524 198.835 118.401 199.163 118.213 199.435C118.014 199.714 117.779 199.938 117.507 200.105C117.225 200.281 116.91 200.396 116.564 200.452C116.208 200.516 115.843 200.518 115.468 200.461C115.068 200.399 114.711 200.284 114.4 200.118C114.078 199.958 113.813 199.753 113.606 199.502C113.388 199.259 113.236 198.975 113.149 198.652C113.061 198.337 113.046 197.989 113.105 197.606L113.403 195.682ZM114.272 197.581C114.228 197.866 114.24 198.114 114.307 198.325C114.374 198.545 114.477 198.73 114.618 198.879C114.751 199.027 114.906 199.142 115.085 199.225C115.264 199.307 115.442 199.362 115.62 199.39C115.807 199.419 115.999 199.421 116.194 199.396C116.389 199.372 116.577 199.31 116.756 199.21C116.927 199.108 117.077 198.963 117.207 198.773C117.335 198.592 117.421 198.359 117.465 198.074L117.697 196.578C117.741 196.293 117.738 196.042 117.69 195.824C117.631 195.615 117.54 195.436 117.417 195.29C117.294 195.143 117.138 195.028 116.95 194.944C116.763 194.86 116.558 194.801 116.335 194.767C116.157 194.739 115.97 194.738 115.775 194.762C115.579 194.787 115.396 194.85 115.226 194.951C115.046 195.051 114.892 195.191 114.764 195.372C114.634 195.562 114.547 195.799 114.503 196.084L114.272 197.581Z" fill="#46474E" style="fill:#46474E;fill:color(display-p3 0.2745 0.2784 0.3059);fill-opacity:1;"/>
<path d="M106.964 201.499C106.98 201.409 106.979 201.311 106.962 201.203C106.945 201.096 106.91 200.988 106.856 200.879C106.8 200.779 106.722 200.688 106.624 200.604C106.525 200.521 106.407 200.46 106.268 200.421C106.111 200.378 105.97 200.366 105.842 200.387C105.706 200.405 105.588 200.443 105.488 200.499C105.386 200.564 105.304 200.64 105.243 200.725C105.173 200.809 105.126 200.894 105.102 200.981L104.177 200.724C104.243 200.555 104.334 200.379 104.45 200.196C104.564 200.022 104.717 199.873 104.911 199.749C105.096 199.623 105.321 199.536 105.587 199.488C105.844 199.438 106.151 199.462 106.507 199.561C106.863 199.66 107.147 199.8 107.358 199.98C107.561 200.159 107.714 200.351 107.816 200.557C107.909 200.76 107.963 200.967 107.98 201.178C107.985 201.394 107.964 201.589 107.915 201.763L106.964 201.499ZM109.575 194.38L108.202 195.584L105.169 198.165L104.114 197.872L105.906 191.424L107.053 191.743L105.756 196.406L105.821 196.424L107.215 195.198L110.231 192.626L111.26 192.912L109.467 199.36L108.334 199.045L109.627 194.395L109.575 194.38Z" fill="#46474E" style="fill:#46474E;fill:color(display-p3 0.2745 0.2784 0.3059);fill-opacity:1;"/>
<path d="M91.9413 192.956L92.1643 192.276C91.5463 192.294 91.0753 192.269 90.7514 192.203C90.4195 192.132 90.1473 192.038 89.9345 191.92C89.3592 191.6 88.9844 191.171 88.81 190.631C88.6277 190.086 88.7356 189.455 89.1337 188.738L90.1311 186.941C90.503 186.272 90.9747 185.858 91.5463 185.701C92.11 185.54 92.711 185.637 93.3493 185.991C93.5621 186.109 93.7972 186.271 94.0547 186.475C94.3165 186.672 94.6007 186.959 94.9072 187.335L96.3705 184.699L97.3752 185.257L92.8279 193.449L91.9413 192.956ZM94.3757 188.293C94.0963 187.942 93.8436 187.673 93.6177 187.485C93.3918 187.298 93.1567 187.137 92.9124 187.001C92.7548 186.913 92.6002 186.848 92.4488 186.805C92.2851 186.766 92.1279 186.761 91.9774 186.791C91.8224 186.829 91.6758 186.907 91.5375 187.026C91.387 187.149 91.2483 187.325 91.1214 187.553L90.1897 189.232C89.9403 189.681 89.8643 190.041 89.9615 190.311C90.0544 190.589 90.2585 190.816 90.5737 190.991C90.684 191.052 90.825 191.105 90.9966 191.149C91.1682 191.192 91.3542 191.228 91.5547 191.257C91.7473 191.282 91.9465 191.294 92.1522 191.295C92.3535 191.304 92.5413 191.3 92.7155 191.283L94.3757 188.293Z" fill="#46474E" style="fill:#46474E;fill:color(display-p3 0.2745 0.2784 0.3059);fill-opacity:1;"/>
<path d="M84.9875 181.507C85.5929 181.577 86.0608 181.675 86.3913 181.802C86.7093 181.932 86.9779 182.075 87.1973 182.233C87.7237 182.613 88.0387 183.062 88.1423 183.581C88.2458 184.1 88.1158 184.612 87.7521 185.117C87.536 185.416 87.2884 185.621 87.0092 185.731C86.7227 185.836 86.436 185.879 86.149 185.861C85.8494 185.845 85.5678 185.781 85.3042 185.669C85.0281 185.558 84.7987 185.437 84.6159 185.306L83.0256 184.159L82.7252 184.576C82.4511 184.956 82.3674 185.296 82.474 185.595C82.5754 185.901 82.8235 186.197 83.2183 186.482C83.4084 186.619 83.6634 186.758 83.9834 186.9C84.2908 187.044 84.6652 187.102 85.1064 187.076L85.0531 188.121C84.5072 188.138 84.0261 188.058 83.6098 187.88C83.1936 187.703 82.8319 187.503 82.5249 187.282C81.8156 186.77 81.4062 186.236 81.2965 185.68C81.1742 185.125 81.345 184.526 81.8088 183.882L84.4019 180.285L85.2245 180.878L84.9705 181.461L84.9875 181.507ZM83.5869 183.381L85.0236 184.416C85.1406 184.501 85.2765 184.582 85.4312 184.66C85.5734 184.74 85.724 184.793 85.8832 184.819C86.037 184.852 86.1963 184.84 86.3611 184.781C86.5133 184.724 86.6552 184.604 86.787 184.421C86.9768 184.158 87.0313 183.897 86.9507 183.639C86.8628 183.376 86.6799 183.144 86.4021 182.943C86.2632 182.843 86.1074 182.759 85.9348 182.69C85.7497 182.623 85.5665 182.569 85.3855 182.527C85.1971 182.48 85.0134 182.442 84.8343 182.413C84.65 182.392 84.4819 182.37 84.3301 182.35L83.5869 183.381Z" fill="#46474E" style="fill:#46474E;fill:color(display-p3 0.2745 0.2784 0.3059);fill-opacity:1;"/>
<path d="M77.7033 182.291C77.5378 182.299 77.3711 182.28 77.2034 182.236C77.0356 182.193 76.8801 182.135 76.7367 182.065C76.5873 182.001 76.4566 181.93 76.3448 181.852C76.2264 181.768 76.1306 181.692 76.0576 181.625C75.4333 181.053 75.108 180.461 75.0816 179.849C75.0487 179.232 75.2942 178.638 75.8182 178.067L76.8419 176.951C77.1039 176.665 77.398 176.458 77.7242 176.329C78.0376 176.201 78.3638 176.145 78.7026 176.163C79.0348 176.174 79.3634 176.249 79.6883 176.388C80.0072 176.534 80.3061 176.735 80.585 176.991C81.2226 177.576 81.5714 178.195 81.6315 178.85C81.6915 179.504 81.4565 180.12 80.9264 180.698L79.6285 182.113C79.3665 182.398 79.0882 182.675 78.7935 182.943C78.4861 183.211 78.1674 183.439 77.8373 183.625C77.5011 183.818 77.1467 183.958 76.7741 184.044C76.4014 184.13 76.0124 184.134 75.6072 184.056C75.2728 183.994 74.9337 183.897 74.5899 183.765C74.2462 183.633 73.9154 183.507 73.5976 183.387C73.4875 183.347 73.3967 183.312 73.3253 183.284C73.2411 183.255 73.157 183.227 73.0728 183.199C72.9887 183.171 72.8982 183.143 72.8013 183.115C72.6978 183.081 72.5716 183.039 72.4226 182.988L72.7719 181.987C73.0504 182.083 73.2737 182.16 73.442 182.216C73.6042 182.28 73.7437 182.334 73.8605 182.38C73.9707 182.42 74.0712 182.457 74.162 182.492C74.2466 182.533 74.3504 182.573 74.4733 182.612C74.862 182.749 75.1949 182.852 75.4723 182.923C75.7497 182.994 76.0093 183.025 76.2513 183.014C76.4932 183.004 76.7266 182.943 76.9515 182.831C77.1702 182.726 77.4153 182.565 77.6867 182.35L77.7033 182.291ZM76.8021 178.694C76.4061 179.126 76.2351 179.525 76.2892 179.893C76.3433 180.261 76.553 180.612 76.9183 180.947C77.0577 181.075 77.2185 181.18 77.4006 181.261C77.5828 181.343 77.7793 181.389 77.9902 181.399C78.1885 181.409 78.3942 181.372 78.6074 181.286C78.8206 181.2 79.0247 181.051 79.2196 180.839L79.96 180.032C80.155 179.819 80.2926 179.609 80.373 179.402C80.4407 179.195 80.464 178.996 80.443 178.805C80.4221 178.615 80.3568 178.433 80.2473 178.259C80.1377 178.085 79.9999 177.922 79.8339 177.769C79.6811 177.629 79.5167 177.515 79.3407 177.427C79.158 177.333 78.9709 177.283 78.7794 177.279C78.5811 177.268 78.3818 177.306 78.1813 177.391C77.9748 177.483 77.774 177.635 77.579 177.847L76.8021 178.694Z" fill="#46474E" style="fill:#46474E;fill:color(display-p3 0.2745 0.2784 0.3059);fill-opacity:1;"/>
<path d="M71.2555 170.765C71.5493 170.512 71.8623 170.344 72.1945 170.26C72.514 170.175 72.8376 170.164 73.1652 170.227C73.487 170.283 73.7976 170.402 74.0971 170.585C74.3966 170.767 74.6698 171.001 74.9168 171.288C75.1696 171.582 75.3637 171.891 75.4993 172.214C75.6348 172.537 75.7063 172.862 75.7138 173.189C75.7154 173.508 75.6505 173.82 75.5191 174.123C75.3809 174.432 75.1649 174.713 74.8712 174.966L73.3955 176.236C73.1017 176.489 72.7951 176.658 72.4756 176.742C72.1433 176.826 71.8193 176.843 71.5034 176.794C71.1749 176.744 70.8608 176.628 70.5613 176.445C70.2491 176.262 69.9695 176.027 69.7226 175.74C69.458 175.433 69.2614 175.115 69.1327 174.785C68.9913 174.455 68.9232 174.127 68.9284 173.802C68.9209 173.475 68.9892 173.161 69.1333 172.858C69.2706 172.562 69.4861 172.287 69.7799 172.034L71.2555 170.765ZM70.6832 172.773C70.4646 172.961 70.3124 173.158 70.2268 173.362C70.1343 173.573 70.0932 173.78 70.1034 173.986C70.1077 174.184 70.1511 174.373 70.2335 174.551C70.316 174.73 70.416 174.888 70.5336 175.025C70.6571 175.168 70.801 175.294 70.9655 175.402C71.1299 175.51 71.3129 175.585 71.5143 175.625C71.7099 175.659 71.9186 175.646 72.1404 175.586C72.3554 175.532 72.5722 175.411 72.7908 175.222L73.9386 174.235C74.1572 174.047 74.3186 173.854 74.4228 173.658C74.5143 173.46 74.5609 173.265 74.5624 173.074C74.564 172.882 74.5206 172.693 74.4323 172.508C74.3439 172.322 74.2263 172.144 74.0793 171.973C73.9617 171.837 73.8207 171.714 73.6563 171.606C73.4918 171.498 73.3118 171.427 73.1162 171.393C72.9147 171.352 72.7065 171.359 72.4915 171.413C72.2697 171.473 72.0495 171.597 71.8309 171.786L70.6832 172.773Z" fill="#46474E" style="fill:#46474E;fill:color(display-p3 0.2745 0.2784 0.3059);fill-opacity:1;"/>
<path d="M65.0023 167.858L69.7006 164.693L70.3729 165.691L65.6746 168.856L66.8302 170.572L65.9668 171.153L62.9758 166.713L63.8392 166.131L65.0023 167.858Z" fill="#46474E" style="fill:#46474E;fill:color(display-p3 0.2745 0.2784 0.3059);fill-opacity:1;"/>
<path d="M64.7535 156.235L58.802 159.296L58.2888 158.298L64.2403 155.237L64.7535 156.235ZM63.7424 158.792C63.518 158.908 63.3569 159.097 63.2591 159.36C63.1533 159.627 63.1993 159.953 63.3971 160.338L64.1947 161.889L66.0222 160.949L65.2246 159.398C65.0474 159.053 64.8352 158.828 64.5881 158.722C64.3289 158.612 64.047 158.635 63.7424 158.792ZM63.2868 162.341L62.4768 160.766C62.3037 160.429 62.1993 160.108 62.1636 159.802C62.1157 159.492 62.1287 159.211 62.2024 158.961C62.2721 158.702 62.3964 158.471 62.5755 158.267C62.7466 158.068 62.9604 157.902 63.2169 157.77C63.7699 157.486 64.3075 157.437 64.8297 157.625C65.3477 157.804 65.7798 158.231 66.126 158.904L67.4615 161.501L61.498 164.568L60.9663 163.534L63.2868 162.341Z" fill="#46474E" style="fill:#46474E;fill:color(display-p3 0.2745 0.2784 0.3059);fill-opacity:1;"/>
<path d="M127.711 103.354C127.34 103.42 126.842 103.386 126.184 103.141L123.869 102.275C123.629 102.187 123.209 102.262 123.021 102.426L121.141 104.04C120.032 104.996 119.251 104.832 118.879 104.652C118.514 104.472 117.901 103.952 117.981 102.492L118.095 100.253C118.111 100.019 117.931 99.6537 117.733 99.5155L115.686 98.0877C114.662 97.3738 114.6 96.6187 114.654 96.2332C114.708 95.8477 114.972 95.1359 116.141 94.718L118.309 93.9486C118.513 93.8762 118.774 93.5983 118.832 93.3929L119.631 90.6992C119.991 89.4715 120.696 89.1723 121.082 89.1036C121.467 89.035 122.232 89.0721 122.994 90.1001L124.666 92.3463C124.798 92.518 125.139 92.6885 125.355 92.6861L127.656 92.6592C128.904 92.6465 129.397 93.2236 129.574 93.5679C129.751 93.9122 129.954 94.6423 129.247 95.6644L127.82 97.7183C127.682 97.9164 127.644 98.3134 127.735 98.5358L128.615 100.598C129.187 101.942 128.798 102.64 128.518 102.935C128.366 103.092 128.111 103.282 127.711 103.354ZM123.237 101.202C123.58 101.141 123.938 101.164 124.24 101.276L126.556 102.143C127.23 102.399 127.616 102.33 127.744 102.199C127.872 102.067 127.911 101.677 127.635 101.018L126.754 98.9562C126.518 98.3985 126.601 97.6102 126.945 97.108L128.373 95.0612C128.655 94.6568 128.75 94.293 128.638 94.0744C128.52 93.8569 128.164 93.7252 127.674 93.733L125.373 93.7598C124.818 93.7649 124.152 93.4354 123.819 92.9887L122.147 90.7425C121.843 90.334 121.515 90.1178 121.27 90.1614C121.025 90.2051 120.792 90.5213 120.655 91.0083L119.854 93.6951C119.696 94.2291 119.185 94.7683 118.662 94.9555L116.501 95.7236C116.038 95.8855 115.749 96.1321 115.713 96.377C115.678 96.6219 115.9 96.9365 116.303 97.2116L118.35 98.6394C118.845 98.9848 119.197 99.7027 119.168 100.308L119.053 102.547C119.016 103.269 119.193 103.614 119.359 103.693C119.524 103.771 119.901 103.697 120.454 103.23L122.328 101.617C122.565 101.408 122.894 101.263 123.237 101.202Z" fill="#46474E" style="fill:#46474E;fill:color(display-p3 0.2745 0.2784 0.3059);fill-opacity:1;"/>
<path d="M143.888 100.638C143.579 100.693 143.164 100.664 142.616 100.461L140.686 99.7386C140.487 99.6658 140.136 99.7282 139.98 99.8644L138.413 101.21C137.489 102.007 136.838 101.87 136.528 101.72C136.224 101.57 135.713 101.137 135.78 99.9201L135.875 98.054C135.888 97.8589 135.738 97.5545 135.573 97.4393L133.867 96.2495C133.014 95.6546 132.962 95.0254 133.007 94.7041C133.053 94.3829 133.272 93.7896 134.246 93.4415L136.053 92.8003C136.223 92.7399 136.441 92.5084 136.489 92.3372L137.155 90.0924C137.454 89.0693 138.042 88.82 138.364 88.7628C138.685 88.7056 139.323 88.7365 139.957 89.5932L141.351 91.465C141.46 91.6081 141.745 91.7502 141.925 91.7482L143.842 91.7258C144.883 91.7152 145.293 92.1961 145.441 92.483C145.588 92.7699 145.757 93.3783 145.168 94.2301L143.979 95.9417C143.864 96.1067 143.833 96.4376 143.908 96.6229L144.642 98.3413C145.118 99.461 144.794 100.043 144.561 100.289C144.434 100.42 144.221 100.579 143.888 100.638ZM140.16 98.8446C140.446 98.7937 140.744 98.8128 140.996 98.9065L142.925 99.6288C143.487 99.8419 143.809 99.7847 143.916 99.6753C144.023 99.5659 144.055 99.2409 143.825 98.6916L143.091 96.9733C142.894 96.5085 142.963 95.8516 143.25 95.4331L144.44 93.7274C144.675 93.3904 144.754 93.0873 144.661 92.9051C144.562 92.7239 144.266 92.6141 143.857 92.6206L141.94 92.643C141.477 92.6471 140.922 92.3726 140.645 92.0003L139.251 90.1285C138.998 89.7881 138.725 89.6079 138.521 89.6443C138.316 89.6807 138.122 89.9441 138.008 90.35L137.341 92.589C137.209 93.034 136.783 93.4833 136.347 93.6393L134.546 94.2795C134.16 94.4144 133.92 94.6199 133.89 94.8239C133.86 95.028 134.045 95.2902 134.381 95.5194L136.087 96.7092C136.5 96.9971 136.793 97.5953 136.769 98.0996L136.673 99.9657C136.642 100.568 136.79 100.854 136.928 100.92C137.066 100.986 137.38 100.924 137.841 100.535L139.402 99.1904C139.6 99.0166 139.874 98.8956 140.16 98.8446Z" fill="#46474E" style="fill:#46474E;fill:color(display-p3 0.2745 0.2784 0.3059);fill-opacity:1;"/>
<path d="M110.259 106.624C109.95 106.679 109.535 106.651 108.987 106.447L107.057 105.725C106.858 105.652 106.508 105.714 106.351 105.851L104.784 107.196C103.86 107.993 103.209 107.856 102.899 107.706C102.595 107.556 102.085 107.123 102.151 105.906L102.246 104.04C102.26 103.845 102.109 103.541 101.944 103.426L100.238 102.236C99.3853 101.641 99.3334 101.012 99.3786 100.69C99.4237 100.369 99.6433 99.776 100.617 99.4278L102.424 98.7866C102.594 98.7262 102.812 98.4947 102.86 98.3236L103.526 96.0787C103.826 95.0556 104.414 94.8063 104.735 94.7491C105.056 94.6919 105.694 94.7228 106.328 95.5795L107.722 97.4514C107.831 97.5944 108.116 97.7365 108.296 97.7345L110.214 97.7121C111.254 97.7015 111.665 98.1824 111.812 98.4693C111.959 98.7563 112.128 99.3647 111.539 100.216L110.35 101.928C110.235 102.093 110.204 102.424 110.279 102.609L111.013 104.328C111.489 105.447 111.165 106.029 110.932 106.275C110.805 106.406 110.592 106.565 110.259 106.624ZM106.531 104.831C106.817 104.78 107.115 104.799 107.367 104.893L109.297 105.615C109.859 105.828 110.18 105.771 110.287 105.662C110.394 105.552 110.426 105.227 110.196 104.678L109.462 102.96C109.265 102.495 109.334 101.838 109.621 101.419L110.811 99.7137C111.046 99.3767 111.125 99.0736 111.032 98.8914C110.933 98.7102 110.637 98.6004 110.228 98.6069L108.311 98.6293C107.848 98.6335 107.293 98.3589 107.016 97.9867L105.622 96.1148C105.369 95.7745 105.096 95.5942 104.892 95.6306C104.687 95.667 104.493 95.9305 104.379 96.3363L103.712 98.5753C103.58 99.0204 103.154 99.4697 102.718 99.6256L100.917 100.266C100.532 100.401 100.291 100.606 100.261 100.81C100.231 101.014 100.417 101.276 100.753 101.506L102.458 102.696C102.871 102.983 103.164 103.582 103.14 104.086L103.044 105.952C103.013 106.554 103.161 106.841 103.299 106.907C103.437 106.972 103.751 106.91 104.212 106.521L105.773 105.177C105.971 105.003 106.245 104.882 106.531 104.831Z" fill="#46474E" style="fill:#46474E;fill:color(display-p3 0.2745 0.2784 0.3059);fill-opacity:1;"/>
<rect y="100.289" width="183.108" height="180.415" transform="rotate(-33.0181 0 100.289)" fill="url(#paint0_radial_252_3578)" style=""/>
<defs>
<filter id="filter0_b_252_3578" x="20.1947" y="21.0013" width="211.353" height="211.353" filterUnits="userSpaceOnUse" color-interpolation-filters="sRGB">
<feFlood flood-opacity="0" result="BackgroundImageFix"/>
<feGaussianBlur in="BackgroundImageFix" stdDeviation="8.97589"/>
<feComposite in2="SourceAlpha" operator="in" result="effect1_backgroundBlur_252_3578"/>
<feBlend mode="normal" in="SourceGraphic" in2="effect1_backgroundBlur_252_3578" result="shape"/>
</filter>
<radialGradient id="paint0_radial_252_3578" cx="0" cy="0" r="1" gradientUnits="userSpaceOnUse" gradientTransform="translate(42.6355 125.422) rotate(51.3714) scale(128.685 115.018)">
<stop stop-color="#F3F0F0" style="stop-color:#F3F0F0;stop-color:color(display-p3 0.9529 0.9412 0.9412);stop-opacity:1;"/>
<stop offset="1" stop-color="#F3F0F0" stop-opacity="0" style="stop-color:none;stop-opacity:0;"/>
</radialGradient>
</defs>
</svg>
