<svg width="290" height="120" viewBox="0 0 290 120" fill="none" xmlns="http://www.w3.org/2000/svg">
<g filter="url(#filter0_b_252_1409)">
<path d="M6.00438 119V52.856H21.0764V105.368H52.4684V119H6.00438ZM104.337 98.072C104.337 101.72 103.633 104.888 102.225 107.576C100.817 110.264 98.9289 112.504 96.5609 114.296C94.1929 116.088 91.4409 117.432 88.3049 118.328C85.1689 119.224 81.8729 119.672 78.4169 119.672C74.9609 119.672 71.6649 119.224 68.5289 118.328C65.4569 117.432 62.7049 116.088 60.2729 114.296C57.9049 112.504 56.0169 110.264 54.6089 107.576C53.2009 104.888 52.4969 101.72 52.4969 98.072V73.208C52.4969 69.56 53.2649 66.424 54.8009 63.8C56.3369 61.176 58.3209 59 60.7529 57.272C63.2489 55.544 66.0329 54.264 69.1049 53.432C72.1769 52.6 75.2809 52.184 78.4169 52.184C81.5529 52.184 84.6569 52.632 87.7289 53.528C90.8649 54.424 93.6489 55.768 96.0809 57.56C98.5769 59.288 100.561 61.496 102.033 64.184C103.569 66.872 104.337 70.04 104.337 73.688V98.072ZM88.9769 76.568C88.9769 74.648 88.6569 73.048 88.0169 71.768C87.3769 70.424 86.5449 69.368 85.5209 68.6C84.5609 67.768 83.4409 67.16 82.1609 66.776C80.8809 66.392 79.6329 66.2 78.4169 66.2C77.1369 66.2 75.8569 66.392 74.5769 66.776C73.3609 67.16 72.2409 67.768 71.2169 68.6C70.1929 69.368 69.3609 70.424 68.7209 71.768C68.0809 73.048 67.7609 74.648 67.7609 76.568V95.288C67.7609 97.208 68.0809 98.84 68.7209 100.184C69.3609 101.464 70.1929 102.52 71.2169 103.352C72.2409 104.12 73.3609 104.696 74.5769 105.08C75.8569 105.464 77.1369 105.656 78.4169 105.656C79.6329 105.656 80.8809 105.464 82.1609 105.08C83.4409 104.696 84.5609 104.12 85.5209 103.352C86.5449 102.52 87.3769 101.464 88.0169 100.184C88.6569 98.84 88.9769 97.208 88.9769 95.288V76.568ZM159.862 109.88C158.39 111.736 156.694 113.304 154.774 114.584C152.918 115.8 150.998 116.792 149.014 117.56C147.03 118.328 145.046 118.872 143.062 119.192C141.078 119.512 139.222 119.672 137.494 119.672C134.486 119.672 131.446 119.256 128.374 118.424C125.302 117.592 122.518 116.312 120.022 114.584C117.526 112.856 115.478 110.68 113.878 108.056C112.342 105.368 111.574 102.2 111.574 98.552V73.88C111.574 70.232 112.31 67.064 113.782 64.376C115.318 61.688 117.302 59.448 119.734 57.656C122.23 55.8 125.014 54.424 128.086 53.528C131.158 52.632 134.294 52.184 137.494 52.184C141.398 52.184 145.302 52.76 149.206 53.912C153.174 55 156.47 56.696 159.094 59L151.702 70.808C149.526 68.952 147.19 67.736 144.694 67.16C142.262 66.52 139.99 66.2 137.878 66.2C136.598 66.2 135.318 66.392 134.038 66.776C132.758 67.16 131.574 67.768 130.486 68.6C129.398 69.368 128.502 70.424 127.798 71.768C127.158 73.048 126.838 74.648 126.838 76.568V95.288C126.838 97.208 127.158 98.84 127.798 100.184C128.438 101.464 129.27 102.52 130.294 103.352C131.318 104.12 132.438 104.696 133.654 105.08C134.934 105.464 136.214 105.656 137.494 105.656C138.646 105.656 139.83 105.496 141.046 105.176C142.326 104.856 143.51 104.248 144.598 103.352V94.424H135.478V81.56H159.862V109.88ZM218.438 98.072C218.438 101.72 217.734 104.888 216.326 107.576C214.918 110.264 213.03 112.504 210.662 114.296C208.294 116.088 205.542 117.432 202.406 118.328C199.27 119.224 195.974 119.672 192.518 119.672C189.062 119.672 185.766 119.224 182.63 118.328C179.558 117.432 176.806 116.088 174.374 114.296C172.006 112.504 170.118 110.264 168.71 107.576C167.302 104.888 166.598 101.72 166.598 98.072V73.208C166.598 69.56 167.366 66.424 168.902 63.8C170.438 61.176 172.422 59 174.854 57.272C177.35 55.544 180.134 54.264 183.206 53.432C186.278 52.6 189.382 52.184 192.518 52.184C195.654 52.184 198.758 52.632 201.83 53.528C204.966 54.424 207.75 55.768 210.182 57.56C212.678 59.288 214.662 61.496 216.134 64.184C217.67 66.872 218.438 70.04 218.438 73.688V98.072ZM203.078 76.568C203.078 74.648 202.758 73.048 202.118 71.768C201.478 70.424 200.646 69.368 199.622 68.6C198.662 67.768 197.542 67.16 196.262 66.776C194.982 66.392 193.734 66.2 192.518 66.2C191.238 66.2 189.958 66.392 188.678 66.776C187.462 67.16 186.342 67.768 185.318 68.6C184.294 69.368 183.462 70.424 182.822 71.768C182.182 73.048 181.862 74.648 181.862 76.568V95.288C181.862 97.208 182.182 98.84 182.822 100.184C183.462 101.464 184.294 102.52 185.318 103.352C186.342 104.12 187.462 104.696 188.678 105.08C189.958 105.464 191.238 105.656 192.518 105.656C193.734 105.656 194.982 105.464 196.262 105.08C197.542 104.696 198.662 104.12 199.622 103.352C200.646 102.52 201.478 101.464 202.118 100.184C202.758 98.84 203.078 97.208 203.078 95.288V76.568Z" fill="#46474E" style="fill:#46474E;fill:color(display-p3 0.2745 0.2784 0.3059);fill-opacity:1;"/>
</g>
<g filter="url(#filter1_b_252_1409)">
<path d="M275.744 37.7285C283.081 58.5657 272.138 81.4058 251.3 88.7432C230.463 96.0806 207.623 85.1368 200.286 64.2995C192.948 43.4623 203.892 20.6222 224.729 13.2848C245.566 5.94738 268.407 16.8912 275.744 37.7285Z" fill="white" fill-opacity="0.01" style="fill:white;fill-opacity:0.01;"/>
<path d="M275.037 37.9776C282.236 58.4241 271.498 80.836 251.051 88.0358C230.605 95.2356 208.193 84.497 200.993 64.0504C193.793 43.6039 204.532 21.192 224.978 13.9922C245.425 6.79238 267.837 17.531 275.037 37.9776Z" stroke="white" style="stroke:white;stroke-opacity:1;" stroke-width="1.5"/>
</g>
<g filter="url(#filter2_b_252_1409)">
<path d="M260.414 42.5003C264.916 55.2861 258.201 69.3009 245.415 73.8031C232.629 78.3054 218.615 71.5902 214.112 58.8044C209.61 46.0186 216.325 32.0038 229.111 27.5016C241.897 22.9993 255.912 29.7145 260.414 42.5003Z" stroke="white" style="stroke:white;stroke-opacity:1;" stroke-width="1.5"/>
</g>
<path d="M228.764 47.5197L232.786 58.9422L231.202 59.5L222.446 53.1672L222.34 53.2045L225.29 61.5818L223.566 62.1886L219.544 50.7661L221.139 50.2044L229.905 56.5464L230.011 56.5091L227.057 48.1207L228.764 47.5197ZM238.998 56.7548L235.3 58.0569L231.278 46.6344L235.093 45.2911C236.212 44.897 237.254 44.7872 238.218 44.9617C239.181 45.1326 240.026 45.5684 240.753 46.2693C241.483 46.9652 242.057 47.9062 242.474 49.0923C242.893 50.2822 243.036 51.3813 242.902 52.3897C242.772 53.3968 242.379 54.2749 241.723 55.024C241.066 55.7694 240.158 56.3463 238.998 56.7548ZM236.493 55.9442L238.373 55.2823C239.243 54.9759 239.908 54.5577 240.369 54.0275C240.829 53.4937 241.092 52.864 241.159 52.1385C241.224 51.4093 241.097 50.5929 240.779 49.6894C240.463 48.7933 240.052 48.0833 239.546 47.5595C239.044 47.0343 238.455 46.7088 237.779 46.583C237.104 46.4573 236.35 46.541 235.517 46.8343L233.531 47.5335L236.493 55.9442ZM247.032 53.9257L245.203 54.5699L245.291 41.7L247.282 40.9988L255.415 50.9739L253.585 51.6181L247.064 43.4075L246.975 43.4389L247.032 53.9257ZM245.764 49.3447L251.698 47.255L252.209 48.7051L246.274 50.7948L245.764 49.3447Z" fill="white" style="fill:white;fill-opacity:1;"/>
<path d="M229.428 83.0171L230.515 83.2168C230.508 83.3609 230.525 83.4931 230.565 83.6134C230.605 83.7354 230.666 83.844 230.747 83.9393C230.828 84.0346 230.928 84.1144 231.045 84.1788C231.162 84.2429 231.292 84.2884 231.438 84.3151C231.701 84.3635 231.943 84.3403 232.163 84.2457C232.382 84.1527 232.57 83.9922 232.724 83.7641C232.879 83.5377 232.99 83.2485 233.057 82.8966C233.126 82.5348 233.13 82.2209 233.069 81.9549C233.007 81.6887 232.89 81.4749 232.719 81.3134C232.547 81.152 232.334 81.0477 232.077 81.0005C231.933 80.9741 231.796 80.9686 231.667 80.9841C231.536 80.9993 231.415 81.0344 231.305 81.0895C231.195 81.1462 231.098 81.2217 231.015 81.3158C230.931 81.4097 230.863 81.5221 230.813 81.653L229.727 81.4483C229.799 81.2205 229.912 81.0088 230.066 80.813C230.218 80.6186 230.404 80.4536 230.625 80.3181C230.844 80.1839 231.093 80.0912 231.372 80.0398C231.648 79.9897 231.949 79.9947 232.275 80.0546C232.729 80.1379 233.114 80.3148 233.433 80.5854C233.749 80.8556 233.974 81.2039 234.107 81.6301C234.238 82.0561 234.251 82.545 234.146 83.0968C234.041 83.6503 233.847 84.102 233.564 84.452C233.282 84.8019 232.943 85.0457 232.547 85.1832C232.15 85.3224 231.729 85.351 231.282 85.2689C230.988 85.2147 230.723 85.1233 230.487 84.9944C230.249 84.8653 230.048 84.7035 229.883 84.509C229.718 84.3162 229.596 84.0945 229.517 83.844C229.436 83.5932 229.407 83.3175 229.428 83.0171Z" fill="white" style="fill:white;fill-opacity:1;"/>
<path d="M223.111 79.2602C223.325 78.739 223.606 78.3355 223.955 78.0498C224.301 77.7634 224.684 77.5923 225.104 77.5365C225.521 77.4816 225.941 77.5394 226.363 77.7099C226.789 77.8816 227.132 78.1321 227.391 78.4615C227.65 78.7909 227.803 79.1781 227.85 79.6229C227.896 80.0678 227.813 80.5501 227.599 81.0697C227.385 81.5909 227.105 81.9947 226.758 82.2811C226.411 82.5674 226.03 82.7381 225.612 82.7929C225.195 82.8494 224.773 82.7918 224.347 82.62C223.924 82.4496 223.583 82.1997 223.324 81.8703C223.063 81.5418 222.909 81.1551 222.862 80.7102C222.814 80.2647 222.897 79.7814 223.111 79.2602ZM224.138 79.6744C224 80.012 223.934 80.3171 223.94 80.5898C223.944 80.8619 224.013 81.0946 224.147 81.288C224.28 81.4814 224.469 81.6275 224.714 81.7262C224.959 81.825 225.197 81.8512 225.429 81.805C225.661 81.7588 225.875 81.6402 226.071 81.4493C226.267 81.2577 226.433 80.9932 226.572 80.6555C226.711 80.3179 226.778 80.0131 226.773 79.741C226.767 79.4683 226.697 79.2353 226.564 79.0419C226.43 78.8485 226.241 78.7024 225.996 78.6037C225.751 78.5049 225.513 78.4787 225.281 78.5249C225.05 78.5711 224.836 78.69 224.641 78.8815C224.445 79.0725 224.277 79.3367 224.138 79.6744Z" fill="white" style="fill:white;fill-opacity:1;"/>
<path d="M217.049 78.5543L217.551 77.8061L219.498 79.0964L221.873 75.5525L222.784 76.1558L219.908 80.448L217.049 78.5543Z" fill="white" style="fill:white;fill-opacity:1;"/>
<path d="M218.369 73.3325L217.745 73.9499L217.632 73.8551C217.489 73.7323 217.331 73.6747 217.158 73.6823C216.984 73.6912 216.776 73.7747 216.535 73.9329C216.291 74.0911 215.993 74.3327 215.641 74.6579L213.946 76.2135L211.472 73.7285L215.145 70.0949L215.894 70.8475L212.843 73.8655L213.853 74.8791L215.189 73.6713C215.619 73.2835 216.004 73 216.343 72.8208C216.68 72.6404 216.996 72.5739 217.29 72.6213C217.583 72.6676 217.876 72.8379 218.169 73.1322L218.369 73.3325Z" fill="white" style="fill:white;fill-opacity:1;"/>
<path d="M213.594 67.9826L214.236 68.9614L208.935 70.3005L208.163 69.1234L211.508 64.8035L212.15 65.7824L209.526 69.0483L209.548 69.082L213.594 67.9826ZM211.935 69.1564L210.418 66.8443L211.132 66.3772L212.648 68.6892L211.935 69.1564Z" fill="white" style="fill:white;fill-opacity:1;"/>
<path d="M206.546 66.3046L206.153 65.3128L210.136 63.723L209.589 62.3442L205.605 63.934L205.213 62.9468L209.197 61.357L208.656 59.9946L204.672 61.5844L204.281 60.5972L209.079 58.682L211.345 64.3895L206.546 66.3046Z" fill="white" style="fill:white;fill-opacity:1;"/>
<path d="M208.926 58.2068L203.842 59.1291L203.234 55.701L204.12 55.5402L204.538 57.8927L205.749 57.6729L205.363 55.4968L206.249 55.3361L206.635 57.5121L207.849 57.2919L207.43 54.9295L208.316 54.7688L208.926 58.2068Z" fill="white" style="fill:white;fill-opacity:1;"/>
<path d="M208.14 52.2536L202.974 52.1445L203.003 51.0525L205.134 51.0975L205.194 48.8807L203.063 48.8357L203.092 47.7462L208.258 47.8553L208.228 48.9448L206.095 48.8997L206.035 51.1165L208.169 51.1616L208.14 52.2536Z" fill="white" style="fill:white;fill-opacity:1;"/>
<path d="M203.378 45.357L203.625 44.2954L206.795 45.0111L206.804 44.9693L204.14 42.0789L204.356 41.1475L209.397 42.2856L209.149 43.3496L205.977 42.6333L205.968 42.6702L208.632 45.5735L208.418 46.495L203.378 45.357Z" fill="white" style="fill:white;fill-opacity:1;"/>
<path d="M209.889 40.8123L205.179 38.6889L206.63 35.5242L207.451 35.8943L206.455 38.066L207.578 38.572L208.499 36.5631L209.32 36.9333L208.399 38.9422L209.523 39.4492L210.523 37.2683L211.345 37.6384L209.889 40.8123Z" fill="white" style="fill:white;fill-opacity:1;"/>
<path d="M217.844 25.6161C218.225 26.0312 218.47 26.4564 218.58 26.8916C218.69 27.3257 218.681 27.7432 218.551 28.1441C218.422 28.5427 218.189 28.8956 217.852 29.203C217.513 29.5126 217.138 29.7137 216.728 29.8062C216.317 29.8987 215.9 29.8708 215.476 29.7225C215.052 29.5742 214.651 29.2931 214.271 28.8793C213.89 28.4642 213.644 28.0396 213.533 27.6055C213.422 27.1714 213.432 26.7551 213.561 26.3565C213.69 25.9568 213.923 25.602 214.262 25.2924C214.599 24.985 214.972 24.7851 215.383 24.6926C215.794 24.5978 216.211 24.6245 216.635 24.7728C217.06 24.9199 217.463 25.201 217.844 25.6161ZM217.026 26.363C216.779 26.0941 216.531 25.9042 216.28 25.7933C216.031 25.6813 215.791 25.6439 215.558 25.6812C215.325 25.7185 215.111 25.8262 214.916 26.0043C214.721 26.1823 214.594 26.3854 214.537 26.6135C214.479 26.8417 214.495 27.0849 214.583 27.3432C214.673 27.6005 214.842 27.8635 215.089 28.1324C215.335 28.4013 215.583 28.5917 215.832 28.7038C216.082 28.8147 216.324 28.8515 216.557 28.8142C216.79 28.7769 217.004 28.6692 217.199 28.4911C217.394 28.3131 217.52 28.11 217.578 27.8819C217.635 27.6537 217.619 27.4111 217.529 27.1539C217.441 26.8955 217.273 26.6319 217.026 26.363Z" fill="white" style="fill:white;fill-opacity:1;"/>
<path d="M225.366 23.3229L223.655 18.4473L224.685 18.0833L225.391 20.0949L227.482 19.356L226.776 17.3444L227.804 16.9812L229.514 21.8568L228.487 22.22L227.78 20.2059L225.689 20.9448L226.396 22.9589L225.366 23.3229Z" fill="white" style="fill:white;fill-opacity:1;"/>
<path d="M231.298 21.78L230.602 16.6602L234.05 16.1769L234.171 17.0693L231.805 17.401L231.971 18.621L234.16 18.3142L234.281 19.2066L232.092 19.5134L232.259 20.7359L234.635 20.4028L234.756 21.2953L231.298 21.78Z" fill="white" style="fill:white;fill-opacity:1;"/>
<path d="M237.33 20.7991L237.297 15.6324L239.335 15.6083C239.727 15.6037 240.061 15.6746 240.338 15.821C240.615 15.9657 240.826 16.1693 240.973 16.4316C241.121 16.6923 241.196 16.9941 241.198 17.3372C241.2 17.6803 241.128 17.9839 240.982 18.2481C240.835 18.5122 240.622 18.7191 240.342 18.8687C240.064 19.0183 239.726 19.0955 239.33 19.1002L238.03 19.1155L238.025 18.2401L239.147 18.2269C239.358 18.2244 239.531 18.1862 239.666 18.1122C239.804 18.0366 239.906 17.9336 239.972 17.8033C240.04 17.6713 240.074 17.5204 240.073 17.3505C240.072 17.179 240.036 17.0297 239.966 16.9027C239.898 16.774 239.795 16.6751 239.657 16.6061C239.518 16.5354 239.343 16.5013 239.131 16.5038L238.395 16.5125L238.422 20.7862L237.33 20.7991Z" fill="white" style="fill:white;fill-opacity:1;"/>
<path d="M243.786 21.6656L242.655 21.3623L245.751 16.8434L247.11 17.2082L247.458 22.6507L246.327 22.3474L246.136 18.1693L246.097 18.1588L243.786 21.6656ZM244.255 19.6888L246.925 20.4052L246.699 21.2273L244.028 20.5108L244.255 19.6888Z" fill="white" style="fill:white;fill-opacity:1;"/>
<path d="M250.553 24.2288C250.216 24.0603 249.945 23.8524 249.741 23.6052C249.538 23.3573 249.413 23.0933 249.365 22.8134C249.318 22.5327 249.361 22.257 249.493 21.9863L250.477 22.4785C250.426 22.594 250.412 22.7114 250.437 22.8307C250.463 22.9493 250.522 23.0605 250.612 23.1642C250.703 23.2679 250.82 23.3555 250.963 23.427C251.112 23.5015 251.257 23.5411 251.398 23.5458C251.539 23.5505 251.665 23.5226 251.777 23.462C251.889 23.4013 251.976 23.3103 252.037 23.1888C252.1 23.0659 252.121 22.9398 252.099 22.8107C252.08 22.6809 252.021 22.557 251.92 22.439C251.821 22.3218 251.685 22.2196 251.51 22.1323L251.079 21.9166L251.442 21.2014L251.873 21.417C252.021 21.4907 252.164 21.5304 252.303 21.5358C252.443 21.542 252.567 21.516 252.676 21.4576C252.786 21.3977 252.871 21.3071 252.933 21.1856C252.992 21.0701 253.015 20.955 253.004 20.8402C252.995 20.7246 252.953 20.6172 252.879 20.5181C252.806 20.4197 252.704 20.3377 252.574 20.2722C252.441 20.206 252.308 20.1694 252.174 20.1625C252.04 20.154 251.918 20.1767 251.808 20.2306C251.698 20.2844 251.611 20.3687 251.547 20.4834L250.61 20.0149C250.75 19.7517 250.944 19.5558 251.195 19.4271C251.445 19.2984 251.724 19.2396 252.031 19.2505C252.341 19.2608 252.654 19.3449 252.97 19.503C253.289 19.6625 253.539 19.8599 253.719 20.095C253.9 20.3301 254.006 20.579 254.039 20.8417C254.074 21.1037 254.029 21.3557 253.904 21.5979C253.774 21.8566 253.584 22.0315 253.334 22.1227C253.086 22.2146 252.82 22.2191 252.538 22.1361L252.52 22.1721C252.838 22.3857 253.037 22.6328 253.117 22.9136C253.199 23.1936 253.167 23.4764 253.02 23.7621C252.888 24.0253 252.693 24.2205 252.436 24.3476C252.181 24.4756 251.89 24.531 251.562 24.514C251.235 24.497 250.899 24.402 250.553 24.2288Z" fill="white" style="fill:white;fill-opacity:1;"/>
<path d="M260.054 24.3478L259.494 25.0534L257.657 23.6097L255.006 26.9517L254.147 26.2766L257.358 22.2291L260.054 24.3478Z" fill="white" style="fill:white;fill-opacity:1;"/>
<path d="M258.013 29.0366L258.685 28.4711L258.789 28.5747C258.922 28.7087 259.075 28.7788 259.248 28.7851C259.422 28.7903 259.635 28.7237 259.888 28.5853C260.144 28.4471 260.46 28.2301 260.838 27.9341L262.651 26.5191L264.917 29.196L260.965 32.5244L260.278 31.7136L263.561 28.9492L262.637 27.8572L261.209 28.9543C260.749 29.3065 260.343 29.5583 259.991 29.7098C259.64 29.8625 259.319 29.9034 259.03 29.8325C258.742 29.7628 258.464 29.5695 258.196 29.2523L258.013 29.0366Z" fill="white" style="fill:white;fill-opacity:1;"/>
<path d="M262.506 35.0538L261.945 34.0262L267.334 33.116L268.009 34.3518L264.327 38.3913L263.766 37.3637L266.645 34.3174L266.625 34.282L262.506 35.0538ZM264.253 34.0164L265.578 36.4437L264.829 36.8523L263.505 34.425L264.253 34.0164Z" fill="white" style="fill:white;fill-opacity:1;"/>
<path d="M269.753 37.9809L270.065 39.0014L265.968 40.2676L266.402 41.6861L270.499 40.4199L270.81 41.4356L266.712 42.7018L267.141 44.1034L271.239 42.8372L271.55 43.8529L266.613 45.3783L264.816 39.5063L269.753 37.9809Z" fill="white" style="fill:white;fill-opacity:1;"/>
<path d="M266.702 47.0793L271.843 46.5665L272.172 50.0325L271.276 50.1219L271.05 47.7434L269.825 47.8656L270.034 50.0658L269.137 50.1551L268.929 47.955L267.701 48.0774L267.928 50.466L267.031 50.5553L266.702 47.0793Z" fill="white" style="fill:white;fill-opacity:1;"/>
<path d="M267.226 51.6048L272.366 52.128L272.249 53.2141L270.128 52.9983L269.89 55.203L272.011 55.4189L271.894 56.5025L266.754 55.9793L266.871 54.8957L268.994 55.1118L269.232 52.9071L267.109 52.6909L267.226 51.6048Z" fill="white" style="fill:white;fill-opacity:1;"/>
<path d="M271.145 59.2018L270.813 60.24L267.711 59.2715L267.698 59.3123L270.121 62.4077L269.83 63.3185L264.898 61.7785L265.23 60.7379L268.334 61.7072L268.346 61.6711L265.925 58.563L266.213 57.6618L271.145 59.2018Z" fill="white" style="fill:white;fill-opacity:1;"/>
<path d="M268.742 65.4437L268.21 66.3948L265.365 64.8246L265.344 64.862L267.099 68.3807L266.632 69.2151L262.108 66.7185L262.642 65.7651L265.489 67.3365L265.507 67.3035L263.756 63.7726L264.218 62.947L268.742 65.4437Z" fill="white" style="fill:white;fill-opacity:1;"/>
<defs>
<filter id="filter0_b_252_1409" x="-13.9961" y="32.1836" width="252.434" height="107.488" filterUnits="userSpaceOnUse" color-interpolation-filters="sRGB">
<feFlood flood-opacity="0" result="BackgroundImageFix"/>
<feGaussianBlur in="BackgroundImageFix" stdDeviation="10"/>
<feComposite in2="SourceAlpha" operator="in" result="effect1_backgroundBlur_252_1409"/>
<feBlend mode="normal" in="SourceGraphic" in2="effect1_backgroundBlur_252_1409" result="shape"/>
</filter>
<filter id="filter1_b_252_1409" x="188.004" y="1.00391" width="100.021" height="100.021" filterUnits="userSpaceOnUse" color-interpolation-filters="sRGB">
<feFlood flood-opacity="0" result="BackgroundImageFix"/>
<feGaussianBlur in="BackgroundImageFix" stdDeviation="5"/>
<feComposite in2="SourceAlpha" operator="in" result="effect1_backgroundBlur_252_1409"/>
<feBlend mode="normal" in="SourceGraphic" in2="effect1_backgroundBlur_252_1409" result="shape"/>
</filter>
<filter id="filter2_b_252_1409" x="202.448" y="15.8366" width="69.6315" height="69.6315" filterUnits="userSpaceOnUse" color-interpolation-filters="sRGB">
<feFlood flood-opacity="0" result="BackgroundImageFix"/>
<feGaussianBlur in="BackgroundImageFix" stdDeviation="4.75749"/>
<feComposite in2="SourceAlpha" operator="in" result="effect1_backgroundBlur_252_1409"/>
<feBlend mode="normal" in="SourceGraphic" in2="effect1_backgroundBlur_252_1409" result="shape"/>
</filter>
</defs>
</svg>
