<svg width="114" height="142" viewBox="0 0 114 142" fill="none" xmlns="http://www.w3.org/2000/svg">
    <g clip-path="url(#lxd1wrz57a)">
        <rect x="19.963" y="28" width="96" height="96" rx="12" transform="rotate(12 19.963 28)" fill="#B9BABD" style="fill:color(display-p3 .7255 .7294 .7412);fill-opacity:1"/>
        <path d="m29.927 44.481-.6.46-.254 1.194-.966-.205.905-4.262.968.205-.354 1.664 1.741-1.369 1.143.243-1.78 1.431.948 2.845-1.133-.241-.62-1.967.002.002zM34.035 42.735l-.906 4.262-.967-.205.906-4.262.967.205zM37.439 46.607a1.154 1.154 0 0 1-.253.532c-.124.14-.277.25-.446.321a1.669 1.669 0 0 1-.587.129 2.694 2.694 0 0 1-.665-.057 4.307 4.307 0 0 1-.442-.12 2.235 2.235 0 0 1-.397-.178 2.04 2.04 0 0 1-.36-.264 2.55 2.55 0 0 1-.332-.37l.696-.608c.132.168.292.315.47.432a1.6 1.6 0 0 0 .522.218c.112.027.226.04.343.034.08-.002.16-.02.236-.05a.353.353 0 0 0 .141-.102.278.278 0 0 0 .061-.123.314.314 0 0 0-.012-.173.432.432 0 0 0-.126-.165 1.77 1.77 0 0 0-.262-.185 8.38 8.38 0 0 0-.418-.231 3.634 3.634 0 0 1-.48-.292c-.125-.09-.235-.2-.328-.327a.958.958 0 0 1-.16-.392 1.285 1.285 0 0 1 .021-.494 1.172 1.172 0 0 1 .625-.827c.17-.084.353-.134.54-.148.216-.02.43-.004.639.04.242.052.477.125.706.22.254.115.481.28.668.484l-.6.7c-.14-.15-.308-.27-.492-.358a2.498 2.498 0 0 0-.485-.155.79.79 0 0 0-.392-.001.275.275 0 0 0-.197.227.253.253 0 0 0 .015.155c.03.063.074.117.127.16.082.07.168.13.26.183.109.065.245.138.404.223.213.104.41.235.592.389.127.106.231.236.31.382a.91.91 0 0 1 .1.388c.001.134-.011.27-.042.4v.003zM38.659 43.718l2.925.622-.185.871-1.959-.416-.17.804 1.671.355-.185.871-1.672-.355-.178.84 1.958.416-.185.871-2.925-.621.905-4.258zM41.317 48.738l.906-4.263.954.203-.72 3.389 1.989.423-.186.871-2.943-.626v.003zM45.56 45.185l2.925.622-.185.87-1.958-.415-.17.804 1.671.355-.185.871-1.672-.355-.179.84 1.959.416-.185.871-2.926-.621.905-4.258zM50.087 49.101l.753-1.45.64-1.208 1.008.214-2.238 3.977-.992-.21-.438-4.546 1.033.22.099 1.39.099 1.603.035.008.002.002zM29.742 51.916a1.925 1.925 0 0 1-.813.142 2.139 2.139 0 0 1-.925-.248 1.76 1.76 0 0 1-.48-.36 1.34 1.34 0 0 1-.298-.507 1.226 1.226 0 0 1-.02-.643l.338-1.594a1.282 1.282 0 0 1 .747-.94c.185-.085.383-.136.586-.15.205-.017.413-.004.617.04.253.053.497.145.726.267.218.11.409.27.557.466l-.635.663a1.105 1.105 0 0 0-.392-.333 1.742 1.742 0 0 0-.425-.15.843.843 0 0 0-.502.052.59.59 0 0 0-.212.168.684.684 0 0 0-.131.301l-.257 1.208a.715.715 0 0 0-.005.328c.021.086.06.17.116.238.054.065.119.119.193.16a.82.82 0 0 0 .471.108.612.612 0 0 0 .249-.07l.123-.576-.581-.124.176-.83 1.555.33-.39 1.83a1.402 1.402 0 0 1-.387.23v-.005zM33.51 48.554c.206.037.402.12.57.243.14.105.255.24.336.396.077.15.123.314.133.485a1.8 1.8 0 0 1-.034.507 1.25 1.25 0 0 1-.12.327 1.458 1.458 0 0 1-.82.698l.383 1.903-1.04-.221-.302-1.71-.6-.127-.335 1.574-.974-.207.908-4.27 1.898.403h-.002zm-1.314 1.638.723.154a.498.498 0 0 0 .418-.057c.1-.077.167-.19.191-.314a.466.466 0 0 0-.407-.588l-.723-.154-.204.961.002-.002zM37.965 52.554a1.289 1.289 0 0 1-.719.94 1.619 1.619 0 0 1-.581.15 2.347 2.347 0 0 1-1.255-.267 1.638 1.638 0 0 1-.47-.372 1.269 1.269 0 0 1-.271-.51 1.366 1.366 0 0 1-.005-.642l.34-1.606a1.22 1.22 0 0 1 .276-.577c.131-.146.292-.262.471-.341.184-.079.382-.126.58-.135.205-.013.41.002.61.045.201.043.395.114.578.214.179.094.34.22.477.371.133.146.23.322.287.512.06.21.064.431.014.644l-.334 1.574h.002zm-.678-1.597a.746.746 0 0 0 .005-.327.592.592 0 0 0-.305-.398.82.82 0 0 0-.481-.102.668.668 0 0 0-.242.068c-.08.04-.149.1-.203.17a.748.748 0 0 0-.129.301l-.257 1.209a.715.715 0 0 0-.004.327c.02.087.059.17.116.238a.669.669 0 0 0 .193.161.818.818 0 0 0 .48.102.594.594 0 0 0 .44-.24.748.748 0 0 0 .13-.3l.257-1.209zM41.705 53.983a1.386 1.386 0 0 1-.466.358 1.655 1.655 0 0 1-.583.151 2.264 2.264 0 0 1-1.216-.254 1.633 1.633 0 0 1-.474-.366 1.323 1.323 0 0 1-.282-.505 1.27 1.27 0 0 1-.01-.64l.626-2.942.973.207-.585 2.752a.73.73 0 0 0-.005.326c.021.086.06.17.117.238a.669.669 0 0 0 .193.16.817.817 0 0 0 .48.103.591.591 0 0 0 .44-.24.736.736 0 0 0 .13-.299l.584-2.752.974.206-.62 2.915c-.04.214-.132.415-.27.583l-.006-.001zM45.181 51.035c.21.038.408.122.583.244.143.103.262.238.345.394.08.15.126.313.14.483.015.172.003.348-.033.519-.036.17-.101.335-.196.484-.192.306-.497.52-.847.594-.198.04-.404.039-.6-.008l-.84-.178-.331 1.556-.974-.207.909-4.273 1.844.392zm-1.265 1.655.717.153a.49.49 0 0 0 .422-.058.528.528 0 0 0 .188-.317.552.552 0 0 0-.04-.366.491.491 0 0 0-.365-.225l-.716-.152-.206.968v-.003z" fill="#989898" style="fill:color(display-p3 .5961 .5961 .5961);fill-opacity:1"/>
        <path opacity=".6" d="m94.794 60.66-.251-.053.082-.389-1.203-.255-.083.388-.25-.053.13-.614.173.037c.151-.16.28-.355.385-.584a3.34 3.34 0 0 0 .24-.716l1.005.214-.291 1.37.193.042-.13.613zm-.333-.712.244-1.144-.483-.103a2.746 2.746 0 0 1-.25.633 2.173 2.173 0 0 1-.315.444l.804.17zm2.195.707-.27-.058.293-1.374-.598-.127a89.53 89.53 0 0 1-.108.425c-.04.158-.079.283-.114.376a1.187 1.187 0 0 1-.11.223.594.594 0 0 1-.22.208.341.341 0 0 1-.123.041.383.383 0 0 1-.133-.005 2.697 2.697 0 0 1-.131-.031l.05-.235.014.003a.543.543 0 0 1 .068.017.264.264 0 0 0 .073.005.135.135 0 0 0 .07-.024.535.535 0 0 0 .17-.217c.053-.107.108-.267.163-.48l.07-.276.075-.306 1.101.234-.34 1.6zm1.879.399-.27-.057.135-.635-.317-.067-.63.529-.317-.067.68-.546a.59.59 0 0 1-.267-.24.49.49 0 0 1-.03-.331.4.4 0 0 1 .103-.204.485.485 0 0 1 .389-.145c.077.002.16.013.248.031l.616.131-.34 1.6zm-.09-.904.115-.539-.34-.072a1.26 1.26 0 0 0-.16-.027.328.328 0 0 0-.115.016.205.205 0 0 0-.101.069.267.267 0 0 0-.05.11.433.433 0 0 0-.012.131.22.22 0 0 0 .05.106c.029.036.068.064.116.085.049.02.104.037.166.05l.331.07zm-19.509-1.03c-.055.26-.166.452-.332.574a.697.697 0 0 1-.585.113.7.7 0 0 1-.492-.342c-.1-.179-.123-.399-.068-.66.056-.26.166-.452.33-.575a.699.699 0 0 1 .59-.113.695.695 0 0 1 .488.342c.102.18.125.4.07.66zm-.278-.06c.044-.207.037-.37-.023-.487a.419.419 0 0 0-.306-.224.422.422 0 0 0-.373.08c-.102.083-.175.228-.219.436-.042.2-.034.361.025.483.059.12.161.196.306.227.144.03.267.003.37-.082.104-.086.177-.23.22-.433zm1.984 1.258-.27-.058.291-1.368-.8-.17-.291 1.368-.27-.057.34-1.6 1.34.284-.34 1.6zm2.115-.976-.579-.123-.29 1.364-.269-.058.29-1.364-.579-.123.05-.236 1.427.303-.05.237zm1.455 1.735-.266-.057.255-1.202-1.093 1.024-.244-.052.34-1.6.267.056-.252 1.185 1.081-1.008.252.053-.34 1.6zm2.162.46-.266-.057.268-1.264-.573.737-.2-.042-.22-.907-.27 1.264-.252-.053.34-1.6.326.068.245.988.611-.806.332.07-.34 1.601zm1.996.423-.266-.056.255-1.202-1.094 1.024-.243-.052.34-1.6.267.056-.252 1.185 1.081-1.009.252.054-.34 1.6zm1.858-.074a.406.406 0 0 1-.112.215.49.49 0 0 1-.19.117.768.768 0 0 1-.233.035c-.082.001-.162-.007-.24-.024a1.468 1.468 0 0 1-.586-.26l.062-.294.019.004a.741.741 0 0 0 .236.198c.101.057.202.096.303.117a.9.9 0 0 0 .15.019c.053 0 .1-.005.142-.017a.32.32 0 0 0 .114-.061.223.223 0 0 0 .063-.124.242.242 0 0 0-.006-.145.215.215 0 0 0-.078-.098.436.436 0 0 0-.135-.061 2.251 2.251 0 0 0-.151-.038l-.234-.05.05-.232.162.034.15.028c.062.01.114.013.155.009a.288.288 0 0 0 .132-.044c.036-.024.06-.068.074-.133a.175.175 0 0 0-.01-.117.238.238 0 0 0-.072-.087.42.42 0 0 0-.112-.059 1.075 1.075 0 0 0-.41-.054.687.687 0 0 0-.26.063l-.018-.004.063-.296c.085-.01.174-.012.268-.01.094.004.187.015.278.034.074.016.147.039.217.068.072.029.137.067.194.113a.437.437 0 0 1 .126.166.35.35 0 0 1 .016.219.347.347 0 0 1-.126.205.438.438 0 0 1-.238.092l-.002.01a.454.454 0 0 1 .206.185c.045.077.056.17.033.277zm1.691.829-.268-.057.036-.17a4.28 4.28 0 0 0-.112.047.787.787 0 0 1-.298.065.834.834 0 0 1-.21-.02.524.524 0 0 1-.336-.221.493.493 0 0 1-.073-.398.517.517 0 0 1 .14-.277.536.536 0 0 1 .261-.13 1.23 1.23 0 0 1 .37-.013c.14.014.289.034.447.06l.009-.042a.32.32 0 0 0-.001-.16.234.234 0 0 0-.072-.113.39.39 0 0 0-.128-.074 1.139 1.139 0 0 0-.408-.069c-.09 0-.186.008-.286.023l-.014-.003.058-.273c.056-.003.135-.003.238 0 .103.005.203.017.3.038.112.024.208.054.287.09.08.037.146.084.197.142.051.056.085.123.102.2a.644.644 0 0 1-.008.269l-.23 1.086zm-.184-.451.095-.446a11.172 11.172 0 0 0-.296-.04 1.537 1.537 0 0 0-.272-.015.439.439 0 0 0-.21.064.257.257 0 0 0-.112.175c-.02.092-.007.167.039.225.046.058.125.099.239.123.094.02.185.02.27 0 .087-.02.169-.049.247-.086zm2.09.856-1.27-.27.34-1.6.27.057-.291 1.368.788.168.29-1.369.27.058-.29 1.368.193.04-.131.617-.251-.053.082-.384zm2.087.444-.266-.057.255-1.202-1.094 1.024-.243-.052.34-1.6.267.056-.252 1.185L96 61.909l.252.054-.34 1.6zm1.997.424-.266-.057.255-1.202-1.093 1.024-.244-.052.34-1.6.267.057-.252 1.184 1.081-1.008.253.053-.34 1.601zm-11.5-.803a.666.666 0 0 1 .1.276.999.999 0 0 1-.02.345.87.87 0 0 1-.34.548.702.702 0 0 1-.58.124.788.788 0 0 1-.274-.112.577.577 0 0 1-.188-.209.916.916 0 0 1-.099-.379 2.467 2.467 0 0 1 .108-.733 2.052 2.052 0 0 1 .24-.496.683.683 0 0 1 .175-.17.755.755 0 0 1 .306-.111c.122-.019.277-.017.466.006l.214.03.177.023-.052.248-.19-.028a6.087 6.087 0 0 0-.187-.025 1.7 1.7 0 0 0-.345-.01.515.515 0 0 0-.24.068.49.49 0 0 0-.158.175c-.042.076-.075.15-.098.222.083-.036.17-.063.262-.079a.783.783 0 0 1 .535.105c.077.047.14.108.188.182zm-.197.578c.038-.177.024-.317-.043-.422a.457.457 0 0 0-.309-.204.737.737 0 0 0-.248-.01c-.081.009-.161.028-.24.058a1.645 1.645 0 0 0-.088.583c.006.109.028.2.066.271a.4.4 0 0 0 .12.141c.046.032.1.054.159.067.144.03.268.003.371-.084.104-.087.174-.22.213-.4zm1.999 1.23-.267-.056.256-1.202-1.094 1.024-.244-.052.34-1.6.267.056-.252 1.185 1.082-1.009.252.054-.34 1.6zm1.857-.073a.406.406 0 0 1-.111.214.49.49 0 0 1-.191.117.771.771 0 0 1-.233.036c-.082 0-.162-.008-.24-.025a1.474 1.474 0 0 1-.586-.26l.063-.294.019.004a.741.741 0 0 0 .236.198c.1.057.202.096.303.117a.9.9 0 0 0 .15.019c.053.001.1-.005.142-.017a.32.32 0 0 0 .113-.06.223.223 0 0 0 .064-.125.242.242 0 0 0-.007-.145.214.214 0 0 0-.078-.098.436.436 0 0 0-.135-.061 2.251 2.251 0 0 0-.15-.038l-.234-.05.05-.232.161.034.15.028c.063.01.114.013.155.009a.289.289 0 0 0 .132-.044c.036-.023.061-.068.075-.132a.175.175 0 0 0-.011-.118.237.237 0 0 0-.071-.087.417.417 0 0 0-.112-.058 1.075 1.075 0 0 0-.41-.054.689.689 0 0 0-.26.062l-.019-.004.063-.296c.085-.01.175-.012.269-.009.094.003.186.014.277.034.075.015.147.038.218.067.072.029.136.067.193.113a.436.436 0 0 1 .127.166.35.35 0 0 1 .016.219.348.348 0 0 1-.126.205.44.44 0 0 1-.238.092l-.002.01a.454.454 0 0 1 .206.185c.044.077.055.17.032.278zm1.788.848-.27-.057.153-.72-.8-.171-.154.72-.27-.056.341-1.601.27.057-.138.648.8.17.138-.647.27.057-.34 1.6zm2.152-.35-1.179-.25a.7.7 0 0 0-.01.267.493.493 0 0 0 .238.346.73.73 0 0 0 .219.082.915.915 0 0 0 .342.006.837.837 0 0 0 .264-.079l.014.003-.063.294a2.277 2.277 0 0 1-.298.037c-.1.005-.202-.003-.306-.025-.266-.056-.458-.172-.576-.347-.119-.176-.15-.396-.094-.66.056-.263.171-.455.346-.579a.752.752 0 0 1 .614-.11c.216.045.369.144.458.295.091.15.112.342.062.575l-.03.146zm-.218-.261a.485.485 0 0 0-.038-.351c-.053-.093-.151-.154-.294-.184a.48.48 0 0 0-.373.054.508.508 0 0 0-.212.286l.917.195zm1.8 1.3c-.122.028-.224.044-.307.046a1.007 1.007 0 0 1-.552-.138.683.683 0 0 1-.326-.504 1.104 1.104 0 0 1 .021-.38c.055-.255.168-.444.342-.566.174-.123.384-.158.63-.106.092.02.18.052.263.097.085.045.16.094.227.147l-.064.3-.016-.004a1.057 1.057 0 0 0-.232-.207.724.724 0 0 0-.24-.102.463.463 0 0 0-.405.082c-.11.088-.185.228-.225.418-.04.19-.029.347.036.47a.465.465 0 0 0 .338.237.774.774 0 0 0 .337-.01 1.174 1.174 0 0 0 .22-.08l.015.003-.063.297zm1.709.468-.268-.057.036-.17a4.736 4.736 0 0 0-.112.048.787.787 0 0 1-.298.065.829.829 0 0 1-.21-.02.523.523 0 0 1-.337-.222.493.493 0 0 1-.073-.397.518.518 0 0 1 .14-.277.536.536 0 0 1 .262-.13c.106-.023.23-.027.37-.013.139.013.288.033.446.059l.01-.042a.32.32 0 0 0-.002-.159.235.235 0 0 0-.071-.114.392.392 0 0 0-.128-.073 1.126 1.126 0 0 0-.408-.069c-.09 0-.186.007-.286.023l-.015-.003.058-.274a2.69 2.69 0 0 1 .238.001c.103.004.203.017.3.037.112.024.208.054.287.091.08.036.146.083.198.141.05.057.084.123.101.2a.644.644 0 0 1-.008.27l-.23 1.085zm-.185-.45.095-.446a11.128 11.128 0 0 0-.295-.04 1.526 1.526 0 0 0-.273-.015.44.44 0 0 0-.21.063.258.258 0 0 0-.112.175c-.02.092-.006.167.04.226.045.057.125.098.238.123.095.02.185.02.271 0 .087-.02.169-.05.246-.087z" fill="#989898" style="fill:color(display-p3 .5961 .5961 .5961);fill-opacity:1"/>
        <path stroke="#D7D7D7" style="stroke:color(display-p3 .8417 .8417 .8417);stroke-opacity:1" stroke-width=".5" d="m26.347 55.677 70.426 14.97"/>
    </g>
    <rect x="8.936" y="36.93" width="96" height="96" rx="12" fill="#fff" style="fill:#fff;fill-opacity:1"/>
    <path d="m22.11 50.98-.49.575v1.22h-.99V48.42h.99v1.7l1.418-1.7h1.17l-1.444 1.77 1.517 2.585h-1.157l-1.016-1.796.002.003zM25.765 48.419v4.357h-.988v-4.358h.988zM29.9 51.498c.005.2-.042.396-.137.573a1.248 1.248 0 0 1-.37.407 1.67 1.67 0 0 1-.547.247c-.216.056-.439.083-.662.083-.153 0-.306-.01-.457-.025a2.246 2.246 0 0 1-.426-.092 2.044 2.044 0 0 1-.407-.183 2.554 2.554 0 0 1-.401-.293l.554-.74a2 2 0 0 0 .55.325c.177.07.366.104.556.106.114.002.23-.01.342-.04a.664.664 0 0 0 .22-.098.353.353 0 0 0 .118-.128.277.277 0 0 0 .034-.133.313.313 0 0 0-.048-.167.433.433 0 0 0-.157-.135 1.754 1.754 0 0 0-.295-.126 8.412 8.412 0 0 0-.457-.14 3.63 3.63 0 0 1-.53-.185 1.444 1.444 0 0 1-.39-.252.957.957 0 0 1-.238-.35 1.284 1.284 0 0 1-.081-.488 1.205 1.205 0 0 1 .115-.533c.076-.158.187-.296.324-.406.149-.116.317-.203.498-.256a2.13 2.13 0 0 1 .633-.094c.247 0 .493.023.736.069.272.06.53.174.754.334l-.441.808a1.67 1.67 0 0 0-.556-.247 2.5 2.5 0 0 0-.507-.05.791.791 0 0 0-.383.08.276.276 0 0 0-.146.263c0 .053.015.105.047.149a.482.482 0 0 0 .158.13c.094.05.191.092.293.124.119.041.267.085.44.135.23.057.451.144.66.257.147.078.276.183.384.309a.913.913 0 0 1 .178.36c.029.13.044.265.042.4v.002zM30.492 48.419h2.991v.89h-2.002v.822h1.71v.89h-1.71v.86h2.002v.89h-2.99V48.42zM34.136 52.776v-4.358h.975v3.465h2.034v.89h-3.009v.003zM37.548 48.419h2.99v.89h-2.001v.822h1.71v.89h-1.71v.86h2.002v.89h-2.99V48.42zM42.791 51.308l.435-1.575.373-1.314h1.032l-1.363 4.355h-1.013l-1.374-4.355h1.056l.386 1.339.43 1.548h.036l.002.002zM23.472 58.296a1.93 1.93 0 0 1-.766.307c-.32.055-.646.04-.957-.05a1.759 1.759 0 0 1-.544-.253 1.338 1.338 0 0 1-.396-.434 1.226 1.226 0 0 1-.154-.624v-1.63a1.281 1.281 0 0 1 .534-1.074c.164-.122.347-.214.542-.269.197-.06.404-.09.612-.09.259 0 .517.04.766.11.236.063.456.18.642.34l-.483.781c-.13-.115-.286-.2-.453-.243a1.739 1.739 0 0 0-.447-.06.845.845 0 0 0-.25.04.736.736 0 0 0-.23.116.59.59 0 0 0-.173.21.682.682 0 0 0-.065.32v1.236c-.005.11.018.22.063.32.039.081.093.155.163.21.066.053.14.092.222.117a.816.816 0 0 0 .483.007.61.61 0 0 0 .23-.12v-.59h-.595v-.849h1.59v1.87c-.094.12-.207.224-.332.306l-.002-.004zM26.46 54.223c.208-.007.416.035.607.12.158.073.299.181.41.316.107.131.186.283.231.448.048.163.073.333.073.503 0 .117-.018.234-.05.344a1.462 1.462 0 0 1-.658.854l.771 1.781h-1.063l-.65-1.609h-.615v1.61h-.995v-4.367h1.94-.002zm-.946 1.876h.739a.498.498 0 0 0 .397-.143.522.522 0 0 0 .122-.346.466.466 0 0 0-.521-.491h-.74v.982l.003-.002zM31.647 57.21a1.287 1.287 0 0 1-.508 1.07c-.16.121-.341.21-.537.266a2.343 2.343 0 0 1-1.282 0 1.638 1.638 0 0 1-.538-.267 1.268 1.268 0 0 1-.371-.443 1.368 1.368 0 0 1-.139-.626v-1.642a1.22 1.22 0 0 1 .15-.622c.098-.17.231-.316.39-.431.163-.115.347-.202.54-.253a2.25 2.25 0 0 1 .605-.082c.206 0 .41.03.61.09.194.054.378.144.543.263.161.115.293.267.388.44.102.194.152.41.147.628v1.609h.002zm-.995-1.421a.746.746 0 0 0-.063-.322.592.592 0 0 0-.38-.325.82.82 0 0 0-.492 0 .668.668 0 0 0-.223.117.584.584 0 0 0-.163.209.749.749 0 0 0-.064.32v1.236c-.004.11.019.22.064.321.038.08.093.154.163.21.066.052.14.091.222.116a.816.816 0 0 0 .492 0 .592.592 0 0 0 .38-.326.745.745 0 0 0 .064-.321v-1.235zM35.603 57.83a1.385 1.385 0 0 1-.381.447 1.655 1.655 0 0 1-.54.269 2.265 2.265 0 0 1-1.242.005 1.632 1.632 0 0 1-.54-.26 1.324 1.324 0 0 1-.38-.436 1.27 1.27 0 0 1-.143-.624v-3.008h.995v2.815a.73.73 0 0 0 .064.319c.038.08.093.154.163.209a.67.67 0 0 0 .222.117.819.819 0 0 0 .492 0 .593.593 0 0 0 .38-.326.737.737 0 0 0 .064-.32v-2.814h.995v2.98c.005.218-.043.434-.143.627h-.006zM38.39 54.223a1.48 1.48 0 0 1 .621.117c.161.071.306.18.42.315.109.13.188.28.238.443.05.165.075.34.075.514 0 .175-.03.349-.091.514-.125.34-.379.613-.705.758-.186.08-.388.121-.59.117H37.5v1.59h-.995v-4.368h1.885zm-.893 1.883h.733a.489.489 0 0 0 .4-.145.529.529 0 0 0 .119-.349.553.553 0 0 0-.116-.349.491.491 0 0 0-.404-.144h-.732v.989-.002z" fill="#989898" style="fill:color(display-p3 .5961 .5961 .5961);fill-opacity:1"/>
    <path opacity=".6" d="M88.927 53.322h-.256v-.397h-1.23v.397h-.257v-.627h.178c.114-.188.199-.405.254-.651.057-.248.085-.498.085-.75h1.029v1.401h.197v.627zm-.473-.627v-1.17h-.493a2.75 2.75 0 0 1-.113.67 2.176 2.176 0 0 1-.215.5h.821zm2.294.235h-.275v-1.405h-.611a57.066 57.066 0 0 1-.018.438 3.545 3.545 0 0 1-.033.391 1.19 1.19 0 0 1-.062.242.595.595 0 0 1-.171.249.339.339 0 0 1-.112.066.38.38 0 0 1-.131.022 2.909 2.909 0 0 1-.135-.003v-.24h.014a.52.52 0 0 1 .07.002.263.263 0 0 0 .073-.01.135.135 0 0 0 .064-.038.534.534 0 0 0 .12-.247c.03-.117.05-.285.06-.504a44.306 44.306 0 0 0 .02-.6h1.127v1.637zm1.92 0h-.275v-.65h-.324l-.507.65h-.323l.55-.676a.59.59 0 0 1-.31-.178.49.49 0 0 1-.098-.318.4.4 0 0 1 .058-.221.485.485 0 0 1 .35-.223c.077-.014.16-.02.25-.02h.63v1.636zm-.275-.866v-.55h-.347c-.075 0-.13.002-.163.006a.328.328 0 0 0-.108.04.204.204 0 0 0-.085.088.269.269 0 0 0-.026.119c0 .053.005.097.016.13a.22.22 0 0 0 .07.094c.036.028.08.048.132.058.052.01.11.015.173.015h.338zm-19.297 3.048c0 .267-.068.477-.205.632a.698.698 0 0 1-.549.231.701.701 0 0 1-.552-.231c-.136-.155-.204-.365-.204-.632 0-.266.068-.477.204-.631a.699.699 0 0 1 .552-.233c.23 0 .413.078.55.233.136.154.204.365.204.631zm-.284 0c0-.212-.041-.369-.124-.471a.418.418 0 0 0-.346-.156.422.422 0 0 0-.349.156c-.082.102-.123.26-.123.471 0 .205.042.361.125.468a.417.417 0 0 0 .347.158.415.415 0 0 0 .344-.157c.084-.105.126-.262.126-.469zm2.202.818h-.276v-1.4h-.819v1.4h-.275v-1.636h1.37v1.636zm1.866-1.395h-.592v1.395h-.275v-1.395h-.592v-.241h1.459v.241zm1.784 1.395h-.273V54.7l-.857 1.23h-.249v-1.636h.273v1.21l.848-1.21h.258v1.636zm2.21 0h-.272v-1.292l-.407.84h-.205l-.405-.84v1.292h-.258v-1.636h.333l.445.915.43-.916h.34v1.637zm2.04 0h-.272V54.7l-.857 1.23h-.249v-1.636h.273v1.21l.848-1.21h.258v1.636zm1.802-.459c0 .092-.021.17-.064.233a.49.49 0 0 1-.163.154.77.77 0 0 1-.22.083c-.08.018-.16.027-.24.027a1.46 1.46 0 0 1-.627-.132v-.302h.02a.74.74 0 0 0 .272.145c.11.034.217.051.32.051.05 0 .1-.004.151-.013a.466.466 0 0 0 .135-.045.321.321 0 0 0 .098-.084.223.223 0 0 0 .037-.134.242.242 0 0 0-.037-.141.214.214 0 0 0-.096-.08.434.434 0 0 0-.145-.031 2.277 2.277 0 0 0-.156-.006h-.238v-.237h.165c.04 0 .09-.002.153-.005a.6.6 0 0 0 .153-.023.29.29 0 0 0 .12-.07c.03-.03.046-.08.046-.146a.175.175 0 0 0-.035-.113.238.238 0 0 0-.088-.07.42.42 0 0 0-.122-.033 1.075 1.075 0 0 0-.412.032.686.686 0 0 0-.241.116h-.02v-.304c.082-.026.169-.048.262-.064.092-.017.185-.025.278-.025.076 0 .152.007.227.02a.766.766 0 0 1 .212.07.435.435 0 0 1 .159.137.35.35 0 0 1 .061.21.347.347 0 0 1-.08.228.439.439 0 0 1-.214.14v.01c.1.024.18.07.24.137.06.066.09.155.09.265zm1.827.459h-.274v-.175l-.1.07a.79.79 0 0 1-.278.126.833.833 0 0 1-.21.024.523.523 0 0 1-.374-.146.493.493 0 0 1-.154-.374c0-.124.026-.224.079-.3a.536.536 0 0 1 .228-.182c.1-.044.22-.074.36-.09.139-.015.289-.027.449-.034v-.043a.32.32 0 0 0-.034-.155.235.235 0 0 0-.094-.097.39.39 0 0 0-.14-.045 1.13 1.13 0 0 0-.413.018 1.81 1.81 0 0 0-.276.081h-.014v-.28c.053-.014.131-.03.233-.048.101-.017.201-.026.3-.026.115 0 .215.01.3.03.086.018.16.05.223.096a.432.432 0 0 1 .14.174c.033.072.049.16.049.265v1.11zm-.274-.403v-.456c-.084.005-.183.013-.297.022-.114.01-.204.024-.27.043a.44.44 0 0 0-.192.105.257.257 0 0 0-.073.195c0 .094.028.165.085.212.056.047.143.07.26.07a.623.623 0 0 0 .264-.055 1.23 1.23 0 0 0 .223-.136zm2.222.403h-1.298v-1.636h.276v1.398h.805v-1.398h.276v1.398h.197v.63h-.256v-.392zm2.134 0h-.272V54.7l-.857 1.23h-.25v-1.636h.273v1.21l.848-1.21h.258v1.636zm2.042 0h-.273V54.7l-.856 1.23h-.25v-1.636h.273v1.21l.848-1.21h.258v1.636zm-11.416 1.605c.068.069.12.152.155.25a1 1 0 0 1 .053.34.87.87 0 0 1-.22.608.702.702 0 0 1-.54.242.786.786 0 0 1-.292-.053.577.577 0 0 1-.227-.165.916.916 0 0 1-.176-.35 2.016 2.016 0 0 1-.057-.517 2.063 2.063 0 0 1 .057-.495c.02-.091.048-.179.085-.263a.686.686 0 0 1 .135-.203.756.756 0 0 1 .277-.172c.115-.044.267-.074.457-.09.077-.007.149-.013.215-.017l.179-.013v.254l-.192.011a5.914 5.914 0 0 0-.188.015c-.125.01-.238.031-.34.061-.1.03-.174.07-.22.118a.489.489 0 0 0-.118.203 1.256 1.256 0 0 0-.05.238 1.14 1.14 0 0 1 .24-.132.783.783 0 0 1 .545-.009c.086.03.16.077.222.14zm-.072.607c0-.181-.044-.316-.13-.405a.458.458 0 0 0-.345-.135.734.734 0 0 0-.244.042 1.014 1.014 0 0 0-.223.107 1.641 1.641 0 0 0 .035.589c.029.105.069.189.12.251.045.053.094.09.147.113.052.022.11.032.17.032a.414.414 0 0 0 .345-.16c.083-.106.125-.25.125-.434zm2.21.788h-.272V57.7l-.857 1.23h-.25v-1.636h.273v1.21l.848-1.21h.258v1.636zm1.802-.459c0 .092-.022.17-.065.233a.489.489 0 0 1-.162.154.77.77 0 0 1-.22.083c-.08.018-.16.027-.24.027a1.459 1.459 0 0 1-.627-.132v-.302h.019a.74.74 0 0 0 .272.145c.11.034.218.051.321.051.05 0 .1-.004.151-.013a.466.466 0 0 0 .135-.045.321.321 0 0 0 .098-.084.223.223 0 0 0 .037-.134.242.242 0 0 0-.037-.141.214.214 0 0 0-.097-.08.434.434 0 0 0-.145-.031 2.276 2.276 0 0 0-.155-.006h-.239v-.237h.166c.039 0 .09-.002.152-.005a.6.6 0 0 0 .154-.023.29.29 0 0 0 .12-.07c.03-.03.046-.08.046-.146a.175.175 0 0 0-.036-.113.238.238 0 0 0-.088-.07.42.42 0 0 0-.121-.033 1.075 1.075 0 0 0-.412.032.686.686 0 0 0-.242.116h-.019v-.304c.082-.026.169-.048.261-.064.093-.017.186-.025.279-.025.076 0 .151.007.227.02a.766.766 0 0 1 .212.07.435.435 0 0 1 .158.137.35.35 0 0 1 .062.21.347.347 0 0 1-.08.228.438.438 0 0 1-.215.14v.01c.1.024.181.07.24.137.06.066.09.155.09.265zm1.925.459h-.276v-.737h-.819v.737h-.275v-1.636h.275v.662h.82v-.663h.275v1.637zm2.033-.79h-1.206c0 .1.015.189.046.264a.496.496 0 0 0 .304.288.73.73 0 0 0 .232.035.914.914 0 0 0 .335-.065.837.837 0 0 0 .242-.132h.014v.3a2.27 2.27 0 0 1-.284.098c-.096.027-.198.04-.304.04-.272 0-.484-.074-.636-.22-.152-.147-.229-.356-.229-.627 0-.268.073-.48.219-.637a.752.752 0 0 1 .577-.236c.22 0 .39.065.51.193.12.13.18.312.18.55v.15zm-.268-.21a.485.485 0 0 0-.11-.336c-.072-.08-.18-.119-.327-.119a.48.48 0 0 0-.353.13.507.507 0 0 0-.148.324h.938zm2.03.897a1.565 1.565 0 0 1-.29.108 1.004 1.004 0 0 1-.568-.02.683.683 0 0 1-.424-.425 1.102 1.102 0 0 1-.059-.376c0-.261.073-.469.217-.624.145-.157.342-.235.593-.235.095 0 .188.014.279.04.092.026.176.058.252.097v.306h-.016c-.091-.07-.181-.12-.27-.154a.723.723 0 0 0-.256-.05.463.463 0 0 0-.38.164c-.089.11-.133.261-.133.456 0 .194.044.345.133.452a.465.465 0 0 0 .38.161.779.779 0 0 0 .328-.08 1.165 1.165 0 0 0 .198-.123h.016v.303zm1.77.103h-.275v-.175l-.1.07a.788.788 0 0 1-.278.126.832.832 0 0 1-.21.024.524.524 0 0 1-.374-.146.493.493 0 0 1-.154-.374c0-.124.026-.224.08-.3a.536.536 0 0 1 .228-.182c.1-.044.219-.074.359-.09.14-.015.29-.027.45-.034v-.043a.321.321 0 0 0-.034-.155.235.235 0 0 0-.094-.097.39.39 0 0 0-.14-.045 1.131 1.131 0 0 0-.413.018 1.81 1.81 0 0 0-.276.081h-.015v-.28c.054-.014.131-.03.233-.048.101-.017.202-.026.3-.026.115 0 .216.01.3.03.087.018.16.05.223.096a.432.432 0 0 1 .14.174c.033.072.05.16.05.265v1.11zm-.275-.403v-.456c-.084.005-.183.013-.297.022-.113.01-.203.024-.27.043a.44.44 0 0 0-.192.105.257.257 0 0 0-.073.195c0 .094.029.165.085.212.057.047.143.07.26.07a.623.623 0 0 0 .265-.055c.08-.038.154-.083.222-.136z" fill="#989898" style="fill:color(display-p3 .5961 .5961 .5961);fill-opacity:1"/>
    <path stroke="#D7D7D7" style="stroke:color(display-p3 .8417 .8417 .8417);stroke-opacity:1" stroke-width=".5" d="M20.939 62.68h72"/>
    <path d="M23.835 101.93V96.4h-2.482v5.53h-1.339v-6.733h5.179v6.733h-1.358zm6.58-1.72c0 .3-.061.56-.185.782a1.648 1.648 0 0 1-.479.557 2.1 2.1 0 0 1-.674.322 2.89 2.89 0 0 1-1.573 0 2.221 2.221 0 0 1-.684-.322 1.695 1.695 0 0 1-.47-.557 1.649 1.649 0 0 1-.175-.782v-1.397c0-.3.058-.56.176-.782.123-.222.283-.404.478-.547.202-.15.43-.26.684-.332a2.74 2.74 0 0 1 .792-.118c.287 0 .557.04.81.117.262.072.486.183.675.333.196.15.349.338.46.566.11.222.166.483.166.782v1.378zm-1.24-1.182a.87.87 0 0 0-.079-.391.72.72 0 0 0-.205-.254.695.695 0 0 0-.283-.147.95.95 0 0 0-.303-.049 1.14 1.14 0 0 0-.323.05.694.694 0 0 0-.283.146.72.72 0 0 0-.205.254.87.87 0 0 0-.078.39v.958c0 .157.023.29.068.401a.83.83 0 0 0 .205.264c.085.065.18.114.284.146.104.026.215.039.332.039.104 0 .205-.013.303-.039a.892.892 0 0 0 .283-.146.83.83 0 0 0 .205-.264.935.935 0 0 0 .078-.4v-.958zm6.259 1.446c0 .202-.033.391-.098.566a1.296 1.296 0 0 1-.303.47c-.13.13-.296.234-.498.312a2.007 2.007 0 0 1-.694.108h-2.55v-4.837h2.53c.254 0 .476.036.665.107.195.066.355.157.479.274.13.117.224.257.283.42.065.156.098.326.098.508 0 .104-.017.209-.05.313a1.206 1.206 0 0 1-.136.293 1.402 1.402 0 0 1-.205.235.87.87 0 0 1-.244.146v.01c.221.091.397.231.527.42.13.189.196.407.196.655zm-1.27-.049c0-.15-.053-.27-.157-.362a.617.617 0 0 0-.42-.136H32.53v.996h1.026c.209 0 .362-.045.46-.137a.47.47 0 0 0 .146-.361zm-.06-1.886a.364.364 0 0 0-.146-.313.586.586 0 0 0-.371-.107H32.53v.82h1.075c.163 0 .287-.035.372-.107a.364.364 0 0 0 .127-.293zm6.75 3.391v-4.837h1.231v4.837h-1.231zm-3.313-1.026h1.027c.221 0 .384-.049.488-.147a.5.5 0 0 0 .156-.381.487.487 0 0 0-.156-.352c-.098-.11-.26-.166-.488-.166h-1.026v1.046zm-1.22 1.026v-4.837h1.22v1.759h1.134c.554 0 .98.136 1.28.41.306.274.46.645.46 1.114 0 .195-.033.388-.098.577a1.468 1.468 0 0 1-.303.498c-.137.143-.316.26-.538.352a2.12 2.12 0 0 1-.772.127H36.32zm13.077-4.837v4.837h-6.293v-4.837h1.24v3.752h1.281v-3.752h1.231v3.752h1.29v-3.752h1.25zm2.199 2.785v.156a.92.92 0 0 0 .068.371.767.767 0 0 0 .196.254c.084.066.179.114.283.147.104.033.215.049.332.049.137 0 .306-.02.508-.059.202-.045.417-.159.645-.342l.684.85c-.15.144-.3.261-.45.352-.15.085-.299.153-.449.205-.15.046-.303.075-.459.088-.15.02-.303.03-.46.03-.286 0-.56-.036-.82-.108a2.099 2.099 0 0 1-.674-.322 1.694 1.694 0 0 1-.47-.557 1.674 1.674 0 0 1-.175-.792v-1.25c0-.3.052-.567.156-.802.11-.24.26-.443.45-.606.188-.163.407-.286.654-.371.248-.085.515-.127.802-.127.3 0 .576.042.83.127.254.085.472.208.655.371.182.157.325.352.43.587.104.234.156.501.156.8v.949h-2.892zm1.651-.909c0-.274-.081-.472-.244-.596a.895.895 0 0 0-.577-.196.857.857 0 0 0-.586.215c-.163.144-.244.349-.244.616v.059h1.651v-.098zm5.119 2.961v-1.935h-1.779v1.935h-1.221v-4.837h1.221v1.856h1.779v-1.856h1.25v4.837h-1.25zm5.219-2.873-.82 1.26-1.085 1.613h-1.085v-4.837h1.24v2.853h.05l.703-1.075 1.183-1.778h1.104v4.837h-1.241v-2.873h-.049zm6.294-1.964v4.837h-1.251v-1.828h-.518c-.215 0-.394.043-.538.127-.143.079-.253.258-.332.538l-.293 1.163h-1.3l.401-1.398c.052-.162.117-.303.196-.42a.64.64 0 0 1 .332-.264.937.937 0 0 1-.362-.205 1.352 1.352 0 0 1-.244-.303 1.494 1.494 0 0 1-.127-.361 1.646 1.646 0 0 1 .059-.919c.065-.182.166-.345.302-.488.137-.144.31-.258.518-.342.209-.092.456-.137.743-.137h2.414zm-1.251 1.036h-.997a.654.654 0 0 0-.43.136.44.44 0 0 0-.156.362c0 .306.199.46.596.46h.987v-.958zM21.4 111.979a5.66 5.66 0 0 1-.468-.02 2.341 2.341 0 0 1-.46-.088c-.15-.046-.3-.111-.45-.195a1.936 1.936 0 0 1-.439-.352l.684-.899c.11.104.215.186.313.244.098.052.189.091.273.117.085.026.163.043.235.049.072.007.137.01.195.01.111 0 .219-.013.323-.039a.783.783 0 0 0 .273-.147.71.71 0 0 0 .196-.263.852.852 0 0 0 .078-.382v-.117h-1.515v-.899h1.515v-.078c0-.287-.075-.479-.225-.576a.93.93 0 0 0-.547-.157c-.124 0-.28.023-.469.069a1.185 1.185 0 0 0-.518.293l-.655-.899a2.4 2.4 0 0 1 1.348-.586c.15-.02.287-.03.411-.03.58 0 1.04.147 1.378.44.345.293.518.73.518 1.309v1.417c0 .293-.055.551-.166.772-.104.222-.251.407-.44.557-.182.15-.394.264-.635.342a2.614 2.614 0 0 1-.753.108zm5.025 1.895v-1.895c-.325 0-.622-.053-.889-.157a2.136 2.136 0 0 1-.694-.43 1.915 1.915 0 0 1-.44-.645 2.138 2.138 0 0 1-.156-.82v-.821c0-.293.049-.56.147-.802.104-.247.25-.462.44-.644.188-.183.416-.326.683-.43.274-.105.577-.163.91-.176v-1.847h1.24v1.847c.326.013.622.071.89.176.266.104.494.247.683.43.196.182.346.397.45.644.104.242.156.509.156.802v.821c0 .293-.052.566-.156.82a1.85 1.85 0 0 1-.45.645 2.025 2.025 0 0 1-.684.43 2.431 2.431 0 0 1-.889.157v1.895h-1.24zm0-5.677c-.306 0-.54.098-.703.293-.163.189-.245.43-.245.723v.606c0 .293.085.537.254.733.17.189.401.287.694.293v-2.648zm1.241 2.648c.306-.006.54-.104.704-.293.163-.196.244-.44.244-.733v-.606c0-.293-.078-.534-.234-.723-.157-.189-.395-.286-.714-.293v2.648zm5.19 3.029v-1.895c-.325 0-.621-.053-.889-.157a2.136 2.136 0 0 1-.693-.43 1.915 1.915 0 0 1-.44-.645 2.136 2.136 0 0 1-.156-.82v-.821c0-.293.049-.56.146-.802.105-.247.251-.462.44-.644.189-.183.417-.326.684-.43a2.83 2.83 0 0 1 .909-.176v-1.847h1.24v1.847c.326.013.623.071.89.176.267.104.495.247.684.43.195.182.345.397.45.644.104.242.156.509.156.802v.821c0 .293-.052.566-.157.82a1.851 1.851 0 0 1-.45.645 2.025 2.025 0 0 1-.683.43 2.432 2.432 0 0 1-.89.157v1.895h-1.24zm0-5.677c-.305 0-.54.098-.703.293-.163.189-.244.43-.244.723v.606c0 .293.085.537.254.733.17.189.4.287.694.293v-2.648zm1.242 2.648c.306-.006.54-.104.703-.293.163-.196.245-.44.245-.733v-.606c0-.293-.079-.534-.235-.723-.156-.189-.394-.286-.713-.293v2.648zm4.282-.967v.156a.92.92 0 0 0 .068.371.767.767 0 0 0 .195.254c.085.066.18.114.284.147.104.033.215.049.332.049.137 0 .306-.02.508-.059.202-.045.417-.159.645-.342l.684.85c-.15.144-.3.261-.45.352-.15.085-.3.153-.449.205-.15.046-.303.075-.46.088-.149.02-.302.03-.459.03-.286 0-.56-.036-.82-.108a2.099 2.099 0 0 1-.675-.322 1.694 1.694 0 0 1-.468-.557 1.674 1.674 0 0 1-.176-.792v-1.251c0-.299.052-.566.156-.801.11-.241.26-.443.45-.606.188-.163.407-.286.654-.371.248-.085.515-.127.801-.127.3 0 .577.042.83.127.255.085.473.208.656.371.182.157.325.352.43.587.104.234.156.501.156.801v.948H38.38zm1.65-.909c0-.274-.08-.472-.243-.596a.897.897 0 0 0-.577-.196.858.858 0 0 0-.586.215c-.163.144-.244.349-.244.616v.059h1.65v-.098zm2.12 2.961v-4.847h1.25v1.798h.4c.21 0 .385-.042.529-.127.15-.085.273-.261.37-.528l.421-1.143h1.329l-.508 1.407a2.095 2.095 0 0 1-.284.567.961.961 0 0 1-.459.342c.241.078.414.199.518.361.104.157.196.355.274.596l.547 1.574H45.15l-.38-1.28a1.099 1.099 0 0 0-.167-.342.615.615 0 0 0-.205-.206.616.616 0 0 0-.264-.097 2.45 2.45 0 0 0-.322-.02h-.41v1.945H42.15zm7.322-3.792v3.792h-1.24v-3.792h-1.378v-1.045h3.996v1.045h-1.378zm4.914.919-.82 1.26-1.085 1.613h-1.085v-4.837h1.241v2.853h.049l.703-1.075 1.183-1.778h1.104v4.837h-1.241v-2.873h-.049zm6.382 1.417c0 .202-.033.391-.098.566a1.297 1.297 0 0 1-.303.47c-.13.13-.296.234-.498.312a2.007 2.007 0 0 1-.694.108h-2.55v-4.837h2.53c.254 0 .476.036.665.107.195.065.355.157.479.274.13.117.224.257.283.42.065.156.098.326.098.508 0 .104-.017.209-.05.313a1.205 1.205 0 0 1-.136.293 1.405 1.405 0 0 1-.205.235.858.858 0 0 1-.244.146v.01c.221.091.397.231.527.42.13.189.196.407.196.655zm-1.27-.049c0-.15-.053-.27-.157-.362a.616.616 0 0 0-.42-.136h-1.055v.996h1.026c.208 0 .361-.045.459-.137a.47.47 0 0 0 .146-.361zm-.06-1.886a.364.364 0 0 0-.146-.313.59.59 0 0 0-.371-.107h-1.055v.821h1.074c.163 0 .287-.036.372-.108a.364.364 0 0 0 .127-.293zm5.216 3.391v-1.935h-1.779v1.935h-1.22v-4.837h1.22v1.856h1.779v-1.856h1.25v4.837h-1.25zm6.392-1.72c0 .3-.062.56-.186.782a1.65 1.65 0 0 1-.479.557c-.195.143-.42.25-.674.322a2.889 2.889 0 0 1-1.573 0 2.219 2.219 0 0 1-.684-.322 1.694 1.694 0 0 1-.469-.557 1.649 1.649 0 0 1-.176-.782v-1.397c0-.3.059-.561.176-.782a1.68 1.68 0 0 1 .479-.547c.202-.15.43-.261.684-.333.26-.078.524-.117.791-.117.287 0 .557.039.811.117.26.072.486.183.675.333.195.15.348.338.459.566.11.222.166.482.166.782v1.378zm-1.241-1.182a.868.868 0 0 0-.078-.391.713.713 0 0 0-.205-.254.69.69 0 0 0-.284-.147.968.968 0 0 0-.303-.049c-.104 0-.211.017-.322.049a.691.691 0 0 0-.284.147.713.713 0 0 0-.205.254.868.868 0 0 0-.078.391v.957c0 .157.023.29.069.401.052.104.12.192.205.264.084.065.179.114.283.146.104.026.215.039.332.039.105 0 .205-.013.303-.039a.891.891 0 0 0 .284-.146.83.83 0 0 0 .205-.264.936.936 0 0 0 .078-.401v-.957zm5.917 2.237c-.143.15-.29.274-.44.372a2.31 2.31 0 0 1-.459.215 2.009 2.009 0 0 1-.469.097c-.15.02-.303.03-.46.03-.266 0-.52-.036-.761-.108a1.898 1.898 0 0 1-.635-.322 1.723 1.723 0 0 1-.44-.548 1.791 1.791 0 0 1-.156-.772v-1.426c0-.293.058-.551.175-.772.118-.222.27-.404.46-.547.189-.15.4-.261.635-.333.24-.078.482-.117.723-.117.15 0 .303.007.46.02.155.013.309.042.458.088.157.045.31.114.46.205.15.085.296.202.44.352l-.714.908c-.228-.202-.423-.322-.586-.361a1.481 1.481 0 0 0-.41-.069c-.098 0-.2.017-.304.049a.69.69 0 0 0-.283.147.844.844 0 0 0-.274.645v.967c0 .157.023.29.069.401a.906.906 0 0 0 .195.264.798.798 0 0 0 .264.146c.104.026.209.039.313.039.13 0 .286-.029.469-.088.189-.058.365-.169.528-.332l.742.85zm2.855-3.127v3.792h-1.241v-3.792h-1.378v-1.045h3.996v1.045h-1.377zm4.913.919-.82 1.26-1.085 1.613H80.5v-4.837h1.241v2.853h.05l.703-1.075 1.182-1.778h1.104v4.837h-1.24v-2.873h-.05zM19.936 121.93v-4.847h1.25v1.798h.401c.209 0 .384-.042.528-.127.15-.085.274-.261.371-.528l.42-1.143h1.33l-.509 1.407a2.095 2.095 0 0 1-.283.567.961.961 0 0 1-.46.342c.241.078.414.199.518.361.105.157.196.355.274.596l.547 1.574h-1.387l-.381-1.28a1.1 1.1 0 0 0-.166-.342.617.617 0 0 0-.206-.206.616.616 0 0 0-.264-.097 2.45 2.45 0 0 0-.322-.02h-.41v1.945h-1.251zm9.287-1.72c0 .3-.062.56-.186.782a1.65 1.65 0 0 1-.479.557 2.1 2.1 0 0 1-.674.322 2.89 2.89 0 0 1-1.573 0 2.221 2.221 0 0 1-.684-.322 1.695 1.695 0 0 1-.47-.557 1.65 1.65 0 0 1-.175-.782v-1.397c0-.3.059-.561.176-.782.124-.222.283-.404.479-.547.201-.15.43-.261.684-.333.26-.078.524-.117.791-.117.287 0 .557.039.811.117.26.072.485.183.674.333.196.15.349.338.46.566.11.222.166.482.166.782v1.378zm-1.241-1.182a.868.868 0 0 0-.078-.391.713.713 0 0 0-.206-.254.691.691 0 0 0-.283-.147.968.968 0 0 0-.303-.049c-.104 0-.212.017-.322.049a.69.69 0 0 0-.284.147.713.713 0 0 0-.205.254.867.867 0 0 0-.078.391v.957c0 .157.023.29.068.401a.83.83 0 0 0 .206.264c.084.065.179.114.283.146.104.026.215.039.332.039.104 0 .205-.013.303-.039a.892.892 0 0 0 .283-.146.83.83 0 0 0 .206-.264.936.936 0 0 0 .078-.401v-.957zm4.783.83.733-1.348.772-1.417h1.104v4.837h-1.221v-2.443h-.03l-.498.967-.469.86h-.83l-.499-.889-.45-.85-.028.01v2.345h-1.222v-4.837h1.124l.733 1.387.733 1.378h.048zm6.583 2.072v-3.762h-1.74v3.762h-1.24v-4.847h4.23v4.847h-1.25zm5.123-.401a3.502 3.502 0 0 1-.792.352 2.741 2.741 0 0 1-.655.088c-.495 0-.88-.131-1.153-.391-.267-.267-.4-.629-.4-1.085 0-.267.055-.492.166-.674.11-.189.25-.342.42-.459.176-.117.368-.202.576-.254.209-.052.408-.078.596-.078h1.251v-.206c0-.228-.065-.397-.195-.508-.13-.117-.362-.176-.694-.176a3.15 3.15 0 0 0-.586.069c-.228.045-.46.163-.694.352l-.557-.909c.339-.261.678-.43 1.016-.508.345-.078.661-.118.948-.118.69 0 1.199.157 1.524.469.326.313.489.785.489 1.417v3.02h-1.143l-.088-.391-.03-.01zm.02-1.583h-1.037c-.078 0-.156.007-.234.02a.473.473 0 0 0-.205.068.393.393 0 0 0-.147.147.413.413 0 0 0-.059.234c0 .13.046.238.137.323.098.078.241.117.43.117.209 0 .414-.039.616-.117.202-.085.368-.163.498-.235v-.557zm5.211 1.984v-1.935h-1.778v1.935h-1.222v-4.837h1.222v1.856h1.778v-1.856h1.25v4.837h-1.25zm5.22-2.873-.821 1.26-1.085 1.613h-1.085v-4.837h1.241v2.853h.05l.703-1.075 1.182-1.778h1.104v4.837h-1.24v-2.873h-.05zm5.257 0-.82 1.26-1.085 1.613h-1.085v-4.837h1.241v2.853h.05l.703-1.075 1.182-1.778h1.104v4.837h-1.24v-2.873h-.05z" fill="#46474E" style="fill:color(display-p3 .2745 .2784 .3059);fill-opacity:1"/>
    <g filter="url(#hefjq9nb1b)">
        <path d="M61.942 53.661h-10c-4.382 0-7.21-.94-8.968-2.698s-2.699-4.587-2.699-8.968v-10c0-4.382.941-7.21 2.699-8.968s4.587-2.699 8.968-2.699h10c4.382 0 7.21.941 8.968 2.699 1.758 1.757 2.699 4.586 2.699 8.968v10c0 4.381-.941 7.21-2.699 8.968-1.757 1.758-4.586 2.698-8.968 2.698z" fill="#FFD66B" style="fill:color(display-p3 1 .8378 .4208);fill-opacity:1"/>
        <path d="M61.942 53.661h-10c-4.382 0-7.21-.94-8.968-2.698s-2.699-4.587-2.699-8.968v-10c0-4.382.941-7.21 2.699-8.968s4.587-2.699 8.968-2.699h10c4.382 0 7.21.941 8.968 2.699 1.758 1.757 2.699 4.586 2.699 8.968v10c0 4.381-.941 7.21-2.699 8.968-1.757 1.758-4.586 2.698-8.968 2.698z" fill="url(#qszxn0j7uc)"/>
        <path d="M61.942 53.661h-10c-4.382 0-7.21-.94-8.968-2.698s-2.699-4.587-2.699-8.968v-10c0-4.382.941-7.21 2.699-8.968s4.587-2.699 8.968-2.699h10c4.382 0 7.21.941 8.968 2.699 1.758 1.757 2.699 4.586 2.699 8.968v10c0 4.381-.941 7.21-2.699 8.968-1.757 1.758-4.586 2.698-8.968 2.698z" stroke="#fff" style="stroke:#fff;stroke-opacity:1" stroke-width="2.5"/>
        <path d="M54.574 42.962c-.334 0-.65-.134-.883-.367l-4.717-4.717a1.257 1.257 0 0 1 0-1.767 1.257 1.257 0 0 1 1.767 0l3.833 3.834 8.567-8.567a1.258 1.258 0 0 1 1.766 0 1.258 1.258 0 0 1 0 1.767l-9.45 9.45a1.25 1.25 0 0 1-.883.367z" fill="#fff" style="fill:#fff;fill-opacity:1"/>
    </g>
    <defs>
        <linearGradient id="qszxn0j7uc" x1="56.942" y1="19.078" x2="56.942" y2="54.911" gradientUnits="userSpaceOnUse">
            <stop stop-color="#FFD66B" style="stop-color:color(display-p3 1 .8392 .4196);stop-opacity:1"/>
            <stop offset="1" stop-color="#FFA469" style="stop-color:color(display-p3 1 .6431 .4118);stop-opacity:1"/>
        </linearGradient>
        <clipPath id="lxd1wrz57a">
            <rect x="19.963" y="28" width="96" height="96" rx="12" transform="rotate(12 19.963 28)" fill="#fff" style="fill:#fff;fill-opacity:1"/>
        </clipPath>
        <filter id="hefjq9nb1b" x="11.935" y="-2" width="90" height="90" filterUnits="userSpaceOnUse" color-interpolation-filters="sRGB">
            <feFlood flood-opacity="0" result="BackgroundImageFix"/>
            <feColorMatrix in="SourceAlpha" values="0 0 0 0 0 0 0 0 0 0 0 0 0 0 0 0 0 0 127 0" result="hardAlpha"/>
            <feOffset dy="6"/>
            <feGaussianBlur stdDeviation="12.5"/>
            <feComposite in2="hardAlpha" operator="out"/>
            <feColorMatrix values="0 0 0 0 0.27451 0 0 0 0 0.278431 0 0 0 0 0.305882 0 0 0 0.38 0"/>
            <feBlend mode="multiply" in2="BackgroundImageFix" result="effect1_dropShadow_272_2372"/>
            <feBlend in="SourceGraphic" in2="effect1_dropShadow_272_2372" result="shape"/>
        </filter>
    </defs>
</svg>
