<svg width="114" height="142" viewBox="0 0 114 142" fill="none" xmlns="http://www.w3.org/2000/svg">
    <g clip-path="url(#mxejpe9yba)">
        <rect x="19.965" y="28.07" width="96" height="96" rx="12" transform="rotate(12 19.965 28.07)" fill="#B9BABD" style="fill:color(display-p3 .7255 .7294 .7412);fill-opacity:1"/>
        <path d="m29.929 44.552-.6.46-.253 1.194-.968-.206.906-4.262.967.205-.353 1.665 1.741-1.37 1.144.243-1.78 1.432.947 2.844-1.133-.24-.62-1.968.002.003zM34.037 42.805l-.906 4.263-.967-.206.906-4.262.967.205zM37.44 46.678a1.154 1.154 0 0 1-.252.53c-.125.14-.277.251-.447.323a1.668 1.668 0 0 1-.586.128 2.688 2.688 0 0 1-.665-.057 4.316 4.316 0 0 1-.442-.12 2.046 2.046 0 0 1-.758-.442 2.55 2.55 0 0 1-.331-.37l.696-.608c.132.168.292.315.47.432.16.104.337.177.522.219.112.026.226.039.343.033.08-.002.16-.02.236-.05a.352.352 0 0 0 .141-.102.277.277 0 0 0 .06-.123.312.312 0 0 0-.01-.173.43.43 0 0 0-.127-.165 1.752 1.752 0 0 0-.262-.184 8.408 8.408 0 0 0-.418-.232 3.634 3.634 0 0 1-.48-.291c-.125-.09-.235-.2-.328-.328a.955.955 0 0 1-.16-.392 1.283 1.283 0 0 1 .021-.494 1.172 1.172 0 0 1 .625-.827c.17-.083.353-.133.54-.147.216-.02.43-.005.639.04.242.051.477.124.706.22.254.115.481.28.668.484l-.6.698a1.67 1.67 0 0 0-.492-.357 2.508 2.508 0 0 0-.485-.155.79.79 0 0 0-.392 0 .275.275 0 0 0-.197.226.253.253 0 0 0 .015.156c.03.062.074.116.127.16.082.069.168.13.26.182.109.065.245.139.404.224.213.103.41.234.592.388.127.106.231.236.31.382a.91.91 0 0 1 .1.388c.001.134-.011.27-.042.401v.003zM38.66 43.788l2.926.622-.185.871-1.959-.416-.17.804 1.672.356-.186.87-1.672-.355-.178.84 1.958.416-.185.872-2.925-.622.905-4.258zM41.319 48.808l.906-4.262.954.203-.72 3.388 1.988.423-.185.871-2.943-.625v.002zM45.562 45.255l2.925.622-.185.871-1.958-.416-.171.804 1.672.355-.185.872-1.672-.356-.179.84 1.959.416-.186.872-2.925-.622.905-4.258zM50.09 49.172l.752-1.45.64-1.209 1.008.215-2.238 3.976-.992-.21-.438-4.546 1.033.22.099 1.39.099 1.603.035.008.001.003zM29.744 51.987a1.925 1.925 0 0 1-.813.141 2.137 2.137 0 0 1-.925-.248 1.757 1.757 0 0 1-.48-.36 1.337 1.337 0 0 1-.298-.507 1.227 1.227 0 0 1-.02-.643l.338-1.594a1.283 1.283 0 0 1 .747-.94c.185-.084.383-.136.585-.15.206-.017.414-.003.618.04.253.054.497.146.726.267.218.11.409.27.557.466l-.634.663a1.106 1.106 0 0 0-.393-.332 1.743 1.743 0 0 0-.425-.151.843.843 0 0 0-.502.052.59.59 0 0 0-.212.169.68.68 0 0 0-.131.3l-.257 1.209a.715.715 0 0 0-.005.327c.021.087.06.17.117.238a.667.667 0 0 0 .192.161.816.816 0 0 0 .471.107.61.61 0 0 0 .249-.07l.123-.576-.581-.124.176-.83 1.555.33-.39 1.83a1.4 1.4 0 0 1-.387.23v-.005zM33.513 48.625c.205.036.4.12.57.243.14.104.254.24.335.395.077.15.123.315.133.486.012.169.001.34-.034.506a1.253 1.253 0 0 1-.12.327 1.462 1.462 0 0 1-.82.699l.383 1.902-1.04-.22-.302-1.71-.6-.128-.335 1.574-.974-.207.908-4.27 1.898.403h-.002zm-1.315 1.638.723.153a.498.498 0 0 0 .418-.057c.1-.077.167-.19.192-.313a.466.466 0 0 0-.326-.574c-.026-.005-.053-.011-.082-.015l-.723-.154-.204.961.002-.002zM37.967 52.624a1.288 1.288 0 0 1-.719.94 1.619 1.619 0 0 1-.581.15 2.346 2.346 0 0 1-1.255-.267 1.637 1.637 0 0 1-.47-.372 1.27 1.27 0 0 1-.272-.51 1.368 1.368 0 0 1-.005-.642l.342-1.606a1.22 1.22 0 0 1 .275-.577c.131-.146.292-.262.472-.341.183-.078.38-.126.58-.135.204-.013.41.003.609.045.202.043.395.114.578.214.179.095.34.22.477.372.133.145.23.321.287.511.06.21.064.432.014.644l-.335 1.574h.003zm-.678-1.596a.746.746 0 0 0 .005-.328.591.591 0 0 0-.305-.398.819.819 0 0 0-.481-.102.669.669 0 0 0-.242.068c-.08.04-.148.1-.203.17a.747.747 0 0 0-.129.302l-.257 1.208a.715.715 0 0 0-.004.327c.02.087.059.17.116.239.053.065.118.119.193.16a.82.82 0 0 0 .48.103.59.59 0 0 0 .44-.24.747.747 0 0 0 .13-.301l.257-1.208zM41.706 54.053a1.387 1.387 0 0 1-.465.359 1.656 1.656 0 0 1-.584.15 2.27 2.27 0 0 1-1.216-.254 1.633 1.633 0 0 1-.473-.365 1.323 1.323 0 0 1-.282-.506 1.27 1.27 0 0 1-.01-.64l.625-2.942.974.207-.585 2.753a.73.73 0 0 0-.005.325c.021.087.06.17.116.238a.67.67 0 0 0 .194.161.816.816 0 0 0 .48.102.594.594 0 0 0 .44-.24.738.738 0 0 0 .13-.298l.584-2.753.974.207-.62 2.914c-.04.214-.132.416-.27.584l-.007-.002zM45.183 51.105c.21.038.408.122.583.244.143.103.263.239.345.395.08.15.126.313.14.483.015.172.003.347-.033.518a1.48 1.48 0 0 1-.196.484c-.192.306-.497.52-.846.595-.199.04-.405.038-.601-.008l-.84-.18-.331 1.557-.974-.207.909-4.273 1.844.392zm-1.265 1.656.717.152a.49.49 0 0 0 .422-.058.528.528 0 0 0 .188-.317.552.552 0 0 0-.04-.365.49.49 0 0 0-.365-.226l-.716-.152-.206.968v-.002z" fill="#989898" style="fill:color(display-p3 .5961 .5961 .5961);fill-opacity:1"/>
        <path opacity=".6" d="m94.796 60.73-.251-.053.082-.388-1.203-.256-.083.388-.25-.053.13-.613.173.037c.151-.161.28-.356.385-.585a3.35 3.35 0 0 0 .24-.716l1.005.214-.291 1.371.193.041-.13.613zm-.333-.711.244-1.145-.483-.103a2.755 2.755 0 0 1-.25.633 2.174 2.174 0 0 1-.315.444l.804.17zm2.195.706-.27-.057.293-1.374-.598-.127a72.272 72.272 0 0 1-.108.424 3.55 3.55 0 0 1-.114.376 1.18 1.18 0 0 1-.11.224.594.594 0 0 1-.22.207.34.34 0 0 1-.123.042.382.382 0 0 1-.133-.006 2.697 2.697 0 0 1-.131-.031l.05-.235.014.003a.525.525 0 0 1 .068.018.265.265 0 0 0 .073.004.135.135 0 0 0 .07-.023.535.535 0 0 0 .17-.218c.053-.107.108-.267.163-.48l.069-.276.076-.306 1.101.234-.34 1.6zm1.879.4-.27-.058.135-.635-.317-.067-.63.53-.317-.068.68-.546a.59.59 0 0 1-.267-.24.49.49 0 0 1-.03-.33.4.4 0 0 1 .103-.205.485.485 0 0 1 .389-.145c.077.003.16.013.248.032l.616.13-.34 1.601zm-.09-.905.115-.539-.34-.072a1.282 1.282 0 0 0-.16-.026.328.328 0 0 0-.115.016.205.205 0 0 0-.101.068.267.267 0 0 0-.05.11.433.433 0 0 0-.012.131.22.22 0 0 0 .05.107c.029.035.068.063.116.084.049.02.104.038.166.05l.331.071zm-19.509-1.03c-.055.26-.166.452-.332.575a.697.697 0 0 1-.585.112.7.7 0 0 1-.492-.341c-.1-.18-.123-.4-.068-.66.055-.26.166-.453.33-.575a.699.699 0 0 1 .59-.113.695.695 0 0 1 .488.342c.102.179.125.4.07.66zm-.278-.06c.044-.207.037-.369-.023-.486a.419.419 0 0 0-.306-.224.422.422 0 0 0-.374.08c-.101.082-.174.228-.218.435-.043.2-.034.361.025.483.059.12.161.196.306.227.144.03.267.003.37-.082.104-.086.177-.23.22-.432zm1.984 1.258-.27-.057.291-1.369-.8-.17-.291 1.368-.27-.057.34-1.6 1.34.285-.34 1.6zm2.115-.976-.579-.123-.29 1.364-.27-.057.29-1.364-.578-.123.05-.237 1.427.303-.05.237zm1.455 1.735-.266-.057.255-1.202-1.094 1.024-.243-.052.34-1.6.267.056-.252 1.185 1.081-1.008.252.053-.34 1.6zm2.162.46-.266-.057.268-1.264-.573.738-.2-.043-.221-.906-.269 1.264-.252-.054.34-1.6.326.069.245.988.611-.806.331.07-.34 1.6zm1.996.424-.266-.057.255-1.202-1.094 1.024-.243-.052.34-1.6.266.056-.251 1.185 1.081-1.008.252.053-.34 1.6zm1.858-.074a.405.405 0 0 1-.112.214.49.49 0 0 1-.19.117.771.771 0 0 1-.233.036c-.082 0-.162-.008-.24-.024a1.477 1.477 0 0 1-.586-.26l.062-.295.019.004a.74.74 0 0 0 .236.199c.101.056.202.095.303.117.048.01.098.016.15.018.053.001.1-.004.142-.016a.319.319 0 0 0 .113-.062.223.223 0 0 0 .064-.124.243.243 0 0 0-.006-.145.215.215 0 0 0-.078-.097.437.437 0 0 0-.136-.062 2.236 2.236 0 0 0-.15-.038l-.234-.05.05-.232.161.034c.039.009.089.018.15.028.063.01.115.013.156.009a.289.289 0 0 0 .132-.044c.036-.023.06-.067.074-.132a.175.175 0 0 0-.01-.118.237.237 0 0 0-.072-.087.42.42 0 0 0-.112-.058 1.076 1.076 0 0 0-.41-.054.688.688 0 0 0-.26.063l-.018-.004.063-.297c.085-.009.174-.012.268-.009.094.003.187.014.278.034.074.016.147.038.218.067.071.03.135.067.193.113a.435.435 0 0 1 .126.166.35.35 0 0 1 .016.22.347.347 0 0 1-.126.205.439.439 0 0 1-.238.091l-.002.01a.453.453 0 0 1 .206.185c.045.077.056.17.033.278zm1.691.828-.268-.057.036-.17a4.682 4.682 0 0 0-.112.048.788.788 0 0 1-.298.065.833.833 0 0 1-.21-.02.524.524 0 0 1-.336-.222.494.494 0 0 1-.073-.397.518.518 0 0 1 .14-.277.536.536 0 0 1 .261-.13 1.23 1.23 0 0 1 .37-.014c.14.014.289.034.447.06l.009-.042a.321.321 0 0 0-.001-.159.236.236 0 0 0-.072-.114.391.391 0 0 0-.128-.074 1.139 1.139 0 0 0-.408-.069c-.09 0-.186.008-.286.024l-.014-.003.058-.274c.056-.003.135-.003.238.001.103.004.203.016.3.037.112.024.208.054.287.09.08.037.146.084.197.142.051.056.085.123.102.2a.644.644 0 0 1-.008.269l-.231 1.086zm-.184-.451.095-.446a11.485 11.485 0 0 0-.296-.04 1.537 1.537 0 0 0-.272-.014.44.44 0 0 0-.21.063.257.257 0 0 0-.112.175c-.02.092-.007.167.039.226.046.057.125.098.239.122.094.02.185.02.27.001.087-.02.169-.05.247-.087zm2.09.856-1.27-.27.34-1.6.27.057-.291 1.368.788.168.29-1.368.27.057-.29 1.368.193.041-.131.616-.251-.053.082-.384zm2.087.444-.266-.057.255-1.202-1.094 1.024-.243-.052.34-1.6.266.056-.251 1.185 1.081-1.008.252.053-.34 1.6zm1.997.424-.266-.056.255-1.202-1.093 1.024-.244-.052.34-1.6.267.056-.252 1.185 1.081-1.009.252.054-.34 1.6zm-11.5-.803a.664.664 0 0 1 .1.276.998.998 0 0 1-.02.345.87.87 0 0 1-.34.549.702.702 0 0 1-.58.124.786.786 0 0 1-.274-.112.577.577 0 0 1-.188-.21.917.917 0 0 1-.099-.379 2.467 2.467 0 0 1 .108-.733c.023-.073.057-.159.103-.257.038-.084.084-.164.137-.238a.683.683 0 0 1 .174-.172.754.754 0 0 1 .307-.11 1.74 1.74 0 0 1 .466.006l.214.03.177.024-.052.248-.19-.029a6.094 6.094 0 0 0-.187-.024 1.7 1.7 0 0 0-.345-.01.514.514 0 0 0-.24.068.489.489 0 0 0-.158.175c-.042.075-.075.15-.098.221.083-.036.17-.062.263-.079a.784.784 0 0 1 .535.105c.076.047.139.108.187.182zm-.197.578c.038-.176.023-.317-.043-.422a.458.458 0 0 0-.309-.204.737.737 0 0 0-.247-.01c-.082.01-.162.029-.24.058a1.64 1.64 0 0 0-.088.583c.005.11.027.2.064.272a.4.4 0 0 0 .12.14c.047.032.1.055.16.067.144.031.268.003.371-.084.104-.087.174-.22.212-.4zm1.999 1.23-.267-.056.256-1.202-1.094 1.024-.244-.052.34-1.6.267.056-.252 1.185 1.082-1.008.252.053-.34 1.6zm1.857-.073a.405.405 0 0 1-.111.214.49.49 0 0 1-.191.117.774.774 0 0 1-.233.036c-.081 0-.162-.007-.24-.024a1.477 1.477 0 0 1-.586-.26l.063-.295.018.004a.738.738 0 0 0 .237.199c.1.056.202.095.303.117.048.01.098.016.15.018.053.001.1-.004.142-.016a.319.319 0 0 0 .113-.062.223.223 0 0 0 .064-.124.242.242 0 0 0-.007-.145.215.215 0 0 0-.078-.097.436.436 0 0 0-.135-.062 2.298 2.298 0 0 0-.15-.038l-.234-.05.049-.232.162.035c.038.008.088.017.15.027.063.01.114.013.155.009a.289.289 0 0 0 .132-.044c.036-.023.061-.067.075-.132a.175.175 0 0 0-.011-.118.238.238 0 0 0-.071-.087.417.417 0 0 0-.112-.058 1.08 1.08 0 0 0-.41-.054.688.688 0 0 0-.26.063l-.019-.004.063-.297c.085-.009.174-.012.269-.009.094.003.186.015.277.034.075.016.147.038.218.067.072.03.136.067.193.113a.435.435 0 0 1 .126.166.35.35 0 0 1 .017.22.347.347 0 0 1-.126.205.438.438 0 0 1-.238.091l-.002.01a.453.453 0 0 1 .206.185c.044.077.055.17.032.278zm1.788.849-.27-.058.153-.72-.8-.17-.154.72-.27-.057.341-1.6.27.057-.138.647.8.17.138-.647.27.057-.34 1.6zm2.152-.35-1.179-.25a.703.703 0 0 0-.01.267.497.497 0 0 0 .238.345.731.731 0 0 0 .219.083.915.915 0 0 0 .342.005.835.835 0 0 0 .263-.079l.015.003-.063.294a2.28 2.28 0 0 1-.298.037c-.1.006-.202-.002-.306-.025-.266-.056-.458-.172-.576-.347-.119-.176-.15-.396-.094-.66.056-.262.171-.455.346-.578a.752.752 0 0 1 .614-.111c.216.046.369.144.458.295.091.151.112.343.062.575l-.03.146zm-.218-.262a.485.485 0 0 0-.038-.351c-.053-.092-.151-.154-.295-.184a.48.48 0 0 0-.372.054.507.507 0 0 0-.212.286l.917.195zm1.8 1.3c-.122.028-.224.044-.307.046a1.004 1.004 0 0 1-.552-.138.683.683 0 0 1-.326-.504 1.098 1.098 0 0 1 .021-.38c.055-.255.169-.444.342-.566.174-.122.384-.157.63-.105.092.02.18.052.263.096.085.045.16.094.227.147l-.064.3-.016-.004a1.055 1.055 0 0 0-.231-.206.721.721 0 0 0-.24-.102.463.463 0 0 0-.406.081c-.11.089-.185.228-.225.418-.04.19-.029.347.036.47a.465.465 0 0 0 .338.237.773.773 0 0 0 .337-.01 1.166 1.166 0 0 0 .22-.08l.015.004-.063.296zm1.709.469-.268-.057.036-.171a4.762 4.762 0 0 0-.112.048.793.793 0 0 1-.508.045.523.523 0 0 1-.337-.221.494.494 0 0 1-.073-.398.518.518 0 0 1 .14-.277.537.537 0 0 1 .261-.13 1.23 1.23 0 0 1 .37-.013c.14.014.289.034.447.06l.01-.042a.321.321 0 0 0-.001-.16.236.236 0 0 0-.072-.113.392.392 0 0 0-.128-.074 1.126 1.126 0 0 0-.408-.069c-.09 0-.186.008-.286.023l-.015-.003.058-.273c.056-.004.135-.003.238 0 .103.005.203.017.3.037.112.024.208.055.287.091.08.036.146.083.198.141.05.057.084.124.101.2a.644.644 0 0 1-.008.27l-.23 1.086zm-.185-.451.095-.446a11.058 11.058 0 0 0-.295-.04 1.527 1.527 0 0 0-.273-.015.44.44 0 0 0-.21.063.257.257 0 0 0-.112.176c-.02.091-.006.166.04.225.045.058.125.099.238.123.095.02.185.02.271 0 .087-.02.168-.05.246-.087z" fill="#989898" style="fill:color(display-p3 .5961 .5961 .5961);fill-opacity:1"/>
        <path stroke="#D7D7D7" style="stroke:color(display-p3 .8417 .8417 .8417);stroke-opacity:1" stroke-width=".5" d="m26.349 55.748 70.426 14.969"/>
    </g>
    <rect x="8.938" y="37" width="96" height="96" rx="12" fill="#fff" style="fill:#fff;fill-opacity:1"/>
    <path d="m22.112 51.051-.49.575v1.22h-.99V48.49h.99v1.701l1.418-1.701h1.17l-1.445 1.77 1.518 2.585h-1.157l-1.016-1.795.002.002zM25.767 48.489v4.357h-.988V48.49h.988zM29.902 51.569c.005.199-.043.396-.137.572a1.247 1.247 0 0 1-.37.407 1.67 1.67 0 0 1-.547.248c-.216.055-.439.082-.662.082-.153 0-.306-.009-.457-.025a2.244 2.244 0 0 1-.426-.092 2.042 2.042 0 0 1-.407-.183 2.549 2.549 0 0 1-.401-.293l.554-.74a2 2 0 0 0 .55.326 1.6 1.6 0 0 0 .556.105c.114.002.23-.01.342-.039a.662.662 0 0 0 .22-.098.35.35 0 0 0 .118-.128.276.276 0 0 0 .034-.133.312.312 0 0 0-.048-.168.433.433 0 0 0-.157-.135 1.774 1.774 0 0 0-.295-.125 8.419 8.419 0 0 0-.458-.14 3.636 3.636 0 0 1-.529-.186 1.447 1.447 0 0 1-.39-.252.956.956 0 0 1-.238-.35 1.283 1.283 0 0 1-.081-.488 1.203 1.203 0 0 1 .115-.533c.076-.158.187-.295.324-.405a1.48 1.48 0 0 1 .498-.257 2.13 2.13 0 0 1 .633-.094c.247 0 .493.023.736.069.272.06.53.174.754.334l-.441.809a1.669 1.669 0 0 0-.556-.248 2.5 2.5 0 0 0-.507-.05.79.79 0 0 0-.383.08.276.276 0 0 0-.146.263c0 .053.015.106.047.15a.483.483 0 0 0 .158.13c.094.05.191.091.292.123.12.042.268.085.442.136.23.057.45.144.66.256.146.078.274.183.383.309a.91.91 0 0 1 .177.36c.03.13.045.265.043.4v.002zM30.494 48.489h2.991v.89h-2.002v.823h1.71v.89h-1.71v.859h2.002v.89h-2.99V48.49zM34.138 52.846V48.49h.976v3.464h2.033v.89h-3.009v.003zM37.55 48.489h2.99v.89H38.54v.823h1.71v.89h-1.71v.859h2.002v.89h-2.99V48.49zM42.793 51.379l.435-1.576.373-1.314h1.032l-1.363 4.355h-1.013l-1.374-4.355h1.056l.386 1.34.43 1.547h.036l.002.003zM23.474 58.366a1.927 1.927 0 0 1-.766.307c-.32.056-.646.04-.957-.05a1.76 1.76 0 0 1-.544-.252 1.338 1.338 0 0 1-.396-.434 1.226 1.226 0 0 1-.154-.625v-1.63a1.283 1.283 0 0 1 .534-1.074c.164-.122.347-.213.542-.268.197-.06.404-.09.612-.09.259 0 .517.039.766.11.236.062.456.18.642.34l-.483.78c-.13-.114-.286-.2-.453-.243a1.745 1.745 0 0 0-.447-.06.846.846 0 0 0-.25.04.737.737 0 0 0-.23.117.59.59 0 0 0-.173.208.681.681 0 0 0-.065.322v1.235c-.005.11.018.22.063.321.039.08.093.154.163.209.066.053.14.092.222.117a.817.817 0 0 0 .483.007.61.61 0 0 0 .229-.12v-.59h-.594v-.849h1.59v1.871c-.094.12-.207.223-.332.306l-.002-.005zM26.461 54.294c.209-.007.417.034.608.119.158.073.299.181.41.317.106.13.186.282.231.447.048.163.073.333.073.503 0 .117-.018.234-.05.345a1.459 1.459 0 0 1-.658.853l.771 1.782h-1.063l-.65-1.61h-.615v1.61h-.995v-4.366h1.94-.002zm-.945 1.875h.739a.498.498 0 0 0 .397-.142.523.523 0 0 0 .122-.347.466.466 0 0 0-.438-.493c-.027 0-.054 0-.083.002h-.74v.982l.003-.002zM31.65 57.28a1.287 1.287 0 0 1-.508 1.07 1.618 1.618 0 0 1-.537.266 2.343 2.343 0 0 1-1.283 0 1.64 1.64 0 0 1-.538-.266 1.268 1.268 0 0 1-.371-.443 1.366 1.366 0 0 1-.139-.627V55.64a1.22 1.22 0 0 1 .15-.622c.098-.17.231-.317.39-.432.163-.115.347-.202.54-.252a2.25 2.25 0 0 1 .605-.083c.206 0 .41.03.61.09.194.055.378.144.543.263.161.115.293.267.388.441.102.193.152.409.147.627v1.61h.002zm-.996-1.42a.749.749 0 0 0-.063-.322.594.594 0 0 0-.38-.326.82.82 0 0 0-.492 0 .67.67 0 0 0-.223.117.587.587 0 0 0-.163.209.747.747 0 0 0-.063.321v1.235c-.005.11.018.22.063.322.039.08.093.153.163.209a.67.67 0 0 0 .222.117.816.816 0 0 0 .492 0 .594.594 0 0 0 .38-.326.749.749 0 0 0 .064-.322V55.86zM35.605 57.9a1.384 1.384 0 0 1-.381.447 1.654 1.654 0 0 1-.54.27 2.265 2.265 0 0 1-1.242.005 1.633 1.633 0 0 1-.54-.26 1.323 1.323 0 0 1-.38-.437 1.27 1.27 0 0 1-.143-.624v-3.007h.995v2.814c-.002.11.018.22.064.319.038.08.093.154.163.209.066.053.14.092.222.117a.816.816 0 0 0 .492 0 .592.592 0 0 0 .38-.326.735.735 0 0 0 .064-.319v-2.814h.995v2.98c.005.217-.043.433-.143.626h-.006zM38.392 54.294a1.48 1.48 0 0 1 .621.117c.161.07.306.179.42.314.108.131.188.28.238.443.05.166.075.34.075.514 0 .175-.03.35-.091.515-.125.34-.379.612-.705.757a1.41 1.41 0 0 1-.59.117h-.858v1.591h-.995v-4.368h1.885zm-.893 1.882h.732a.49.49 0 0 0 .402-.145.528.528 0 0 0 .117-.349.552.552 0 0 0-.115-.349.49.49 0 0 0-.404-.144H37.5v.99-.003z" fill="#989898" style="fill:color(display-p3 .5961 .5961 .5961);fill-opacity:1"/>
    <path opacity=".6" d="M88.93 53.393h-.257v-.397h-1.23v.397h-.257v-.627h.177c.115-.189.2-.406.255-.652.057-.247.085-.497.085-.75h1.029v1.402h.197v.627zm-.474-.627v-1.17h-.493a2.75 2.75 0 0 1-.113.67 2.17 2.17 0 0 1-.215.5h.821zM90.75 53h-.275v-1.405h-.611a82.829 82.829 0 0 1-.018.438 3.518 3.518 0 0 1-.033.391 1.182 1.182 0 0 1-.062.242.593.593 0 0 1-.171.249.34.34 0 0 1-.112.066.383.383 0 0 1-.132.022 2.894 2.894 0 0 1-.134-.003v-.24h.014a.6.6 0 0 1 .07.003.263.263 0 0 0 .073-.01.136.136 0 0 0 .064-.039.536.536 0 0 0 .12-.247c.03-.116.05-.284.06-.504a60.154 60.154 0 0 0 .02-.6h1.127V53zm1.92 0h-.275v-.649h-.324l-.507.649h-.323l.55-.675a.59.59 0 0 1-.31-.179.49.49 0 0 1-.098-.318.4.4 0 0 1 .058-.221.487.487 0 0 1 .35-.223c.077-.013.16-.02.25-.02h.63V53zm-.275-.866v-.55h-.347c-.075 0-.13.002-.163.007a.327.327 0 0 0-.108.04.205.205 0 0 0-.085.087.267.267 0 0 0-.026.119c0 .054.005.097.016.13a.22.22 0 0 0 .07.094c.036.028.08.048.132.059.052.01.11.014.173.014h.338zm-19.297 3.049c0 .266-.068.477-.205.631a.698.698 0 0 1-.55.231.7.7 0 0 1-.551-.231c-.136-.154-.204-.365-.204-.631 0-.267.068-.477.204-.632a.699.699 0 0 1 .552-.233c.23 0 .413.078.55.233.136.155.204.365.204.632zm-.284 0c0-.212-.041-.37-.124-.472a.418.418 0 0 0-.346-.155.422.422 0 0 0-.349.155c-.082.102-.123.26-.123.472 0 .205.042.36.125.467a.417.417 0 0 0 .347.158.415.415 0 0 0 .344-.157c.084-.105.126-.261.126-.468zm2.202.817h-.276v-1.399h-.819V56h-.275v-1.636h1.37V56zm1.866-1.395h-.592V56h-.275v-1.395h-.592v-.241h1.459v.242zM78.666 56h-.273v-1.229L77.537 56h-.25v-1.636h.273v1.211l.848-1.211h.258V56zm2.21 0h-.272v-1.292l-.407.84h-.206l-.404-.84V56h-.258v-1.636h.333l.445.915.43-.915h.34V56zm2.04 0h-.272v-1.229L81.787 56h-.249v-1.636h.273v1.211l.848-1.211h.258V56zm1.802-.459c0 .092-.021.17-.064.233a.49.49 0 0 1-.163.154.772.772 0 0 1-.22.084c-.08.017-.16.026-.24.026a1.466 1.466 0 0 1-.627-.132v-.301h.02c.07.062.161.11.272.145.11.034.217.05.32.05a.9.9 0 0 0 .151-.012.467.467 0 0 0 .135-.046.321.321 0 0 0 .098-.083.223.223 0 0 0 .037-.135.242.242 0 0 0-.037-.14.215.215 0 0 0-.096-.08.435.435 0 0 0-.145-.032 2.28 2.28 0 0 0-.156-.006h-.238v-.237h.165c.04 0 .09-.002.152-.005a.6.6 0 0 0 .154-.023c.051-.017.091-.04.12-.07.03-.03.046-.079.046-.145a.175.175 0 0 0-.035-.113.239.239 0 0 0-.088-.07.421.421 0 0 0-.122-.034 1.075 1.075 0 0 0-.412.032.685.685 0 0 0-.241.116h-.02v-.303c.082-.027.169-.048.262-.065.092-.016.185-.025.278-.025.076 0 .152.007.227.02a.768.768 0 0 1 .212.071.438.438 0 0 1 .159.136.35.35 0 0 1 .061.211.348.348 0 0 1-.08.227.439.439 0 0 1-.214.14v.01c.1.024.18.07.24.137s.09.155.09.265zm1.827.459h-.274v-.174c-.025.016-.058.04-.1.07a.788.788 0 0 1-.278.126.832.832 0 0 1-.21.023.523.523 0 0 1-.375-.146.493.493 0 0 1-.153-.374c0-.124.026-.224.079-.3a.535.535 0 0 1 .228-.181c.1-.044.22-.074.36-.09.139-.016.289-.027.449-.035v-.042a.321.321 0 0 0-.034-.156.235.235 0 0 0-.094-.096.391.391 0 0 0-.14-.046 1.131 1.131 0 0 0-.413.018 1.81 1.81 0 0 0-.276.082H85.3v-.28c.053-.015.131-.03.233-.048.101-.018.201-.027.3-.027.115 0 .215.01.3.03.086.018.16.05.223.096a.432.432 0 0 1 .14.174c.033.072.049.16.049.266V56zm-.274-.403v-.455c-.084.005-.183.012-.297.022-.114.01-.204.023-.27.042a.44.44 0 0 0-.192.105.257.257 0 0 0-.073.195c0 .094.028.165.085.213.056.047.143.07.26.07a.623.623 0 0 0 .264-.056c.08-.038.154-.083.223-.136zm2.222.403h-1.298v-1.636h.276v1.399h.805v-1.4h.276v1.4h.197v.63h-.256V56zm2.134 0h-.272v-1.229L89.498 56h-.25v-1.636h.273v1.211l.848-1.211h.258V56zm2.042 0h-.272v-1.229L91.54 56h-.25v-1.636h.273v1.211l.848-1.211h.258V56zm-11.416 1.605c.068.069.12.152.155.25.035.096.053.21.053.34a.87.87 0 0 1-.22.609.702.702 0 0 1-.54.241.787.787 0 0 1-.292-.052.577.577 0 0 1-.227-.166.913.913 0 0 1-.176-.35 2.016 2.016 0 0 1-.057-.517 2.046 2.046 0 0 1 .142-.757.685.685 0 0 1 .135-.204.756.756 0 0 1 .277-.171c.115-.044.267-.075.457-.091a893.193 893.193 0 0 0 .394-.03v.254l-.192.012a5.913 5.913 0 0 0-.188.014c-.125.011-.238.032-.34.062-.1.03-.174.07-.22.117a.49.49 0 0 0-.118.204 1.256 1.256 0 0 0-.05.237c.074-.053.154-.097.24-.132a.784.784 0 0 1 .545-.009c.085.03.16.077.222.14zm-.072.607c0-.18-.044-.316-.13-.404a.457.457 0 0 0-.345-.135.734.734 0 0 0-.244.04 1.013 1.013 0 0 0-.223.108 1.642 1.642 0 0 0 .035.589.66.66 0 0 0 .12.252.4.4 0 0 0 .147.112c.053.022.11.033.17.033a.414.414 0 0 0 .345-.16c.083-.106.125-.252.125-.435zm2.21.788h-.272v-1.229L82.262 59h-.25v-1.636h.273v1.211l.848-1.211h.258V59zm1.802-.459c0 .092-.022.17-.065.233a.49.49 0 0 1-.162.154.77.77 0 0 1-.22.084c-.08.017-.16.026-.24.026a1.466 1.466 0 0 1-.627-.132v-.301h.019c.071.062.162.11.272.145.11.034.218.05.321.05a.9.9 0 0 0 .151-.012.466.466 0 0 0 .135-.046.32.32 0 0 0 .098-.083.223.223 0 0 0 .037-.135.242.242 0 0 0-.037-.14.215.215 0 0 0-.097-.08.435.435 0 0 0-.145-.032 2.28 2.28 0 0 0-.155-.006h-.239v-.237h.166c.039 0 .09-.002.152-.005a.599.599 0 0 0 .154-.023c.05-.017.09-.04.12-.07.03-.03.045-.079.045-.145a.175.175 0 0 0-.035-.113.237.237 0 0 0-.088-.07.421.421 0 0 0-.121-.034 1.075 1.075 0 0 0-.412.032.685.685 0 0 0-.242.116h-.018v-.303c.08-.027.167-.048.26-.065.093-.016.186-.025.279-.025.076 0 .151.007.227.02a.768.768 0 0 1 .212.071.437.437 0 0 1 .158.136.35.35 0 0 1 .062.211.348.348 0 0 1-.08.227.439.439 0 0 1-.215.14v.01c.1.024.18.07.24.137s.09.155.09.265zm1.925.459h-.276v-.737h-.819V59h-.275v-1.636h.275v.662h.82v-.662h.275V59zm2.033-.79h-1.206c0 .101.015.189.046.264a.493.493 0 0 0 .304.289c.07.023.148.035.232.035a.915.915 0 0 0 .335-.066.838.838 0 0 0 .242-.132h.014v.3c-.092.04-.187.072-.284.099-.097.026-.198.04-.305.04-.271 0-.483-.074-.635-.22-.153-.148-.229-.357-.229-.628 0-.267.073-.48.218-.637a.752.752 0 0 1 .578-.236c.22 0 .39.065.51.194s.18.312.18.549v.15zm-.268-.21a.485.485 0 0 0-.11-.336c-.072-.079-.18-.119-.327-.119a.48.48 0 0 0-.353.13.508.508 0 0 0-.148.325h.938zm2.03.898a1.582 1.582 0 0 1-.29.108 1.007 1.007 0 0 1-.568-.02.683.683 0 0 1-.424-.426 1.1 1.1 0 0 1-.059-.376c0-.26.073-.469.217-.624.145-.156.343-.234.593-.234.095 0 .188.013.279.04.092.026.175.058.252.096v.306h-.016c-.091-.07-.181-.12-.27-.154a.724.724 0 0 0-.256-.05.463.463 0 0 0-.38.164c-.088.11-.133.262-.133.456s.044.345.133.453a.465.465 0 0 0 .38.16.776.776 0 0 0 .328-.08 1.154 1.154 0 0 0 .198-.123h.016v.303zm1.77.102h-.275v-.174l-.1.07a.79.79 0 0 1-.278.126.833.833 0 0 1-.21.023.523.523 0 0 1-.374-.146.493.493 0 0 1-.154-.374c0-.124.026-.224.08-.3a.535.535 0 0 1 .228-.181c.1-.044.219-.074.359-.09.14-.016.289-.027.45-.035v-.042a.32.32 0 0 0-.035-.156.235.235 0 0 0-.093-.096.39.39 0 0 0-.14-.046 1.13 1.13 0 0 0-.413.018 1.81 1.81 0 0 0-.276.082h-.015v-.28c.054-.015.131-.03.233-.048.102-.018.202-.027.3-.027.115 0 .216.01.3.03.086.018.16.05.223.096a.432.432 0 0 1 .14.174c.033.072.05.16.05.266V59zm-.275-.403v-.455c-.084.005-.183.012-.297.022-.113.01-.203.023-.27.042a.44.44 0 0 0-.192.105.257.257 0 0 0-.073.195c0 .094.029.165.085.213.057.047.143.07.26.07a.623.623 0 0 0 .264-.056c.08-.038.155-.083.223-.136z" fill="#989898" style="fill:color(display-p3 .5961 .5961 .5961);fill-opacity:1"/>
    <path stroke="#D7D7D7" style="stroke:color(display-p3 .8417 .8417 .8417);stroke-opacity:1" stroke-width=".5" d="M20.941 62.75h72"/>
    <path d="M20.358 95.815c.273-.202.586-.352.938-.45a4.01 4.01 0 0 1 1.143-.156c.345 0 .661.042.948.127.286.085.534.218.742.4.209.176.372.401.489.675.117.267.176.586.176.957v2.521c0 .365-.072.684-.215.958a2.1 2.1 0 0 1-.567.674 2.447 2.447 0 0 1-.81.411 3.342 3.342 0 0 1-.959.136 4.07 4.07 0 0 1-1.152-.166 2.568 2.568 0 0 1-.939-.498l.655-1.026a1.7 1.7 0 0 0 .694.381c.247.059.485.088.713.088.17 0 .33-.023.479-.068.15-.046.28-.118.39-.215.112-.098.2-.222.265-.372.065-.156.097-.345.097-.566v-.548h-2.227v-1.133h2.227v-.283c0-.222-.029-.41-.087-.567a.953.953 0 0 0-.635-.596 1.54 1.54 0 0 0-.47-.069 2.057 2.057 0 0 0-1.28.43l-.615-1.045zm7.658 2.394V102h-1.24v-3.791h-1.379v-1.046h3.997v1.046h-1.378zm4.826 3.39c-.293.17-.557.287-.792.352a2.691 2.691 0 0 1-.654.088c-.495 0-.88-.13-1.153-.391-.267-.267-.4-.628-.4-1.084 0-.267.055-.492.165-.675.111-.188.251-.342.42-.459.176-.117.368-.202.577-.254a2.46 2.46 0 0 1 .596-.078h1.25v-.205c0-.228-.064-.398-.195-.508-.13-.118-.361-.176-.694-.176-.156 0-.351.022-.586.068-.228.046-.459.163-.694.352l-.556-.909c.338-.26.677-.43 1.016-.508a4.32 4.32 0 0 1 .948-.117c.69 0 1.198.156 1.524.469.326.313.488.785.488 1.417V102H32.96l-.088-.391-.03-.01zm.02-1.583h-1.036c-.079 0-.157.007-.235.02a.473.473 0 0 0-.205.068.417.417 0 0 0-.205.381c0 .131.045.238.137.323.097.078.24.117.43.117.208 0 .413-.039.615-.117.202-.085.368-.163.498-.235v-.557zM38.053 102v-3.762h-1.74V102h-1.24v-4.847h4.23V102h-1.25zm6.754 0v-4.837h1.231V102h-1.23zm-3.312-1.026h1.026c.221 0 .384-.049.488-.147a.496.496 0 0 0 .157-.381.485.485 0 0 0-.157-.351c-.097-.111-.26-.166-.488-.166h-1.026v1.045zM40.274 102v-4.837h1.222v1.759h1.133c.554 0 .98.137 1.28.41.306.274.46.645.46 1.114 0 .196-.033.388-.098.577a1.468 1.468 0 0 1-.303.498 1.53 1.53 0 0 1-.538.352 2.1 2.1 0 0 1-.772.127h-2.384zm-15.607 8.31c0 .527-.144.954-.43 1.28-.287.319-.71.478-1.27.478-.17 0-.372-.016-.606-.048a2.14 2.14 0 0 1-.694-.235v2.15h-1.24v-6.762h1.142l.098.44c.274-.17.53-.293.772-.372a2.06 2.06 0 0 1 .616-.117c.52 0 .918.143 1.192.43.28.287.42.733.42 1.339v1.417zm-1.26-1.31c0-.28-.06-.469-.177-.567a.625.625 0 0 0-.43-.156c-.078 0-.166.013-.263.039a2.546 2.546 0 0 0-.596.225 1.964 1.964 0 0 0-.274.156v1.925c.221.104.414.176.576.215.163.033.32.049.47.049a.712.712 0 0 0 .488-.156c.137-.111.205-.303.205-.577V109zm5.055 2.599a3.46 3.46 0 0 1-.791.352 2.692 2.692 0 0 1-.655.088c-.495 0-.88-.13-1.153-.391-.267-.267-.4-.628-.4-1.084 0-.267.054-.492.165-.675.111-.189.251-.342.42-.459.176-.117.369-.202.577-.254.208-.052.407-.078.596-.078h1.25v-.205c0-.228-.064-.398-.195-.508-.13-.118-.361-.176-.694-.176-.156 0-.351.022-.586.068-.228.046-.459.163-.694.352l-.556-.909c.338-.26.677-.43 1.016-.508.345-.078.66-.117.948-.117.69 0 1.198.156 1.524.469.326.312.488.785.488 1.417V112H28.58l-.088-.391-.029-.01zm.02-1.583h-1.036c-.078 0-.157.007-.235.02a.473.473 0 0 0-.205.068.417.417 0 0 0-.205.381c0 .131.045.238.137.323.097.078.24.117.43.117.208 0 .413-.039.615-.117a5.34 5.34 0 0 0 .498-.235v-.557zm3.492-2.335a1.09 1.09 0 0 1 .225-.137c.084-.039.172-.071.263-.097.091-.033.183-.056.274-.069a2.344 2.344 0 0 1 1.016.098c.235.071.433.182.596.332.163.15.29.342.381.577.092.234.137.508.137.82v1.017c0 .299-.059.563-.176.791-.117.228-.273.42-.469.577a2.14 2.14 0 0 1-.684.342 2.748 2.748 0 0 1-.81.117c-.314 0-.6-.039-.86-.117a2.025 2.025 0 0 1-.675-.342 1.661 1.661 0 0 1-.43-.577 1.995 1.995 0 0 1-.146-.791v-1.173c0-.345.012-.658.039-.938.026-.28.068-.534.127-.762.058-.228.136-.433.234-.616.104-.189.231-.365.381-.527.104-.118.225-.222.362-.313a4.67 4.67 0 0 1 .43-.254 5.9 5.9 0 0 1 .459-.215c.163-.065.322-.127.479-.186.195-.078.371-.146.527-.205.157-.059.33-.134.518-.225l.41.997-.322.137c-.091.039-.179.075-.264.107l-.234.098a10.934 10.934 0 0 0-.801.332 2.303 2.303 0 0 0-.48.284 1.505 1.505 0 0 0-.36.371 1.355 1.355 0 0 0-.186.518l.039.029zm1.66 1.681c0-.306-.087-.525-.263-.655a.947.947 0 0 0-.616-.205.967.967 0 0 0-.322.058.737.737 0 0 0-.283.167.785.785 0 0 0-.206.273.936.936 0 0 0-.078.401v.664c0 .157.023.287.069.391a.908.908 0 0 0 .195.264.8.8 0 0 0 .274.147 1.368 1.368 0 0 0 .654 0 .897.897 0 0 0 .294-.147.83.83 0 0 0 .205-.264.868.868 0 0 0 .078-.391v-.703zm6.299.918c0 .3-.062.56-.186.782a1.65 1.65 0 0 1-.479.557c-.195.143-.42.251-.674.322a2.888 2.888 0 0 1-1.573 0 2.196 2.196 0 0 1-.684-.322 1.694 1.694 0 0 1-.47-.557 1.65 1.65 0 0 1-.175-.782v-1.397c0-.3.059-.56.176-.782.124-.221.283-.404.479-.547.202-.15.43-.261.684-.332.26-.078.524-.117.791-.117.287 0 .557.039.811.117.26.071.485.182.674.332.196.15.349.339.46.567.11.221.166.482.166.781v1.378zm-1.241-1.182a.871.871 0 0 0-.078-.391.722.722 0 0 0-.206-.254.691.691 0 0 0-.283-.147.967.967 0 0 0-.303-.048c-.104 0-.212.016-.322.048a.69.69 0 0 0-.284.147.722.722 0 0 0-.205.254.871.871 0 0 0-.078.391v.957c0 .157.023.29.068.401a.83.83 0 0 0 .206.264c.084.065.179.114.283.147.104.026.215.039.332.039.104 0 .205-.013.303-.039a.916.916 0 0 0 .283-.147.83.83 0 0 0 .206-.264.936.936 0 0 0 .078-.401v-.957zm4.344-.889V112h-1.241v-3.791h-1.378v-1.046h3.996v1.046h-1.377zM49.493 112v-4.837h1.232V112h-1.232zm-3.312-1.026h1.026c.221 0 .384-.049.489-.147a.496.496 0 0 0 .156-.381.485.485 0 0 0-.156-.351c-.098-.111-.261-.167-.49-.167h-1.025v1.046zM44.96 112v-4.837h1.22v1.759h1.134c.554 0 .98.137 1.28.41.307.274.46.645.46 1.114 0 .196-.033.388-.098.577a1.468 1.468 0 0 1-.303.498 1.53 1.53 0 0 1-.537.352 2.1 2.1 0 0 1-.772.127h-2.385zm-21.554 10v-3.762h-1.739V122h-1.24v-4.847h4.23V122h-1.25zm6.383-1.72c0 .3-.062.56-.185.782a1.647 1.647 0 0 1-.48.557c-.195.143-.42.251-.673.322a2.89 2.89 0 0 1-1.573 0 2.196 2.196 0 0 1-.685-.322 1.694 1.694 0 0 1-.469-.557 1.649 1.649 0 0 1-.175-.782v-1.397c0-.3.058-.56.175-.782.124-.221.284-.404.48-.547.201-.15.43-.261.683-.332.26-.078.525-.117.792-.117.286 0 .557.039.81.117.261.071.486.182.675.332.195.15.348.339.46.567.11.221.165.482.165.781v1.378zm-1.24-1.182a.87.87 0 0 0-.079-.391.722.722 0 0 0-.205-.254.69.69 0 0 0-.283-.147.967.967 0 0 0-.303-.048c-.105 0-.212.016-.323.048a.691.691 0 0 0-.283.147.722.722 0 0 0-.205.254.871.871 0 0 0-.078.391v.957c0 .157.022.29.068.401a.83.83 0 0 0 .205.264c.085.065.18.114.283.147.105.026.215.039.333.039.104 0 .205-.013.303-.039a.914.914 0 0 0 .283-.147.83.83 0 0 0 .205-.264.934.934 0 0 0 .078-.401v-.957zm8.74 1.446c0 .202-.033.391-.098.567a1.292 1.292 0 0 1-.303.469c-.13.13-.297.234-.498.313a2.033 2.033 0 0 1-.694.107h-2.55v-4.837h2.53c.254 0 .476.036.665.108.195.065.355.156.478.273.13.117.225.258.284.42.065.157.097.326.097.509 0 .104-.016.208-.048.312a1.198 1.198 0 0 1-.137.293 1.396 1.396 0 0 1-.205.235.857.857 0 0 1-.245.146v.01a1.127 1.127 0 0 1 .723 1.075zm-1.27-.049c0-.15-.053-.27-.157-.361a.612.612 0 0 0-.42-.137h-1.056v.997h1.026c.209 0 .362-.046.46-.137a.472.472 0 0 0 .146-.362zm-.06-1.886a.363.363 0 0 0-.146-.312.584.584 0 0 0-.371-.108h-1.056v.821h1.075c.163 0 .287-.036.372-.108a.362.362 0 0 0 .127-.293zM41.175 122v-1.935h-1.779V122h-1.221v-4.837h1.221v1.857h1.779v-1.857h1.25V122h-1.25zm3.421-2.052v.156c0 .144.023.267.069.372a.777.777 0 0 0 .195.254.89.89 0 0 0 .283.146c.105.033.215.049.333.049.136 0 .306-.019.508-.058.202-.046.417-.16.645-.342l.684.85c-.15.143-.3.26-.45.351-.15.085-.3.153-.45.206-.15.045-.302.075-.458.088-.15.019-.303.029-.46.029-.286 0-.56-.036-.82-.108a2.077 2.077 0 0 1-.675-.322 1.694 1.694 0 0 1-.469-.557 1.672 1.672 0 0 1-.176-.792v-1.25c0-.3.052-.567.157-.802.11-.241.26-.443.45-.605a1.97 1.97 0 0 1 .654-.372c.247-.084.514-.127.801-.127.3 0 .576.043.83.127.255.085.473.209.655.372.183.156.326.351.43.586.104.234.157.502.157.801v.948h-2.893zm1.652-.909c0-.273-.082-.472-.245-.596a.896.896 0 0 0-.576-.195.854.854 0 0 0-.587.215c-.162.143-.244.348-.244.615v.059h1.652v-.098zm3.945-.85-.058.948c-.02.332-.052.658-.098.977a2.3 2.3 0 0 1-.264.821h1.876v-2.746h-1.456zm-2.208 2.756h.186c.065 0 .127-.004.185-.01.176-.13.31-.329.401-.596.098-.274.17-.583.215-.928.046-.352.075-.72.088-1.105l.059-1.143h3.732v3.772h.46v2.326h-1.105V122H49.09v1.261h-1.104v-2.316zm10.31-.635c0 .527-.144.954-.43 1.28-.287.319-.71.478-1.271.478-.17 0-.371-.016-.606-.048a2.14 2.14 0 0 1-.694-.235v2.15h-1.24v-6.762h1.143l.097.44c.274-.17.531-.294.772-.372a2.06 2.06 0 0 1 .616-.117c.521 0 .918.143 1.192.43.28.287.42.733.42 1.339v1.417zM57.033 119c0-.28-.059-.469-.176-.567a.625.625 0 0 0-.43-.156c-.078 0-.166.013-.264.039a2.54 2.54 0 0 0-.596.225 1.964 1.964 0 0 0-.274.156v1.925c.222.104.414.176.577.215.163.033.32.049.469.049a.712.712 0 0 0 .488-.156c.137-.111.206-.303.206-.577V119zm3.345.948v.156c0 .144.023.267.069.372a.777.777 0 0 0 .195.254.89.89 0 0 0 .283.146c.105.033.215.049.333.049.136 0 .306-.019.508-.058.202-.046.417-.16.645-.342l.684.85c-.15.143-.3.26-.45.351-.15.085-.3.153-.45.206-.149.045-.302.075-.459.088-.15.019-.302.029-.459.029-.286 0-.56-.036-.82-.108a2.077 2.077 0 0 1-.675-.322 1.694 1.694 0 0 1-.469-.557 1.672 1.672 0 0 1-.176-.792v-1.25c0-.3.053-.567.157-.802.11-.241.26-.443.45-.605a1.97 1.97 0 0 1 .654-.372c.247-.084.514-.127.801-.127.3 0 .577.043.83.127.255.085.473.209.655.372.183.156.326.351.43.586.104.234.157.502.157.801v.948h-2.893zm1.652-.909c0-.273-.082-.472-.245-.596a.896.896 0 0 0-.576-.195.854.854 0 0 0-.586.215c-.163.143-.245.348-.245.615v.059h1.652v-.098zM67.149 122v-1.935h-1.778V122h-1.222v-4.837h1.222v1.857h1.778v-1.857h1.25V122h-1.25zm5.22-2.873-.821 1.261L70.463 122H69.38v-4.837h1.24v2.853h.05l.703-1.074 1.182-1.779h1.104V122h-1.24v-2.873h-.05zm8.1 1.173c0 .273-.051.521-.155.742a1.61 1.61 0 0 1-.43.548 1.94 1.94 0 0 1-.645.342 2.526 2.526 0 0 1-.782.117c-.287 0-.554-.039-.801-.117a2.053 2.053 0 0 1-.645-.352 1.588 1.588 0 0 1-.43-.557 1.725 1.725 0 0 1-.157-.743v-.215h-.556V122h-1.212v-4.837h1.212v1.866h.556v-.185a1.63 1.63 0 0 1 .616-1.29c.189-.15.404-.264.645-.342.248-.078.505-.117.772-.117.274 0 .53.039.772.117.247.078.462.192.645.342.182.15.326.332.43.547.11.215.166.459.166.733v1.466zm-1.22-1.241c0-.306-.079-.525-.235-.655a.843.843 0 0 0-.557-.195.908.908 0 0 0-.567.195c-.163.13-.244.349-.244.655v1.055c0 .293.078.505.234.635a.925.925 0 0 0 .577.186.88.88 0 0 0 .547-.186c.163-.13.244-.342.244-.635v-1.055z" fill="#46474E" style="fill:color(display-p3 .2745 .2784 .3059);fill-opacity:1"/>
    <g filter="url(#sxa8sl456b)">
        <path d="M61.944 53.661h-10c-4.382 0-7.21-.94-8.968-2.698s-2.699-4.587-2.699-8.968v-10c0-4.382.941-7.21 2.699-8.968 1.757-1.758 4.587-2.699 8.968-2.699h10c4.382 0 7.21.941 8.968 2.699 1.758 1.757 2.699 4.586 2.699 8.968v10c0 4.381-.941 7.21-2.699 8.968-1.757 1.758-4.587 2.698-8.968 2.698z" fill="#FFD66B" style="fill:color(display-p3 1 .8378 .4208);fill-opacity:1"/>
        <path d="M61.944 53.661h-10c-4.382 0-7.21-.94-8.968-2.698s-2.699-4.587-2.699-8.968v-10c0-4.382.941-7.21 2.699-8.968 1.757-1.758 4.587-2.699 8.968-2.699h10c4.382 0 7.21.941 8.968 2.699 1.758 1.757 2.699 4.586 2.699 8.968v10c0 4.381-.941 7.21-2.699 8.968-1.757 1.758-4.587 2.698-8.968 2.698z" fill="url(#hqwba4030c)"/>
        <path d="M61.944 53.661h-10c-4.382 0-7.21-.94-8.968-2.698s-2.699-4.587-2.699-8.968v-10c0-4.382.941-7.21 2.699-8.968 1.757-1.758 4.587-2.699 8.968-2.699h10c4.382 0 7.21.941 8.968 2.699 1.758 1.757 2.699 4.586 2.699 8.968v10c0 4.381-.941 7.21-2.699 8.968-1.757 1.758-4.587 2.698-8.968 2.698z" stroke="#fff" style="stroke:#fff;stroke-opacity:1" stroke-width="2.5"/>
        <path d="M54.576 42.962a1.25 1.25 0 0 1-.884-.367l-4.716-4.717a1.257 1.257 0 0 1 0-1.767 1.257 1.257 0 0 1 1.766 0l3.834 3.834 8.566-8.567a1.257 1.257 0 0 1 1.767 0 1.257 1.257 0 0 1 0 1.767l-9.45 9.45c-.233.233-.55.367-.883.367z" fill="#fff" style="fill:#fff;fill-opacity:1"/>
    </g>
    <defs>
        <linearGradient id="hqwba4030c" x1="56.944" y1="19.078" x2="56.944" y2="54.911" gradientUnits="userSpaceOnUse">
            <stop stop-color="#FFD66B" style="stop-color:color(display-p3 1 .8392 .4196);stop-opacity:1"/>
            <stop offset="1" stop-color="#FFA469" style="stop-color:color(display-p3 1 .6431 .4118);stop-opacity:1"/>
        </linearGradient>
        <clipPath id="mxejpe9yba">
            <rect x="19.965" y="28.07" width="96" height="96" rx="12" transform="rotate(12 19.965 28.07)" fill="#fff" style="fill:#fff;fill-opacity:1"/>
        </clipPath>
        <filter id="sxa8sl456b" x="11.938" y="-2" width="90" height="90" filterUnits="userSpaceOnUse" color-interpolation-filters="sRGB">
            <feFlood flood-opacity="0" result="BackgroundImageFix"/>
            <feColorMatrix in="SourceAlpha" values="0 0 0 0 0 0 0 0 0 0 0 0 0 0 0 0 0 0 127 0" result="hardAlpha"/>
            <feOffset dy="6"/>
            <feGaussianBlur stdDeviation="12.5"/>
            <feComposite in2="hardAlpha" operator="out"/>
            <feColorMatrix values="0 0 0 0 0.27451 0 0 0 0 0.278431 0 0 0 0 0.305882 0 0 0 0.38 0"/>
            <feBlend mode="multiply" in2="BackgroundImageFix" result="effect1_dropShadow_272_2398"/>
            <feBlend in="SourceGraphic" in2="effect1_dropShadow_272_2398" result="shape"/>
        </filter>
    </defs>
</svg>
