<svg width="24" height="24" viewBox="0 0 24 24" fill="none" xmlns="http://www.w3.org/2000/svg">
<path d="M14.9 22.75H9.10001C8.21001 22.75 7.07 22.28 6.45 21.65L2.35001 17.55C1.72001 16.92 1.25 15.78 1.25 14.9V9.10001C1.25 8.21001 1.72001 7.07001 2.35001 6.45001L6.45 2.35001C7.08 1.72001 8.22001 1.25 9.10001 1.25H14.9C15.79 1.25 16.93 1.72001 17.55 2.35001L21.65 6.45001C22.28 7.08001 22.75 8.22001 22.75 9.10001V14.9C22.75 15.79 22.28 16.93 21.65 17.55L17.55 21.65C16.92 22.28 15.79 22.75 14.9 22.75Z" fill="#FF6D3F" style="fill:#FF6D3F;fill:color(display-p3 1.0000 0.4291 0.2489);fill-opacity:1;"/>
<path d="M14.9 22.75H9.10001C8.21001 22.75 7.07 22.28 6.45 21.65L2.35001 17.55C1.72001 16.92 1.25 15.78 1.25 14.9V9.10001C1.25 8.21001 1.72001 7.07001 2.35001 6.45001L6.45 2.35001C7.08 1.72001 8.22001 1.25 9.10001 1.25H14.9C15.79 1.25 16.93 1.72001 17.55 2.35001L21.65 6.45001C22.28 7.08001 22.75 8.22001 22.75 9.10001V14.9C22.75 15.79 22.28 16.93 21.65 17.55L17.55 21.65C16.92 22.28 15.79 22.75 14.9 22.75Z" fill="url(#paint0_linear_252_1772)" style=""/>
<path d="M14.9 22.75H9.10001C8.21001 22.75 7.07 22.28 6.45 21.65L2.35001 17.55C1.72001 16.92 1.25 15.78 1.25 14.9V9.10001C1.25 8.21001 1.72001 7.07001 2.35001 6.45001L6.45 2.35001C7.08 1.72001 8.22001 1.25 9.10001 1.25H14.9C15.79 1.25 16.93 1.72001 17.55 2.35001L21.65 6.45001C22.28 7.08001 22.75 8.22001 22.75 9.10001V14.9C22.75 15.79 22.28 16.93 21.65 17.55L17.55 21.65C16.92 22.28 15.79 22.75 14.9 22.75Z" fill="url(#paint1_linear_252_1772)" style=""/>
<path d="M8.4975 16.2475C8.3075 16.2475 8.1175 16.1775 7.9675 16.0275C7.6775 15.7375 7.6775 15.2575 7.9675 14.9675L14.9675 7.9675C15.2575 7.6775 15.7375 7.6775 16.0275 7.9675C16.3175 8.2575 16.3175 8.7375 16.0275 9.0275L9.0275 16.0275C8.8775 16.1775 8.6875 16.2475 8.4975 16.2475Z" fill="white" style="fill:white;fill-opacity:1;"/>
<path d="M15.4975 16.2475C15.3075 16.2475 15.1175 16.1775 14.9675 16.0275L7.9675 9.0275C7.6775 8.7375 7.6775 8.2575 7.9675 7.9675C8.2575 7.6775 8.7375 7.6775 9.0275 7.9675L16.0275 14.9675C16.3175 15.2575 16.3175 15.7375 16.0275 16.0275C15.8775 16.1775 15.6875 16.2475 15.4975 16.2475Z" fill="white" style="fill:white;fill-opacity:1;"/>
<defs>
<linearGradient id="paint0_linear_252_1772" x1="12" y1="1.25" x2="12" y2="22.75" gradientUnits="userSpaceOnUse">
<stop stop-color="#FFA469" style="stop-color:#FFA469;stop-color:color(display-p3 1.0000 0.6431 0.4118);stop-opacity:1;"/>
<stop offset="1" stop-color="#FF6D3F" style="stop-color:#FF6D3F;stop-color:color(display-p3 1.0000 0.4275 0.2471);stop-opacity:1;"/>
</linearGradient>
<linearGradient id="paint1_linear_252_1772" x1="12" y1="1.25" x2="12" y2="22.75" gradientUnits="userSpaceOnUse">
<stop stop-color="#FFA469" style="stop-color:#FFA469;stop-color:color(display-p3 1.0000 0.6431 0.4118);stop-opacity:1;"/>
<stop offset="0.615" stop-color="#FF6D3F" style="stop-color:#FF6D3F;stop-color:color(display-p3 1.0000 0.4275 0.2471);stop-opacity:1;"/>
</linearGradient>
</defs>
</svg>
