<svg width="211" height="106" viewBox="0 0 211 106" fill="none" xmlns="http://www.w3.org/2000/svg">
<g clip-path="url(#clip0_252_1362)">
<path d="M12.9688 99.5781L15.6042 109.62H20.0384L22.1459 100.636L14.2619 100.031L12.9688 99.5781Z" fill="#585960" stroke="#585960" style="fill:#585960;fill:color(display-p3 0.3451 0.3490 0.3765);fill-opacity:1;stroke:#585960;stroke:color(display-p3 0.3451 0.3490 0.3765);stroke-opacity:1;" stroke-width="0.94901" stroke-miterlimit="10"/>
<path d="M193.035 100.414L190.721 109.626H186.292L184.18 100.643L191.419 100.526L193.035 100.414Z" fill="#585960" stroke="#585960" style="fill:#585960;fill:color(display-p3 0.3451 0.3490 0.3765);fill-opacity:1;stroke:#585960;stroke:color(display-p3 0.3451 0.3490 0.3765);stroke-opacity:1;" stroke-width="0.94901" stroke-miterlimit="10"/>
<path d="M19.7964 37.777C19.7964 37.777 3.95687 49.4056 2.21183 55.8251C0.462318 62.2446 2.65033 66.0371 5.70638 67.79C8.76691 69.5428 9.93027 69.8341 9.93027 69.8341C9.93027 69.8341 11.0936 98.7219 12.2615 100.035C13.4248 101.349 14.8835 101.349 14.8835 101.349H193.866C193.866 101.349 195.32 102.08 195.32 98.2825C195.32 94.4855 196.922 72.4566 197.213 70.8518C197.504 69.2469 205.952 65.5978 205.661 59.3263C205.37 53.0502 198.963 49.4056 198.963 49.4056L185.128 35.8359C185.128 35.8359 174.496 36.858 173.185 40.7985C171.874 44.7389 171.874 46.9266 171.874 46.9266H29.8819C29.8819 46.9266 28.4277 42.6947 25.658 39.485C22.8928 36.2753 19.7964 37.7815 19.7964 37.7815V37.777Z" fill="#FCCD82" stroke="#585960" style="fill:#FCCD82;fill:color(display-p3 0.9882 0.8039 0.5098);fill-opacity:1;stroke:#585960;stroke:color(display-p3 0.3451 0.3490 0.3765);stroke-opacity:1;" stroke-width="0.94901" stroke-miterlimit="10"/>
<path d="M20.9844 65.6875C21.3423 67.5434 21.4676 69.2379 21.575 70.4214" stroke="#585960" style="stroke:#585960;stroke:color(display-p3 0.3451 0.3490 0.3765);stroke-opacity:1;" stroke-width="0.94901" stroke-miterlimit="10"/>
<path d="M4.59429 64.2021C3.95891 63.05 3.53384 61.4989 3.80678 59.4771C4.53612 54.0797 11.2344 52.9097 16.0399 56.5587C18.2056 58.1995 19.4808 60.5261 20.2594 62.8751" stroke="#585960" style="stroke:#585960;stroke:color(display-p3 0.3451 0.3490 0.3765);stroke-opacity:1;" stroke-width="0.94901" stroke-miterlimit="10"/>
<path d="M7.30796 66.9218C7.30796 66.9218 6.63232 66.5946 5.86719 65.8594" stroke="#585960" style="stroke:#585960;stroke:color(display-p3 0.3451 0.3490 0.3765);stroke-opacity:1;" stroke-width="0.94901" stroke-miterlimit="10"/>
<path d="M22.3867 96.9062L22.4538 99.1611" stroke="#585960" style="stroke:#585960;stroke:color(display-p3 0.3451 0.3490 0.3765);stroke-opacity:1;" stroke-width="0.94901" stroke-miterlimit="10"/>
<path d="M21.7266 74.7969L22.3261 94.804" stroke="#585960" style="stroke:#585960;stroke:color(display-p3 0.3451 0.3490 0.3765);stroke-opacity:1;" stroke-width="0.94901" stroke-miterlimit="10"/>
<path d="M202.441 58.0209C202.003 57.3037 201.363 56.5864 200.419 55.9678C197.067 53.7801 193.282 55.385 190.078 58.5947" stroke="#585960" style="stroke:#585960;stroke:color(display-p3 0.3451 0.3490 0.3765);stroke-opacity:1;" stroke-width="0.94901" stroke-miterlimit="10"/>
<path d="M203.329 61.6674C203.329 61.6674 203.414 60.9994 203.227 60.0625" stroke="#585960" style="stroke:#585960;stroke:color(display-p3 0.3451 0.3490 0.3765);stroke-opacity:1;" stroke-width="0.94901" stroke-miterlimit="10"/>
<path d="M183.727 92.9844C183.432 96.5303 183.23 99.0139 183.23 99.0139" stroke="#585960" style="stroke:#585960;stroke:color(display-p3 0.3451 0.3490 0.3765);stroke-opacity:1;" stroke-width="0.94901" stroke-miterlimit="10"/>
<path d="M188.184 61.5156C188.184 61.5156 186.435 64.5819 185.853 69.2486C185.486 72.1714 184.551 83.1007 183.902 90.8696" stroke="#585960" style="stroke:#585960;stroke:color(display-p3 0.3451 0.3490 0.3765);stroke-opacity:1;" stroke-width="0.94901" stroke-miterlimit="10"/>
<path d="M78.3944 20.2367C78.3944 20.2367 77.8798 17.269 81.616 17.269C85.3522 17.269 122.186 17.009 124.114 17.139C126.047 17.269 126.047 18.4301 126.047 18.4301L130.942 16.8835L177.047 17.529C177.047 17.529 182.842 16.108 183.746 17.1435C184.645 18.1746 187.057 36.1061 186.193 37.4017C184.13 40.4994 180.783 40.4994 180.783 40.4994L177.307 40.3693C177.307 40.3693 175.119 43.9826 174.989 49.4024C174.859 54.8222 175.504 58.8209 174.989 59.2064C174.474 59.592 172.027 59.722 172.027 59.722L76.9805 60.623L78.0096 58.4309V55.0777L78.3944 20.2412V20.2367Z" fill="#FCCD82" stroke="#585960" style="fill:#FCCD82;fill:color(display-p3 0.9882 0.8039 0.5098);fill-opacity:1;stroke:#585960;stroke:color(display-p3 0.3451 0.3490 0.3765);stroke-opacity:1;" stroke-width="0.94901" stroke-miterlimit="10"/>
<path d="M78.0114 58.4291C78.0114 58.4291 78.3962 19.9794 78.2709 18.6884C78.1412 17.3973 76.4677 17.3973 76.4677 17.3973C76.4677 17.3973 45.4284 17.3973 41.9517 17.1373C38.4751 16.8773 29.4591 16.8773 24.4387 17.0073C19.4139 17.1373 19.2886 18.4283 19.5437 19.8449C19.8032 21.266 19.8032 37.781 19.8032 37.781C19.8032 37.781 24.1837 39.202 25.8571 43.3308C27.5306 47.4595 27.4008 55.717 27.4008 55.717L27.271 62.4279L76.9823 61.6523L78.0114 58.4247V58.4291Z" fill="#FCCD82" stroke="#585960" style="fill:#FCCD82;fill:color(display-p3 0.9882 0.8039 0.5098);fill-opacity:1;stroke:#585960;stroke:color(display-p3 0.3451 0.3490 0.3765);stroke-opacity:1;" stroke-width="0.94901" stroke-miterlimit="10"/>
<path d="M75.6894 60.9558C75.6894 60.9558 76.3337 60.5702 65.2594 59.9247C54.1851 59.2792 39.2449 58.8936 34.3499 60.4402C29.4548 61.9868 24.175 66.2456 23.7902 68.4422C23.4054 70.6343 23.9199 79.0218 25.0788 80.5729C26.2377 82.1195 29.3295 82.6395 38.4709 82.6395C47.6122 82.6395 70.0247 82.7695 72.7273 81.9939C75.4299 81.2184 75.9489 80.0573 75.9489 80.0573C75.9489 80.0573 78.0116 82.5095 90.4998 82.3795C102.988 82.2495 122.568 82.2495 125.016 81.7339C127.463 81.2184 129.267 79.9273 129.267 79.9273C129.267 79.9273 131.455 83.025 144.976 82.765C158.498 82.505 179.233 82.635 180.906 81.9895C182.58 81.3439 183.354 78.5063 183.354 78.5063C183.354 78.5063 184.128 70.7643 182.969 68.4422C181.81 66.1201 179.233 63.0224 179.233 63.0224C179.233 63.0224 174.338 59.5392 163.908 58.5081C163.908 58.5081 138.408 54.8949 125.53 57.477C125.53 57.477 88.0523 55.4104 76.3337 60.5747L75.6894 60.9602V60.9558Z" fill="#585960" stroke="#585960" style="fill:#585960;fill:color(display-p3 0.3451 0.3490 0.3765);fill-opacity:1;stroke:#585960;stroke:color(display-p3 0.3451 0.3490 0.3765);stroke-opacity:1;" stroke-width="0.94901" stroke-miterlimit="10"/>
<path d="M75.6894 59.8542C75.6894 59.8542 76.3337 59.4687 65.2594 58.8231C54.1851 58.1776 39.2449 57.7921 34.3499 59.3387C29.4548 60.8853 24.175 65.144 23.7902 67.3406C23.4054 69.5328 23.9199 77.9202 25.0788 79.4713C26.2377 81.0179 29.3295 81.5379 38.4709 81.5379C47.6122 81.5379 70.0247 81.6679 72.7273 80.8924C75.4299 80.1168 75.9489 78.9558 75.9489 78.9558C75.9489 78.9558 78.0116 81.4079 90.4998 81.2779C102.988 81.1479 122.568 81.1479 125.016 80.6324C127.463 80.1168 129.267 78.8258 129.267 78.8258C129.267 78.8258 131.455 81.9234 144.976 81.6634C158.498 81.4034 179.233 81.5334 180.906 80.8879C182.58 80.2424 183.354 77.4047 183.354 77.4047C183.354 77.4047 184.128 69.6628 182.969 67.3406C181.81 65.0185 179.233 61.9208 179.233 61.9208C179.233 61.9208 174.338 58.4376 163.908 57.4065C163.908 57.4065 138.408 53.7933 125.53 56.3755C125.53 56.3755 88.0523 54.3089 76.3337 59.4732L75.6894 59.8587V59.8542Z" fill="#FCCD82" stroke="#585960" style="fill:#FCCD82;fill:color(display-p3 0.9882 0.8039 0.5098);fill-opacity:1;stroke:#585960;stroke:color(display-p3 0.3451 0.3490 0.3765);stroke-opacity:1;" stroke-width="0.94901" stroke-miterlimit="10"/>
<path d="M46.8438 69.1449H69.6322L75.6861 68.1094" stroke="#585960" style="stroke:#585960;stroke:color(display-p3 0.3451 0.3490 0.3765);stroke-opacity:1;" stroke-width="0.94901" stroke-miterlimit="10"/>
<path d="M25.8477 69.0234L37.0517 69.1534H43.9916" stroke="#585960" style="stroke:#585960;stroke:color(display-p3 0.3451 0.3490 0.3765);stroke-opacity:1;" stroke-width="0.94901" stroke-miterlimit="10"/>
<path d="M79.8086 68.5022L94.1045 68.2422C94.1045 68.2422 117.931 68.2422 123.081 68.7577C128.231 69.2733 128.875 69.0177 128.875 69.0177" stroke="#585960" style="stroke:#585960;stroke:color(display-p3 0.3451 0.3490 0.3765);stroke-opacity:1;" stroke-width="0.94901" stroke-miterlimit="10"/>
<path d="M154.281 69.3104L173.951 69.14L182.193 68.75" stroke="#585960" style="stroke:#585960;stroke:color(display-p3 0.3451 0.3490 0.3765);stroke-opacity:1;" stroke-width="0.94901" stroke-miterlimit="10"/>
<path d="M132.484 69.1406L144.588 69.3961L150.382 69.3468" stroke="#585960" style="stroke:#585960;stroke:color(display-p3 0.3451 0.3490 0.3765);stroke-opacity:1;" stroke-width="0.94901" stroke-miterlimit="10"/>
<path d="M129.52 77.3958C129.52 77.3958 129.905 70.5594 130.035 67.9772C130.164 65.3951 128.746 62.1719 128.746 62.1719" stroke="#585960" style="stroke:#585960;stroke:color(display-p3 0.3451 0.3490 0.3765);stroke-opacity:1;" stroke-width="0.94901" stroke-miterlimit="10"/>
<path d="M75.902 74.1719C75.8483 75.7409 75.8125 76.893 75.8125 76.893" stroke="#585960" style="stroke:#585960;stroke:color(display-p3 0.3451 0.3490 0.3765);stroke-opacity:1;" stroke-width="0.94901" stroke-miterlimit="10"/>
<path d="M76.9754 60.625C76.9754 60.625 76.5906 63.9782 76.3311 66.0448C76.2148 66.9907 76.094 69.3532 76 71.6305" stroke="#585960" style="stroke:#585960;stroke:color(display-p3 0.3451 0.3490 0.3765);stroke-opacity:1;" stroke-width="0.94901" stroke-miterlimit="10"/>
<path d="M126.181 24.9375L126.078 54.7935" stroke="#585960" style="stroke:#585960;stroke:color(display-p3 0.3451 0.3490 0.3765);stroke-opacity:1;" stroke-width="0.94901" stroke-miterlimit="10"/>
<path d="M126.18 19.8516V21.9361" stroke="#585960" style="stroke:#585960;stroke:color(display-p3 0.3451 0.3490 0.3765);stroke-opacity:1;" stroke-width="0.94901" stroke-miterlimit="10"/>
<path d="M21.625 42.4219C21.625 42.4219 23.3298 51.2173 23.3298 56.5968C23.3298 61.9762 23.5938 65.2577 25.0345 65.3922C26.4753 65.5222 31.8447 62.2407 31.8447 62.2407L21.625 42.4219Z" fill="#585960" stroke="#585960" style="fill:#585960;fill:color(display-p3 0.3451 0.3490 0.3765);fill-opacity:1;stroke:#585960;stroke:color(display-p3 0.3451 0.3490 0.3765);stroke-opacity:1;" stroke-width="0.94901" stroke-miterlimit="10"/>
<path d="M25.7771 25.1775L16.327 23.2364C16.327 23.2364 14.2688 22.9943 15.723 26.5134C17.1772 30.0324 23.2356 48.726 23.2356 48.726L25.173 61.713C25.173 61.713 24.8106 64.3848 27.5982 63.7751C30.3858 63.1699 39.9567 59.8929 43.8315 59.6464C47.7064 59.4043 58.2482 60.6192 60.7942 59.8884C63.3402 59.1622 63.5818 57.4587 62.7316 57.0956C61.8815 56.7325 54.1273 39.1327 54.1273 39.1327C54.1273 39.1327 50.0063 25.6571 49.523 24.2002C49.0398 22.7432 49.1606 21.6494 47.2232 22.017C45.2857 22.3801 44.0732 23.474 44.0732 23.474C44.0732 23.474 28.9271 25.9037 25.7771 25.173V25.1775Z" fill="#F3F0F0" stroke="#585960" style="fill:#F3F0F0;fill:color(display-p3 0.9529 0.9412 0.9412);fill-opacity:1;stroke:#585960;stroke:color(display-p3 0.3451 0.3490 0.3765);stroke-opacity:1;" stroke-width="0.94901" stroke-miterlimit="10"/>
<path d="M183.701 30.5859C183.701 30.5859 181.709 46.536 181.62 50.7006C181.53 54.8697 182.524 59.0388 182.161 60.4868C181.799 61.9348 180.806 63.0241 180.081 62.8448C179.356 62.6655 176.461 61.4865 176.461 61.4865C176.461 61.4865 177.817 56.5912 177.638 53.6011C177.459 50.611 183.696 30.5859 183.696 30.5859H183.701Z" fill="#585960" stroke="#585960" style="fill:#585960;fill:color(display-p3 0.3451 0.3490 0.3765);fill-opacity:1;stroke:#585960;stroke:color(display-p3 0.3451 0.3490 0.3765);stroke-opacity:1;" stroke-width="0.94901" stroke-miterlimit="10"/>
<path d="M163.046 22.7463L152.021 19.9535C152.021 19.9535 148.021 15.2196 146.934 20.3166C145.842 25.4136 145.117 51.8761 144.267 54.911C143.417 57.9459 144.509 58.9187 145.963 58.9187C147.417 58.9187 155.051 57.946 157.35 58.3136C159.65 58.6767 174.72 62.2361 176.98 62.0747C179.235 61.9133 180.009 59.5239 180.009 59.5239C180.009 59.5239 179.284 56.7311 179.284 55.8838C179.284 55.0366 184.372 33.5501 184.613 31.1204C184.855 28.6906 187.763 24.3243 186.792 22.7463C185.821 21.1684 184.734 21.7735 182.309 22.1411C179.884 22.5087 165.709 23.235 163.046 22.7463Z" fill="#F3F0F0" stroke="#585960" style="fill:#F3F0F0;fill:color(display-p3 0.9529 0.9412 0.9412);fill-opacity:1;stroke:#585960;stroke:color(display-p3 0.3451 0.3490 0.3765);stroke-opacity:1;" stroke-width="0.94901" stroke-miterlimit="10"/>
<path d="M51.8872 45.5638L55.6861 59.8687C55.6861 59.8687 59.0911 61.9667 60.5319 61.7067C61.9727 61.4422 73.6331 60.5277 74.1566 60.5277C74.6801 60.5277 82.497 59.5011 83.459 58.2952C84.421 57.0938 75.9911 52.6512 75.9911 52.6512C75.9911 52.6512 51.7575 43.8558 51.8872 45.5638Z" fill="#585960" stroke="#585960" style="fill:#585960;fill:color(display-p3 0.3451 0.3490 0.3765);fill-opacity:1;stroke:#585960;stroke:color(display-p3 0.3451 0.3490 0.3765);stroke-opacity:1;" stroke-width="0.94901" stroke-miterlimit="10"/>
<path d="M49.2824 28.6962C49.2824 28.6962 44.4365 27.6024 43.3448 28.6962C42.253 29.7901 44.4365 31.4891 44.4365 31.4891L57.6407 58.6778C57.6407 58.6778 59.6989 62.8065 62.9697 61.4706C66.2406 60.1347 71.9365 59.4085 71.9365 59.4085L81.749 58.9243C81.749 58.9243 84.7782 58.6823 84.4158 57.1043C84.0534 55.5263 85.6284 57.8305 79.9324 44.6015C74.2364 31.3725 69.753 27.1227 68.178 27.6069C66.603 28.0911 64.7864 28.9428 63.6946 29.1849C62.6028 29.427 49.2779 28.7007 49.2779 28.7007L49.2824 28.6962Z" fill="#F3F0F0" stroke="#585960" style="fill:#F3F0F0;fill:color(display-p3 0.9529 0.9412 0.9412);fill-opacity:1;stroke:#585960;stroke:color(display-p3 0.3451 0.3490 0.3765);stroke-opacity:1;" stroke-width="0.94901" stroke-miterlimit="10"/>
<path d="M159.731 29.1328C159.731 29.1328 152.769 55.9539 152.948 57.1329C153.127 58.3119 155.028 58.2223 155.028 58.2223L149.963 59.7644L146.809 61.4724L159.731 29.1373V29.1328Z" fill="#585960" stroke="#585960" style="fill:#585960;fill:color(display-p3 0.3451 0.3490 0.3765);fill-opacity:1;stroke:#585960;stroke:color(display-p3 0.3451 0.3490 0.3765);stroke-opacity:1;" stroke-width="0.94901" stroke-miterlimit="10"/>
<path d="M131.3 28.095L130.911 29.0184L126.333 39.8715L120.884 52.4953C120.884 52.4953 117.492 57.9555 118.584 58.4441C119.676 58.9283 128.155 59.78 131.425 60.3852C134.696 60.9904 145.238 62.0842 146.813 61.479C148.388 60.8738 148.509 60.2642 149.113 58.8072C149.717 57.3503 158.684 32.3447 159.534 30.1616C160.384 27.9784 161.109 26.8846 159.534 26.8846C157.959 26.8846 158.442 27.8574 151.417 27.7363C144.392 27.6153 137.363 26.7636 135.909 26.6425C134.455 26.5215 132.638 25.0645 131.305 28.0995L131.3 28.095Z" fill="#F3F0F0" stroke="#585960" style="fill:#F3F0F0;fill:color(display-p3 0.9529 0.9412 0.9412);fill-opacity:1;stroke:#585960;stroke:color(display-p3 0.3451 0.3490 0.3765);stroke-opacity:1;" stroke-width="0.94901" stroke-miterlimit="10"/>
</g>
<defs>
<clipPath id="clip0_252_1362">
<rect width="211" height="109.851" fill="white" style="fill:white;fill-opacity:1;"/>
</clipPath>
</defs>
</svg>
