<svg width="24" height="24" viewBox="0 0 24 24" fill="none" xmlns="http://www.w3.org/2000/svg">
<path d="M15.0039 22.75L9.00391 22.75C3.57391 22.75 1.25391 20.43 1.25391 15L1.25391 9C1.25391 3.57 3.57391 1.25 9.00391 1.25L15.0039 1.25C20.4339 1.25 22.7539 3.57 22.7539 9L22.7539 15C22.7539 20.43 20.4339 22.75 15.0039 22.75Z" fill="#35D675" style="fill:#35D675;fill:color(display-p3 0.2076 0.8390 0.4602);fill-opacity:1;"/>
<path d="M15.0039 22.75L9.00391 22.75C3.57391 22.75 1.25391 20.43 1.25391 15L1.25391 9C1.25391 3.57 3.57391 1.25 9.00391 1.25L15.0039 1.25C20.4339 1.25 22.7539 3.57 22.7539 9L22.7539 15C22.7539 20.43 20.4339 22.75 15.0039 22.75Z" fill="url(#paint0_linear_252_1886)" style=""/>
<path d="M10.5814 15.5816C10.3814 15.5816 10.1914 15.5016 10.0514 15.3616L7.22141 12.5316C6.93141 12.2416 6.93141 11.7616 7.22141 11.4716C7.51141 11.1816 7.99141 11.1816 8.28141 11.4716L10.5814 13.7716L15.7214 8.63156C16.0114 8.34156 16.4914 8.34156 16.7814 8.63156C17.0714 8.92156 17.0714 9.40156 16.7814 9.69156L11.1114 15.3616C10.9714 15.5016 10.7814 15.5816 10.5814 15.5816Z" fill="white" style="fill:white;fill-opacity:1;"/>
<defs>
<linearGradient id="paint0_linear_252_1886" x1="12.0039" y1="1.25" x2="12.0039" y2="22.75" gradientUnits="userSpaceOnUse">
<stop stop-color="#FFD66B" style="stop-color:#FFD66B;stop-color:color(display-p3 1.0000 0.8392 0.4196);stop-opacity:1;"/>
<stop offset="1" stop-color="#FFA469" style="stop-color:#FFA469;stop-color:color(display-p3 1.0000 0.6431 0.4118);stop-opacity:1;"/>
</linearGradient>
</defs>
</svg>
