<svg width="557" height="449" viewBox="0 0 557 449" fill="none" xmlns="http://www.w3.org/2000/svg">
<g clip-path="url(#clip0_252_1929)">
<path d="M394.402 139.813L399.676 141.795L395.098 143.091C393.572 143.519 392.361 144.691 391.865 146.197L390.206 151.256L388.165 146.187C387.66 144.929 386.639 143.948 385.361 143.481L380.727 141.804L385.743 139.747C386.954 139.251 387.908 138.27 388.384 137.05L390.196 132.344L391.493 136.717C391.922 138.146 392.991 139.299 394.392 139.823L394.402 139.813Z" fill="#FCCD82" style="fill:#FCCD82;fill:color(display-p3 0.9882 0.8039 0.5098);fill-opacity:1;"/>
<path d="M56.0192 248.055L61.2929 250.037L56.7154 251.333C55.1895 251.762 53.9784 252.933 53.4825 254.439L51.8231 259.498L49.7823 254.429C49.2768 253.172 48.2564 252.19 46.9785 251.723L42.3438 250.047L47.36 247.989C48.5711 247.493 49.5248 246.512 50.0016 245.292L51.8136 240.586L53.1106 244.959C53.5397 246.388 54.6078 247.541 56.0097 248.065L56.0192 248.055Z" fill="#FCCD82" style="fill:#FCCD82;fill:color(display-p3 0.9882 0.8039 0.5098);fill-opacity:1;"/>
<path d="M329.586 331.321L334.859 333.303L330.282 334.599C328.756 335.027 327.545 336.199 327.049 337.704L325.39 342.763L323.349 337.695C322.843 336.437 321.823 335.456 320.545 334.989L315.91 333.312L320.926 331.254C322.138 330.759 323.091 329.778 323.568 328.558L325.38 323.852L326.677 328.225C327.106 329.654 328.174 330.807 329.576 331.331L329.586 331.321Z" fill="#FCCD82" style="fill:#FCCD82;fill:color(display-p3 0.9882 0.8039 0.5098);fill-opacity:1;"/>
<path d="M63.3068 225.527L65.3095 226.279L63.5738 226.775C62.9921 226.937 62.5344 227.385 62.3436 227.956L61.7142 229.881L60.9417 227.956C60.751 227.48 60.36 227.108 59.8736 226.927L58.1094 226.289L60.0167 225.508C60.4744 225.317 60.8368 224.946 61.018 224.479L61.7047 222.688L62.2006 224.345C62.3627 224.888 62.7728 225.327 63.2973 225.527H63.3068Z" fill="#FCCD82" style="fill:#FCCD82;fill:color(display-p3 0.9882 0.8039 0.5098);fill-opacity:1;"/>
<path d="M91.1037 294.566L93.1064 295.318L91.3707 295.814C90.789 295.976 90.3312 296.424 90.1405 296.995L89.5111 298.92L88.7386 296.995C88.5479 296.519 88.1569 296.138 87.6705 295.966L85.9062 295.328L87.8136 294.547C88.2713 294.356 88.6337 293.985 88.8149 293.518L89.5015 291.727L89.9974 293.384C90.1596 293.927 90.5696 294.366 91.0942 294.566H91.1037Z" fill="#FCCD82" style="fill:#FCCD82;fill:color(display-p3 0.9882 0.8039 0.5098);fill-opacity:1;"/>
<path d="M373.799 210.324L375.802 211.076L374.066 211.572C373.484 211.734 373.027 212.181 372.836 212.753L372.206 214.678L371.434 212.753C371.243 212.277 370.852 211.896 370.366 211.724L368.602 211.086L370.509 210.304C370.967 210.114 371.329 209.742 371.51 209.276L372.197 207.484L372.693 209.142C372.855 209.685 373.265 210.123 373.789 210.324H373.799Z" fill="#FCCD82" style="fill:#FCCD82;fill:color(display-p3 0.9882 0.8039 0.5098);fill-opacity:1;"/>
<path d="M369.565 129.917L371.567 130.67L369.832 131.165C369.25 131.327 368.792 131.775 368.601 132.347L367.972 134.271L367.2 132.347C367.009 131.87 366.618 131.499 366.131 131.318L364.367 130.679L366.275 129.898C366.732 129.708 367.095 129.336 367.276 128.869L367.962 127.078L368.458 128.736C368.621 129.279 369.031 129.717 369.555 129.917H369.565Z" fill="#FCCD82" style="fill:#FCCD82;fill:color(display-p3 0.9882 0.8039 0.5098);fill-opacity:1;"/>
<path d="M87.4904 93.4876L89.4931 94.2403L87.7574 94.7357C87.1757 94.8977 86.7179 95.3455 86.5272 95.9171L85.8978 97.8416L85.1253 95.9171C84.9346 95.4407 84.5436 95.0596 84.0572 94.8881L82.293 94.2498L84.2003 93.4686C84.658 93.278 85.0204 92.9064 85.2016 92.4396L85.8883 90.6484L86.3842 92.3062C86.5463 92.8493 86.9564 93.2875 87.4809 93.4876H87.4904Z" fill="#FCCD82" style="fill:#FCCD82;fill:color(display-p3 0.9882 0.8039 0.5098);fill-opacity:1;"/>
<path d="M366.464 346.199L369.773 347.437L366.903 348.247C365.94 348.523 365.186 349.247 364.871 350.2L363.832 353.373L362.554 350.191C362.239 349.4 361.6 348.781 360.799 348.495L357.891 347.437L361.038 346.142C361.801 345.827 362.401 345.217 362.697 344.446L363.832 341.492L364.652 344.236C364.919 345.132 365.596 345.856 366.474 346.189L366.464 346.199Z" fill="#C8C7C9" style="fill:#C8C7C9;fill:color(display-p3 0.7843 0.7804 0.7882);fill-opacity:1;"/>
<path d="M182.573 57.7065L185.883 58.9451L183.012 59.7549C182.049 60.0312 181.295 60.7553 180.981 61.7081L179.941 64.8807L178.663 61.6985C178.349 60.9078 177.71 60.2885 176.909 60.0026L174 58.9451L177.147 57.6494C177.91 57.335 178.511 56.7252 178.806 55.9535L179.941 53L180.761 55.7439C181.028 56.6395 181.706 57.3636 182.583 57.697L182.573 57.7065Z" fill="#C8C7C9" style="fill:#C8C7C9;fill:color(display-p3 0.7843 0.7804 0.7882);fill-opacity:1;"/>
<path d="M413.019 215.532L418.293 217.514L413.715 218.809C412.19 219.238 410.978 220.41 410.482 221.915L408.823 226.974L406.782 221.906C406.277 220.648 405.256 219.667 403.979 219.2L399.344 217.523L404.36 215.465C405.571 214.97 406.525 213.989 407.002 212.769L408.814 208.062L410.111 212.436C410.54 213.865 411.608 215.018 413.01 215.542L413.019 215.532Z" fill="#C8C7C9" style="fill:#C8C7C9;fill:color(display-p3 0.7843 0.7804 0.7882);fill-opacity:1;"/>
<path d="M93.7067 340.782L98.9804 342.764L94.4029 344.059C92.877 344.488 91.6659 345.66 91.17 347.165L89.5106 352.224L87.4698 347.156C86.9643 345.898 85.9439 344.917 84.666 344.45L80.0312 342.773L85.0475 340.715C86.2586 340.22 87.2123 339.239 87.6891 338.019L89.5011 333.312L90.798 337.686C91.2272 339.115 92.2953 340.268 93.6972 340.792L93.7067 340.782Z" fill="#C8C7C9" style="fill:#C8C7C9;fill:color(display-p3 0.7843 0.7804 0.7882);fill-opacity:1;"/>
<path d="M129.195 354.282L132.809 355.644L129.672 356.53C128.623 356.826 127.793 357.626 127.45 358.665L126.315 362.133L124.913 358.655C124.57 357.788 123.864 357.112 122.996 356.797L119.82 355.644L123.263 354.234C124.093 353.891 124.751 353.224 125.075 352.386L126.315 349.156L127.202 352.157C127.497 353.139 128.232 353.929 129.185 354.292L129.195 354.282Z" fill="#C8C7C9" style="fill:#C8C7C9;fill:color(display-p3 0.7843 0.7804 0.7882);fill-opacity:1;"/>
<path d="M372.652 271.305L376.266 272.668L373.129 273.554C372.08 273.849 371.25 274.65 370.907 275.688L369.772 279.156L368.37 275.679C368.027 274.812 367.321 274.135 366.453 273.821L363.277 272.668L366.72 271.258C367.55 270.915 368.208 270.248 368.532 269.409L369.772 266.18L370.659 269.181C370.954 270.162 371.689 270.953 372.642 271.315L372.652 271.305Z" fill="#C8C7C9" style="fill:#C8C7C9;fill:color(display-p3 0.7843 0.7804 0.7882);fill-opacity:1;"/>
<path d="M57.7927 159.352L63.0664 161.334L58.4888 162.63C56.963 163.058 55.7518 164.23 55.2559 165.736L53.5966 170.795L51.5557 165.726C51.0503 164.469 50.0299 163.487 48.752 163.02L44.1172 161.344L49.1334 159.286C50.3446 158.79 51.2982 157.809 51.7751 156.589L53.587 151.883L54.884 156.256C55.3131 157.685 56.3812 158.838 57.7831 159.362L57.7927 159.352Z" fill="#FCCD82" style="fill:#FCCD82;fill:color(display-p3 0.9882 0.8039 0.5098);fill-opacity:1;"/>
<g clip-path="url(#clip1_252_1929)">
<path d="M333.307 240.936C298.756 244.487 267.491 247.706 244.824 250.032C233.522 251.255 224.38 252.241 218.023 252.921C214.88 253.284 212.435 253.568 210.744 253.76C209.932 253.859 209.301 253.947 208.855 253.997C208.431 254.053 208.21 254.094 208.212 254.109C208.214 254.125 208.431 254.116 208.865 254.083C209.319 254.039 209.947 253.984 210.762 253.916C212.455 253.748 214.905 253.503 218.053 253.186C224.403 252.508 233.552 251.52 244.855 250.313C267.498 247.769 298.731 244.261 333.245 240.381C367.741 236.481 398.984 232.995 421.615 230.61C432.935 229.417 442.099 228.499 448.437 227.909C451.602 227.614 454.071 227.406 455.741 227.288C457.41 227.171 458.296 227.142 458.303 227.204C458.31 227.267 457.44 227.428 455.783 227.663C454.126 227.898 451.671 228.223 448.516 228.603C442.199 229.381 433.049 230.431 421.736 231.671C399.116 234.158 367.845 237.402 333.306 240.928L333.307 240.936Z" fill="#C8C4C4" style="fill:#C8C4C4;fill:color(display-p3 0.7843 0.7686 0.7686);fill-opacity:1;"/>
<path d="M333.552 249.222C298.837 247.068 267.416 245.119 244.64 243.702C233.28 243.057 224.077 242.533 217.689 242.172C214.524 242.016 212.063 241.899 210.363 241.814C209.543 241.781 208.906 241.758 208.453 241.746C208.022 241.731 207.804 241.74 207.805 241.748C207.807 241.764 208.021 241.787 208.455 241.825C208.911 241.86 209.535 241.908 210.359 241.973C212.061 242.081 214.521 242.246 217.684 242.449C224.072 242.818 233.27 243.351 244.63 244.003C267.411 245.199 298.841 246.847 333.577 248.666C368.294 250.456 399.728 252.136 422.483 253.492C433.861 254.166 443.065 254.762 449.427 255.22C452.608 255.453 455.078 255.648 456.749 255.799C458.42 255.95 459.301 256.072 459.294 256.136C459.294 256.2 458.407 256.221 456.734 256.181C455.055 256.149 452.582 256.057 449.397 255.927C443.028 255.659 433.817 255.199 422.445 254.571C399.688 253.326 368.263 251.401 333.566 249.213L333.552 249.222Z" fill="#C8C4C4" style="fill:#C8C4C4;fill:color(display-p3 0.7843 0.7686 0.7686);fill-opacity:1;"/>
<path d="M332.548 257.437C298.518 249.553 267.728 242.417 245.409 237.248C234.26 234.73 225.241 232.682 218.976 231.272C215.868 230.595 213.448 230.071 211.775 229.706C210.969 229.537 210.342 229.41 209.896 229.326C209.471 229.247 209.256 229.209 209.25 229.225C209.252 229.241 209.463 229.304 209.877 229.415C210.319 229.523 210.933 229.675 211.736 229.877C213.397 230.266 215.816 230.839 218.907 231.564C225.174 232.99 234.193 235.038 245.335 237.565C267.697 242.523 298.547 249.352 332.641 256.905C366.724 264.428 397.571 271.289 419.877 276.403C431.03 278.961 440.049 281.072 446.274 282.574C449.383 283.329 451.797 283.934 453.427 284.366C455.057 284.798 455.91 285.058 455.896 285.122C455.881 285.187 455.006 285.057 453.354 284.746C451.701 284.435 449.262 283.936 446.135 283.277C439.873 281.961 430.831 279.972 419.67 277.471C397.34 272.469 366.538 265.358 332.535 257.447L332.548 257.437Z" fill="#C8C4C4" style="fill:#C8C4C4;fill:color(display-p3 0.7843 0.7686 0.7686);fill-opacity:1;"/>
<path d="M330.345 265.343C297.855 251.932 268.452 239.8 247.144 231.007C236.49 226.678 227.867 223.17 221.886 220.731C218.911 219.55 216.598 218.625 214.997 217.992C214.22 217.693 213.626 217.467 213.199 217.302C212.796 217.15 212.584 217.079 212.578 217.095C212.58 217.111 212.773 217.208 213.172 217.384C213.593 217.566 214.183 217.815 214.942 218.148C216.532 218.807 218.834 219.772 221.786 221.003C227.774 223.441 236.39 226.958 247.038 231.296C268.426 239.89 297.928 251.742 330.529 264.84C363.126 277.906 392.624 289.782 413.933 298.52C424.591 302.881 433.193 306.462 439.131 308.976C442.101 310.238 444.392 311.228 445.942 311.922C447.492 312.617 448.295 313.016 448.273 313.074C448.251 313.14 447.404 312.864 445.814 312.277C444.225 311.689 441.888 310.799 438.892 309.628C432.893 307.286 424.247 303.837 413.572 299.517C392.231 290.886 362.809 278.772 330.345 265.343Z" fill="#C8C4C4" style="fill:#C8C4C4;fill:color(display-p3 0.7843 0.7686 0.7686);fill-opacity:1;"/>
<path d="M326.978 272.813C296.818 254.245 269.525 237.439 249.736 225.264C239.837 219.237 231.825 214.363 226.261 210.976C223.495 209.32 221.338 208.031 219.853 207.139C219.127 206.715 218.573 206.39 218.175 206.159C217.794 205.941 217.6 205.836 217.594 205.853C217.588 205.861 217.77 205.991 218.14 206.234C218.532 206.482 219.075 206.832 219.781 207.282C221.255 208.198 223.394 209.522 226.136 211.22C231.699 214.607 239.706 219.497 249.598 225.525C269.483 237.515 296.921 254.059 327.238 272.341C357.55 290.584 384.976 307.153 404.767 319.272C414.662 325.332 422.652 330.271 428.144 333.729C430.89 335.459 433.018 336.815 434.45 337.76C435.883 338.697 436.62 339.222 436.583 339.282C436.553 339.341 435.756 338.933 434.269 338.089C432.783 337.253 430.607 335.989 427.813 334.344C422.224 331.055 414.18 326.224 404.26 320.207C384.422 308.18 357.11 291.4 326.978 272.813Z" fill="#C8C4C4" style="fill:#C8C4C4;fill:color(display-p3 0.7843 0.7686 0.7686);fill-opacity:1;"/>
<path d="M322.538 279.584C295.428 256.339 270.898 235.299 253.122 220.051C244.215 212.488 237.01 206.369 232.004 202.12C229.509 200.03 227.57 198.408 226.226 197.287C225.575 196.751 225.07 196.342 224.709 196.051C224.365 195.774 224.182 195.644 224.176 195.653C224.17 195.661 224.334 195.825 224.659 196.12C225.007 196.428 225.493 196.856 226.131 197.416C227.455 198.555 229.369 200.212 231.839 202.336C236.845 206.593 244.045 212.72 252.944 220.284C270.855 235.368 295.562 256.173 322.869 279.16C350.173 302.115 374.875 322.945 392.667 338.136C401.563 345.732 408.739 351.91 413.671 356.222C416.137 358.378 418.041 360.068 419.316 361.229C420.591 362.389 421.246 363.027 421.201 363.079C421.163 363.131 420.432 362.597 419.087 361.523C417.742 360.458 415.769 358.855 413.252 356.768C408.212 352.602 400.96 346.528 392.032 338.967C374.17 323.862 349.621 302.841 322.546 279.584L322.538 279.584Z" fill="#C8C4C4" style="fill:#C8C4C4;fill:color(display-p3 0.7843 0.7686 0.7686);fill-opacity:1;"/>
<path d="M317.152 285.556C293.758 258.19 272.589 233.434 257.24 215.484C249.543 206.567 243.313 199.349 238.987 194.344C236.828 191.876 235.147 189.955 233.984 188.632C233.417 188 232.983 187.512 232.667 187.16C232.367 186.831 232.21 186.666 232.196 186.676C232.183 186.685 232.327 186.867 232.607 187.215C232.91 187.576 233.325 188.082 233.872 188.732C235.014 190.073 236.663 192.021 238.789 194.524C243.109 199.538 249.339 206.756 257.029 215.682C272.529 233.481 293.909 258.047 317.533 285.189C341.168 312.298 362.535 336.881 377.9 354.775C385.585 363.717 391.77 370.987 396.015 376.049C398.137 378.576 399.766 380.551 400.859 381.905C401.952 383.26 402.502 383.997 402.456 384.041C402.41 384.086 401.769 383.439 400.59 382.165C399.411 380.891 397.703 378.989 395.515 376.525C391.139 371.596 384.863 364.416 377.144 355.501C361.7 337.68 340.511 312.934 317.146 285.565L317.152 285.556Z" fill="#C8C4C4" style="fill:#C8C4C4;fill:color(display-p3 0.7843 0.7686 0.7686);fill-opacity:1;"/>
<path d="M310.936 290.563C291.85 259.737 274.581 231.836 262.057 211.614C255.761 201.557 250.674 193.42 247.134 187.765C245.361 184.976 243.987 182.808 243.031 181.311C242.564 180.597 242.203 180.045 241.946 179.647C241.7 179.271 241.563 179.089 241.556 179.098C241.542 179.099 241.653 179.308 241.879 179.694C242.121 180.101 242.462 180.663 242.903 181.404C243.832 182.92 245.18 185.108 246.912 187.924C250.444 193.581 255.533 201.726 261.821 211.783C274.514 231.883 292.026 259.622 311.376 290.268C330.737 320.881 348.237 348.637 360.784 368.809C367.061 378.891 372.104 387.081 375.552 392.763C377.272 395.604 378.602 397.826 379.48 399.339C380.357 400.853 380.793 401.673 380.738 401.703C380.684 401.741 380.148 400.995 379.168 399.549C378.196 398.101 376.779 395.945 374.984 393.151C371.387 387.573 366.236 379.459 359.925 369.397C347.289 349.281 329.994 321.4 310.937 290.571L310.936 290.563Z" fill="#C8C4C4" style="fill:#C8C4C4;fill:color(display-p3 0.7843 0.7686 0.7686);fill-opacity:1;"/>
<path d="M304.032 294.446C289.753 260.895 276.833 230.534 267.467 208.531C262.745 197.577 258.923 188.712 256.266 182.553C254.931 179.51 253.891 177.145 253.167 175.511C252.81 174.73 252.537 174.12 252.342 173.691C252.151 173.286 252.047 173.076 252.033 173.086C252.019 173.088 252.102 173.307 252.267 173.732C252.447 174.17 252.7 174.789 253.023 175.583C253.719 177.228 254.724 179.612 256.01 182.669C258.659 188.829 262.475 197.703 267.197 208.656C276.75 230.575 289.933 260.811 304.503 294.227C319.091 327.609 332.254 357.864 341.652 379.831C346.355 390.811 350.123 399.714 352.687 405.891C353.969 408.98 354.948 411.383 355.585 413.027C356.23 414.669 356.54 415.543 356.477 415.566C356.422 415.596 355.994 414.775 355.246 413.184C354.498 411.592 353.422 409.231 352.057 406.184C349.328 400.088 345.449 391.237 340.705 380.278C331.21 358.361 318.261 328.003 304.019 294.463L304.032 294.446Z" fill="#C8C4C4" style="fill:#C8C4C4;fill:color(display-p3 0.7843 0.7686 0.7686);fill-opacity:1;"/>
<path d="M296.625 297.147C287.511 261.715 279.265 229.647 273.285 206.4C270.248 194.821 267.789 185.446 266.084 178.934C265.217 175.712 264.54 173.211 264.076 171.484C263.843 170.649 263.662 170.013 263.529 169.554C263.4 169.118 263.331 168.896 263.318 168.906C263.303 168.907 263.344 169.14 263.452 169.578C263.563 170.04 263.723 170.686 263.928 171.533C264.372 173.269 265.006 175.783 265.831 179.018C267.536 185.53 269.988 194.906 273.01 206.486C279.188 229.672 287.716 261.66 297.135 297.011C306.579 332.334 315.08 364.333 321.1 387.545C324.117 399.15 326.513 408.548 328.123 415.054C328.928 418.308 329.535 420.84 329.927 422.567C330.319 424.293 330.496 425.206 330.432 425.221C330.368 425.237 330.079 424.36 329.575 422.67C329.07 420.98 328.364 418.474 327.468 415.247C325.68 408.784 323.164 399.416 320.105 387.831C313.979 364.655 305.712 332.59 296.627 297.163L296.625 297.147Z" fill="#C8C4C4" style="fill:#C8C4C4;fill:color(display-p3 0.7843 0.7686 0.7686);fill-opacity:1;"/>
<path d="M288.901 298.582C285.095 262.155 281.651 229.188 279.16 205.293C277.864 193.375 276.81 183.73 276.082 177.037C275.699 173.72 275.401 171.145 275.192 169.358C275.08 168.501 274.998 167.839 274.937 167.363C274.878 166.911 274.838 166.686 274.824 166.688C274.81 166.69 274.821 166.918 274.858 167.372C274.904 167.849 274.965 168.514 275.041 169.375C275.22 171.158 275.484 173.745 275.823 177.066C276.551 183.768 277.598 193.413 278.887 205.324C281.587 229.196 285.311 262.13 289.427 298.531C293.562 334.906 297.266 367.85 299.804 391.716C301.08 403.645 302.072 413.312 302.703 419.993C303.023 423.333 303.251 425.932 303.385 427.695C303.519 429.459 303.558 430.387 303.501 430.394C303.436 430.401 303.274 429.487 303.032 427.735C302.783 425.984 302.454 423.397 302.041 420.068C301.23 413.408 300.116 403.754 298.797 391.83C296.151 367.977 292.685 335.005 288.902 298.59L288.901 298.582Z" fill="#C8C4C4" style="fill:#C8C4C4;fill:color(display-p3 0.7843 0.7686 0.7686);fill-opacity:1;"/>
<path d="M281.022 298.759C282.631 262.217 284.094 229.146 285.15 205.174C285.619 193.215 286.003 183.534 286.27 176.807C286.381 173.474 286.46 170.88 286.52 169.094C286.539 168.23 286.551 167.565 286.563 167.089C286.57 166.638 286.565 166.401 286.551 166.403C286.536 166.404 286.512 166.636 286.482 167.082C286.456 167.56 286.414 168.221 286.366 169.088C286.284 170.876 286.162 173.467 285.999 176.798C285.733 183.525 285.341 193.207 284.865 205.167C284.014 229.147 282.844 262.232 281.55 298.794C280.283 335.337 279.085 368.425 278.084 392.375C277.587 404.346 277.138 414.034 276.781 420.731C276.606 424.079 276.447 426.675 276.319 428.437C276.19 430.198 276.09 431.119 276.032 431.118C275.966 431.117 275.941 430.187 275.952 428.415C275.964 426.65 276.019 424.043 276.106 420.689C276.281 413.989 276.605 404.291 277.058 392.317C277.956 368.363 279.396 335.287 281.03 298.766L281.022 298.759Z" fill="#C8C4C4" style="fill:#C8C4C4;fill:color(display-p3 0.7843 0.7686 0.7686);fill-opacity:1;"/>
<path d="M273.218 297.617C280.28 261.866 286.67 229.519 291.304 206.067C293.557 194.357 295.385 184.876 296.651 178.289C297.258 175.019 297.729 172.483 298.047 170.724C298.192 169.877 298.308 169.224 298.392 168.748C298.466 168.304 298.498 168.072 298.483 168.073C298.469 168.075 298.414 168.295 298.318 168.732C298.217 169.194 298.079 169.842 297.904 170.684C297.555 172.432 297.04 174.964 296.389 178.224C295.115 184.804 293.287 194.284 291.019 205.997C286.594 229.496 280.489 261.913 273.741 297.732C267.021 333.54 260.895 365.96 256.317 389.397C254.029 401.119 252.141 410.591 250.782 417.125C250.102 420.396 249.559 422.932 249.169 424.644C248.78 426.356 248.546 427.252 248.479 427.236C248.419 427.219 248.527 426.306 248.803 424.559C249.08 422.82 249.519 420.264 250.109 416.972C251.281 410.396 253.055 400.89 255.292 389.165C259.766 365.708 266.132 333.34 273.218 297.617Z" fill="#C8C4C4" style="fill:#C8C4C4;fill:color(display-p3 0.7843 0.7686 0.7686);fill-opacity:1;"/>
<path d="M265.662 295.183C277.985 261.114 289.144 230.283 297.226 207.936C301.209 196.765 304.428 187.728 306.668 181.442C307.758 178.322 308.598 175.895 309.181 174.216C309.453 173.403 309.666 172.778 309.812 172.327C309.953 171.899 310.016 171.679 310.001 171.673C309.986 171.674 309.9 171.882 309.736 172.296C309.567 172.734 309.338 173.353 309.035 174.154C308.429 175.819 307.544 178.236 306.415 181.336C304.174 187.614 300.941 196.653 296.958 207.816C289.067 230.244 278.182 261.178 266.15 295.373C254.153 329.556 243.239 360.493 235.208 382.834C231.196 394.009 227.91 403.03 225.59 409.253C224.434 412.365 223.518 414.769 222.879 416.399C222.239 418.02 221.875 418.86 221.815 418.843C221.754 418.819 222.003 417.929 222.543 416.263C223.076 414.597 223.892 412.149 224.971 408.999C227.116 402.708 230.287 393.637 234.26 382.444C242.192 360.058 253.328 329.214 265.669 295.174L265.662 295.183Z" fill="#C8C4C4" style="fill:#C8C4C4;fill:color(display-p3 0.7843 0.7686 0.7686);fill-opacity:1;"/>
<path d="M258.56 291.556C275.815 259.997 291.429 231.445 302.749 210.74C308.347 200.383 312.879 192.004 316.023 186.177C317.561 183.283 318.756 181.029 319.586 179.473C319.974 178.718 320.28 178.137 320.495 177.718C320.697 177.315 320.791 177.115 320.783 177.108C320.768 177.102 320.651 177.297 320.425 177.678C320.194 178.084 319.873 178.658 319.453 179.393C318.6 180.936 317.374 183.17 315.789 186.037C312.636 191.857 308.104 200.236 302.499 210.587C291.358 231.398 275.995 260.103 259.013 291.829C242.067 323.551 226.675 352.252 215.413 372.959C209.785 383.311 205.192 391.666 201.974 397.422C200.369 400.299 199.104 402.521 198.225 404.02C197.352 405.518 196.863 406.285 196.808 406.252C196.754 406.218 197.133 405.385 197.911 403.826C198.69 402.268 199.86 399.993 201.388 397.069C204.442 391.221 208.933 382.799 214.521 372.419C225.689 351.66 241.286 323.086 258.56 291.556Z" fill="#C8C4C4" style="fill:#C8C4C4;fill:color(display-p3 0.7843 0.7686 0.7686);fill-opacity:1;"/>
<path d="M252.051 286.814C273.786 258.527 293.456 232.924 307.716 214.369C314.782 205.078 320.511 197.552 324.481 192.328C326.431 189.728 327.951 187.698 328.995 186.299C329.493 185.618 329.878 185.093 330.149 184.714C330.407 184.353 330.531 184.165 330.523 184.158C330.515 184.151 330.366 184.318 330.085 184.666C329.798 185.03 329.397 185.542 328.874 186.202C327.806 187.58 326.255 189.582 324.272 192.154C320.295 197.379 314.565 204.897 307.491 214.181C293.393 232.876 273.948 258.666 252.455 287.163C230.999 315.664 211.523 341.442 197.324 360.014C190.221 369.301 184.445 376.793 180.413 381.929C178.394 384.497 176.819 386.486 175.731 387.819C174.643 389.151 174.049 389.827 174.001 389.785C173.952 389.743 174.449 388.983 175.448 387.574C176.448 386.164 177.943 384.114 179.889 381.482C183.775 376.22 189.462 368.651 196.525 359.33C210.644 340.688 230.305 315.07 252.051 286.814Z" fill="#C8C4C4" style="fill:#C8C4C4;fill:color(display-p3 0.7843 0.7686 0.7686);fill-opacity:1;"/>
<path d="M246.329 281.086C272.023 256.755 295.269 234.741 312.124 218.778C320.494 210.771 327.266 204.289 331.974 199.788C334.292 197.541 336.09 195.788 337.331 194.581C337.927 193.991 338.379 193.537 338.713 193.207C339.02 192.895 339.176 192.728 339.168 192.721C339.16 192.714 338.986 192.852 338.663 193.149C338.327 193.464 337.851 193.897 337.238 194.465C335.973 195.651 334.149 197.368 331.797 199.579C327.089 204.072 320.309 210.547 311.938 218.546C295.224 234.667 272.172 256.912 246.695 281.487C221.248 306.075 198.172 328.3 181.371 344.288C172.97 352.282 166.149 358.714 161.394 363.126C159.021 365.332 157.165 367.028 155.888 368.168C154.617 369.3 153.924 369.877 153.882 369.826C153.84 369.776 154.442 369.107 155.645 367.887C156.839 366.661 158.627 364.878 160.942 362.608C165.571 358.052 172.308 351.519 180.676 343.489C197.402 327.422 220.638 305.385 246.336 281.085L246.329 281.086Z" fill="#C8C4C4" style="fill:#C8C4C4;fill:color(display-p3 0.7843 0.7686 0.7686);fill-opacity:1;"/>
<path d="M241.504 274.458C270.543 254.706 296.814 236.824 315.86 223.871C325.332 217.36 332.998 212.082 338.318 208.421C340.945 206.582 342.984 205.157 344.396 204.176C345.069 203.688 345.589 203.321 345.966 203.049C346.315 202.788 346.489 202.65 346.488 202.642C346.487 202.627 346.289 202.744 345.921 202.975C345.541 203.224 345.006 203.577 344.314 204.035C342.893 204.994 340.828 206.389 338.175 208.184C332.846 211.838 325.18 217.109 315.707 223.611C296.777 236.757 270.658 254.883 241.797 274.923C212.967 294.976 186.831 313.087 167.833 326.075C158.338 332.572 150.629 337.792 145.268 341.355C142.592 343.136 140.502 344.503 139.075 345.416C137.648 346.328 136.882 346.77 136.847 346.719C136.811 346.66 137.514 346.106 138.878 345.09C140.243 344.082 142.271 342.619 144.902 340.756C150.157 337.031 157.795 331.701 167.27 325.158C186.207 312.075 212.475 294.17 241.51 274.449L241.504 274.458Z" fill="#C8C4C4" style="fill:#C8C4C4;fill:color(display-p3 0.7843 0.7686 0.7686);fill-opacity:1;"/>
<path d="M237.711 267.163C269.389 252.505 298.061 239.238 318.84 229.622C329.184 224.768 337.556 220.841 343.368 218.112C346.236 216.736 348.469 215.669 350.018 214.933C350.756 214.565 351.329 214.287 351.736 214.083C352.122 213.889 352.314 213.78 352.312 213.764C352.311 213.749 352.101 213.828 351.705 213.999C351.288 214.181 350.706 214.444 349.956 214.774C348.405 215.487 346.153 216.516 343.265 217.847C337.445 220.569 329.072 224.488 318.727 229.334C298.037 239.153 269.483 252.7 237.936 267.668C206.413 282.657 177.85 296.18 157.112 305.838C146.744 310.671 138.335 314.54 132.505 317.168C129.585 318.478 127.317 319.486 125.766 320.143C124.216 320.801 123.392 321.115 123.363 321.055C123.334 320.995 124.108 320.56 125.61 319.789C127.111 319.019 129.339 317.913 132.212 316.513C137.965 313.712 146.323 309.723 156.672 304.845C177.362 295.089 206.031 281.791 237.705 267.172L237.711 267.163Z" fill="#C8C4C4" style="fill:#C8C4C4;fill:color(display-p3 0.7843 0.7686 0.7686);fill-opacity:1;"/>
<path d="M235.056 259.327C268.589 250.127 298.942 241.801 320.935 235.764C331.896 232.698 340.766 230.209 346.925 228.485C349.973 227.602 352.337 226.924 353.974 226.454C354.763 226.215 355.37 226.035 355.799 225.9C356.207 225.775 356.417 225.696 356.415 225.68C356.413 225.664 356.192 225.705 355.775 225.816C355.336 225.929 354.72 226.085 353.927 226.293C352.287 226.74 349.904 227.381 346.843 228.209C340.683 229.926 331.805 232.408 320.85 235.465C298.91 241.71 268.635 250.336 235.189 259.857C201.76 269.401 171.482 278.004 149.524 284.084C138.545 287.128 129.645 289.55 123.482 291.172C120.405 291.986 118.004 292.597 116.372 292.988C114.741 293.378 113.879 293.554 113.857 293.493C113.843 293.432 114.675 293.124 116.272 292.619C117.876 292.106 120.243 291.388 123.296 290.489C129.409 288.683 138.272 286.131 149.238 283.041C171.17 276.853 201.52 268.503 235.042 259.329L235.056 259.327Z" fill="#C8C4C4" style="fill:#C8C4C4;fill:color(display-p3 0.7843 0.7686 0.7686);fill-opacity:1;"/>
<path d="M233.592 251.16C268.137 247.562 299.399 244.303 322.062 241.946C333.362 240.708 342.503 239.714 348.858 239.019C352 238.648 354.445 238.363 356.135 238.164C356.946 238.057 357.579 237.977 358.024 237.919C358.447 237.863 358.669 237.822 358.667 237.807C358.665 237.791 358.448 237.8 358.014 237.833C357.56 237.877 356.932 237.932 356.117 238C354.423 238.168 351.975 238.421 348.826 238.738C342.477 239.424 333.329 240.419 322.029 241.649C299.39 244.225 268.161 247.772 233.653 251.698C199.161 255.646 167.923 259.171 145.295 261.587C133.978 262.796 124.815 263.729 118.477 264.32C115.305 264.615 112.844 264.83 111.175 264.956C109.5 265.09 108.622 265.118 108.615 265.055C108.607 264.993 109.478 264.831 111.134 264.589C112.79 264.346 115.246 264.029 118.399 263.633C124.715 262.847 133.864 261.789 145.176 260.534C167.792 258.016 199.058 254.733 233.592 251.16Z" fill="#C8C4C4" style="fill:#C8C4C4;fill:color(display-p3 0.7843 0.7686 0.7686);fill-opacity:1;"/>
<path d="M233.342 242.867C268.059 244.974 299.482 246.884 322.255 248.269C333.62 248.897 342.816 249.415 349.209 249.767C352.374 249.915 354.835 250.032 356.542 250.116C357.361 250.142 357.998 250.165 358.452 250.185C358.882 250.191 359.101 250.19 359.1 250.183C359.098 250.167 358.884 250.144 358.45 250.106C357.994 250.07 357.362 250.023 356.546 249.958C354.843 249.85 352.385 249.693 349.221 249.489C342.834 249.128 333.631 248.612 322.273 247.975C299.488 246.812 268.055 245.204 233.325 243.431C198.606 241.688 167.17 240.057 144.417 238.724C133.042 238.065 123.832 237.486 117.478 237.035C114.298 236.809 111.828 236.614 110.156 236.463C108.485 236.312 107.605 236.198 107.612 236.126C107.612 236.063 108.499 236.042 110.171 236.074C111.85 236.106 114.322 236.19 117.507 236.32C123.875 236.58 133.085 237.033 144.463 237.644C167.218 238.865 198.644 240.743 233.351 242.882L233.342 242.867Z" fill="#C8C4C4" style="fill:#C8C4C4;fill:color(display-p3 0.7843 0.7686 0.7686);fill-opacity:1;"/>
<path d="M234.329 234.658C268.368 242.494 299.168 249.589 321.492 254.733C332.639 257.236 341.664 259.267 347.936 260.677C351.044 261.353 353.464 261.878 355.136 262.235C355.942 262.396 356.568 262.523 357.016 262.615C357.44 262.693 357.655 262.732 357.661 262.716C357.659 262.7 357.448 262.637 357.035 262.534C356.593 262.426 355.979 262.274 355.176 262.072C353.508 261.683 351.097 261.118 347.999 260.393C341.733 258.983 332.708 256.944 321.56 254.425C299.187 249.5 268.334 242.703 234.23 235.198C200.145 227.723 169.281 220.904 146.971 215.821C135.813 213.28 126.796 211.185 120.571 209.683C117.456 208.936 115.048 208.331 113.411 207.9C111.781 207.467 110.928 207.208 110.943 207.143C110.957 207.078 111.832 207.208 113.485 207.52C115.138 207.831 117.576 208.322 120.703 208.98C126.964 210.288 136.011 212.262 147.179 214.754C169.513 219.731 200.325 226.802 234.338 234.665L234.329 234.658Z" fill="#C8C4C4" style="fill:#C8C4C4;fill:color(display-p3 0.7843 0.7686 0.7686);fill-opacity:1;"/>
<path d="M236.53 226.745C269.037 240.107 298.45 252.206 319.778 260.973C330.431 265.295 339.059 268.786 345.053 271.215C348.029 272.397 350.347 273.313 351.942 273.947C352.719 274.246 353.313 274.472 353.739 274.637C354.15 274.788 354.355 274.86 354.36 274.843C354.358 274.828 354.165 274.731 353.767 274.555C353.345 274.373 352.756 274.123 351.99 273.791C350.4 273.133 348.098 272.176 345.139 270.945C339.152 268.515 330.529 265.007 319.876 260.685C298.484 252.123 268.965 240.305 236.347 227.256C203.741 214.238 174.226 202.396 152.905 193.691C142.248 189.338 133.634 185.774 127.696 183.267C124.727 182.014 122.429 181.025 120.879 180.33C119.329 179.636 118.527 179.244 118.548 179.179C118.57 179.113 119.417 179.389 121.007 179.976C122.595 180.555 124.933 181.445 127.935 182.608C133.933 184.942 142.592 188.382 153.265 192.686C174.618 201.292 204.05 213.365 236.53 226.745Z" fill="#C8C4C4" style="fill:#C8C4C4;fill:color(display-p3 0.7843 0.7686 0.7686);fill-opacity:1;"/>
<path d="M239.888 219.295C270.072 237.821 297.383 254.593 317.184 266.743C327.088 272.754 335.107 277.619 340.67 280.998C343.436 282.654 345.592 283.936 347.085 284.827C347.809 285.243 348.363 285.568 348.761 285.799C349.143 286.017 349.337 286.122 349.349 286.104C349.356 286.096 349.173 285.966 348.803 285.723C348.411 285.475 347.87 285.133 347.163 284.683C345.69 283.775 343.552 282.451 340.809 280.753C335.246 277.366 327.226 272.493 317.329 266.481C297.425 254.517 269.977 238.014 239.636 219.774C209.299 201.566 181.855 185.039 162.053 172.944C152.153 166.901 144.156 161.97 138.658 158.52C135.905 156.792 133.777 155.436 132.352 154.498C130.92 153.561 130.183 153.035 130.213 152.977C130.243 152.918 131.039 153.326 132.525 154.162C134.012 154.998 136.194 156.253 138.988 157.898C144.577 161.187 152.634 166 162.559 172.001C182.416 184.003 209.746 200.748 239.895 219.294L239.888 219.295Z" fill="#C8C4C4" style="fill:#C8C4C4;fill:color(display-p3 0.7843 0.7686 0.7686);fill-opacity:1;"/>
<path d="M244.318 212.48C271.454 235.691 296.008 256.696 313.804 271.927C322.716 279.473 329.937 285.591 334.941 289.832C337.435 291.913 339.382 293.535 340.726 294.656C341.376 295.191 341.882 295.601 342.242 295.892C342.587 296.169 342.769 296.299 342.776 296.29C342.782 296.282 342.619 296.126 342.293 295.823C341.945 295.515 341.452 295.088 340.82 294.527C339.496 293.388 337.575 291.732 335.112 289.607C330.107 285.358 322.894 279.24 313.981 271.685C296.052 256.628 271.319 235.857 243.987 212.905C216.651 189.985 191.93 169.189 174.12 154.023C165.211 146.444 158.028 140.268 153.097 135.963C150.631 133.815 148.728 132.125 147.446 130.965C146.17 129.805 145.515 129.167 145.553 129.116C145.591 129.064 146.322 129.598 147.667 130.663C149.018 131.728 150.985 133.332 153.508 135.411C158.554 139.568 165.812 145.633 174.753 153.177C192.626 168.256 217.202 189.251 244.31 212.473L244.318 212.48Z" fill="#C8C4C4" style="fill:#C8C4C4;fill:color(display-p3 0.7843 0.7686 0.7686);fill-opacity:1;"/>
<path d="M249.698 206.522C273.125 233.852 294.32 258.589 309.688 276.514C317.391 285.415 323.635 292.63 327.968 297.635C330.134 300.102 331.815 302.015 332.977 303.338C333.544 303.97 333.986 304.457 334.295 304.81C334.595 305.14 334.752 305.304 334.765 305.294C334.779 305.285 334.634 305.104 334.355 304.756C334.051 304.395 333.637 303.888 333.09 303.238C331.947 301.897 330.292 299.95 328.166 297.455C323.84 292.449 317.603 285.232 309.9 276.324C294.38 258.543 272.975 234.012 249.311 206.897C225.643 179.823 204.25 155.267 188.858 137.392C181.159 128.459 174.968 121.198 170.717 116.145C168.595 113.617 166.959 111.644 165.865 110.289C164.772 108.935 164.224 108.206 164.27 108.161C164.315 108.117 164.957 108.763 166.136 110.037C167.314 111.311 169.03 113.212 171.217 115.669C175.599 120.589 181.883 127.769 189.614 136.667C205.078 154.47 226.3 179.188 249.691 206.522L249.698 206.522Z" fill="#C8C4C4" style="fill:#C8C4C4;fill:color(display-p3 0.7843 0.7686 0.7686);fill-opacity:1;"/>
<path d="M255.904 201.531C275.024 232.337 292.333 260.209 304.877 280.414C311.18 290.461 316.282 298.597 319.828 304.244C321.6 307.032 322.981 309.193 323.937 310.689C324.404 311.403 324.765 311.956 325.022 312.354C325.268 312.729 325.405 312.911 325.412 312.902C325.426 312.901 325.315 312.692 325.089 312.306C324.846 311.899 324.506 311.337 324.065 310.596C323.136 309.08 321.781 306.893 320.05 304.085C316.511 298.437 311.408 290.293 305.113 280.245C292.394 260.163 274.855 232.451 255.464 201.826C236.062 171.233 218.536 143.504 205.961 123.35C199.671 113.278 194.622 105.097 191.167 99.4155C189.439 96.5749 188.118 94.3604 187.233 92.8477C186.355 91.3341 185.913 90.5223 185.967 90.4846C186.021 90.4468 186.557 91.1926 187.537 92.6393C188.517 94.0861 189.926 96.2431 191.728 99.0279C195.331 104.605 200.488 112.711 206.82 122.763C219.483 142.859 236.806 170.722 255.896 201.524L255.904 201.531Z" fill="#C8C4C4" style="fill:#C8C4C4;fill:color(display-p3 0.7843 0.7686 0.7686);fill-opacity:1;"/>
<path d="M262.797 197.602C277.118 231.133 290.072 261.474 299.467 283.474C304.202 294.418 308.039 303.281 310.702 309.439C312.045 312.482 313.084 314.847 313.808 316.473C314.166 317.254 314.438 317.864 314.633 318.293C314.824 318.698 314.928 318.907 314.942 318.898C314.956 318.896 314.873 318.677 314.708 318.252C314.528 317.814 314.275 317.195 313.952 316.401C313.256 314.756 312.252 312.379 310.951 309.317C308.294 303.158 304.465 294.293 299.736 283.34C290.155 261.433 276.938 231.216 262.326 197.821C247.704 164.451 234.499 134.217 225.073 112.268C220.357 101.298 216.575 92.3965 214.012 86.227C212.73 83.1384 211.744 80.7358 211.1 79.1009C210.455 77.4582 210.145 76.584 210.201 76.5619C210.256 76.532 210.684 77.3532 211.432 78.9447C212.18 80.5362 213.255 82.8892 214.627 85.9361C217.364 92.0305 221.249 100.873 226.015 111.829C235.538 133.736 248.521 164.074 262.804 197.601L262.797 197.602Z" fill="#C8C4C4" style="fill:#C8C4C4;fill:color(display-p3 0.7843 0.7686 0.7686);fill-opacity:1;"/>
<path d="M270.204 194.903C279.361 230.322 287.65 262.385 293.651 285.622C296.702 297.199 299.167 306.566 300.887 313.076C301.761 316.29 302.438 318.799 302.91 320.524C303.143 321.359 303.324 321.995 303.456 322.455C303.585 322.891 303.654 323.112 303.668 323.103C303.682 323.101 303.641 322.869 303.533 322.43C303.423 321.968 303.262 321.322 303.057 320.476C302.613 318.739 301.972 316.226 301.147 312.991C299.435 306.481 296.976 297.113 293.933 285.535C287.727 262.352 279.163 230.376 269.702 195.039C260.215 159.728 251.679 127.732 245.625 104.541C242.601 92.9444 240.191 83.5479 238.572 77.0344C237.76 73.782 237.153 71.2496 236.761 69.5229C236.37 67.8041 236.194 66.8911 236.25 66.869C236.314 66.8538 236.609 67.7296 237.114 69.4198C237.618 71.11 238.331 73.6146 239.228 76.8417C241.023 83.3036 243.553 92.6629 246.627 104.253C252.774 127.427 261.091 159.478 270.218 194.893L270.204 194.903Z" fill="#C8C4C4" style="fill:#C8C4C4;fill:color(display-p3 0.7843 0.7686 0.7686);fill-opacity:1;"/>
<path d="M277.937 193.461C281.786 229.884 285.266 262.846 287.793 286.745C289.104 298.661 290.173 308.304 290.908 314.997C291.298 318.313 291.596 320.888 291.805 322.675C291.917 323.532 291.999 324.195 292.06 324.67C292.126 325.121 292.159 325.347 292.173 325.345C292.187 325.343 292.175 325.108 292.139 324.661C292.093 324.184 292.032 323.519 291.956 322.658C291.777 320.875 291.506 318.289 291.167 314.967C290.431 308.267 289.377 298.622 288.067 286.714C285.339 262.846 281.578 229.915 277.419 193.519C273.24 157.149 269.501 124.209 266.926 100.347C265.636 88.4201 264.638 78.7532 263.992 72.0744C263.672 68.7346 263.437 66.1365 263.296 64.3735C263.162 62.6098 263.122 61.6813 263.187 61.674C263.252 61.6667 263.414 62.5813 263.663 64.332C263.912 66.0828 264.248 68.6696 264.661 71.9988C265.486 78.6572 266.607 88.3102 267.941 100.232C270.616 124.083 274.125 157.049 277.944 193.46L277.937 193.461Z" fill="#C8C4C4" style="fill:#C8C4C4;fill:color(display-p3 0.7843 0.7686 0.7686);fill-opacity:1;"/>
<path d="M285.811 193.284C284.246 229.829 282.827 262.903 281.792 286.872C281.338 298.83 280.969 308.517 280.709 315.243C280.605 318.576 280.527 321.17 280.467 322.963C280.448 323.827 280.436 324.493 280.424 324.968C280.417 325.42 280.422 325.656 280.436 325.655C280.451 325.653 280.476 325.421 280.505 324.975C280.531 324.498 280.573 323.837 280.621 322.969C280.703 321.181 280.825 318.59 280.973 315.261C281.233 308.535 281.61 298.855 282.079 286.895C282.901 262.91 284.034 229.822 285.284 193.265C286.507 156.719 287.661 123.628 288.64 99.6804C289.122 87.7036 289.564 78.0161 289.907 71.3204C290.082 67.9721 290.233 65.3777 290.362 63.6159C290.483 61.8549 290.583 60.9344 290.649 60.9349C290.715 60.9354 290.74 61.8655 290.729 63.6376C290.717 65.402 290.669 68.0085 290.589 71.3618C290.422 78.0692 290.112 87.7577 289.674 99.7375C288.805 123.688 287.409 156.767 285.813 193.3L285.811 193.284Z" fill="#C8C4C4" style="fill:#C8C4C4;fill:color(display-p3 0.7843 0.7686 0.7686);fill-opacity:1;"/>
<path d="M293.61 194.419C286.593 230.181 280.241 262.539 275.636 285.995C273.398 297.712 271.585 307.191 270.326 313.777C269.726 317.047 269.256 319.59 268.937 321.342C268.792 322.188 268.677 322.842 268.599 323.317C268.526 323.76 268.501 323.992 268.509 323.999C268.523 323.998 268.579 323.778 268.675 323.34C268.776 322.878 268.914 322.23 269.088 321.388C269.437 319.641 269.944 317.101 270.589 313.85C271.855 307.263 273.676 297.784 275.922 286.074C280.317 262.57 286.385 230.141 293.088 194.312C299.763 158.493 305.852 126.07 310.4 102.62C312.674 90.8989 314.553 81.4205 315.897 74.8803C316.569 71.6103 317.113 69.0742 317.502 67.362C317.892 65.6498 318.125 64.7537 318.186 64.7706C318.246 64.7875 318.139 65.7088 317.862 67.4478C317.585 69.1868 317.152 71.742 316.57 75.0335C315.406 81.6166 313.646 91.121 311.424 102.852C306.981 126.321 300.652 158.693 293.611 194.426L293.61 194.419Z" fill="#C8C4C4" style="fill:#C8C4C4;fill:color(display-p3 0.7843 0.7686 0.7686);fill-opacity:1;"/>
<path d="M301.172 196.815C288.888 230.903 277.773 261.745 269.715 284.105C265.747 295.282 262.537 304.326 260.304 310.611C259.221 313.73 258.381 316.157 257.798 317.836C257.526 318.65 257.32 319.274 257.167 319.726C257.026 320.153 256.963 320.374 256.978 320.38C256.993 320.378 257.079 320.171 257.243 319.757C257.411 319.311 257.641 318.7 257.944 317.899C258.55 316.233 259.428 313.817 260.556 310.717C262.79 304.44 266.008 295.395 269.984 284.225C277.844 261.792 288.697 230.83 300.684 196.625C312.642 162.423 323.518 131.474 331.519 109.12C335.516 97.9395 338.794 88.9116 341.099 82.6897C342.256 79.5784 343.164 77.1671 343.803 75.5452C344.443 73.9232 344.807 73.0757 344.868 73.1005C344.929 73.1252 344.68 74.0151 344.147 75.6803C343.614 77.3455 342.798 79.8016 341.733 82.9423C339.595 89.2321 336.432 98.3102 332.481 109.509C324.579 131.899 313.482 162.763 301.18 196.822L301.172 196.815Z" fill="#C8C4C4" style="fill:#C8C4C4;fill:color(display-p3 0.7843 0.7686 0.7686);fill-opacity:1;"/>
<path d="M308.29 200.46C291.073 232.039 275.491 260.619 264.201 281.336C258.619 291.7 254.095 300.086 250.958 305.912C249.421 308.813 248.226 311.067 247.403 312.623C247.015 313.378 246.71 313.966 246.494 314.378C246.292 314.78 246.198 314.981 246.206 314.988C246.221 314.994 246.338 314.799 246.557 314.418C246.788 314.013 247.109 313.439 247.529 312.703C248.375 311.161 249.601 308.927 251.185 306.052C254.33 300.226 258.853 291.84 264.444 281.483C275.554 260.659 290.885 231.926 307.828 200.18C324.734 168.431 340.096 139.711 351.327 118.992C356.946 108.632 361.523 100.263 364.734 94.5083C366.339 91.6308 367.597 89.4093 368.476 87.9105C369.349 86.4124 369.838 85.6456 369.893 85.6789C369.947 85.7123 369.568 86.5458 368.797 88.1035C368.026 89.6612 366.856 91.944 365.328 94.868C362.281 100.715 357.806 109.143 352.226 119.53C341.081 140.303 325.516 168.904 308.289 200.453L308.29 200.46Z" fill="#C8C4C4" style="fill:#C8C4C4;fill:color(display-p3 0.7843 0.7686 0.7686);fill-opacity:1;"/>
<path d="M314.785 205.183C293.082 233.498 273.444 259.129 259.208 277.705C252.151 287.01 246.438 294.542 242.467 299.766C240.518 302.375 239.006 304.403 237.962 305.802C237.463 306.483 237.078 307.009 236.808 307.388C236.55 307.749 236.426 307.937 236.434 307.944C236.442 307.951 236.59 307.784 236.864 307.436C237.151 307.072 237.552 306.56 238.075 305.9C239.142 304.515 240.687 302.514 242.669 299.941C246.64 294.717 252.36 287.184 259.426 277.886C273.499 259.17 292.913 233.359 314.373 204.827C335.796 176.298 355.24 150.492 369.415 131.899C376.503 122.606 382.271 115.107 386.3 109.955C388.311 107.38 389.886 105.391 390.974 104.058C392.062 102.726 392.656 102.05 392.705 102.092C392.753 102.134 392.256 102.894 391.257 104.303C390.258 105.713 388.764 107.771 386.824 110.402C382.939 115.672 377.267 123.247 370.212 132.575C356.11 151.231 336.489 176.884 314.776 205.168L314.785 205.183Z" fill="#C8C4C4" style="fill:#C8C4C4;fill:color(display-p3 0.7843 0.7686 0.7686);fill-opacity:1;"/>
<path d="M320.527 210.925C294.866 235.292 271.646 257.343 254.807 273.32C246.445 281.334 239.681 287.822 234.981 292.331C232.671 294.584 230.872 296.329 229.625 297.546C229.029 298.135 228.578 298.589 228.251 298.919C227.943 299.23 227.795 299.397 227.803 299.404C227.811 299.411 227.985 299.273 228.308 298.975C228.644 298.661 229.12 298.227 229.733 297.66C230.991 296.474 232.821 294.749 235.165 292.539C239.866 288.039 246.637 281.549 255.007 273.542C271.696 257.4 294.73 235.125 320.174 210.507C345.587 185.883 368.638 163.63 385.423 147.619C393.807 139.611 400.627 133.171 405.374 128.753C407.747 126.547 409.602 124.843 410.872 123.703C412.142 122.564 412.836 121.995 412.878 122.046C412.92 122.096 412.318 122.765 411.123 123.991C409.929 125.217 408.148 127 405.834 129.278C401.213 133.84 394.477 140.381 386.125 148.418C369.415 164.506 346.205 186.58 320.54 210.908L320.527 210.925Z" fill="#C8C4C4" style="fill:#C8C4C4;fill:color(display-p3 0.7843 0.7686 0.7686);fill-opacity:1;"/>
<path d="M325.357 217.512C296.345 237.309 270.092 255.22 251.064 268.203C241.601 274.728 233.943 280.014 228.624 283.683C226.005 285.521 223.959 286.954 222.555 287.943C221.882 288.43 221.363 288.805 220.992 289.068C220.643 289.329 220.469 289.467 220.477 289.474C220.479 289.49 220.677 289.372 221.036 289.134C221.416 288.886 221.952 288.533 222.643 288.075C224.064 287.108 226.128 285.712 228.775 283.919C234.095 280.257 241.761 274.979 251.224 268.454C270.136 255.286 296.236 237.115 325.071 217.038C353.875 196.949 379.992 178.8 398.972 165.783C408.458 159.271 416.166 154.043 421.518 150.465C424.194 148.676 426.283 147.309 427.71 146.397C429.137 145.485 429.902 145.034 429.938 145.094C429.974 145.153 429.272 145.707 427.915 146.722C426.55 147.738 424.523 149.2 421.899 151.063C416.652 154.795 409.015 160.133 399.548 166.69C380.621 179.796 354.379 197.738 325.37 217.495L325.357 217.512Z" fill="#C8C4C4" style="fill:#C8C4C4;fill:color(display-p3 0.7843 0.7686 0.7686);fill-opacity:1;"/>
<path d="M329.161 224.814C297.496 239.518 268.85 252.822 248.074 262.469C237.739 267.338 229.368 271.273 223.557 274.009C220.688 275.385 218.456 276.46 216.916 277.203C216.178 277.571 215.604 277.849 215.197 278.054C214.811 278.247 214.62 278.356 214.621 278.372C214.623 278.387 214.832 278.3 215.229 278.137C215.645 277.955 216.228 277.692 216.976 277.354C218.528 276.641 220.779 275.604 223.667 274.273C229.478 271.545 237.85 267.61 248.194 262.756C268.874 252.906 297.408 239.323 328.937 224.317C360.441 209.291 388.985 195.722 409.713 186.041C420.072 181.193 428.479 177.317 434.309 174.682C437.22 173.364 439.496 172.356 441.039 171.699C442.589 171.034 443.413 170.719 443.442 170.779C443.47 170.839 442.696 171.274 441.196 172.053C439.695 172.823 437.467 173.937 434.594 175.337C428.843 178.146 420.493 182.15 410.146 187.036C389.466 196.822 360.815 210.15 329.161 224.822L329.161 224.814Z" fill="#C8C4C4" style="fill:#C8C4C4;fill:color(display-p3 0.7843 0.7686 0.7686);fill-opacity:1;"/>
<path d="M331.82 232.646C298.299 241.892 267.958 250.257 245.969 256.325C235.016 259.405 226.147 261.902 219.989 263.634C216.941 264.517 214.578 265.203 212.942 265.681C212.153 265.92 211.547 266.107 211.117 266.235C210.71 266.368 210.499 266.439 210.501 266.455C210.503 266.47 210.724 266.429 211.134 266.32C211.573 266.207 212.189 266.05 212.982 265.842C214.622 265.396 217.004 264.747 220.065 263.918C226.224 262.194 235.094 259.705 246.054 256.623C267.99 250.348 298.247 241.685 331.687 232.116C365.103 222.526 395.37 213.885 417.325 207.774C428.302 204.714 437.193 202.286 443.355 200.656C446.433 199.841 448.833 199.222 450.465 198.832C452.095 198.434 452.958 198.265 452.979 198.326C452.994 198.388 452.169 198.695 450.565 199.208C448.969 199.721 446.595 200.44 443.544 201.354C437.431 203.168 428.569 205.727 417.612 208.832C395.684 215.052 365.353 223.446 331.836 232.66L331.82 232.646Z" fill="#C8C4C4" style="fill:#C8C4C4;fill:color(display-p3 0.7843 0.7686 0.7686);fill-opacity:1;"/>
</g>
</g>
<path d="M335.856 77.7952L197.519 96.1858C191.661 96.9645 187.544 102.344 188.323 108.202L214.498 305.097C215.277 310.954 220.657 315.072 226.514 314.293L364.851 295.902C370.708 295.124 374.825 289.744 374.047 283.887L347.871 86.9911C347.093 81.1337 341.713 77.0165 335.856 77.7952Z" fill="#F3F0F0" stroke="#65666D" style="fill:#F3F0F0;fill:color(display-p3 0.9529 0.9412 0.9412);fill-opacity:1;stroke:#65666D;stroke:color(display-p3 0.3952 0.3994 0.4292);stroke-opacity:1;" stroke-width="0.8" stroke-linecap="round" stroke-linejoin="round"/>
<g clip-path="url(#clip2_252_1929)">
<path d="M277.628 119.988L286.361 118.756L286.088 116.821L280.332 117.633C280.678 114.345 285.443 112.965 284.946 109.442C284.68 107.556 283.194 106.349 280.465 106.734C278.778 106.972 277.359 107.678 276.437 108.314L277.284 110.016C278.115 109.444 279.101 108.9 280.391 108.718C281.383 108.578 282.389 108.892 282.55 110.033C282.914 112.613 277.235 113.616 277.628 119.988ZM286.175 115.645L291.782 114.854L292.216 117.93L294.448 117.616L294.015 114.539L295.9 114.273L295.634 112.388L293.749 112.654L292.671 105.013L291.034 105.244L285.965 114.156L286.175 115.645ZM288.454 113.502L291.027 108.787C291.076 109.134 291.131 110.24 291.271 111.232L291.523 113.018L290.034 113.228C289.588 113.291 288.751 113.46 288.454 113.502Z" fill="#65666D" style="fill:#65666D;fill:color(display-p3 0.3961 0.4000 0.4275);fill-opacity:1;"/>
<path d="M213.953 127.052L213.4 123.132L214.343 122.999C215.186 122.88 215.895 122.881 216.433 123.109C216.971 123.337 217.339 123.791 217.451 124.585C217.64 125.925 216.93 126.632 215.044 126.898L213.953 127.052ZM211.936 129.259L215.261 128.79C218.982 128.266 220.091 126.439 219.769 124.157C219.552 122.619 218.76 121.668 217.535 121.233C216.572 120.863 215.409 120.875 214.02 121.071L213.127 121.197L212.707 118.22L217.719 117.513L218.055 115.593L210.116 116.713L211.887 129.266L211.936 129.259ZM221.86 127.86L224.043 127.552L226.297 123.084C226.738 122.263 227.03 121.463 227.222 121.031L227.272 121.024C227.299 121.577 227.348 122.278 227.446 122.973L228.005 126.942L230.238 126.628L228.979 117.696L226.796 118.004L224.541 122.472C224.15 123.286 223.808 124.093 223.616 124.525L223.567 124.532C223.539 123.979 223.491 123.278 223.393 122.583L222.833 118.614L220.6 118.929L221.86 127.86ZM234.066 126.138L236.348 125.816L235.348 118.721L238.027 118.343L238.357 116.374L230.07 117.542L230.336 119.428L233.065 119.043L234.066 126.138ZM241.054 129.758L243.287 129.443L242.65 124.928C243.117 125.014 243.571 125 244.067 124.93C246.895 124.531 248.458 122.337 248.066 119.559C247.661 116.681 245.715 115.083 242.489 115.538C241.249 115.713 240.093 116.129 239.143 116.567L241.004 129.765L241.054 129.758ZM242.377 122.993L241.635 117.733C241.968 117.585 242.259 117.493 242.656 117.437C244.294 117.206 245.461 117.953 245.734 119.888C245.979 121.624 245.29 122.835 243.603 123.073C243.156 123.136 242.795 123.086 242.377 122.993ZM250.043 123.885L252.226 123.577L254.481 119.11C254.921 118.288 255.213 117.488 255.405 117.056L255.455 117.049C255.482 117.602 255.531 118.304 255.629 118.998L256.189 122.968L258.421 122.653L257.162 113.722L254.979 114.03L252.724 118.497C252.333 119.311 251.991 120.119 251.799 120.551L251.75 120.558C251.722 120.005 251.674 119.303 251.576 118.608L251.016 114.639L248.783 114.954L250.043 123.885ZM260.215 122.451L262.497 122.129L261.972 118.407L263.312 118.218C263.56 118.183 263.843 118.397 264.225 118.95L265.772 121.667L268.203 121.324L266.083 118.131C265.701 117.578 265.355 117.273 264.887 117.187L264.88 117.137C265.561 116.586 265.479 115.281 265.834 114.573C265.955 114.354 266.139 114.227 266.437 114.185C266.586 114.164 266.785 114.136 266.947 114.214L266.674 112.279C266.412 112.215 265.959 112.228 265.711 112.263C264.917 112.375 264.463 112.743 264.185 113.288C263.595 114.484 263.861 116.37 262.769 116.524L261.727 116.671L261.23 113.148L258.948 113.47L260.215 122.451ZM273.292 120.809C274.533 120.634 275.618 120.076 276.242 119.482L275.381 118.035C274.784 118.473 274.224 118.805 273.381 118.924C271.842 119.141 270.71 118.288 270.451 116.453C270.22 114.815 271.031 113.385 272.718 113.147C273.611 113.021 274.291 113.178 274.999 113.534L274.726 111.599C274.188 111.371 273.352 111.185 272.211 111.346C269.531 111.724 267.727 114.003 268.126 116.831C268.49 119.411 270.365 121.222 273.292 120.809Z" fill="#65666D" style="fill:#65666D;fill:color(display-p3 0.3961 0.4000 0.4275);fill-opacity:1;"/>
<path d="M303.293 113.242C305.725 112.9 307.43 110.635 307.087 108.204C306.744 105.772 304.479 104.068 302.048 104.41C299.617 104.753 297.912 107.018 298.255 109.449C298.647 111.873 300.862 113.585 303.293 113.242Z" stroke="#65666D" style="stroke:#65666D;stroke:color(display-p3 0.3961 0.4000 0.4275);stroke-opacity:1;" stroke-width="0.950377"/>
<path d="M305.449 108.421L303.018 108.764L302.675 106.333L302.03 106.424L302.464 109.5L305.54 109.066L305.449 108.421Z" fill="#65666D" style="fill:#65666D;fill:color(display-p3 0.3961 0.4000 0.4275);fill-opacity:1;"/>
</g>
<path opacity="0.3" d="M311.583 133.935L227.869 145.075C227.421 145.138 227.11 145.548 227.165 145.989C227.228 146.437 227.638 146.748 228.079 146.692L311.793 135.553C312.241 135.49 312.552 135.08 312.497 134.639C312.442 134.198 312.031 133.88 311.583 133.935Z" fill="#65666D" style="fill:#65666D;fill:color(display-p3 0.3952 0.3994 0.4292);fill-opacity:1;"/>
<path opacity="0.3" d="M312.351 139.735L216.075 152.546C215.627 152.609 215.316 153.019 215.371 153.46C215.434 153.908 215.844 154.219 216.285 154.164L312.561 141.352C313.009 141.289 313.321 140.879 313.265 140.438C313.21 139.998 312.8 139.679 312.351 139.735Z" fill="#65666D" style="fill:#65666D;fill:color(display-p3 0.3952 0.3994 0.4292);fill-opacity:1;"/>
<path opacity="0.3" d="M287.994 148.901L216.843 158.369C216.395 158.432 216.084 158.842 216.139 159.283C216.202 159.731 216.612 160.042 217.053 159.987L288.204 150.519C288.652 150.456 288.963 150.046 288.908 149.605C288.845 149.157 288.435 148.846 287.994 148.901Z" fill="#65666D" style="fill:#65666D;fill:color(display-p3 0.3952 0.3994 0.4292);fill-opacity:1;"/>
<path opacity="0.3" d="M334.478 143.021C334.477 143.019 334.476 143.017 334.474 143.018L325.986 144.144C324.847 144.298 323.794 143.498 323.647 142.351L322.52 133.86C322.366 132.721 323.173 131.667 324.313 131.521L332.804 130.394C333.944 130.24 334.997 131.047 335.143 132.187L336.271 140.686C336.424 141.824 335.626 142.868 334.481 143.024C334.479 143.024 334.478 143.023 334.478 143.021V143.021Z" stroke="#65666D" style="stroke:#65666D;stroke:color(display-p3 0.3952 0.3994 0.4292);stroke-opacity:1;" stroke-width="0.761516" stroke-linecap="round" stroke-linejoin="round"/>
<path d="M325.939 137.064L328.79 139.646L332.361 133.925" stroke="#FFA469" style="stroke:#FFA469;stroke:color(display-p3 1.0000 0.6431 0.4118);stroke-opacity:1;" stroke-width="2.28455" stroke-linecap="round" stroke-linejoin="round"/>
<path opacity="0.3" d="M315.243 161.466L231.529 172.606C231.081 172.669 230.77 173.079 230.825 173.52C230.888 173.968 231.299 174.279 231.739 174.224L315.453 163.084C315.901 163.021 316.212 162.611 316.157 162.17C316.094 161.722 315.691 161.411 315.243 161.466Z" fill="#65666D" style="fill:#65666D;fill:color(display-p3 0.3952 0.3994 0.4292);fill-opacity:1;"/>
<path opacity="0.3" d="M316.012 167.266L219.735 180.077C219.287 180.14 218.976 180.55 219.031 180.991C219.086 181.432 219.504 181.75 219.945 181.695L316.222 168.884C316.67 168.821 316.981 168.41 316.925 167.97C316.863 167.522 316.46 167.211 316.012 167.266Z" fill="#65666D" style="fill:#65666D;fill:color(display-p3 0.3952 0.3994 0.4292);fill-opacity:1;"/>
<path opacity="0.3" d="M291.655 176.433L220.503 185.9C220.055 185.963 219.744 186.374 219.799 186.814C219.862 187.262 220.272 187.573 220.713 187.518L291.865 178.051C292.313 177.988 292.624 177.577 292.568 177.137C292.506 176.689 292.095 176.378 291.655 176.433Z" fill="#65666D" style="fill:#65666D;fill:color(display-p3 0.3952 0.3994 0.4292);fill-opacity:1;"/>
<path opacity="0.3" d="M338.134 170.541L329.642 171.668C328.503 171.822 327.45 171.022 327.303 169.875L326.176 161.383C326.022 160.244 326.83 159.198 327.969 159.044L336.461 157.917C337.6 157.763 338.653 158.563 338.799 159.71L339.927 168.202C340.081 169.341 339.281 170.394 338.134 170.541Z" stroke="#65666D" style="stroke:#65666D;stroke:color(display-p3 0.3952 0.3994 0.4292);stroke-opacity:1;" stroke-width="0.761516" stroke-linecap="round" stroke-linejoin="round"/>
<path d="M329.595 164.588L332.446 167.169L336.017 161.448" stroke="#FFA469" style="stroke:#FFA469;stroke:color(display-p3 1.0000 0.6431 0.4118);stroke-opacity:1;" stroke-width="2.28455" stroke-linecap="round" stroke-linejoin="round"/>
<path opacity="0.3" d="M318.897 188.99L235.182 200.129C234.734 200.192 234.423 200.603 234.478 201.043C234.541 201.491 234.952 201.802 235.392 201.747L319.106 190.608C319.555 190.545 319.866 190.134 319.81 189.694C319.747 189.246 319.345 188.935 318.897 188.99Z" fill="#65666D" style="fill:#65666D;fill:color(display-p3 0.3952 0.3994 0.4292);fill-opacity:1;"/>
<path opacity="0.3" d="M319.665 194.821L223.388 207.632C222.94 207.695 222.629 208.105 222.684 208.546C222.74 208.986 223.158 209.305 223.598 209.25L319.875 196.438C320.323 196.375 320.634 195.965 320.579 195.524C320.516 195.076 320.113 194.765 319.665 194.821Z" fill="#65666D" style="fill:#65666D;fill:color(display-p3 0.3952 0.3994 0.4292);fill-opacity:1;"/>
<path opacity="0.3" d="M295.308 203.972L224.156 213.439C223.708 213.502 223.397 213.913 223.452 214.353C223.507 214.794 223.926 215.112 224.366 215.057L295.518 205.59C295.966 205.527 296.277 205.116 296.222 204.676C296.167 204.235 295.756 203.916 295.308 203.972Z" fill="#65666D" style="fill:#65666D;fill:color(display-p3 0.3952 0.3994 0.4292);fill-opacity:1;"/>
<path opacity="0.3" d="M341.791 198.08L333.299 199.207C332.16 199.361 331.107 198.561 330.961 197.414L329.833 188.922C329.679 187.783 330.487 186.738 331.626 186.584L340.118 185.456C341.257 185.302 342.31 186.102 342.457 187.249L343.584 195.741C343.738 196.88 342.938 197.926 341.791 198.08Z" stroke="#65666D" style="stroke:#65666D;stroke:color(display-p3 0.3952 0.3994 0.4292);stroke-opacity:1;" stroke-width="0.761516" stroke-linecap="round" stroke-linejoin="round"/>
<path d="M333.256 192.134L336.107 194.716L339.678 188.995" stroke="#FFA469" style="stroke:#FFA469;stroke:color(display-p3 1.0000 0.6431 0.4118);stroke-opacity:1;" stroke-width="2.28455" stroke-linecap="round" stroke-linejoin="round"/>
<path opacity="0.3" d="M322.567 216.513L238.853 227.653C238.405 227.716 238.094 228.126 238.149 228.567C238.212 229.015 238.623 229.326 239.063 229.271L322.777 218.131C323.225 218.068 323.537 217.658 323.481 217.217C323.418 216.769 323.008 216.458 322.567 216.513Z" fill="#65666D" style="fill:#65666D;fill:color(display-p3 0.3952 0.3994 0.4292);fill-opacity:1;"/>
<path opacity="0.3" d="M323.336 222.321L227.059 235.132C226.611 235.195 226.3 235.605 226.355 236.046C226.418 236.494 226.829 236.805 227.269 236.75L323.546 223.938C323.994 223.875 324.305 223.465 324.25 223.024C324.187 222.576 323.776 222.265 323.336 222.321Z" fill="#65666D" style="fill:#65666D;fill:color(display-p3 0.3952 0.3994 0.4292);fill-opacity:1;"/>
<path opacity="0.3" d="M298.979 231.472L227.827 240.939C227.379 241.002 227.068 241.413 227.123 241.853C227.186 242.301 227.596 242.612 228.037 242.557L299.189 233.09C299.637 233.027 299.948 232.616 299.893 232.176C299.83 231.728 299.427 231.416 298.979 231.472Z" fill="#65666D" style="fill:#65666D;fill:color(display-p3 0.3952 0.3994 0.4292);fill-opacity:1;"/>
<path opacity="0.3" d="M345.458 225.603L336.966 226.73C335.827 226.884 334.774 226.084 334.628 224.937L333.5 216.446C333.346 215.307 334.154 214.261 335.293 214.107L343.785 212.98C344.924 212.826 345.977 213.626 346.124 214.773L347.251 223.264C347.405 224.403 346.597 225.449 345.458 225.603Z" stroke="#65666D" style="stroke:#65666D;stroke:color(display-p3 0.3952 0.3994 0.4292);stroke-opacity:1;" stroke-width="0.761516" stroke-linecap="round" stroke-linejoin="round"/>
<path d="M336.923 219.658L339.774 222.24L343.345 216.519" stroke="#FFA469" style="stroke:#FFA469;stroke:color(display-p3 1.0000 0.6431 0.4118);stroke-opacity:1;" stroke-width="2.28455" stroke-linecap="round" stroke-linejoin="round"/>
<path opacity="0.3" d="M326.221 244.045L242.507 255.184C242.059 255.247 241.748 255.657 241.803 256.098C241.866 256.546 242.276 256.857 242.717 256.802L326.431 245.662C326.879 245.6 327.19 245.189 327.135 244.749C327.072 244.301 326.661 243.989 326.221 244.045Z" fill="#65666D" style="fill:#65666D;fill:color(display-p3 0.3952 0.3994 0.4292);fill-opacity:1;"/>
<path opacity="0.3" d="M326.989 249.852L230.713 262.663C230.265 262.726 229.953 263.136 230.009 263.577C230.072 264.025 230.482 264.336 230.923 264.281L327.199 251.47C327.647 251.407 327.958 250.996 327.903 250.556C327.84 250.108 327.43 249.797 326.989 249.852Z" fill="#65666D" style="fill:#65666D;fill:color(display-p3 0.3952 0.3994 0.4292);fill-opacity:1;"/>
<path opacity="0.3" d="M302.64 259.003L231.488 268.471C231.04 268.534 230.729 268.944 230.784 269.385C230.847 269.833 231.258 270.144 231.698 270.089L302.85 260.621C303.298 260.558 303.609 260.148 303.554 259.707C303.491 259.259 303.088 258.948 302.64 259.003Z" fill="#65666D" style="fill:#65666D;fill:color(display-p3 0.3952 0.3994 0.4292);fill-opacity:1;"/>
<path opacity="0.3" d="M349.115 253.119L340.624 254.246C339.484 254.4 338.431 253.592 338.285 252.453L337.158 243.961C337.004 242.822 337.811 241.769 338.951 241.623L347.442 240.495C348.581 240.341 349.635 241.149 349.781 242.288L350.908 250.78C351.062 251.919 350.255 252.972 349.115 253.119Z" stroke="#65666D" style="stroke:#65666D;stroke:color(display-p3 0.3952 0.3994 0.4292);stroke-opacity:1;" stroke-width="0.761516" stroke-linecap="round" stroke-linejoin="round"/>
<path d="M340.584 247.173L343.427 249.755L346.999 244.034" stroke="#FFA469" style="stroke:#FFA469;stroke:color(display-p3 1.0000 0.6431 0.4118);stroke-opacity:1;" stroke-width="2.28455" stroke-linecap="round" stroke-linejoin="round"/>
<path opacity="0.3" d="M329.025 265.021L245.311 276.161C244.863 276.224 244.552 276.634 244.607 277.075C244.67 277.523 245.081 277.834 245.521 277.778L329.235 266.639C329.683 266.576 329.995 266.166 329.939 265.725C329.876 265.277 329.474 264.966 329.025 265.021Z" fill="#65666D" style="fill:#65666D;fill:color(display-p3 0.3952 0.3994 0.4292);fill-opacity:1;"/>
<path opacity="0.3" d="M329.794 270.836L233.517 283.647C233.069 283.71 232.758 284.121 232.813 284.561C232.876 285.009 233.287 285.32 233.727 285.265L330.004 272.454C330.452 272.391 330.763 271.981 330.708 271.54C330.645 271.092 330.242 270.781 329.794 270.836Z" fill="#65666D" style="fill:#65666D;fill:color(display-p3 0.3952 0.3994 0.4292);fill-opacity:1;"/>
<path opacity="0.3" d="M305.437 279.995L234.285 289.463C233.837 289.526 233.526 289.936 233.581 290.377C233.644 290.825 234.055 291.136 234.495 291.081L305.647 281.613C306.095 281.55 306.406 281.14 306.351 280.699C306.288 280.251 305.877 279.94 305.437 279.995Z" fill="#65666D" style="fill:#65666D;fill:color(display-p3 0.3952 0.3994 0.4292);fill-opacity:1;"/>
<path opacity="0.3" d="M351.912 274.103L343.421 275.23C342.281 275.384 341.228 274.577 341.082 273.437L339.954 264.946C339.8 263.807 340.608 262.753 341.747 262.607L350.239 261.48C351.378 261.326 352.431 262.133 352.578 263.273L353.705 271.764C353.859 272.903 353.059 273.949 351.912 274.103Z" stroke="#65666D" style="stroke:#65666D;stroke:color(display-p3 0.3952 0.3994 0.4292);stroke-opacity:1;" stroke-width="0.761516" stroke-linecap="round" stroke-linejoin="round"/>
<path d="M343.381 268.158L346.232 270.74L349.803 265.019" stroke="#FFA469" style="stroke:#FFA469;stroke:color(display-p3 1.0000 0.6431 0.4118);stroke-opacity:1;" stroke-width="2.28455" stroke-linecap="round" stroke-linejoin="round"/>
<path d="M270.314 298.491C270.086 300.151 261.21 312.454 256.035 321.63C250.86 330.806 246.168 346.685 244.87 349.064C243.58 351.443 227.45 366.227 223.032 372.374C218.615 378.512 210.647 381.365 202.719 387.248C197.623 391.024 181.903 410.281 171.316 423.563C165.432 430.946 161.129 436.487 161.129 436.487L91.2675 419.861C91.2675 419.861 96.9173 414.995 104.347 408.436C104.347 408.436 104.372 408.427 104.397 408.401C104.414 408.383 104.439 408.366 104.472 408.34C116.7 397.544 133.694 382.266 138.358 376.538C145.874 367.312 156.383 356.34 156.383 356.34C155.459 343.773 156.535 331.825 155.258 327.321C154.596 324.967 153.212 311.527 152.309 307.404C150.02 296.87 140.817 286.102 139.714 281.806C138.62 277.509 126.355 259.33 132.059 255.803C133.249 255.065 134.423 254.819 135.572 254.955C143.4 255.865 150.236 274.577 154.751 279.284C156.183 280.772 158.118 283.489 160.047 286.401C163.662 291.866 167.223 298.019 167.223 298.019C168.448 292.62 158.306 273.699 155.227 255.636C152.156 237.573 144.227 228.008 154.603 226.665C155.517 226.543 156.376 226.609 157.187 226.83C164.554 228.81 168.055 243.953 172.75 258.62C173.186 259.969 176.73 269.644 179.487 277.105C179.487 277.105 179.49 277.111 179.496 277.122C181.29 282.006 182.742 285.938 182.742 285.938C182.874 276.701 179.839 268.203 179.158 259.823C178.882 256.476 179.662 243.024 178.033 229.632C176.653 218.331 177.072 213.73 181.481 212.744C182.292 212.557 183.249 212.502 184.354 212.546C192.042 212.865 195.204 233.209 195.375 241.175C195.475 245.799 196.458 254.808 197.265 261.564C197.854 266.448 198.35 270.155 198.35 270.155C198.35 270.155 199.448 258.886 197.926 234.661C197.582 229.356 197.849 225.547 199.902 223.967C201.03 223.111 202.681 222.914 205.07 223.508C211.819 225.179 214.535 249.997 214.737 259.397C214.939 268.797 220.656 284.783 221.938 297.453C223.221 310.114 227.95 325.587 227.95 325.587C227.95 325.587 230.458 326.543 232.122 326.176C233.794 325.801 245.006 308.44 245.006 308.44C250.15 296.608 260.576 292.845 266.322 294.02C268.973 294.557 270.637 296.15 270.314 298.491Z" fill="#E8E8E8" style="fill:#E8E8E8;fill:color(display-p3 0.9083 0.9083 0.9083);fill-opacity:1;"/>
<path d="M172.746 419.862C172.746 419.862 194.779 393.123 202.707 387.24C210.635 381.358 218.603 378.504 223.02 372.366C227.437 366.228 243.568 351.444 244.866 349.065C246.156 346.686 250.856 330.807 256.031 321.631C261.206 312.455 270.083 300.152 270.31 298.492C271.322 291.086 252.524 291.151 245.002 308.441C245.002 308.441 233.791 325.81 232.118 326.177C230.445 326.552 227.947 325.596 227.947 325.596C227.947 325.596 223.209 310.123 221.935 297.462C220.652 284.792 214.935 268.797 214.733 259.406C214.531 250.015 211.816 225.196 205.066 223.517C198.317 221.846 197.406 226.466 197.922 234.67C199.453 258.895 198.346 270.164 198.346 270.164C198.346 270.164 195.543 249.15 195.372 241.184C195.2 233.218 192.038 212.874 184.35 212.555C177.291 212.257 176.4 216.24 178.03 229.641C179.659 243.033 178.887 256.485 179.155 259.832C179.836 268.212 182.879 276.71 182.738 285.947C182.738 285.947 173.465 260.863 172.746 258.629C167.533 242.352 163.792 225.491 154.6 226.674C144.223 228.017 152.144 237.582 155.223 255.645C158.302 273.708 168.444 292.629 167.22 298.028C167.22 298.028 158.854 283.584 154.747 279.293C149.573 273.896 141.345 250.062 132.064 255.804C126.352 259.339 138.617 277.51 139.719 281.806C140.822 286.102 150.025 296.879 152.314 307.413C153.209 311.536 154.593 324.976 155.263 327.329C156.54 331.834 155.464 343.782 156.388 356.349C156.388 356.349 145.879 367.321 138.354 376.547C130.829 385.774 104.438 406.806 104.438 406.806" stroke="#65666D" style="stroke:#65666D;stroke:color(display-p3 0.3952 0.3994 0.4292);stroke-opacity:1;" stroke-width="0.848552" stroke-linecap="round" stroke-linejoin="round"/>
<path d="M227.945 325.588C227.945 325.588 230.611 330.733 228.202 337.507" stroke="#65666D" style="stroke:#65666D;stroke:color(display-p3 0.3952 0.3994 0.4292);stroke-opacity:1;" stroke-width="0.848552" stroke-linecap="round" stroke-linejoin="round"/>
<path d="M230.785 326.236C230.785 326.236 234.186 328.472 232.924 332.53" stroke="#65666D" style="stroke:#65666D;stroke:color(display-p3 0.3952 0.3994 0.4292);stroke-opacity:1;" stroke-width="0.848552" stroke-linecap="round" stroke-linejoin="round"/>
<path d="M198.348 270.15C198.348 270.15 201.436 289.053 200.342 292.608" stroke="#65666D" style="stroke:#65666D;stroke:color(display-p3 0.3952 0.3994 0.4292);stroke-opacity:1;" stroke-width="0.848552" stroke-linecap="round" stroke-linejoin="round"/>
<path d="M182.73 285.924C182.73 285.924 183.292 288.764 182.85 291.464" stroke="#65666D" style="stroke:#65666D;stroke:color(display-p3 0.3952 0.3994 0.4292);stroke-opacity:1;" stroke-width="0.848552" stroke-linecap="round" stroke-linejoin="round"/>
<path d="M167.211 298.01C167.211 298.01 167.773 300.849 167.287 301.53" stroke="#65666D" style="stroke:#65666D;stroke:color(display-p3 0.3952 0.3994 0.4292);stroke-opacity:1;" stroke-width="0.848552" stroke-linecap="round" stroke-linejoin="round"/>
<path d="M252.637 312.307C252.637 312.307 255.709 313.887 256.753 316.25" stroke="#65666D" style="stroke:#65666D;stroke:color(display-p3 0.3952 0.3994 0.4292);stroke-opacity:1;" stroke-width="0.848552" stroke-linecap="round" stroke-linejoin="round"/>
<path d="M181.755 234.997C181.755 234.997 184.855 235.847 187.313 233.358" stroke="#65666D" style="stroke:#65666D;stroke:color(display-p3 0.3952 0.3994 0.4292);stroke-opacity:1;" stroke-width="0.848552" stroke-linecap="round" stroke-linejoin="round"/>
<path d="M183.398 262.244C183.398 262.244 189.482 264.125 191.619 262.067" stroke="#65666D" style="stroke:#65666D;stroke:color(display-p3 0.3952 0.3994 0.4292);stroke-opacity:1;" stroke-width="0.848552" stroke-linecap="round" stroke-linejoin="round"/>
<path d="M203.161 267.708C203.161 267.708 207.158 266.111 209.857 266.893" stroke="#65666D" style="stroke:#65666D;stroke:color(display-p3 0.3952 0.3994 0.4292);stroke-opacity:1;" stroke-width="0.848552" stroke-linecap="round" stroke-linejoin="round"/>
<path d="M164.855 273.895C164.855 273.895 167.954 269.627 170.491 270.752" stroke="#65666D" style="stroke:#65666D;stroke:color(display-p3 0.3952 0.3994 0.4292);stroke-opacity:1;" stroke-width="0.848552" stroke-linecap="round" stroke-linejoin="round"/>
<path d="M152.03 286.594C152.03 286.594 149.209 287.996 148.399 289.439" stroke="#65666D" style="stroke:#65666D;stroke:color(display-p3 0.3952 0.3994 0.4292);stroke-opacity:1;" stroke-width="0.848552" stroke-linecap="round" stroke-linejoin="round"/>
<path d="M156.377 356.339C156.377 356.339 157.685 354.8 158.172 353.78C158.659 352.759 157.75 342.033 157.771 335.15" stroke="#65666D" style="stroke:#65666D;stroke:color(display-p3 0.3952 0.3994 0.4292);stroke-opacity:1;" stroke-width="0.848552" stroke-linecap="round" stroke-linejoin="round"/>
<path d="M192.497 397.84C188.63 402.354 176.688 410.632 171.923 415.606" stroke="#65666D" style="stroke:#65666D;stroke:color(display-p3 0.3952 0.3994 0.4292);stroke-opacity:1;" stroke-width="0.848552" stroke-linecap="round" stroke-linejoin="round"/>
<path d="M206.318 297.187C204.43 302.939 206.766 310.103 206.665 313.297C206.564 316.49 206.191 331.105 206.191 331.105" stroke="#65666D" style="stroke:#65666D;stroke:color(display-p3 0.3952 0.3994 0.4292);stroke-opacity:1;" stroke-width="0.848552" stroke-linecap="round" stroke-linejoin="round"/>
<path d="M188.021 297.572C185.438 302.16 186.399 308.182 187.304 311.184C188.209 314.186 187.726 326.453 187.726 326.453" stroke="#65666D" style="stroke:#65666D;stroke:color(display-p3 0.3952 0.3994 0.4292);stroke-opacity:1;" stroke-width="0.848552" stroke-linecap="round" stroke-linejoin="round"/>
<path d="M159.473 312.633C159.07 317.174 161.337 321.157 161.337 321.157" stroke="#65666D" style="stroke:#65666D;stroke:color(display-p3 0.3952 0.3994 0.4292);stroke-opacity:1;" stroke-width="0.848552" stroke-linecap="round" stroke-linejoin="round"/>
<path d="M175.891 303.373C174.5 308.945 176.564 311.413 176.752 312.249" stroke="#65666D" style="stroke:#65666D;stroke:color(display-p3 0.3952 0.3994 0.4292);stroke-opacity:1;" stroke-width="0.848552" stroke-linecap="round" stroke-linejoin="round"/>
<rect x="245.612" y="252.652" width="82.086" height="33.375" rx="6.71999" transform="rotate(-30 245.612 252.652)" fill="#F3F0F0" stroke="#65666D" style="fill:#F3F0F0;fill:color(display-p3 0.9529 0.9412 0.9412);fill-opacity:1;stroke:#65666D;stroke:color(display-p3 0.3961 0.4000 0.4275);stroke-opacity:1;" stroke-width="0.895998"/>
<path d="M268.609 255.441C268.797 255.766 268.923 256.127 268.988 256.524C269.057 256.906 269.057 257.293 268.99 257.684C268.917 258.066 268.771 258.432 268.55 258.781C268.325 259.123 268.01 259.41 267.606 259.643L265.047 261.121L267.156 264.775L265.943 265.476L260.695 256.387L264.468 254.209C264.908 253.955 265.334 253.82 265.747 253.804C266.164 253.775 266.554 253.831 266.917 253.973C267.276 254.106 267.602 254.305 267.895 254.569C268.183 254.825 268.421 255.115 268.609 255.441ZM267.409 256.134C267.125 255.641 266.745 255.339 266.269 255.226C265.803 255.109 265.332 255.187 264.857 255.461L262.549 256.794L264.399 260L266.708 258.667C267.183 258.393 267.488 258.029 267.625 257.575C267.77 257.115 267.698 256.635 267.409 256.134ZM273.339 261.205L268.092 252.116L274.16 248.613L274.8 249.721L269.945 252.524L271.613 255.413L275.768 253.014L276.4 254.109L272.245 256.508L273.921 259.41L278.775 256.607L279.407 257.702L273.339 261.205ZM285.381 242.135L290.628 251.223L280.603 257.012L275.356 247.923L276.569 247.222L281.184 255.216L284.377 253.373L279.761 245.379L280.949 244.694L285.564 252.687L288.783 250.829L284.167 242.835L285.381 242.135ZM292.16 250.339L286.913 241.25L292.981 237.747L293.62 238.855L288.766 241.658L290.434 244.547L294.589 242.147L295.221 243.242L291.066 245.641L292.742 248.543L297.596 245.741L298.228 246.836L292.16 250.339ZM304.885 242.992L302.547 238.943L298.286 241.403L300.624 245.452L299.41 246.153L294.163 237.064L295.377 236.364L297.646 240.295L301.907 237.835L299.637 233.904L300.877 233.188L306.125 242.276L304.885 242.992ZM312.526 234.623C312.795 235.089 312.951 235.562 312.994 236.042C313.045 236.516 312.993 236.975 312.837 237.416C312.691 237.852 312.454 238.265 312.127 238.653C311.803 239.027 311.404 239.351 310.929 239.626C310.437 239.91 309.943 240.101 309.449 240.199C308.949 240.288 308.474 240.287 308.022 240.196C307.58 240.1 307.166 239.911 306.781 239.629C306.404 239.342 306.081 238.966 305.812 238.5L303.999 235.36C303.735 234.903 303.573 234.439 303.513 233.97C303.462 233.495 303.505 233.042 303.643 232.611C303.785 232.166 304.019 231.749 304.346 231.361C304.673 230.973 305.083 230.636 305.575 230.352C306.059 230.073 306.551 229.889 307.05 229.8C307.55 229.71 308.028 229.716 308.484 229.816C308.936 229.907 309.354 230.093 309.74 230.375C310.125 230.657 310.45 231.026 310.714 231.484L312.526 234.623ZM309.571 232.337C309.357 231.968 309.118 231.684 308.851 231.486C308.584 231.288 308.306 231.162 308.016 231.106C307.721 231.042 307.419 231.047 307.109 231.12C306.808 231.188 306.513 231.306 306.223 231.473C305.933 231.641 305.678 231.84 305.46 232.072C305.251 232.298 305.1 232.555 305.008 232.843C304.92 233.117 304.895 233.418 304.933 233.748C304.971 234.078 305.097 234.428 305.31 234.797L306.955 237.646C307.168 238.016 307.408 238.299 307.675 238.497C307.941 238.695 308.22 238.821 308.51 238.877C308.8 238.932 309.095 238.926 309.396 238.858C309.705 238.785 310.001 238.667 310.282 238.504C310.572 238.337 310.822 238.14 311.031 237.913C311.241 237.687 311.394 237.434 311.491 237.156C311.597 236.872 311.631 236.565 311.593 236.235C311.555 235.905 311.429 235.556 311.216 235.186L309.571 232.337ZM315.548 233.512L314.559 234.083L310.605 227.448L311.779 226.77L315.548 233.512ZM315.302 236.011C315.196 235.826 315.158 235.619 315.19 235.389C315.23 235.155 315.374 234.967 315.62 234.825C315.875 234.677 316.119 234.642 316.351 234.719C316.583 234.796 316.752 234.927 316.859 235.112C316.986 235.332 317.025 235.561 316.975 235.801C316.921 236.032 316.766 236.221 316.511 236.368C316.265 236.51 316.033 236.544 315.814 236.471C315.605 236.393 315.434 236.239 315.302 236.011Z" fill="#65666D" style="fill:#65666D;fill:color(display-p3 0.3961 0.4000 0.4275);fill-opacity:1;"/>
<path d="M386.854 257.213L373.916 259.851L355.934 263.523L332.383 268.332C330.481 268.721 328.63 267.497 328.241 265.595L322.435 237.16C322.055 235.258 323.28 233.407 325.172 233.018L338.87 230.22L358.796 226.159L379.643 221.899C381.545 221.51 383.396 222.735 383.785 224.636L389.591 253.072C389.98 254.973 388.755 256.824 386.854 257.213Z" fill="#FFA469" style="fill:#FFA469;fill:color(display-p3 1.0000 0.6431 0.4118);fill-opacity:1;"/>
<path d="M386.854 257.213L373.916 259.851L355.934 263.523L332.383 268.332C330.481 268.721 328.63 267.497 328.241 265.595L322.435 237.16C322.055 235.258 323.28 233.407 325.172 233.018L338.87 230.22L358.796 226.159L379.643 221.899C381.545 221.51 383.396 222.735 383.785 224.636L389.591 253.072C389.98 254.973 388.755 256.824 386.854 257.213Z" stroke="#65666D" style="stroke:#65666D;stroke:color(display-p3 0.3952 0.3994 0.4292);stroke-opacity:1;" stroke-width="0.848552" stroke-linecap="round" stroke-linejoin="round"/>
<path d="M390.419 256.494L335.948 267.614C334.046 268.003 332.195 266.778 331.806 264.876L326 236.441C325.611 234.54 326.836 232.689 328.737 232.3L383.208 221.18C385.11 220.791 386.961 222.016 387.35 223.918L393.156 252.353C393.545 254.254 392.32 256.106 390.419 256.494Z" stroke="#65666D" style="stroke:#65666D;stroke:color(display-p3 0.3952 0.3994 0.4292);stroke-opacity:1;" stroke-width="0.848552" stroke-linecap="round" stroke-linejoin="round"/>
<path d="M387.142 255.09L336.025 265.526C335.104 265.716 334.209 265.124 334.019 264.203L328.299 236.19C328.109 235.269 328.701 234.373 329.622 234.184L380.738 223.748C381.659 223.558 382.555 224.15 382.744 225.071L388.465 253.084C388.654 254.005 388.063 254.9 387.142 255.09Z" stroke="#65666D" style="stroke:#65666D;stroke:color(display-p3 0.3952 0.3994 0.4292);stroke-opacity:1;" stroke-width="0.848552" stroke-linecap="round" stroke-linejoin="round"/>
<path d="M390.429 256.481L386.88 257.203C388.764 256.806 389.98 254.963 389.592 253.07L383.786 224.635C383.397 222.734 381.545 221.509 379.644 221.898L383.219 221.167C385.12 220.787 386.971 222.012 387.36 223.905L393.166 252.34C393.547 254.242 392.322 256.093 390.429 256.481Z" stroke="#65666D" style="stroke:#65666D;stroke:color(display-p3 0.3952 0.3994 0.4292);stroke-opacity:1;" stroke-width="0.848552" stroke-linecap="round" stroke-linejoin="round"/>
<path d="M555.979 406.819L462.449 440.722C462.449 440.722 447.154 413.076 433.022 387.426C421.735 366.942 411.187 347.733 409.76 344.903C406.559 338.53 395.842 325.265 395.842 325.265C395.842 325.265 384.978 319.354 379.836 308.762C374.702 298.161 368.467 260.017 368.467 260.017C368.467 260.017 354.244 255.01 350.826 252.741C347.399 250.48 343.875 229.074 343.822 226.623C343.769 224.171 347.032 219.187 347.032 219.187C347.032 219.187 346.199 215.606 350.431 211.882C351.555 210.89 353.044 209.882 355.01 208.94C355.035 208.923 355.069 208.913 355.094 208.896C355.094 208.896 354.359 200.789 358.533 198.331C358.726 198.217 358.936 198.111 359.155 198.021C362.89 196.489 375.185 194.349 375.185 194.349C375.185 194.349 378.047 191.665 381.091 190.768C383.267 190.118 395.34 192.651 402.086 194.161C404.798 194.764 406.649 195.2 406.649 195.2C406.649 195.2 418.011 195.473 420.185 196.708C421.93 197.697 423.699 199.442 424.332 200.09L424.341 200.09C424.471 200.24 424.558 200.331 424.558 200.331C424.558 200.331 434.724 202.218 436.95 205.879C439.176 209.531 440.488 227.912 439.218 239.899C437.94 251.894 441.125 272.11 441.125 272.11C441.125 272.11 444.627 287.711 447.206 293.605C449.786 299.5 495.577 345.722 495.577 345.722L555.979 406.819Z" fill="#E8E8E8" style="fill:#E8E8E8;fill:color(display-p3 0.9083 0.9083 0.9083);fill-opacity:1;"/>
<path opacity="0.4" d="M424.334 200.076C414.76 197.676 401.912 194.244 401.912 194.244C401.912 194.244 401.971 194.208 402.088 194.147C404.8 194.75 406.651 195.186 406.651 195.186C406.651 195.186 418.014 195.459 420.188 196.694C421.932 197.683 423.701 199.428 424.334 200.076Z" fill="#FFA469" style="fill:#FFA469;fill:color(display-p3 1.0000 0.6431 0.4118);fill-opacity:1;"/>
<path d="M411.227 215.348C402.91 213.838 397.141 221.032 397.141 221.032C397.141 221.032 405.539 228.303 407.431 231.462C409.333 234.638 412.585 245.33 412.585 245.33C416.066 245.815 422.395 242.106 423.717 232.563C425.04 223.02 419.543 216.849 411.227 215.348Z" fill="#FFA469" style="fill:#FFA469;fill:color(display-p3 1.0000 0.6431 0.4118);fill-opacity:1;"/>
<path d="M428.589 385.591C428.589 385.591 412.962 351.267 409.76 344.894C406.559 338.521 395.843 325.256 395.843 325.256C395.843 325.256 384.979 319.354 379.837 308.753C374.695 298.153 368.467 260.008 368.467 260.008C368.467 260.008 354.245 255.001 350.818 252.741C347.391 250.472 343.867 229.074 343.814 226.622C343.762 224.171 347.032 219.186 347.032 219.186C347.032 219.186 345.677 213.401 355.095 208.896C355.095 208.896 354.292 200.009 359.155 198.012C362.891 196.48 375.186 194.34 375.186 194.34C375.186 194.34 378.039 191.665 381.092 190.759C384.137 189.853 406.65 195.199 406.65 195.199C406.65 195.199 418.012 195.473 420.178 196.699C422.351 197.926 424.551 200.34 424.551 200.34C424.551 200.34 434.717 202.226 436.943 205.878C439.168 209.531 440.481 227.912 439.211 239.907C437.941 251.902 441.118 272.118 441.118 272.118C441.118 272.118 444.619 287.711 447.199 293.614C449.779 299.508 495.57 345.73 495.57 345.73" stroke="#65666D" style="stroke:#65666D;stroke:color(display-p3 0.3952 0.3994 0.4292);stroke-opacity:1;" stroke-width="0.848552" stroke-linecap="round" stroke-linejoin="round"/>
<path d="M418.275 257.692C418.275 257.692 416.119 257.28 413.144 247.218C410.169 237.157 409.338 232.438 403.491 226.564C399.344 222.384 389.906 215.686 385.196 210.576C380.486 205.466 375.331 201.401 371.413 204.669C368.286 207.274 366.367 213.944 369.377 224.072C373.247 237.094 384.665 243.086 384.665 243.086L387.785 259.51C387.785 259.51 376.298 283.811 390.326 306.213" stroke="#65666D" style="stroke:#65666D;stroke:color(display-p3 0.3952 0.3994 0.4292);stroke-opacity:1;" stroke-width="0.848552" stroke-linecap="round" stroke-linejoin="round"/>
<path d="M397.141 221.037C397.141 221.037 402.91 213.852 411.227 215.353C419.543 216.855 425.048 223.034 423.717 232.569C422.386 242.103 416.066 245.821 412.585 245.336" stroke="#65666D" style="stroke:#65666D;stroke:color(display-p3 0.3952 0.3994 0.4292);stroke-opacity:1;" stroke-width="0.848552" stroke-linecap="round" stroke-linejoin="round"/>
<path d="M375.182 194.339C375.182 194.339 373.834 197.534 372.539 204.038" stroke="#65666D" style="stroke:#65666D;stroke:color(display-p3 0.3952 0.3994 0.4292);stroke-opacity:1;" stroke-width="0.848552" stroke-linecap="round" stroke-linejoin="round"/>
<path d="M370.859 227.674C370.859 227.674 371.797 238.136 373.334 241.319C374.88 244.511 377.388 247.063 378.546 251.18C379.704 255.297 380.003 261.733 380.329 262.651C380.654 263.56 382.441 263.777 382.441 263.777C384.962 263.782 385.977 262.436 387.401 260.385" stroke="#65666D" style="stroke:#65666D;stroke:color(display-p3 0.3952 0.3994 0.4292);stroke-opacity:1;" stroke-width="0.848552" stroke-linecap="round" stroke-linejoin="round"/>
<path d="M355.102 208.893C355.102 208.893 357.882 231.223 359.928 240.693C361.973 250.164 365.218 251.469 370.654 254.424C376.09 257.38 379.135 263.595 379.613 264.51C380.091 265.416 381.85 265.506 381.85 265.506C383.471 265.505 386.035 263.956 386.726 262.167" stroke="#65666D" style="stroke:#65666D;stroke:color(display-p3 0.3952 0.3994 0.4292);stroke-opacity:1;" stroke-width="0.848552" stroke-linecap="round" stroke-linejoin="round"/>
<path d="M347.031 219.188C346.473 220.083 351.874 242.705 354.578 249.25C357.282 255.795 357.602 256.849 364.411 258.544C371.229 260.24 376.446 263.259 378.255 262.125" stroke="#65666D" style="stroke:#65666D;stroke:color(display-p3 0.3952 0.3994 0.4292);stroke-opacity:1;" stroke-width="0.848552" stroke-linecap="round" stroke-linejoin="round"/>
<path d="M393.836 205.604C393.836 205.604 397.538 213.96 395.333 219.55" stroke="#65666D" style="stroke:#65666D;stroke:color(display-p3 0.3952 0.3994 0.4292);stroke-opacity:1;" stroke-width="0.848552" stroke-linecap="round" stroke-linejoin="round"/>
<path d="M406.652 195.205C406.652 195.205 415.775 198.692 424.561 200.345" stroke="#65666D" style="stroke:#65666D;stroke:color(display-p3 0.3952 0.3994 0.4292);stroke-opacity:1;" stroke-width="0.848552" stroke-linecap="round" stroke-linejoin="round"/>
<path d="M430.58 223.832C430.58 223.832 427.989 228.828 423.914 229.976" stroke="#65666D" style="stroke:#65666D;stroke:color(display-p3 0.3952 0.3994 0.4292);stroke-opacity:1;" stroke-width="0.848552" stroke-linecap="round" stroke-linejoin="round"/>
<path d="M423.681 218.607C423.681 218.607 422.768 221.139 421.757 221.9" stroke="#65666D" style="stroke:#65666D;stroke:color(display-p3 0.3952 0.3994 0.4292);stroke-opacity:1;" stroke-width="0.848552" stroke-linecap="round" stroke-linejoin="round"/>
<path d="M427.51 238.774C427.51 238.774 421.477 243.555 415.606 244.878" stroke="#65666D" style="stroke:#65666D;stroke:color(display-p3 0.3952 0.3994 0.4292);stroke-opacity:1;" stroke-width="0.848552" stroke-linecap="round" stroke-linejoin="round"/>
<path d="M413.133 247.213C413.133 247.213 415.713 250.383 422.363 250.545" stroke="#65666D" style="stroke:#65666D;stroke:color(display-p3 0.3952 0.3994 0.4292);stroke-opacity:1;" stroke-width="0.848552" stroke-linecap="round" stroke-linejoin="round"/>
<path d="M393.015 233.579C393.015 233.579 398.897 227.689 402.342 228.404" stroke="#65666D" style="stroke:#65666D;stroke:color(display-p3 0.3952 0.3994 0.4292);stroke-opacity:1;" stroke-width="0.848552" stroke-linecap="round" stroke-linejoin="round"/>
<path d="M404.761 234.511C404.761 234.511 400.288 238.028 399.456 238.012" stroke="#65666D" style="stroke:#65666D;stroke:color(display-p3 0.3952 0.3994 0.4292);stroke-opacity:1;" stroke-width="0.848552" stroke-linecap="round" stroke-linejoin="round"/>
<path d="M358.338 253.459C358.338 253.459 359.854 253.707 360.994 251.866" stroke="#65666D" style="stroke:#65666D;stroke:color(display-p3 0.3952 0.3994 0.4292);stroke-opacity:1;" stroke-width="0.848552" stroke-linecap="round" stroke-linejoin="round"/>
<path d="M363.527 245.114C363.527 245.114 367.126 242.77 369.501 242.286" stroke="#65666D" style="stroke:#65666D;stroke:color(display-p3 0.3952 0.3994 0.4292);stroke-opacity:1;" stroke-width="0.848552" stroke-linecap="round" stroke-linejoin="round"/>
<path d="M397.313 320.947C398.054 320.26 404.972 314.4 409.298 312.295" stroke="#65666D" style="stroke:#65666D;stroke:color(display-p3 0.3952 0.3994 0.4292);stroke-opacity:1;" stroke-width="0.848552" stroke-linecap="round" stroke-linejoin="round"/>
<path d="M406.395 318.059C405.891 317.917 401.977 322.194 399.9 323.919" stroke="#65666D" style="stroke:#65666D;stroke:color(display-p3 0.3952 0.3994 0.4292);stroke-opacity:1;" stroke-width="0.848552" stroke-linecap="round" stroke-linejoin="round"/>
<path d="M408.68 330.439C408.68 330.439 422.648 355.584 425.896 365.708" stroke="#65666D" style="stroke:#65666D;stroke:color(display-p3 0.3952 0.3994 0.4292);stroke-opacity:1;" stroke-width="0.848552" stroke-linecap="round" stroke-linejoin="round"/>
<path d="M447.203 293.619C448.483 299.847 452.272 304.374 454.337 306.825" stroke="#65666D" style="stroke:#65666D;stroke:color(display-p3 0.3952 0.3994 0.4292);stroke-opacity:1;" stroke-width="0.848552" stroke-linecap="round" stroke-linejoin="round"/>
<defs>
<clipPath id="clip0_252_1929">
<rect width="484.933" height="414.175" fill="white" style="fill:white;fill-opacity:1;"/>
</clipPath>
<clipPath id="clip1_252_1929">
<rect width="394.644" height="251.855" fill="white" style="fill:white;fill-opacity:1;" transform="translate(63.7617 73.3281) rotate(-6.45172)"/>
</clipPath>
<clipPath id="clip2_252_1929">
<rect width="97.7127" height="17.5382" fill="white" style="fill:white;fill-opacity:1;" transform="translate(210.112 116.658) rotate(-8.02739)"/>
</clipPath>
</defs>
</svg>
