<svg width="20" height="20" viewBox="0 0 20 20" fill="none" xmlns="http://www.w3.org/2000/svg">
<path d="M9.9987 10.6263C7.35703 10.6263 5.20703 8.4763 5.20703 5.83464C5.20703 3.19297 7.35703 1.04297 9.9987 1.04297C12.6404 1.04297 14.7904 3.19297 14.7904 5.83464C14.7904 8.4763 12.6404 10.6263 9.9987 10.6263ZM9.9987 2.29297C8.0487 2.29297 6.45703 3.88464 6.45703 5.83464C6.45703 7.78464 8.0487 9.3763 9.9987 9.3763C11.9487 9.3763 13.5404 7.78464 13.5404 5.83464C13.5404 3.88464 11.9487 2.29297 9.9987 2.29297Z" fill="#FFA469" style="fill:#FFA469;fill:color(display-p3 1.0000 0.6431 0.4118);fill-opacity:1;"/>
<path d="M2.83984 18.9583C2.49818 18.9583 2.21484 18.675 2.21484 18.3333C2.21484 14.775 5.70651 11.875 9.99817 11.875C10.8398 11.875 11.6648 11.9834 12.4648 12.2084C12.7982 12.3 12.9899 12.6417 12.8982 12.975C12.8065 13.3083 12.4648 13.5 12.1315 13.4084C11.4482 13.2167 10.7315 13.125 9.99817 13.125C6.39817 13.125 3.46484 15.4583 3.46484 18.3333C3.46484 18.675 3.18151 18.9583 2.83984 18.9583Z" fill="#FFA469" style="fill:#FFA469;fill:color(display-p3 1.0000 0.6431 0.4118);fill-opacity:1;"/>
<path d="M15.0013 18.9596C14.018 18.9596 13.0846 18.593 12.3596 17.9347C12.068 17.6847 11.8096 17.3763 11.6096 17.0346C11.243 16.4346 11.043 15.7263 11.043 15.0013C11.043 13.9596 11.443 12.9846 12.1596 12.243C12.9096 11.468 13.918 11.043 15.0013 11.043C16.1346 11.043 17.2096 11.5263 17.943 12.3596C18.593 13.0846 18.9596 14.018 18.9596 15.0013C18.9596 15.318 18.918 15.6346 18.8346 15.9346C18.7513 16.3096 18.593 16.7013 18.3763 17.043C17.6846 18.2263 16.3846 18.9596 15.0013 18.9596ZM15.0013 12.293C14.2596 12.293 13.5763 12.5846 13.0596 13.1096C12.568 13.618 12.293 14.2846 12.293 15.0013C12.293 15.493 12.4263 15.9763 12.6846 16.393C12.818 16.6263 12.993 16.8346 13.193 17.0096C13.693 17.4679 14.3346 17.718 15.0013 17.718C15.943 17.718 16.8346 17.218 17.318 16.4096C17.4596 16.1763 17.568 15.9097 17.6263 15.6513C17.6846 15.4347 17.7096 15.2263 17.7096 15.0096C17.7096 14.343 17.4596 13.7013 17.0096 13.2013C16.5096 12.618 15.7763 12.293 15.0013 12.293Z" fill="#FFA469" style="fill:#FFA469;fill:color(display-p3 1.0000 0.6431 0.4118);fill-opacity:1;"/>
<path d="M16.2495 15.6094H13.7578C13.4161 15.6094 13.1328 15.326 13.1328 14.9844C13.1328 14.6427 13.4161 14.3594 13.7578 14.3594H16.2495C16.5911 14.3594 16.8745 14.6427 16.8745 14.9844C16.8745 15.326 16.5911 15.6094 16.2495 15.6094Z" fill="#FFA469" style="fill:#FFA469;fill:color(display-p3 1.0000 0.6431 0.4118);fill-opacity:1;"/>
<path d="M15 16.8823C14.6583 16.8823 14.375 16.599 14.375 16.2573V13.7656C14.375 13.424 14.6583 13.1406 15 13.1406C15.3417 13.1406 15.625 13.424 15.625 13.7656V16.2573C15.625 16.6073 15.3417 16.8823 15 16.8823Z" fill="#FFA469" style="fill:#FFA469;fill:color(display-p3 1.0000 0.6431 0.4118);fill-opacity:1;"/>
</svg>
