<svg width="20" height="20" viewBox="0 0 20 20" fill="none" xmlns="http://www.w3.org/2000/svg">
<path d="M10 11.4596C9.65833 11.4596 9.375 11.1763 9.375 10.8346V6.66797C9.375 6.3263 9.65833 6.04297 10 6.04297C10.3417 6.04297 10.625 6.3263 10.625 6.66797V10.8346C10.625 11.1763 10.3417 11.4596 10 11.4596Z" fill="#FFA469" style="fill:#FFA469;fill:color(display-p3 1.0000 0.6431 0.4118);fill-opacity:1;"/>
<path d="M9.9987 18.9583C5.63203 18.9583 2.08203 15.4083 2.08203 11.0417C2.08203 6.675 5.63203 3.125 9.9987 3.125C14.3654 3.125 17.9154 6.675 17.9154 11.0417C17.9154 11.3833 17.632 11.6667 17.2904 11.6667C16.9487 11.6667 16.6654 11.3833 16.6654 11.0417C16.6654 7.36667 13.6737 4.375 9.9987 4.375C6.3237 4.375 3.33203 7.36667 3.33203 11.0417C3.33203 14.7167 6.3237 17.7083 9.9987 17.7083C10.3404 17.7083 10.6237 17.9917 10.6237 18.3333C10.6237 18.675 10.3404 18.9583 9.9987 18.9583Z" fill="#FFA469" style="fill:#FFA469;fill:color(display-p3 1.0000 0.6431 0.4118);fill-opacity:1;"/>
<path d="M12.5 2.29297H7.5C7.15833 2.29297 6.875 2.00964 6.875 1.66797C6.875 1.3263 7.15833 1.04297 7.5 1.04297H12.5C12.8417 1.04297 13.125 1.3263 13.125 1.66797C13.125 2.00964 12.8417 2.29297 12.5 2.29297Z" fill="#FFA469" style="fill:#FFA469;fill:color(display-p3 1.0000 0.6431 0.4118);fill-opacity:1;"/>
<path d="M13.4557 18.3494C13.1641 18.3494 12.8974 18.2827 12.6557 18.141C12.1057 17.8244 11.7891 17.1827 11.7891 16.3827V14.4577C11.7891 13.6577 12.1057 13.016 12.6557 12.6994C13.2057 12.3827 13.9141 12.4327 14.6057 12.8244L16.2724 13.791C16.9641 14.191 17.3641 14.7827 17.3641 15.416C17.3641 16.0494 16.9641 16.641 16.2724 17.041L14.6057 18.0077C14.2224 18.2327 13.8307 18.3494 13.4557 18.3494ZM13.4641 13.7327C13.3974 13.7327 13.3307 13.7494 13.2807 13.7744C13.1307 13.8577 13.0391 14.116 13.0391 14.4494V16.3744C13.0391 16.7077 13.1307 16.966 13.2807 17.0494C13.4307 17.1327 13.6974 17.091 13.9807 16.9244L15.6474 15.9577C15.9391 15.791 16.1141 15.5827 16.1141 15.416C16.1141 15.2494 15.9391 15.041 15.6474 14.8744L13.9807 13.9077C13.7891 13.791 13.6057 13.7327 13.4641 13.7327Z" fill="#FFA469" style="fill:#FFA469;fill:color(display-p3 1.0000 0.6431 0.4118);fill-opacity:1;"/>
</svg>
